<svg xmlns="http://www.w3.org/2000/svg" xmlns:xlink="http://www.w3.org/1999/xlink" width="2123.087" height="1131.831" viewBox="0 0 2123.087 1131.831">
  <defs>
    <clipPath id="clip-path">
      <path id="Path_16" data-name="Path 16" d="M.016,0H2123.1V1033.192H.016Zm0,0" transform="translate(-0.016)" fill="none"/>
    </clipPath>
    <clipPath id="clip-path-2">
      <path id="Path_18" data-name="Path 18" d="M.594,274.574H2080.988V1320.8H.594Zm0,0" transform="translate(-0.594 -274.574)"/>
    </clipPath>
    <clipPath id="clip-path-3">
      <path id="Path_20" data-name="Path 20" d="M27,274.574H1978.916V1320.8H27Zm0,0" transform="translate(-27 -274.574)"/>
    </clipPath>
    <clipPath id="clip-path-4">
      <path id="Path_22" data-name="Path 22" d="M52,274.574H1882.591V1320.8H52Zm0,0" transform="translate(-52 -274.574)"/>
    </clipPath>
    <clipPath id="clip-path-5">
      <path id="Path_24" data-name="Path 24" d="M102,275H1329.531V1319.7H102Zm0,0" transform="translate(-102 -275)"/>
    </clipPath>
    <filter id="Đồng_hành_cùng_phụ_huynh_nhà_trường_học_sinh" x="1115.042" y="141.042" width="601" height="122" filterUnits="userSpaceOnUse">
      <feOffset dx="1" input="SourceAlpha"/>
      <feGaussianBlur stdDeviation="1" result="blur"/>
      <feFlood flood-color="#67ac2f"/>
      <feComposite operator="in" in2="blur"/>
      <feComposite in="SourceGraphic"/>
    </filter>
    <filter id="Rectangle_8" x="274.975" y="656.344" width="881.107" height="216.777" filterUnits="userSpaceOnUse">
      <feOffset dx="1" dy="1" input="SourceAlpha"/>
      <feGaussianBlur stdDeviation="0.5" result="blur-2"/>
      <feFlood flood-color="#fff" flood-opacity="0.878"/>
      <feComposite operator="in" in2="blur-2"/>
      <feComposite in="SourceGraphic"/>
    </filter>
    <filter id="Theo_dõi_sàng_lọc_đánh_giá_rối_nhiễu_tâm_lý_ở_học_sinh" x="491.026" y="702.733" width="640" height="122" filterUnits="userSpaceOnUse">
      <feOffset dx="1" input="SourceAlpha"/>
      <feGaussianBlur stdDeviation="1" result="blur-3"/>
      <feFlood flood-color="#f77e1c"/>
      <feComposite operator="in" in2="blur-3"/>
      <feComposite in="SourceGraphic"/>
    </filter>
    <clipPath id="clip-_2ht-pt">
      <rect width="2123.087" height="1131.831"/>
    </clipPath>
  </defs>
  <g id="_2ht-pt" data-name="2ht-pt" clip-path="url(#clip-_2ht-pt)">
    <g id="Group_24" data-name="Group 24" transform="translate(0 84.124)">
      <g id="Group_19" data-name="Group 19" transform="translate(0 6.515)" clip-path="url(#clip-path)">
        <path id="Path_13" data-name="Path 13" d="M.016,0H2124.887V1042.347H.016Zm0,0" transform="translate(-0.016)" fill="none"/>
        <path id="Path_14" data-name="Path 14" d="M2124.887,0V1034.06H.016ZM.016,0" transform="translate(-0.016)" fill="none"/>
      </g>
      <g id="Group_20" data-name="Group 20" transform="translate(2.063)" clip-path="url(#clip-path-2)">
        <path id="Path_17" data-name="Path 17" d="M2077.166,1060.093a330.219,330.219,0,0,0-40.016-113.25l-3.7-6.5c-1.252-2.148-2.676-4.318-4-6.459l-4.014-6.365-2.005-3.158-2.177-3.157c-2.912-4.182-5.77-8.334-8.7-12.435l-9.31-12.2a508.607,508.607,0,0,0-41.708-46.28l-11.458-10.978c-3.929-3.589-7.986-7.173-11.958-10.728-3.85-3.525-8.182-7.027-12.283-10.495l-6.2-5.169c-2.091-1.709-4.293-3.4-6.427-5.1l-6.412-5.045-3.19-2.508c-1.06-.836-2.23-1.666-3.3-2.488l-13.257-9.825c-9.089-6.431-18.01-12.767-27.545-18.988l-6.969-4.621c-2.312-1.528-4.8-3.043-7.18-4.564l-7.162-4.5-3.554-2.228-1.8-1.118-1.827-1.1-14.663-8.758c-2.373-1.451-4.949-2.877-7.433-4.3l-7.483-4.261c-19.794-11.145-40.1-21.937-61.444-32.3-20.74-10.15-41.915-19.968-63.91-29.4l-8.057-3.475L1659.8,664.9c-5.463-2.277-10.83-4.527-16.293-6.761-11.026-4.412-21.828-8.788-33.05-13.04-43.2-16.673-88.332-32.1-133.94-46.468-22.413-6.963-44.73-13.739-67.507-20.2l-8.389-2.4c-1.409-.4-2.79-.808-4.2-1.2l-4.253-1.181-16.836-4.665c-5.52-1.556-11.251-3.056-16.854-4.569-5.617-1.493-11.166-3-16.782-4.47-44.187-11.591-88.807-22.405-133.48-32.511-43.506-9.832-87.344-19-131.1-27.617-84.428-16.609-169.26-31.256-253.3-44.362-10.3-1.593-20.461-3.194-30.806-4.73l-15.348-2.335-7.622-1.131-7.64-1.14-15.276-2.24c-5.031-.736-10.091-1.486-15.18-2.215L702.121,437.4c-34.2-4.737-66-9.84-95.023-15.247-3.7-.655-7.083-1.347-10.58-2.034l-10.427-2.047-9.952-2.091-4.964-1.037c-.849-.166-1.631-.354-2.423-.52l-2.359-.539-9.449-2.12c-1.6-.345-3.08-.714-4.571-1.081l-4.475-1.067-4.489-1.089L541.165,408c-.71-.186-1.406-.352-2.12-.548l-8.461-2.183c-2.869-.714-5.463-1.471-8.111-2.207l-3.975-1.116-2.005-.548c-.657-.181-1.324-.367-1.923-.548l-7.444-2.25c-1.242-.367-2.523-.749-3.722-1.131l-3.443-1.124-6.941-2.25-6.455-2.292-3.19-1.146-2.969-1.146-5.923-2.3-5.438-2.32c-.906-.382-1.841-.771-2.7-1.146l-2.48-1.175c-1.616-.771-3.3-1.55-4.892-2.322l-4.432-2.329-1.117-.591c-.375-.2-.767-.382-1.06-.583l-1.991-1.168-1.966-1.161-.963-.591-.5-.29-.432-.3c-2.259-1.558-4.728-3.121-6.566-4.693l-1.492-1.168-.724-.583-.628-.591-2.48-2.344a9.3,9.3,0,0,1-1.088-1.168l-1-1.174-1.006-1.161a4.508,4.508,0,0,1-.432-.578l-.375-.591-1.534-2.336-1.085-2.327-.253-.57a2.178,2.178,0,0,1-.221-.578l-.307-1.159-.321-1.161a5.6,5.6,0,0,1-.211-1.153l-.153-2.307a5.318,5.318,0,0,1,.057-1.14l.153-1.139.153-1.146a11.831,11.831,0,0,1,.35-1.139c.264-.757.446-1.506.753-2.264a32.645,32.645,0,0,1,6.452-8.91,71.689,71.689,0,0,1,11.472-8.65,148.807,148.807,0,0,1,16.35-8.277l4.864-2.017c.407-.166.8-.332,1.228-.491l1.324-.5L475,309.947l2.83-.965,2.815-.973,1.4-.491c.5-.159.988-.31,1.492-.469l6.006-1.9c2.091-.628,4.253-1.255,6.345-1.868s4.4-1.225,6.648-1.838l3.358-.915c.546-.159,1.17-.288,1.759-.447l1.784-.448,3.54-.893c1.17-.3,2.341-.591,3.636-.878l7.444-1.738c5.2-1.139,10.316-2.277,15.89-3.373l4.072-.814c1.406-.275,2.858-.533,4.25-.8l4.282-.8,2.116-.4c.753-.138,1.492-.26,2.216-.389l8.882-1.55,9.214-1.5q18.648-2.94,39.531-5.564l10.509-1.27c3.611-.417,7.233-.814,10.83-1.218l2.719-.31,2.787-.281,3.194-.332-.014-.094-.029-.1-.6-2.589v-.079l-.029-.087-.475.037c-2.13.144-4.25.31-6.384.469l-6.384.476-3.219.238-3.151.251c-4.207.34-8.446.685-12.629,1.032l-12.432,1.1c-16.49,1.506-32.533,3.178-47.991,4.988l-11.544,1.377-11.276,1.456c-.949.122-1.895.245-2.83.367l-2.733.375-5.506.764c-1.838.253-3.693.5-5.506.757l-5.353.794c-7.3,1.045-14.159,2.148-21.128,3.266l-10.177,1.707c-1.741.275-3.344.578-5,.866l-4.921.9-2.484.447c-.806.144-1.67.288-2.466.439l-4.767.923c-3.176.605-6.452,1.218-9.478,1.838-3.08.635-6.188,1.262-9.256,1.91l-8.935,1.94c-.739.159-1.52.325-2.23.491l-2.159.5-4.293,1-4.321,1-8.282,2.054-2.077.526c-.7.181-1.324.347-1.991.528l-7.933,2.119q-15.576,4.293-28.979,8.875-13.3,4.637-24.393,9.53A189.054,189.054,0,0,0,321.652,340c-1.408.873-2.7,1.746-4.042,2.624-.669.434-1.38.88-1.965,1.312l-1.784,1.342-1.77,1.327c-.613.447-1.213.908-1.714,1.355L307.3,350.67c-15.974,14.943-15.849,30.953,1.463,47.158l3.68,3.122,1.854,1.57c.683.528,1.422,1.039,2.133,1.565l4.377,3.172c1.631,1.044,3.3,2.083,4.99,3.143l2.551,1.593c.878.533,1.882,1.052,2.8,1.587l5.743,3.178c.474.268.99.533,1.533.8l4.809,2.379c2.189,1.074,4.279,2.141,6.691,3.193l7.179,3.2c.6.251,1.185.533,1.813.8l1.938.793,3.929,1.585,3.947,1.594c1.338.548,2.633,1.081,4.111,1.607l8.586,3.178,2.162.8c.753.268,1.449.533,2.245.806l4.643,1.572,9.392,3.187c3.29,1.052,6.666,2.1,10.038,3.158s6.705,2.133,10.356,3.156c28.758,8.515,62,16.775,99.148,24.72l24.408,5.355c4.071.88,8.043,1.788,12.029,2.689l12.029,2.718,6.038,1.377,5.981,1.384,12,2.79c8.125,1.86,15.972,3.778,23.962,5.688C681.043,510.984,744.189,528,803.178,546.4c30.6,9.559,60.26,19.5,88.289,29.852,28.84,10.626,56.245,21.7,81.877,33.16,3.247,1.449,6.37,2.927,9.563,4.4s6.509,2.94,9.521,4.448l9.353,4.512,2.355,1.124c.767.376,1.492.758,2.245,1.14l4.5,2.292c12.393,6.164,23.751,12.464,34.974,18.829,22.413,13.077,42.721,26.585,59.632,40.505,4.5,3.547,8.361,7.129,12.514,10.72,2.009,1.808,3.822,3.626,5.759,5.442l2.9,2.746,2.633,2.768a191.208,191.208,0,0,1,19.141,22.621,140.407,140.407,0,0,1,13.953,23.537l1.381,3.014a31.187,31.187,0,0,1,1.3,3.006l2.259,6.09.307.771.221.758.432,1.528.878,3.078c.307,1.037.7,2.069.892,3.091l.628,3.1a110.877,110.877,0,0,1,1.98,12.573l.321,6.357c.025.533.111,1.074.082,1.607l-.057,1.592-.082,3.215c-.057,1.081-.029,2.156-.111,3.237l-.35,3.229a61.785,61.785,0,0,1-.835,6.531l-1.213,6.583-1.756,6.625a144.483,144.483,0,0,1-11.18,27.062l-3.875,6.883-4.432,6.95-1.1,1.751-1.267,1.736-2.509,3.5c-.839,1.168-1.62,2.342-2.512,3.51l-2.8,3.54c-14.912,19.2-35.209,38.58-60.049,58.138-12.7,10.043-26.959,20.091-42.318,30.184q-23.439,15.374-50.657,30.852-27.909,15.7-59.574,31.424c-21.507,10.654-44.2,21.33-68.371,31.941q-36.82,16.21-77.388,32.317c-6.93,2.682-13.7,5.422-20.743,8.116l-21.314,8.133-21.924,8.146c-3.654,1.369-7.4,2.716-11.166,4.073l-11.3,4.065q-45.893,16.434-95.412,32.627c-33.511,10.978-68.456,21.791-104.376,32.511q-54.784,16.3-112.936,32.179c-39.335,10.735-79.856,21.252-121.283,31.583-83.132,20.732-170.029,40.533-259.573,59.118H2023.237a609.98,609.98,0,0,0,25.871-56.258,487.843,487.843,0,0,0,22.806-73.053,384.786,384.786,0,0,0,8.807-68.1,322.324,322.324,0,0,0-3.554-63.32" transform="translate(-0.594 -274.581)" fill="#89aec4"/>
      </g>
      <g id="Group_21" data-name="Group 21" transform="translate(96.291)" clip-path="url(#clip-path-3)">
        <path id="Path_19" data-name="Path 19" d="M1975.893,1056.211a314.219,314.219,0,0,0-35.534-111.346l-3.426-6.417c-1.185-2.106-2.484-4.239-3.711-6.343l-3.789-6.295-1.866-3.113-2.052-3.1-8.139-12.254-8.782-12.025a481.416,481.416,0,0,0-39.656-45.674l-11-10.827c-3.75-3.569-7.64-7.109-11.458-10.611-3.693-3.49-7.861-6.95-11.794-10.38l-5.952-5.1c-2.005-1.7-4.139-3.381-6.187-5.053l-6.177-5-3.094-2.473c-1.017-.829-2.13-1.644-3.19-2.466l-12.782-9.718c-8.81-6.372-17.4-12.635-26.652-18.792l-6.762-4.579c-2.244-1.513-4.639-3.012-6.955-4.512L1750,755.657l-5.185-3.316-1.8-1.087-14.245-8.694c-2.3-1.429-4.8-2.855-7.237-4.269l-7.248-4.217c-19.251-11.043-39.07-21.756-59.881-32.05-20.24-10.07-40.955-19.831-62.476-29.2l-7.89-3.466-8.057-3.41c-5.338-2.264-10.595-4.506-15.972-6.727-10.819-4.4-21.371-8.751-32.408-12.99-42.389-16.587-86.773-31.978-131.7-46.3-22.078-6.948-44.073-13.71-66.544-20.169l-8.293-2.393c-1.381-.4-2.748-.808-4.14-1.2l-4.168-1.181-16.643-4.65c-5.467-1.563-11.1-3.056-16.647-4.577-5.531-1.493-11.008-2.984-16.557-4.47-43.645-11.591-87.775-22.413-132.031-32.526-43.06-9.855-86.491-19.032-129.858-27.674-83.733-16.666-167.965-31.372-251.487-44.558-10.234-1.607-20.351-3.2-30.61-4.765l-15.237-2.314L696.1,448.3l-7.64-1.139-15.151-2.255c-5.031-.744-10.034-1.493-15.109-2.22l-29.689-4.305c-34.292-4.829-66.155-9.991-95.191-15.505-3.708-.67-7.108-1.369-10.595-2.061l-10.413-2.076-9.952-2.119-4.964-1.046c-.835-.181-1.616-.36-2.394-.548l-2.373-.541-9.435-2.148c-1.6-.345-3.065-.714-4.557-1.081l-8.935-2.191-2.216-.541c-.739-.2-1.438-.367-2.148-.563l-8.418-2.22c-2.873-.722-5.438-1.486-8.1-2.227l-3.943-1.118-1.981-.568c-.657-.181-1.324-.367-1.923-.555l-7.4-2.277c-1.213-.382-2.509-.751-3.693-1.126l-3.429-1.153-6.887-2.285-6.4-2.307-3.179-1.146-2.926-1.176-5.87-2.322-5.378-2.342c-.878-.375-1.813-.771-2.651-1.168l-2.437-1.176c-1.6-.777-3.262-1.556-4.839-2.342l-4.361-2.351-1.1-.591c-.36-.2-.739-.389-1.031-.583l-1.952-1.19-1.923-1.176-.96-.591-.475-.3-.432-.288c-2.2-1.58-4.628-3.143-6.4-4.715l-1.452-1.181-.71-.592-.6-.605-2.4-2.349a10.448,10.448,0,0,1-1.031-1.183l-.974-1.176-.949-1.168a3.638,3.638,0,0,1-.417-.591l-.36-.591-1.452-2.344-.96-2.342-.264-.585a3.45,3.45,0,0,1-.2-.576l-.25-1.176L355,351.047a3.111,3.111,0,0,1-.182-1.161l-.054-2.314a3.968,3.968,0,0,1,.1-1.153l.2-1.139.193-1.146a7.516,7.516,0,0,1,.421-1.146c.278-.764.514-1.521.835-2.277a34.411,34.411,0,0,1,6.844-8.947,75.053,75.053,0,0,1,11.833-8.664,155.275,155.275,0,0,1,16.743-8.312l4.96-2.012c.421-.166.782-.332,1.242-.5l1.338-.5,2.676-1,2.648-.98,5.731-1.954,1.42-.476c.489-.159,1.017-.317,1.506-.482l6.091-1.9c2.134-.627,4.321-1.248,6.455-1.86,2.077-.64,4.446-1.233,6.716-1.845l3.4-.915c.542-.151,1.2-.3,1.77-.439l5.392-1.342c1.2-.3,2.359-.605,3.683-.893l7.526-1.737c5.256-1.133,10.427-2.264,16.044-3.361l4.125-.829c1.4-.266,2.873-.519,4.3-.786l4.293-.806,2.13-.4c.739-.122,1.52-.253,2.273-.375l8.935-1.55,9.281-1.5c12.518-1.962,25.8-3.814,39.77-5.544l10.595-1.27c3.608-.41,7.247-.807,10.887-1.218l2.73-.3,2.787-.288,3.5-.347-.029-.1-.6-2.589v-.079l-.221.015c-2.134.144-4.225.31-6.359.469l-6.4.483-3.19.245-3.137.244c-4.182.354-8.393.692-12.571,1.039l-12.379,1.1q-24.633,2.27-47.727,5.009l-11.458,1.391-11.223,1.443c-.931.122-1.881.244-2.815.367l-2.716.375-5.467.757c-1.823.26-3.693.519-5.478.771l-5.31.794c-7.237,1.052-14.052,2.155-20.979,3.272l-10.091,1.7c-1.716.288-3.319.583-4.935.88l-4.907.886-2.455.432c-.821.159-1.67.3-2.423.461l-4.739.91c-3.165.62-6.412,1.218-9.4,1.845-3.069.633-6.148,1.26-9.171,1.9l-8.853,1.954c-.739.151-1.492.316-2.2.489l-2.12.5-4.279.995-4.264,1.017-4.1,1.015-4.082,1.039-2.052.511c-.7.181-1.324.347-1.991.533l-7.847,2.106q-15.351,4.3-28.59,8.873-13.108,4.617-24,9.495A179.233,179.233,0,0,0,256.45,340c-1.366.858-2.634,1.729-3.931,2.595-.669.441-1.352.873-1.938,1.319l-3.457,2.654a18.9,18.9,0,0,0-1.645,1.34l-3,2.7c-15.431,14.885-14.761,30.782,2.955,46.865l3.722,3.091,1.909,1.558c.7.526,1.45,1.039,2.188,1.565l4.447,3.121c1.631,1.054,3.345,2.091,5.046,3.13l2.565,1.578c.892.526,1.91,1.037,2.83,1.572l5.827,3.15c.488.266,1,.533,1.533.792l1.631.794,3.234,1.572c2.174,1.044,4.279,2.119,6.733,3.156l7.233,3.158c.6.268,1.185.533,1.813.8l1.966.779,3.943,1.578,3.972,1.58c1.327.541,2.666,1.059,4.1,1.57l8.643,3.158,2.173.793c.739.268,1.449.533,2.245.794l4.643,1.563,9.421,3.158c3.29,1.024,6.705,2.069,10.052,3.108,3.415,1.037,6.734,2.111,10.384,3.128,28.8,8.406,62,16.574,99.105,24.4l24.59,5.32c4.1.886,8.1,1.779,12.129,2.681l12.14,2.711,6.077,1.347,6.048,1.384,12.115,2.776c8.182,1.853,16.1,3.763,24.155,5.658,65.837,15.607,129.661,32.54,189.489,50.888,30.988,9.53,61.123,19.442,89.642,29.785,29.357,10.6,57.291,21.662,83.494,33.131,3.333,1.456,6.526,2.934,9.827,4.405,3.237,1.471,6.651,2.956,9.731,4.448l9.563,4.506,2.4,1.139c.821.382,1.574.757,2.341,1.153l4.642,2.285c12.682,6.164,24.365,12.494,35.962,18.886,23.095,13.114,44.159,26.687,61.819,40.7,4.682,3.569,8.782,7.173,13.117,10.8,2.077,1.816,4.014,3.654,6.048,5.485l3.04,2.768,2.816,2.79a209.843,209.843,0,0,1,20.379,22.83,152.168,152.168,0,0,1,15.234,23.817l1.506,3.058a27.012,27.012,0,0,1,1.477,3.056l2.594,6.171.318.771.282.777.5,1.55,1.046,3.123c.35,1.052.782,2.1,1.046,3.135l.8,3.157a113.166,113.166,0,0,1,2.6,12.752l.656,6.466c.043.548.154,1.081.154,1.63l.043,1.63.039,3.257c.014,1.1.086,2.2.071,3.287l-.225,3.3a59.281,59.281,0,0,1-.514,6.64l-.906,6.7-1.449,6.762a142.6,142.6,0,0,1-10.038,27.595l-3.611,7.044-4.154,7.1-1.045,1.773-1.185,1.788-2.4,3.582c-.792,1.205-1.531,2.408-2.37,3.6l-2.7,3.617c-14.22,19.645-33.957,39.513-58.322,59.567-12.461,10.308-26.513,20.637-41.665,31q-23.23,15.828-50.236,31.74-27.748,16.155-59.339,32.367c-21.453,10.986-44.13,21.986-68.328,32.945q-36.863,16.725-77.613,33.375c-6.944,2.783-13.76,5.61-20.811,8.4l-21.439,8.406-22.067,8.434c-3.65,1.421-7.444,2.813-11.248,4.209l-11.376,4.219q-46.209,17.007-96.193,33.816c-33.814,11.383-69.109,22.614-105.45,33.744q-55.426,16.966-114.41,33.5c-39.866,11.182-80.986,22.145-123.082,32.93q-90.827,23.28-187.327,45.012H1908.257a617.57,617.57,0,0,0,32.8-64.317,495.227,495.227,0,0,0,25.061-71.431,384.129,384.129,0,0,0,11.069-66.7,314.811,314.811,0,0,0-1.3-62.125" transform="translate(-26.428 -274.541)" fill="#fff"/>
      </g>
      <g id="Group_22" data-name="Group 22" transform="translate(185.501)" clip-path="url(#clip-path-4)">
        <path id="Path_21" data-name="Path 21" d="M1878.957,1052.36a298.834,298.834,0,0,0-31.181-109.471l-3.151-6.315c-1.1-2.076-2.326-4.174-3.468-6.243l-3.472-6.191-1.756-3.071L1834.006,918l-7.64-12.08-8.265-11.851A450.535,450.535,0,0,0,1780.48,849l-10.5-10.7c-3.611-3.51-7.344-7.015-10.984-10.475-3.526-3.445-7.54-6.856-11.319-10.257l-5.713-5.047c-1.952-1.672-3.975-3.329-5.966-5l-5.952-4.939-2.955-2.458c-.992-.8-2.052-1.615-3.1-2.429l-12.322-9.617c-8.489-6.293-16.8-12.506-25.771-18.606l-6.523-4.527c-2.177-1.5-4.5-2.991-6.734-4.477l-10.106-6.625-1.659-1.081-1.741-1.081-13.813-8.615c-2.259-1.427-4.671-2.818-7.026-4.237l-7.083-4.182c-18.706-10.958-38.011-21.562-58.3-31.791-19.765-10-39.991-19.687-61.07-29.014l-7.708-3.445-7.875-3.4c-5.242-2.242-10.384-4.484-15.666-6.69-10.609-4.363-20.964-8.7-31.755-12.918-41.579-16.522-85.224-31.848-129.451-46.15-21.76-6.928-43.435-13.675-65.612-20.119l-8.154-2.408c-1.367-.4-2.719-.794-4.086-1.2l-4.125-1.166-16.418-4.665c-5.381-1.55-10.973-3.049-16.436-4.555s-10.873-3-16.336-4.47c-43.128-11.593-86.759-22.413-130.554-32.548-42.61-9.877-85.685-19.082-128.684-27.746-83.022-16.718-166.644-31.481-249.624-44.73-10.174-1.615-20.226-3.237-30.442-4.787l-15.123-2.344-7.54-1.168-7.6-1.139-15.069-2.262c-4.989-.757-9.966-1.508-15.027-2.242l-29.521-4.333c-34.417-4.9-66.322-10.172-95.373-15.773-3.722-.67-7.108-1.391-10.609-2.083l-10.4-2.1-9.924-2.155-4.974-1.074c-.839-.173-1.62-.354-2.412-.533l-2.33-.555-9.435-2.178c-1.6-.36-3.065-.735-4.532-1.1l-8.921-2.222-2.245-.546c-.71-.181-1.406-.382-2.116-.556l-8.393-2.257c-2.873-.734-5.4-1.506-8.057-2.262l-3.929-1.126-1.98-.568c-.653-.2-1.3-.382-1.895-.585l-7.387-2.285c-1.213-.382-2.484-.757-3.626-1.146l-3.429-1.161-6.83-2.322-6.33-2.322-3.162-1.174-2.915-1.183-5.784-2.336-5.31-2.371c-.892-.389-1.8-.779-2.634-1.168l-2.426-1.2c-1.574-.786-3.2-1.572-4.739-2.364l-4.307-2.371-1.046-.607a10.012,10.012,0,0,1-1.046-.591l-1.895-1.188-2.858-1.773-.446-.3-.4-.3a74.8,74.8,0,0,1-6.273-4.765l-1.381-1.189-.71-.583-.585-.6-2.3-2.379a9.491,9.491,0,0,1-1-1.181l-.906-1.2-.906-1.181a2.411,2.411,0,0,1-.375-.592l-.35-.591-1.367-2.364-.878-2.344-.2-.591a1.954,1.954,0,0,1-.193-.591l-.432-2.344a4.06,4.06,0,0,1-.114-1.161l.043-2.314a3.686,3.686,0,0,1,.153-1.161l.239-1.153.236-1.161c.111-.375.307-.764.46-1.146.321-.757.6-1.528.946-2.285a35.758,35.758,0,0,1,7.237-8.989,79.539,79.539,0,0,1,12.211-8.679,159.241,159.241,0,0,1,17.118-8.334l5.06-2.019c.432-.172.806-.338,1.267-.5l1.352-.491,2.733-.995,2.687-.987,2.915-.973,2.9-.974,1.452-.474c.485-.181,1.031-.34,1.545-.491l6.177-1.91c2.13-.627,4.336-1.24,6.523-1.86,2.105-.627,4.528-1.233,6.787-1.845l3.458-.9c.557-.159,1.213-.3,1.8-.454l1.827-.448,3.636-.886c1.2-.31,2.384-.6,3.679-.886l7.654-1.731c5.281-1.139,10.509-2.277,16.183-3.359l4.168-.83c1.42-.266,2.9-.533,4.336-.8l4.35-.794,2.145-.4c.739-.129,1.492-.251,2.245-.388l9.032-1.537,9.367-1.5c12.6-1.947,25.971-3.8,40.02-5.529l10.648-1.262c3.625-.41,7.29-.8,10.944-1.2l2.733-.31,2.815-.281,3.79-.382-.6-2.589c-2.12.144-4.182.3-6.288.469l-6.37.484-3.19.231-3.108.266c-4.168.347-8.35.686-12.518,1.039l-12.322,1.109c-16.35,1.53-32.216,3.2-47.478,5.018l-11.415,1.391-11.123,1.463c-.921.124-1.87.245-2.8.367l-8.14,1.146c-1.784.253-3.636.506-5.435.764l-5.285.794c-7.176,1.046-13.924,2.163-20.8,3.266l-10.009,1.707c-1.713.29-3.286.578-4.907.866l-4.878.895-2.412.447c-.806.144-1.641.3-2.423.447l-4.685.915c-3.108.613-6.37,1.218-9.3,1.853-3.026.635-6.091,1.262-9.089,1.9l-8.768,1.94c-.739.166-1.492.325-2.2.491l-2.091.5-4.211.995-4.236,1.009-4.029,1.017-4.057,1.03-2.034.52c-.671.179-1.3.345-1.966.511l-7.751,2.12q-15.159,4.3-28.212,8.851c-8.586,3.078-16.477,6.243-23.614,9.465a173.694,173.694,0,0,0-18.72,10.043c-1.338.858-2.565,1.714-3.861,2.595-.6.424-1.3.866-1.854,1.312l-3.373,2.632a18.783,18.783,0,0,0-1.575,1.332l-2.885,2.689c-14.9,14.808-13.73,30.608,4.4,46.562l3.791,3.071,1.937,1.55c.725.511,1.478,1.022,2.2,1.535l4.544,3.106c1.631,1.024,3.387,2.063,5.116,3.1l2.606,1.558c.892.526,1.9,1.037,2.871,1.563l5.854,3.115c.474.266,1.018.533,1.575.779l1.617.779,3.262,1.563c2.216,1.046,4.321,2.113,6.8,3.137l7.251,3.121c.624.26,1.21.526,1.852.793l1.966.771,3.972,1.556,4,1.565c1.338.533,2.648,1.059,4.1,1.572l8.668,3.113,2.205.779c.739.26,1.449.526,2.23.786l4.682,1.55,9.449,3.106c3.3,1.032,6.691,2.054,10.066,3.093,3.4,1.024,6.734,2.083,10.4,3.093,28.826,8.3,62,16.363,99.037,24.085l24.768,5.284c4.125.878,8.154,1.773,12.211,2.667l12.268,2.689,6.145,1.349,6.091,1.384,12.2,2.746c8.254,1.845,16.283,3.733,24.408,5.63,66.433,15.527,130.957,32.374,191.591,50.663,31.434,9.508,61.99,19.392,91.009,29.721,29.86,10.583,58.351,21.641,85.142,33.118,3.4,1.449,6.662,2.92,10.006,4.4s6.8,2.956,9.981,4.462l9.813,4.514,2.469,1.139c.821.367,1.574.757,2.369,1.146l4.767,2.292c13,6.178,25.018,12.514,36.937,18.93,23.808,13.163,45.6,26.8,64.024,40.9,4.932,3.589,9.185,7.23,13.728,10.879,2.191,1.823,4.211,3.676,6.359,5.529l3.19,2.788,2.955,2.812a222.83,222.83,0,0,1,21.635,23.061,163.63,163.63,0,0,1,16.532,24.092l1.684,3.078a34.873,34.873,0,0,1,1.617,3.113l2.915,6.243.389.786.307.784.571,1.58,1.242,3.165c.36,1.059.878,2.119,1.185,3.178l.974,3.2a129.824,129.824,0,0,1,3.247,12.94l.963,6.581c.057.548.2,1.1.236,1.65l.085,1.667.236,3.309c.057,1.116.2,2.22.211,3.351l-.043,3.346a63.973,63.973,0,0,1-.207,6.762l-.628,6.826-1.131,6.878a137.906,137.906,0,0,1-8.85,28.143l-3.347,7.2-3.875,7.245-.974,1.831-1.128,1.809-2.245,3.671c-.753,1.225-1.463,2.451-2.259,3.684l-2.523,3.691c-13.563,20.089-32.687,40.448-56.595,61.028-12.182,10.561-26.021,21.158-40.98,31.811q-22.936,16.263-49.761,32.627c-156.271,94.794-411.565,190.238-736.737,275.8q-59.318,15.626-121.228,30.631H1796.969a631.8,631.8,0,0,0,40.6-72.3,493.693,493.693,0,0,0,27.195-69.824,382.245,382.245,0,0,0,13.267-65.317,305.776,305.776,0,0,0,.921-60.943" transform="translate(-51.378 -274.505)" fill="#83a9bf"/>
      </g>
      <g id="Group_23" data-name="Group 23" transform="translate(363.921 0.76)" clip-path="url(#clip-path-5)">
        <path id="Path_23" data-name="Path 23" d="M973.713,1271.167q-39.454,23.817-83.426,47.769h56.466q32.287-18.608,62-37.121Zm119.556-79.261q-35.338,26.041-76.357,52.385l34.9,9.833q40.771-27.1,75.8-53.889Zm90.423-75.019q-25.842,24.572-57.166,49.534l33.985,7.614q30.879-25.621,56.256-50.83Zm63.421-70.6a507.928,507.928,0,0,1-39.377,46.557l32.533,5.72a483.528,483.528,0,0,0,38.207-47.675Zm38.485-66.029a292.461,292.461,0,0,1-23.013,43.5l30.763,4.107a286.872,286.872,0,0,0,21.635-44.447Zm15.808-61.345a194.291,194.291,0,0,1-8.111,40.368l28.644,2.731a194.9,194.9,0,0,0,6.648-41.156Zm-4.528-56.628a165.89,165.89,0,0,1,5.156,37.22l26.4,1.6a172.5,172.5,0,0,0-6.719-37.855Zm-22.331-51.918a196.938,196.938,0,0,1,16.739,34.089l24.044.684a209.764,209.764,0,0,0-18.288-34.578Zm-37.5-47.271a282.83,282.83,0,0,1,26.553,31.013l21.717-.037a310.1,310.1,0,0,0-28.058-31.385Zm-49.929-42.824a434.351,434.351,0,0,1,34.538,28.066l19.473-.577q-16.6-14.523-35.987-28.324Zm-59.814-38.62q21.534,12.329,40.869,25.3l17.328-.965q-19.971-13.076-42.182-25.466Zm-67.368-34.721c15.78,7.369,31.042,14.948,45.636,22.729l15.4-1.212c-15-7.83-30.652-15.437-46.824-22.849ZM987,615.716q25.254,9.95,49.148,20.444l13.688-1.383q-24.419-10.536-50.193-20.5ZM910.163,587.65q26.324,8.935,51.6,18.377l12.143-1.448q-25.7-9.466-52.495-18.406Zm-79.436-25.285q27.014,8.061,53.191,16.568l10.844-1.483q-26.6-8.517-54-16.569ZM749.7,539.522q27.347,7.283,54.151,14.976l9.7-1.475q-27.18-7.673-54.864-14.948Zm-81.92-20.71q27.534,6.611,54.668,13.578l8.685-1.426q-27.432-6.938-55.271-13.536Zm-82.227-18.838q27.577,6.039,54.821,12.361l7.818-1.354q-27.512-6.323-55.349-12.319Zm-82.116-17.195q27.454,5.51,54.725,11.288l7.026-1.289q-27.475-5.759-55.2-11.238ZM421.656,467q27.309,5.068,54.475,10.366l6.341-1.217q-27.325-5.261-54.85-10.294Zm-81.138-14.537,54.011,9.575,5.745-1.125-54.25-9.494Zm-73.459-14.76c14.984,3.393,30.874,6.715,47.574,9.949l5.574-.987c-16.682-3.185-32.576-6.447-47.56-9.8Zm-60.481-15.517c12,3.537,24.979,7.017,38.831,10.417l5.592-.771c-13.856-3.358-26.863-6.786-38.878-10.287ZM159.81,406.2q13.339,5.4,29.65,10.7l5.477-.575q-16.352-5.22-29.818-10.591ZM127,390.025a183.522,183.522,0,0,0,20.336,10.783l5.185-.409a188.345,188.345,0,0,1-20.586-10.69Zm-19.084-16.079a59.636,59.636,0,0,0,11.208,10.69l4.8-.253a62.347,62.347,0,0,1-11.53-10.618Zm-5.841-15.682a21.58,21.58,0,0,0,2.455,10.4l4.293-.137a21.843,21.843,0,0,1-2.815-10.345Zm6.651-15.085a28.07,28.07,0,0,0-5.784,9.979l3.747-.044a27.05,27.05,0,0,1,5.381-9.934Zm18.3-14.277a85.086,85.086,0,0,0-13.467,9.423l3.165.028a79.259,79.259,0,0,1,13.089-9.387Zm29.243-13.283q-11.54,4.279-20.657,8.745l2.58.072a212.617,212.617,0,0,1,20.279-8.715ZM195.8,303.472q-14.886,3.87-27.459,7.961l2.005.1q12.381-4.072,27.1-7.945Zm49.262-10.812c-12.043,2.255-23.362,4.61-33.885,7.059l1.463.109q15.64-3.654,33.564-7.046ZM303.5,283.4q-21.014,2.821-39.952,5.993l.992.116q18.756-3.178,39.656-6.008Zm67.129-7.389q-23.5,2.171-45.176,4.789l-.557-.1q21.764-2.595,45.4-4.769l.336.079" transform="translate(-101.838 -274.212)" fill="#fff"/>
      </g>
    </g>
    <rect id="Rectangle_10" data-name="Rectangle 10" width="829.107" height="203.777" rx="10" transform="translate(918.255 100.154)" fill="#fff" stroke="#67ac2f" stroke-width="10"/>
    <g id="Group_28" data-name="Group 28" transform="translate(791.764 43.33)">
      <g id="location-60" transform="translate(0)">
        <path id="Path_12" data-name="Path 12" d="M91.075,145.665A91.075,91.075,0,0,1,0,54.591C0,32.308,119.091,145.665,91.075,145.665Z" transform="translate(60.526 111.309)" fill="#67ac2f"/>
        <path id="Path_11" data-name="Path 11" d="M189.675,0a152.706,152.706,0,0,0-116.5,251.543l116.5,137.206,116.5-137.206A152.706,152.706,0,0,0,189.675,0Zm0,210.377a62.841,62.841,0,1,1,62.841-62.841A62.841,62.841,0,0,1,189.675,210.377Z" transform="translate(-36.876)" fill="#67ac2f"/>
      </g>
      <g id="Ellipse_5" data-name="Ellipse 5" transform="translate(46.799 52.712)" fill="#fff" stroke="#707070" stroke-width="1">
        <circle cx="106" cy="106" r="106" stroke="none"/>
        <circle cx="106" cy="106" r="105.5" fill="none"/>
      </g>
      <text id="_2" data-name="2" transform="translate(95.799 228.712)" font-size="200" font-family="Roboto-Bold, Roboto" font-weight="700">
        <tspan x="0" y="0">2</tspan>
      </text>
    </g>
    <g transform="matrix(1, 0, 0, 1, 0, 0)" filter="url(#Đồng_hành_cùng_phụ_huynh_nhà_trường_học_sinh)">
      <text id="Đồng_hành_cùng_phụ_huynh_nhà_trường_học_sinh-2" data-name="Đồng hành cùng phụ huynh,
nhà trường &amp; học sinh" transform="translate(1415.04 190.04)" fill="#67ac2f" font-size="48" font-family="Roboto-Medium, Roboto" font-weight="500">
        <tspan x="-296.848" y="0">Đồng hành cùng phụ huynh,</tspan>
        <tspan x="-235.699" y="57.109">nhà trường &amp; học sinh</tspan>
      </text>
    </g>
    <g transform="matrix(1, 0, 0, 1, 0, 0)" filter="url(#Rectangle_8)">
      <rect id="Rectangle_8-2" data-name="Rectangle 8" width="868.107" height="203.777" rx="10" transform="translate(280.47 661.84)" fill="#fffefe" stroke="#f77e1c" stroke-width="10"/>
    </g>
    <g transform="matrix(1, 0, 0, 1, 0, 0)" filter="url(#Theo_dõi_sàng_lọc_đánh_giá_rối_nhiễu_tâm_lý_ở_học_sinh)">
      <text id="Theo_dõi_sàng_lọc_đánh_giá_rối_nhiễu_tâm_lý_ở_học_sinh-2" data-name="Theo dõi &amp; sàng lọc đánh giá,
rối nhiễu tâm lý ở học sinh" transform="translate(810.03 751.73)" fill="#f77e1c" font-size="48" font-family="Roboto-Medium, Roboto" font-weight="500">
        <tspan x="-316.078" y="0">Theo dõi &amp; sàng lọc đánh giá,</tspan>
        <tspan x="-280.934" y="57.109">rối nhiễu tâm lý ở học sinh</tspan>
      </text>
    </g>
    <g id="Group_29" data-name="Group 29" transform="translate(130.908 584.568)">
      <g id="Group_18" data-name="Group 18" transform="translate(0)">
        <g id="location-60-2" data-name="location-60">
          <path id="Path_12-2" data-name="Path 12" d="M109.409,164.584A109.409,109.409,0,0,1,0,55.175C0,28.407,143.066,164.584,109.409,164.584Z" transform="translate(72.711 144.122)" fill="#f77e1c"/>
          <path id="Path_11-2" data-name="Path 11" d="M220.435,0A183.447,183.447,0,0,0,80.484,302.182L220.435,467.009,360.386,302.182A183.447,183.447,0,0,0,220.435,0Zm0,252.729a75.492,75.492,0,1,1,75.492-75.492A75.492,75.492,0,0,1,220.435,252.729Z" transform="translate(-36.876)" fill="#f77e1c"/>
        </g>
      </g>
      <g id="Ellipse_6" data-name="Ellipse 6" transform="translate(56.22 51.983)" fill="#fff" stroke="#707070" stroke-width="1">
        <circle cx="127.339" cy="127.339" r="127.339" stroke="none"/>
        <circle cx="127.339" cy="127.339" r="126.839" fill="none"/>
      </g>
      <text id="_1" data-name="1" transform="translate(115.085 263.165)" font-size="240" font-family="Roboto-Bold, Roboto" font-weight="700">
        <tspan x="0" y="0">1</tspan>
      </text>
    </g>
  </g>
</svg>