<svg xmlns="http://www.w3.org/2000/svg" xmlns:xlink="http://www.w3.org/1999/xlink" width="2123.087" height="1131.831" viewBox="0 0 2123.087 1131.831">
  <defs>
    <clipPath id="clip-path">
      <path id="Path_16" data-name="Path 16" d="M.016,0H2123.1V1036.932H.016Zm0,0" transform="translate(-0.016)" fill="none"/>
    </clipPath>
    <clipPath id="clip-path-2">
      <path id="Path_18" data-name="Path 18" d="M.594,274.574H2080.988V1324.536H.594Zm0,0" transform="translate(-0.594 -274.574)"/>
    </clipPath>
    <clipPath id="clip-path-3">
      <path id="Path_20" data-name="Path 20" d="M27,274.574H1978.916V1324.536H27Zm0,0" transform="translate(-27 -274.574)"/>
    </clipPath>
    <clipPath id="clip-path-4">
      <path id="Path_22" data-name="Path 22" d="M52,274.574H1882.591V1324.536H52Zm0,0" transform="translate(-52 -274.574)"/>
    </clipPath>
    <clipPath id="clip-path-5">
      <path id="Path_24" data-name="Path 24" d="M102,275H1329.531V1323.442H102Zm0,0" transform="translate(-102 -275)"/>
    </clipPath>
    <filter id="Rectangle_8" x="247.209" y="655.502" width="881.107" height="216.777" filterUnits="userSpaceOnUse">
      <feOffset dx="1" dy="1" input="SourceAlpha"/>
      <feGaussianBlur stdDeviation="0.5" result="blur"/>
      <feFlood flood-color="#fff" flood-opacity="0.878"/>
      <feComposite operator="in" in2="blur"/>
      <feComposite in="SourceGraphic"/>
    </filter>
    <filter id="Theo_dõi_sàng_lọc_đánh_giá_rối_loan_phát_triển_ở_trẻ_em" x="463.261" y="701.89" width="640" height="122" filterUnits="userSpaceOnUse">
      <feOffset dx="1" input="SourceAlpha"/>
      <feGaussianBlur stdDeviation="1" result="blur-2"/>
      <feFlood flood-color="#f77e1c"/>
      <feComposite operator="in" in2="blur-2"/>
      <feComposite in="SourceGraphic"/>
    </filter>
    <filter id="Đồng_hành_cùng_phụ_huynh_nhà_trường_trẻ_em" x="1090.042" y="137.042" width="601" height="122" filterUnits="userSpaceOnUse">
      <feOffset dx="1" input="SourceAlpha"/>
      <feGaussianBlur stdDeviation="1" result="blur-3"/>
      <feFlood flood-color="#67ac2f"/>
      <feComposite operator="in" in2="blur-3"/>
      <feComposite in="SourceGraphic"/>
    </filter>
    <clipPath id="clip-_2ht-mn">
      <rect width="2123.087" height="1131.831"/>
    </clipPath>
  </defs>
  <g id="_2ht-mn" data-name="2ht-mn" clip-path="url(#clip-_2ht-mn)">
    <g id="Group_24" data-name="Group 24" transform="translate(0 80.384)">
      <g id="Group_19" data-name="Group 19" transform="translate(0 6.515)" clip-path="url(#clip-path)">
        <path id="Path_13" data-name="Path 13" d="M.016,0H2124.887V1046.121H.016Zm0,0" transform="translate(-0.016)" fill="none"/>
        <path id="Path_14" data-name="Path 14" d="M2124.887,0V1037.8H.016ZM.016,0" transform="translate(-0.016)" fill="none"/>
      </g>
      <g id="Group_20" data-name="Group 20" transform="translate(2.063)" clip-path="url(#clip-path-2)">
        <path id="Path_17" data-name="Path 17" d="M2077.166,1062.9a332.176,332.176,0,0,0-40.016-113.655l-3.7-6.525c-1.252-2.156-2.676-4.334-4-6.482l-4.014-6.388-2.005-3.169-2.177-3.169c-2.912-4.2-5.77-8.364-8.7-12.479l-9.31-12.242a509.816,509.816,0,0,0-41.708-46.445l-11.458-11.018c-3.929-3.6-7.986-7.2-11.958-10.766-3.85-3.537-8.182-7.052-12.283-10.532l-6.2-5.188c-2.091-1.715-4.293-3.415-6.427-5.123l-6.412-5.063-3.19-2.517c-1.06-.839-2.23-1.672-3.3-2.5l-13.257-9.86c-9.089-6.454-18.01-12.812-27.545-19.055l-6.969-4.637c-2.312-1.534-4.8-3.054-7.18-4.58l-7.162-4.521-3.554-2.235-1.8-1.122-1.827-1.106-14.663-8.79c-2.373-1.456-4.949-2.887-7.433-4.319l-7.483-4.276c-19.794-11.184-40.1-22.015-61.444-32.41-20.74-10.186-41.915-20.039-63.91-29.5l-8.057-3.487-8.225-3.45c-5.463-2.285-10.83-4.543-16.293-6.786-11.026-4.428-21.828-8.819-33.05-13.086-43.2-16.733-88.332-32.216-133.94-46.634-22.413-6.988-44.73-13.788-67.507-20.27l-8.389-2.409c-1.409-.406-2.79-.811-4.2-1.2l-4.253-1.185-16.836-4.682c-5.52-1.561-11.251-3.067-16.854-4.586-5.617-1.5-11.166-3.01-16.782-4.486-44.187-11.633-88.807-22.485-133.48-32.627-43.506-9.868-87.344-19.063-131.1-27.716-84.428-16.668-169.26-31.368-253.3-44.521-10.3-1.6-20.461-3.206-30.806-4.747l-15.348-2.343-7.622-1.135-7.64-1.145-15.276-2.248c-5.031-.739-10.091-1.491-15.18-2.222l-29.828-4.275c-34.2-4.754-66-9.875-95.023-15.3-3.7-.658-7.083-1.352-10.58-2.041l-10.427-2.054-9.952-2.1-4.964-1.041c-.849-.167-1.631-.356-2.423-.522l-2.359-.541-9.449-2.128c-1.6-.346-3.08-.717-4.571-1.085L547.9,410.1l-4.489-1.093-2.245-.535c-.71-.187-1.406-.354-2.12-.55l-8.461-2.191c-2.869-.717-5.463-1.476-8.111-2.215L518.5,402.4l-2.005-.55c-.657-.181-1.324-.368-1.923-.55l-7.444-2.258c-1.242-.369-2.523-.752-3.722-1.135l-3.443-1.128-6.941-2.258-6.455-2.3-3.19-1.15-2.969-1.15-5.923-2.309-5.438-2.328c-.906-.383-1.841-.774-2.7-1.15l-2.48-1.18c-1.616-.774-3.3-1.556-4.892-2.33l-4.432-2.337-1.117-.593c-.375-.2-.767-.383-1.06-.585l-1.991-1.172-1.966-1.165-.963-.593-.5-.291-.432-.3c-2.259-1.563-4.728-3.132-6.566-4.71l-1.492-1.172-.724-.585-.628-.593-2.48-2.352a9.322,9.322,0,0,1-1.088-1.172l-1-1.178-1.006-1.165a4.525,4.525,0,0,1-.432-.58l-.375-.593-1.534-2.345-1.085-2.335-.253-.572a2.191,2.191,0,0,1-.221-.58l-.307-1.163-.321-1.165a5.639,5.639,0,0,1-.211-1.158l-.153-2.315a5.356,5.356,0,0,1,.057-1.145l.153-1.143.153-1.15a11.9,11.9,0,0,1,.35-1.143c.264-.759.446-1.511.753-2.272a32.759,32.759,0,0,1,6.452-8.942,71.713,71.713,0,0,1,11.472-8.68,148.6,148.6,0,0,1,16.35-8.306l4.864-2.024c.407-.167.8-.333,1.228-.493l1.324-.506L475,310.073l2.83-.969,2.815-.976,1.4-.493c.5-.159.988-.311,1.492-.47l6.006-1.909c2.091-.63,4.253-1.259,6.345-1.874s4.4-1.23,6.648-1.845l3.358-.919c.546-.159,1.17-.289,1.759-.448l1.784-.45,3.54-.9c1.17-.3,2.341-.593,3.636-.882l7.444-1.745c5.2-1.143,10.316-2.285,15.89-3.385l4.072-.817c1.406-.276,2.858-.535,4.25-.8l4.282-.8,2.116-.4c.753-.139,1.492-.261,2.216-.391l8.882-1.556,9.214-1.506q18.648-2.95,39.531-5.584l10.509-1.274c3.611-.419,7.233-.817,10.83-1.222l2.719-.311,2.787-.282,3.194-.333-.014-.094-.029-.1-.6-2.6v-.08l-.029-.087-.475.037c-2.13.144-4.25.311-6.384.47l-6.384.478-3.219.239-3.151.252c-4.207.341-8.446.687-12.629,1.035l-12.432,1.108c-16.49,1.511-32.533,3.189-47.991,5.006l-11.544,1.382-11.276,1.461c-.949.122-1.895.246-2.83.369l-2.733.376-5.506.767c-1.838.254-3.693.5-5.506.759l-5.353.8c-7.3,1.048-14.159,2.156-21.128,3.278l-10.177,1.713c-1.741.276-3.344.58-5,.869l-4.921.9-2.484.448c-.806.144-1.67.289-2.466.441l-4.767.926c-3.176.607-6.452,1.222-9.478,1.845-3.08.637-6.188,1.267-9.256,1.917l-8.935,1.946c-.739.159-1.52.326-2.23.493l-2.159.506-4.293,1.006-4.321,1.006-8.282,2.061-2.077.528c-.7.181-1.324.348-1.991.53l-7.933,2.126q-15.576,4.309-28.979,8.906-13.3,4.653-24.393,9.564a188.82,188.82,0,0,0-19.529,10.127c-1.408.876-2.7,1.752-4.042,2.634-.669.435-1.38.883-1.965,1.317l-1.784,1.346-1.77,1.332c-.613.448-1.213.911-1.714,1.359l-3.081,2.721c-15.974,15-15.849,31.064,1.463,47.327l3.68,3.134,1.854,1.576c.683.53,1.422,1.043,2.133,1.57l4.377,3.184c1.631,1.048,3.3,2.091,4.99,3.154l2.551,1.6c.878.535,1.882,1.056,2.8,1.593l5.743,3.189c.474.268.99.535,1.533.8l4.809,2.387c2.189,1.078,4.279,2.148,6.691,3.2l7.179,3.213c.6.252,1.185.535,1.813.8l1.938.8,3.929,1.591,3.947,1.6c1.338.55,2.633,1.085,4.111,1.613l8.586,3.189,2.162.8c.753.268,1.449.535,2.245.809l4.643,1.578,9.392,3.2c3.29,1.056,6.666,2.1,10.038,3.169s6.705,2.141,10.356,3.167c28.758,8.545,62,16.835,99.148,24.808l24.408,5.375c4.071.883,8.043,1.795,12.029,2.7l12.029,2.728,6.038,1.382,5.981,1.389,12,2.8c8.125,1.867,15.972,3.791,23.962,5.708,65.191,15.75,128.338,32.823,187.327,51.292,30.6,9.594,60.26,19.57,88.289,29.958,28.84,10.664,56.245,21.776,81.877,33.279,3.247,1.454,6.37,2.937,9.563,4.413s6.509,2.95,9.521,4.463l9.353,4.528,2.355,1.128c.767.378,1.492.761,2.245,1.144l4.5,2.3c12.393,6.186,23.751,12.509,34.974,18.9,22.413,13.123,42.721,26.68,59.632,40.65,4.5,3.56,8.361,7.154,12.514,10.759,2.009,1.815,3.822,3.639,5.759,5.462l2.9,2.756,2.633,2.778a191.728,191.728,0,0,1,19.141,22.7,141.025,141.025,0,0,1,13.953,23.621l1.381,3.024a31.352,31.352,0,0,1,1.3,3.017l2.259,6.112.307.774.221.761.432,1.534.878,3.089c.307,1.041.7,2.076.892,3.1l.628,3.111a111.646,111.646,0,0,1,1.98,12.618l.321,6.38c.025.535.111,1.078.082,1.613l-.057,1.6-.082,3.226c-.057,1.085-.029,2.163-.111,3.249l-.35,3.241a62.216,62.216,0,0,1-.835,6.554l-1.213,6.606-1.756,6.649a145.294,145.294,0,0,1-11.18,27.158l-3.875,6.908-4.432,6.975-1.1,1.758-1.267,1.743-2.509,3.517c-.839,1.172-1.62,2.35-2.512,3.523l-2.8,3.552c-14.912,19.267-35.209,38.718-60.049,58.346-12.7,10.079-26.959,20.163-42.318,30.292q-23.439,15.429-50.657,30.962-27.909,15.757-59.574,31.536c-21.507,10.692-44.2,21.406-68.371,32.055q-36.82,16.268-77.388,32.433c-6.93,2.691-13.7,5.441-20.743,8.145l-21.314,8.162-21.924,8.175c-3.654,1.374-7.4,2.726-11.166,4.087l-11.3,4.08q-45.893,16.493-95.412,32.744c-33.511,11.018-68.456,21.869-104.376,32.627Q439.6,1217.6,381.45,1233.54c-39.335,10.773-79.856,21.328-121.283,31.7-83.132,20.806-170.029,40.678-259.573,59.33H2023.237a613.223,613.223,0,0,0,25.871-56.459,490.877,490.877,0,0,0,22.806-73.314,387.472,387.472,0,0,0,8.807-68.344,324.618,324.618,0,0,0-3.554-63.547" transform="translate(-0.594 -274.581)" fill="#89aec4"/>
      </g>
      <g id="Group_21" data-name="Group 21" transform="translate(96.291)" clip-path="url(#clip-path-3)">
        <path id="Path_19" data-name="Path 19" d="M1975.893,1059.005a316.144,316.144,0,0,0-35.534-111.744l-3.426-6.44c-1.185-2.113-2.484-4.254-3.711-6.365l-3.789-6.317-1.866-3.124-2.052-3.111-8.139-12.3-8.782-12.068a482.657,482.657,0,0,0-39.656-45.838l-11-10.866c-3.75-3.582-7.64-7.134-11.458-10.649-3.693-3.5-7.861-6.975-11.794-10.418l-5.952-5.115c-2.005-1.708-4.139-3.393-6.187-5.071l-6.177-5.021-3.094-2.482c-1.017-.832-2.13-1.65-3.19-2.474l-12.782-9.753c-8.81-6.4-17.4-12.681-26.652-18.859l-6.762-4.595c-2.244-1.519-4.639-3.022-6.955-4.528L1750,757.377l-5.185-3.328-1.8-1.091-14.245-8.725c-2.3-1.434-4.8-2.865-7.237-4.284l-7.248-4.232c-19.251-11.082-39.07-21.833-59.881-32.164-20.24-10.106-40.955-19.9-62.476-29.3l-7.89-3.478-8.057-3.422c-5.338-2.272-10.595-4.523-15.972-6.751-10.819-4.412-21.371-8.782-32.408-13.036-42.389-16.646-86.773-32.092-131.7-46.467-22.078-6.973-44.073-13.759-66.544-20.241l-8.293-2.4c-1.381-.406-2.748-.811-4.14-1.2l-4.168-1.185-16.643-4.667c-5.467-1.569-11.1-3.067-16.647-4.593-5.531-1.5-11.008-2.995-16.557-4.486-43.645-11.633-87.775-22.493-132.031-32.642-43.06-9.89-86.491-19.1-129.858-27.773-83.733-16.726-167.965-31.484-251.487-44.717-10.234-1.613-20.351-3.211-30.61-4.782l-15.237-2.322L696.1,448.92l-7.64-1.143-15.151-2.263c-5.031-.746-10.034-1.5-15.109-2.228l-29.689-4.321c-34.292-4.847-66.155-10.027-95.191-15.561-3.708-.672-7.108-1.374-10.595-2.069l-10.413-2.084-9.952-2.126-4.964-1.05c-.835-.182-1.616-.361-2.394-.55l-2.373-.543-9.435-2.156c-1.6-.346-3.065-.717-4.557-1.085l-8.935-2.2L467.49,409c-.739-.2-1.438-.368-2.148-.565l-8.418-2.228c-2.873-.724-5.438-1.491-8.1-2.235l-3.943-1.122-1.981-.57c-.657-.182-1.324-.369-1.923-.557l-7.4-2.285c-1.213-.383-2.509-.754-3.693-1.13l-3.429-1.158-6.887-2.293-6.4-2.315-3.179-1.15-2.926-1.18-5.87-2.33-5.378-2.35c-.878-.376-1.813-.774-2.651-1.172l-2.437-1.18c-1.6-.78-3.262-1.561-4.839-2.35l-4.361-2.36-1.1-.593c-.36-.2-.739-.391-1.031-.585l-1.952-1.195-1.923-1.18-.96-.593-.475-.3-.432-.289c-2.2-1.585-4.628-3.154-6.4-4.732l-1.452-1.185-.71-.594-.6-.607-2.4-2.358a10.477,10.477,0,0,1-1.031-1.187l-.974-1.18-.949-1.172a3.65,3.65,0,0,1-.417-.593l-.36-.593-1.452-2.352-.96-2.35-.264-.587a3.472,3.472,0,0,1-.2-.578l-.25-1.18L355,351.32a3.133,3.133,0,0,1-.182-1.165l-.054-2.322a4,4,0,0,1,.1-1.158l.2-1.143.193-1.15a7.561,7.561,0,0,1,.421-1.15c.278-.767.514-1.526.835-2.285a34.522,34.522,0,0,1,6.844-8.979,75.07,75.07,0,0,1,11.833-8.7,155.055,155.055,0,0,1,16.743-8.342l4.96-2.019c.421-.167.782-.333,1.242-.5l1.338-.5,2.676-1.006,2.648-.983,5.731-1.961,1.42-.478c.489-.159,1.017-.319,1.506-.483l6.091-1.9c2.134-.63,4.321-1.252,6.455-1.867,2.077-.643,4.446-1.237,6.716-1.852l3.4-.919c.542-.152,1.2-.3,1.77-.441l5.392-1.346c1.2-.3,2.359-.607,3.683-.9l7.526-1.743c5.256-1.137,10.427-2.272,16.044-3.373l4.125-.832c1.4-.267,2.873-.52,4.3-.789l4.293-.809,2.13-.406c.739-.122,1.52-.254,2.273-.376l8.935-1.556,9.281-1.5c12.518-1.969,25.8-3.828,39.77-5.563l10.595-1.274c3.608-.411,7.247-.809,10.887-1.222l2.73-.3,2.787-.289,3.5-.348-.029-.1-.6-2.6v-.08l-.221.015c-2.134.144-4.225.311-6.359.47l-6.4.485-3.19.246-3.137.244c-4.182.356-8.393.695-12.571,1.043l-12.379,1.107q-24.633,2.278-47.727,5.026l-11.458,1.4L460.838,286.1c-.931.122-1.881.245-2.815.369l-2.716.376-5.467.759c-1.823.261-3.693.52-5.478.774l-5.31.8c-7.237,1.056-14.052,2.163-20.979,3.284l-10.091,1.708c-1.716.289-3.319.585-4.935.883l-4.907.889-2.455.433c-.821.159-1.67.3-2.423.463l-4.739.913c-3.165.622-6.412,1.222-9.4,1.852-3.069.635-6.148,1.265-9.171,1.9l-8.853,1.961c-.739.152-1.492.317-2.2.491l-2.12.5-4.279,1-4.264,1.02-4.1,1.019-4.082,1.043-2.052.513c-.7.181-1.324.348-1.991.535l-7.847,2.113q-15.351,4.32-28.59,8.9-13.108,4.634-24,9.529A179.023,179.023,0,0,0,256.45,340.23c-1.366.861-2.634,1.735-3.931,2.6-.669.443-1.352.876-1.938,1.324l-3.457,2.663a18.916,18.916,0,0,0-1.645,1.345l-3,2.706c-15.431,14.938-14.761,30.892,2.955,47.032l3.722,3.1,1.909,1.563c.7.528,1.45,1.043,2.188,1.571l4.447,3.132c1.631,1.057,3.345,2.1,5.046,3.141L265.316,412c.892.528,1.91,1.041,2.83,1.578l5.827,3.161c.488.267,1,.535,1.533.795l1.631.8,3.234,1.578c2.174,1.048,4.279,2.126,6.733,3.167l7.233,3.169c.6.269,1.185.535,1.813.8l1.966.782,3.943,1.584,3.972,1.585c1.327.543,2.666,1.063,4.1,1.576l8.643,3.169,2.173.8c.739.269,1.449.535,2.245.8l4.643,1.569,9.421,3.169c3.29,1.028,6.705,2.076,10.052,3.119,3.415,1.041,6.734,2.119,10.384,3.139,28.8,8.436,62,16.633,99.105,24.489l24.59,5.339c4.1.889,8.1,1.785,12.129,2.691l12.14,2.721,6.077,1.352,6.048,1.389,12.115,2.785c8.182,1.859,16.1,3.776,24.155,5.678,65.837,15.663,129.661,32.657,189.489,51.07,30.988,9.564,61.123,19.511,89.642,29.892,29.357,10.642,57.291,21.739,83.494,33.249,3.333,1.461,6.526,2.945,9.827,4.421,3.237,1.476,6.651,2.967,9.731,4.463l9.563,4.523,2.4,1.143c.821.383,1.574.759,2.341,1.157l4.642,2.293c12.682,6.186,24.365,12.538,35.962,18.954,23.095,13.16,44.159,26.782,61.819,40.846,4.682,3.582,8.782,7.2,13.117,10.838,2.077,1.822,4.014,3.667,6.048,5.5l3.04,2.778,2.816,2.8a210.355,210.355,0,0,1,20.379,22.911,152.784,152.784,0,0,1,15.234,23.9l1.506,3.069a27.143,27.143,0,0,1,1.477,3.067l2.594,6.193.318.774.282.78.5,1.556,1.046,3.134c.35,1.056.782,2.1,1.046,3.147l.8,3.169a113.927,113.927,0,0,1,2.6,12.8l.656,6.49c.043.55.154,1.085.154,1.635l.043,1.635.039,3.269c.014,1.1.086,2.208.071,3.3l-.225,3.313a59.7,59.7,0,0,1-.514,6.664l-.906,6.728-1.449,6.786a143.438,143.438,0,0,1-10.038,27.693l-3.611,7.069-4.154,7.125-1.045,1.78-1.185,1.795-2.4,3.595c-.792,1.209-1.531,2.417-2.37,3.611l-2.7,3.63c-14.22,19.715-33.957,39.654-58.322,59.78-12.461,10.345-26.513,20.711-41.665,31.108q-23.23,15.885-50.236,31.853-27.748,16.213-59.339,32.483c-21.453,11.025-44.13,22.065-68.328,33.062q-36.863,16.785-77.613,33.494c-6.944,2.793-13.76,5.63-20.811,8.429l-21.439,8.436-22.067,8.464c-3.65,1.426-7.444,2.823-11.248,4.224l-11.376,4.234q-46.209,17.068-96.193,33.937c-33.814,11.423-69.109,22.695-105.45,33.864q-55.426,17.026-114.41,33.618c-39.866,11.222-80.986,22.224-123.082,33.047q-90.827,23.363-187.327,45.173H1908.257a620.638,620.638,0,0,0,32.8-64.547,498.194,498.194,0,0,0,25.061-71.686,386.766,386.766,0,0,0,11.069-66.94,317.057,317.057,0,0,0-1.3-62.346" transform="translate(-26.428 -274.541)" fill="#fff"/>
      </g>
      <g id="Group_22" data-name="Group 22" transform="translate(185.501)" clip-path="url(#clip-path-4)">
        <path id="Path_21" data-name="Path 21" d="M1878.957,1055.141a300.717,300.717,0,0,0-31.181-109.862l-3.151-6.338c-1.1-2.084-2.326-4.189-3.468-6.266l-3.472-6.213-1.756-3.082-1.923-3.076-7.64-12.123-8.265-11.894a451.775,451.775,0,0,0-37.622-45.237l-10.5-10.736c-3.611-3.523-7.344-7.04-10.984-10.512-3.526-3.458-7.54-6.88-11.319-10.294l-5.713-5.065c-1.952-1.678-3.975-3.341-5.966-5.013l-5.952-4.956-2.955-2.467c-.992-.8-2.052-1.62-3.1-2.437l-12.322-9.651c-8.489-6.315-16.8-12.551-25.771-18.672l-6.523-4.543c-2.177-1.506-4.5-3-6.734-4.493l-10.106-6.649-1.659-1.085-1.741-1.085-13.813-8.645c-2.259-1.432-4.671-2.828-7.026-4.252l-7.083-4.2c-18.706-11-38.011-21.639-58.3-31.9-19.765-10.04-39.991-19.757-61.07-29.118l-7.708-3.458-7.875-3.408c-5.242-2.25-10.384-4.5-15.666-6.714-10.609-4.378-20.964-8.732-31.755-12.964-41.579-16.581-85.224-31.962-129.451-46.315-21.76-6.953-43.435-13.724-65.612-20.191l-8.154-2.417c-1.367-.4-2.719-.8-4.086-1.2l-4.125-1.17-16.418-4.682c-5.381-1.556-10.973-3.059-16.436-4.571s-10.873-3.01-16.336-4.486c-43.128-11.634-86.759-22.493-130.554-32.664-42.61-9.912-85.685-19.15-128.684-27.845C845.961,486.409,762.339,471.593,679.36,458.3c-10.174-1.621-20.226-3.248-30.442-4.8l-15.123-2.352-7.54-1.172-7.6-1.143-15.069-2.271c-4.989-.759-9.966-1.513-15.027-2.25l-29.521-4.349c-34.417-4.919-66.322-10.208-95.373-15.829-3.722-.672-7.108-1.4-10.609-2.091l-10.4-2.111-9.924-2.163-4.974-1.078c-.839-.174-1.62-.356-2.412-.535l-2.33-.557-9.435-2.185c-1.6-.361-3.065-.737-4.532-1.106l-8.921-2.23-2.245-.548c-.71-.182-1.406-.383-2.116-.557l-8.393-2.265c-2.873-.737-5.4-1.511-8.057-2.271l-3.929-1.13-1.98-.57c-.653-.2-1.3-.383-1.895-.587l-7.387-2.293c-1.213-.383-2.484-.759-3.626-1.15l-3.429-1.165-6.83-2.33-6.33-2.33-3.162-1.178-2.915-1.187-5.784-2.345-5.31-2.38c-.892-.391-1.8-.782-2.634-1.172l-2.426-1.2c-1.574-.789-3.2-1.578-4.739-2.372l-4.307-2.38-1.046-.609a10,10,0,0,1-1.046-.593l-1.895-1.193-2.858-1.78-.446-.3-.4-.306a74.811,74.811,0,0,1-6.273-4.782l-1.381-1.193-.71-.585-.585-.6-2.3-2.387a9.518,9.518,0,0,1-1-1.185l-.906-1.2-.906-1.185a2.422,2.422,0,0,1-.375-.594l-.35-.593-1.367-2.372-.878-2.352-.2-.593a1.967,1.967,0,0,1-.193-.593l-.432-2.352a4.088,4.088,0,0,1-.114-1.165l.043-2.322a3.711,3.711,0,0,1,.153-1.165l.239-1.158.236-1.165c.111-.376.307-.767.46-1.15.321-.759.6-1.533.946-2.293a35.864,35.864,0,0,1,7.237-9.021,79.542,79.542,0,0,1,12.211-8.71,159.011,159.011,0,0,1,17.118-8.364l5.06-2.026c.432-.172.806-.339,1.267-.506l1.352-.493,2.733-1,2.687-.991,2.915-.976,2.9-.978,1.452-.476c.485-.181,1.031-.341,1.545-.493l6.177-1.917c2.13-.63,4.336-1.245,6.523-1.867,2.105-.63,4.528-1.237,6.787-1.852l3.458-.9c.557-.159,1.213-.3,1.8-.456l1.827-.45,3.636-.889c1.2-.311,2.384-.6,3.679-.889l7.654-1.737c5.281-1.143,10.509-2.285,16.183-3.371l4.168-.833c1.42-.267,2.9-.535,4.336-.8l4.35-.8,2.145-.406c.739-.13,1.492-.252,2.245-.389l9.032-1.543,9.367-1.5c12.6-1.954,25.971-3.813,40.02-5.549l10.648-1.267c3.625-.411,7.29-.8,10.944-1.207l2.733-.311,2.815-.282,3.79-.383-.6-2.6c-2.12.145-4.182.3-6.288.47l-6.37.485-3.19.231-3.108.267c-4.168.348-8.35.689-12.518,1.043l-12.322,1.113c-16.35,1.535-32.216,3.213-47.478,5.036l-11.415,1.4-11.123,1.469c-.921.124-1.87.246-2.8.369l-8.14,1.15c-1.784.254-3.636.507-5.435.767l-5.285.8c-7.176,1.05-13.924,2.171-20.8,3.278l-10.009,1.713c-1.713.291-3.286.58-4.907.869l-4.878.9-2.412.448c-.806.144-1.641.3-2.423.448l-4.685.919c-3.108.615-6.37,1.222-9.3,1.859-3.026.637-6.091,1.267-9.089,1.9l-8.768,1.947c-.739.167-1.492.326-2.2.493l-2.091.506-4.211,1-4.236,1.013-4.029,1.02-4.057,1.033-2.034.522c-.671.18-1.3.346-1.966.513l-7.751,2.128q-15.159,4.317-28.212,8.882c-8.586,3.089-16.477,6.265-23.614,9.5a173.5,173.5,0,0,0-18.72,10.079c-1.338.861-2.565,1.721-3.861,2.6-.6.426-1.3.869-1.854,1.317l-3.373,2.641a18.8,18.8,0,0,0-1.575,1.337l-2.885,2.7c-14.9,14.861-13.73,30.718,4.4,46.728l3.791,3.082,1.937,1.556c.725.513,1.478,1.026,2.2,1.541l4.544,3.117c1.631,1.028,3.387,2.07,5.116,3.111l2.606,1.563c.892.528,1.9,1.041,2.871,1.569l5.854,3.126c.474.267,1.018.535,1.575.782l1.617.782,3.262,1.569c2.216,1.05,4.321,2.121,6.8,3.148l7.251,3.132c.624.261,1.21.528,1.852.8l1.966.774,3.972,1.561,4,1.571c1.338.535,2.648,1.063,4.1,1.578l8.668,3.124,2.205.782c.739.261,1.449.528,2.23.789l4.682,1.556,9.449,3.117c3.3,1.035,6.691,2.061,10.066,3.1,3.4,1.028,6.734,2.091,10.4,3.1,28.826,8.327,62,16.422,99.037,24.171l24.768,5.3c4.125.882,8.154,1.78,12.211,2.676l12.268,2.7,6.145,1.354,6.091,1.389,12.2,2.756c8.254,1.852,16.283,3.747,24.408,5.651,66.433,15.583,130.957,32.49,191.591,50.844,31.434,9.542,61.99,19.461,91.009,29.827,29.86,10.621,58.351,21.719,85.142,33.237,3.4,1.454,6.662,2.93,10.006,4.411s6.8,2.967,9.981,4.478l9.813,4.53,2.469,1.143c.821.369,1.574.759,2.369,1.15l4.767,2.3c13,6.2,25.018,12.559,36.937,19,23.808,13.21,45.6,26.9,64.024,41.048,4.932,3.6,9.185,7.256,13.728,10.918,2.191,1.83,4.211,3.689,6.359,5.549l3.19,2.8,2.955,2.822a223.314,223.314,0,0,1,21.635,23.143,164.243,164.243,0,0,1,16.532,24.178l1.684,3.089a35.042,35.042,0,0,1,1.617,3.124l2.915,6.265.389.789.307.787.571,1.585,1.242,3.176c.36,1.063.878,2.126,1.185,3.189l.974,3.213a130.669,130.669,0,0,1,3.247,12.986l.963,6.6c.057.55.2,1.1.236,1.656l.085,1.672.236,3.321c.057,1.12.2,2.228.211,3.363l-.043,3.358a64.432,64.432,0,0,1-.207,6.786l-.628,6.851-1.131,6.9a138.759,138.759,0,0,1-8.85,28.243l-3.347,7.227-3.875,7.271-.974,1.837-1.128,1.815-2.245,3.684c-.753,1.23-1.463,2.46-2.259,3.7l-2.523,3.7c-13.563,20.161-32.687,40.593-56.595,61.247-12.182,10.6-26.021,21.233-40.98,31.925q-22.936,16.321-49.761,32.744c-156.271,95.133-411.565,190.918-736.737,276.791q-59.318,15.682-121.228,30.74H1796.969a634.67,634.67,0,0,0,40.6-72.562,496.535,496.535,0,0,0,27.195-70.073,384.821,384.821,0,0,0,13.267-65.551,307.96,307.96,0,0,0,.921-61.161" transform="translate(-51.378 -274.504)" fill="#83a9bf"/>
      </g>
      <g id="Group_23" data-name="Group 23" transform="translate(363.921 0.76)" clip-path="url(#clip-path-5)">
        <path id="Path_23" data-name="Path 23" d="M973.713,1274.73q-39.454,23.9-83.426,47.94h56.466q32.287-18.675,62-37.254Zm119.556-79.545q-35.338,26.134-76.357,52.572l34.9,9.868q40.771-27.2,75.8-54.082Zm90.423-75.288q-25.842,24.66-57.166,49.711l33.985,7.642q30.879-25.712,56.256-51.012Zm63.421-70.848a509.312,509.312,0,0,1-39.377,46.724l32.533,5.741a484.959,484.959,0,0,0,38.207-47.845Zm38.485-66.266a293.859,293.859,0,0,1-23.013,43.651l30.763,4.122a288.333,288.333,0,0,0,21.635-44.607Zm15.808-61.565a195.6,195.6,0,0,1-8.111,40.513l28.644,2.741a196.234,196.234,0,0,0,6.648-41.3Zm-4.528-56.831a167.042,167.042,0,0,1,5.156,37.353l26.4,1.6a173.678,173.678,0,0,0-6.719-37.99Zm-22.331-52.1a197.937,197.937,0,0,1,16.739,34.211l24.044.687a210.774,210.774,0,0,0-18.288-34.7Zm-37.5-47.44a283.559,283.559,0,0,1,26.553,31.124l21.717-.037a310.842,310.842,0,0,0-28.058-31.5Zm-49.929-42.978a434.645,434.645,0,0,1,34.538,28.166l19.473-.579q-16.6-14.575-35.987-28.425Zm-59.814-38.758q21.534,12.373,40.869,25.39l17.328-.968q-19.971-13.123-42.182-25.557Zm-67.368-34.846c15.78,7.4,31.042,15,45.636,22.81l15.4-1.216c-15-7.858-30.652-15.492-46.824-22.931ZM987,616.932q25.254,9.986,49.148,20.517l13.688-1.388q-24.419-10.574-50.193-20.577Zm-76.835-28.166q26.324,8.967,51.6,18.443l12.143-1.453q-25.7-9.5-52.495-18.472ZM830.727,563.39q27.014,8.09,53.191,16.627l10.844-1.488q-26.6-8.547-54-16.629ZM749.7,540.465q27.347,7.309,54.151,15.03l9.7-1.481q-27.18-7.7-54.864-15Zm-81.92-20.784q27.534,6.635,54.668,13.627l8.685-1.431q-27.432-6.962-55.271-13.584Zm-82.227-18.905q27.577,6.06,54.821,12.406l7.818-1.359q-27.512-6.346-55.349-12.363ZM503.436,483.52q27.454,5.53,54.725,11.328l7.026-1.294q-27.475-5.78-55.2-11.278Zm-81.781-15.833q27.309,5.086,54.475,10.4l6.341-1.221q-27.325-5.28-54.85-10.331ZM340.517,453.1l54.011,9.609,5.745-1.129-54.25-9.528Zm-73.459-14.813c14.984,3.405,30.874,6.739,47.574,9.985l5.574-.99c-16.682-3.2-32.576-6.47-47.56-9.833Zm-60.481-15.572c12,3.55,24.979,7.042,38.831,10.455l5.592-.774c-13.856-3.37-26.863-6.811-38.878-10.323Zm-46.768-16.05q13.339,5.422,29.65,10.736l5.477-.577q-16.352-5.238-29.818-10.629ZM127,390.434a183.3,183.3,0,0,0,20.336,10.821l5.185-.411a188.1,188.1,0,0,1-20.586-10.729ZM107.915,374.3a59.732,59.732,0,0,0,11.208,10.729l4.8-.254a62.436,62.436,0,0,1-11.53-10.657Zm-5.841-15.739A21.721,21.721,0,0,0,104.528,369l4.293-.137a21.982,21.982,0,0,1-2.815-10.383Zm6.651-15.139a28.2,28.2,0,0,0-5.784,10.014l3.747-.044a27.178,27.178,0,0,1,5.381-9.97Zm18.3-14.328a85.087,85.087,0,0,0-13.467,9.457l3.165.028a79.267,79.267,0,0,1,13.089-9.42ZM156.27,315.76q-11.54,4.295-20.657,8.776l2.58.072a212.21,212.21,0,0,1,20.279-8.747ZM195.8,303.571q-14.886,3.884-27.459,7.99l2.005.1q12.381-4.086,27.1-7.973Zm49.262-10.851c-12.043,2.263-23.362,4.627-33.885,7.085l1.463.109q15.64-3.667,33.564-7.072ZM303.5,283.43q-21.014,2.832-39.952,6.015l.992.117q18.756-3.19,39.656-6.03Zm67.129-7.416q-23.5,2.179-45.176,4.806l-.557-.1q21.764-2.6,45.4-4.786l.336.08" transform="translate(-101.838 -274.205)" fill="#fff"/>
      </g>
    </g>
    <g transform="matrix(1, 0, 0, 1, 0, 0)" filter="url(#Rectangle_8)">
      <rect id="Rectangle_8-2" data-name="Rectangle 8" width="868.107" height="203.777" rx="10" transform="translate(252.71 661)" fill="#fffefe" stroke="#f77e1c" stroke-width="10"/>
    </g>
    <g transform="matrix(1, 0, 0, 1, 0, 0)" filter="url(#Theo_dõi_sàng_lọc_đánh_giá_rối_loan_phát_triển_ở_trẻ_em)">
      <text id="Theo_dõi_sàng_lọc_đánh_giá_rối_loan_phát_triển_ở_trẻ_em-2" data-name="Theo dõi &amp; sàng lọc đánh giá,
rối loan phát triển ở trẻ em" transform="translate(782.26 750.89)" fill="#f77e1c" font-size="48" font-family="Roboto-Medium, Roboto" font-weight="500">
        <tspan x="-316.078" y="0">Theo dõi &amp; sàng lọc đánh giá,</tspan>
        <tspan x="-283.055" y="57.109">rối loan phát triển ở trẻ em</tspan>
      </text>
    </g>
    <g id="Group_27" data-name="Group 27" transform="translate(103.142 583.568)">
      <g id="Group_18" data-name="Group 18" transform="translate(0)">
        <g id="location-60">
          <path id="Path_12" data-name="Path 12" d="M109.409,164.584A109.409,109.409,0,0,1,0,55.175C0,28.407,143.066,164.584,109.409,164.584Z" transform="translate(72.711 144.122)" fill="#f77e1c"/>
          <path id="Path_11" data-name="Path 11" d="M220.435,0A183.447,183.447,0,0,0,80.484,302.182L220.435,467.009,360.386,302.182A183.447,183.447,0,0,0,220.435,0Zm0,252.729a75.492,75.492,0,1,1,75.492-75.492A75.492,75.492,0,0,1,220.435,252.729Z" transform="translate(-36.876)" fill="#f77e1c"/>
        </g>
      </g>
      <g id="Ellipse_6" data-name="Ellipse 6" transform="translate(56.22 51.983)" fill="#fff" stroke="#707070" stroke-width="1">
        <circle cx="127.339" cy="127.339" r="127.339" stroke="none"/>
        <circle cx="127.339" cy="127.339" r="126.839" fill="none"/>
      </g>
      <text id="_1" data-name="1" transform="translate(115.085 263.165)" font-size="240" font-family="Roboto-Bold, Roboto" font-weight="700">
        <tspan x="0" y="0">1</tspan>
      </text>
    </g>
    <rect id="Rectangle_10" data-name="Rectangle 10" width="829.107" height="203.777" rx="10" transform="translate(893.255 96.154)" fill="#fff" stroke="#67ac2f" stroke-width="10"/>
    <g id="Group_26" data-name="Group 26" transform="translate(776.764 39.33)">
      <g id="location-60-2" data-name="location-60" transform="translate(0)">
        <path id="Path_12-2" data-name="Path 12" d="M91.075,145.665A91.075,91.075,0,0,1,0,54.591C0,32.308,119.091,145.665,91.075,145.665Z" transform="translate(60.526 111.309)" fill="#67ac2f"/>
        <path id="Path_11-2" data-name="Path 11" d="M189.675,0a152.706,152.706,0,0,0-116.5,251.543l116.5,137.206,116.5-137.206A152.706,152.706,0,0,0,189.675,0Zm0,210.377a62.841,62.841,0,1,1,62.841-62.841A62.841,62.841,0,0,1,189.675,210.377Z" transform="translate(-36.876)" fill="#67ac2f"/>
      </g>
      <g id="Ellipse_5" data-name="Ellipse 5" transform="translate(46.799 52.712)" fill="#fff" stroke="#707070" stroke-width="1">
        <circle cx="106" cy="106" r="106" stroke="none"/>
        <circle cx="106" cy="106" r="105.5" fill="none"/>
      </g>
      <text id="_2" data-name="2" transform="translate(95.799 228.712)" font-size="200" font-family="Roboto-Bold, Roboto" font-weight="700">
        <tspan x="0" y="0">2</tspan>
      </text>
    </g>
    <g transform="matrix(1, 0, 0, 1, 0, 0)" filter="url(#Đồng_hành_cùng_phụ_huynh_nhà_trường_trẻ_em)">
      <text id="Đồng_hành_cùng_phụ_huynh_nhà_trường_trẻ_em-2" data-name="Đồng hành cùng phụ huynh,
nhà trường &amp; trẻ em" transform="translate(1390.04 186.04)" fill="#67ac2f" font-size="48" font-family="Roboto-Medium, Roboto" font-weight="500">
        <tspan x="-296.848" y="0">Đồng hành cùng phụ huynh,</tspan>
        <tspan x="-213.797" y="57.109">nhà trường &amp; trẻ em</tspan>
      </text>
    </g>
  </g>
</svg>