<svg id="Layer_1" data-name="Layer 1" xmlns="http://www.w3.org/2000/svg" xmlns:xlink="http://www.w3.org/1999/xlink" viewBox="0 0 3948.7602 1043.5796"><defs><style>.cls-1{stroke:#231f20;stroke-width:0.25px;fill:url(#linear-gradient);}.cls-1,.cls-2{stroke-miterlimit:10;}.cls-2{fill:#f9f9fa;stroke:#fff;stroke-width:30px;}.cls-11,.cls-25,.cls-3,.cls-7,.cls-8{fill:#fff;}.cls-4{fill:url(#linear-gradient-2);}.cls-5{fill:url(#linear-gradient-3);}.cls-6{fill:url(#linear-gradient-4);}.cls-7{font-size:250px;}.cls-7,.cls-8{font-family:Roboto-Medium, Roboto;font-weight:500;}.cls-8{font-size:135px;}.cls-9{letter-spacing:-0.0063em;}.cls-10{letter-spacing:-0.0093em;}.cls-11,.cls-25{font-size:41px;font-family:Roboto-Regular, Roboto;}.cls-11{letter-spacing:0.025em;}.cls-12{letter-spacing:-0.0068em;}.cls-13{letter-spacing:-0.0068em;}.cls-14{letter-spacing:0.0152em;}.cls-15{letter-spacing:0.1833em;}.cls-16{letter-spacing:0.0157em;}.cls-17,.cls-25{letter-spacing:0.025em;}.cls-18{letter-spacing:0.197em;}.cls-19{letter-spacing:0.0186em;}.cls-20{letter-spacing:0.197em;}.cls-21{letter-spacing:0.3951em;}.cls-22{letter-spacing:0.3951em;}.cls-23{letter-spacing:0.2248em;}.cls-24{letter-spacing:0.2248em;}.cls-26{letter-spacing:0.0759em;}.cls-27{letter-spacing:0.025em;}.cls-28{letter-spacing:0.0758em;}.cls-29{letter-spacing:0.0187em;}.cls-30{letter-spacing:-0.0015em;}.cls-31{letter-spacing:0.0152em;}.cls-32{letter-spacing:-0.0015em;}.cls-33{letter-spacing:0.0176em;}.cls-34{letter-spacing:0.025em;}.cls-35{letter-spacing:0.1626em;}.cls-36{letter-spacing:-0.0067em;}.cls-37{letter-spacing:0.0157em;}.cls-38{letter-spacing:0.1625em;}.cls-39{letter-spacing:0.0055em;}.cls-40{letter-spacing:0.025em;}.cls-41{letter-spacing:0.1095em;}.cls-42{letter-spacing:0.1095em;}.cls-43{letter-spacing:-0.0197em;}.cls-44{letter-spacing:-0.0197em;}.cls-45{letter-spacing:-0.0196em;}.cls-46{letter-spacing:0.316em;}.cls-47{letter-spacing:0.316em;}.cls-48{letter-spacing:0.316em;}.cls-49{letter-spacing:0.6315em;}.cls-50{letter-spacing:0.0152em;}.cls-51{letter-spacing:0.6315em;}.cls-52{letter-spacing:0.2792em;}.cls-53{letter-spacing:0.2792em;}.cls-54{letter-spacing:0.1756em;}.cls-55{letter-spacing:-0.0068em;}.cls-56{letter-spacing:0.0035em;}.cls-57{letter-spacing:0.2132em;}.cls-58{letter-spacing:0.2132em;}.cls-59{letter-spacing:0.2526em;}.cls-60{letter-spacing:0.2526em;}.cls-61{letter-spacing:0.087em;}.cls-62{letter-spacing:0.087em;}.cls-63{letter-spacing:-0.0251em;}.cls-64{letter-spacing:-0.0251em;}.cls-65{letter-spacing:-0.0272em;}.cls-66{letter-spacing:0.5627em;}.cls-67{letter-spacing:0.1079em;}.cls-68{letter-spacing:0.1079em;}.cls-69{letter-spacing:0.0177em;}</style><linearGradient id="linear-gradient" x1="481.5338" y1="1618.4465" x2="1472.5145" y2="1046.3035" gradientUnits="userSpaceOnUse"><stop offset="0" stop-color="#f15a2d"/><stop offset="0.8687" stop-color="#f7942f"/></linearGradient><linearGradient id="linear-gradient-2" x1="1449.8222" y1="1631.7077" x2="2533.6939" y2="1005.9341" gradientUnits="userSpaceOnUse"><stop offset="0" stop-color="#357f3e"/><stop offset="1" stop-color="#88b550"/></linearGradient><linearGradient id="linear-gradient-3" x1="2427.4915" y1="1298.5798" x2="3553.9963" y2="1298.5798" gradientUnits="userSpaceOnUse"><stop offset="0" stop-color="#03958b"/><stop offset="1" stop-color="#6cc9cb"/></linearGradient><linearGradient id="linear-gradient-4" x1="3402.2095" y1="1629.5985" x2="4478.9802" y2="1007.9247" gradientUnits="userSpaceOnUse"><stop offset="0" stop-color="#11476d"/><stop offset="1" stop-color="#2070a8"/></linearGradient></defs><title>ckcare_motion</title><path class="cls-1" d="M555.2258,1143.509c-31.5148-25.6018-117.429-111.0692-60.5239-245.5634q.4507-1.0653.9814-2.0912c7.29-14.122,83.1111-152.2723,237.5762-107.1716.39.1139.7817.2206,1.1766.3158,6.88,1.6588,81.6011,20.8515,114.2994,79.3894a30.1055,30.1055,0,0,0,26.2351,15.5775h550.8487a69.4548,69.4548,0,0,1,69.4548,69.4548v303.5289a29.4546,29.4546,0,0,0,8.4575,20.6567l90.1848,91.6719a34.4548,34.4548,0,0,1-.1984,48.5264l-88.2842,88.2842a29.4549,29.4549,0,0,0-8.6271,20.8277v221.1163a69.4548,69.4548,0,0,1-69.4548,69.4548H636.5631a69.4548,69.4548,0,0,1-69.4547-69.3324l-1.0258-581.8635A29.4083,29.4083,0,0,0,555.2258,1143.509Z" transform="translate(-475.5574 -774.29)"/><ellipse class="cls-2" cx="1175.5663" cy="213.1823" rx="199.7023" ry="196.5277"/><path class="cls-3" d="M1481.6675,1341.05l59.4783,60.1862v-21.2132l-52.0982,57.99-7.38,8.2148c-5.4118,6.0239-5.944,15.2692,0,21.2132,5.5024,5.5024,15.778,6.05,21.2132,0l52.0981-57.99,7.38-8.2148c5.4382-6.0533,5.9508-15.1915,0-21.2132l-59.4783-60.1862a15,15,0,0,0-21.2132,21.2132Z" transform="translate(-475.5574 -774.29)"/><path class="cls-4" d="M1542.7524,1150.8261s-102.13-55.1739-90.3913-181.9565c0,0,5.87-126.7826,145.5652-181.9566,0,0,79.8261-22.3043,139.6956,9.3913,0,0,68.087,28.174,92.7392,84.5218h608a40,40,0,0,1,40,40v350.913l93.4239,93.4239a36.3854,36.3854,0,0,1,0,51.4566l-94.0109,94.0108V1777.87a40,40,0,0,1-40,40h-857.37a40,40,0,0,1-40-40V1524.13L1641.948,1422.587s28.7955-26.7013,4.799-60.325a67.8384,67.8384,0,0,0-7.3066-8.5088l-95.2206-95.2206Z" transform="translate(-475.5574 -774.29)"/><ellipse class="cls-2" cx="2151.6364" cy="213.1823" rx="199.7023" ry="196.5277"/><path class="cls-5" d="M2518.8225,1150.8261s-102.1305-55.1739-90.3913-181.9565c0,0,5.8695-126.7826,145.5652-181.9566,0,0,79.8261-22.3043,139.6956,9.3913,0,0,68.087,28.174,92.7392,84.5218h608a40,40,0,0,1,40,40v350.913l85.7149,85.715a47.2873,47.2873,0,0,1,0,66.8744l-86.3019,86.3019V1777.87a40,40,0,0,1-40,40h-857.37a40,40,0,0,1-40-40V1524.13l101.5435-101.5434s28.7955-26.7013,4.799-60.325a67.8467,67.8467,0,0,0-7.3066-8.5088l-95.2206-95.2206Z" transform="translate(-475.5574 -774.29)"/><ellipse class="cls-2" cx="3131.415" cy="211.5277" rx="199.7023" ry="196.5277"/><path class="cls-3" d="M2462.5805,1341.05l59.4782,60.1862v-21.2132l-52.0981,57.99-7.38,8.2148c-5.4118,6.0239-5.9441,15.2692,0,21.2132,5.5024,5.5024,15.778,6.05,21.2132,0l52.0981-57.99,7.38-8.2148c5.4383-6.0533,5.9509-15.1915,0-21.2132l-59.4782-60.1862a15,15,0,0,0-21.2132,21.2132Z" transform="translate(-475.5574 -774.29)"/><path class="cls-3" d="M3439.26,1341.05l59.4782,60.1862v-21.2132l-52.0981,57.99-7.38,8.2148c-5.4118,6.0239-5.9441,15.2692,0,21.2132,5.5024,5.5024,15.778,6.05,21.2132,0l52.0981-57.99,7.38-8.2148c5.4383-6.0533,5.9509-15.1915,0-21.2132l-59.4782-60.1862A15,15,0,0,0,3439.26,1341.05Z" transform="translate(-475.5574 -774.29)"/><path class="cls-6" d="M3493.0132,1259.63v-111.13s-118.9565-70.4348-78.2608-219.13c0,0,21.913-112.6957,154.9565-147.13,0,0,161.2174-28.174,214.4348,101.7391h600.1739a40,40,0,0,1,40,40v853.5217a40,40,0,0,1-40,40H3533.7959a40,40,0,0,1-40-40v-254.13l94.6956-94.6957s42.2609-37.5652,0-76.1739Z" transform="translate(-475.5574 -774.29)"/><text class="cls-7" transform="translate(128.8471 279.8968)">1</text><text class="cls-7" transform="translate(1112.1948 298.6793)">2</text><text class="cls-7" transform="translate(2088.4122 298.6795)">3</text><text class="cls-7" transform="translate(3049.4394 298.6796)">4</text><text class="cls-8" transform="translate(224.8468 478.306)">Sàng lọc<tspan x="0" y="150">&amp; theo dõi</tspan></text><text class="cls-8" transform="translate(1233.664 478.3061)">Đánh giá<tspan x="0" y="150">chu</tspan><tspan class="cls-9" x="220.6274" y="150">y</tspan><tspan x="285.4907" y="150">ên sâu</tspan></text><text class="cls-8" transform="translate(2214.7787 478.3057)">Can thiệp<tspan x="0" y="150">&amp; trị liệu</tspan></text><text class="cls-8" transform="translate(3208.9682 478.3057)">Hỗ t<tspan class="cls-10" x="251.2793" y="0">r</tspan><tspan x="297.4878" y="0">ợ &amp;</tspan><tspan x="0" y="150">đồng hành</tspan></text><text x="-475.5574" y="-774.29"/><text class="cls-11" transform="translate(1244.8337 720.4599)">Sau<tspan class="cls-12" x="72.3027" y="0"> </tspan><tspan x="82.1719" y="0">khi</tspan><tspan class="cls-13" x="138.5586" y="0"> </tspan><tspan x="148.4282" y="0">nhận</tspan><tspan class="cls-12" x="242.6563" y="0"> </tspan><tspan x="252.5254" y="0">được</tspan><tspan class="cls-12" x="351.3579" y="0"> </tspan><tspan class="cls-14" x="361.2271" y="0">k</tspan><tspan x="382.6318" y="0">ết</tspan><tspan class="cls-12" x="419.7964" y="0"> </tspan><tspan x="429.6655" y="0">quả</tspan><tspan class="cls-13" x="500.9468" y="0"> </tspan><tspan x="510.8164" y="0">sàng</tspan><tspan class="cls-12" x="603.9834" y="0"> </tspan><tspan x="613.8525" y="0">lọc</tspan><tspan x="0" y="48">ban</tspan><tspan class="cls-15" x="71.0015" y="48"> </tspan><tspan x="88.6655" y="48">đầu,</tspan><tspan class="cls-15" x="170.2012" y="48"> </tspan><tspan x="187.8652" y="48">những</tspan><tspan class="cls-15" x="309.1836" y="48"> </tspan><tspan x="326.8477" y="48">t</tspan><tspan class="cls-16" x="341.2656" y="48">r</tspan><tspan class="cls-17" x="355.7837" y="48">ẻ/</tspan><tspan class="cls-15" x="396.4517" y="48"> </tspan><tspan x="414.1157" y="48">học</tspan><tspan class="cls-15" x="484.6167" y="48"> </tspan><tspan x="502.2808" y="48">sinh</tspan><tspan class="cls-15" x="582.6753" y="48"> </tspan><tspan x="600.3394" y="48">gặp </tspan><tspan x="0" y="96">khó</tspan><tspan class="cls-18" x="69.8203" y="96"> </tspan><tspan x="88.0479" y="96">khăn</tspan><tspan class="cls-18" x="180.4341" y="96"> </tspan><tspan class="cls-19" x="198.6616" y="96">v</tspan><tspan class="cls-17" x="219.2856" y="96">ề</tspan><tspan class="cls-18" x="242.0322" y="96"> </tspan><tspan x="260.2598" y="96">tâm</tspan><tspan class="cls-18" x="334.9648" y="96"> </tspan><tspan x="353.1924" y="96">lý</tspan><tspan class="cls-20" x="384.5908" y="96"> </tspan><tspan x="402.8188" y="96">hoặc</tspan><tspan class="cls-20" x="496.646" y="96"> </tspan><tspan x="514.874" y="96">có</tspan><tspan class="cls-20" x="561.7676" y="96"> </tspan><tspan x="579.9956" y="96">nguy </tspan><tspan x="0" y="144">cơ</tspan><tspan class="cls-21" x="46.9336" y="144"> </tspan><tspan x="73.2832" y="144">gặp</tspan><tspan class="cls-21" x="144.6646" y="144"> </tspan><tspan x="171.0142" y="144">phải</tspan><tspan class="cls-22" x="252.9502" y="144"> </tspan><tspan class="cls-14" x="279.2993" y="144">r</tspan><tspan x="293.7974" y="144">ối</tspan><tspan class="cls-22" x="329.1802" y="144"> </tspan><tspan x="355.5293" y="144">loạn</tspan><tspan class="cls-22" x="437.8857" y="144"> </tspan><tspan x="464.2349" y="144">phát</tspan><tspan class="cls-22" x="549.6143" y="144"> </tspan><tspan x="575.9634" y="144">triển, </tspan><tspan x="0" y="192">cha</tspan><tspan class="cls-23" x="69.4199" y="192"> </tspan><tspan x="88.7856" y="192">mẹ/</tspan><tspan class="cls-24" x="166.4131" y="192"> </tspan><tspan x="185.7793" y="192">giáo</tspan><tspan class="cls-24" x="268.5156" y="192"> </tspan><tspan x="287.8818" y="192">viên</tspan><tspan class="cls-24" x="366.1338" y="192"> </tspan><tspan x="385.5" y="192">sẽ</tspan><tspan class="cls-23" x="430.4116" y="192"> </tspan><tspan x="449.7773" y="192">được</tspan><tspan class="cls-23" x="548.6099" y="192"> </tspan><tspan x="567.9756" y="192">các...</tspan></text><text class="cls-25" transform="translate(2222.7034 720.4602)">Việc<tspan class="cls-26" x="83.3154" y="0"> </tspan><tspan class="cls-27" x="96.5762" y="0">đánh</tspan><tspan class="cls-28" x="192.666" y="0"> </tspan><tspan x="205.9258" y="0">giá</tspan><tspan class="cls-28" x="264.2539" y="0"> </tspan><tspan x="277.5127" y="0">chu</tspan><tspan class="cls-29" x="347.2324" y="0">y</tspan><tspan class="cls-27" x="367.3965" y="0">ên</tspan><tspan class="cls-26" x="413.7881" y="0"> </tspan><tspan x="427.0479" y="0">sâu</tspan><tspan class="cls-28" x="496.168" y="0"> </tspan><tspan x="509.4277" y="0">giúp</tspan><tspan class="cls-28" x="592.083" y="0"> </tspan><tspan x="605.3428" y="0">xác</tspan><tspan x="0" y="48">định</tspan><tspan class="cls-30" x="83.7363" y="48"> </tspan><tspan class="cls-31" x="93.8262" y="48">r</tspan><tspan x="108.3242" y="48">õ</tspan><tspan class="cls-32" x="132.7324" y="48"> </tspan><tspan x="142.8223" y="48">được</tspan><tspan class="cls-30" x="241.6563" y="48"> </tspan><tspan class="cls-33" x="251.7461" y="48">v</tspan><tspan class="cls-34" x="272.3291" y="48">ấn</tspan><tspan class="cls-32" x="319.3037" y="48"> </tspan><tspan x="329.3936" y="48">đề</tspan><tspan class="cls-32" x="377.6494" y="48"> </tspan><tspan x="387.7393" y="48">là</tspan><tspan class="cls-32" x="422.042" y="48"> </tspan><tspan class="cls-27" x="432.1309" y="48">cơ</tspan><tspan class="cls-32" x="479.0654" y="48"> </tspan><tspan x="489.1543" y="48">sở</tspan><tspan class="cls-32" x="535.7686" y="48"> </tspan><tspan x="545.8574" y="48">để</tspan><tspan class="cls-30" x="594.1123" y="48"> </tspan><tspan x="604.2031" y="48">các</tspan><tspan x="0" y="96">chu</tspan><tspan class="cls-19" x="69.7207" y="96">y</tspan><tspan x="89.8838" y="96">ên</tspan><tspan class="cls-35" x="136.2764" y="96"> </tspan><tspan class="cls-27" x="153.0908" y="96">gia</tspan><tspan class="cls-35" x="211.417" y="96"> </tspan><tspan class="cls-36" x="228.2314" y="96">Y</tspan><tspan class="cls-27" x="252.5791" y="96">ouCa</tspan><tspan class="cls-37" x="351.6514" y="96">r</tspan><tspan class="cls-27" x="366.1709" y="96">e</tspan><tspan class="cls-38" x="388.916" y="96"> </tspan><tspan x="405.7305" y="96">đưa</tspan><tspan class="cls-35" x="480.9561" y="96"> </tspan><tspan class="cls-39" x="497.7705" y="96">r</tspan><tspan class="cls-40" x="511.8682" y="96">a</tspan><tspan class="cls-35" x="535.1934" y="96"> </tspan><tspan x="552.0078" y="96">các</tspan><tspan class="cls-35" x="620.3057" y="96"> </tspan><tspan x="637.1201" y="96">lộ </tspan><tspan x="0" y="144">trình</tspan><tspan class="cls-41" x="87.7256" y="144"> </tspan><tspan x="102.3643" y="144">can</tspan><tspan class="cls-41" x="171.8242" y="144"> </tspan><tspan x="186.4629" y="144">thiệp,</tspan><tspan class="cls-41" x="291.3076" y="144"> </tspan><tspan class="cls-27" x="305.9453" y="144">trị</tspan><tspan class="cls-42" x="346.2344" y="144"> </tspan><tspan class="cls-27" x="360.874" y="144">liệu</tspan><tspan class="cls-41" x="429.1943" y="144"> </tspan><tspan x="443.833" y="144">phù</tspan><tspan class="cls-41" x="515.0938" y="144"> </tspan><tspan x="529.7324" y="144">hợp</tspan><tspan class="cls-41" x="601.8154" y="144"> </tspan><tspan class="cls-29" x="616.4541" y="144">v</tspan><tspan class="cls-40" x="637.0791" y="144">ới </tspan><tspan x="0" y="192">từng</tspan><tspan class="cls-43" x="88.4834" y="192"> </tspan><tspan class="cls-27" x="97.8281" y="192">học</tspan><tspan class="cls-44" x="168.3291" y="192"> </tspan><tspan x="177.6729" y="192">sinh.</tspan><tspan class="cls-44" x="269.8818" y="192"> </tspan><tspan x="279.2256" y="192">Đội</tspan><tspan class="cls-44" x="343.1191" y="192"> </tspan><tspan x="352.4629" y="192">ngũ</tspan><tspan class="cls-43" x="423.7646" y="192"> </tspan><tspan class="cls-27" x="433.1094" y="192">chu</tspan><tspan class="cls-29" x="502.8281" y="192">y</tspan><tspan x="522.9922" y="192">ên</tspan><tspan class="cls-45" x="569.3838" y="192"> </tspan><tspan class="cls-27" x="578.7285" y="192">gia...</tspan></text><text class="cls-25" transform="translate(3208.7902 720.4597)">Sau<tspan class="cls-46" x="72.3037" y="0"> </tspan><tspan x="95.4102" y="0">quá</tspan><tspan class="cls-46" x="166.6914" y="0"> </tspan><tspan class="cls-27" x="189.7969" y="0">trình</tspan><tspan class="cls-46" x="277.5215" y="0"> </tspan><tspan x="300.6279" y="0">can</tspan><tspan class="cls-46" x="370.0879" y="0"> </tspan><tspan x="393.1943" y="0">thiệp,</tspan><tspan class="cls-47" x="498.0391" y="0"> </tspan><tspan x="521.1436" y="0">trị</tspan><tspan class="cls-48" x="561.4336" y="0"> </tspan><tspan class="cls-27" x="584.541" y="0">liệu,</tspan><tspan x="0" y="48">nhà</tspan><tspan class="cls-49" x="70.5811" y="48"> </tspan><tspan class="cls-27" x="106.6221" y="48">trường/</tspan><tspan class="cls-50" x="252.3711" y="48">t</tspan><tspan x="266.3877" y="48">ổ</tspan><tspan class="cls-49" x="290.7959" y="48"> </tspan><tspan class="cls-27" x="326.8369" y="48">chức/phụ</tspan><tspan class="cls-51" x="510.9883" y="48"> </tspan><tspan x="547.0283" y="48">huynh</tspan><tspan x="0" y="96">hoặc</tspan><tspan class="cls-52" x="93.8271" y="96"> </tspan><tspan x="115.4248" y="96">các</tspan><tspan class="cls-52" x="183.7236" y="96"> </tspan><tspan class="cls-27" x="205.3213" y="96">em</tspan><tspan class="cls-52" x="265.0273" y="96"> </tspan><tspan x="286.626" y="96">có</tspan><tspan class="cls-53" x="333.5195" y="96"> </tspan><tspan x="355.1191" y="96">thể</tspan><tspan class="cls-52" x="415.8896" y="96"> </tspan><tspan x="437.4883" y="96">tiếp</tspan><tspan class="cls-52" x="509.6533" y="96"> </tspan><tspan x="531.252" y="96">tục</tspan><tspan class="cls-53" x="591.7822" y="96"> </tspan><tspan class="cls-27" x="613.3818" y="96">sử</tspan><tspan x="0" y="144">dụng</tspan><tspan class="cls-54" x="95.4492" y="144"> </tspan><tspan x="112.8008" y="144">gói</tspan><tspan class="cls-54" x="172.21" y="144"> </tspan><tspan class="cls-27" x="189.5615" y="144">đồng</tspan><tspan class="cls-54" x="287.1533" y="144"> </tspan><tspan x="304.5049" y="144">hành</tspan><tspan class="cls-54" x="398.6924" y="144"> </tspan><tspan class="cls-29" x="416.0439" y="144">v</tspan><tspan class="cls-40" x="436.6689" y="144">ới</tspan><tspan class="cls-54" x="472.0918" y="144"> </tspan><tspan class="cls-55" x="489.4434" y="144">Y</tspan><tspan x="513.79" y="144">ouCa</tspan><tspan class="cls-16" x="612.8633" y="144">r</tspan><tspan x="627.3818" y="144">e.</tspan><tspan class="cls-56"><tspan x="0" y="192">V</tspan><tspan class="cls-27" x="26.2305" y="192">ới</tspan><tspan class="cls-57" x="61.6533" y="192"> </tspan><tspan class="cls-27" x="80.5449" y="192">nhà</tspan><tspan class="cls-57" x="151.125" y="192"> </tspan><tspan class="cls-17" x="170.0166" y="192">trường,</tspan><tspan class="cls-58" x="306.917" y="192"> </tspan><tspan class="cls-17" x="325.8066" y="192">các</tspan><tspan class="cls-58" x="394.1055" y="192"> </tspan><tspan class="cls-17" x="412.9951" y="192">chu</tspan><tspan class="cls-19" x="482.7148" y="192">y</tspan><tspan class="cls-17" x="502.8779" y="192">ên</tspan><tspan class="cls-57" x="549.2705" y="192"> </tspan><tspan class="cls-17" x="568.1611" y="192">gia...</tspan></tspan></text><text class="cls-11" transform="translate(230.573 720.46)">Khi<tspan class="cls-59" x="61.312" y="0"> </tspan><tspan x="81.8174" y="0">phụ</tspan><tspan class="cls-59" x="153.0791" y="0"> </tspan><tspan x="173.5845" y="0">huynh/</tspan><tspan class="cls-59" x="306.418" y="0"> </tspan><tspan class="cls-17" x="326.9233" y="0">giáo</tspan><tspan class="cls-59" x="409.6602" y="0"> </tspan><tspan class="cls-17" x="430.1655" y="0">viên</tspan><tspan class="cls-60" x="508.418" y="0"> </tspan><tspan x="528.9238" y="0">nghi</tspan><tspan class="cls-60" x="611.1797" y="0"> </tspan><tspan x="631.6855" y="0">ngờ </tspan><tspan x="0" y="49.2002">con/</tspan><tspan class="cls-61" x="88.4624" y="49.2002"> </tspan><tspan class="cls-17" x="102.1797" y="49.2002">học</tspan><tspan class="cls-61" x="172.6807" y="49.2002"> </tspan><tspan class="cls-17" x="186.3979" y="49.2002">sinh</tspan><tspan class="cls-62" x="266.7925" y="49.2002"> </tspan><tspan x="280.5103" y="49.2002">của</tspan><tspan class="cls-62" x="349.9497" y="49.2002"> </tspan><tspan x="363.6675" y="49.2002">mình</tspan><tspan class="cls-61" x="459.0366" y="49.2002"> </tspan><tspan x="472.7539" y="49.2002">gặp</tspan><tspan class="cls-61" x="544.1357" y="49.2002"> </tspan><tspan class="cls-14" x="557.853" y="49.2002">r</tspan><tspan class="cls-17" x="572.3511" y="49.2002">ối</tspan><tspan class="cls-61" x="607.7339" y="49.2002"> </tspan><tspan class="cls-17" x="621.4512" y="49.2002">loạn </tspan><tspan x="0" y="98.4004">phát</tspan><tspan class="cls-63" x="85.3794" y="98.4004"> </tspan><tspan class="cls-17" x="94.499" y="98.4004">triển</tspan><tspan class="cls-64" x="181.1836" y="98.4004"> </tspan><tspan x="190.3037" y="98.4004">(như:</tspan><tspan class="cls-63" x="289.9409" y="98.4004"> </tspan><tspan class="cls-17" x="299.0605" y="98.4004">tự</tspan><tspan class="cls-63" x="339.8687" y="98.4004"> </tspan><tspan class="cls-17" x="348.9883" y="98.4004">k</tspan><tspan class="cls-65" x="370.7939" y="98.4004">ỷ</tspan><tspan x="389.0757" y="98.4004">,</tspan><tspan class="cls-64" x="398.1484" y="98.4004"> </tspan><tspan x="407.2686" y="98.4004">tăng</tspan><tspan class="cls-64" x="492.6875" y="98.4004"> </tspan><tspan x="501.8076" y="98.4004">động</tspan><tspan class="cls-63" x="599.3989" y="98.4004"> </tspan><tspan x="608.5186" y="98.4004">giảm </tspan><tspan x="0" y="147.5996">tập</tspan><tspan class="cls-66" x="61.7725" y="147.5996"> </tspan><tspan x="94.9932" y="147.5996">trung,</tspan><tspan class="cls-66" x="204.6841" y="147.5996"> </tspan><tspan x="237.9048" y="147.5996">chậm</tspan><tspan class="cls-66" x="344.2847" y="147.5996"> </tspan><tspan x="377.5054" y="147.5996">nói,</tspan><tspan class="cls-66" x="445.6079" y="147.5996"> </tspan><tspan x="478.8286" y="147.5996">chậm</tspan><tspan class="cls-66" x="585.2085" y="147.5996"> </tspan><tspan x="618.4292" y="147.5996">phát </tspan><tspan x="0" y="196.7998">triển,...)</tspan><tspan class="cls-67" x="146.4829" y="196.7998" xml:space="preserve">  </tspan><tspan x="175.6309" y="196.7998">hoặc</tspan><tspan class="cls-68" x="269.458" y="196.7998"> </tspan><tspan x="284.0322" y="196.7998">con</tspan><tspan class="cls-67" x="354.5728" y="196.7998"> </tspan><tspan class="cls-17" x="369.1465" y="196.7998">gặp</tspan><tspan class="cls-67" x="440.5283" y="196.7998"> </tspan><tspan class="cls-17" x="455.1021" y="196.7998">các</tspan><tspan class="cls-67" x="523.4009" y="196.7998"> </tspan><tspan class="cls-69" x="537.9746" y="196.7998">v</tspan><tspan class="cls-17" x="558.5586" y="196.7998">ấn</tspan><tspan class="cls-67" x="605.5327" y="196.7998"> </tspan><tspan x="620.1064" y="196.7998">đề...</tspan></text></svg>