<svg xmlns="http://www.w3.org/2000/svg" xmlns:xlink="http://www.w3.org/1999/xlink" width="3987" height="1069" viewBox="0 0 3987 1069">
      <defs>
            <clipPath id="clip-gp-ckcare">
                  <rect width="3987" height="1069"/>
            </clipPath>
      </defs>
      <g id="gp-ckcare" clip-path="url(#clip-gp-ckcare)">
            <g id="ck-1">
                  <g id="path-1">
                        <path id="Path_1" data-name="Path 1" d="M555.226,1143.509c-31.515-25.6-117.429-111.069-60.524-245.563.3-.711.628-1.406.981-2.092,7.29-14.122,83.111-152.272,237.576-107.171q.585.171,1.177.316c6.88,1.658,81.6,20.851,114.3,79.389a30.1,30.1,0,0,0,26.235,15.577h550.848a69.455,69.455,0,0,1,69.455,69.455v303.529a29.454,29.454,0,0,0,8.458,20.657l90.184,91.672a34.454,34.454,0,0,1-.2,48.526l-88.284,88.284a29.455,29.455,0,0,0-8.627,20.828v221.116a69.455,69.455,0,0,1-69.455,69.455H636.563a69.455,69.455,0,0,1-69.455-69.332l-1.025-581.864A29.411,29.411,0,0,0,555.226,1143.509Z" transform="translate(-456.5 -764.08)" fill="#f77e1c" stroke="#1a1818" stroke-miterlimit="10" stroke-width="0.25"/>
                        <path id="Path_2" data-name="Path 2" d="M1492.274,1330.444l59.478,60.186-59.478,66.205" transform="translate(-456.5 -764.08)" fill="none" stroke="#fff" stroke-linecap="round" stroke-linejoin="round" stroke-miterlimit="10" stroke-width="20"/>
                  </g>
                  <g id="text-1">
                        <text id="_1" data-name="1" transform="translate(149.904 303.892)" fill="#fff" font-size="230" font-family="Roboto-Medium, Roboto" font-weight="500">
                              <tspan x="0" y="0">1</tspan>
                        </text>
                        <text id="Sàng_lọc_theo_dõi" data-name="Sàng lọc
&amp; theo dõi" transform="translate(399.651 301.92)" fill="#fff" font-size="115" font-family="Roboto-Medium, Roboto" font-weight="500">
                              <tspan x="0" y="0">Sàng lọc</tspan>
                              <tspan x="0" y="130">&amp; theo dõi</tspan>
                        </text>
                        <text id="Khi_phụ_huynh_giáo_viên_nghi_ngờ_con_học_sinh_của_mình_gặp_rối_loạn_phát_triển_như:_tự_kỷ_tăng_động_giảm_tập_trung_chậm_nói_chậm_phát_triển_..._hoặc_con_gặp_các_vấn_đề..." data-name="Khi phụ huynh/ giáo viên nghi ngờ con/ học sinh của mình gặp rối loạn phát triển (như: tự kỷ, tăng động giảm tập trung, chậm nói, chậm phát triển,...)  hoặc con gặp các vấn đề..." transform="translate(228.404 516.516)" fill="#fff" font-size="55" font-family="Roboto-Regular, Roboto" letter-spacing="0.025em">
                              <tspan x="0" y="52">Khi phụ huynh/ giáo viên </tspan>
                              <tspan x="0" y="112">nghi ngờ con/ học sinh </tspan>
                              <tspan x="0" y="172">của mình gặp rối loạn phát </tspan>
                              <tspan x="0" y="232">triển (như: tự kỷ, tăng động </tspan>
                              <tspan x="0" y="292">giảm tập trung, chậm nói, </tspan>
                              <tspan x="0" y="352" xml:space="preserve">chậm phát triển,...)  hoặc </tspan>
                              <tspan x="0" y="412">con gặp các vấn đề...</tspan>
                        </text>
                  </g>
            </g>
            <g id="ck-2">
                  <g id="path-2">
                        <ellipse id="Ellipse_1" data-name="Ellipse 1" cx="199.702" cy="196.528" rx="199.702" ry="196.528" transform="translate(994.921 26.865)" fill="#f7f8f8" stroke="#fff" stroke-miterlimit="10" stroke-width="30"/>
                        <path id="Path_3" data-name="Path 3" d="M1542.752,1150.826s-102.13-55.174-90.391-181.956c0,0,5.87-126.783,145.565-181.957,0,0,79.826-22.3,139.7,9.391,0,0,68.087,28.174,92.739,84.522h608a40,40,0,0,1,40,40v350.913l93.424,93.424a36.386,36.386,0,0,1,0,51.457l-94.011,94.01v267.24a40,40,0,0,1-40,40H1580.405a40,40,0,0,1-40-40V1524.13l101.543-101.543s28.8-26.7,4.8-60.325a67.864,67.864,0,0,0-7.307-8.509l-95.22-95.22Z" transform="translate(-456.5 -764.08)" fill="#4d9d37"/>
                        <path id="Path_5" data-name="Path 5" d="M2473.187,1330.444l59.478,60.186-59.478,66.205" transform="translate(-456.5 -764.08)" fill="none" stroke="#fff" stroke-linecap="round" stroke-linejoin="round" stroke-miterlimit="10" stroke-width="20"/>
                  </g>
                  <g id="text-2">
                        <text id="_2" data-name="2" transform="translate(1132.891 303.516)" fill="#fff" font-size="230" font-family="Roboto-Medium, Roboto" font-weight="500">
                              <tspan x="0" y="0">2</tspan>
                        </text>
                        <text id="Đánh_giá_chuyên_sâu" data-name="Đánh giá
chuyên sâu" transform="translate(1370.462 301.92)" fill="#fff" font-size="115" font-family="Roboto-Medium, Roboto" font-weight="500">
                              <tspan x="0" y="0">Đánh giá</tspan>
                              <tspan x="0" y="130">chuyên sâu</tspan>
                        </text>
                        <text id="Sau_khi_nhận_được_kết_quả_sàng_lọc_ban_đầu_những_trẻ_học_sinh_gặp_khó_khăn_về_tâm_lý_hoặc_có_nguy_cơ_gặp_phải_rối_loạn_phát_triển_cha_mẹ_giáo_viên_sẽ_được_các..." data-name="Sau khi nhận được kết quả sàng lọc ban đầu, những trẻ/ học sinh gặp khó khăn về tâm lý hoặc có nguy cơ gặp phải rối loạn phát triển, cha mẹ/ giáo viên sẽ được các..." transform="translate(1244.56 516.516)" fill="#fff" font-size="55" font-family="Roboto-Regular, Roboto" letter-spacing="0.025em">
                              <tspan x="0" y="52">Sau khi nhận được kết quả </tspan>
                              <tspan x="0" y="112">sàng lọc ban đầu, những </tspan>
                              <tspan x="0" y="172">trẻ/ học sinh gặp khó </tspan>
                              <tspan x="0" y="232">khăn về tâm lý hoặc có </tspan>
                              <tspan x="0" y="292">nguy cơ gặp phải rối loạn </tspan>
                              <tspan x="0" y="352">phát triển, cha mẹ/ giáo </tspan>
                              <tspan x="0" y="412">viên sẽ được các...</tspan>
                        </text>
                  </g>
            </g>
            <g id="ck-3">
                  <g id="path-3">
                        <ellipse id="Ellipse_2" data-name="Ellipse 2" cx="199.702" cy="196.528" rx="199.702" ry="196.528" transform="translate(1970.991 26.865)" fill="#f7f8f8" stroke="#fff" stroke-miterlimit="10" stroke-width="30"/>
                        <path id="Path_4" data-name="Path 4" d="M2518.822,1150.826s-102.13-55.174-90.391-181.956c0,0,5.87-126.783,145.565-181.957,0,0,79.826-22.3,139.7,9.391,0,0,68.087,28.174,92.739,84.522h608a40,40,0,0,1,40,40v350.913l85.715,85.715a47.288,47.288,0,0,1,0,66.875l-86.3,86.3v267.24a40,40,0,0,1-40,40H2556.475a40,40,0,0,1-40-40V1524.13l101.543-101.543s28.8-26.7,4.8-60.325a67.863,67.863,0,0,0-7.307-8.509l-95.22-95.22Z" transform="translate(-456.5 -764.08)" fill="#03958b"/>
                        <path id="Path_6" data-name="Path 6" d="M3449.866,1330.444l59.478,60.186-59.478,66.205" transform="translate(-456.5 -764.08)" fill="none" stroke="#fff" stroke-linecap="round" stroke-linejoin="round" stroke-miterlimit="10" stroke-width="20"/>
                  </g>
                  <g id="text-3">
                        <text id="_3" data-name="3" transform="translate(2107.469 308.889)" fill="#fff" font-size="230" font-family="Roboto-Medium, Roboto" font-weight="500">
                              <tspan x="0" y="0">3</tspan>
                        </text>
                        <text id="Can_thiệp_trị_liệu" data-name="Can thiệp
&amp; trị liệu" transform="translate(2357.217 301.92)" fill="#fff" font-size="115" font-family="Roboto-Medium, Roboto" font-weight="500">
                              <tspan x="0" y="0">Can thiệp</tspan>
                              <tspan x="0" y="130">&amp; trị liệu</tspan>
                        </text>
                        <text id="Việc_đánh_giá_chuyên_sâu_giúp_xác_định_rõ_được_vấn_đề_là_cơ_sở_để_các_chuyên_gia_YouCare_đưa_ra_các_lộ_trình_can_thiệp_trị_liệu_phù_hợp_với_từng_học_sinh._Đội_ngũ_chuyên_gia..." data-name="Việc đánh giá chuyên sâu giúp xác định rõ được vấn đề là cơ sở để các chuyên gia YouCare đưa ra các lộ 
trình can thiệp, trị liệu phù hợp với từng học sinh. Đội ngũ chuyên gia..." transform="translate(2237.469 516.516)" fill="#fff" font-size="55" font-family="Roboto-Regular, Roboto" letter-spacing="0.025em">
                              <tspan x="0" y="52">Việc đánh giá chuyên sâu </tspan>
                              <tspan x="0" y="112">giúp xác định rõ được vấn </tspan>
                              <tspan x="0" y="172">đề là cơ sở để các chuyên </tspan>
                              <tspan x="0" y="232">gia YouCare đưa ra các lộ </tspan>
                              <tspan x="0" y="292">trình can thiệp, trị liệu phù </tspan>
                              <tspan x="0" y="352">hợp với từng học sinh. Đội </tspan>
                              <tspan x="0" y="412">ngũ chuyên gia...</tspan>
                        </text>
                  </g>
            </g>
            <g id="ck-4">
                  <g id="path-4">
                        <ellipse id="Ellipse_3" data-name="Ellipse 3" cx="199.702" cy="196.528" rx="199.702" ry="196.528" transform="translate(2950.77 25.21)" fill="#f7f8f8" stroke="#fff" stroke-miterlimit="10" stroke-width="30"/>
                        <path id="Path_7" data-name="Path 7" d="M3493.013,1259.63V1148.5s-118.956-70.434-78.261-219.13c0,0,21.913-112.7,154.957-147.13,0,0,161.217-28.174,214.435,101.739h600.174a40,40,0,0,1,40,40V1777.5a40,40,0,0,1-40,40H3533.8a40,40,0,0,1-40-40v-254.13l94.7-94.7s42.26-37.565,0-76.174Z" transform="translate(-456.5 -764.08)" fill="#1d6495"/>
                  </g>
                  <g id="text-4">
                        <text id="_4" data-name="4" transform="translate(3068.497 308.89)" fill="#fff" font-size="250" font-family="Roboto-Medium, Roboto" font-weight="500">
                              <tspan x="0" y="0">4</tspan>
                        </text>
                        <text id="Hỗ_trợ_đồng_hành" data-name="Hỗ trợ &amp;
đồng hành" transform="translate(3329.244 301.92)" fill="#fff" font-size="115" font-family="Roboto-Medium, Roboto" font-weight="500">
                              <tspan x="0" y="0">Hỗ trợ &amp;</tspan>
                              <tspan x="0" y="130">đồng hành</tspan>
                        </text>
                        <text id="Sau_quá_trình_can_thiệp_trị_liệu_nhà_trường_tổ_chức_phụ_Huynh_hoặc_các_em_có_thể_tiếp_tục_sử_dụng_gói_đồng_hành_với_YouCare._Với_nhà_trường_các_chuyên_gia..." data-name="Sau quá trình can thiệp, trị liệu, nhà trường/tổ chức/phụ Huynh hoặc các em có thể tiếp tục sử
dụng gói đồng hành với YouCare. Với nhà trường, các chuyên gia..." transform="translate(3235.848 525.929)" fill="#fff" font-size="55" font-family="Roboto-Regular, Roboto" letter-spacing="0.025em">
                              <tspan x="0" y="52">Sau quá trình can thiệp, </tspan>
                              <tspan x="0" y="112">trị liệu, nhà trường/tổ </tspan>
                              <tspan x="0" y="172">chức/phụ Huynh hoặc </tspan>
                              <tspan x="0" y="232">các em có thể tiếp tục sử</tspan>
                              <tspan x="0" y="292">dụng gói đồng hành với </tspan>
                              <tspan x="0" y="352">YouCare. Với nhà trường, </tspan>
                              <tspan x="0" y="412">các chuyên gia...</tspan>
                        </text>
                  </g>
            </g>
      </g>
</svg>