<svg xmlns="http://www.w3.org/2000/svg" width="937.5" height="4643.197" viewBox="0 0 937.5 4643.197">
  <g id="GP-Mobile" transform="translate(-1524.75 -164)">
    <g id="GP4">
      <g id="box-4">
        <rect id="Rectangle_4" data-name="Rectangle 4" width="937" height="873.637" rx="70" transform="translate(1524.75 3933.56)" fill="#1d6495"/>
        <g id="Group_8" data-name="Group 8">
          <circle id="Ellipse_11" data-name="Ellipse 11" cx="167" cy="167" r="167" transform="translate(1827.25 3795.202)" fill="#fff"/>
          <circle id="Ellipse_12" data-name="Ellipse 12" cx="151" cy="151" r="151" transform="translate(1844.25 3812.202)" fill="#1d6495"/>
        </g>
      </g>
      <g id="Text-4">
        <text id="_4" data-name="4" transform="translate(1911.399 4052.886)" fill="#fff" font-size="250" font-family="Roboto-Medium, Roboto" font-weight="500"><tspan x="0" y="0">4</tspan></text>
        <text id="Hỗ_trợ_đồng_hành" data-name="Hỗ trợ &amp;
đồng hành" transform="translate(1991.25 4250.766)" fill="#fff" font-size="135" font-family="Roboto-Medium, Roboto" font-weight="500"><tspan x="-247.654" y="0">Hỗ trợ &amp;</tspan><tspan x="-321.614" y="150">đồng hành</tspan></text>
        <text id="Sau_quá_trình_can_thiệp_trị_liệu_nhà_trường_tổ_chức_phụ_huynh_hoặc_các_em_có_thể_tiếp_tục_sử_dụng_gói_đồng_hành_với_YouCare._Với_nhà_trường_các_chuyên_gia..." data-name="Sau quá trình can thiệp, trị liệu,
nhà trường/tổ chức/phụ huynh
hoặc các em có thể tiếp tục sử
dụng gói đồng hành với YouCare.
Với nhà trường, các chuyên gia..." transform="translate(1991.206 4498.732)" fill="#fff" font-size="41" font-family="Roboto-Regular, Roboto" letter-spacing="0.025em"><tspan x="-294.663" y="0">Sau quá trình can thiệp, trị liệu,</tspan><tspan x="-293.16" y="49">nhà trường/tổ chức/phụ huynh</tspan><tspan x="-293.975" y="98">hoặc các em có thể tiếp tục sử</tspan><tspan x="-315.017" y="147">dụng gói đồng hành với YouCare.</tspan><tspan x="-311.168" y="196">Với nhà trường, các chuyên gia...</tspan></text>
      </g>
    </g>
    <g id="GP3">
      <g id="box-3">
        <rect id="Rectangle_3" data-name="Rectangle 3" width="937" height="863" rx="70" transform="translate(1525.25 2722.202)" fill="#03958b"/>
        <g id="Group_7" data-name="Group 7">
          <path id="Polygon_3" data-name="Polygon 3" d="M130.911,7.233a11,11,0,0,1,15.178,0L257.1,113.037A11,11,0,0,1,249.514,132H27.486A11,11,0,0,1,19.9,113.037Z" transform="translate(2132.25 3682.202) rotate(180)" fill="#03958b"/>
          <path id="Path_12" data-name="Path 12" d="M0,0,58.624,56.809,0,119.3" transform="translate(2050.899 3577.225) rotate(90)" fill="none" stroke="#fff" stroke-linecap="round" stroke-linejoin="round" stroke-miterlimit="10" stroke-width="20"/>
        </g>
        <g id="Group_6" data-name="Group 6">
          <circle id="Ellipse_9" data-name="Ellipse 9" cx="167" cy="167" r="167" transform="translate(1826.25 2595.202)" fill="#fff"/>
          <circle id="Ellipse_10" data-name="Ellipse 10" cx="151" cy="151" r="151" transform="translate(1843.25 2612.202)" fill="#03958b"/>
        </g>
        <path id="Path_14" data-name="Path 14" d="M1492.274,1322.076l59.86,63.5-59.86,63.809" transform="translate(3379.479 2181.832) rotate(90)" fill="none" stroke="#03958b" stroke-linecap="round" stroke-linejoin="round" stroke-miterlimit="10" stroke-width="20"/>
      </g>
      <g id="Text-3">
        <text id="_3" data-name="3" transform="translate(1924.25 2858.202)" fill="#fff" font-size="250" font-family="Roboto-Medium, Roboto" font-weight="500"><tspan x="0" y="0">3</tspan></text>
        <text id="Can_thiệp_trị_liệu" data-name="Can thiệp
&amp; trị liệu" transform="translate(1991.249 3068.356)" fill="#fff" font-size="135" font-family="Roboto-Medium, Roboto" font-weight="500"><tspan x="-286.315" y="0">Can thiệp</tspan><tspan x="-248.379" y="150">&amp; trị liệu</tspan></text>
        <text id="Việc_đánh_giá_chuyên_sâu_giúp_xác_định_rõ_được_vấn_đề_là_cơ_sở_để_các_chuyên_gia_YouCare_đưa_ra_các_lộ_trình_can_thiệp_trị_liệu_phù_hợp_với_từng_học_sinh._Đội_ngũ_chuyên_gia..." data-name="Việc đánh giá chuyên sâu giúp xác
định rõ được vấn đề là cơ sở để các
chuyên gia YouCare đưa ra các lộ 
trình can thiệp, trị liệu phù hợp với 
từng học sinh. Đội ngũ chuyên gia..." transform="translate(1995.489 3298.235)" fill="#fff" font-size="41" font-family="Roboto-Regular, Roboto" letter-spacing="0.025em"><tspan x="-329.485" y="0">Việc đánh giá chuyên sâu giúp xác</tspan><tspan x="-340.62" y="49">định rõ được vấn đề là cơ sở để các</tspan><tspan x="-324.411" y="98">chuyên gia YouCare đưa ra các lộ </tspan><tspan x="-329.205" y="147">trình can thiệp, trị liệu phù hợp với </tspan><tspan x="-341.233" y="196">từng học sinh. Đội ngũ chuyên gia...</tspan></text>
      </g>
    </g>
    <g id="GP2">
      <g id="box-2">
        <rect id="Rectangle_2" data-name="Rectangle 2" width="937" height="873.637" rx="70" transform="translate(1524.75 1502.358)" fill="#4d9d37"/>
        <g id="Group_5" data-name="Group 5">
          <path id="Polygon_2" data-name="Polygon 2" d="M131.034,6.9a11,11,0,0,1,14.931,0L256.355,108.913a11,11,0,0,1-7.466,19.079H28.111a11,11,0,0,1-7.466-19.079Z" transform="translate(2131.75 2470.049) rotate(180)" fill="#4d9d37"/>
          <path id="Path_9" data-name="Path 9" d="M0,0,56.843,56.809,0,119.3" transform="translate(2053.399 2376.768) rotate(90)" fill="none" stroke="#fff" stroke-linecap="round" stroke-linejoin="round" stroke-miterlimit="10" stroke-width="20"/>
        </g>
        <g id="Group_4" data-name="Group 4">
          <circle id="Ellipse_7" data-name="Ellipse 7" cx="167" cy="167" r="167" transform="translate(1827.25 1364)" fill="#fff"/>
          <circle id="Ellipse_8" data-name="Ellipse 8" cx="151" cy="151" r="151" transform="translate(1844.25 1381)" fill="#4d9d37"/>
        </g>
        <path id="Path_11" data-name="Path 11" d="M0,0,50.563,55.315,0,110.9" transform="translate(2046.7 2463.719) rotate(90)" fill="none" stroke="#4d9d37" stroke-linecap="round" stroke-linejoin="round" stroke-miterlimit="10" stroke-width="20"/>
      </g>
      <g id="Text-2">
        <text id="Đánh_giá_chuyên_sâu" data-name="Đánh giá
chuyên sâu" transform="translate(1994.25 1839.58)" fill="#fff" font-size="135" font-family="Roboto-Medium, Roboto" font-weight="500"><tspan x="-265.452" y="0">Đánh giá</tspan><tspan x="-342.18" y="150">chuyên sâu</tspan></text>
        <text id="Sau_khi_nhận_được_kết_quả_sàng_lọc_ban_đầu_những_trẻ_học_sinh_gặp_khó_khăn_về_tâm_lý_hoặc_có_nguy_cơ_gặp_phải_rối_loạn_phát_triển_cha_mẹ_giáo_viên_sẽ_được_các..." data-name="Sau khi nhận được kết quả sàng lọc
ban đầu, những trẻ/ học sinh gặp 
khó khăn về tâm lý hoặc có nguy 
cơ gặp phải rối loạn phát triển, 
cha mẹ/ giáo viên sẽ được các..." transform="translate(1991.25 2069.459)" fill="#fff" font-size="41" font-family="Roboto-Regular, Roboto" letter-spacing="0.025em"><tspan x="-339.918" y="0">Sau khi nhận được kết quả sàng lọc</tspan><tspan x="-321.468" y="49">ban đầu, những trẻ/ học sinh gặp </tspan><tspan x="-316.251" y="98">khó khăn về tâm lý hoặc có nguy </tspan><tspan x="-295.412" y="147">cơ gặp phải rối loạn phát triển, </tspan><tspan x="-310.775" y="196">cha mẹ/ giáo viên sẽ được các...</tspan></text>
        <text id="_2" data-name="2" transform="translate(1922.75 1622.646)" fill="#fff" font-size="250" font-family="Roboto-Medium, Roboto" font-weight="500"><tspan x="0" y="0">2</tspan></text>
      </g>
    </g>
    <g id="GP1">
      <g id="box-1">
        <rect id="Rectangle_1" data-name="Rectangle 1" width="937" height="863" rx="70" transform="translate(1525.25 291)" fill="#f77e1c"/>
        <g id="Group_2" data-name="Group 2">
          <path id="Polygon_1" data-name="Polygon 1" d="M130.911,7.233a11,11,0,0,1,15.178,0L257.1,113.037A11,11,0,0,1,249.514,132H27.486A11,11,0,0,1,19.9,113.037Z" transform="translate(2132.25 1251) rotate(180)" fill="#f77e1c"/>
          <path id="Path_8" data-name="Path 8" d="M0,0,58.624,56.809,0,119.3" transform="translate(2050.899 1146.023) rotate(90)" fill="none" stroke="#fff" stroke-linecap="round" stroke-linejoin="round" stroke-miterlimit="10" stroke-width="20"/>
        </g>
        <g id="Group_1" data-name="Group 1">
          <circle id="Ellipse_4" data-name="Ellipse 4" cx="167" cy="167" r="167" transform="translate(1826.25 164)" fill="#fff"/>
          <circle id="Ellipse_6" data-name="Ellipse 6" cx="151" cy="151" r="151" transform="translate(1843.25 181)" fill="#f77e1c"/>
        </g>
        <path id="Path_10" data-name="Path 10" d="M1492.274,1322.076l58.665,62.23-58.665,62.535" transform="translate(3378.208 -248.175) rotate(90)" fill="none" stroke="#f77e1c" stroke-linecap="round" stroke-linejoin="round" stroke-miterlimit="10" stroke-width="20"/>
      </g>
      <g id="Text-1">
        <text id="Sàng_lọc_theo_dõi" data-name="Sàng lọc
&amp; theo dõi" transform="translate(1993.75 618)" fill="#fff" font-size="135" font-family="Roboto-Medium, Roboto" font-weight="500"><tspan x="-260.87" y="0">Sàng lọc</tspan><tspan x="-305.101" y="150">&amp; theo dõi</tspan></text>
        <text id="Khi_phụ_huynh_giáo_viên_nghi_ngờ_con_học_sinh_của_mình_gặp_rối_loan_phát_triển_như:_tự_kỷ_tăng_động_giảm_tập_trung_chậm_nói_chậm_phát_triển_..._hoặc_con_gặp_các_vấn_đề..." data-name="Khi phụ huynh/ giáo viên nghi ngờ
con/ học sinh của mình gặp rối loan
phát triển (như: tự kỷ, tăng động
giảm tập trung, chậm nói, chậm phát
triển,...)  hoặc con gặp các vấn đề..." transform="translate(1994.25 848)" fill="#fff" font-size="41" font-family="Roboto-Regular, Roboto" letter-spacing="0.025em"><tspan x="-323.4" y="0">Khi phụ huynh/ giáo viên nghi ngờ</tspan><tspan x="-342.492" y="50">con/ học sinh của mình gặp rối loan</tspan><tspan x="-305.352" y="100">phát triển (như: tự kỷ, tăng động</tspan><tspan x="-349.509" y="150">giảm tập trung, chậm nói, chậm phát</tspan><tspan x="-339.495" y="200" xml:space="preserve">triển,...)  hoặc con gặp các vấn đề...</tspan></text>
        <text id="_1" data-name="1" transform="translate(1923.25 418.5)" fill="#fff" font-size="250" font-family="Roboto-Medium, Roboto" font-weight="500"><tspan x="0" y="0">1</tspan></text>
      </g>
    </g>
  </g>
</svg>
