<svg width="68" height="46" viewBox="0 0 68 46" fill="none" xmlns="http://www.w3.org/2000/svg">
<g clip-path="url(#clip0_8_11052)">
<path d="M53.499 10.7209C56.4428 10.7209 58.8292 8.33451 58.8292 5.39073C58.8292 2.44695 56.4428 0.0605469 53.499 0.0605469C50.5552 0.0605469 48.1688 2.44695 48.1688 5.39073C48.1688 8.33451 50.5552 10.7209 53.499 10.7209Z" fill="white"/>
<path d="M39.3711 24.3542L47.8775 13.2206C48.1718 12.8353 48.6269 12.6108 49.1122 12.6108H57.7946C58.274 12.6108 58.726 12.8323 59.0203 13.2115L67.6147 24.2571C68.2366 25.058 68.0879 26.2108 67.287 26.8267C66.5772 27.3727 65.573 27.3212 64.9208 26.7084L58.8504 19.7127L61.5685 31.5168H57.7764L58.1587 43.3724C58.189 44.3856 57.379 45.229 56.3627 45.2351C55.4314 45.2411 54.6457 44.5343 54.5577 43.606L53.5323 32.7211L52.5403 43.6242C52.4523 44.5495 51.6818 45.2563 50.7535 45.2593C49.7341 45.2654 48.912 44.4251 48.9393 43.4027L49.2791 31.5562L45.4991 31.5592L48.1202 19.7643L42.0862 26.7872C41.4401 27.4061 40.4389 27.4638 39.726 26.9238H39.723C38.913 26.314 38.7552 25.1612 39.3711 24.3542Z" fill="white"/>
<path d="M26.3597 25.0308L20.6291 13.3662C20.3834 12.8687 19.8767 12.5532 19.3216 12.5532L7.19291 12.5654C6.64685 12.5654 6.14629 12.8718 5.89753 13.3602L0.215438 24.5514C-0.230514 25.4312 0.0334165 26.5051 0.834309 27.0815C1.82329 27.7884 3.20968 27.4516 3.76788 26.3716L7.60549 18.9391L8.40031 26.5142L6.53763 42.3865C6.35865 43.9094 7.54785 45.2472 9.08289 45.2442H9.08896C10.3813 45.2442 11.4704 44.2795 11.6282 42.9962L13.1935 30.2942L14.7104 42.9993C14.8651 44.2855 15.9572 45.2563 17.2526 45.2563C18.7816 45.2563 19.9677 43.9276 19.7979 42.4077L18.008 26.5506L18.8574 18.9877L22.8285 26.7964C23.3109 27.7459 24.4606 28.1403 25.4253 27.6913C26.4265 27.2211 26.8481 26.0228 26.3597 25.0308Z" fill="white"/>
<path d="M13.2997 10.6601C16.2434 10.6601 18.6298 8.27371 18.6298 5.32994C18.6298 2.38616 16.2434 -0.000244141 13.2997 -0.000244141C10.3559 -0.000244141 7.96948 2.38616 7.96948 5.32994C7.96948 8.27371 10.3559 10.6601 13.2997 10.6601Z" fill="white"/>
<path d="M41.9466 25.0186L35.3362 28.3859L32.5088 28.392L29.6814 28.3859L23.071 25.0186L23.3653 27.4516L29.4145 32.0021L27.5063 39.3618L29.6329 39.3679L29.7603 44.1429C29.7755 44.7587 30.2791 45.2532 30.8979 45.2532C31.4834 45.2563 31.9749 44.8133 32.0386 44.2309L32.5119 39.4225L32.9851 44.2309C33.0458 44.8133 33.5372 45.2563 34.1258 45.2532C34.7416 45.2502 35.2482 44.7587 35.2634 44.1429L35.3908 39.3679L37.5174 39.3618L35.6093 32.0021L41.9527 26.9085V25.0186H41.9466Z" fill="white"/>
<path d="M32.521 27.1088C34.1713 27.1028 35.5031 25.7589 35.497 24.1116C35.491 22.4612 34.147 21.1295 32.4997 21.1355C30.8525 21.1416 29.5176 22.4855 29.5237 24.1328C29.5298 25.7831 30.8707 27.1149 32.521 27.1088Z" fill="white"/>
</g>
<defs>
<clipPath id="clip0_8_11052">
<rect width="68" height="45.2565" fill="white"/>
</clipPath>
</defs>
</svg>
