<?xml version="1.0" standalone="no"?>
<!DOCTYPE svg PUBLIC "-//W3C//DTD SVG 20010904//EN"
 "http://www.w3.org/TR/2001/REC-SVG-20010904/DTD/svg10.dtd">
<svg version="1.0" xmlns="http://www.w3.org/2000/svg"
 width="512.000000pt" height="512.000000pt" viewBox="0 0 512.000000 512.000000"
 preserveAspectRatio="xMidYMid meet">
    <g transform="translate(0.000000,512.000000) scale(0.100000,-0.100000)" fill="#000000" stroke="none">
        <path d="M1980 4900 c-226 -31 -407 -162 -505 -365 -52 -107 -65 -166 -65
        -285 0 -120 13 -178 67 -289 37 -77 59 -108 122 -170 130 -130 280 -193 461
        -193 186 -1 330 60 465 196 134 136 190 271 188 461 -1 191 -65 338 -204 469
        -145 137 -342 202 -529 176z"/>
        <path d="M3946 4274 c-240 -58 -432 -276 -453 -515 l-6 -66 44 -31 c141 -98
        258 -282 290 -454 11 -62 14 -67 48 -82 70 -30 127 -40 226 -39 80 0 116 6
        180 26 310 102 483 430 392 745 -30 101 -75 177 -155 257 -73 73 -186 137
        -283 160 -79 18 -205 18 -283 -1z"/>
        <path d="M872 3660 c-138 -36 -255 -120 -338 -241 -68 -100 -95 -179 -101
        -301 -7 -124 7 -200 59 -307 97 -203 308 -334 538 -333 104 1 164 14 253 54
        53 24 69 37 73 57 31 147 99 275 202 383 l75 78 -2 62 c-2 86 -17 139 -63 237
        -72 152 -222 273 -393 316 -81 20 -213 18 -303 -5z"/>
        <path d="M2946 3664 c-212 -51 -390 -232 -441 -446 -26 -113 -23 -127 47 -178
        122 -90 230 -258 264 -410 9 -41 18 -80 20 -87 9 -32 143 -65 265 -65 155 1
        283 51 400 160 127 117 191 263 192 437 1 172 -56 309 -179 432 -79 79 -193
        142 -292 162 -72 15 -204 12 -276 -5z"/>
        <path d="M1670 3543 c-19 -2 -39 -8 -43 -12 -4 -4 10 -41 32 -82 43 -80 81
        -202 81 -260 0 -69 2 -69 100 -32 149 56 329 61 471 13 34 -12 62 -20 64 -18
        1 2 7 36 14 77 13 83 57 202 96 258 23 35 24 38 7 48 -17 10 -749 17 -822 8z"/>
        <path d="M1962 3045 c-173 -39 -335 -167 -410 -325 -47 -99 -62 -163 -62 -265
        0 -102 15 -166 62 -265 79 -164 237 -288 418 -326 290 -62 591 108 690 389 60
        170 41 360 -52 515 -70 115 -207 222 -338 263 -85 27 -225 33 -308 14z"/>
        <path d="M3836 3018 c-3 -13 -7 -46 -11 -74 -13 -116 -77 -258 -165 -364 l-48
        -57 78 -32 c212 -87 382 -248 481 -456 69 -147 81 -201 86 -409 l5 -178 97 7
        c256 18 524 78 699 156 l62 28 0 343 c0 189 -5 372 -11 407 -51 316 -296 570
        -611 635 -60 12 -142 16 -367 16 l-291 0 -4 -22z"/>
        <path d="M615 2415 c-284 -62 -507 -274 -591 -560 -15 -51 -18 -116 -21 -446
        l-4 -387 33 -10 c174 -54 379 -103 560 -131 107 -18 293 -36 315 -33 5 1 11
        79 14 174 5 125 12 193 26 243 55 197 172 374 325 491 63 49 201 125 260 144
        l38 11 -50 62 c-92 114 -153 255 -168 389 l-7 63 -335 2 c-247 1 -351 -2 -395
        -12z"/>
        <path d="M2829 2338 c-25 -145 -84 -273 -175 -376 l-41 -47 77 -31 c211 -85
        392 -257 490 -467 59 -125 80 -224 87 -415 l6 -163 81 6 c242 18 515 77 681
        147 l80 34 3 354 c2 286 0 370 -13 431 -50 252 -225 463 -465 562 -119 50
        -179 57 -500 57 l-296 0 -15 -92z"/>
        <path d="M1725 1800 c-302 -44 -550 -264 -637 -566 -22 -76 -23 -92 -23 -459
        l0 -380 130 -38 c657 -191 1385 -185 1849 15 l76 32 0 361 c0 386 -5 435 -53
        555 -41 100 -88 170 -172 256 -121 123 -262 195 -435 223 -73 12 -656 13 -735
        1z"/>
    </g>
</svg>