<svg width="134" height="27" viewBox="0 0 134 27" fill="none" xmlns="http://www.w3.org/2000/svg">
<path d="M0.0687165 26V1.34026H7.97909C10.3981 1.34026 12.2782 1.85615 13.6195 2.88794C14.9723 3.90826 15.6487 5.32411 15.6487 7.13547C15.6487 8.49972 15.2589 9.69201 14.4794 10.7123C13.7113 11.7212 12.6852 12.432 11.4012 12.8447V12.9135C13.0291 13.1084 14.3303 13.7332 15.3048 14.7879C16.2793 15.8426 16.7665 17.1782 16.7665 18.7947C16.7665 20.9729 15.9869 22.7212 14.4278 24.0396C12.8686 25.3465 10.8222 26 8.28863 26H0.0687165ZM4.16148 4.62478V11.7097H6.89572C8.27143 11.7097 9.35481 11.3773 10.1459 10.7123C10.9484 10.0474 11.3496 9.11306 11.3496 7.90931C11.3496 6.80873 10.977 5.98904 10.2318 5.45021C9.49812 4.89993 8.39754 4.62478 6.93011 4.62478H4.16148ZM4.16148 14.9943V22.7155H7.66956C9.18285 22.7155 10.3579 22.3601 11.1948 21.6493C12.0432 20.9385 12.4674 19.9698 12.4674 18.7431C12.4674 17.5164 12.0317 16.5878 11.1604 15.9573C10.2892 15.3153 9.02235 14.9943 7.36002 14.9943H4.16148ZM25.5195 26H21.3751V1.34026H25.5195V26ZM48.2704 26H29.3887V24.1084L42.7676 4.81394H30.4205V1.34026H48.4424V3.12869L35.1151 22.5263H48.2704V26ZM70.2303 24.7791C68.9922 25.3523 67.7884 25.765 66.6191 26.0172C65.4497 26.2809 64.1772 26.4127 62.8015 26.4127C59.0297 26.4127 56.0776 25.3121 53.9453 23.111C51.8129 20.8984 50.7467 17.8833 50.7467 14.0656C50.7467 10.1678 51.9218 7.00363 54.272 4.57319C56.6337 2.14276 59.7233 0.92754 63.5409 0.92754C64.7676 0.92754 65.8911 1.03072 66.9114 1.23708C67.9432 1.43197 69.0094 1.75297 70.11 2.20008L68.7858 5.5362C67.9145 5.1808 67.0662 4.92285 66.2408 4.76235C65.4268 4.60185 64.544 4.5216 63.5925 4.5216C61.0933 4.5216 59.0412 5.35277 57.4362 7.01509C55.8426 8.67742 55.0458 10.9359 55.0458 13.7905C55.0458 16.5763 55.7853 18.7775 57.2642 20.3939C58.7431 21.999 60.7264 22.8015 63.2142 22.8015C64.0281 22.8015 64.8994 22.6983 65.828 22.4919C66.7566 22.2856 67.7139 21.9474 68.6998 21.4773L70.2303 24.7791ZM71.4341 26L80.6686 1.34026H85.2772L94.443 26H89.9547L87.8395 20.05H77.9516L75.9052 26H71.4341ZM79.0177 16.6795H86.7389L83.3169 6.87752C83.2366 6.62531 83.1678 6.37309 83.1105 6.12088C83.0532 5.8572 82.9958 5.5362 82.9385 5.15787H82.8353C82.778 5.5018 82.715 5.80561 82.6462 6.06929C82.5889 6.33297 82.5143 6.59091 82.4226 6.84313L79.0177 16.6795ZM116.489 26H111.777L107.977 19.4138C107.3 18.2559 106.687 17.4648 106.137 17.0406C105.586 16.605 104.939 16.37 104.193 16.3356H101.958V26H97.8651V1.34026H105.879C108.412 1.34026 110.407 1.91347 111.863 3.0599C113.319 4.20633 114.047 5.91452 114.047 8.18445C114.047 9.88117 113.577 11.3199 112.637 12.5008C111.708 13.6816 110.436 14.5471 108.819 15.0974V15.1662C109.427 15.4299 109.983 15.8312 110.487 16.37C110.992 16.8973 111.462 17.5336 111.897 18.2788L116.489 26ZM101.958 4.65918V12.9995H105.191C106.521 12.9995 107.61 12.581 108.458 11.7441C109.318 10.9072 109.748 9.84678 109.748 8.56277C109.748 7.33609 109.364 6.37882 108.596 5.69096C107.839 5.0031 106.727 4.65918 105.26 4.65918H101.958ZM133.634 26H119.791V1.34026H133.083V4.81394H123.883V11.7957H132.413V15.2522H123.883V22.5263H133.634V26Z" fill="white"/>
</svg>
