<svg width="325" height="191" viewBox="0 0 325 191" fill="none" xmlns="http://www.w3.org/2000/svg">
<path d="M7.19116 7.10303V182.311H312.069" stroke="#67AC2F" stroke-width="2.52571" stroke-miterlimit="10" stroke-linecap="round"/>
<path d="M0.623779 7.43122C0.623779 3.81946 3.55359 0.889648 7.16535 0.889648C10.7771 0.889648 13.7069 3.81946 13.7069 7.43122C13.7069 11.043 10.7771 13.9728 7.16535 13.9728C3.55359 13.9728 0.623779 11.043 0.623779 7.43122Z" fill="#67AC2F"/>
<path d="M309.518 191L324.572 182.311L309.518 173.623V191Z" fill="#67AC2F"/>
<path d="M60.2578 93.6328C58.7865 94.2839 57.3607 94.7526 55.9805 95.0391C54.6003 95.3385 53.1094 95.4883 51.5078 95.4883C47.1458 95.4883 43.7083 94.2708 41.1953 91.8359C38.6953 89.388 37.4453 85.8919 37.4453 81.3477C37.4453 77.0898 38.8125 73.5547 41.5469 70.7422C44.2812 67.9297 47.888 66.5234 52.3672 66.5234C53.8646 66.5234 55.1992 66.6276 56.3711 66.8359C57.556 67.0443 58.7865 67.3828 60.0625 67.8516L58.207 72.9492C57.2435 72.5977 56.319 72.3438 55.4336 72.1875C54.5482 72.0312 53.5911 71.9531 52.5625 71.9531C50.2708 71.9531 48.2852 72.7604 46.6055 74.375C44.9258 75.9766 44.0859 78.151 44.0859 80.8984C44.0859 83.737 44.8151 85.957 46.2734 87.5586C47.7448 89.1602 49.7565 89.9609 52.3086 89.9609C52.9727 89.9609 53.8125 89.8568 54.8281 89.6484C55.8568 89.4271 56.918 89.069 58.0117 88.5742L60.2578 93.6328ZM80.1992 95H74.3594V92.1289H74.2812C73.6172 93.2487 72.7839 94.0885 71.7812 94.6484C70.7917 95.2083 69.6654 95.4883 68.4023 95.4883C66.6706 95.4883 65.1797 94.9609 63.9297 93.9062C62.6927 92.8385 62.0742 91.3477 62.0742 89.4336C62.0742 87.5846 62.6862 86.0742 63.9102 84.9023C65.1471 83.7305 67.0742 82.9688 69.6914 82.6172L74.3984 81.9922V81.6016C74.3984 80.651 74.0924 79.9349 73.4805 79.4531C72.8685 78.9583 72.0221 78.7109 70.9414 78.7109C70.1211 78.7109 69.2031 78.8477 68.1875 79.1211C67.1849 79.3945 66.1628 79.8307 65.1211 80.4297L63.0312 76.7773C64.3984 75.9831 65.7526 75.4102 67.0938 75.0586C68.4479 74.694 69.9193 74.5117 71.5078 74.5117C74.4896 74.5117 76.6836 75.2214 78.0898 76.6406C79.4961 78.0599 80.1992 80.1953 80.1992 83.0469V95ZM74.3984 86.875V85.5273L70.7656 85.9961C69.763 86.1263 69.0078 86.4323 68.5 86.9141C68.0052 87.3828 67.7578 87.9818 67.7578 88.7109C67.7578 89.4141 67.9987 89.9935 68.4805 90.4492C68.9753 90.8919 69.6393 91.1133 70.4727 91.1133C71.6315 91.1133 72.5755 90.7161 73.3047 89.9219C74.0339 89.1146 74.3984 88.099 74.3984 86.875ZM104.398 95H98.2461V83.8867C98.2461 82.3372 97.9661 81.1784 97.4062 80.4102C96.8594 79.6289 96.0326 79.2383 94.9258 79.2383C93.8581 79.2383 92.9792 79.6484 92.2891 80.4688C91.599 81.2891 91.2539 82.3307 91.2539 83.5938V95H85.082V75H91.2539V78.1641H91.332C92.0742 76.9401 92.9792 76.0286 94.0469 75.4297C95.1146 74.8177 96.3516 74.5117 97.7578 74.5117C99.9714 74.5117 101.632 75.2018 102.738 76.582C103.845 77.9492 104.398 80.0065 104.398 82.7539V95ZM132.855 94.6875C132.23 94.9479 131.527 95.1432 130.746 95.2734C129.978 95.4167 129.197 95.4883 128.402 95.4883C126.215 95.4883 124.568 94.9609 123.461 93.9062C122.354 92.8516 121.801 91.276 121.801 89.1797V79.5508H118.559V75H121.801V70.1562L127.953 68.3984V75H132.445V79.5508H127.953V88.7891C127.953 89.5573 128.103 90.1172 128.402 90.4688C128.702 90.8073 129.184 90.9766 129.848 90.9766C130.173 90.9766 130.486 90.9375 130.785 90.8594C131.085 90.7682 131.371 90.6576 131.645 90.5273L132.855 94.6875ZM155.141 95H148.988V83.6328C148.988 82.1615 148.721 81.0612 148.188 80.332C147.654 79.6029 146.853 79.2383 145.785 79.2383C144.691 79.2383 143.806 79.6484 143.129 80.4688C142.452 81.2891 142.113 82.3307 142.113 83.5938V95H135.941V65.3906H142.113V77.9688H142.191C142.947 76.8099 143.839 75.944 144.867 75.3711C145.896 74.7982 147.055 74.5117 148.344 74.5117C150.609 74.5117 152.309 75.1953 153.441 76.5625C154.574 77.9297 155.141 79.9805 155.141 82.7148V95ZM163.168 72.2461C162.1 72.2461 161.228 71.9206 160.551 71.2695C159.874 70.6185 159.535 69.8112 159.535 68.8477C159.535 67.8451 159.874 67.0312 160.551 66.4062C161.228 65.7682 162.1 65.4492 163.168 65.4492C164.249 65.4492 165.121 65.7682 165.785 66.4062C166.462 67.0312 166.801 67.8451 166.801 68.8477C166.801 69.8503 166.462 70.6706 165.785 71.3086C165.121 71.9336 164.249 72.2461 163.168 72.2461ZM166.215 95H160.043V75H166.215V95ZM189.379 86.7578H176.332C176.436 88.2031 176.918 89.2773 177.777 89.9805C178.65 90.6836 179.848 91.0352 181.371 91.0352C181.944 91.0352 182.732 90.8659 183.734 90.5273C184.75 90.1758 185.733 89.6289 186.684 88.8867L189.418 92.3828C188.051 93.4635 186.645 94.2513 185.199 94.7461C183.754 95.2409 182.159 95.4883 180.414 95.4883C177.185 95.4883 174.678 94.5964 172.895 92.8125C171.111 91.0156 170.219 88.5156 170.219 85.3125C170.219 82.1224 171.163 79.5247 173.051 77.5195C174.939 75.5143 177.328 74.5117 180.219 74.5117C182.992 74.5117 185.212 75.3516 186.879 77.0312C188.546 78.6979 189.379 81.1263 189.379 84.3164V86.7578ZM183.656 82.9688C183.656 81.4193 183.363 80.319 182.777 79.668C182.204 79.0039 181.339 78.6719 180.18 78.6719C179.19 78.6719 178.331 79.056 177.602 79.8242C176.885 80.5924 176.449 81.6406 176.293 82.9688H183.656ZM177.289 71.8359H173.246L177.836 65.4883H182.68L187.289 71.8359H183.246L180.16 68.1641L177.289 71.8359ZM180.082 102.656C179.21 102.656 178.487 102.396 177.914 101.875C177.354 101.354 177.074 100.723 177.074 99.9805C177.074 99.1992 177.361 98.5612 177.934 98.0664C178.507 97.5846 179.223 97.3438 180.082 97.3438C180.954 97.3438 181.664 97.5911 182.211 98.0859C182.771 98.5807 183.051 99.2122 183.051 99.9805C183.051 100.749 182.771 101.387 182.211 101.895C181.664 102.402 180.954 102.656 180.082 102.656ZM199.301 92.6758H199.223V104.199H193.051V75H199.223V78.0078H199.301C200.056 76.8359 200.967 75.9635 202.035 75.3906C203.116 74.8047 204.346 74.5117 205.727 74.5117C208.305 74.5117 210.303 75.4036 211.723 77.1875C213.142 78.9583 213.852 81.3737 213.852 84.4336C213.852 87.7669 213.025 90.4427 211.371 92.4609C209.717 94.4792 207.53 95.4883 204.809 95.4883C203.598 95.4883 202.536 95.2539 201.625 94.7852C200.714 94.3164 199.939 93.6133 199.301 92.6758ZM199.125 84.4727V86.0742C199.125 87.4544 199.49 88.5807 200.219 89.4531C200.948 90.3255 201.905 90.7617 203.09 90.7617C204.496 90.7617 205.583 90.2214 206.352 89.1406C207.133 88.0469 207.523 86.5039 207.523 84.5117C207.523 82.7539 207.178 81.4388 206.488 80.5664C205.811 79.681 204.789 79.2383 203.422 79.2383C202.159 79.2383 201.124 79.7201 200.316 80.6836C199.522 81.6341 199.125 82.8971 199.125 84.4727ZM62.1719 148L59.0273 145.051C57.4779 146.249 55.9414 147.115 54.418 147.648C52.8945 148.182 51.1562 148.449 49.2031 148.449C46.1432 148.449 43.6172 147.72 41.625 146.262C39.6328 144.803 38.6367 142.674 38.6367 139.875C38.6367 137.909 39.2031 136.32 40.3359 135.109C41.4818 133.885 43.0378 132.798 45.0039 131.848C43.9492 130.754 43.181 129.758 42.6992 128.859C42.2305 127.961 41.9961 126.991 41.9961 125.949C41.9961 123.879 42.7904 122.29 44.3789 121.184C45.9674 120.077 48.0052 119.523 50.4922 119.523C52.888 119.523 54.8346 120.09 56.332 121.223C57.8424 122.355 58.5977 123.82 58.5977 125.617C58.5977 126.984 58.2135 128.189 57.4453 129.23C56.6771 130.259 55.1276 131.32 52.7969 132.414L59.3789 138.391C60.3294 137.206 60.9674 136.014 61.293 134.816C61.6185 133.605 61.7812 132.271 61.7812 130.812H67.25C67.25 132.792 66.918 134.634 66.2539 136.34C65.6029 138.046 64.4701 139.777 62.8555 141.535L69.9844 148H62.1719ZM49.8281 129.719C50.9219 129.25 51.7422 128.755 52.2891 128.234C52.849 127.701 53.1289 126.971 53.1289 126.047C53.1289 125.279 52.862 124.686 52.3281 124.27C51.7943 123.853 51.1823 123.645 50.4922 123.645C49.6198 123.645 48.9102 123.892 48.3633 124.387C47.8164 124.868 47.543 125.454 47.543 126.145C47.543 126.73 47.7253 127.29 48.0898 127.824C48.4544 128.345 49.0339 128.977 49.8281 129.719ZM55.6094 141.848L48.0898 134.797C47.2174 135.292 46.4622 135.917 45.8242 136.672C45.1992 137.414 44.8867 138.397 44.8867 139.621C44.8867 140.884 45.3164 141.893 46.1758 142.648C47.0352 143.404 48.1484 143.781 49.5156 143.781C50.6745 143.781 51.7292 143.638 52.6797 143.352C53.6302 143.065 54.6068 142.564 55.6094 141.848ZM103.891 125.129H95.9023V148H89.5742V125.129H81.625V119.992H103.891V125.129ZM116.527 133.117C116.28 133.065 116.026 133.026 115.766 133C115.505 132.974 115.219 132.961 114.906 132.961C113.279 132.961 112.068 133.443 111.273 134.406C110.479 135.357 110.082 136.704 110.082 138.449V148H103.91V128H110.082V131.711H110.16C110.642 130.357 111.319 129.341 112.191 128.664C113.077 127.987 114.158 127.648 115.434 127.648C115.72 127.648 116 127.668 116.273 127.707C116.56 127.746 116.853 127.798 117.152 127.863L116.527 133.117ZM122.973 125.246C121.905 125.246 121.033 124.921 120.355 124.27C119.678 123.618 119.34 122.811 119.34 121.848C119.34 120.845 119.678 120.031 120.355 119.406C121.033 118.768 121.905 118.449 122.973 118.449C124.053 118.449 124.926 118.768 125.59 119.406C126.267 120.031 126.605 120.845 126.605 121.848C126.605 122.85 126.267 123.671 125.59 124.309C124.926 124.934 124.053 125.246 122.973 125.246ZM126.02 148H119.848V128H126.02V148ZM122.934 155.656C122.061 155.656 121.339 155.396 120.766 154.875C120.206 154.354 119.926 153.723 119.926 152.98C119.926 152.199 120.212 151.561 120.785 151.066C121.358 150.585 122.074 150.344 122.934 150.344C123.806 150.344 124.516 150.591 125.062 151.086C125.622 151.581 125.902 152.212 125.902 152.98C125.902 153.749 125.622 154.387 125.062 154.895C124.516 155.402 123.806 155.656 122.934 155.656ZM142.27 148V118.391H148.441V148H142.27ZM156.762 125.246C155.694 125.246 154.822 124.921 154.145 124.27C153.467 123.618 153.129 122.811 153.129 121.848C153.129 120.845 153.467 120.031 154.145 119.406C154.822 118.768 155.694 118.449 156.762 118.449C157.842 118.449 158.715 118.768 159.379 119.406C160.056 120.031 160.395 120.845 160.395 121.848C160.395 122.85 160.056 123.671 159.379 124.309C158.715 124.934 157.842 125.246 156.762 125.246ZM159.809 148H153.637V128H159.809V148ZM182.973 139.758H169.926C170.03 141.203 170.512 142.277 171.371 142.98C172.243 143.684 173.441 144.035 174.965 144.035C175.538 144.035 176.326 143.866 177.328 143.527C178.344 143.176 179.327 142.629 180.277 141.887L183.012 145.383C181.645 146.464 180.238 147.251 178.793 147.746C177.348 148.241 175.753 148.488 174.008 148.488C170.779 148.488 168.272 147.596 166.488 145.812C164.704 144.016 163.812 141.516 163.812 138.312C163.812 135.122 164.757 132.525 166.645 130.52C168.533 128.514 170.922 127.512 173.812 127.512C176.586 127.512 178.806 128.352 180.473 130.031C182.139 131.698 182.973 134.126 182.973 137.316V139.758ZM177.25 135.969C177.25 134.419 176.957 133.319 176.371 132.668C175.798 132.004 174.932 131.672 173.773 131.672C172.784 131.672 171.924 132.056 171.195 132.824C170.479 133.592 170.043 134.641 169.887 135.969H177.25ZM170.883 124.836H166.84L171.43 118.488H176.273L180.883 124.836H176.84L173.754 121.164L170.883 124.836ZM173.676 155.656C172.803 155.656 172.081 155.396 171.508 154.875C170.948 154.354 170.668 153.723 170.668 152.98C170.668 152.199 170.954 151.561 171.527 151.066C172.1 150.585 172.816 150.344 173.676 150.344C174.548 150.344 175.258 150.591 175.805 151.086C176.365 151.581 176.645 152.212 176.645 152.98C176.645 153.749 176.365 154.387 175.805 154.895C175.258 155.402 174.548 155.656 173.676 155.656ZM205.648 148H199.496V144.953H199.398C198.643 146.125 197.751 147.01 196.723 147.609C195.707 148.195 194.561 148.488 193.285 148.488C190.967 148.488 189.229 147.785 188.07 146.379C186.911 144.973 186.332 142.87 186.332 140.07V128H192.484V139.523C192.484 140.93 192.764 141.991 193.324 142.707C193.884 143.41 194.724 143.762 195.844 143.762C196.951 143.762 197.836 143.378 198.5 142.609C199.164 141.828 199.496 140.773 199.496 139.445V128H205.648V148Z" fill="#67AC2F"/>
</svg>
