<svg width="1017" height="490" viewBox="0 0 1017 490" fill="none" xmlns="http://www.w3.org/2000/svg">
<path d="M451 326L573.5 437H1016.5" stroke="#1D6495" stroke-width="3" stroke-dasharray="20 20"/>
<path d="M451 157L573.5 46H1016.5" stroke="#1D6495" stroke-width="3" stroke-dasharray="20 20"/>
<g filter="url(#filter0_d_2_781)">
<circle cx="245" cy="241" r="241" fill="#EA0001"/>
<path d="M106.377 260.291C104.538 261.105 102.756 261.691 101.03 262.049C99.305 262.423 97.4414 262.61 95.4395 262.61C89.987 262.61 85.6901 261.089 82.5488 258.045C79.4238 254.985 77.8613 250.615 77.8613 244.935C77.8613 239.612 79.5703 235.193 82.9883 231.678C86.4062 228.162 90.9147 226.404 96.5137 226.404C98.3854 226.404 100.054 226.535 101.519 226.795C103 227.055 104.538 227.479 106.133 228.064L103.813 234.437C102.609 233.997 101.453 233.68 100.347 233.484C99.2399 233.289 98.0436 233.191 96.7578 233.191C93.8932 233.191 91.4111 234.201 89.3115 236.219C87.2119 238.221 86.1621 240.939 86.1621 244.373C86.1621 247.921 87.0736 250.696 88.8965 252.698C90.7357 254.7 93.2503 255.701 96.4404 255.701C97.2705 255.701 98.3203 255.571 99.5898 255.311C100.876 255.034 102.202 254.586 103.569 253.968L106.377 260.291ZM140.239 262H130.4L120.195 247.083C120.098 246.937 119.967 246.701 119.805 246.375C119.658 246.049 119.479 245.643 119.268 245.154H119.146V262H111.26V226.99H119.146V243.226H119.268C119.365 242.998 119.495 242.721 119.658 242.396C119.821 242.07 120.016 241.696 120.244 241.272L129.912 226.99H139.067L127.031 243.494L140.239 262ZM167.852 260.291C166.012 261.105 164.23 261.691 162.505 262.049C160.78 262.423 158.916 262.61 156.914 262.61C151.462 262.61 147.165 261.089 144.023 258.045C140.898 254.985 139.336 250.615 139.336 244.935C139.336 239.612 141.045 235.193 144.463 231.678C147.881 228.162 152.389 226.404 157.988 226.404C159.86 226.404 161.528 226.535 162.993 226.795C164.474 227.055 166.012 227.479 167.607 228.064L165.288 234.437C164.084 233.997 162.928 233.68 161.821 233.484C160.715 233.289 159.518 233.191 158.232 233.191C155.368 233.191 152.886 234.201 150.786 236.219C148.687 238.221 147.637 240.939 147.637 244.373C147.637 247.921 148.548 250.696 150.371 252.698C152.21 254.7 154.725 255.701 157.915 255.701C158.745 255.701 159.795 255.571 161.064 255.311C162.35 255.034 163.677 254.586 165.044 253.968L167.852 260.291ZM192.778 262H185.479V258.411H185.381C184.551 259.811 183.509 260.861 182.256 261.561C181.019 262.26 179.611 262.61 178.032 262.61C175.868 262.61 174.004 261.951 172.441 260.633C170.895 259.298 170.122 257.435 170.122 255.042C170.122 252.731 170.887 250.843 172.417 249.378C173.963 247.913 176.372 246.961 179.644 246.521L185.527 245.74V245.252C185.527 244.064 185.145 243.169 184.38 242.566C183.615 241.948 182.557 241.639 181.206 241.639C180.181 241.639 179.033 241.81 177.764 242.151C176.51 242.493 175.233 243.038 173.931 243.787L171.318 239.222C173.027 238.229 174.72 237.513 176.396 237.073C178.089 236.618 179.928 236.39 181.914 236.39C185.641 236.39 188.384 237.277 190.142 239.051C191.899 240.825 192.778 243.494 192.778 247.059V262ZM185.527 251.844V250.159L180.986 250.745C179.733 250.908 178.789 251.29 178.154 251.893C177.536 252.479 177.227 253.227 177.227 254.139C177.227 255.018 177.528 255.742 178.13 256.312C178.748 256.865 179.578 257.142 180.62 257.142C182.069 257.142 183.249 256.645 184.16 255.652C185.072 254.643 185.527 253.374 185.527 251.844ZM214.653 243.396C214.344 243.331 214.027 243.283 213.701 243.25C213.376 243.217 213.018 243.201 212.627 243.201C210.592 243.201 209.079 243.803 208.086 245.008C207.093 246.196 206.597 247.881 206.597 250.062V262H198.882V237H206.597V241.639H206.694C207.297 239.946 208.143 238.676 209.233 237.83C210.34 236.984 211.691 236.561 213.286 236.561C213.644 236.561 213.994 236.585 214.336 236.634C214.694 236.683 215.06 236.748 215.435 236.829L214.653 243.396ZM241.265 251.697H224.956C225.086 253.504 225.688 254.847 226.763 255.726C227.853 256.604 229.351 257.044 231.255 257.044C231.971 257.044 232.956 256.832 234.209 256.409C235.479 255.97 236.707 255.286 237.896 254.358L241.313 258.729C239.604 260.079 237.847 261.064 236.04 261.683C234.233 262.301 232.24 262.61 230.059 262.61C226.022 262.61 222.889 261.495 220.659 259.266C218.429 257.02 217.314 253.895 217.314 249.891C217.314 245.903 218.494 242.656 220.854 240.149C223.215 237.643 226.201 236.39 229.814 236.39C233.281 236.39 236.056 237.439 238.14 239.539C240.223 241.622 241.265 244.658 241.265 248.646V251.697ZM234.111 246.961C234.111 245.024 233.745 243.649 233.013 242.835C232.297 242.005 231.214 241.59 229.766 241.59C228.529 241.59 227.454 242.07 226.543 243.03C225.648 243.991 225.103 245.301 224.907 246.961H234.111ZM257.573 259.681L260.845 253.553C262.603 254.594 264.124 255.302 265.41 255.677C266.712 256.035 268.079 256.214 269.512 256.214C271.4 256.214 272.791 255.856 273.687 255.14C274.582 254.407 275.029 253.414 275.029 252.161C275.029 250.957 274.671 250.037 273.955 249.402C273.239 248.751 271.921 248.206 270 247.767C266.094 246.871 263.254 245.602 261.479 243.958C259.705 242.314 258.818 240.019 258.818 237.073C258.818 234.111 259.966 231.596 262.261 229.529C264.556 227.446 267.77 226.404 271.904 226.404C273.63 226.404 275.322 226.6 276.982 226.99C278.643 227.381 280.221 227.951 281.719 228.699L278.765 234.925C277.414 234.16 276.144 233.615 274.956 233.289C273.768 232.964 272.661 232.801 271.636 232.801C270.057 232.801 268.828 233.11 267.949 233.729C267.07 234.347 266.631 235.234 266.631 236.39C266.631 237.448 267.03 238.261 267.827 238.831C268.641 239.401 270.09 239.922 272.173 240.394C275.965 241.256 278.708 242.542 280.4 244.251C282.093 245.96 282.939 248.369 282.939 251.478C282.939 254.798 281.768 257.483 279.424 259.534C277.096 261.585 273.711 262.61 269.268 262.61C267.331 262.61 265.304 262.358 263.188 261.854C261.073 261.333 259.201 260.608 257.573 259.681ZM307.793 260.438C306.475 261.186 305.164 261.731 303.862 262.073C302.576 262.431 301.169 262.61 299.639 262.61C295.407 262.61 292.111 261.447 289.751 259.119C287.391 256.792 286.211 253.789 286.211 250.11C286.211 245.862 287.464 242.518 289.971 240.076C292.493 237.618 295.83 236.39 299.98 236.39C301.559 236.39 302.935 236.544 304.106 236.854C305.278 237.146 306.466 237.627 307.671 238.294L304.814 243.47C304.066 243.063 303.333 242.77 302.617 242.591C301.917 242.396 301.144 242.298 300.298 242.298C298.345 242.298 296.815 242.933 295.708 244.202C294.601 245.472 294.048 247.27 294.048 249.598C294.048 251.827 294.666 253.569 295.903 254.822C297.14 256.076 298.638 256.702 300.396 256.702C300.868 256.702 301.51 256.596 302.324 256.385C303.154 256.157 303.993 255.799 304.839 255.311L307.793 260.438ZM335.723 262H328.032V247.791C328.032 245.952 327.699 244.576 327.031 243.665C326.364 242.754 325.363 242.298 324.028 242.298C322.661 242.298 321.554 242.811 320.708 243.836C319.862 244.861 319.438 246.163 319.438 247.742V262H311.724V224.988H319.438V240.711H319.536C320.48 239.262 321.595 238.18 322.881 237.464C324.167 236.748 325.615 236.39 327.227 236.39C330.059 236.39 332.183 237.244 333.599 238.953C335.015 240.662 335.723 243.226 335.723 246.644V262ZM353.765 262.61C349.598 262.61 346.318 261.438 343.926 259.095C341.533 256.751 340.345 253.585 340.361 249.598C340.378 245.464 341.615 242.233 344.072 239.905C346.546 237.562 349.891 236.39 354.106 236.39C358.257 236.39 361.512 237.553 363.872 239.881C366.232 242.208 367.412 245.301 367.412 249.158C367.412 253.292 366.191 256.572 363.75 258.997C361.325 261.406 357.996 262.61 353.765 262.61ZM354.009 256.702C355.864 256.702 357.248 256.084 358.159 254.847C359.087 253.61 359.551 251.762 359.551 249.305C359.551 246.977 359.087 245.228 358.159 244.056C357.231 242.884 355.832 242.298 353.96 242.298C352.137 242.298 350.721 242.933 349.712 244.202C348.703 245.455 348.198 247.221 348.198 249.5C348.198 251.909 348.678 253.715 349.639 254.92C350.615 256.108 352.072 256.702 354.009 256.702ZM384.331 262.61C380.164 262.61 376.885 261.438 374.492 259.095C372.1 256.751 370.911 253.585 370.928 249.598C370.944 245.464 372.181 242.233 374.639 239.905C377.113 237.562 380.457 236.39 384.673 236.39C388.823 236.39 392.078 237.553 394.438 239.881C396.799 242.208 397.979 245.301 397.979 249.158C397.979 253.292 396.758 256.572 394.316 258.997C391.891 261.406 388.563 262.61 384.331 262.61ZM384.575 256.702C386.431 256.702 387.814 256.084 388.726 254.847C389.653 253.61 390.117 251.762 390.117 249.305C390.117 246.977 389.653 245.228 388.726 244.056C387.798 242.884 386.398 242.298 384.526 242.298C382.703 242.298 381.287 242.933 380.278 244.202C379.269 245.455 378.765 247.221 378.765 249.5C378.765 251.909 379.245 253.715 380.205 254.92C381.182 256.108 382.638 256.702 384.575 256.702ZM402.983 262V224.988H410.698V262H402.983Z" fill="white"/>
</g>
<defs>
<filter id="filter0_d_2_781" x="0" y="0" width="490" height="490" filterUnits="userSpaceOnUse" color-interpolation-filters="sRGB">
<feFlood flood-opacity="0" result="BackgroundImageFix"/>
<feColorMatrix in="SourceAlpha" type="matrix" values="0 0 0 0 0 0 0 0 0 0 0 0 0 0 0 0 0 0 127 0" result="hardAlpha"/>
<feOffset dy="4"/>
<feGaussianBlur stdDeviation="2"/>
<feComposite in2="hardAlpha" operator="out"/>
<feColorMatrix type="matrix" values="0 0 0 0 0 0 0 0 0 0 0 0 0 0 0 0 0 0 0.25 0"/>
<feBlend mode="normal" in2="BackgroundImageFix" result="effect1_dropShadow_2_781"/>
<feBlend mode="normal" in="SourceGraphic" in2="effect1_dropShadow_2_781" result="shape"/>
</filter>
</defs>
</svg>
