<svg width="324" height="191" viewBox="0 0 324 191" fill="none" xmlns="http://www.w3.org/2000/svg">
<path d="M6.5625 7.10303V182.311H311.441" stroke="#01CC9B" stroke-width="2.52571" stroke-miterlimit="10" stroke-linecap="round"/>
<path d="M0.0209961 7.43122C0.0209961 3.81946 2.95081 0.889648 6.56257 0.889648C10.1743 0.889648 13.1042 3.81946 13.1042 7.43122C13.1042 11.043 10.1743 13.9728 6.56257 13.9728C2.95081 13.9728 0.0209961 11.043 0.0209961 7.43122Z" fill="#01CC9B"/>
<path d="M308.915 191L323.968 182.311L308.915 173.623V191Z" fill="#01CC9B"/>
<path d="M39.2031 95V83.5547H36V78.3594H39.2031V66.9922H49.125C54.099 66.9922 57.8294 68.1315 60.3164 70.4102C62.8034 72.6758 64.0469 76.0872 64.0469 80.6445C64.0469 85.0065 62.6862 88.4896 59.9648 91.0938C57.2565 93.6979 53.6432 95 49.125 95H39.2031ZM45.5117 72.1289V78.3594H50.8047V83.5547H45.5117V89.8828H48.6367C51.3711 89.8828 53.513 89.0625 55.0625 87.4219C56.625 85.7812 57.4062 83.5482 57.4062 80.7227C57.4062 78.0534 56.6315 75.957 55.082 74.4336C53.5456 72.8971 51.3841 72.1289 48.5977 72.1289H45.5117ZM84.7305 95H78.8906V92.1289H78.8125C78.1484 93.2487 77.3151 94.0885 76.3125 94.6484C75.3229 95.2083 74.1966 95.4883 72.9336 95.4883C71.2018 95.4883 69.7109 94.9609 68.4609 93.9062C67.224 92.8385 66.6055 91.3477 66.6055 89.4336C66.6055 87.5846 67.2174 86.0742 68.4414 84.9023C69.6784 83.7305 71.6055 82.9688 74.2227 82.6172L78.9297 81.9922V81.6016C78.9297 80.651 78.6237 79.9349 78.0117 79.4531C77.3997 78.9583 76.5534 78.7109 75.4727 78.7109C74.6523 78.7109 73.7344 78.8477 72.7188 79.1211C71.7161 79.3945 70.694 79.8307 69.6523 80.4297L67.5625 76.7773C68.9297 75.9831 70.2839 75.4102 71.625 75.0586C72.9792 74.694 74.4505 74.5117 76.0391 74.5117C79.0208 74.5117 81.2148 75.2214 82.6211 76.6406C84.0273 78.0599 84.7305 80.1953 84.7305 83.0469V95ZM78.9297 86.875V85.5273L75.2969 85.9961C74.2943 86.1263 73.5391 86.4323 73.0312 86.9141C72.5365 87.3828 72.2891 87.9818 72.2891 88.7109C72.2891 89.4141 72.5299 89.9935 73.0117 90.4492C73.5065 90.8919 74.1706 91.1133 75.0039 91.1133C76.1628 91.1133 77.1068 90.7161 77.8359 89.9219C78.5651 89.1146 78.9297 88.099 78.9297 86.875ZM76.293 71.8359H71.8398L76.918 65.5273H82.4062L76.293 71.8359ZM108.93 95H102.777V83.8867C102.777 82.3372 102.497 81.1784 101.938 80.4102C101.391 79.6289 100.564 79.2383 99.457 79.2383C98.3893 79.2383 97.5104 79.6484 96.8203 80.4688C96.1302 81.2891 95.7852 82.3307 95.7852 83.5938V95H89.6133V75H95.7852V78.1641H95.8633C96.6055 76.9401 97.5104 76.0286 98.5781 75.4297C99.6458 74.8177 100.883 74.5117 102.289 74.5117C104.503 74.5117 106.163 75.2018 107.27 76.582C108.376 77.9492 108.93 80.0065 108.93 82.7539V95ZM133.031 95H126.879V83.6328C126.879 82.1615 126.612 81.0612 126.078 80.332C125.544 79.6029 124.743 79.2383 123.676 79.2383C122.582 79.2383 121.697 79.6484 121.02 80.4688C120.342 81.2891 120.004 82.3307 120.004 83.5938V95H113.832V65.3906H120.004V77.9688H120.082C120.837 76.8099 121.729 75.944 122.758 75.3711C123.786 74.7982 124.945 74.5117 126.234 74.5117C128.5 74.5117 130.199 75.1953 131.332 76.5625C132.465 77.9297 133.031 79.9805 133.031 82.7148V95ZM168.598 92.7148C168.598 96.0091 167.556 98.776 165.473 101.016C163.402 103.268 160.362 104.395 156.352 104.395C154.945 104.395 153.637 104.271 152.426 104.023C151.228 103.776 149.984 103.379 148.695 102.832L150.473 98.6523C151.462 99.069 152.419 99.3685 153.344 99.5508C154.268 99.7461 155.316 99.8438 156.488 99.8438C158.415 99.8438 159.887 99.2773 160.902 98.1445C161.918 97.0247 162.426 95.5469 162.426 93.7109V92.1289H162.348C161.645 93.2487 160.772 94.0885 159.73 94.6484C158.689 95.2083 157.484 95.4883 156.117 95.4883C153.552 95.4883 151.521 94.5898 150.023 92.793C148.539 90.9831 147.797 88.5807 147.797 85.5859C147.797 82.1875 148.63 79.4922 150.297 77.5C151.964 75.5078 154.158 74.5117 156.879 74.5117C158.09 74.5117 159.151 74.7461 160.062 75.2148C160.987 75.6836 161.749 76.3867 162.348 77.3242H162.426V75H168.598V92.7148ZM162.504 85.3906V83.8086C162.504 82.5456 162.126 81.4714 161.371 80.5859C160.629 79.6875 159.659 79.2383 158.461 79.2383C157.094 79.2383 156.02 79.7721 155.238 80.8398C154.457 81.9076 154.066 83.4115 154.066 85.3516C154.066 87.0182 154.438 88.3398 155.18 89.3164C155.922 90.2799 156.938 90.7617 158.227 90.7617C159.516 90.7617 160.551 90.2734 161.332 89.2969C162.113 88.3073 162.504 87.0052 162.504 85.3906ZM176.879 72.2461C175.811 72.2461 174.939 71.9206 174.262 71.2695C173.585 70.6185 173.246 69.8112 173.246 68.8477C173.246 67.8451 173.585 67.0312 174.262 66.4062C174.939 65.7682 175.811 65.4492 176.879 65.4492C177.96 65.4492 178.832 65.7682 179.496 66.4062C180.173 67.0312 180.512 67.8451 180.512 68.8477C180.512 69.8503 180.173 70.6706 179.496 71.3086C178.832 71.9336 177.96 72.2461 176.879 72.2461ZM179.926 95H173.754V75H179.926V95ZM201.762 95H195.922V92.1289H195.844C195.18 93.2487 194.346 94.0885 193.344 94.6484C192.354 95.2083 191.228 95.4883 189.965 95.4883C188.233 95.4883 186.742 94.9609 185.492 93.9062C184.255 92.8385 183.637 91.3477 183.637 89.4336C183.637 87.5846 184.249 86.0742 185.473 84.9023C186.71 83.7305 188.637 82.9688 191.254 82.6172L195.961 81.9922V81.6016C195.961 80.651 195.655 79.9349 195.043 79.4531C194.431 78.9583 193.585 78.7109 192.504 78.7109C191.684 78.7109 190.766 78.8477 189.75 79.1211C188.747 79.3945 187.725 79.8307 186.684 80.4297L184.594 76.7773C185.961 75.9831 187.315 75.4102 188.656 75.0586C190.01 74.694 191.482 74.5117 193.07 74.5117C196.052 74.5117 198.246 75.2214 199.652 76.6406C201.059 78.0599 201.762 80.1953 201.762 83.0469V95ZM195.961 86.875V85.5273L192.328 85.9961C191.326 86.1263 190.57 86.4323 190.062 86.9141C189.568 87.3828 189.32 87.9818 189.32 88.7109C189.32 89.4141 189.561 89.9935 190.043 90.4492C190.538 90.8919 191.202 91.1133 192.035 91.1133C193.194 91.1133 194.138 90.7161 194.867 89.9219C195.596 89.1146 195.961 88.099 195.961 86.875ZM193.324 71.8359H188.871L193.949 65.5273H199.438L193.324 71.8359ZM54.6719 146.75C53.6172 147.349 52.569 147.785 51.5273 148.059C50.4987 148.345 49.3724 148.488 48.1484 148.488C44.763 148.488 42.1263 147.557 40.2383 145.695C38.3503 143.833 37.4062 141.431 37.4062 138.488C37.4062 135.09 38.4089 132.414 40.4141 130.461C42.4323 128.495 45.1016 127.512 48.4219 127.512C49.6849 127.512 50.7852 127.635 51.7227 127.883C52.6602 128.117 53.6107 128.501 54.5742 129.035L52.2891 133.176C51.6901 132.85 51.1042 132.616 50.5312 132.473C49.9714 132.316 49.3529 132.238 48.6758 132.238C47.1133 132.238 45.8893 132.746 45.0039 133.762C44.1185 134.777 43.6758 136.216 43.6758 138.078C43.6758 139.862 44.1706 141.255 45.1602 142.258C46.1497 143.26 47.3477 143.762 48.7539 143.762C49.1315 143.762 49.6458 143.677 50.2969 143.508C50.9609 143.326 51.6315 143.039 52.3086 142.648L54.6719 146.75ZM77.0156 148H70.8633V136.633C70.8633 135.161 70.5964 134.061 70.0625 133.332C69.5286 132.603 68.7279 132.238 67.6602 132.238C66.5664 132.238 65.681 132.648 65.0039 133.469C64.3268 134.289 63.9883 135.331 63.9883 136.594V148H57.8164V118.391H63.9883V130.969H64.0664C64.8216 129.81 65.7135 128.944 66.7422 128.371C67.7708 127.798 68.9297 127.512 70.2188 127.512C72.4844 127.512 74.1836 128.195 75.3164 129.562C76.4492 130.93 77.0156 132.98 77.0156 135.715V148ZM100.922 148H94.7695V144.953H94.6719C93.9167 146.125 93.0247 147.01 91.9961 147.609C90.9805 148.195 89.8346 148.488 88.5586 148.488C86.2409 148.488 84.5026 147.785 83.3438 146.379C82.1849 144.973 81.6055 142.87 81.6055 140.07V128H87.7578V139.523C87.7578 140.93 88.0378 141.991 88.5977 142.707C89.1576 143.41 89.9974 143.762 91.1172 143.762C92.224 143.762 93.1094 143.378 93.7734 142.609C94.4375 141.828 94.7695 140.773 94.7695 139.445V128H100.922V148ZM125.18 128L116.234 151.711C115.557 153.495 114.535 154.888 113.168 155.891C111.801 156.893 110.154 157.395 108.227 157.395C107.602 157.395 107.003 157.362 106.43 157.297C105.857 157.232 105.297 157.134 104.75 157.004L105.766 152.473C106.065 152.577 106.358 152.648 106.645 152.688C106.931 152.74 107.25 152.766 107.602 152.766C108.214 152.766 108.747 152.616 109.203 152.316C109.672 152.017 110.049 151.542 110.336 150.891L111.586 147.961L103.461 128H110.297L114.027 140.168C114.145 140.546 114.249 140.956 114.34 141.398C114.431 141.841 114.509 142.323 114.574 142.844H114.652C114.717 142.453 114.802 142.043 114.906 141.613C115.01 141.184 115.141 140.715 115.297 140.207L119.066 128H125.18ZM145.629 139.758H132.582C132.686 141.203 133.168 142.277 134.027 142.98C134.9 143.684 136.098 144.035 137.621 144.035C138.194 144.035 138.982 143.866 139.984 143.527C141 143.176 141.983 142.629 142.934 141.887L145.668 145.383C144.301 146.464 142.895 147.251 141.449 147.746C140.004 148.241 138.409 148.488 136.664 148.488C133.435 148.488 130.928 147.596 129.145 145.812C127.361 144.016 126.469 141.516 126.469 138.312C126.469 135.122 127.413 132.525 129.301 130.52C131.189 128.514 133.578 127.512 136.469 127.512C139.242 127.512 141.462 128.352 143.129 130.031C144.796 131.698 145.629 134.126 145.629 137.316V139.758ZM139.906 135.969C139.906 134.419 139.613 133.319 139.027 132.668C138.454 132.004 137.589 131.672 136.43 131.672C135.44 131.672 134.581 132.056 133.852 132.824C133.135 133.592 132.699 134.641 132.543 135.969H139.906ZM133.539 124.836H129.496L134.086 118.488H138.93L143.539 124.836H139.496L136.41 121.164L133.539 124.836ZM168.617 148H162.465V136.887C162.465 135.337 162.185 134.178 161.625 133.41C161.078 132.629 160.251 132.238 159.145 132.238C158.077 132.238 157.198 132.648 156.508 133.469C155.818 134.289 155.473 135.331 155.473 136.594V148H149.301V128H155.473V131.164H155.551C156.293 129.94 157.198 129.029 158.266 128.43C159.333 127.818 160.57 127.512 161.977 127.512C164.19 127.512 165.85 128.202 166.957 129.582C168.064 130.949 168.617 133.007 168.617 135.754V148ZM182.562 146.262L185.082 142.16C185.759 142.681 186.56 143.13 187.484 143.508C188.409 143.885 189.438 144.074 190.57 144.074C191.365 144.074 192.016 143.931 192.523 143.645C193.031 143.345 193.285 142.909 193.285 142.336C193.285 141.88 193.096 141.522 192.719 141.262C192.354 140.988 191.618 140.734 190.512 140.5C188.025 139.979 186.221 139.243 185.102 138.293C183.982 137.342 183.422 135.982 183.422 134.211C183.422 132.18 184.229 130.559 185.844 129.348C187.471 128.124 189.457 127.512 191.801 127.512C193.025 127.512 194.19 127.674 195.297 128C196.404 128.312 197.426 128.781 198.363 129.406L196.039 133.371C195.245 132.863 194.49 132.492 193.773 132.258C193.057 132.01 192.322 131.887 191.566 131.887C190.772 131.887 190.128 132.036 189.633 132.336C189.151 132.635 188.91 133.02 188.91 133.488C188.91 134.035 189.151 134.432 189.633 134.68C190.115 134.914 191.013 135.161 192.328 135.422C194.646 135.891 196.299 136.626 197.289 137.629C198.279 138.618 198.773 139.96 198.773 141.652C198.773 143.697 197.999 145.35 196.449 146.613C194.913 147.863 192.868 148.488 190.316 148.488C188.923 148.488 187.589 148.312 186.312 147.961C185.049 147.596 183.799 147.03 182.562 146.262ZM218.832 148H212.992V145.129H212.914C212.25 146.249 211.417 147.089 210.414 147.648C209.424 148.208 208.298 148.488 207.035 148.488C205.303 148.488 203.812 147.961 202.562 146.906C201.326 145.839 200.707 144.348 200.707 142.434C200.707 140.585 201.319 139.074 202.543 137.902C203.78 136.73 205.707 135.969 208.324 135.617L213.031 134.992V134.602C213.031 133.651 212.725 132.935 212.113 132.453C211.501 131.958 210.655 131.711 209.574 131.711C208.754 131.711 207.836 131.848 206.82 132.121C205.818 132.395 204.796 132.831 203.754 133.43L201.664 129.777C203.031 128.983 204.385 128.41 205.727 128.059C207.081 127.694 208.552 127.512 210.141 127.512C213.122 127.512 215.316 128.221 216.723 129.641C218.129 131.06 218.832 133.195 218.832 136.047V148ZM213.031 139.875V138.527L209.398 138.996C208.396 139.126 207.641 139.432 207.133 139.914C206.638 140.383 206.391 140.982 206.391 141.711C206.391 142.414 206.632 142.993 207.113 143.449C207.608 143.892 208.272 144.113 209.105 144.113C210.264 144.113 211.208 143.716 211.938 142.922C212.667 142.115 213.031 141.099 213.031 139.875ZM207.484 124.836H203.441L208.031 118.488H212.875L217.484 124.836H213.441L210.355 121.164L207.484 124.836ZM242.719 148H236.566V144.953H236.469C235.714 146.125 234.822 147.01 233.793 147.609C232.777 148.195 231.632 148.488 230.355 148.488C228.038 148.488 226.299 147.785 225.141 146.379C223.982 144.973 223.402 142.87 223.402 140.07V128H229.555V139.523C229.555 140.93 229.835 141.991 230.395 142.707C230.954 143.41 231.794 143.762 232.914 143.762C234.021 143.762 234.906 143.378 235.57 142.609C236.234 141.828 236.566 140.773 236.566 139.445V128H242.719V148Z" fill="#01CC9B"/>
</svg>
