<svg viewBox="0 0 1646 284" fill="none" xmlns="http://www.w3.org/2000/svg">
    <!--
    css sang loc va theo doi-->
    <style> 
    
    .motion__once:hover g path{
        fill: #fff;
    }

    .motion__once:hover path{
        fill:#E65925;
    }

    .motion__twice:hover g path{
        fill: #fff;
    }

    .motion__twice:hover path{
        fill: #01CC9B;
    }

    .motion__three:hover g path{
        fill: #fff;
    }

    .motion__three:hover path{
        fill: #67AC2F;
    }

    .motion__four:hover g path{
        fill: #fff;
    }

    .motion__four:hover path{
        fill:#1d6495;
    }

    </style>

    <path d="M0.454346 283.783L50.2613 142.04L0.454346 0.272217H1520.27L1645.65 142.04L1520.27 283.783H0.454346Z" fill="white"/>
    <path d="M1512.32 271.103H1514.57L1516.06 269.416L1625.8 145.353L1628.73 142.04L1625.8 138.728L1516.06 14.6398L1514.57 12.9521H1512.32H1132.73H1127.73V17.9521V266.103V271.103H1132.73H1512.32Z" fill="#1D6495" stroke="white" stroke-width="10"/>
    <path d="M1143.21 271.103H1145.46L1146.96 269.416L1256.7 145.353L1259.63 142.04L1256.7 138.728L1146.96 14.6398L1145.46 12.9521H1143.21H763.622H758.622V17.9521V266.103V271.103H763.622H1143.21Z" fill="#67AC2F" stroke="white" stroke-width="10"/>
    <path d="M774.104 271.103H776.357L777.85 269.415L887.566 145.352L890.495 142.04L887.567 138.728L777.85 14.6402L776.357 12.9521H774.104H394.516H389.516V17.9521V266.103V271.103H394.516H774.104Z" fill="#01CC9B" stroke="white" stroke-width="10"/>
    <path d="M408.185 271.103H410.438L411.93 269.416L521.672 145.353L524.602 142.04L521.672 138.728L411.93 14.6398L410.438 12.9521H408.185H28.6216H21.5654L23.9042 19.6094L66.9157 142.04L23.9043 264.445L21.565 271.103H28.6216H408.185Z" fill="#E65925" stroke="white" stroke-width="10"/>
    <path d="M1350.06 131.612H1343.73V120.205H1332.13V131.612H1325.82V103.604H1332.13V114.776H1343.73V103.604H1350.06V131.612ZM1365.41 132.1C1362.08 132.1 1359.46 131.162 1357.54 129.287C1355.63 127.412 1354.68 124.88 1354.69 121.69C1354.7 118.382 1355.69 115.798 1357.66 113.936C1359.64 112.061 1362.32 111.123 1365.69 111.123C1369.01 111.123 1371.61 112.054 1373.5 113.916C1375.39 115.778 1376.33 118.252 1376.33 121.338C1376.33 124.645 1375.36 127.269 1373.4 129.209C1371.46 131.136 1368.8 132.1 1365.41 132.1ZM1365.61 127.373C1367.09 127.373 1368.2 126.878 1368.93 125.889C1369.67 124.899 1370.04 123.421 1370.04 121.455C1370.04 119.593 1369.67 118.194 1368.93 117.256C1368.19 116.319 1367.07 115.85 1365.57 115.85C1364.11 115.85 1362.98 116.358 1362.17 117.373C1361.37 118.376 1360.96 119.789 1360.96 121.612C1360.96 123.539 1361.35 124.984 1362.11 125.948C1362.9 126.898 1364.06 127.373 1365.61 127.373ZM1361.49 102.412H1358.68C1358.68 100.902 1359.02 99.7756 1359.71 99.0334C1360.41 98.2782 1361.46 97.9006 1362.84 97.9006C1363.31 97.9006 1363.79 97.9592 1364.28 98.0764C1364.78 98.1806 1365.28 98.3499 1365.81 98.5842C1366.35 98.8186 1366.82 98.9944 1367.21 99.1116C1367.62 99.2288 1367.95 99.2874 1368.21 99.2874C1368.7 99.2874 1369.07 99.1637 1369.3 98.9163C1369.55 98.6689 1369.67 98.3043 1369.67 97.8225H1372.48C1372.48 99.3069 1372.15 100.427 1371.47 101.182C1370.79 101.924 1369.77 102.295 1368.4 102.295C1368.03 102.295 1367.59 102.237 1367.09 102.119C1366.61 102.002 1366.07 101.833 1365.47 101.612C1364.85 101.364 1364.33 101.182 1363.91 101.065C1363.49 100.948 1363.17 100.889 1362.95 100.889C1362.47 100.889 1362.11 101.019 1361.86 101.28C1361.61 101.527 1361.49 101.905 1361.49 102.412ZM1362.76 108.448H1358.83L1363.29 103.584H1367.95L1372.41 108.448H1368.48L1365.51 105.772L1362.76 108.448ZM1403.89 131.299C1403.27 131.559 1402.56 131.755 1401.78 131.885C1401.01 132.028 1400.23 132.1 1399.44 132.1C1397.25 132.1 1395.6 131.573 1394.5 130.518C1393.39 129.463 1392.84 127.888 1392.84 125.791V116.162H1389.59V111.612H1392.84V106.768L1398.99 105.01V111.612H1403.48V116.162H1398.99V125.401C1398.99 126.169 1399.14 126.729 1399.44 127.08C1399.74 127.419 1400.22 127.588 1400.88 127.588C1401.21 127.588 1401.52 127.549 1401.82 127.471C1402.12 127.38 1402.41 127.269 1402.68 127.139L1403.89 131.299ZM1419.59 116.729C1419.35 116.677 1419.09 116.638 1418.83 116.612C1418.57 116.586 1418.29 116.573 1417.97 116.573C1416.35 116.573 1415.13 117.054 1414.34 118.018C1413.55 118.968 1413.15 120.316 1413.15 122.061V131.612H1406.98V111.612H1413.15V115.323H1413.23C1413.71 113.968 1414.39 112.953 1415.26 112.276C1416.14 111.599 1417.22 111.26 1418.5 111.26C1418.79 111.26 1419.07 111.28 1419.34 111.319C1419.63 111.358 1419.92 111.41 1420.22 111.475L1419.59 116.729ZM1440.69 114.092C1441.59 115.017 1442.26 116.084 1442.7 117.295C1443.14 118.493 1443.36 119.841 1443.36 121.338C1443.36 124.658 1442.39 127.282 1440.43 129.209C1438.49 131.136 1435.83 132.1 1432.45 132.1C1429.11 132.1 1426.49 131.169 1424.57 129.307C1422.67 127.432 1421.72 124.893 1421.72 121.69C1421.72 118.382 1422.71 115.798 1424.69 113.936C1426.67 112.061 1429.35 111.123 1432.72 111.123C1433.16 111.123 1433.63 111.149 1434.13 111.201C1434.63 111.24 1435.16 111.312 1435.71 111.416C1436.09 111.481 1436.45 111.533 1436.8 111.573C1437.17 111.599 1437.52 111.612 1437.86 111.612C1439.01 111.612 1439.88 111.384 1440.45 110.928C1441.03 110.459 1441.31 109.769 1441.31 108.858C1441.31 108.532 1441.28 108.187 1441.22 107.823C1441.16 107.458 1441.08 107.08 1440.96 106.69H1444.71C1444.87 107.132 1444.98 107.569 1445.04 107.998C1445.12 108.428 1445.16 108.845 1445.16 109.248C1445.16 110.72 1444.79 111.859 1444.05 112.666C1443.31 113.474 1442.19 113.949 1440.69 114.092ZM1432.6 115.85C1431.14 115.85 1430.01 116.351 1429.2 117.354C1428.4 118.356 1427.99 119.776 1427.99 121.612C1427.99 123.526 1428.38 124.964 1429.15 125.928C1429.93 126.892 1431.09 127.373 1432.64 127.373C1434.13 127.373 1435.23 126.878 1435.96 125.889C1436.7 124.899 1437.07 123.421 1437.07 121.455C1437.07 119.58 1436.7 118.181 1435.96 117.256C1435.22 116.319 1434.1 115.85 1432.6 115.85ZM1432.47 139.268C1431.59 139.268 1430.87 139.007 1430.3 138.487C1429.74 137.966 1429.46 137.334 1429.46 136.592C1429.46 135.811 1429.74 135.173 1430.32 134.678C1430.89 134.196 1431.61 133.955 1432.47 133.955C1433.34 133.955 1434.05 134.203 1434.59 134.698C1435.15 135.192 1435.43 135.824 1435.43 136.592C1435.43 137.36 1435.15 137.998 1434.59 138.506C1434.05 139.014 1433.34 139.268 1432.47 139.268ZM1482.74 131.612L1479.59 128.662C1478.04 129.86 1476.51 130.726 1474.98 131.26C1473.46 131.794 1471.72 132.061 1469.77 132.061C1466.71 132.061 1464.18 131.332 1462.19 129.873C1460.2 128.415 1459.2 126.286 1459.2 123.487C1459.2 121.52 1459.77 119.932 1460.9 118.721C1462.05 117.497 1463.6 116.41 1465.57 115.459C1464.52 114.365 1463.75 113.369 1463.27 112.471C1462.8 111.573 1462.56 110.602 1462.56 109.561C1462.56 107.49 1463.36 105.902 1464.95 104.795C1466.53 103.688 1468.57 103.135 1471.06 103.135C1473.45 103.135 1475.4 103.701 1476.9 104.834C1478.41 105.967 1479.16 107.432 1479.16 109.229C1479.16 110.596 1478.78 111.8 1478.01 112.842C1477.24 113.871 1475.69 114.932 1473.36 116.026L1479.95 122.002C1480.9 120.817 1481.53 119.626 1481.86 118.428C1482.19 117.217 1482.35 115.882 1482.35 114.424H1487.82C1487.82 116.403 1487.48 118.246 1486.82 119.951C1486.17 121.657 1485.04 123.389 1483.42 125.147L1490.55 131.612H1482.74ZM1470.4 113.33C1471.49 112.862 1472.31 112.367 1472.86 111.846C1473.42 111.312 1473.7 110.583 1473.7 109.658C1473.7 108.89 1473.43 108.298 1472.9 107.881C1472.36 107.464 1471.75 107.256 1471.06 107.256C1470.19 107.256 1469.48 107.503 1468.93 107.998C1468.38 108.48 1468.11 109.066 1468.11 109.756C1468.11 110.342 1468.29 110.902 1468.66 111.436C1469.02 111.957 1469.6 112.588 1470.4 113.33ZM1476.18 125.459L1468.66 118.408C1467.78 118.903 1467.03 119.528 1466.39 120.283C1465.77 121.026 1465.45 122.009 1465.45 123.233C1465.45 124.496 1465.88 125.505 1466.74 126.26C1467.6 127.015 1468.72 127.393 1470.08 127.393C1471.24 127.393 1472.3 127.25 1473.25 126.963C1474.2 126.677 1475.17 126.175 1476.18 125.459ZM1325.82 184.612V173.166H1322.62V167.971H1325.82V156.604H1335.75C1340.72 156.604 1344.45 157.743 1346.94 160.022C1349.42 162.287 1350.67 165.699 1350.67 170.256C1350.67 174.618 1349.31 178.101 1346.59 180.705C1343.88 183.309 1340.26 184.612 1335.75 184.612H1325.82ZM1332.13 161.74V167.971H1337.43V173.166H1332.13V179.494H1335.26C1337.99 179.494 1340.13 178.674 1341.68 177.033C1343.25 175.393 1344.03 173.16 1344.03 170.334C1344.03 167.665 1343.25 165.569 1341.7 164.045C1340.17 162.509 1338.01 161.74 1335.22 161.74H1332.13ZM1364.24 185.1C1360.91 185.1 1358.29 184.162 1356.37 182.287C1354.46 180.412 1353.51 177.88 1353.52 174.69C1353.53 171.382 1354.52 168.798 1356.49 166.936C1358.47 165.061 1361.14 164.123 1364.52 164.123C1367.84 164.123 1370.44 165.054 1372.33 166.916C1374.22 168.778 1375.16 171.252 1375.16 174.338C1375.16 177.645 1374.18 180.269 1372.23 182.209C1370.29 184.136 1367.63 185.1 1364.24 185.1ZM1364.44 180.373C1365.92 180.373 1367.03 179.878 1367.76 178.889C1368.5 177.899 1368.87 176.421 1368.87 174.455C1368.87 172.593 1368.5 171.194 1367.76 170.256C1367.02 169.319 1365.9 168.85 1364.4 168.85C1362.94 168.85 1361.81 169.358 1361 170.373C1360.19 171.376 1359.79 172.789 1359.79 174.612C1359.79 176.539 1360.17 177.984 1360.94 178.948C1361.72 179.898 1362.89 180.373 1364.44 180.373ZM1357.45 161.448L1361.9 156.565H1366.57L1371.02 161.448H1367.09L1364.34 158.752L1361.37 161.448H1357.45ZM1355.41 158.479L1350.26 153.674H1355.73L1359.26 158.479H1355.41ZM1398.48 184.612H1392.33V173.498C1392.33 171.949 1392.05 170.79 1391.49 170.022C1390.94 169.24 1390.12 168.85 1389.01 168.85C1387.94 168.85 1387.06 169.26 1386.37 170.08C1385.68 170.901 1385.34 171.942 1385.34 173.205V184.612H1379.16V164.612H1385.34V167.776H1385.41C1386.16 166.552 1387.06 165.64 1388.13 165.041C1389.2 164.429 1390.43 164.123 1391.84 164.123C1394.05 164.123 1395.71 164.813 1396.82 166.194C1397.93 167.561 1398.48 169.618 1398.48 172.365V184.612ZM1422.99 182.326C1422.99 185.621 1421.95 188.388 1419.87 190.627C1417.8 192.88 1414.76 194.006 1410.75 194.006C1409.34 194.006 1408.03 193.882 1406.82 193.635C1405.62 193.388 1404.38 192.99 1403.09 192.444L1404.87 188.264C1405.86 188.681 1406.81 188.98 1407.74 189.162C1408.66 189.358 1409.71 189.455 1410.88 189.455C1412.81 189.455 1414.28 188.889 1415.3 187.756C1416.31 186.636 1416.82 185.158 1416.82 183.323V181.74H1416.74C1416.04 182.86 1415.17 183.7 1414.13 184.26C1413.08 184.82 1411.88 185.1 1410.51 185.1C1407.95 185.1 1405.92 184.201 1404.42 182.405C1402.93 180.595 1402.19 178.192 1402.19 175.198C1402.19 171.799 1403.03 169.104 1404.69 167.112C1406.36 165.119 1408.55 164.123 1411.27 164.123C1412.48 164.123 1413.55 164.358 1414.46 164.826C1415.38 165.295 1416.14 165.998 1416.74 166.936H1416.82V164.612H1422.99V182.326ZM1416.9 175.002V173.42C1416.9 172.157 1416.52 171.083 1415.77 170.198C1415.02 169.299 1414.05 168.85 1412.86 168.85C1411.49 168.85 1410.41 169.384 1409.63 170.451C1408.85 171.519 1408.46 173.023 1408.46 174.963C1408.46 176.63 1408.83 177.951 1409.57 178.928C1410.32 179.892 1411.33 180.373 1412.62 180.373C1413.91 180.373 1414.95 179.885 1415.73 178.908C1416.51 177.919 1416.9 176.617 1416.9 175.002ZM1458.4 184.612H1452.25V173.244C1452.25 171.773 1451.98 170.673 1451.45 169.944C1450.92 169.214 1450.12 168.85 1449.05 168.85C1447.95 168.85 1447.07 169.26 1446.39 170.08C1445.71 170.901 1445.38 171.942 1445.38 173.205V184.612H1439.2V155.002H1445.38V167.58H1445.45C1446.21 166.421 1447.1 165.556 1448.13 164.983C1449.16 164.41 1450.32 164.123 1451.61 164.123C1453.87 164.123 1455.57 164.807 1456.7 166.174C1457.84 167.541 1458.4 169.592 1458.4 172.326V184.612ZM1479.95 184.612H1474.11V181.74H1474.03C1473.36 182.86 1472.53 183.7 1471.53 184.26C1470.54 184.82 1469.41 185.1 1468.15 185.1C1466.42 185.1 1464.93 184.573 1463.68 183.518C1462.44 182.45 1461.82 180.959 1461.82 179.045C1461.82 177.196 1462.43 175.686 1463.66 174.514C1464.89 173.342 1466.82 172.58 1469.44 172.229L1474.15 171.604V171.213C1474.15 170.263 1473.84 169.546 1473.23 169.065C1472.62 168.57 1471.77 168.323 1470.69 168.323C1469.87 168.323 1468.95 168.459 1467.93 168.733C1466.93 169.006 1465.91 169.442 1464.87 170.041L1462.78 166.389C1464.15 165.595 1465.5 165.022 1466.84 164.67C1468.19 164.306 1469.67 164.123 1471.25 164.123C1474.24 164.123 1476.43 164.833 1477.84 166.252C1479.24 167.671 1479.95 169.807 1479.95 172.658V184.612ZM1474.15 176.487V175.139L1470.51 175.608C1469.51 175.738 1468.75 176.044 1468.25 176.526C1467.75 176.994 1467.5 177.593 1467.5 178.323C1467.5 179.026 1467.75 179.605 1468.23 180.061C1468.72 180.503 1469.39 180.725 1470.22 180.725C1471.38 180.725 1472.32 180.328 1473.05 179.533C1473.78 178.726 1474.15 177.711 1474.15 176.487ZM1475.9 161.448H1471.47L1465.34 155.139H1470.82L1475.9 161.448ZM1504.15 184.612H1497.99V173.498C1497.99 171.949 1497.71 170.79 1497.15 170.022C1496.61 169.24 1495.78 168.85 1494.67 168.85C1493.6 168.85 1492.73 169.26 1492.04 170.08C1491.35 170.901 1491 171.942 1491 173.205V184.612H1484.83V164.612H1491V167.776H1491.08C1491.82 166.552 1492.73 165.64 1493.79 165.041C1494.86 164.429 1496.1 164.123 1497.5 164.123C1499.72 164.123 1501.38 164.813 1502.48 166.194C1503.59 167.561 1504.15 169.618 1504.15 172.365V184.612ZM1528.25 184.612H1522.09V173.244C1522.09 171.773 1521.83 170.673 1521.29 169.944C1520.76 169.214 1519.96 168.85 1518.89 168.85C1517.8 168.85 1516.91 169.26 1516.23 170.08C1515.56 170.901 1515.22 171.942 1515.22 173.205V184.612H1509.05V155.002H1515.22V167.58H1515.3C1516.05 166.421 1516.94 165.556 1517.97 164.983C1519 164.41 1520.16 164.123 1521.45 164.123C1523.72 164.123 1525.41 164.807 1526.55 166.174C1527.68 167.541 1528.25 169.592 1528.25 172.326V184.612Z" fill="white"/>
    <path d="M977.879 130.244C976.408 130.895 974.982 131.364 973.602 131.651C972.222 131.95 970.731 132.1 969.129 132.1C964.767 132.1 961.33 130.882 958.817 128.448C956.317 126 955.067 122.503 955.067 117.959C955.067 113.701 956.434 110.166 959.168 107.354C961.903 104.541 965.51 103.135 969.989 103.135C971.486 103.135 972.821 103.239 973.993 103.448C975.178 103.656 976.408 103.994 977.684 104.463L975.829 109.561C974.865 109.209 973.941 108.955 973.055 108.799C972.17 108.643 971.213 108.565 970.184 108.565C967.892 108.565 965.907 109.372 964.227 110.987C962.547 112.588 961.708 114.763 961.708 117.51C961.708 120.349 962.437 122.569 963.895 124.17C965.366 125.772 967.378 126.573 969.93 126.573C970.594 126.573 971.434 126.468 972.45 126.26C973.478 126.039 974.54 125.681 975.633 125.186L977.879 130.244ZM997.821 131.612H991.981V128.74H991.903C991.239 129.86 990.405 130.7 989.403 131.26C988.413 131.82 987.287 132.1 986.024 132.1C984.292 132.1 982.801 131.573 981.551 130.518C980.314 129.45 979.696 127.959 979.696 126.045C979.696 124.196 980.308 122.686 981.532 121.514C982.769 120.342 984.696 119.58 987.313 119.229L992.02 118.604V118.213C992.02 117.263 991.714 116.546 991.102 116.065C990.49 115.57 989.644 115.323 988.563 115.323C987.743 115.323 986.825 115.459 985.809 115.733C984.806 116.006 983.784 116.442 982.743 117.041L980.653 113.389C982.02 112.595 983.374 112.022 984.715 111.67C986.069 111.306 987.541 111.123 989.129 111.123C992.111 111.123 994.305 111.833 995.711 113.252C997.118 114.671 997.821 116.807 997.821 119.658V131.612ZM992.02 123.487V122.139L988.387 122.608C987.385 122.738 986.629 123.044 986.122 123.526C985.627 123.994 985.379 124.593 985.379 125.323C985.379 126.026 985.62 126.605 986.102 127.061C986.597 127.503 987.261 127.725 988.094 127.725C989.253 127.725 990.197 127.328 990.926 126.533C991.655 125.726 992.02 124.711 992.02 123.487ZM1022.02 131.612H1015.87V120.498C1015.87 118.949 1015.59 117.79 1015.03 117.022C1014.48 116.24 1013.65 115.85 1012.55 115.85C1011.48 115.85 1010.6 116.26 1009.91 117.08C1009.22 117.901 1008.88 118.942 1008.88 120.205V131.612H1002.7V111.612H1008.88V114.776H1008.95C1009.7 113.552 1010.6 112.64 1011.67 112.041C1012.74 111.429 1013.97 111.123 1015.38 111.123C1017.59 111.123 1019.25 111.813 1020.36 113.194C1021.47 114.561 1022.02 116.618 1022.02 119.365V131.612ZM1050.48 131.299C1049.85 131.559 1049.15 131.755 1048.37 131.885C1047.6 132.028 1046.82 132.1 1046.02 132.1C1043.84 132.1 1042.19 131.573 1041.08 130.518C1039.98 129.463 1039.42 127.888 1039.42 125.791V116.162H1036.18V111.612H1039.42V106.768L1045.57 105.01V111.612H1050.07V116.162H1045.57V125.401C1045.57 126.169 1045.72 126.729 1046.02 127.08C1046.32 127.419 1046.81 127.588 1047.47 127.588C1047.79 127.588 1048.11 127.549 1048.41 127.471C1048.71 127.38 1048.99 127.269 1049.27 127.139L1050.48 131.299ZM1072.76 131.612H1066.61V120.244C1066.61 118.773 1066.34 117.673 1065.81 116.944C1065.28 116.214 1064.47 115.85 1063.41 115.85C1062.31 115.85 1061.43 116.26 1060.75 117.08C1060.07 117.901 1059.73 118.942 1059.73 120.205V131.612H1053.56V102.002H1059.73V114.58H1059.81C1060.57 113.421 1061.46 112.556 1062.49 111.983C1063.52 111.41 1064.68 111.123 1065.97 111.123C1068.23 111.123 1069.93 111.807 1071.06 113.174C1072.2 114.541 1072.76 116.592 1072.76 119.326V131.612ZM1080.79 108.858C1079.72 108.858 1078.85 108.532 1078.17 107.881C1077.5 107.23 1077.16 106.423 1077.16 105.459C1077.16 104.457 1077.5 103.643 1078.17 103.018C1078.85 102.38 1079.72 102.061 1080.79 102.061C1081.87 102.061 1082.74 102.38 1083.41 103.018C1084.08 103.643 1084.42 104.457 1084.42 105.459C1084.42 106.462 1084.08 107.282 1083.41 107.92C1082.74 108.545 1081.87 108.858 1080.79 108.858ZM1083.84 131.612H1077.66V111.612H1083.84V131.612ZM1107 123.369H1093.95C1094.06 124.815 1094.54 125.889 1095.4 126.592C1096.27 127.295 1097.47 127.647 1098.99 127.647C1099.57 127.647 1100.35 127.477 1101.36 127.139C1102.37 126.787 1103.35 126.24 1104.31 125.498L1107.04 128.994C1105.67 130.075 1104.27 130.863 1102.82 131.358C1101.38 131.852 1099.78 132.1 1098.04 132.1C1094.81 132.1 1092.3 131.208 1090.52 129.424C1088.73 127.627 1087.84 125.127 1087.84 121.924C1087.84 118.734 1088.78 116.136 1090.67 114.131C1092.56 112.126 1094.95 111.123 1097.84 111.123C1100.61 111.123 1102.83 111.963 1104.5 113.643C1106.17 115.309 1107 117.738 1107 120.928V123.369ZM1101.28 119.58C1101.28 118.031 1100.98 116.931 1100.4 116.28C1099.83 115.615 1098.96 115.283 1097.8 115.283C1096.81 115.283 1095.95 115.668 1095.22 116.436C1094.51 117.204 1094.07 118.252 1093.91 119.58H1101.28ZM1094.91 108.448H1090.87L1095.46 102.1H1100.3L1104.91 108.448H1100.87L1097.78 104.776L1094.91 108.448ZM1097.7 139.268C1096.83 139.268 1096.11 139.007 1095.54 138.487C1094.98 137.966 1094.7 137.334 1094.7 136.592C1094.7 135.811 1094.98 135.173 1095.56 134.678C1096.13 134.196 1096.84 133.955 1097.7 133.955C1098.58 133.955 1099.29 134.203 1099.83 134.698C1100.39 135.192 1100.67 135.824 1100.67 136.592C1100.67 137.36 1100.39 137.998 1099.83 138.506C1099.29 139.014 1098.58 139.268 1097.7 139.268ZM1116.92 129.287H1116.84V140.811H1110.67V111.612H1116.84V114.619H1116.92C1117.68 113.448 1118.59 112.575 1119.66 112.002C1120.74 111.416 1121.97 111.123 1123.35 111.123C1125.93 111.123 1127.92 112.015 1129.34 113.799C1130.76 115.57 1131.47 117.985 1131.47 121.045C1131.47 124.378 1130.65 127.054 1128.99 129.073C1127.34 131.091 1125.15 132.1 1122.43 132.1C1121.22 132.1 1120.16 131.865 1119.25 131.397C1118.34 130.928 1117.56 130.225 1116.92 129.287ZM1116.75 121.084V122.686C1116.75 124.066 1117.11 125.192 1117.84 126.065C1118.57 126.937 1119.53 127.373 1120.71 127.373C1122.12 127.373 1123.2 126.833 1123.97 125.752C1124.75 124.658 1125.15 123.115 1125.15 121.123C1125.15 119.365 1124.8 118.05 1124.11 117.178C1123.43 116.293 1122.41 115.85 1121.04 115.85C1119.78 115.85 1118.75 116.332 1117.94 117.295C1117.14 118.246 1116.75 119.509 1116.75 121.084ZM979.793 184.612L976.649 181.662C975.099 182.86 973.563 183.726 972.04 184.26C970.516 184.794 968.778 185.061 966.825 185.061C963.765 185.061 961.239 184.332 959.247 182.873C957.254 181.415 956.258 179.286 956.258 176.487C956.258 174.52 956.825 172.932 957.958 171.721C959.103 170.497 960.659 169.41 962.625 168.459C961.571 167.365 960.803 166.369 960.321 165.471C959.852 164.573 959.618 163.602 959.618 162.561C959.618 160.49 960.412 158.902 962 157.795C963.589 156.688 965.627 156.135 968.114 156.135C970.51 156.135 972.456 156.701 973.954 157.834C975.464 158.967 976.219 160.432 976.219 162.229C976.219 163.596 975.835 164.8 975.067 165.842C974.299 166.871 972.749 167.932 970.418 169.026L977 175.002C977.951 173.817 978.589 172.626 978.915 171.428C979.24 170.217 979.403 168.882 979.403 167.424H984.872C984.872 169.403 984.54 171.246 983.875 172.951C983.224 174.657 982.092 176.389 980.477 178.147L987.606 184.612H979.793ZM967.45 166.33C968.543 165.862 969.364 165.367 969.911 164.846C970.471 164.312 970.75 163.583 970.75 162.658C970.75 161.89 970.484 161.298 969.95 160.881C969.416 160.464 968.804 160.256 968.114 160.256C967.241 160.256 966.532 160.503 965.985 160.998C965.438 161.48 965.165 162.066 965.165 162.756C965.165 163.342 965.347 163.902 965.711 164.436C966.076 164.957 966.655 165.588 967.45 166.33ZM973.231 178.459L965.711 171.408C964.839 171.903 964.084 172.528 963.446 173.283C962.821 174.026 962.508 175.009 962.508 176.233C962.508 177.496 962.938 178.505 963.797 179.26C964.657 180.015 965.77 180.393 967.137 180.393C968.296 180.393 969.351 180.25 970.301 179.963C971.252 179.677 972.228 179.175 973.231 178.459ZM1021.51 161.74H1013.52V184.612H1007.2V161.74H999.247V156.604H1021.51V161.74ZM1034.15 169.729C1033.9 169.677 1033.65 169.638 1033.39 169.612C1033.13 169.586 1032.84 169.573 1032.53 169.573C1030.9 169.573 1029.69 170.054 1028.9 171.018C1028.1 171.968 1027.7 173.316 1027.7 175.061V184.612H1021.53V164.612H1027.7V168.323H1027.78C1028.26 166.968 1028.94 165.953 1029.81 165.276C1030.7 164.599 1031.78 164.26 1033.06 164.26C1033.34 164.26 1033.62 164.28 1033.9 164.319C1034.18 164.358 1034.47 164.41 1034.77 164.475L1034.15 169.729ZM1040.59 161.858C1039.53 161.858 1038.65 161.532 1037.98 160.881C1037.3 160.23 1036.96 159.423 1036.96 158.459C1036.96 157.457 1037.3 156.643 1037.98 156.018C1038.65 155.38 1039.53 155.061 1040.59 155.061C1041.67 155.061 1042.55 155.38 1043.21 156.018C1043.89 156.643 1044.23 157.457 1044.23 158.459C1044.23 159.462 1043.89 160.282 1043.21 160.92C1042.55 161.545 1041.67 161.858 1040.59 161.858ZM1043.64 184.612H1037.47V164.612H1043.64V184.612ZM1040.56 192.268C1039.68 192.268 1038.96 192.007 1038.39 191.487C1037.83 190.966 1037.55 190.334 1037.55 189.592C1037.55 188.811 1037.83 188.173 1038.41 187.678C1038.98 187.196 1039.7 186.955 1040.56 186.955C1041.43 186.955 1042.14 187.203 1042.68 187.698C1043.24 188.192 1043.52 188.824 1043.52 189.592C1043.52 190.36 1043.24 190.998 1042.68 191.506C1042.14 192.014 1041.43 192.268 1040.56 192.268ZM1059.89 184.612V155.002H1066.06V184.612H1059.89ZM1074.38 161.858C1073.32 161.858 1072.44 161.532 1071.77 160.881C1071.09 160.23 1070.75 159.423 1070.75 158.459C1070.75 157.457 1071.09 156.643 1071.77 156.018C1072.44 155.38 1073.32 155.061 1074.38 155.061C1075.46 155.061 1076.34 155.38 1077 156.018C1077.68 156.643 1078.02 157.457 1078.02 158.459C1078.02 159.462 1077.68 160.282 1077 160.92C1076.34 161.545 1075.46 161.858 1074.38 161.858ZM1077.43 184.612H1071.26V164.612H1077.43V184.612ZM1100.59 176.369H1087.55C1087.65 177.815 1088.13 178.889 1088.99 179.592C1089.87 180.295 1091.06 180.647 1092.59 180.647C1093.16 180.647 1093.95 180.477 1094.95 180.139C1095.97 179.787 1096.95 179.24 1097.9 178.498L1100.63 181.994C1099.27 183.075 1097.86 183.863 1096.41 184.358C1094.97 184.852 1093.37 185.1 1091.63 185.1C1088.4 185.1 1085.89 184.208 1084.11 182.424C1082.33 180.627 1081.43 178.127 1081.43 174.924C1081.43 171.734 1082.38 169.136 1084.27 167.131C1086.15 165.126 1088.54 164.123 1091.43 164.123C1094.21 164.123 1096.43 164.963 1098.09 166.643C1099.76 168.309 1100.59 170.738 1100.59 173.928V176.369ZM1094.87 172.58C1094.87 171.031 1094.58 169.931 1093.99 169.28C1093.42 168.615 1092.55 168.283 1091.4 168.283C1090.41 168.283 1089.55 168.668 1088.82 169.436C1088.1 170.204 1087.66 171.252 1087.51 172.58H1094.87ZM1088.5 161.448H1084.46L1089.05 155.1H1093.9L1098.5 161.448H1094.46L1091.38 157.776L1088.5 161.448ZM1091.3 192.268C1090.42 192.268 1089.7 192.007 1089.13 191.487C1088.57 190.966 1088.29 190.334 1088.29 189.592C1088.29 188.811 1088.58 188.173 1089.15 187.678C1089.72 187.196 1090.44 186.955 1091.3 186.955C1092.17 186.955 1092.88 187.203 1093.43 187.698C1093.99 188.192 1094.27 188.824 1094.27 189.592C1094.27 190.36 1093.99 190.998 1093.43 191.506C1092.88 192.014 1092.17 192.268 1091.3 192.268ZM1123.27 184.612H1117.12V181.565H1117.02C1116.26 182.737 1115.37 183.622 1114.34 184.221C1113.33 184.807 1112.18 185.1 1110.91 185.1C1108.59 185.1 1106.85 184.397 1105.69 182.99C1104.53 181.584 1103.95 179.481 1103.95 176.682V164.612H1110.11V176.135C1110.11 177.541 1110.39 178.602 1110.95 179.319C1111.51 180.022 1112.35 180.373 1113.47 180.373C1114.57 180.373 1115.46 179.989 1116.12 179.221C1116.79 178.44 1117.12 177.385 1117.12 176.057V164.612H1123.27V184.612Z" fill="white"/>
    <path d="M557.825 131.612V120.166H554.622V114.971H557.825V103.604H567.747C572.721 103.604 576.451 104.743 578.938 107.022C581.425 109.287 582.668 112.699 582.668 117.256C582.668 121.618 581.308 125.101 578.586 127.705C575.878 130.309 572.265 131.612 567.747 131.612H557.825ZM564.133 108.74V114.971H569.426V120.166H564.133V126.494H567.258C569.993 126.494 572.135 125.674 573.684 124.033C575.247 122.393 576.028 120.16 576.028 117.334C576.028 114.665 575.253 112.569 573.704 111.045C572.167 109.509 570.006 108.74 567.219 108.74H564.133ZM603.352 131.612H597.512V128.74H597.434C596.77 129.86 595.937 130.7 594.934 131.26C593.944 131.82 592.818 132.1 591.555 132.1C589.823 132.1 588.333 131.573 587.083 130.518C585.846 129.45 585.227 127.959 585.227 126.045C585.227 124.196 585.839 122.686 587.063 121.514C588.3 120.342 590.227 119.58 592.844 119.229L597.551 118.604V118.213C597.551 117.263 597.245 116.546 596.633 116.065C596.021 115.57 595.175 115.323 594.094 115.323C593.274 115.323 592.356 115.459 591.34 115.733C590.338 116.006 589.316 116.442 588.274 117.041L586.184 113.389C587.551 112.595 588.905 112.022 590.247 111.67C591.601 111.306 593.072 111.123 594.661 111.123C597.642 111.123 599.836 111.833 601.243 113.252C602.649 114.671 603.352 116.807 603.352 119.658V131.612ZM597.551 123.487V122.139L593.918 122.608C592.916 122.738 592.161 123.044 591.653 123.526C591.158 123.994 590.911 124.593 590.911 125.323C590.911 126.026 591.152 126.605 591.633 127.061C592.128 127.503 592.792 127.725 593.625 127.725C594.784 127.725 595.728 127.328 596.458 126.533C597.187 125.726 597.551 124.711 597.551 123.487ZM594.915 108.448H590.461L595.54 102.139H601.028L594.915 108.448ZM627.551 131.612H621.399V120.498C621.399 118.949 621.119 117.79 620.559 117.022C620.012 116.24 619.185 115.85 618.079 115.85C617.011 115.85 616.132 116.26 615.442 117.08C614.752 117.901 614.407 118.942 614.407 120.205V131.612H608.235V111.612H614.407V114.776H614.485C615.227 113.552 616.132 112.64 617.2 112.041C618.267 111.429 619.504 111.123 620.911 111.123C623.124 111.123 624.784 111.813 625.891 113.194C626.998 114.561 627.551 116.618 627.551 119.365V131.612ZM651.653 131.612H645.5V120.244C645.5 118.773 645.234 117.673 644.7 116.944C644.166 116.214 643.365 115.85 642.297 115.85C641.204 115.85 640.318 116.26 639.641 117.08C638.964 117.901 638.625 118.942 638.625 120.205V131.612H632.454V102.002H638.625V114.58H638.704C639.459 113.421 640.351 112.556 641.379 111.983C642.408 111.41 643.567 111.123 644.856 111.123C647.122 111.123 648.821 111.807 649.954 113.174C651.086 114.541 651.653 116.592 651.653 119.326V131.612ZM687.219 129.326C687.219 132.621 686.178 135.388 684.094 137.627C682.024 139.88 678.984 141.006 674.973 141.006C673.567 141.006 672.258 140.882 671.047 140.635C669.849 140.388 668.606 139.99 667.317 139.444L669.094 135.264C670.084 135.681 671.041 135.98 671.965 136.162C672.89 136.358 673.938 136.455 675.11 136.455C677.037 136.455 678.508 135.889 679.524 134.756C680.54 133.636 681.047 132.158 681.047 130.323V128.74H680.969C680.266 129.86 679.394 130.7 678.352 131.26C677.31 131.82 676.106 132.1 674.739 132.1C672.174 132.1 670.142 131.201 668.645 129.405C667.161 127.595 666.418 125.192 666.418 122.198C666.418 118.799 667.252 116.104 668.918 114.112C670.585 112.119 672.779 111.123 675.5 111.123C676.711 111.123 677.773 111.358 678.684 111.826C679.609 112.295 680.37 112.998 680.969 113.936H681.047V111.612H687.219V129.326ZM681.125 122.002V120.42C681.125 119.157 680.748 118.083 679.993 117.198C679.25 116.299 678.28 115.85 677.083 115.85C675.715 115.85 674.641 116.384 673.86 117.451C673.079 118.519 672.688 120.023 672.688 121.963C672.688 123.63 673.059 124.951 673.801 125.928C674.543 126.892 675.559 127.373 676.848 127.373C678.137 127.373 679.172 126.885 679.954 125.908C680.735 124.919 681.125 123.617 681.125 122.002ZM695.5 108.858C694.433 108.858 693.56 108.532 692.883 107.881C692.206 107.23 691.868 106.423 691.868 105.459C691.868 104.457 692.206 103.643 692.883 103.018C693.56 102.38 694.433 102.061 695.5 102.061C696.581 102.061 697.454 102.38 698.118 103.018C698.795 103.643 699.133 104.457 699.133 105.459C699.133 106.462 698.795 107.282 698.118 107.92C697.454 108.545 696.581 108.858 695.5 108.858ZM698.547 131.612H692.375V111.612H698.547V131.612ZM720.383 131.612H714.543V128.74H714.465C713.801 129.86 712.968 130.7 711.965 131.26C710.976 131.82 709.849 132.1 708.586 132.1C706.855 132.1 705.364 131.573 704.114 130.518C702.877 129.45 702.258 127.959 702.258 126.045C702.258 124.196 702.87 122.686 704.094 121.514C705.331 120.342 707.258 119.58 709.875 119.229L714.583 118.604V118.213C714.583 117.263 714.277 116.546 713.665 116.065C713.053 115.57 712.206 115.323 711.125 115.323C710.305 115.323 709.387 115.459 708.372 115.733C707.369 116.006 706.347 116.442 705.305 117.041L703.215 113.389C704.583 112.595 705.937 112.022 707.278 111.67C708.632 111.306 710.103 111.123 711.692 111.123C714.674 111.123 716.868 111.833 718.274 113.252C719.68 114.671 720.383 116.807 720.383 119.658V131.612ZM714.583 123.487V122.139L710.95 122.608C709.947 122.738 709.192 123.044 708.684 123.526C708.189 123.994 707.942 124.593 707.942 125.323C707.942 126.026 708.183 126.605 708.665 127.061C709.159 127.503 709.823 127.725 710.657 127.725C711.816 127.725 712.76 127.328 713.489 126.533C714.218 125.726 714.583 124.711 714.583 123.487ZM711.946 108.448H707.493L712.571 102.139H718.059L711.946 108.448ZM573.293 183.362C572.239 183.961 571.191 184.397 570.149 184.67C569.12 184.957 567.994 185.1 566.77 185.1C563.385 185.1 560.748 184.169 558.86 182.307C556.972 180.445 556.028 178.043 556.028 175.1C556.028 171.701 557.03 169.026 559.036 167.073C561.054 165.106 563.723 164.123 567.043 164.123C568.306 164.123 569.407 164.247 570.344 164.494C571.282 164.729 572.232 165.113 573.196 165.647L570.911 169.787C570.312 169.462 569.726 169.227 569.153 169.084C568.593 168.928 567.974 168.85 567.297 168.85C565.735 168.85 564.511 169.358 563.625 170.373C562.74 171.389 562.297 172.828 562.297 174.69C562.297 176.474 562.792 177.867 563.782 178.869C564.771 179.872 565.969 180.373 567.375 180.373C567.753 180.373 568.267 180.289 568.918 180.119C569.583 179.937 570.253 179.651 570.93 179.26L573.293 183.362ZM595.637 184.612H589.485V173.244C589.485 171.773 589.218 170.673 588.684 169.944C588.15 169.214 587.349 168.85 586.282 168.85C585.188 168.85 584.303 169.26 583.625 170.08C582.948 170.901 582.61 171.942 582.61 173.205V184.612H576.438V155.002H582.61V167.58H582.688C583.443 166.421 584.335 165.556 585.364 164.983C586.392 164.41 587.551 164.123 588.84 164.123C591.106 164.123 592.805 164.807 593.938 166.174C595.071 167.541 595.637 169.592 595.637 172.326V184.612ZM619.543 184.612H613.391V181.565H613.293C612.538 182.737 611.646 183.622 610.618 184.221C609.602 184.807 608.456 185.1 607.18 185.1C604.862 185.1 603.124 184.397 601.965 182.99C600.806 181.584 600.227 179.481 600.227 176.682V164.612H606.379V176.135C606.379 177.541 606.659 178.602 607.219 179.319C607.779 180.022 608.619 180.373 609.739 180.373C610.846 180.373 611.731 179.989 612.395 179.221C613.059 178.44 613.391 177.385 613.391 176.057V164.612H619.543V184.612ZM643.801 164.612L634.856 188.323C634.179 190.106 633.157 191.5 631.79 192.502C630.422 193.505 628.775 194.006 626.848 194.006C626.223 194.006 625.624 193.974 625.051 193.908C624.478 193.843 623.918 193.746 623.372 193.615L624.387 189.084C624.687 189.188 624.98 189.26 625.266 189.299C625.553 189.351 625.872 189.377 626.223 189.377C626.835 189.377 627.369 189.227 627.825 188.928C628.293 188.628 628.671 188.153 628.958 187.502L630.208 184.573L622.083 164.612H628.918L632.649 176.78C632.766 177.157 632.87 177.567 632.961 178.01C633.053 178.453 633.131 178.934 633.196 179.455H633.274C633.339 179.065 633.424 178.655 633.528 178.225C633.632 177.795 633.762 177.326 633.918 176.819L637.688 164.612H643.801ZM664.25 176.369H651.204C651.308 177.815 651.79 178.889 652.649 179.592C653.521 180.295 654.719 180.647 656.243 180.647C656.816 180.647 657.603 180.477 658.606 180.139C659.622 179.787 660.605 179.24 661.555 178.498L664.29 181.994C662.922 183.075 661.516 183.863 660.071 184.358C658.625 184.852 657.03 185.1 655.286 185.1C652.056 185.1 649.55 184.208 647.766 182.424C645.982 180.627 645.09 178.127 645.09 174.924C645.09 171.734 646.034 169.136 647.922 167.131C649.81 165.126 652.2 164.123 655.09 164.123C657.864 164.123 660.084 164.963 661.75 166.643C663.417 168.309 664.25 170.738 664.25 173.928V176.369ZM658.528 172.58C658.528 171.031 658.235 169.931 657.649 169.28C657.076 168.615 656.21 168.283 655.051 168.283C654.062 168.283 653.202 168.668 652.473 169.436C651.757 170.204 651.321 171.252 651.165 172.58H658.528ZM652.161 161.448H648.118L652.708 155.1H657.551L662.161 161.448H658.118L655.032 157.776L652.161 161.448ZM687.239 184.612H681.086V173.498C681.086 171.949 680.806 170.79 680.247 170.022C679.7 169.24 678.873 168.85 677.766 168.85C676.698 168.85 675.819 169.26 675.129 170.08C674.439 170.901 674.094 171.942 674.094 173.205V184.612H667.922V164.612H674.094V167.776H674.172C674.915 166.552 675.819 165.64 676.887 165.041C677.955 164.429 679.192 164.123 680.598 164.123C682.812 164.123 684.472 164.813 685.579 166.194C686.685 167.561 687.239 169.618 687.239 172.365V184.612ZM701.184 182.873L703.704 178.772C704.381 179.293 705.181 179.742 706.106 180.119C707.03 180.497 708.059 180.686 709.192 180.686C709.986 180.686 710.637 180.543 711.145 180.256C711.653 179.957 711.907 179.52 711.907 178.948C711.907 178.492 711.718 178.134 711.34 177.873C710.976 177.6 710.24 177.346 709.133 177.112C706.646 176.591 704.843 175.855 703.723 174.905C702.603 173.954 702.043 172.593 702.043 170.823C702.043 168.791 702.851 167.17 704.465 165.959C706.093 164.735 708.079 164.123 710.422 164.123C711.646 164.123 712.812 164.286 713.918 164.612C715.025 164.924 716.047 165.393 716.985 166.018L714.661 169.983C713.866 169.475 713.111 169.104 712.395 168.869C711.679 168.622 710.943 168.498 710.188 168.498C709.394 168.498 708.749 168.648 708.254 168.948C707.773 169.247 707.532 169.631 707.532 170.1C707.532 170.647 707.773 171.044 708.254 171.291C708.736 171.526 709.635 171.773 710.95 172.033C713.267 172.502 714.921 173.238 715.911 174.24C716.9 175.23 717.395 176.571 717.395 178.264C717.395 180.308 716.62 181.962 715.071 183.225C713.534 184.475 711.49 185.1 708.938 185.1C707.545 185.1 706.21 184.924 704.934 184.573C703.671 184.208 702.421 183.642 701.184 182.873ZM737.454 184.612H731.614V181.74H731.536C730.872 182.86 730.038 183.7 729.036 184.26C728.046 184.82 726.92 185.1 725.657 185.1C723.925 185.1 722.434 184.573 721.184 183.518C719.947 182.45 719.329 180.959 719.329 179.045C719.329 177.196 719.941 175.686 721.165 174.514C722.402 173.342 724.329 172.58 726.946 172.229L731.653 171.604V171.213C731.653 170.263 731.347 169.546 730.735 169.065C730.123 168.57 729.277 168.323 728.196 168.323C727.375 168.323 726.458 168.459 725.442 168.733C724.439 169.006 723.417 169.442 722.375 170.041L720.286 166.389C721.653 165.595 723.007 165.022 724.348 164.67C725.702 164.306 727.174 164.123 728.762 164.123C731.744 164.123 733.938 164.833 735.344 166.252C736.75 167.671 737.454 169.807 737.454 172.658V184.612ZM731.653 176.487V175.139L728.02 175.608C727.017 175.738 726.262 176.044 725.754 176.526C725.26 176.994 725.012 177.593 725.012 178.323C725.012 179.026 725.253 179.605 725.735 180.061C726.23 180.503 726.894 180.725 727.727 180.725C728.886 180.725 729.83 180.328 730.559 179.533C731.288 178.726 731.653 177.711 731.653 176.487ZM726.106 161.448H722.063L726.653 155.1H731.497L736.106 161.448H732.063L728.977 157.776L726.106 161.448ZM761.34 184.612H755.188V181.565H755.09C754.335 182.737 753.443 183.622 752.415 184.221C751.399 184.807 750.253 185.1 748.977 185.1C746.659 185.1 744.921 184.397 743.762 182.99C742.603 181.584 742.024 179.481 742.024 176.682V164.612H748.176V176.135C748.176 177.541 748.456 178.602 749.016 179.319C749.576 180.022 750.416 180.373 751.536 180.373C752.642 180.373 753.528 179.989 754.192 179.221C754.856 178.44 755.188 177.385 755.188 176.057V164.612H761.34V184.612Z" fill="white"/>
    <path d="M160.753 129.756L163.37 124.854C164.776 125.687 165.994 126.253 167.022 126.553C168.064 126.839 169.158 126.983 170.304 126.983C171.814 126.983 172.927 126.696 173.644 126.123C174.36 125.537 174.718 124.743 174.718 123.74C174.718 122.777 174.431 122.041 173.858 121.533C173.285 121.013 172.231 120.576 170.694 120.225C167.569 119.509 165.297 118.493 163.878 117.178C162.459 115.863 161.749 114.027 161.749 111.67C161.749 109.3 162.667 107.289 164.503 105.635C166.339 103.968 168.91 103.135 172.218 103.135C173.598 103.135 174.952 103.291 176.28 103.604C177.608 103.916 178.871 104.372 180.069 104.971L177.706 109.951C176.625 109.339 175.61 108.903 174.659 108.643C173.709 108.382 172.823 108.252 172.003 108.252C170.74 108.252 169.757 108.5 169.054 108.994C168.351 109.489 167.999 110.199 167.999 111.123C167.999 111.97 168.318 112.621 168.956 113.076C169.607 113.532 170.766 113.949 172.433 114.326C175.466 115.017 177.66 116.045 179.015 117.412C180.369 118.78 181.046 120.707 181.046 123.194C181.046 125.85 180.108 127.998 178.233 129.639C176.371 131.28 173.663 132.1 170.108 132.1C168.559 132.1 166.938 131.898 165.245 131.494C163.552 131.078 162.055 130.498 160.753 129.756ZM201.495 131.612H195.655V128.74H195.577C194.913 129.86 194.08 130.7 193.077 131.26C192.088 131.82 190.961 132.1 189.698 132.1C187.966 132.1 186.476 131.573 185.226 130.518C183.989 129.45 183.37 127.959 183.37 126.045C183.37 124.196 183.982 122.686 185.206 121.514C186.443 120.342 188.37 119.58 190.987 119.229L195.694 118.604V118.213C195.694 117.263 195.388 116.546 194.776 116.065C194.164 115.57 193.318 115.323 192.237 115.323C191.417 115.323 190.499 115.459 189.483 115.733C188.481 116.006 187.459 116.442 186.417 117.041L184.327 113.389C185.694 112.595 187.049 112.022 188.39 111.67C189.744 111.306 191.215 111.123 192.804 111.123C195.785 111.123 197.979 111.833 199.386 113.252C200.792 114.671 201.495 116.807 201.495 119.658V131.612ZM195.694 123.487V122.139L192.062 122.608C191.059 122.738 190.304 123.044 189.796 123.526C189.301 123.994 189.054 124.593 189.054 125.323C189.054 126.026 189.295 126.605 189.776 127.061C190.271 127.503 190.935 127.725 191.769 127.725C192.927 127.725 193.871 127.328 194.601 126.533C195.33 125.726 195.694 124.711 195.694 123.487ZM197.452 108.448H193.019L186.886 102.139H192.374L197.452 108.448ZM225.694 131.612H219.542V120.498C219.542 118.949 219.262 117.79 218.702 117.022C218.155 116.24 217.328 115.85 216.222 115.85C215.154 115.85 214.275 116.26 213.585 117.08C212.895 117.901 212.55 118.942 212.55 120.205V131.612H206.378V111.612H212.55V114.776H212.628C213.37 113.552 214.275 112.64 215.343 112.041C216.41 111.429 217.647 111.123 219.054 111.123C221.267 111.123 222.927 111.813 224.034 113.194C225.141 114.561 225.694 116.618 225.694 119.365V131.612ZM250.206 129.326C250.206 132.621 249.164 135.388 247.081 137.627C245.011 139.88 241.97 141.006 237.96 141.006C236.554 141.006 235.245 140.882 234.034 140.635C232.836 140.388 231.593 139.99 230.304 139.444L232.081 135.264C233.071 135.681 234.028 135.98 234.952 136.162C235.877 136.358 236.925 136.455 238.097 136.455C240.024 136.455 241.495 135.889 242.511 134.756C243.526 133.636 244.034 132.158 244.034 130.323V128.74H243.956C243.253 129.86 242.381 130.7 241.339 131.26C240.297 131.82 239.093 132.1 237.726 132.1C235.16 132.1 233.129 131.201 231.632 129.405C230.147 127.595 229.405 125.192 229.405 122.198C229.405 118.799 230.239 116.104 231.905 114.112C233.572 112.119 235.766 111.123 238.487 111.123C239.698 111.123 240.759 111.358 241.671 111.826C242.595 112.295 243.357 112.998 243.956 113.936H244.034V111.612H250.206V129.326ZM244.112 122.002V120.42C244.112 119.157 243.735 118.083 242.979 117.198C242.237 116.299 241.267 115.85 240.069 115.85C238.702 115.85 237.628 116.384 236.847 117.451C236.065 118.519 235.675 120.023 235.675 121.963C235.675 123.63 236.046 124.951 236.788 125.928C237.53 126.892 238.546 127.373 239.835 127.373C241.124 127.373 242.159 126.885 242.94 125.908C243.722 124.919 244.112 123.617 244.112 122.002ZM266.417 131.612V102.002H272.589V131.612H266.417ZM287.315 132.1C283.982 132.1 281.358 131.162 279.444 129.287C277.53 127.412 276.58 124.88 276.593 121.69C276.606 118.382 277.595 115.798 279.562 113.936C281.541 112.061 284.216 111.123 287.589 111.123C290.909 111.123 293.513 112.054 295.401 113.916C297.289 115.778 298.233 118.252 298.233 121.338C298.233 124.645 297.257 127.269 295.304 129.209C293.364 131.136 290.701 132.1 287.315 132.1ZM287.511 127.373C288.995 127.373 290.102 126.878 290.831 125.889C291.573 124.899 291.944 123.421 291.944 121.455C291.944 119.593 291.573 118.194 290.831 117.256C290.089 116.319 288.969 115.85 287.472 115.85C286.013 115.85 284.881 116.358 284.073 117.373C283.266 118.376 282.862 119.789 282.862 121.612C282.862 123.539 283.246 124.984 284.015 125.948C284.796 126.898 285.961 127.373 287.511 127.373ZM287.413 139.268C286.541 139.268 285.818 139.007 285.245 138.487C284.685 137.966 284.405 137.334 284.405 136.592C284.405 135.811 284.692 135.173 285.265 134.678C285.838 134.196 286.554 133.955 287.413 133.955C288.285 133.955 288.995 134.203 289.542 134.698C290.102 135.192 290.382 135.824 290.382 136.592C290.382 137.36 290.102 137.998 289.542 138.506C288.995 139.014 288.285 139.268 287.413 139.268ZM318.312 130.362C317.257 130.961 316.209 131.397 315.167 131.67C314.138 131.957 313.012 132.1 311.788 132.1C308.403 132.1 305.766 131.169 303.878 129.307C301.99 127.445 301.046 125.043 301.046 122.1C301.046 118.701 302.049 116.026 304.054 114.073C306.072 112.106 308.741 111.123 312.062 111.123C313.325 111.123 314.425 111.247 315.362 111.494C316.3 111.729 317.25 112.113 318.214 112.647L315.929 116.787C315.33 116.462 314.744 116.227 314.171 116.084C313.611 115.928 312.993 115.85 312.315 115.85C310.753 115.85 309.529 116.358 308.644 117.373C307.758 118.389 307.315 119.828 307.315 121.69C307.315 123.474 307.81 124.867 308.8 125.869C309.789 126.872 310.987 127.373 312.394 127.373C312.771 127.373 313.285 127.289 313.937 127.119C314.601 126.937 315.271 126.651 315.948 126.26L318.312 130.362ZM186.007 184.612L182.862 181.662C181.313 182.86 179.776 183.726 178.253 184.26C176.729 184.794 174.991 185.061 173.038 185.061C169.978 185.061 167.452 184.332 165.46 182.873C163.468 181.415 162.472 179.286 162.472 176.487C162.472 174.52 163.038 172.932 164.171 171.721C165.317 170.497 166.873 169.41 168.839 168.459C167.784 167.365 167.016 166.369 166.534 165.471C166.065 164.573 165.831 163.602 165.831 162.561C165.831 160.49 166.625 158.902 168.214 157.795C169.802 156.688 171.84 156.135 174.327 156.135C176.723 156.135 178.67 156.701 180.167 157.834C181.677 158.967 182.433 160.432 182.433 162.229C182.433 163.596 182.049 164.8 181.28 165.842C180.512 166.871 178.963 167.932 176.632 169.026L183.214 175.002C184.164 173.817 184.802 172.626 185.128 171.428C185.453 170.217 185.616 168.882 185.616 167.424H191.085C191.085 169.403 190.753 171.246 190.089 172.951C189.438 174.657 188.305 176.389 186.69 178.147L193.819 184.612H186.007ZM173.663 166.33C174.757 165.862 175.577 165.367 176.124 164.846C176.684 164.312 176.964 163.583 176.964 162.658C176.964 161.89 176.697 161.298 176.163 160.881C175.629 160.464 175.017 160.256 174.327 160.256C173.455 160.256 172.745 160.503 172.198 160.998C171.651 161.48 171.378 162.066 171.378 162.756C171.378 163.342 171.56 163.902 171.925 164.436C172.289 164.957 172.869 165.588 173.663 166.33ZM179.444 178.459L171.925 171.408C171.052 171.903 170.297 172.528 169.659 173.283C169.034 174.026 168.722 175.009 168.722 176.233C168.722 177.496 169.151 178.505 170.011 179.26C170.87 180.015 171.983 180.393 173.351 180.393C174.509 180.393 175.564 180.25 176.515 179.963C177.465 179.677 178.442 179.175 179.444 178.459ZM219.972 184.299C219.347 184.559 218.644 184.755 217.862 184.885C217.094 185.028 216.313 185.1 215.519 185.1C213.331 185.1 211.684 184.573 210.577 183.518C209.47 182.463 208.917 180.888 208.917 178.791V169.162H205.675V164.612H208.917V159.768L215.069 158.01V164.612H219.562V169.162H215.069V178.401C215.069 179.169 215.219 179.729 215.519 180.08C215.818 180.419 216.3 180.588 216.964 180.588C217.289 180.588 217.602 180.549 217.901 180.471C218.201 180.38 218.487 180.269 218.761 180.139L219.972 184.299ZM242.257 184.612H236.104V173.244C236.104 171.773 235.838 170.673 235.304 169.944C234.77 169.214 233.969 168.85 232.901 168.85C231.808 168.85 230.922 169.26 230.245 170.08C229.568 170.901 229.229 171.942 229.229 173.205V184.612H223.058V155.002H229.229V167.58H229.308C230.063 166.421 230.955 165.556 231.983 164.983C233.012 164.41 234.171 164.123 235.46 164.123C237.726 164.123 239.425 164.807 240.558 166.174C241.69 167.541 242.257 169.592 242.257 172.326V184.612ZM265.128 176.369H252.081C252.185 177.815 252.667 178.889 253.526 179.592C254.399 180.295 255.597 180.647 257.12 180.647C257.693 180.647 258.481 180.477 259.483 180.139C260.499 179.787 261.482 179.24 262.433 178.498L265.167 181.994C263.8 183.075 262.394 183.863 260.948 184.358C259.503 184.852 257.908 185.1 256.163 185.1C252.934 185.1 250.427 184.208 248.644 182.424C246.86 180.627 245.968 178.127 245.968 174.924C245.968 171.734 246.912 169.136 248.8 167.131C250.688 165.126 253.077 164.123 255.968 164.123C258.741 164.123 260.961 164.963 262.628 166.643C264.295 168.309 265.128 170.738 265.128 173.928V176.369ZM259.405 172.58C259.405 171.031 259.112 169.931 258.526 169.28C257.953 168.615 257.088 168.283 255.929 168.283C254.939 168.283 254.08 168.668 253.351 169.436C252.634 170.204 252.198 171.252 252.042 172.58H259.405ZM278.331 185.1C274.998 185.1 272.374 184.162 270.46 182.287C268.546 180.412 267.595 177.88 267.608 174.69C267.621 171.382 268.611 168.798 270.577 166.936C272.556 165.061 275.232 164.123 278.604 164.123C281.925 164.123 284.529 165.054 286.417 166.916C288.305 168.778 289.249 171.252 289.249 174.338C289.249 177.645 288.272 180.269 286.319 182.209C284.379 184.136 281.716 185.1 278.331 185.1ZM278.526 180.373C280.011 180.373 281.118 179.878 281.847 178.889C282.589 177.899 282.96 176.421 282.96 174.455C282.96 172.593 282.589 171.194 281.847 170.256C281.104 169.319 279.985 168.85 278.487 168.85C277.029 168.85 275.896 169.358 275.089 170.373C274.282 171.376 273.878 172.789 273.878 174.612C273.878 176.539 274.262 177.984 275.03 178.948C275.812 179.898 276.977 180.373 278.526 180.373ZM317.628 181.858C316.925 182.938 316.059 183.752 315.03 184.299C314.002 184.833 312.804 185.1 311.437 185.1C308.95 185.1 306.938 184.221 305.401 182.463C303.878 180.692 303.116 178.225 303.116 175.061C303.116 171.753 303.956 169.104 305.636 167.112C307.328 165.119 309.529 164.123 312.237 164.123C313.526 164.123 314.62 164.358 315.519 164.826C316.417 165.282 317.12 165.972 317.628 166.897H317.706V155.002H323.878V184.612H317.706V181.858H317.628ZM309.386 174.885C309.386 176.643 309.757 177.997 310.499 178.948C311.241 179.898 312.27 180.373 313.585 180.373C314.835 180.373 315.851 179.872 316.632 178.869C317.426 177.867 317.823 176.539 317.823 174.885V173.381C317.823 172.079 317.446 170.998 316.69 170.139C315.935 169.28 314.952 168.85 313.741 168.85C312.374 168.85 311.306 169.39 310.538 170.471C309.77 171.539 309.386 173.01 309.386 174.885ZM338.604 185.1C335.271 185.1 332.647 184.162 330.733 182.287C328.819 180.412 327.869 177.88 327.882 174.69C327.895 171.382 328.884 168.798 330.851 166.936C332.83 165.061 335.506 164.123 338.878 164.123C342.198 164.123 344.802 165.054 346.69 166.916C348.578 168.778 349.522 171.252 349.522 174.338C349.522 177.645 348.546 180.269 346.593 182.209C344.653 184.136 341.99 185.1 338.604 185.1ZM338.8 180.373C340.284 180.373 341.391 179.878 342.12 178.889C342.862 177.899 343.233 176.421 343.233 174.455C343.233 172.593 342.862 171.194 342.12 170.256C341.378 169.319 340.258 168.85 338.761 168.85C337.302 168.85 336.17 169.358 335.362 170.373C334.555 171.376 334.151 172.789 334.151 174.612C334.151 176.539 334.535 177.984 335.304 178.948C336.085 179.898 337.25 180.373 338.8 180.373ZM345.772 155.393C345.772 157.216 345.408 158.628 344.679 159.631C343.963 160.621 342.979 161.115 341.729 161.115C341.17 161.115 340.616 161.044 340.069 160.901C339.522 160.757 338.982 160.549 338.448 160.276C337.875 159.963 337.387 159.735 336.983 159.592C336.58 159.436 336.267 159.358 336.046 159.358C335.525 159.358 335.134 159.533 334.874 159.885C334.614 160.237 334.483 160.764 334.483 161.467H331.729C331.729 159.657 332.088 158.251 332.804 157.248C333.52 156.246 334.522 155.744 335.812 155.744C336.345 155.744 336.886 155.823 337.433 155.979C337.979 156.135 338.533 156.376 339.093 156.701C339.614 156.988 340.069 157.203 340.46 157.346C340.851 157.489 341.176 157.561 341.437 157.561C341.944 157.561 342.322 157.378 342.569 157.014C342.83 156.649 342.96 156.109 342.96 155.393H345.772ZM356.651 161.858C355.584 161.858 354.711 161.532 354.034 160.881C353.357 160.23 353.019 159.423 353.019 158.459C353.019 157.457 353.357 156.643 354.034 156.018C354.711 155.38 355.584 155.061 356.651 155.061C357.732 155.061 358.604 155.38 359.269 156.018C359.946 156.643 360.284 157.457 360.284 158.459C360.284 159.462 359.946 160.282 359.269 160.92C358.604 161.545 357.732 161.858 356.651 161.858ZM359.698 184.612H353.526V164.612H359.698V184.612Z" fill="white"/>
</svg>