<svg width="560" height="367" viewBox="0 0 560 367" fill="none" xmlns="http://www.w3.org/2000/svg">
<rect x="83" y="19" width="476" height="127" rx="19" fill="white" stroke="#67AC2F" stroke-width="2"/>
<path d="M86.8956 156.554H77.1165V350.17H86.8956V156.554Z" fill="#67AC2F"/>
<path d="M81.9921 163.984C127.275 163.984 163.984 127.275 163.984 81.992C163.984 36.7091 127.275 0 81.9921 0C36.7091 0 0 36.7091 0 81.992C0 127.275 36.7091 163.984 81.9921 163.984Z" fill="#67AC2F"/>
<g opacity="0.3">
<path opacity="0.0137" d="M162.818 215.511C197.487 209.844 220.999 177.145 215.333 142.476C209.666 107.806 176.967 84.294 142.297 89.9604C107.628 95.6269 84.1159 128.326 89.7824 162.996C95.4488 197.665 128.148 221.177 162.818 215.511Z" fill="#231F20"/>
</g>
<path d="M82.8726 145.395C117.889 145.395 146.275 117.009 146.275 81.9922C146.275 46.9758 117.889 18.5894 82.8726 18.5894C47.8561 18.5894 19.4697 46.9758 19.4697 81.9922C19.4697 117.009 47.8561 145.395 82.8726 145.395Z" fill="white"/>
<path d="M97.8785 350.198C97.8785 358.979 90.7717 366.086 81.9911 366.086C73.2104 366.086 66.1036 358.979 66.1036 350.198C66.1036 341.418 73.2104 334.311 81.9911 334.311C90.7717 334.311 97.8785 341.418 97.8785 350.198Z" fill="#67AC2F"/>
<path d="M90.8293 114H76.6316V64.6911C74.979 65.8029 73.146 66.7494 71.1328 67.5307C69.1496 68.3119 66.9712 69.0781 64.5974 69.8293L60.7212 58.4712C64.8377 57.2692 68.729 55.7668 72.3948 53.9639C76.0607 52.1611 79.3359 50.1478 82.2206 47.9243H90.8293V114Z" fill="#333333"/>
<path d="M192.048 61.5065H186.811V76.4988H182.663V61.5065H177.452V58.1394H192.048V61.5065ZM206.72 76.4988H202.687V69.0475C202.687 68.083 202.512 67.3618 202.162 66.8838C201.812 66.4058 201.287 66.1668 200.587 66.1668C199.87 66.1668 199.29 66.4357 198.846 66.9734C198.402 67.5111 198.18 68.1939 198.18 69.0219V76.4988H194.135V57.0895H198.18V65.3346H198.232C198.727 64.575 199.311 64.0074 199.986 63.6318C200.66 63.2563 201.419 63.0685 202.264 63.0685C203.75 63.0685 204.863 63.5166 205.606 64.4128C206.349 65.309 206.72 66.6533 206.72 68.4457V76.4988ZM221.712 71.0959H213.16C213.228 72.0434 213.544 72.7475 214.107 73.2084C214.679 73.6693 215.464 73.8998 216.463 73.8998C216.838 73.8998 217.355 73.7888 218.012 73.5669C218.678 73.3365 219.322 72.978 219.945 72.4915L221.738 74.7832C220.842 75.4916 219.92 76.008 218.972 76.3323C218.025 76.6567 216.979 76.8189 215.836 76.8189C213.719 76.8189 212.076 76.2342 210.906 75.0649C209.737 73.887 209.152 72.2482 209.152 70.1485C209.152 68.0574 209.771 66.3546 211.009 65.0402C212.247 63.7257 213.813 63.0685 215.708 63.0685C217.526 63.0685 218.981 63.619 220.073 64.7201C221.166 65.8126 221.712 67.4044 221.712 69.4956V71.0959ZM217.961 68.6122C217.961 67.5965 217.769 66.8752 217.385 66.4485C217.009 66.0132 216.442 65.7955 215.682 65.7955C215.033 65.7955 214.47 66.0473 213.992 66.5509C213.523 67.0545 213.237 67.7416 213.134 68.6122H217.961ZM230.367 76.8189C228.182 76.8189 226.462 76.2043 225.207 74.9752C223.953 73.7461 223.33 72.086 223.338 69.9949C223.347 67.8269 223.995 66.1327 225.284 64.9121C226.582 63.683 228.336 63.0685 230.546 63.0685C232.723 63.0685 234.43 63.6788 235.667 64.8993C236.905 66.1199 237.524 67.7416 237.524 69.7644C237.524 71.9324 236.884 73.6523 235.603 74.924C234.332 76.1872 232.586 76.8189 230.367 76.8189ZM230.495 73.7205C231.468 73.7205 232.193 73.3962 232.671 72.7475C233.158 72.0988 233.401 71.1301 233.401 69.8413C233.401 68.6207 233.158 67.7032 232.671 67.0886C232.185 66.4741 231.451 66.1668 230.469 66.1668C229.513 66.1668 228.771 66.4997 228.242 67.1654C227.712 67.8227 227.448 68.7487 227.448 69.9437C227.448 71.2069 227.7 72.1543 228.203 72.7859C228.715 73.409 229.479 73.7205 230.495 73.7205ZM256.126 74.6936C255.666 75.402 255.098 75.9355 254.424 76.2939C253.749 76.6439 252.964 76.8189 252.068 76.8189C250.438 76.8189 249.119 76.2427 248.112 75.0905C247.113 73.9297 246.614 72.3122 246.614 70.2381C246.614 68.0702 247.164 66.3333 248.265 65.0274C249.375 63.7215 250.817 63.0685 252.593 63.0685C253.438 63.0685 254.155 63.2221 254.744 63.5294C255.333 63.8281 255.794 64.2805 256.126 64.8865H256.178V57.0895H260.223V76.4988H256.178V74.6936H256.126ZM250.724 70.1229C250.724 71.2752 250.967 72.1629 251.453 72.7859C251.94 73.409 252.614 73.7205 253.476 73.7205C254.296 73.7205 254.961 73.3919 255.473 72.7347C255.994 72.0775 256.254 71.2069 256.254 70.1229V69.1371C256.254 68.2836 256.007 67.5751 255.512 67.0118C255.017 66.4485 254.372 66.1668 253.579 66.1668C252.682 66.1668 251.983 66.521 251.479 67.2295C250.975 67.9294 250.724 68.8938 250.724 70.1229ZM269.877 76.8189C267.692 76.8189 265.972 76.2043 264.717 74.9752C263.462 73.7461 262.839 72.086 262.848 69.9949C262.856 67.8269 263.505 66.1327 264.794 64.9121C266.091 63.683 267.845 63.0685 270.056 63.0685C272.232 63.0685 273.94 63.6788 275.177 64.8993C276.415 66.1199 277.034 67.7416 277.034 69.7644C277.034 71.9324 276.393 73.6523 275.113 74.924C273.841 76.1872 272.096 76.8189 269.877 76.8189ZM270.005 73.7205C270.978 73.7205 271.703 73.3962 272.181 72.7475C272.668 72.0988 272.911 71.1301 272.911 69.8413C272.911 68.6207 272.668 67.7032 272.181 67.0886C271.695 66.4741 270.961 66.1668 269.979 66.1668C269.023 66.1668 268.281 66.4997 267.751 67.1654C267.222 67.8227 266.958 68.7487 266.958 69.9437C266.958 71.2069 267.209 72.1543 267.713 72.7859C268.225 73.409 268.989 73.7205 270.005 73.7205ZM274.575 57.3456C274.575 58.5405 274.336 59.4666 273.858 60.1238C273.389 60.7725 272.745 61.0969 271.925 61.0969C271.558 61.0969 271.195 61.0499 270.837 60.956C270.478 60.8621 270.124 60.7256 269.774 60.5463C269.399 60.3415 269.079 60.1921 268.814 60.0982C268.55 59.9958 268.345 59.9446 268.2 59.9446C267.858 59.9446 267.602 60.0598 267.431 60.2903C267.261 60.5207 267.175 60.8664 267.175 61.3273H265.37C265.37 60.1409 265.605 59.2191 266.074 58.5619C266.544 57.9047 267.201 57.5761 268.046 57.5761C268.396 57.5761 268.75 57.6273 269.109 57.7297C269.467 57.8321 269.83 57.99 270.197 58.2034C270.538 58.3912 270.837 58.532 271.093 58.6259C271.349 58.7198 271.562 58.7667 271.733 58.7667C272.066 58.7667 272.314 58.6472 272.476 58.4082C272.646 58.1693 272.732 57.815 272.732 57.3456H274.575ZM281.707 61.5834C281.007 61.5834 280.435 61.37 279.991 60.9432C279.547 60.5165 279.325 59.9873 279.325 59.3557C279.325 58.6984 279.547 58.165 279.991 57.7553C280.435 57.3371 281.007 57.1279 281.707 57.1279C282.415 57.1279 282.987 57.3371 283.422 57.7553C283.866 58.165 284.088 58.6984 284.088 59.3557C284.088 60.0129 283.866 60.5506 283.422 60.9688C282.987 61.3785 282.415 61.5834 281.707 61.5834ZM283.704 76.4988H279.658V63.3886H283.704V76.4988ZM309.809 76.4988L307.748 74.5655C306.732 75.3508 305.725 75.9184 304.726 76.2683C303.728 76.6183 302.588 76.7932 301.308 76.7932C299.302 76.7932 297.646 76.3153 296.34 75.3593C295.035 74.4034 294.382 73.0078 294.382 71.1728C294.382 69.8839 294.753 68.8426 295.495 68.0488C296.247 67.2465 297.266 66.5338 298.555 65.9108C297.864 65.1938 297.36 64.5408 297.045 63.9519C296.737 63.363 296.584 62.7271 296.584 62.0443C296.584 60.6872 297.104 59.6459 298.146 58.9204C299.187 58.1949 300.523 57.8321 302.153 57.8321C303.723 57.8321 304.999 58.2034 305.981 58.946C306.971 59.6885 307.466 60.6488 307.466 61.8266C307.466 62.7228 307.214 63.5123 306.711 64.1952C306.207 64.8695 305.192 65.5651 303.664 66.282L307.978 70.1997C308.601 69.423 309.02 68.642 309.233 67.8568C309.446 67.063 309.553 66.1882 309.553 65.2322H313.138C313.138 66.5296 312.92 67.7373 312.485 68.8554C312.058 69.9736 311.316 71.1087 310.257 72.261L314.93 76.4988H309.809ZM301.718 64.5152C302.435 64.208 302.972 63.8836 303.331 63.5422C303.698 63.1923 303.881 62.7143 303.881 62.1083C303.881 61.6047 303.706 61.2164 303.356 60.9432C303.006 60.6701 302.605 60.5335 302.153 60.5335C301.581 60.5335 301.116 60.6957 300.757 61.02C300.399 61.3358 300.22 61.7199 300.22 62.1723C300.22 62.5564 300.339 62.9234 300.578 63.2734C300.817 63.6148 301.197 64.0287 301.718 64.5152ZM305.507 72.4659L300.578 67.844C300.006 68.1683 299.511 68.578 299.093 69.0731C298.683 69.5596 298.479 70.204 298.479 71.0063C298.479 71.8342 298.76 72.4957 299.323 72.9908C299.887 73.4858 300.617 73.7333 301.513 73.7333C302.272 73.7333 302.964 73.6395 303.587 73.4517C304.21 73.2639 304.85 72.9353 305.507 72.4659ZM322.561 75.3593L324.212 72.6707C324.656 73.0121 325.181 73.3066 325.787 73.5541C326.393 73.8016 327.067 73.9254 327.81 73.9254C328.331 73.9254 328.757 73.8315 329.09 73.6437C329.423 73.4474 329.59 73.1615 329.59 72.7859C329.59 72.4872 329.466 72.2525 329.218 72.0818C328.979 71.9025 328.497 71.7361 327.772 71.5825C326.141 71.241 324.959 70.7588 324.225 70.1357C323.491 69.5126 323.124 68.6207 323.124 67.4599C323.124 66.1284 323.653 65.0658 324.712 64.272C325.779 63.4697 327.08 63.0685 328.617 63.0685C329.419 63.0685 330.183 63.1752 330.908 63.3886C331.634 63.5934 332.304 63.9007 332.918 64.3104L331.395 66.9094C330.874 66.5765 330.379 66.3333 329.91 66.1796C329.44 66.0174 328.958 65.9364 328.463 65.9364C327.942 65.9364 327.52 66.0345 327.195 66.2308C326.88 66.4271 326.722 66.6789 326.722 66.9862C326.722 67.3447 326.88 67.605 327.195 67.7672C327.511 67.9208 328.1 68.083 328.962 68.2537C330.482 68.561 331.566 69.0432 332.214 69.7004C332.863 70.3491 333.187 71.2282 333.187 72.3378C333.187 73.6779 332.679 74.7618 331.664 75.5898C330.657 76.4092 329.316 76.8189 327.644 76.8189C326.73 76.8189 325.855 76.7036 325.019 76.4732C324.191 76.2342 323.372 75.8629 322.561 75.3593ZM346.336 76.4988H342.508V74.6167H342.457C342.021 75.3508 341.475 75.9013 340.818 76.2683C340.169 76.6353 339.431 76.8189 338.603 76.8189C337.468 76.8189 336.49 76.4732 335.671 75.7818C334.86 75.0819 334.455 74.1046 334.455 72.8499C334.455 71.6379 334.856 70.6478 335.658 69.8797C336.469 69.1115 337.732 68.6122 339.448 68.3817L342.533 67.972V67.716C342.533 67.0929 342.333 66.6235 341.932 66.3076C341.53 65.9833 340.976 65.8211 340.267 65.8211C339.73 65.8211 339.128 65.9108 338.462 66.09C337.805 66.2692 337.135 66.5552 336.452 66.9478L335.082 64.5536C335.978 64.033 336.866 63.6574 337.745 63.427C338.633 63.188 339.597 63.0685 340.639 63.0685C342.593 63.0685 344.031 63.5337 344.953 64.464C345.875 65.3944 346.336 66.7942 346.336 68.6634V76.4988ZM342.533 71.1728V70.2894L340.152 70.5966C339.495 70.682 339 70.8826 338.667 71.1984C338.343 71.5056 338.18 71.8983 338.18 72.3762C338.18 72.8371 338.338 73.217 338.654 73.5157C338.978 73.8059 339.414 73.951 339.96 73.951C340.72 73.951 341.338 73.6907 341.816 73.17C342.294 72.6408 342.533 71.9751 342.533 71.1728ZM343.686 61.3145H340.779L336.759 57.1792H340.357L343.686 61.3145ZM362.199 76.4988H358.166V69.2139C358.166 68.1982 357.982 67.4386 357.615 66.935C357.257 66.4229 356.715 66.1668 355.989 66.1668C355.289 66.1668 354.713 66.4357 354.261 66.9734C353.808 67.5111 353.582 68.1939 353.582 69.0219V76.4988H349.537V63.3886H353.582V65.4627H353.634C354.12 64.6603 354.713 64.0629 355.413 63.6702C356.113 63.2691 356.924 63.0685 357.846 63.0685C359.297 63.0685 360.385 63.5209 361.11 64.4256C361.836 65.3218 362.199 66.6704 362.199 68.4713V76.4988ZM378.266 75.0008C378.266 77.1603 377.584 78.974 376.218 80.4421C374.861 81.9187 372.868 82.657 370.239 82.657C369.317 82.657 368.459 82.5759 367.666 82.4137C366.88 82.2516 366.065 81.9912 365.22 81.6328L366.385 78.8929C367.034 79.1661 367.661 79.3624 368.267 79.4819C368.873 79.6099 369.56 79.6739 370.329 79.6739C371.592 79.6739 372.556 79.3026 373.222 78.5601C373.888 77.826 374.221 76.8573 374.221 75.6538V74.6167H374.169C373.709 75.3508 373.137 75.9013 372.454 76.2683C371.771 76.6353 370.981 76.8189 370.085 76.8189C368.404 76.8189 367.072 76.2299 366.091 75.052C365.118 73.8656 364.631 72.2909 364.631 70.3278C364.631 68.1001 365.177 66.3333 366.27 65.0274C367.363 63.7215 368.801 63.0685 370.585 63.0685C371.378 63.0685 372.074 63.2221 372.671 63.5294C373.277 63.8367 373.777 64.2976 374.169 64.9121H374.221V63.3886H378.266V75.0008ZM374.272 70.1997V69.1627C374.272 68.3348 374.024 67.6306 373.529 67.0502C373.043 66.4613 372.407 66.1668 371.622 66.1668C370.725 66.1668 370.021 66.5168 369.509 67.2167C368.997 67.9165 368.741 68.9024 368.741 70.1741C368.741 71.2666 368.984 72.133 369.471 72.7731C369.957 73.4047 370.623 73.7205 371.468 73.7205C372.313 73.7205 372.992 73.4005 373.504 72.7603C374.016 72.1116 374.272 71.2581 374.272 70.1997ZM388.893 76.4988V57.0895H392.939V76.4988H388.893ZM402.592 76.8189C400.407 76.8189 398.687 76.2043 397.432 74.9752C396.178 73.7461 395.555 72.086 395.563 69.9949C395.572 67.8269 396.22 66.1327 397.509 64.9121C398.807 63.683 400.561 63.0685 402.771 63.0685C404.948 63.0685 406.655 63.6788 407.892 64.8993C409.13 66.1199 409.749 67.7416 409.749 69.7644C409.749 71.9324 409.109 73.6523 407.828 74.924C406.557 76.1872 404.811 76.8189 402.592 76.8189ZM402.72 73.7205C403.693 73.7205 404.418 73.3962 404.896 72.7475C405.383 72.0988 405.626 71.1301 405.626 69.8413C405.626 68.6207 405.383 67.7032 404.896 67.0886C404.41 66.4741 403.676 66.1668 402.694 66.1668C401.738 66.1668 400.996 66.4997 400.467 67.1654C399.937 67.8227 399.673 68.7487 399.673 69.9437C399.673 71.2069 399.925 72.1543 400.428 72.7859C400.94 73.409 401.704 73.7205 402.72 73.7205ZM402.656 81.5175C402.084 81.5175 401.61 81.3468 401.235 81.0054C400.868 80.664 400.684 80.25 400.684 79.7635C400.684 79.2514 400.872 78.8332 401.248 78.5088C401.623 78.193 402.093 78.0351 402.656 78.0351C403.228 78.0351 403.693 78.1973 404.051 78.5216C404.418 78.846 404.602 79.2599 404.602 79.7635C404.602 80.2671 404.418 80.6853 404.051 81.0182C403.693 81.3511 403.228 81.5175 402.656 81.5175ZM422.91 75.6794C422.219 76.072 421.532 76.3579 420.849 76.5372C420.175 76.725 419.436 76.8189 418.634 76.8189C416.415 76.8189 414.686 76.2086 413.449 74.988C412.211 73.7675 411.592 72.1927 411.592 70.2638C411.592 68.036 412.25 66.282 413.564 65.0017C414.887 63.7129 416.637 63.0685 418.813 63.0685C419.641 63.0685 420.362 63.1496 420.977 63.3118C421.591 63.4654 422.215 63.7172 422.846 64.0671L421.348 66.7814C420.956 66.568 420.571 66.4143 420.196 66.3205C419.829 66.218 419.423 66.1668 418.98 66.1668C417.955 66.1668 417.153 66.4997 416.573 67.1654C415.992 67.8312 415.702 68.7743 415.702 69.9949C415.702 71.1642 416.026 72.0775 416.675 72.7347C417.324 73.3919 418.109 73.7205 419.031 73.7205C419.278 73.7205 419.616 73.6651 420.042 73.5541C420.478 73.4346 420.917 73.2468 421.361 72.9908L422.91 75.6794ZM446.877 61.5065H445.046V76.4988H441.001V74.6936H440.949C440.489 75.402 439.921 75.9355 439.247 76.2939C438.572 76.6439 437.787 76.8189 436.891 76.8189C435.252 76.8189 433.933 76.2427 432.935 75.0905C431.936 73.9297 431.437 72.3122 431.437 70.2381C431.437 68.0702 431.987 66.3333 433.088 65.0274C434.19 63.7215 435.632 63.0685 437.416 63.0685C438.261 63.0685 438.978 63.2221 439.567 63.5294C440.156 63.8281 440.617 64.2805 440.949 64.8865H441.001V61.5065H436.776V58.8819H441.001V57.0895H445.046V58.8819H446.877V61.5065ZM441.078 70.1229V69.1371C441.078 68.2836 440.83 67.5751 440.335 67.0118C439.84 66.4485 439.195 66.1668 438.402 66.1668C437.506 66.1668 436.806 66.521 436.302 67.2295C435.798 67.9294 435.547 68.8938 435.547 70.1229C435.547 71.2752 435.79 72.1629 436.276 72.7859C436.763 73.409 437.437 73.7205 438.299 73.7205C439.119 73.7205 439.784 73.3919 440.297 72.7347C440.817 72.0775 441.078 71.2069 441.078 70.1229ZM459.719 76.4988H455.891V74.6167H455.839C455.404 75.3508 454.858 75.9013 454.201 76.2683C453.552 76.6353 452.814 76.8189 451.986 76.8189C450.85 76.8189 449.873 76.4732 449.054 75.7818C448.243 75.0819 447.837 74.1046 447.837 72.8499C447.837 71.6379 448.239 70.6478 449.041 69.8797C449.852 69.1115 451.115 68.6122 452.831 68.3817L455.916 67.972V67.716C455.916 67.0929 455.716 66.6235 455.314 66.3076C454.913 65.9833 454.358 65.8211 453.65 65.8211C453.112 65.8211 452.511 65.9108 451.845 66.09C451.188 66.2692 450.518 66.5552 449.835 66.9478L448.465 64.5536C449.361 64.033 450.249 63.6574 451.128 63.427C452.015 63.188 452.98 63.0685 454.021 63.0685C455.976 63.0685 457.414 63.5337 458.336 64.464C459.258 65.3944 459.719 66.7942 459.719 68.6634V76.4988ZM455.916 71.1728V70.2894L453.535 70.5966C452.878 70.682 452.383 70.8826 452.05 71.1984C451.725 71.5056 451.563 71.8983 451.563 72.3762C451.563 72.8371 451.721 73.217 452.037 73.5157C452.361 73.8059 452.796 73.951 453.343 73.951C454.102 73.951 454.721 73.6907 455.199 73.17C455.677 72.6408 455.916 71.9751 455.916 71.1728ZM454.188 61.3145H451.269L454.597 57.1792H458.195L454.188 61.3145ZM475.581 76.4988H471.548V69.2139C471.548 68.1982 471.365 67.4386 470.998 66.935C470.639 66.4229 470.097 66.1668 469.372 66.1668C468.672 66.1668 468.096 66.4357 467.644 66.9734C467.191 67.5111 466.965 68.1939 466.965 69.0219V76.4988H462.919V63.3886H466.965V65.4627H467.016C467.503 64.6603 468.096 64.0629 468.796 63.6702C469.496 63.2691 470.307 63.0685 471.228 63.0685C472.679 63.0685 473.768 63.5209 474.493 64.4256C475.219 65.3218 475.581 66.6704 475.581 68.4713V76.4988ZM491.38 76.4988H487.347V69.0475C487.347 68.083 487.172 67.3618 486.822 66.8838C486.472 66.4058 485.948 66.1668 485.248 66.1668C484.531 66.1668 483.95 66.4357 483.506 66.9734C483.063 67.5111 482.841 68.1939 482.841 69.0219V76.4988H478.795V57.0895H482.841V65.3346H482.892C483.387 64.575 483.972 64.0074 484.646 63.6318C485.32 63.2563 486.08 63.0685 486.925 63.0685C488.41 63.0685 489.524 63.5166 490.266 64.4128C491.009 65.309 491.38 66.6533 491.38 68.4457V76.4988ZM514.694 75.0008C514.694 77.1603 514.012 78.974 512.646 80.4421C511.289 81.9187 509.296 82.657 506.667 82.657C505.745 82.657 504.887 82.5759 504.094 82.4137C503.308 82.2516 502.493 81.9912 501.648 81.6328L502.813 78.8929C503.462 79.1661 504.089 79.3624 504.695 79.4819C505.301 79.6099 505.988 79.6739 506.757 79.6739C508.02 79.6739 508.984 79.3026 509.65 78.5601C510.316 77.826 510.649 76.8573 510.649 75.6538V74.6167H510.597C510.137 75.3508 509.565 75.9013 508.882 76.2683C508.199 76.6353 507.409 76.8189 506.513 76.8189C504.832 76.8189 503.5 76.2299 502.519 75.052C501.546 73.8656 501.059 72.2909 501.059 70.3278C501.059 68.1001 501.605 66.3333 502.698 65.0274C503.791 63.7215 505.229 63.0685 507.013 63.0685C507.806 63.0685 508.502 63.2221 509.099 63.5294C509.705 63.8367 510.205 64.2976 510.597 64.9121H510.649V63.3886H514.694V75.0008ZM510.7 70.1997V69.1627C510.7 68.3348 510.452 67.6306 509.957 67.0502C509.471 66.4613 508.835 66.1668 508.05 66.1668C507.153 66.1668 506.449 66.5168 505.937 67.2167C505.425 67.9165 505.169 68.9024 505.169 70.1741C505.169 71.2666 505.412 72.133 505.899 72.7731C506.385 73.4047 507.051 73.7205 507.896 73.7205C508.741 73.7205 509.42 73.4005 509.932 72.7603C510.444 72.1116 510.7 71.2581 510.7 70.1997ZM520.123 61.5834C519.423 61.5834 518.851 61.37 518.407 60.9432C517.963 60.5165 517.741 59.9873 517.741 59.3557C517.741 58.6984 517.963 58.165 518.407 57.7553C518.851 57.3371 519.423 57.1279 520.123 57.1279C520.831 57.1279 521.403 57.3371 521.838 57.7553C522.282 58.165 522.504 58.6984 522.504 59.3557C522.504 60.0129 522.282 60.5506 521.838 60.9688C521.403 61.3785 520.831 61.5834 520.123 61.5834ZM522.12 76.4988H518.074V63.3886H522.12V76.4988ZM536.434 76.4988H532.606V74.6167H532.554C532.119 75.3508 531.573 75.9013 530.916 76.2683C530.267 76.6353 529.529 76.8189 528.701 76.8189C527.566 76.8189 526.588 76.4732 525.769 75.7818C524.958 75.0819 524.553 74.1046 524.553 72.8499C524.553 71.6379 524.954 70.6478 525.756 69.8797C526.567 69.1115 527.83 68.6122 529.546 68.3817L532.631 67.972V67.716C532.631 67.0929 532.431 66.6235 532.03 66.3076C531.628 65.9833 531.074 65.8211 530.365 65.8211C529.827 65.8211 529.226 65.9108 528.56 66.09C527.903 66.2692 527.233 66.5552 526.55 66.9478L525.18 64.5536C526.076 64.033 526.964 63.6574 527.843 63.427C528.731 63.188 529.695 63.0685 530.736 63.0685C532.691 63.0685 534.129 63.5337 535.051 64.464C535.973 65.3944 536.434 66.7942 536.434 68.6634V76.4988ZM532.631 71.1728V70.2894L530.25 70.5966C529.593 70.682 529.098 70.8826 528.765 71.1984C528.44 71.5056 528.278 71.8983 528.278 72.3762C528.278 72.8371 528.436 73.217 528.752 73.5157C529.076 73.8059 529.512 73.951 530.058 73.951C530.818 73.951 531.436 73.6907 531.914 73.17C532.392 72.6408 532.631 71.9751 532.631 71.1728ZM530.903 61.3145H527.984L531.313 57.1792H534.91L530.903 61.3145ZM222.634 101.743C222.472 101.709 222.305 101.683 222.135 101.666C221.964 101.649 221.776 101.641 221.571 101.641C220.504 101.641 219.711 101.956 219.19 102.588C218.669 103.211 218.409 104.094 218.409 105.238V111.499H214.363V98.3886H218.409V100.821H218.46C218.776 99.9335 219.22 99.2677 219.792 98.8239C220.372 98.38 221.081 98.1581 221.917 98.1581C222.105 98.1581 222.288 98.1709 222.468 98.1965C222.655 98.2221 222.847 98.2563 223.044 98.299L222.634 101.743ZM231.058 111.819C228.873 111.819 227.153 111.204 225.899 109.975C224.644 108.746 224.021 107.086 224.029 104.995C224.038 102.827 224.687 101.133 225.976 99.9121C227.273 98.683 229.027 98.0685 231.238 98.0685C233.414 98.0685 235.121 98.6788 236.359 99.8993C237.596 101.12 238.215 102.742 238.215 104.764C238.215 106.932 237.575 108.652 236.295 109.924C235.023 111.187 233.277 111.819 231.058 111.819ZM231.186 108.721C232.159 108.721 232.885 108.396 233.363 107.748C233.849 107.099 234.093 106.13 234.093 104.841C234.093 103.621 233.849 102.703 233.363 102.089C232.876 101.474 232.142 101.167 231.161 101.167C230.205 101.167 229.462 101.5 228.933 102.165C228.404 102.823 228.139 103.749 228.139 104.944C228.139 106.207 228.391 107.154 228.895 107.786C229.407 108.409 230.171 108.721 231.186 108.721ZM233.056 96.3145L231.122 94.5605L229.304 96.3145H226.744L229.65 93.1266H232.723L235.629 96.3145H233.056ZM234.451 94.3813L236.756 91.2317H240.353L236.96 94.3813H234.451ZM242.888 96.5834C242.188 96.5834 241.616 96.37 241.173 95.9432C240.729 95.5165 240.507 94.9873 240.507 94.3557C240.507 93.6984 240.729 93.165 241.173 92.7553C241.616 92.3371 242.188 92.1279 242.888 92.1279C243.597 92.1279 244.168 92.3371 244.604 92.7553C245.048 93.165 245.27 93.6984 245.27 94.3557C245.27 95.0129 245.048 95.5506 244.604 95.9688C244.168 96.3785 243.597 96.5834 242.888 96.5834ZM244.885 111.499H240.84V98.3886H244.885V111.499ZM255.537 111.499V92.0895H259.583V111.499H255.537ZM269.237 111.819C267.052 111.819 265.332 111.204 264.077 109.975C262.822 108.746 262.199 107.086 262.208 104.995C262.216 102.827 262.865 101.133 264.154 99.9121C265.451 98.683 267.205 98.0685 269.416 98.0685C271.592 98.0685 273.299 98.6788 274.537 99.8993C275.775 101.12 276.393 102.742 276.393 104.764C276.393 106.932 275.753 108.652 274.473 109.924C273.201 111.187 271.456 111.819 269.237 111.819ZM269.365 108.721C270.338 108.721 271.063 108.396 271.541 107.748C272.028 107.099 272.271 106.13 272.271 104.841C272.271 103.621 272.028 102.703 271.541 102.089C271.055 101.474 270.321 101.167 269.339 101.167C268.383 101.167 267.641 101.5 267.111 102.165C266.582 102.823 266.318 103.749 266.318 104.944C266.318 106.207 266.569 107.154 267.073 107.786C267.585 108.409 268.349 108.721 269.365 108.721ZM289.926 111.499H286.098V109.617H286.047C285.612 110.351 285.065 110.901 284.408 111.268C283.759 111.635 283.021 111.819 282.193 111.819C281.058 111.819 280.081 111.473 279.261 110.782C278.45 110.082 278.045 109.105 278.045 107.85C278.045 106.638 278.446 105.648 279.249 104.88C280.059 104.111 281.323 103.612 283.038 103.382L286.124 102.972V102.716C286.124 102.093 285.923 101.623 285.522 101.308C285.121 100.983 284.566 100.821 283.858 100.821C283.32 100.821 282.718 100.911 282.052 101.09C281.395 101.269 280.725 101.555 280.042 101.948L278.672 99.5536C279.569 99.033 280.456 98.6574 281.335 98.427C282.223 98.188 283.188 98.0685 284.229 98.0685C286.183 98.0685 287.622 98.5337 288.543 99.464C289.465 100.394 289.926 101.794 289.926 103.663V111.499ZM286.124 106.173V105.289L283.742 105.597C283.085 105.682 282.59 105.883 282.257 106.198C281.933 106.506 281.771 106.898 281.771 107.376C281.771 107.837 281.929 108.217 282.244 108.516C282.569 108.806 283.004 108.951 283.55 108.951C284.31 108.951 284.929 108.691 285.407 108.17C285.885 107.641 286.124 106.975 286.124 106.173ZM284.165 116.518C283.593 116.518 283.119 116.347 282.744 116.005C282.377 115.664 282.193 115.25 282.193 114.764C282.193 114.251 282.381 113.833 282.757 113.509C283.132 113.193 283.601 113.035 284.165 113.035C284.737 113.035 285.202 113.197 285.56 113.522C285.927 113.846 286.111 114.26 286.111 114.764C286.111 115.267 285.927 115.685 285.56 116.018C285.202 116.351 284.737 116.518 284.165 116.518ZM305.789 111.499H301.756V104.214C301.756 103.198 301.573 102.439 301.206 101.935C300.847 101.423 300.305 101.167 299.58 101.167C298.88 101.167 298.304 101.436 297.851 101.973C297.399 102.511 297.173 103.194 297.173 104.022V111.499H293.127V98.3886H297.173V100.463H297.224C297.71 99.6603 298.304 99.0629 299.003 98.6702C299.703 98.2691 300.514 98.0685 301.436 98.0685C302.887 98.0685 303.975 98.5209 304.701 99.4256C305.426 100.322 305.789 101.67 305.789 103.471V111.499ZM320.346 109.975H320.295V117.529H316.249V98.3886H320.295V100.36H320.346C320.841 99.5921 321.438 99.0202 322.138 98.6446C322.847 98.2606 323.653 98.0685 324.558 98.0685C326.248 98.0685 327.558 98.6532 328.489 99.8225C329.419 100.983 329.884 102.567 329.884 104.572C329.884 106.757 329.342 108.511 328.258 109.834C327.174 111.157 325.74 111.819 323.956 111.819C323.163 111.819 322.467 111.665 321.869 111.358C321.272 111.051 320.764 110.59 320.346 109.975ZM320.231 104.598V105.648C320.231 106.553 320.47 107.291 320.948 107.863C321.426 108.435 322.053 108.721 322.83 108.721C323.751 108.721 324.464 108.366 324.968 107.658C325.48 106.941 325.736 105.93 325.736 104.624C325.736 103.471 325.51 102.609 325.057 102.037C324.614 101.457 323.944 101.167 323.047 101.167C322.219 101.167 321.541 101.483 321.012 102.114C320.491 102.737 320.231 103.565 320.231 104.598ZM345.094 111.499H341.061V104.047C341.061 103.083 340.886 102.362 340.536 101.884C340.186 101.406 339.661 101.167 338.961 101.167C338.244 101.167 337.664 101.436 337.22 101.973C336.776 102.511 336.554 103.194 336.554 104.022V111.499H332.509V92.0895H336.554V100.335H336.606C337.101 99.575 337.685 99.0074 338.36 98.6318C339.034 98.2563 339.794 98.0685 340.639 98.0685C342.124 98.0685 343.238 98.5166 343.98 99.4128C344.723 100.309 345.094 101.653 345.094 103.446V111.499ZM359.216 111.499H355.388V109.617H355.336C354.901 110.351 354.355 110.901 353.698 111.268C353.049 111.635 352.311 111.819 351.483 111.819C350.347 111.819 349.37 111.473 348.551 110.782C347.74 110.082 347.334 109.105 347.334 107.85C347.334 106.638 347.736 105.648 348.538 104.88C349.349 104.111 350.612 103.612 352.328 103.382L355.413 102.972V102.716C355.413 102.093 355.213 101.623 354.811 101.308C354.41 100.983 353.855 100.821 353.147 100.821C352.609 100.821 352.008 100.911 351.342 101.09C350.685 101.269 350.015 101.555 349.332 101.948L347.962 99.5536C348.858 99.033 349.746 98.6574 350.625 98.427C351.513 98.188 352.477 98.0685 353.518 98.0685C355.473 98.0685 356.911 98.5337 357.833 99.464C358.755 100.394 359.216 101.794 359.216 103.663V111.499ZM355.413 106.173V105.289L353.032 105.597C352.375 105.682 351.88 105.883 351.547 106.198C351.222 106.506 351.06 106.898 351.06 107.376C351.06 107.837 351.218 108.217 351.534 108.516C351.858 108.806 352.293 108.951 352.84 108.951C353.599 108.951 354.218 108.691 354.696 108.17C355.174 107.641 355.413 106.975 355.413 106.173ZM353.685 96.3145H350.766L354.094 92.1792H357.692L353.685 96.3145ZM370.61 111.294C370.201 111.465 369.74 111.593 369.227 111.678C368.724 111.772 368.212 111.819 367.691 111.819C366.257 111.819 365.178 111.473 364.452 110.782C363.727 110.09 363.364 109.058 363.364 107.684V101.372H361.238V98.3886H363.364V95.2135L367.397 94.0612V98.3886H370.341V101.372H367.397V107.427C367.397 107.931 367.495 108.298 367.691 108.528C367.887 108.75 368.203 108.861 368.639 108.861C368.852 108.861 369.057 108.836 369.253 108.785C369.449 108.725 369.637 108.652 369.816 108.567L370.61 111.294ZM388.073 111.294C387.664 111.465 387.203 111.593 386.691 111.678C386.187 111.772 385.675 111.819 385.154 111.819C383.72 111.819 382.641 111.473 381.915 110.782C381.19 110.09 380.827 109.058 380.827 107.684V101.372H378.702V98.3886H380.827V95.2135L384.86 94.0612V98.3886H387.805V101.372H384.86V107.427C384.86 107.931 384.958 108.298 385.154 108.528C385.351 108.75 385.666 108.861 386.102 108.861C386.315 108.861 386.52 108.836 386.716 108.785C386.913 108.725 387.1 108.652 387.28 108.567L388.073 111.294ZM398.367 101.743C398.205 101.709 398.038 101.683 397.868 101.666C397.697 101.649 397.509 101.641 397.304 101.641C396.237 101.641 395.444 101.956 394.923 102.588C394.402 103.211 394.142 104.094 394.142 105.238V111.499H390.096V98.3886H394.142V100.821H394.193C394.509 99.9335 394.953 99.2677 395.525 98.8239C396.105 98.38 396.814 98.1581 397.65 98.1581C397.838 98.1581 398.021 98.1709 398.201 98.1965C398.388 98.2221 398.58 98.2563 398.777 98.299L398.367 101.743ZM402.72 96.5834C402.02 96.5834 401.448 96.37 401.004 95.9432C400.561 95.5165 400.339 94.9873 400.339 94.3557C400.339 93.6984 400.561 93.165 401.004 92.7553C401.448 92.3371 402.02 92.1279 402.72 92.1279C403.428 92.1279 404 92.3371 404.436 92.7553C404.879 93.165 405.101 93.6984 405.101 94.3557C405.101 95.0129 404.879 95.5506 404.436 95.9688C404 96.3785 403.428 96.5834 402.72 96.5834ZM404.717 111.499H400.671V98.3886H404.717V111.499ZM419.901 106.096H411.349C411.417 107.043 411.733 107.748 412.297 108.208C412.868 108.669 413.654 108.9 414.652 108.9C415.028 108.9 415.544 108.789 416.201 108.567C416.867 108.336 417.512 107.978 418.135 107.491L419.927 109.783C419.031 110.492 418.109 111.008 417.162 111.332C416.214 111.657 415.169 111.819 414.025 111.819C411.908 111.819 410.265 111.234 409.096 110.065C407.926 108.887 407.342 107.248 407.342 105.149C407.342 103.057 407.961 101.355 409.198 100.04C410.436 98.7257 412.002 98.0685 413.897 98.0685C415.715 98.0685 417.17 98.619 418.263 99.7201C419.355 100.813 419.901 102.404 419.901 104.496V106.096ZM416.15 103.612C416.15 102.596 415.958 101.875 415.574 101.448C415.199 101.013 414.631 100.796 413.871 100.796C413.223 100.796 412.659 101.047 412.181 101.551C411.712 102.054 411.426 102.742 411.324 103.612H416.15ZM417.61 94.6885V93.0882C418.113 93.054 418.489 92.9687 418.736 92.8321C418.992 92.6955 419.121 92.5078 419.121 92.2688C419.121 92.0298 419.031 91.8548 418.852 91.7439C418.681 91.6244 418.421 91.5646 418.071 91.5646C417.917 91.5646 417.776 91.5689 417.648 91.5774C417.529 91.586 417.367 91.6116 417.162 91.6542L416.931 90.2587C417.264 90.2075 417.546 90.1734 417.776 90.1563C418.015 90.1392 418.271 90.1307 418.544 90.1307C419.441 90.1307 420.111 90.2971 420.554 90.63C420.998 90.9629 421.22 91.4665 421.22 92.1408C421.22 92.6699 421.067 93.0967 420.759 93.421C420.461 93.7368 420.004 93.9502 419.389 94.0612V94.6885H417.61ZM409.48 96.6218L412.386 93.1778H415.459L418.365 96.6218H415.792L413.858 94.6117L412.04 96.6218H409.48ZM434.971 111.499H430.938V104.214C430.938 103.198 430.754 102.439 430.387 101.935C430.029 101.423 429.487 101.167 428.761 101.167C428.061 101.167 427.485 101.436 427.033 101.973C426.58 102.511 426.354 103.194 426.354 104.022V111.499H422.308V98.3886H426.354V100.463H426.405C426.892 99.6603 427.485 99.0629 428.185 98.6702C428.885 98.2691 429.696 98.0685 430.618 98.0685C432.069 98.0685 433.157 98.5209 433.882 99.4256C434.608 100.322 434.971 101.67 434.971 103.471V111.499ZM457.081 100.015C457.67 100.621 458.11 101.32 458.4 102.114C458.69 102.899 458.835 103.783 458.835 104.764C458.835 106.941 458.195 108.661 456.915 109.924C455.643 111.187 453.898 111.819 451.678 111.819C449.493 111.819 447.773 111.209 446.519 109.988C445.273 108.759 444.65 107.095 444.65 104.995C444.65 102.827 445.298 101.133 446.596 99.9121C447.893 98.683 449.647 98.0685 451.858 98.0685C452.148 98.0685 452.455 98.0856 452.779 98.1197C453.112 98.1453 453.458 98.1923 453.816 98.2606C454.064 98.3032 454.303 98.3374 454.533 98.363C454.772 98.38 455.003 98.3886 455.225 98.3886C455.984 98.3886 456.552 98.2392 456.928 97.9405C457.303 97.6332 457.491 97.1808 457.491 96.5834C457.491 96.37 457.47 96.1438 457.427 95.9048C457.393 95.6658 457.337 95.4183 457.26 95.1622H459.719C459.821 95.4524 459.894 95.7384 459.936 96.02C459.987 96.3017 460.013 96.5748 460.013 96.8394C460.013 97.8039 459.77 98.5508 459.283 99.0799C458.797 99.6091 458.063 99.9207 457.081 100.015ZM451.781 101.167C450.825 101.167 450.082 101.495 449.553 102.153C449.024 102.81 448.759 103.74 448.759 104.944C448.759 106.198 449.011 107.142 449.515 107.773C450.027 108.405 450.791 108.721 451.806 108.721C452.779 108.721 453.505 108.396 453.983 107.748C454.469 107.099 454.713 106.13 454.713 104.841C454.713 103.612 454.469 102.695 453.983 102.089C453.496 101.474 452.762 101.167 451.781 101.167ZM452.728 96.3017H450.936V94.7141C451.448 94.68 451.828 94.5946 452.075 94.4581C452.331 94.3215 452.459 94.1337 452.459 93.8948C452.459 93.6558 452.37 93.4808 452.19 93.3698C452.02 93.2503 451.759 93.1906 451.409 93.1906C451.247 93.1906 451.094 93.1991 450.949 93.2162C450.812 93.2247 450.65 93.2503 450.462 93.293L450.193 91.9231C450.552 91.8377 450.897 91.7865 451.23 91.7695C451.563 91.7524 451.781 91.7439 451.883 91.7439C452.779 91.7439 453.449 91.9146 453.893 92.256C454.337 92.5889 454.559 93.0924 454.559 93.7667C454.559 94.2959 454.405 94.7184 454.098 95.0342C453.799 95.35 453.343 95.5634 452.728 95.6744V96.3017ZM477.387 111.294C476.977 111.465 476.516 111.593 476.004 111.678C475.5 111.772 474.988 111.819 474.468 111.819C473.034 111.819 471.954 111.473 471.228 110.782C470.503 110.09 470.14 109.058 470.14 107.684V101.372H468.015V98.3886H470.14V95.2135L474.173 94.0612V98.3886H477.118V101.372H474.173V107.427C474.173 107.931 474.271 108.298 474.468 108.528C474.664 108.75 474.98 108.861 475.415 108.861C475.628 108.861 475.833 108.836 476.03 108.785C476.226 108.725 476.414 108.652 476.593 108.567L477.387 111.294ZM487.68 101.743C487.518 101.709 487.352 101.683 487.181 101.666C487.01 101.649 486.822 101.641 486.618 101.641C485.551 101.641 484.757 101.956 484.236 102.588C483.716 103.211 483.455 104.094 483.455 105.238V111.499H479.41V98.3886H483.455V100.821H483.506C483.822 99.9335 484.266 99.2677 484.838 98.8239C485.418 98.38 486.127 98.1581 486.963 98.1581C487.151 98.1581 487.335 98.1709 487.514 98.1965C487.702 98.2221 487.894 98.2563 488.09 98.299L487.68 101.743ZM501.635 106.096H493.083C493.151 107.043 493.467 107.748 494.03 108.208C494.602 108.669 495.388 108.9 496.386 108.9C496.762 108.9 497.278 108.789 497.935 108.567C498.601 108.336 499.245 107.978 499.869 107.491L501.661 109.783C500.765 110.492 499.843 111.008 498.896 111.332C497.948 111.657 496.903 111.819 495.759 111.819C493.642 111.819 491.999 111.234 490.83 110.065C489.66 108.887 489.076 107.248 489.076 105.149C489.076 103.057 489.694 101.355 490.932 100.04C492.17 98.7257 493.736 98.0685 495.631 98.0685C497.449 98.0685 498.904 98.619 499.997 99.7201C501.089 100.813 501.635 102.404 501.635 104.496V106.096ZM497.884 103.612C497.884 102.596 497.692 101.875 497.308 101.448C496.932 101.013 496.365 100.796 495.605 100.796C494.956 100.796 494.393 101.047 493.915 101.551C493.446 102.054 493.16 102.742 493.057 103.612H497.884ZM496.463 96.3017H494.671V94.7141C495.183 94.68 495.562 94.5946 495.81 94.4581C496.066 94.3215 496.194 94.1337 496.194 93.8948C496.194 93.6558 496.104 93.4808 495.925 93.3698C495.755 93.2503 495.494 93.1906 495.144 93.1906C494.982 93.1906 494.828 93.1991 494.683 93.2162C494.547 93.2247 494.385 93.2503 494.197 93.293L493.928 91.9231C494.286 91.8377 494.632 91.7865 494.965 91.7695C495.298 91.7524 495.516 91.7439 495.618 91.7439C496.514 91.7439 497.184 91.9146 497.628 92.256C498.072 92.5889 498.294 93.0924 498.294 93.7667C498.294 94.2959 498.14 94.7184 497.833 95.0342C497.534 95.35 497.078 95.5634 496.463 95.6744V96.3017Z" fill="#67AC2F"/>
</svg>
