<svg width="619" height="367" viewBox="0 0 619 367" fill="none" xmlns="http://www.w3.org/2000/svg">
<rect x="1" y="21" width="476" height="127" rx="19" fill="white" stroke="#1D6495" stroke-width="2"/>
<path d="M477.927 157.469H468.148V351.084H477.927V157.469Z" fill="#1D6495"/>
<path d="M473.024 164.898C518.307 164.898 555.016 128.189 555.016 82.9063C555.016 37.6234 518.307 0.914307 473.024 0.914307C427.741 0.914307 391.032 37.6234 391.032 82.9063C391.032 128.189 427.741 164.898 473.024 164.898Z" fill="#1D6495"/>
<g opacity="0.3">
<path opacity="0.0137" d="M553.849 216.425C588.519 210.759 612.031 178.06 606.365 143.39C600.698 108.72 567.999 85.2082 533.329 90.8747C498.66 96.5411 475.148 129.24 480.814 163.91C486.481 198.58 519.18 222.091 553.849 216.425Z" fill="#231F20"/>
</g>
<path d="M473.904 146.309C508.921 146.309 537.307 117.923 537.307 82.9065C537.307 47.8901 508.921 19.5037 473.904 19.5037C438.888 19.5037 410.501 47.8901 410.501 82.9065C410.501 117.923 438.888 146.309 473.904 146.309Z" fill="white"/>
<path d="M488.91 351.113C488.91 359.893 481.804 367 473.023 367C464.242 367 457.135 359.893 457.135 351.113C457.135 342.332 464.242 335.225 473.023 335.225C481.804 335.225 488.91 342.332 488.91 351.113Z" fill="#1D6495"/>
<path d="M452.634 112V107.132C452.634 103.827 453.19 100.867 454.302 98.253C455.413 95.6088 456.811 93.235 458.493 91.1316C460.176 89.0583 462.009 87.2254 463.992 85.6328C466.005 84.0102 467.913 82.5529 469.716 81.2608C471.609 79.9087 473.262 78.6166 474.674 77.3846C476.117 76.1526 477.319 74.9207 478.28 73.6887C479.272 72.4868 480.038 71.2248 480.579 69.9026C481.15 68.5805 481.435 67.0331 481.435 65.2602C481.435 62.9465 480.684 61.1286 479.181 59.8065C477.709 58.4844 475.726 57.8233 473.232 57.8233C470.948 57.8233 468.935 58.5745 467.192 60.0769C465.48 61.5793 464.007 63.6376 462.775 66.2518L451.327 61.5643C453.49 56.8468 456.54 53.1208 460.477 50.3864C464.443 47.652 469.281 46.2849 474.99 46.2849C481.33 46.2849 486.363 47.9525 490.089 51.2879C493.845 54.5932 495.723 59.0403 495.723 64.6292C495.723 67.604 495.257 70.2482 494.326 72.5619C493.424 74.8756 492.207 76.979 490.675 78.872C489.172 80.765 487.445 82.5379 485.492 84.1905C483.569 85.8131 481.54 87.3606 479.407 88.8329C478.055 89.8546 476.718 90.8462 475.395 91.8077C474.103 92.7392 472.977 93.6857 472.015 94.6472C470.993 95.6388 470.227 96.6004 469.716 97.5319C469.236 98.4633 468.995 99.3498 468.995 100.191H495.633V112H452.634Z" fill="#333333"/>
<path d="M26.5358 81V73.4976H24.4361V70.0921H26.5358V62.6409H33.0395C36.3 62.6409 38.7453 63.3877 40.3755 64.8814C42.0057 66.3665 42.8208 68.6027 42.8208 71.59C42.8208 74.4493 41.9289 76.7324 40.1451 78.4395C38.3698 80.1465 36.0012 81 33.0395 81H26.5358ZM30.671 66.008V70.0921H34.1406V73.4976H30.671V77.6457H32.7195C34.5119 77.6457 35.9159 77.108 36.9316 76.0325C37.9558 74.9571 38.4679 73.4933 38.4679 71.6412C38.4679 69.8915 37.9601 68.5173 36.9444 67.5187C35.9372 66.5116 34.5204 66.008 32.6939 66.008H30.671ZM51.7187 81.3201C49.5337 81.3201 47.8139 80.7055 46.5592 79.4765C45.3046 78.2474 44.6815 76.5873 44.69 74.4962C44.6986 72.3283 45.3472 70.6341 46.6361 69.4135C47.9334 68.1845 49.6874 67.5699 51.898 67.5699C54.0744 67.5699 55.7815 68.1802 57.0191 69.4007C58.2567 70.6213 58.8755 72.2429 58.8755 74.2658C58.8755 76.4337 58.2353 78.1535 56.9551 79.4253C55.6833 80.6885 53.9379 81.3201 51.7187 81.3201ZM51.8468 78.2218C52.8198 78.2218 53.5453 77.8975 54.0232 77.2488C54.5097 76.6001 54.753 75.6314 54.753 74.3426C54.753 73.1221 54.5097 72.2045 54.0232 71.59C53.5367 70.9755 52.8027 70.6682 51.8212 70.6682C50.8652 70.6682 50.1227 71.0011 49.5935 71.6668C49.0643 72.324 48.7997 73.2501 48.7997 74.445C48.7997 75.7082 49.0515 76.6556 49.5551 77.2872C50.0672 77.9103 50.8311 78.2218 51.8468 78.2218ZM47.2634 65.816L50.1824 62.6153H53.2423L56.1613 65.816H53.5879L51.7828 64.0492L49.8367 65.816H47.2634ZM45.9319 63.8699L42.552 60.7205H46.1367L48.454 63.8699H45.9319ZM74.1619 81H70.1291V73.7152C70.1291 72.6996 69.9456 71.9399 69.5786 71.4364C69.2201 70.9242 68.6781 70.6682 67.9526 70.6682C67.2527 70.6682 66.6766 70.9371 66.2242 71.4748C65.7719 72.0125 65.5457 72.6953 65.5457 73.5232V81H61.5V67.89H65.5457V69.964H65.5969C66.0834 69.1617 66.6766 68.5643 67.3765 68.1717C68.0764 67.7705 68.8872 67.5699 69.809 67.5699C71.26 67.5699 72.3482 68.0223 73.0737 68.927C73.7992 69.8232 74.1619 71.1718 74.1619 72.9727V81ZM90.2294 79.5021C90.2294 81.6615 89.5465 83.4752 88.1809 84.9432C86.8238 86.4198 84.8309 87.1581 82.202 87.1581C81.2803 87.1581 80.4225 87.077 79.6287 86.9149C78.8435 86.7527 78.0284 86.4924 77.1834 86.1339L78.3484 83.3941C78.9971 83.6672 79.6244 83.8635 80.2304 83.983C80.8364 84.1111 81.5235 84.1751 82.2917 84.1751C83.5549 84.1751 84.5193 83.8038 85.1851 83.0612C85.8508 82.3272 86.1837 81.3585 86.1837 80.155V79.118H86.1325C85.6716 79.852 85.0997 80.4025 84.4169 80.7696C83.7341 81.1366 82.9446 81.3201 82.0484 81.3201C80.367 81.3201 79.0355 80.7311 78.054 79.5533C77.081 78.3669 76.5945 76.7922 76.5945 74.8291C76.5945 72.6014 77.1407 70.8346 78.2332 69.5288C79.3257 68.2229 80.7639 67.5699 82.5477 67.5699C83.3415 67.5699 84.0371 67.7236 84.6346 68.0308C85.2406 68.3381 85.7399 68.799 86.1325 69.4135H86.1837V67.89H90.2294V79.5021ZM86.2349 74.7011V73.664C86.2349 72.8361 85.9874 72.132 85.4924 71.5516C85.0058 70.9627 84.37 70.6682 83.5847 70.6682C82.6886 70.6682 81.9844 71.0181 81.4723 71.718C80.9602 72.4179 80.7041 73.4037 80.7041 74.6754C80.7041 75.7679 80.9474 76.6343 81.4339 77.2744C81.9204 77.906 82.5861 78.2218 83.4311 78.2218C84.2761 78.2218 84.9546 77.9017 85.4667 77.2616C85.9789 76.6129 86.2349 75.7594 86.2349 74.7011ZM113.441 81H109.408V73.5488C109.408 72.5843 109.233 71.8631 108.883 71.3851C108.533 70.9072 108.008 70.6682 107.308 70.6682C106.591 70.6682 106.011 70.9371 105.567 71.4748C105.123 72.0125 104.901 72.6953 104.901 73.5232V81H100.856V61.5911H104.901V69.836H104.953C105.448 69.0764 106.032 68.5088 106.706 68.1333C107.381 67.7577 108.14 67.5699 108.985 67.5699C110.47 67.5699 111.584 68.018 112.327 68.9142C113.069 69.8104 113.441 71.1547 113.441 72.9471V81ZM127.562 81H123.734V79.118H123.683C123.248 79.852 122.701 80.4025 122.044 80.7696C121.395 81.1366 120.657 81.3201 119.829 81.3201C118.694 81.3201 117.717 80.9744 116.897 80.283C116.087 79.5832 115.681 78.6059 115.681 77.3512C115.681 76.1392 116.082 75.1492 116.885 74.381C117.695 73.6128 118.959 73.1135 120.674 72.8831L123.76 72.4734V72.2173C123.76 71.5943 123.559 71.1248 123.158 70.809C122.757 70.4847 122.202 70.3225 121.494 70.3225C120.956 70.3225 120.354 70.4121 119.688 70.5914C119.031 70.7706 118.361 71.0565 117.678 71.4492L116.309 69.055C117.205 68.5344 118.092 68.1589 118.971 67.9284C119.859 67.6894 120.824 67.5699 121.865 67.5699C123.819 67.5699 125.258 68.0351 126.179 68.9654C127.101 69.8958 127.562 71.2955 127.562 73.1647V81ZM123.76 75.6741V74.7907L121.378 75.0979C120.721 75.1833 120.226 75.3839 119.893 75.6997C119.569 76.0069 119.407 76.3996 119.407 76.8775C119.407 77.3384 119.565 77.7182 119.88 78.017C120.205 78.3072 120.64 78.4523 121.186 78.4523C121.946 78.4523 122.565 78.1919 123.043 77.6713C123.521 77.1421 123.76 76.4764 123.76 75.6741ZM124.912 65.816H122.006L117.986 61.6807H121.583L124.912 65.816ZM143.425 81H139.392V73.7152C139.392 72.6996 139.208 71.9399 138.841 71.4364C138.483 70.9242 137.941 70.6682 137.215 70.6682C136.516 70.6682 135.939 70.9371 135.487 71.4748C135.035 72.0125 134.808 72.6953 134.808 73.5232V81H130.763V67.89H134.808V69.964H134.86C135.346 69.1617 135.939 68.5643 136.639 68.1717C137.339 67.7705 138.15 67.5699 139.072 67.5699C140.523 67.5699 141.611 68.0223 142.336 68.927C143.062 69.8232 143.425 71.1718 143.425 72.9727V81ZM159.223 81H155.19V73.5488C155.19 72.5843 155.015 71.8631 154.666 71.3851C154.316 70.9072 153.791 70.6682 153.091 70.6682C152.374 70.6682 151.793 70.9371 151.35 71.4748C150.906 72.0125 150.684 72.6953 150.684 73.5232V81H146.638V61.5911H150.684V69.836H150.735C151.23 69.0764 151.815 68.5088 152.489 68.1333C153.163 67.7577 153.923 67.5699 154.768 67.5699C156.253 67.5699 157.367 68.018 158.109 68.9142C158.852 69.8104 159.223 71.1547 159.223 72.9471V81ZM180.22 80.1806C179.528 80.5732 178.841 80.8592 178.159 81.0384C177.484 81.2262 176.746 81.3201 175.944 81.3201C173.725 81.3201 171.996 80.7098 170.759 79.4893C169.521 78.2688 168.902 76.694 168.902 74.7651C168.902 72.5374 169.559 70.7834 170.874 69.5031C172.197 68.2143 173.946 67.5699 176.123 67.5699C176.951 67.5699 177.672 67.651 178.287 67.8132C178.901 67.9668 179.524 68.2186 180.156 68.5685L178.658 71.2827C178.265 71.0693 177.881 70.9157 177.506 70.8218C177.139 70.7194 176.733 70.6682 176.289 70.6682C175.265 70.6682 174.463 71.0011 173.882 71.6668C173.302 72.3325 173.012 73.2757 173.012 74.4962C173.012 75.6655 173.336 76.5788 173.985 77.236C174.634 77.8932 175.419 78.2218 176.341 78.2218C176.588 78.2218 176.925 78.1663 177.352 78.0554C177.787 77.9359 178.227 77.7481 178.671 77.4921L180.22 80.1806ZM194.738 81H190.705V79.0028H190.641C190.146 79.7709 189.562 80.3513 188.887 80.7439C188.221 81.128 187.47 81.3201 186.634 81.3201C185.115 81.3201 183.975 80.8592 183.216 79.9374C182.456 79.0156 182.076 77.6371 182.076 75.8021V67.89H186.109V75.4436C186.109 76.3654 186.293 77.061 186.66 77.5305C187.027 77.9914 187.577 78.2218 188.311 78.2218C189.037 78.2218 189.617 77.97 190.052 77.4664C190.488 76.9543 190.705 76.263 190.705 75.3924V67.89H194.738V81ZM191.422 65.816H188.516L184.496 61.6807H188.093L191.422 65.816ZM210.818 81H206.785V73.7152C206.785 72.6996 206.602 71.9399 206.235 71.4364C205.876 70.9242 205.334 70.6682 204.609 70.6682C203.909 70.6682 203.333 70.9371 202.881 71.4748C202.428 72.0125 202.202 72.6953 202.202 73.5232V81H198.156V67.89H202.202V69.964H202.253C202.74 69.1617 203.333 68.5643 204.033 68.1717C204.733 67.7705 205.544 67.5699 206.465 67.5699C207.916 67.5699 209.005 68.0223 209.73 68.927C210.456 69.8232 210.818 71.1718 210.818 72.9727V81ZM226.886 79.5021C226.886 81.6615 226.203 83.4752 224.837 84.9432C223.48 86.4198 221.487 87.1581 218.858 87.1581C217.937 87.1581 217.079 87.077 216.285 86.9149C215.5 86.7527 214.685 86.4924 213.84 86.1339L215.005 83.3941C215.653 83.6672 216.281 83.8635 216.887 83.983C217.493 84.1111 218.18 84.1751 218.948 84.1751C220.211 84.1751 221.176 83.8038 221.841 83.0612C222.507 82.3272 222.84 81.3585 222.84 80.155V79.118H222.789C222.328 79.852 221.756 80.4025 221.073 80.7696C220.39 81.1366 219.601 81.3201 218.705 81.3201C217.023 81.3201 215.692 80.7311 214.71 79.5533C213.737 78.3669 213.251 76.7922 213.251 74.8291C213.251 72.6014 213.797 70.8346 214.89 69.5288C215.982 68.2229 217.42 67.5699 219.204 67.5699C219.998 67.5699 220.693 67.7236 221.291 68.0308C221.897 68.3381 222.396 68.799 222.789 69.4135H222.84V67.89H226.886V79.5021ZM222.891 74.7011V73.664C222.891 72.8361 222.644 72.132 222.149 71.5516C221.662 70.9627 221.026 70.6682 220.241 70.6682C219.345 70.6682 218.641 71.0181 218.129 71.718C217.617 72.4179 217.361 73.4037 217.361 74.6754C217.361 75.7679 217.604 76.6343 218.09 77.2744C218.577 77.906 219.243 78.2218 220.087 78.2218C220.932 78.2218 221.611 77.9017 222.123 77.2616C222.635 76.6129 222.891 75.7594 222.891 74.7011ZM241.609 79.4765H241.558V87.0301H237.512V67.89H241.558V69.8616H241.609C242.104 69.0935 242.701 68.5216 243.401 68.1461C244.11 67.762 244.916 67.5699 245.821 67.5699C247.511 67.5699 248.821 68.1546 249.751 69.3239C250.682 70.4847 251.147 72.068 251.147 74.0737C251.147 76.2587 250.605 78.0127 249.521 79.3356C248.437 80.6586 247.003 81.3201 245.219 81.3201C244.425 81.3201 243.73 81.1664 243.132 80.8592C242.535 80.5519 242.027 80.091 241.609 79.4765ZM241.494 74.0993V75.1492C241.494 76.0539 241.733 76.7922 242.211 77.364C242.689 77.9359 243.316 78.2218 244.093 78.2218C245.014 78.2218 245.727 77.8676 246.231 77.1592C246.743 76.4422 246.999 75.4308 246.999 74.1249C246.999 72.9727 246.773 72.1106 246.32 71.5388C245.876 70.9584 245.206 70.6682 244.31 70.6682C243.482 70.6682 242.804 70.984 242.275 71.6156C241.754 72.2387 241.494 73.0666 241.494 74.0993ZM266.357 81H262.324V73.5488C262.324 72.5843 262.149 71.8631 261.799 71.3851C261.449 70.9072 260.924 70.6682 260.224 70.6682C259.507 70.6682 258.927 70.9371 258.483 71.4748C258.039 72.0125 257.817 72.6953 257.817 73.5232V81H253.771V61.5911H257.817V69.836H257.868C258.363 69.0764 258.948 68.5088 259.622 68.1333C260.297 67.7577 261.056 67.5699 261.901 67.5699C263.386 67.5699 264.5 68.018 265.243 68.9142C265.985 69.8104 266.357 71.1547 266.357 72.9471V81ZM282.027 81H277.994V79.0028H277.93C277.435 79.7709 276.851 80.3513 276.176 80.7439C275.511 81.128 274.759 81.3201 273.923 81.3201C272.404 81.3201 271.264 80.8592 270.505 79.9374C269.745 79.0156 269.365 77.6371 269.365 75.8021V67.89H273.398V75.4436C273.398 76.3654 273.582 77.061 273.949 77.5305C274.316 77.9914 274.866 78.2218 275.6 78.2218C276.326 78.2218 276.906 77.97 277.341 77.4664C277.777 76.9543 277.994 76.263 277.994 75.3924V67.89H282.027V81ZM275.805 86.0187C275.233 86.0187 274.759 85.848 274.384 85.5066C274.017 85.1652 273.833 84.7512 273.833 84.2647C273.833 83.7526 274.021 83.3344 274.397 83.01C274.772 82.6942 275.242 82.5363 275.805 82.5363C276.377 82.5363 276.842 82.6985 277.2 83.0228C277.567 83.3472 277.751 83.7611 277.751 84.2647C277.751 84.7683 277.567 85.1865 277.2 85.5194C276.842 85.8522 276.377 86.0187 275.805 86.0187ZM305.277 81H301.244V73.5488C301.244 72.5843 301.069 71.8631 300.719 71.3851C300.369 70.9072 299.844 70.6682 299.144 70.6682C298.427 70.6682 297.847 70.9371 297.403 71.4748C296.959 72.0125 296.737 72.6953 296.737 73.5232V81H292.692V61.5911H296.737V69.836H296.789C297.284 69.0764 297.868 68.5088 298.543 68.1333C299.217 67.7577 299.977 67.5699 300.822 67.5699C302.307 67.5699 303.42 68.018 304.163 68.9142C304.906 69.8104 305.277 71.1547 305.277 72.9471V81ZM320.947 81H316.915V79.0028H316.851C316.356 79.7709 315.771 80.3513 315.097 80.7439C314.431 81.128 313.68 81.3201 312.843 81.3201C311.324 81.3201 310.185 80.8592 309.425 79.9374C308.665 79.0156 308.286 77.6371 308.286 75.8021V67.89H312.318V75.4436C312.318 76.3654 312.502 77.061 312.869 77.5305C313.236 77.9914 313.786 78.2218 314.52 78.2218C315.246 78.2218 315.826 77.97 316.262 77.4664C316.697 76.9543 316.915 76.263 316.915 75.3924V67.89H320.947V81ZM336.848 67.89L330.985 83.4325C330.541 84.6018 329.871 85.5151 328.975 86.1723C328.079 86.8295 326.999 87.1581 325.736 87.1581C325.326 87.1581 324.933 87.1368 324.558 87.0941C324.182 87.0514 323.815 86.9874 323.457 86.9021L324.123 83.9318C324.319 84.0001 324.511 84.0471 324.699 84.0727C324.886 84.1068 325.096 84.1239 325.326 84.1239C325.727 84.1239 326.077 84.0257 326.376 83.8294C326.683 83.6331 326.931 83.3216 327.118 82.8948L327.938 80.9744L322.612 67.89H327.093L329.538 75.8661C329.615 76.1136 329.683 76.3825 329.743 76.6727C329.803 76.9629 329.854 77.2787 329.897 77.6201H329.948C329.99 77.364 330.046 77.0952 330.114 76.8135C330.182 76.5318 330.268 76.2246 330.37 75.8917L332.841 67.89H336.848ZM351.136 81H347.103V73.7152C347.103 72.6996 346.92 71.9399 346.553 71.4364C346.194 70.9242 345.652 70.6682 344.927 70.6682C344.227 70.6682 343.651 70.9371 343.199 71.4748C342.746 72.0125 342.52 72.6953 342.52 73.5232V81H338.474V67.89H342.52V69.964H342.571C343.058 69.1617 343.651 68.5643 344.351 68.1717C345.051 67.7705 345.862 67.5699 346.783 67.5699C348.234 67.5699 349.323 68.0223 350.048 68.927C350.774 69.8232 351.136 71.1718 351.136 72.9727V81ZM366.935 81H362.902V73.5488C362.902 72.5843 362.727 71.8631 362.377 71.3851C362.027 70.9072 361.502 70.6682 360.802 70.6682C360.085 70.6682 359.505 70.9371 359.061 71.4748C358.617 72.0125 358.395 72.6953 358.395 73.5232V81H354.35V61.5911H358.395V69.836H358.447C358.942 69.0764 359.526 68.5088 360.201 68.1333C360.875 67.7577 361.634 67.5699 362.479 67.5699C363.965 67.5699 365.078 68.018 365.821 68.9142C366.564 69.8104 366.935 71.1547 366.935 72.9471V81ZM373.964 77.7737L372.094 84.2519H368.945L370.251 77.7737H373.964ZM105.618 116H101.585V108.715C101.585 107.7 101.402 106.94 101.035 106.436C100.676 105.924 100.134 105.668 99.4089 105.668C98.709 105.668 98.1329 105.937 97.6806 106.475C97.2282 107.012 97.002 107.695 97.002 108.523V116H92.9563V102.89H97.002V104.964H97.0532C97.5397 104.162 98.1329 103.564 98.8328 103.172C99.5327 102.771 100.344 102.57 101.265 102.57C102.716 102.57 103.805 103.022 104.53 103.927C105.256 104.823 105.618 106.172 105.618 107.973V116ZM121.417 116H117.384V108.549C117.384 107.584 117.209 106.863 116.859 106.385C116.509 105.907 115.984 105.668 115.284 105.668C114.567 105.668 113.987 105.937 113.543 106.475C113.099 107.012 112.877 107.695 112.877 108.523V116H108.832V96.5911H112.877V104.836H112.929C113.424 104.076 114.008 103.509 114.683 103.133C115.357 102.758 116.116 102.57 116.961 102.57C118.447 102.57 119.56 103.018 120.303 103.914C121.046 104.81 121.417 106.155 121.417 107.947V116ZM135.538 116H131.71V114.118H131.659C131.224 114.852 130.677 115.403 130.02 115.77C129.372 116.137 128.633 116.32 127.805 116.32C126.67 116.32 125.693 115.974 124.874 115.283C124.063 114.583 123.657 113.606 123.657 112.351C123.657 111.139 124.058 110.149 124.861 109.381C125.672 108.613 126.935 108.114 128.65 107.883L131.736 107.473V107.217C131.736 106.594 131.535 106.125 131.134 105.809C130.733 105.485 130.178 105.323 129.47 105.323C128.932 105.323 128.33 105.412 127.665 105.591C127.007 105.771 126.337 106.057 125.655 106.449L124.285 104.055C125.181 103.534 126.068 103.159 126.948 102.928C127.835 102.689 128.8 102.57 129.841 102.57C131.796 102.57 133.234 103.035 134.156 103.965C135.077 104.896 135.538 106.296 135.538 108.165V116ZM131.736 110.674V109.791L129.355 110.098C128.697 110.183 128.202 110.384 127.869 110.7C127.545 111.007 127.383 111.4 127.383 111.878C127.383 112.338 127.541 112.718 127.857 113.017C128.181 113.307 128.616 113.452 129.162 113.452C129.922 113.452 130.541 113.192 131.019 112.671C131.497 112.142 131.736 111.476 131.736 110.674ZM132.888 100.816H129.982L125.962 96.6807H129.559L132.888 100.816ZM154.179 115.795C153.769 115.966 153.308 116.094 152.796 116.179C152.293 116.273 151.781 116.32 151.26 116.32C149.826 116.32 148.746 115.974 148.021 115.283C147.295 114.592 146.933 113.559 146.933 112.185V105.873H144.807V102.89H146.933V99.7149L150.966 98.5627V102.89H153.91V105.873H150.966V111.929C150.966 112.432 151.064 112.799 151.26 113.03C151.456 113.252 151.772 113.363 152.207 113.363C152.421 113.363 152.626 113.337 152.822 113.286C153.018 113.226 153.206 113.154 153.385 113.068L154.179 115.795ZM164.472 106.244C164.31 106.21 164.144 106.185 163.973 106.168C163.802 106.15 163.615 106.142 163.41 106.142C162.343 106.142 161.549 106.458 161.028 107.089C160.508 107.712 160.248 108.596 160.248 109.739V116H156.202V102.89H160.248V105.323H160.299C160.615 104.435 161.058 103.769 161.63 103.325C162.211 102.881 162.919 102.66 163.755 102.66C163.943 102.66 164.127 102.672 164.306 102.698C164.494 102.724 164.686 102.758 164.882 102.8L164.472 106.244ZM179.106 116H175.073V114.003H175.009C174.514 114.771 173.929 115.351 173.255 115.744C172.589 116.128 171.838 116.32 171.002 116.32C169.483 116.32 168.343 115.859 167.583 114.937C166.824 114.016 166.444 112.637 166.444 110.802V102.89H170.477V110.444C170.477 111.365 170.66 112.061 171.027 112.53C171.394 112.991 171.945 113.222 172.679 113.222C173.404 113.222 173.985 112.97 174.42 112.466C174.855 111.954 175.073 111.263 175.073 110.392V102.89H178.76C179.298 102.89 179.699 102.732 179.964 102.416C180.228 102.1 180.361 101.627 180.361 100.995C180.361 100.807 180.339 100.603 180.297 100.381C180.262 100.159 180.207 99.9198 180.13 99.6637H182.486C182.554 99.8686 182.605 100.095 182.639 100.342C182.674 100.59 182.691 100.863 182.691 101.162C182.691 102.16 182.375 102.971 181.743 103.594C181.12 104.209 180.241 104.546 179.106 104.606V116ZM195.814 104.516C196.402 105.122 196.842 105.822 197.132 106.616C197.422 107.401 197.567 108.284 197.567 109.266C197.567 111.442 196.927 113.162 195.647 114.425C194.375 115.688 192.63 116.32 190.411 116.32C188.226 116.32 186.506 115.71 185.251 114.489C184.005 113.26 183.382 111.596 183.382 109.496C183.382 107.328 184.031 105.634 185.328 104.414C186.625 103.184 188.379 102.57 190.59 102.57C190.88 102.57 191.187 102.587 191.512 102.621C191.845 102.647 192.19 102.694 192.549 102.762C192.796 102.805 193.035 102.839 193.266 102.864C193.505 102.881 193.735 102.89 193.957 102.89C194.717 102.89 195.284 102.741 195.66 102.442C196.035 102.135 196.223 101.682 196.223 101.085C196.223 100.871 196.202 100.645 196.159 100.406C196.125 100.167 196.07 99.9198 195.993 99.6637H198.451C198.553 99.9539 198.626 100.24 198.669 100.521C198.72 100.803 198.745 101.076 198.745 101.341C198.745 102.305 198.502 103.052 198.016 103.581C197.529 104.111 196.795 104.422 195.814 104.516ZM190.513 105.668C189.557 105.668 188.815 105.997 188.286 106.654C187.756 107.311 187.492 108.242 187.492 109.445C187.492 110.7 187.744 111.643 188.247 112.274C188.759 112.906 189.523 113.222 190.539 113.222C191.512 113.222 192.237 112.897 192.715 112.249C193.202 111.6 193.445 110.631 193.445 109.343C193.445 108.114 193.202 107.196 192.715 106.59C192.229 105.975 191.495 105.668 190.513 105.668ZM193.496 100.816H190.59L186.57 96.6807H190.168L193.496 100.816ZM213.34 116H209.308V108.715C209.308 107.7 209.124 106.94 208.757 106.436C208.399 105.924 207.857 105.668 207.131 105.668C206.431 105.668 205.855 105.937 205.403 106.475C204.95 107.012 204.724 107.695 204.724 108.523V116H200.679V102.89H204.724V104.964H204.775C205.262 104.162 205.855 103.564 206.555 103.172C207.255 102.771 208.066 102.57 208.988 102.57C210.438 102.57 211.527 103.022 212.252 103.927C212.978 104.823 213.34 106.172 213.34 107.973V116ZM229.408 114.502C229.408 116.661 228.725 118.475 227.359 119.943C226.002 121.42 224.009 122.158 221.381 122.158C220.459 122.158 219.601 122.077 218.807 121.915C218.022 121.753 217.207 121.492 216.362 121.134L217.527 118.394C218.176 118.667 218.803 118.864 219.409 118.983C220.015 119.111 220.702 119.175 221.47 119.175C222.733 119.175 223.698 118.804 224.364 118.061C225.029 117.327 225.362 116.358 225.362 115.155V114.118H225.311C224.85 114.852 224.278 115.403 223.595 115.77C222.913 116.137 222.123 116.32 221.227 116.32C219.546 116.32 218.214 115.731 217.232 114.553C216.259 113.367 215.773 111.792 215.773 109.829C215.773 107.601 216.319 105.835 217.412 104.529C218.504 103.223 219.942 102.57 221.726 102.57C222.52 102.57 223.216 102.724 223.813 103.031C224.419 103.338 224.918 103.799 225.311 104.414H225.362V102.89H229.408V114.502ZM225.413 109.701V108.664C225.413 107.836 225.166 107.132 224.671 106.552C224.184 105.963 223.548 105.668 222.763 105.668C221.867 105.668 221.163 106.018 220.651 106.718C220.139 107.418 219.883 108.404 219.883 109.675C219.883 110.768 220.126 111.634 220.612 112.274C221.099 112.906 221.765 113.222 222.61 113.222C223.455 113.222 224.133 112.902 224.645 112.262C225.157 111.613 225.413 110.759 225.413 109.701ZM252.517 102.89L247.639 116H243.03L238.383 102.89H242.71L244.989 110.969C245.117 111.429 245.219 111.856 245.296 112.249C245.373 112.633 245.42 112.983 245.437 113.299H245.488C245.514 113 245.565 112.663 245.642 112.287C245.727 111.912 245.834 111.498 245.962 111.045L248.292 102.89H252.517ZM265.153 116H261.325V114.118H261.274C260.839 114.852 260.292 115.403 259.635 115.77C258.986 116.137 258.248 116.32 257.42 116.32C256.285 116.32 255.308 115.974 254.488 115.283C253.678 114.583 253.272 113.606 253.272 112.351C253.272 111.139 253.673 110.149 254.476 109.381C255.286 108.613 256.55 108.114 258.265 107.883L261.351 107.473V107.217C261.351 106.594 261.15 106.125 260.749 105.809C260.348 105.485 259.793 105.323 259.085 105.323C258.547 105.323 257.945 105.412 257.279 105.591C256.622 105.771 255.952 106.057 255.269 106.449L253.9 104.055C254.796 103.534 255.683 103.159 256.562 102.928C257.45 102.689 258.415 102.57 259.456 102.57C261.41 102.57 262.849 103.035 263.77 103.965C264.692 104.896 265.153 106.296 265.153 108.165V116ZM261.351 110.674V109.791L258.969 110.098C258.312 110.183 257.817 110.384 257.484 110.7C257.16 111.007 256.998 111.4 256.998 111.878C256.998 112.338 257.156 112.718 257.471 113.017C257.796 113.307 258.231 113.452 258.777 113.452C259.537 113.452 260.156 113.192 260.634 112.671C261.112 112.142 261.351 111.476 261.351 110.674ZM262.503 100.816H259.597L255.577 96.6807H259.174L262.503 100.816ZM283.794 115.795C283.384 115.966 282.923 116.094 282.411 116.179C281.908 116.273 281.396 116.32 280.875 116.32C279.441 116.32 278.361 115.974 277.636 115.283C276.91 114.592 276.548 113.559 276.548 112.185V105.873H274.422V102.89H276.548V99.7149L280.58 98.5627V102.89H283.525V105.873H280.58V111.929C280.58 112.432 280.679 112.799 280.875 113.03C281.071 113.252 281.387 113.363 281.822 113.363C282.036 113.363 282.24 113.337 282.437 113.286C282.633 113.226 282.821 113.154 283 113.068L283.794 115.795ZM294.087 106.244C293.925 106.21 293.759 106.185 293.588 106.168C293.417 106.15 293.229 106.142 293.025 106.142C291.958 106.142 291.164 106.458 290.643 107.089C290.123 107.712 289.862 108.596 289.862 109.739V116H285.817V102.89H289.862V105.323H289.914C290.229 104.435 290.673 103.769 291.245 103.325C291.825 102.881 292.534 102.66 293.37 102.66C293.558 102.66 293.742 102.672 293.921 102.698C294.109 102.724 294.301 102.758 294.497 102.8L294.087 106.244ZM308.042 110.597H299.49C299.558 111.545 299.874 112.249 300.437 112.71C301.009 113.171 301.795 113.401 302.793 113.401C303.169 113.401 303.685 113.29 304.342 113.068C305.008 112.838 305.652 112.479 306.276 111.993L308.068 114.284C307.172 114.993 306.25 115.509 305.302 115.834C304.355 116.158 303.31 116.32 302.166 116.32C300.049 116.32 298.406 115.735 297.237 114.566C296.067 113.388 295.483 111.749 295.483 109.65C295.483 107.559 296.102 105.856 297.339 104.542C298.577 103.227 300.143 102.57 302.038 102.57C303.856 102.57 305.311 103.12 306.404 104.221C307.496 105.314 308.042 106.906 308.042 108.997V110.597ZM304.291 108.114C304.291 107.098 304.099 106.377 303.715 105.95C303.339 105.515 302.772 105.297 302.012 105.297C301.364 105.297 300.8 105.549 300.322 106.052C299.853 106.556 299.567 107.243 299.464 108.114H304.291ZM302.87 100.803H301.078V99.2156C301.59 99.1815 301.97 99.0961 302.217 98.9596C302.473 98.823 302.601 98.6352 302.601 98.3962C302.601 98.1573 302.512 97.9823 302.332 97.8713C302.162 97.7518 301.901 97.6921 301.551 97.6921C301.389 97.6921 301.235 97.7006 301.09 97.7177C300.954 97.7262 300.792 97.7518 300.604 97.7945L300.335 96.4246C300.694 96.3393 301.039 96.2881 301.372 96.271C301.705 96.2539 301.923 96.2454 302.025 96.2454C302.921 96.2454 303.591 96.4161 304.035 96.7575C304.479 97.0904 304.701 97.5939 304.701 98.2682C304.701 98.7974 304.547 99.2199 304.24 99.5357C303.941 99.8515 303.485 100.065 302.87 100.176V100.803Z" fill="#1D6495"/>
</svg>
