<svg width="512" height="500" viewBox="0 0 997 905" fill="none"
    xmlns="http://www.w3.org/2000/svg">
    <style>
        <!-- css trẻ em -->
                .student__theme g:hover path, .student__theme g:hover line{
                    fill: #67AC2F;
                }
                .student__theme:hover .student__bgr {
                    fill: #67AC2F;
                }
                .student__theme:hover .student__item {
                    fill: #fff;
                }

                .student__theme:hover .student__bottom {
                    fill: #467520;
                }
                .student__theme .student__item:hover {
                    fill: #fff;
                }
                
                .student__theme .student__bgr:hover {
                    fill: #67AC2F;
                }
        <!-- end css trẻ em -->


                .parents__theme g:hover path, .parents__theme g:hover line{
                    fill: #01CC9B;
                }
                .parents__theme:hover .parents__bgr {
                    fill: #01CC9B;
                }
                .parents__theme:hover .parents__item {
                    fill: #fff;
                }

                .parents__theme:hover .parents__bottom {
                    fill: #059b77;
                }
                .parents__theme .parents__item:hover {
                    fill: #fff;
                }
                
                .parents__theme .parents__bgr:hover {
                    fill: #01CC9B;
                }
                 <!-- end css cha mẹ -->

        <!-- css cha mẹ -->

                .school__theme g:hover path, .school__theme g:hover line{
                    fill: #1D6495;
                }
                .school__theme:hover .school__bgr {
                    fill: #1D6495;
                }
                .school__theme:hover .school__item {
                    fill: #fff;
                }

                .school__theme:hover .school__bottom {
                    fill: #134364;
                }
                .school__theme .school__item:hover {
                    fill: #fff;
                }
                
                .pre__theme .pre__bgr:hover {
                    fill: #1D6495;
                }
                <!-- end css cha mẹ -->

    </style>
    <a class="student__theme" href="https://youcare.vn/hoc-sinh/" target="_blank">
        <g>
            <path d="M384.532 40H376.622V25.7422H362.12V40H354.234V4.99023H362.12V18.9551H376.622V4.99023H384.532V40ZM403.722 40.6104C399.555 40.6104 396.275 39.4385 393.883 37.0947C391.49 34.751 390.302 31.5853 390.318 27.5977C390.335 23.4635 391.572 20.2327 394.029 17.9053C396.503 15.5615 399.848 14.3896 404.063 14.3896C408.214 14.3896 411.469 15.5534 413.829 17.8809C416.189 20.2083 417.369 23.3008 417.369 27.1582C417.369 31.2923 416.148 34.5719 413.707 36.9971C411.282 39.4059 407.953 40.6104 403.722 40.6104ZM403.966 34.7021C405.821 34.7021 407.205 34.0837 408.116 32.8467C409.044 31.6097 409.508 29.7624 409.508 27.3047C409.508 24.9772 409.044 23.2275 408.116 22.0557C407.188 20.8838 405.789 20.2979 403.917 20.2979C402.094 20.2979 400.678 20.9326 399.669 22.2021C398.66 23.4554 398.155 25.2214 398.155 27.5C398.155 29.9089 398.635 31.7155 399.596 32.9199C400.572 34.1081 402.029 34.7021 403.966 34.7021ZM403.844 49.5703C402.753 49.5703 401.85 49.2448 401.134 48.5938C400.434 47.9427 400.084 47.1533 400.084 46.2256C400.084 45.249 400.442 44.4515 401.158 43.833C401.874 43.2308 402.77 42.9297 403.844 42.9297C404.934 42.9297 405.821 43.2389 406.505 43.8574C407.205 44.4759 407.555 45.2653 407.555 46.2256C407.555 47.1859 407.205 47.9834 406.505 48.6182C405.821 49.2529 404.934 49.5703 403.844 49.5703ZM442.467 38.4375C441.148 39.1862 439.838 39.7314 438.536 40.0732C437.25 40.4313 435.842 40.6104 434.312 40.6104C430.081 40.6104 426.785 39.4466 424.425 37.1191C422.065 34.7917 420.885 31.7887 420.885 28.1104C420.885 23.8623 422.138 20.5176 424.645 18.0762C427.167 15.6185 430.504 14.3896 434.654 14.3896C436.233 14.3896 437.608 14.5443 438.78 14.8535C439.952 15.1465 441.14 15.6266 442.345 16.2939L439.488 21.4697C438.74 21.0628 438.007 20.7699 437.291 20.5908C436.591 20.3955 435.818 20.2979 434.972 20.2979C433.019 20.2979 431.489 20.9326 430.382 22.2021C429.275 23.4717 428.722 25.2702 428.722 27.5977C428.722 29.8275 429.34 31.569 430.577 32.8223C431.814 34.0755 433.312 34.7021 435.069 34.7021C435.541 34.7021 436.184 34.5964 436.998 34.3848C437.828 34.1569 438.666 33.7988 439.513 33.3105L442.467 38.4375ZM457.701 37.8271L460.851 32.7002C461.697 33.3512 462.698 33.9128 463.854 34.3848C465.009 34.8568 466.295 35.0928 467.711 35.0928C468.704 35.0928 469.518 34.9137 470.152 34.5557C470.787 34.1813 471.104 33.6361 471.104 32.9199C471.104 32.3503 470.868 31.9027 470.396 31.5771C469.941 31.2354 469.021 30.918 467.638 30.625C464.529 29.974 462.275 29.0544 460.875 27.8662C459.475 26.6781 458.775 24.9772 458.775 22.7637C458.775 20.2246 459.785 18.1982 461.803 16.6846C463.837 15.1546 466.319 14.3896 469.249 14.3896C470.779 14.3896 472.236 14.5931 473.619 15C475.003 15.3906 476.28 15.9766 477.452 16.7578L474.547 21.7139C473.554 21.0791 472.61 20.6152 471.715 20.3223C470.82 20.013 469.9 19.8584 468.956 19.8584C467.963 19.8584 467.158 20.0456 466.539 20.4199C465.937 20.7943 465.636 21.2744 465.636 21.8604C465.636 22.5439 465.937 23.0404 466.539 23.3496C467.141 23.6426 468.264 23.9518 469.908 24.2773C472.805 24.8633 474.872 25.7829 476.109 27.0361C477.346 28.2731 477.965 29.9495 477.965 32.0654C477.965 34.6208 476.996 36.6878 475.06 38.2666C473.139 39.8291 470.584 40.6104 467.394 40.6104C465.652 40.6104 463.984 40.3906 462.389 39.9512C460.81 39.4954 459.247 38.7874 457.701 37.8271ZM486.144 11.5576C484.809 11.5576 483.718 11.1507 482.872 10.3369C482.026 9.52311 481.603 8.514 481.603 7.30957C481.603 6.05632 482.026 5.03906 482.872 4.25781C483.718 3.46029 484.809 3.06152 486.144 3.06152C487.494 3.06152 488.585 3.46029 489.415 4.25781C490.261 5.03906 490.685 6.05632 490.685 7.30957C490.685 8.56283 490.261 9.58822 489.415 10.3857C488.585 11.167 487.494 11.5576 486.144 11.5576ZM489.952 40H482.237V15H489.952V40ZM520.592 40H512.901V26.1084C512.901 24.1715 512.551 22.723 511.852 21.7627C511.168 20.7861 510.134 20.2979 508.751 20.2979C507.416 20.2979 506.318 20.8105 505.455 21.8359C504.592 22.8613 504.161 24.1634 504.161 25.7422V40H496.446V15H504.161V18.9551H504.259C505.187 17.4251 506.318 16.2858 507.652 15.5371C508.987 14.7721 510.533 14.3896 512.291 14.3896C515.058 14.3896 517.133 15.2523 518.517 16.9775C519.9 18.6865 520.592 21.2581 520.592 24.6924V40ZM550.719 40H543.028V25.791C543.028 23.9518 542.695 22.5765 542.027 21.665C541.36 20.7536 540.359 20.2979 539.024 20.2979C537.657 20.2979 536.55 20.8105 535.704 21.8359C534.858 22.8613 534.435 24.1634 534.435 25.7422V40H526.72V2.98828H534.435V18.7109H534.532C535.476 17.2624 536.591 16.18 537.877 15.4639C539.163 14.7477 540.611 14.3896 542.223 14.3896C545.055 14.3896 547.179 15.2441 548.595 16.9531C550.011 18.6621 550.719 21.2256 550.719 24.6436V40ZM596.983 28.1592H587.584V37.5586H582.652V28.1592H573.204V23.2031H582.652V13.7549H587.584V23.2031H596.983V28.1592Z" fill="#67AC2F"/>
            <line x1="351.5" y1="58.5" x2="601.5" y2="58.5" stroke="#67AC2F" stroke-width="3" stroke-linecap="round"/>
            <path d="M492.228 101.668C491.691 97.5097 489.84 93.5107 486.657 90.3273C478.977 82.6476 466.483 82.6476 458.803 90.3273C455.46 93.6698 453.55 97.9275 453.133 102.324C412.844 107.199 373.848 125.065 342.99 155.924C341.895 157.018 341.895 158.809 342.99 159.903C344.084 160.997 345.874 160.997 346.969 159.903C376.793 130.079 414.435 112.77 453.371 107.975C454.088 111.715 455.878 115.297 458.783 118.201C466.463 125.881 478.997 125.881 486.677 118.201C489.741 115.137 491.571 111.317 492.168 107.298C533.313 110.959 573.442 128.487 604.858 159.903C605.952 160.997 607.743 160.997 608.837 159.903C609.951 158.789 609.931 157.018 608.837 155.924C576.327 123.414 534.805 105.329 492.228 101.668ZM482.698 114.222C477.207 119.713 468.253 119.713 462.762 114.222C457.271 108.731 457.331 99.7579 462.782 94.3065C468.253 88.8352 477.207 88.8352 482.678 94.3065C488.129 99.7579 488.169 108.751 482.698 114.222Z" fill="#67AC2F"/>
            <path d="M478.699 110.223C481.995 106.927 481.995 101.582 478.699 98.2858C475.402 94.9893 470.058 94.9893 466.761 98.2858C463.465 101.582 463.465 106.927 466.761 110.223C470.058 113.52 475.402 113.52 478.699 110.223Z" fill="#67AC2F"/>
            <path d="M267.067 692.75C256.319 680.82 242.841 671.422 227.591 665.57L375.703 414.87C375.732 414.814 375.76 414.757 375.788 414.701C381.95 404.262 374.887 395.568 374.887 395.568L363.492 383.3C323.622 334.961 318.417 264.366 355.248 209.78C400.126 143.349 490.333 125.848 556.764 170.726C599.42 199.538 621.901 247.033 620.635 294.951C620.354 304.798 619.116 314.674 616.836 324.382C612.897 341.011 605.948 357.217 595.818 372.214C568.497 412.703 524.351 434.988 478.994 436.085C469.315 436.338 459.608 435.607 449.985 433.89L432.399 430.795C422.833 430.795 419.287 435.185 415.883 440.868L267.067 692.75Z" fill="#67AC2F"/>
            <path class="student__bottom" d="M616.837 324.382C612.898 341.011 605.948 357.218 595.819 372.215C568.498 412.703 524.351 434.988 478.995 436.085C469.315 436.338 459.608 435.607 449.985 433.891L392.249 345.907L559.128 236.426L616.837 324.382Z" fill="#467520"/>
            <path class="student__bgr" d="M544.524 363.436C533.072 374.353 518.948 382.653 502.882 387.183C500.152 387.971 497.395 388.646 494.553 389.181C440.333 399.704 387.83 364.252 377.335 310.032C366.812 255.812 402.264 203.309 456.484 192.814C510.732 182.29 563.207 217.743 573.73 271.963C580.455 306.712 568.356 340.701 544.524 363.436Z" fill="white"/>
        </g>
        <path class="student__item" d="M459.667 262.75C459.667 259.223 460.713 255.775 462.672 252.842C464.632 249.91 467.417 247.624 470.676 246.274C473.934 244.924 477.52 244.571 480.979 245.259C484.439 245.948 487.616 247.646 490.11 250.14C492.604 252.634 494.303 255.812 494.991 259.271C495.679 262.73 495.326 266.316 493.976 269.575C492.626 272.833 490.341 275.618 487.408 277.578C484.475 279.538 481.027 280.583 477.5 280.583C472.77 280.583 468.234 278.705 464.89 275.36C461.546 272.016 459.667 267.48 459.667 262.75ZM477.5 298.417C468.041 298.417 458.969 302.174 452.28 308.863C445.591 315.552 441.833 324.624 441.833 334.083H513.167C513.167 324.624 509.409 315.552 502.72 308.863C496.032 302.174 486.96 298.417 477.5 298.417Z" fill="#67AC2F"/>
    </a>

    <a class="parents__theme" href="https://youcare.vn/phu-huynh/" target="_blank">
        <g>
            <path d="M11.9863 474.525V486H4.10059V450.99H16.4541C20.8649 450.99 24.1689 451.942 26.3662 453.847C28.5798 455.751 29.6865 458.616 29.6865 462.44C29.6865 466.054 28.417 468.975 25.8779 471.205C23.3551 473.419 19.9779 474.525 15.7461 474.525H11.9863ZM11.9863 457.045V468.544H15.0869C17.1865 468.544 18.7572 468.064 19.7988 467.104C20.8568 466.127 21.3857 464.67 21.3857 462.733C21.3857 460.829 20.8568 459.405 19.7988 458.461C18.7572 457.517 17.1865 457.045 15.0869 457.045H11.9863ZM58.0557 486H50.3652V471.791C50.3652 469.952 50.0316 468.576 49.3643 467.665C48.6969 466.754 47.696 466.298 46.3613 466.298C44.9941 466.298 43.8874 466.811 43.041 467.836C42.1947 468.861 41.7715 470.163 41.7715 471.742V486H34.0566V448.988H41.7715V464.711H41.8691C42.8132 463.262 43.9281 462.18 45.2139 461.464C46.4997 460.748 47.9482 460.39 49.5596 460.39C52.3916 460.39 54.5156 461.244 55.9316 462.953C57.3477 464.662 58.0557 467.226 58.0557 470.644V486ZM87.9385 486H80.248V482.191H80.126C79.182 483.656 78.0671 484.763 76.7812 485.512C75.5117 486.244 74.0794 486.61 72.4844 486.61C69.5872 486.61 67.4144 485.731 65.9658 483.974C64.5173 482.216 63.793 479.587 63.793 476.088V461H71.4834V475.404C71.4834 477.162 71.8333 478.489 72.5332 479.384C73.2331 480.263 74.2829 480.702 75.6826 480.702C77.0661 480.702 78.1729 480.222 79.0029 479.262C79.833 478.285 80.248 476.967 80.248 475.307V461H87.9385V486ZM76.0732 495.57C74.9827 495.57 74.0794 495.245 73.3633 494.594C72.6634 493.943 72.3135 493.153 72.3135 492.226C72.3135 491.249 72.6715 490.451 73.3877 489.833C74.1038 489.231 74.999 488.93 76.0732 488.93C77.1637 488.93 78.0508 489.239 78.7344 489.857C79.4342 490.476 79.7842 491.265 79.7842 492.226C79.7842 493.186 79.4342 493.983 78.7344 494.618C78.0508 495.253 77.1637 495.57 76.0732 495.57ZM132.274 486H124.584V471.791C124.584 469.952 124.25 468.576 123.583 467.665C122.916 466.754 121.915 466.298 120.58 466.298C119.213 466.298 118.106 466.811 117.26 467.836C116.413 468.861 115.99 470.163 115.99 471.742V486H108.275V448.988H115.99V464.711H116.088C117.032 463.262 118.147 462.18 119.433 461.464C120.718 460.748 122.167 460.39 123.778 460.39C126.61 460.39 128.734 461.244 130.15 462.953C131.566 464.662 132.274 467.226 132.274 470.644V486ZM162.157 486H154.467V482.191H154.345C153.401 483.656 152.286 484.763 151 485.512C149.73 486.244 148.298 486.61 146.703 486.61C143.806 486.61 141.633 485.731 140.185 483.974C138.736 482.216 138.012 479.587 138.012 476.088V461H145.702V475.404C145.702 477.162 146.052 478.489 146.752 479.384C147.452 480.263 148.502 480.702 149.901 480.702C151.285 480.702 152.392 480.222 153.222 479.262C154.052 478.285 154.467 476.967 154.467 475.307V461H162.157V486ZM192.479 461L181.298 490.639C180.451 492.868 179.174 494.61 177.465 495.863C175.756 497.117 173.697 497.743 171.288 497.743C170.507 497.743 169.758 497.702 169.042 497.621C168.326 497.54 167.626 497.418 166.942 497.255L168.212 491.591C168.586 491.721 168.952 491.811 169.311 491.859C169.669 491.924 170.067 491.957 170.507 491.957C171.272 491.957 171.939 491.77 172.509 491.396C173.095 491.021 173.567 490.427 173.925 489.613L175.487 485.951L165.331 461H173.876L178.539 476.21C178.686 476.682 178.816 477.195 178.93 477.748C179.044 478.301 179.141 478.904 179.223 479.555H179.32C179.402 479.066 179.507 478.554 179.638 478.017C179.768 477.479 179.931 476.894 180.126 476.259L184.838 461H192.479ZM219.726 486H212.035V472.108C212.035 470.172 211.685 468.723 210.985 467.763C210.302 466.786 209.268 466.298 207.885 466.298C206.55 466.298 205.451 466.811 204.589 467.836C203.726 468.861 203.295 470.163 203.295 471.742V486H195.58V461H203.295V464.955H203.393C204.32 463.425 205.451 462.286 206.786 461.537C208.121 460.772 209.667 460.39 211.425 460.39C214.192 460.39 216.267 461.252 217.65 462.978C219.034 464.687 219.726 467.258 219.726 470.692V486ZM249.853 486H242.162V471.791C242.162 469.952 241.828 468.576 241.161 467.665C240.494 466.754 239.493 466.298 238.158 466.298C236.791 466.298 235.684 466.811 234.838 467.836C233.992 468.861 233.568 470.163 233.568 471.742V486H225.854V448.988H233.568V464.711H233.666C234.61 463.262 235.725 462.18 237.011 461.464C238.297 460.748 239.745 460.39 241.356 460.39C244.188 460.39 246.312 461.244 247.729 462.953C249.145 464.662 249.853 467.226 249.853 470.644V486ZM296.117 474.159H286.718V483.559H281.786V474.159H272.338V469.203H281.786V459.755H286.718V469.203H296.117V474.159Z" fill="#01CC9B"/>
            <line x1="6.5" y1="503.5" x2="291.5" y2="503.5" stroke="#01CC9B" stroke-width="3" stroke-linecap="round"/>
            <path d="M192.983 571.649C147.007 571.649 104.858 588.221 72.1628 615.711C68.8426 613.15 64.7065 611.659 60.2327 611.659C49.3437 611.659 40.5087 620.494 40.5087 631.355C40.5087 636.082 42.197 640.443 44.9825 643.848C19.9407 675.783 5 715.991 5 759.631C5 761.179 6.26616 762.445 7.81369 762.445C9.36122 762.445 10.6274 761.179 10.6274 759.631C10.6274 717.454 25.0053 678.597 49.1468 647.674C52.2981 649.813 56.1247 651.079 60.2327 651.079C71.0935 651.079 79.9285 642.216 79.9285 631.355C79.9285 627.022 78.5217 623.027 76.1301 619.763C107.784 593.258 148.583 577.276 192.983 577.276C194.558 577.276 195.796 576.01 195.796 574.462C195.796 572.887 194.558 571.649 192.983 571.649ZM60.2327 645.452C52.4388 645.452 46.1361 639.065 46.1361 631.355C46.1361 623.617 52.4669 617.287 60.2327 617.287C67.8578 617.287 74.3011 623.505 74.3011 631.355C74.3011 639.121 67.9703 645.452 60.2327 645.452Z" fill="#01CC9B"/>
            <path d="M60.2326 639.796C64.8944 639.796 68.6736 636.017 68.6736 631.355C68.6736 626.693 64.8944 622.914 60.2326 622.914C55.5707 622.914 51.7915 626.693 51.7915 631.355C51.7915 636.017 55.5707 639.796 60.2326 639.796Z" fill="#01CC9B"/>
            <path d="M683.014 783.97C575.953 784.026 468.865 784.082 361.804 784.138C355.36 784.138 348.664 784.195 342.839 786.98C337.212 789.71 333.329 794.465 330.234 799.979C327.336 805.1 325.141 810.897 322.862 816.271C299.03 872.01 236.848 908.785 176.522 902.763C169.319 902.032 162.229 900.738 155.279 898.853C103.957 885.065 61.0204 841.341 50.1314 789.062C38.7078 734.195 63.3839 674.011 108.994 641.822C149.455 613.207 203.956 607.748 249.509 627.585C242.419 640.134 235.328 652.711 228.266 665.288C242.672 671.732 255.868 680.82 267.039 691.99C274.692 679.554 282.373 667.145 290.027 654.737C307.246 670.1 320.302 690.133 327.449 712.08C330.178 720.437 332.795 730.059 340.617 734.055C344.809 736.221 349.733 736.249 354.432 736.249C463.941 736.334 573.449 736.39 682.93 736.446C680.088 752.119 680.088 768.297 683.014 783.97Z" fill="#01CC9B"/>
            <path class="parents__bottom" d="M330.234 799.979C327.335 805.1 325.141 810.897 322.862 816.271C299.03 872.01 236.847 908.785 176.522 902.763C169.319 902.032 162.228 900.738 155.278 898.853L114.986 830.677L287.944 728.427L330.234 799.979Z" fill="#059B77"/>
            <path class="parents__bgr" d="M293.374 761.404C293.374 818.072 247.426 864.019 190.759 864.019C134.091 864.019 88.1436 818.072 88.1436 761.404C88.1436 704.708 134.091 658.76 190.759 658.76C203.73 658.76 216.166 661.18 227.59 665.57C242.84 671.422 256.318 680.82 267.066 692.75C283.414 710.926 293.374 734.983 293.374 761.404Z" fill="white"/>

        </g>
        <path class="parents__item" d="M190.051 727.652L140.776 756.102H140.755V810.974H201.323V772.626H223.32V810.974H239.326V756.102L190.051 727.652ZM184.996 792.111H160.454V772.626H184.996V792.111Z" fill="#01CC9B"/>
        <path class="parents__item" d="M255 748.622L251.027 755.511L190.503 720.566L129.976 755.511L126 748.622L190.497 711.387L190.5 711.384L190.507 711.387L255 748.622Z" fill="#01CC9B"/>
    </a>

    <a class="school__theme" href="https://youcare.vn/truong-hoc/" target="_blank">
        <g>
            <path d="M544.667 363.52C599.337 444.582 654.007 525.645 708.676 606.707C711.603 611.04 714.642 615.514 719.059 618.243C728.288 623.983 740.134 620.719 750.741 618.468C803.695 607.214 862.191 628.682 895.337 671.478C922.854 707.015 931.718 755.833 920.069 799.107C920.041 799.22 920.013 799.304 919.984 799.417C900.232 872.319 821.759 919.083 747.815 900.85C705.581 890.439 667.991 860.811 649.561 821.251C626.714 772.18 634.451 710.335 668.722 668.439C672.492 663.825 676.741 659.014 677.332 653.077C677.923 646.802 674.237 640.978 670.72 635.744L502.883 387.183L544.667 363.52Z" fill="#1D6495"/>

            <path d="M711.019 457.411H701.033V486H693.123V457.411H683.187V450.99H711.019V457.411ZM726.814 467.396C726.505 467.331 726.188 467.283 725.862 467.25C725.537 467.217 725.179 467.201 724.788 467.201C722.754 467.201 721.24 467.803 720.247 469.008C719.254 470.196 718.758 471.881 718.758 474.062V486H711.043V461H718.758V465.639H718.855C719.458 463.946 720.304 462.676 721.395 461.83C722.501 460.984 723.852 460.561 725.447 460.561C725.805 460.561 726.155 460.585 726.497 460.634C726.855 460.683 727.221 460.748 727.596 460.829L726.814 467.396ZM754.72 486H747.029V482.191H746.907C745.963 483.656 744.848 484.763 743.562 485.512C742.293 486.244 740.861 486.61 739.266 486.61C736.368 486.61 734.196 485.731 732.747 483.974C731.299 482.216 730.574 479.587 730.574 476.088V461H738.265V475.404C738.265 477.162 738.615 478.489 739.314 479.384C740.014 480.263 741.064 480.702 742.464 480.702C743.847 480.702 744.954 480.222 745.784 479.262C746.614 478.285 747.029 476.967 747.029 475.307V461H754.061C755.086 461 755.851 460.699 756.355 460.097C756.86 459.494 757.112 458.591 757.112 457.387C757.112 457.029 757.072 456.638 756.99 456.215C756.925 455.792 756.819 455.336 756.673 454.848H761.165C761.295 455.238 761.393 455.67 761.458 456.142C761.523 456.614 761.556 457.134 761.556 457.704C761.556 459.608 760.953 461.155 759.749 462.343C758.561 463.515 756.884 464.158 754.72 464.271V486ZM786.58 464.101C787.703 465.256 788.541 466.591 789.095 468.104C789.648 469.602 789.925 471.286 789.925 473.158C789.925 477.309 788.704 480.588 786.263 482.997C783.838 485.406 780.509 486.61 776.277 486.61C772.111 486.61 768.831 485.447 766.438 483.119C764.062 480.775 762.874 477.602 762.874 473.598C762.874 469.464 764.111 466.233 766.585 463.905C769.059 461.562 772.404 460.39 776.619 460.39C777.173 460.39 777.758 460.422 778.377 460.487C779.012 460.536 779.671 460.626 780.354 460.756C780.826 460.837 781.282 460.902 781.722 460.951C782.177 460.984 782.617 461 783.04 461C784.489 461 785.571 460.715 786.287 460.146C787.003 459.56 787.361 458.697 787.361 457.558C787.361 457.151 787.321 456.719 787.239 456.264C787.174 455.808 787.068 455.336 786.922 454.848H791.609C791.805 455.401 791.943 455.946 792.024 456.483C792.122 457.021 792.171 457.541 792.171 458.046C792.171 459.885 791.707 461.309 790.779 462.318C789.852 463.327 788.452 463.922 786.58 464.101ZM776.473 466.298C774.65 466.298 773.234 466.924 772.225 468.178C771.215 469.431 770.711 471.205 770.711 473.5C770.711 475.893 771.191 477.691 772.151 478.896C773.128 480.1 774.585 480.702 776.521 480.702C778.377 480.702 779.76 480.084 780.672 478.847C781.6 477.61 782.063 475.762 782.063 473.305C782.063 470.961 781.6 469.211 780.672 468.056C779.744 466.884 778.344 466.298 776.473 466.298ZM782.161 457.045H776.619L768.953 449.159H775.813L782.161 457.045ZM820.003 486H812.312V472.108C812.312 470.172 811.963 468.723 811.263 467.763C810.579 466.786 809.546 466.298 808.162 466.298C806.827 466.298 805.729 466.811 804.866 467.836C804.004 468.861 803.572 470.163 803.572 471.742V486H795.857V461H803.572V464.955H803.67C804.598 463.425 805.729 462.286 807.063 461.537C808.398 460.772 809.944 460.39 811.702 460.39C814.469 460.39 816.544 461.252 817.928 462.978C819.311 464.687 820.003 467.258 820.003 470.692V486ZM850.643 483.144C850.643 487.261 849.34 490.72 846.736 493.52C844.148 496.335 840.348 497.743 835.335 497.743C833.577 497.743 831.941 497.589 830.428 497.279C828.93 496.97 827.376 496.474 825.765 495.79L827.986 490.565C829.223 491.086 830.42 491.461 831.575 491.688C832.731 491.933 834.041 492.055 835.506 492.055C837.915 492.055 839.754 491.347 841.023 489.931C842.293 488.531 842.928 486.684 842.928 484.389V482.411H842.83C841.951 483.811 840.861 484.861 839.559 485.561C838.257 486.26 836.751 486.61 835.042 486.61C831.836 486.61 829.297 485.487 827.425 483.241C825.569 480.979 824.642 477.976 824.642 474.232C824.642 469.984 825.683 466.615 827.767 464.125C829.85 461.635 832.592 460.39 835.994 460.39C837.508 460.39 838.834 460.683 839.974 461.269C841.129 461.854 842.081 462.733 842.83 463.905H842.928V461H850.643V483.144ZM843.025 473.988V472.011C843.025 470.432 842.553 469.089 841.609 467.982C840.682 466.859 839.469 466.298 837.972 466.298C836.263 466.298 834.92 466.965 833.943 468.3C832.967 469.634 832.479 471.514 832.479 473.939C832.479 476.023 832.942 477.675 833.87 478.896C834.798 480.1 836.067 480.702 837.679 480.702C839.29 480.702 840.584 480.092 841.561 478.871C842.537 477.634 843.025 476.007 843.025 473.988ZM894.905 486H887.215V471.791C887.215 469.952 886.881 468.576 886.214 467.665C885.547 466.754 884.546 466.298 883.211 466.298C881.844 466.298 880.737 466.811 879.891 467.836C879.044 468.861 878.621 470.163 878.621 471.742V486H870.906V448.988H878.621V464.711H878.719C879.663 463.262 880.778 462.18 882.063 461.464C883.349 460.748 884.798 460.39 886.409 460.39C889.241 460.39 891.365 461.244 892.781 462.953C894.197 464.662 894.905 467.226 894.905 470.644V486ZM912.947 486.61C908.781 486.61 905.501 485.438 903.108 483.095C900.716 480.751 899.528 477.585 899.544 473.598C899.56 469.464 900.797 466.233 903.255 463.905C905.729 461.562 909.074 460.39 913.289 460.39C917.439 460.39 920.695 461.553 923.055 463.881C925.415 466.208 926.595 469.301 926.595 473.158C926.595 477.292 925.374 480.572 922.933 482.997C920.507 485.406 917.179 486.61 912.947 486.61ZM913.191 480.702C915.047 480.702 916.43 480.084 917.342 478.847C918.27 477.61 918.733 475.762 918.733 473.305C918.733 470.977 918.27 469.228 917.342 468.056C916.414 466.884 915.014 466.298 913.143 466.298C911.32 466.298 909.904 466.933 908.895 468.202C907.885 469.455 907.381 471.221 907.381 473.5C907.381 475.909 907.861 477.715 908.821 478.92C909.798 480.108 911.255 480.702 913.191 480.702ZM913.069 495.57C911.979 495.57 911.076 495.245 910.359 494.594C909.66 493.943 909.31 493.153 909.31 492.226C909.31 491.249 909.668 490.451 910.384 489.833C911.1 489.231 911.995 488.93 913.069 488.93C914.16 488.93 915.047 489.239 915.73 489.857C916.43 490.476 916.78 491.265 916.78 492.226C916.78 493.186 916.43 493.983 915.73 494.618C915.047 495.253 914.16 495.57 913.069 495.57ZM951.692 484.438C950.374 485.186 949.064 485.731 947.762 486.073C946.476 486.431 945.068 486.61 943.538 486.61C939.306 486.61 936.01 485.447 933.65 483.119C931.29 480.792 930.11 477.789 930.11 474.11C930.11 469.862 931.364 466.518 933.87 464.076C936.393 461.618 939.729 460.39 943.88 460.39C945.459 460.39 946.834 460.544 948.006 460.854C949.178 461.146 950.366 461.627 951.57 462.294L948.714 467.47C947.965 467.063 947.233 466.77 946.517 466.591C945.817 466.396 945.044 466.298 944.197 466.298C942.244 466.298 940.714 466.933 939.607 468.202C938.501 469.472 937.947 471.27 937.947 473.598C937.947 475.827 938.566 477.569 939.803 478.822C941.04 480.076 942.537 480.702 944.295 480.702C944.767 480.702 945.41 480.596 946.224 480.385C947.054 480.157 947.892 479.799 948.738 479.311L951.692 484.438ZM995.76 474.159H986.36V483.559H981.429V474.159H971.98V469.203H981.429V459.755H986.36V469.203H995.76V474.159Z" fill="#1D6495"/>
            <path d="M683 504L995 504" stroke="#1D6495" stroke-width="3" stroke-linecap="round"/>
            <path d="M803.359 581.318C801.822 581.144 800.421 582.259 800.246 583.796C800.071 585.334 801.186 586.735 802.723 586.91C844.63 591.677 881.638 610.385 909.634 637.867C907.153 640.756 905.466 644.387 905.005 648.441C903.777 659.232 911.554 669.037 922.345 670.265C926.65 670.754 930.779 669.808 934.296 667.773C957.05 702.247 968.322 744.563 963.3 788.706C963.125 790.244 964.24 791.645 965.778 791.82C967.344 791.998 968.717 790.88 968.892 789.342C974.088 743.661 962.385 699.909 938.739 664.313C941.658 661.304 943.635 657.366 944.144 652.893C945.371 642.102 937.592 632.325 926.8 631.097C922.104 630.563 917.583 631.72 913.882 634.131C884.981 605.64 846.72 586.251 803.359 581.318ZM938.553 652.257C937.678 659.945 930.669 665.548 922.981 664.673C915.265 663.796 909.718 656.793 910.596 649.077C911.47 641.389 918.504 635.817 926.164 636.689C933.88 637.566 939.427 644.569 938.553 652.257Z" fill="#1D6495"/>
            <path d="M932.961 651.619C933.488 646.987 930.16 642.805 925.528 642.278C920.896 641.752 916.714 645.079 916.187 649.711C915.661 654.343 918.988 658.526 923.62 659.052C928.252 659.579 932.434 656.251 932.961 651.619Z" fill="#1D6495"/>
            <path class="school__bottom" d="M919.984 799.417C920.04 799.248 920.096 799.107 920.012 798.995C860.699 698.687 869.563 713.599 864.217 704.877C792.721 747.195 700.854 801.499 692.131 806.648C696.577 814.188 690.331 803.637 748.039 900.906C821.927 918.97 900.26 872.263 919.984 799.417Z" fill="#134364"/>
            <path class="school__bgr" d="M880.79 760.025C880.79 815.286 836.024 860.052 780.763 860.052C733.831 860.052 694.411 827.722 683.663 784.082C681.749 776.373 680.736 768.325 680.736 760.025C680.736 751.837 681.721 743.875 683.578 736.278C694.242 692.497 733.718 660.027 780.763 660.027C836.024 660.027 880.79 704.792 880.79 760.025Z" fill="white"/>
        </g>
        <g clip-path="url(#clip0_526_452)">
            <path class="school__item" d="M840.184 789.443H829.003V765.53C829.003 764.598 828.268 763.841 827.368 763.841H798.187V753.164H806.287C806.83 753.164 807.266 752.725 807.266 752.189C807.266 751.91 807.148 751.66 806.963 751.483L781.477 724.385V720.478C784.915 720.557 786.429 721.058 789.007 721.912C792.752 723.155 797.881 724.855 806.959 724.855C807.502 724.855 807.938 724.416 807.938 723.879V707.364C807.938 706.823 807.498 706.388 806.959 706.388C802.805 706.388 801.257 705.875 798.451 704.943C794.705 703.701 789.577 702 780.498 702C779.956 702 779.519 702.439 779.519 702.976V704.727V719.491V724.385L753.997 751.522C753.73 751.805 753.659 752.22 753.813 752.58C753.97 752.937 754.32 753.168 754.713 753.168H762.813V763.845H733.632C732.728 763.845 731.997 764.602 731.997 765.534V789.447H720.816C719.814 789.447 719 790.203 719 791.136V815.315C719 816.248 719.814 817.004 720.816 817.004H840.184C841.186 817.004 842 816.248 842 815.315V791.136C842 790.199 841.186 789.443 840.184 789.443ZM733.848 797.358V810.257C733.848 811.279 733.011 812.114 731.985 812.114H726.106C725.08 812.114 724.243 811.279 724.243 810.257V797.358C724.243 796.335 725.08 795.501 726.106 795.501H731.985C733.015 795.501 733.848 796.335 733.848 797.358ZM761.39 786.03H755.507C754.481 786.03 753.644 785.196 753.644 784.173V771.274C753.644 770.252 754.481 769.417 755.507 769.417H761.386C762.412 769.417 763.249 770.252 763.249 771.274V784.173C763.249 785.196 762.416 786.03 761.39 786.03ZM763.249 797.358V810.257C763.249 811.279 762.412 812.114 761.386 812.114H755.507C754.481 812.114 753.644 811.279 753.644 810.257V797.358C753.644 796.335 754.481 795.501 755.507 795.501H761.386C762.416 795.501 763.249 796.335 763.249 797.358ZM746.687 786.03H740.808C739.782 786.03 738.945 785.196 738.945 784.173V771.274C738.945 770.252 739.782 769.417 740.808 769.417H746.687C747.713 769.417 748.55 770.252 748.55 771.274V784.173C748.55 785.196 747.713 786.03 746.687 786.03ZM748.55 797.358V810.257C748.55 811.279 747.713 812.114 746.687 812.114H740.808C739.782 812.114 738.945 811.279 738.945 810.257V797.358C738.945 796.335 739.782 795.501 740.808 795.501H746.687C747.713 795.501 748.55 796.335 748.55 797.358ZM792.799 748.658C792.799 755.421 787.281 760.922 780.498 760.922C773.715 760.922 768.197 755.421 768.197 748.658C768.197 741.895 773.715 736.394 780.498 736.394C787.281 736.398 792.799 741.899 792.799 748.658ZM790.791 786.03H784.912C783.886 786.03 783.049 785.196 783.049 784.173V771.274C783.049 770.252 783.886 769.417 784.912 769.417H790.791C791.817 769.417 792.654 770.252 792.654 771.274V784.173C792.654 785.196 791.817 786.03 790.791 786.03ZM792.654 797.358V810.257C792.654 811.279 791.817 812.114 790.791 812.114H784.912C783.886 812.114 783.049 811.279 783.049 810.257V797.358C783.049 796.335 783.886 795.501 784.912 795.501H790.791C791.817 795.501 792.654 796.335 792.654 797.358ZM776.088 786.03H770.209C769.183 786.03 768.346 785.196 768.346 784.173V771.274C768.346 770.252 769.183 769.417 770.209 769.417H776.088C777.114 769.417 777.951 770.252 777.951 771.274V784.173C777.951 785.196 777.118 786.03 776.088 786.03ZM777.951 797.358V810.257C777.951 811.279 777.114 812.114 776.088 812.114H770.209C769.183 812.114 768.346 811.279 768.346 810.257V797.358C768.346 796.335 769.183 795.501 770.209 795.501H776.088C777.118 795.501 777.951 796.335 777.951 797.358ZM827.152 797.358C827.152 796.335 827.989 795.501 829.015 795.501H834.894C835.92 795.501 836.757 796.335 836.757 797.358V810.257C836.757 811.279 835.92 812.114 834.894 812.114H829.015C827.989 812.114 827.152 811.279 827.152 810.257V797.358ZM820.192 786.03H814.313C813.287 786.03 812.45 785.196 812.45 784.173V771.274C812.45 770.252 813.287 769.417 814.313 769.417H820.192C821.218 769.417 822.055 770.252 822.055 771.274V784.173C822.055 785.196 821.222 786.03 820.192 786.03ZM822.055 797.358V810.257C822.055 811.279 821.218 812.114 820.192 812.114H814.313C813.287 812.114 812.45 811.279 812.45 810.257V797.358C812.45 796.335 813.287 795.501 814.313 795.501H820.192C821.222 795.501 822.055 796.335 822.055 797.358ZM805.493 786.03H799.614C798.588 786.03 797.751 785.196 797.751 784.173V771.274C797.751 770.252 798.588 769.417 799.614 769.417H805.493C806.519 769.417 807.356 770.252 807.356 771.274V784.173C807.352 785.196 806.519 786.03 805.493 786.03ZM807.352 797.358V810.257C807.352 811.279 806.515 812.114 805.489 812.114H799.61C798.584 812.114 797.747 811.279 797.747 810.257V797.358C797.747 796.335 798.584 795.501 799.61 795.501H805.489C806.519 795.501 807.352 796.335 807.352 797.358Z" fill="#1D6495"/>
            <path class="school__item" d="M780.499 750.371H786.975C787.518 750.371 787.954 749.932 787.954 749.395C787.954 748.854 787.514 748.419 786.975 748.419H781.477V739.427C781.477 738.886 781.037 738.451 780.499 738.451C779.956 738.451 779.52 738.89 779.52 739.427V749.395C779.52 749.932 779.96 750.371 780.499 750.371Z" fill="#1D6495"/>
        </g>

    </a>



    <path d="M413.474 601.188C411.524 602.051 409.635 602.672 407.806 603.052C405.977 603.449 404.002 603.647 401.88 603.647C396.1 603.647 391.546 602.034 388.216 598.808C384.903 595.564 383.247 590.932 383.247 584.911C383.247 579.269 385.059 574.585 388.682 570.858C392.305 567.132 397.084 565.269 403.019 565.269C405.003 565.269 406.771 565.407 408.324 565.683C409.894 565.959 411.524 566.407 413.215 567.028L410.756 573.783C409.48 573.317 408.255 572.98 407.082 572.773C405.908 572.566 404.64 572.463 403.277 572.463C400.241 572.463 397.61 573.533 395.384 575.672C393.159 577.794 392.046 580.675 392.046 584.315C392.046 588.076 393.012 591.018 394.944 593.14C396.894 595.262 399.559 596.323 402.941 596.323C403.821 596.323 404.934 596.185 406.279 595.909C407.642 595.616 409.048 595.141 410.498 594.486L413.474 601.188ZM449.368 603H438.938L428.121 587.188C428.018 587.033 427.88 586.783 427.707 586.438C427.552 586.092 427.362 585.661 427.138 585.144H427.008V603H418.649V565.89H427.008V583.099H427.138C427.241 582.858 427.379 582.564 427.552 582.219C427.724 581.874 427.931 581.477 428.173 581.029L438.421 565.89H448.125L435.367 583.384L449.368 603ZM478.637 601.188C476.687 602.051 474.798 602.672 472.969 603.052C471.14 603.449 469.165 603.647 467.043 603.647C461.263 603.647 456.709 602.034 453.379 598.808C450.066 595.564 448.41 590.932 448.41 584.911C448.41 579.269 450.222 574.585 453.845 570.858C457.468 567.132 462.247 565.269 468.182 565.269C470.166 565.269 471.934 565.407 473.487 565.683C475.057 565.959 476.687 566.407 478.378 567.028L475.919 573.783C474.643 573.317 473.418 572.98 472.245 572.773C471.071 572.566 469.803 572.463 468.44 572.463C465.404 572.463 462.773 573.533 460.547 575.672C458.322 577.794 457.209 580.675 457.209 584.315C457.209 588.076 458.175 591.018 460.107 593.14C462.057 595.262 464.722 596.323 468.104 596.323C468.984 596.323 470.097 596.185 471.442 595.909C472.805 595.616 474.211 595.141 475.661 594.486L478.637 601.188ZM479.827 603L493.336 565.89H503.248L516.446 603H507.336L504.826 595.262H491.369L488.885 603H479.827ZM493.181 588.741H502.885L498.796 575.853C498.641 575.335 498.512 574.896 498.408 574.533C498.322 574.171 498.244 573.705 498.175 573.136H497.968C497.882 573.653 497.787 574.102 497.684 574.481C497.597 574.861 497.477 575.284 497.321 575.75L493.181 588.741ZM551.227 603H541.781L536.838 593.865C536.045 592.381 535.243 591.26 534.432 590.5C533.638 589.741 532.724 589.31 531.688 589.207H529.437V603H521.078V565.89H534.328C538.831 565.89 542.204 566.77 544.447 568.529C546.707 570.272 547.837 572.894 547.837 576.396C547.837 578.864 547.112 580.994 545.663 582.789C544.214 584.566 542.23 585.877 539.711 586.722V586.826C540.815 587.171 541.842 587.895 542.791 589C543.757 590.104 544.576 591.251 545.249 592.441L551.227 603ZM529.437 572.152V582.892H533.06C534.872 582.892 536.321 582.349 537.408 581.262C538.495 580.175 539.038 578.829 539.038 577.225C539.038 575.534 538.555 574.266 537.589 573.42C536.623 572.575 535.165 572.152 533.215 572.152H529.437ZM577.96 603H555.704V565.89H577.106V572.696H564.063V580.951H576.2V587.731H564.063V596.22H577.96V603ZM376.234 670.542L379.702 664.046C381.565 665.15 383.178 665.901 384.541 666.297C385.921 666.677 387.37 666.867 388.889 666.867C390.89 666.867 392.365 666.487 393.314 665.728C394.263 664.952 394.737 663.899 394.737 662.571C394.737 661.294 394.358 660.319 393.599 659.646C392.84 658.956 391.442 658.378 389.406 657.913C385.266 656.964 382.255 655.618 380.375 653.875C378.494 652.133 377.554 649.7 377.554 646.578C377.554 643.438 378.77 640.772 381.203 638.581C383.635 636.373 387.043 635.269 391.425 635.269C393.254 635.269 395.048 635.476 396.808 635.89C398.567 636.304 400.241 636.908 401.828 637.701L398.697 644.3C397.265 643.489 395.919 642.911 394.66 642.566C393.4 642.221 392.227 642.049 391.14 642.049C389.467 642.049 388.164 642.377 387.232 643.032C386.301 643.688 385.835 644.628 385.835 645.853C385.835 646.974 386.258 647.837 387.103 648.441C387.966 649.045 389.501 649.597 391.709 650.097C395.729 651.012 398.636 652.375 400.431 654.186C402.225 655.998 403.122 658.551 403.122 661.846C403.122 665.366 401.88 668.212 399.396 670.386C396.928 672.56 393.34 673.647 388.63 673.647C386.577 673.647 384.429 673.38 382.186 672.845C379.943 672.293 377.959 671.525 376.234 670.542ZM436.868 671.188C434.919 672.051 433.029 672.672 431.201 673.052C429.372 673.449 427.396 673.647 425.274 673.647C419.495 673.647 414.94 672.034 411.61 668.808C408.298 665.564 406.642 660.932 406.642 654.911C406.642 649.269 408.453 644.585 412.076 640.858C415.699 637.132 420.478 635.269 426.413 635.269C428.397 635.269 430.166 635.407 431.718 635.683C433.288 635.959 434.919 636.407 436.609 637.028L434.151 643.783C432.874 643.317 431.649 642.98 430.476 642.773C429.303 642.566 428.035 642.463 426.672 642.463C423.635 642.463 421.004 643.533 418.779 645.672C416.553 647.794 415.44 650.675 415.44 654.315C415.44 658.076 416.407 661.018 418.339 663.14C420.288 665.262 422.954 666.323 426.335 666.323C427.215 666.323 428.328 666.185 429.674 665.909C431.037 665.616 432.443 665.141 433.892 664.486L436.868 671.188ZM474.16 673H465.775V657.887H450.403V673H442.044V635.89H450.403V650.692H465.775V635.89H474.16V673ZM498.356 673.647C493.043 673.647 488.712 671.922 485.365 668.471C482.018 665.003 480.345 660.492 480.345 654.937C480.345 649.071 482.044 644.326 485.443 640.703C488.842 637.08 493.345 635.269 498.952 635.269C504.248 635.269 508.527 637.002 511.788 640.47C515.066 643.938 516.705 648.51 516.705 654.186C516.705 660.017 515.005 664.719 511.606 668.29C508.225 671.861 503.808 673.647 498.356 673.647ZM498.512 666.427C501.393 666.427 503.679 665.392 505.37 663.321C507.06 661.234 507.906 658.344 507.906 654.652C507.906 650.805 507.086 647.811 505.447 645.672C503.808 643.533 501.565 642.463 498.719 642.463C495.786 642.463 493.457 643.567 491.731 645.775C490.006 647.966 489.144 650.874 489.144 654.497C489.144 658.171 490.006 661.078 491.731 663.218C493.457 665.357 495.717 666.427 498.512 666.427ZM538.572 673.647C533.258 673.647 528.928 671.922 525.581 668.471C522.234 665.003 520.561 660.492 520.561 654.937C520.561 649.071 522.26 644.326 525.659 640.703C529.057 637.08 533.56 635.269 539.167 635.269C544.464 635.269 548.743 637.002 552.003 640.47C555.281 643.938 556.92 648.51 556.92 654.186C556.92 660.017 555.221 664.719 551.822 668.29C548.441 671.861 544.024 673.647 538.572 673.647ZM538.728 666.427C541.609 666.427 543.895 665.392 545.585 663.321C547.276 661.234 548.122 658.344 548.122 654.652C548.122 650.805 547.302 647.811 545.663 645.672C544.024 643.533 541.781 642.463 538.935 642.463C536.002 642.463 533.673 643.567 531.947 645.775C530.222 647.966 529.359 650.874 529.359 654.497C529.359 658.171 530.222 661.078 531.947 663.218C533.673 665.357 535.933 666.427 538.728 666.427ZM585.206 673H563.105V635.89H571.464V666.22H585.206V673Z" fill="#1D6495"/>

    <defs>
        <clipPath id="clip0_526_452">
            <rect width="123" height="115" fill="white" transform="translate(719 702)"/>
        </clipPath>
    </defs>
</svg>
