<svg width="325" height="191" viewBox="0 0 325 191" fill="none" xmlns="http://www.w3.org/2000/svg">
<path d="M7.47119 7.10303V182.311H312.349" stroke="#1D6495" stroke-width="2.52571" stroke-miterlimit="10" stroke-linecap="round"/>
<path d="M0.929199 7.43122C0.929199 3.81946 3.85901 0.889648 7.47077 0.889648C11.0825 0.889648 14.0123 3.81946 14.0123 7.43122C14.0123 11.043 11.0825 13.9728 7.47077 13.9728C3.85901 13.9728 0.929199 11.043 0.929199 7.43122Z" fill="#1D6495"/>
<path d="M309.823 191L324.851 182.311L309.823 173.623V191Z" fill="#1D6495"/>
<path d="M64.4414 95H58.1133V83.5938H46.5117V95H40.2031V66.9922H46.5117V78.1641H58.1133V66.9922H64.4414V95ZM79.793 95.4883C76.4596 95.4883 73.8359 94.5508 71.9219 92.6758C70.0078 90.8008 69.0573 88.2682 69.0703 85.0781C69.0833 81.7708 70.0729 79.1862 72.0391 77.3242C74.0182 75.4492 76.694 74.5117 80.0664 74.5117C83.3867 74.5117 85.9909 75.4427 87.8789 77.3047C89.7669 79.1667 90.7109 81.6406 90.7109 84.7266C90.7109 88.0339 89.7344 90.6576 87.7812 92.5977C85.8411 94.5247 83.1784 95.4883 79.793 95.4883ZM79.9883 90.7617C81.4727 90.7617 82.5794 90.2669 83.3086 89.2773C84.0508 88.2878 84.4219 86.8099 84.4219 84.8438C84.4219 82.9818 84.0508 81.582 83.3086 80.6445C82.5664 79.707 81.4466 79.2383 79.9492 79.2383C78.4909 79.2383 77.3581 79.7461 76.5508 80.7617C75.7435 81.7643 75.3398 83.1771 75.3398 85C75.3398 86.9271 75.724 88.3724 76.4922 89.3359C77.2734 90.2865 78.4388 90.7617 79.9883 90.7617ZM75.8672 65.8008H73.0547C73.0547 64.2904 73.3997 63.1641 74.0898 62.4219C74.793 61.6667 75.8346 61.2891 77.2148 61.2891C77.6836 61.2891 78.1654 61.3477 78.6602 61.4648C79.1549 61.569 79.6628 61.7383 80.1836 61.9727C80.7305 62.207 81.1992 62.3828 81.5898 62.5C81.9935 62.6172 82.3255 62.6758 82.5859 62.6758C83.0807 62.6758 83.4453 62.5521 83.6797 62.3047C83.9271 62.0573 84.0508 61.6927 84.0508 61.2109H86.8633C86.8633 62.6953 86.5247 63.8151 85.8477 64.5703C85.1706 65.3125 84.1484 65.6836 82.7812 65.6836C82.4036 65.6836 81.9674 65.625 81.4727 65.5078C80.9909 65.3906 80.4505 65.2214 79.8516 65C79.2266 64.7526 78.7057 64.5703 78.2891 64.4531C77.8724 64.3359 77.5534 64.2773 77.332 64.2773C76.8503 64.2773 76.4857 64.4076 76.2383 64.668C75.9909 64.9154 75.8672 65.293 75.8672 65.8008ZM77.1367 71.8359H73.2109L77.6641 66.9727H82.332L86.7852 71.8359H82.8594L79.8906 69.1602L77.1367 71.8359ZM118.27 94.6875C117.645 94.9479 116.941 95.1432 116.16 95.2734C115.392 95.4167 114.611 95.4883 113.816 95.4883C111.629 95.4883 109.982 94.9609 108.875 93.9062C107.768 92.8516 107.215 91.276 107.215 89.1797V79.5508H103.973V75H107.215V70.1562L113.367 68.3984V75H117.859V79.5508H113.367V88.7891C113.367 89.5573 113.517 90.1172 113.816 90.4688C114.116 90.8073 114.598 90.9766 115.262 90.9766C115.587 90.9766 115.9 90.9375 116.199 90.8594C116.499 90.7682 116.785 90.6576 117.059 90.5273L118.27 94.6875ZM133.973 80.1172C133.725 80.0651 133.471 80.026 133.211 80C132.951 79.974 132.664 79.9609 132.352 79.9609C130.724 79.9609 129.513 80.4427 128.719 81.4062C127.924 82.3568 127.527 83.7044 127.527 85.4492V95H121.355V75H127.527V78.7109H127.605C128.087 77.3568 128.764 76.3411 129.637 75.6641C130.522 74.987 131.603 74.6484 132.879 74.6484C133.165 74.6484 133.445 74.668 133.719 74.707C134.005 74.7461 134.298 74.7982 134.598 74.8633L133.973 80.1172ZM155.066 77.4805C155.965 78.4049 156.635 79.4727 157.078 80.6836C157.521 81.8815 157.742 83.2292 157.742 84.7266C157.742 88.0469 156.766 90.6706 154.812 92.5977C152.872 94.5247 150.21 95.4883 146.824 95.4883C143.491 95.4883 140.867 94.5573 138.953 92.6953C137.052 90.8203 136.102 88.2812 136.102 85.0781C136.102 81.7708 137.091 79.1862 139.07 77.3242C141.049 75.4492 143.725 74.5117 147.098 74.5117C147.54 74.5117 148.009 74.5378 148.504 74.5898C149.012 74.6289 149.539 74.7005 150.086 74.8047C150.464 74.8698 150.828 74.9219 151.18 74.9609C151.544 74.987 151.896 75 152.234 75C153.393 75 154.259 74.7721 154.832 74.3164C155.405 73.8477 155.691 73.1576 155.691 72.2461C155.691 71.9206 155.659 71.5755 155.594 71.2109C155.542 70.8464 155.457 70.4688 155.34 70.0781H159.09C159.246 70.5208 159.357 70.957 159.422 71.3867C159.5 71.8164 159.539 72.2331 159.539 72.6367C159.539 74.1081 159.168 75.2474 158.426 76.0547C157.684 76.862 156.564 77.3372 155.066 77.4805ZM146.98 79.2383C145.522 79.2383 144.389 79.7396 143.582 80.7422C142.775 81.7448 142.371 83.1641 142.371 85C142.371 86.9141 142.755 88.3529 143.523 89.3164C144.305 90.2799 145.47 90.7617 147.02 90.7617C148.504 90.7617 149.611 90.2669 150.34 89.2773C151.082 88.2878 151.453 86.8099 151.453 84.8438C151.453 82.9688 151.082 81.569 150.34 80.6445C149.598 79.707 148.478 79.2383 146.98 79.2383ZM146.844 102.656C145.971 102.656 145.249 102.396 144.676 101.875C144.116 101.354 143.836 100.723 143.836 99.9805C143.836 99.1992 144.122 98.5612 144.695 98.0664C145.268 97.5846 145.984 97.3438 146.844 97.3438C147.716 97.3438 148.426 97.5911 148.973 98.0859C149.533 98.5807 149.812 99.2122 149.812 99.9805C149.812 100.749 149.533 101.387 148.973 101.895C148.426 102.402 147.716 102.656 146.844 102.656ZM63.1719 148L60.0273 145.051C58.4779 146.249 56.9414 147.115 55.418 147.648C53.8945 148.182 52.1562 148.449 50.2031 148.449C47.1432 148.449 44.6172 147.72 42.625 146.262C40.6328 144.803 39.6367 142.674 39.6367 139.875C39.6367 137.909 40.2031 136.32 41.3359 135.109C42.4818 133.885 44.0378 132.798 46.0039 131.848C44.9492 130.754 44.181 129.758 43.6992 128.859C43.2305 127.961 42.9961 126.991 42.9961 125.949C42.9961 123.879 43.7904 122.29 45.3789 121.184C46.9674 120.077 49.0052 119.523 51.4922 119.523C53.888 119.523 55.8346 120.09 57.332 121.223C58.8424 122.355 59.5977 123.82 59.5977 125.617C59.5977 126.984 59.2135 128.189 58.4453 129.23C57.6771 130.259 56.1276 131.32 53.7969 132.414L60.3789 138.391C61.3294 137.206 61.9674 136.014 62.293 134.816C62.6185 133.605 62.7812 132.271 62.7812 130.812H68.25C68.25 132.792 67.918 134.634 67.2539 136.34C66.6029 138.046 65.4701 139.777 63.8555 141.535L70.9844 148H63.1719ZM50.8281 129.719C51.9219 129.25 52.7422 128.755 53.2891 128.234C53.849 127.701 54.1289 126.971 54.1289 126.047C54.1289 125.279 53.862 124.686 53.3281 124.27C52.7943 123.853 52.1823 123.645 51.4922 123.645C50.6198 123.645 49.9102 123.892 49.3633 124.387C48.8164 124.868 48.543 125.454 48.543 126.145C48.543 126.73 48.7253 127.29 49.0898 127.824C49.4544 128.345 50.0339 128.977 50.8281 129.719ZM56.6094 141.848L49.0898 134.797C48.2174 135.292 47.4622 135.917 46.8242 136.672C46.1992 137.414 45.8867 138.397 45.8867 139.621C45.8867 140.884 46.3164 141.893 47.1758 142.648C48.0352 143.404 49.1484 143.781 50.5156 143.781C51.6745 143.781 52.7292 143.638 53.6797 143.352C54.6302 143.065 55.6068 142.564 56.6094 141.848ZM85.2422 148V136.555H82.0391V131.359H85.2422V119.992H95.1641C100.138 119.992 103.868 121.132 106.355 123.41C108.842 125.676 110.086 129.087 110.086 133.645C110.086 138.007 108.725 141.49 106.004 144.094C103.296 146.698 99.6823 148 95.1641 148H85.2422ZM91.5508 125.129V131.359H96.8438V136.555H91.5508V142.883H94.6758C97.4102 142.883 99.5521 142.062 101.102 140.422C102.664 138.781 103.445 136.548 103.445 133.723C103.445 131.053 102.671 128.957 101.121 127.434C99.5846 125.897 97.4232 125.129 94.6367 125.129H91.5508ZM123.66 148.488C120.327 148.488 117.703 147.551 115.789 145.676C113.875 143.801 112.924 141.268 112.938 138.078C112.951 134.771 113.94 132.186 115.906 130.324C117.885 128.449 120.561 127.512 123.934 127.512C127.254 127.512 129.858 128.443 131.746 130.305C133.634 132.167 134.578 134.641 134.578 137.727C134.578 141.034 133.602 143.658 131.648 145.598C129.708 147.525 127.046 148.488 123.66 148.488ZM123.855 143.762C125.34 143.762 126.447 143.267 127.176 142.277C127.918 141.288 128.289 139.81 128.289 137.844C128.289 135.982 127.918 134.582 127.176 133.645C126.434 132.707 125.314 132.238 123.816 132.238C122.358 132.238 121.225 132.746 120.418 133.762C119.611 134.764 119.207 136.177 119.207 138C119.207 139.927 119.591 141.372 120.359 142.336C121.141 143.286 122.306 143.762 123.855 143.762ZM116.863 124.836L121.316 119.953H125.984L130.438 124.836H126.512L123.758 122.141L120.789 124.836H116.863ZM114.832 121.867L109.676 117.062H115.145L118.68 121.867H114.832ZM157.898 148H151.746V136.887C151.746 135.337 151.466 134.178 150.906 133.41C150.359 132.629 149.533 132.238 148.426 132.238C147.358 132.238 146.479 132.648 145.789 133.469C145.099 134.289 144.754 135.331 144.754 136.594V148H138.582V128H144.754V131.164H144.832C145.574 129.94 146.479 129.029 147.547 128.43C148.615 127.818 149.852 127.512 151.258 127.512C153.471 127.512 155.132 128.202 156.238 129.582C157.345 130.949 157.898 133.007 157.898 135.754V148ZM182.41 145.715C182.41 149.009 181.368 151.776 179.285 154.016C177.215 156.268 174.174 157.395 170.164 157.395C168.758 157.395 167.449 157.271 166.238 157.023C165.04 156.776 163.797 156.379 162.508 155.832L164.285 151.652C165.275 152.069 166.232 152.368 167.156 152.551C168.081 152.746 169.129 152.844 170.301 152.844C172.228 152.844 173.699 152.277 174.715 151.145C175.73 150.025 176.238 148.547 176.238 146.711V145.129H176.16C175.457 146.249 174.585 147.089 173.543 147.648C172.501 148.208 171.297 148.488 169.93 148.488C167.365 148.488 165.333 147.59 163.836 145.793C162.352 143.983 161.609 141.581 161.609 138.586C161.609 135.188 162.443 132.492 164.109 130.5C165.776 128.508 167.97 127.512 170.691 127.512C171.902 127.512 172.964 127.746 173.875 128.215C174.799 128.684 175.561 129.387 176.16 130.324H176.238V128H182.41V145.715ZM176.316 138.391V136.809C176.316 135.546 175.939 134.471 175.184 133.586C174.441 132.688 173.471 132.238 172.273 132.238C170.906 132.238 169.832 132.772 169.051 133.84C168.27 134.908 167.879 136.411 167.879 138.352C167.879 140.018 168.25 141.34 168.992 142.316C169.734 143.28 170.75 143.762 172.039 143.762C173.328 143.762 174.363 143.273 175.145 142.297C175.926 141.307 176.316 140.005 176.316 138.391ZM217.82 148H211.668V136.633C211.668 135.161 211.401 134.061 210.867 133.332C210.333 132.603 209.533 132.238 208.465 132.238C207.371 132.238 206.486 132.648 205.809 133.469C205.132 134.289 204.793 135.331 204.793 136.594V148H198.621V118.391H204.793V130.969H204.871C205.626 129.81 206.518 128.944 207.547 128.371C208.576 127.798 209.734 127.512 211.023 127.512C213.289 127.512 214.988 128.195 216.121 129.562C217.254 130.93 217.82 132.98 217.82 135.715V148ZM239.363 148H233.523V145.129H233.445C232.781 146.249 231.948 147.089 230.945 147.648C229.956 148.208 228.829 148.488 227.566 148.488C225.835 148.488 224.344 147.961 223.094 146.906C221.857 145.839 221.238 144.348 221.238 142.434C221.238 140.585 221.85 139.074 223.074 137.902C224.311 136.73 226.238 135.969 228.855 135.617L233.562 134.992V134.602C233.562 133.651 233.257 132.935 232.645 132.453C232.033 131.958 231.186 131.711 230.105 131.711C229.285 131.711 228.367 131.848 227.352 132.121C226.349 132.395 225.327 132.831 224.285 133.43L222.195 129.777C223.562 128.983 224.917 128.41 226.258 128.059C227.612 127.694 229.083 127.512 230.672 127.512C233.654 127.512 235.848 128.221 237.254 129.641C238.66 131.06 239.363 133.195 239.363 136.047V148ZM233.562 139.875V138.527L229.93 138.996C228.927 139.126 228.172 139.432 227.664 139.914C227.169 140.383 226.922 140.982 226.922 141.711C226.922 142.414 227.163 142.993 227.645 143.449C228.139 143.892 228.803 144.113 229.637 144.113C230.796 144.113 231.74 143.716 232.469 142.922C233.198 142.115 233.562 141.099 233.562 139.875ZM235.32 124.836H230.887L224.754 118.527H230.242L235.32 124.836ZM263.562 148H257.41V136.887C257.41 135.337 257.13 134.178 256.57 133.41C256.023 132.629 255.197 132.238 254.09 132.238C253.022 132.238 252.143 132.648 251.453 133.469C250.763 134.289 250.418 135.331 250.418 136.594V148H244.246V128H250.418V131.164H250.496C251.238 129.94 252.143 129.029 253.211 128.43C254.279 127.818 255.516 127.512 256.922 127.512C259.135 127.512 260.796 128.202 261.902 129.582C263.009 130.949 263.562 133.007 263.562 135.754V148ZM287.664 148H281.512V136.633C281.512 135.161 281.245 134.061 280.711 133.332C280.177 132.603 279.376 132.238 278.309 132.238C277.215 132.238 276.329 132.648 275.652 133.469C274.975 134.289 274.637 135.331 274.637 136.594V148H268.465V118.391H274.637V130.969H274.715C275.47 129.81 276.362 128.944 277.391 128.371C278.419 127.798 279.578 127.512 280.867 127.512C283.133 127.512 284.832 128.195 285.965 129.562C287.098 130.93 287.664 132.98 287.664 135.715V148Z" fill="#1D6495"/>
</svg>
