<svg width="775" height="144" viewBox="0 0 775 144" fill="none" xmlns="http://www.w3.org/2000/svg">
<g filter="url(#filter0_d_182_178)">
<rect x="4" width="767" height="136" rx="20" fill="#1D6495"/>
</g>
<path d="M211.743 60.4111H201.758V89H193.848V60.4111H183.911V53.9902H211.743V60.4111ZM227.539 70.3965C227.23 70.3314 226.912 70.2826 226.587 70.25C226.261 70.2174 225.903 70.2012 225.513 70.2012C223.478 70.2012 221.965 70.8034 220.972 72.0078C219.979 73.196 219.482 74.8805 219.482 77.0615V89H211.768V64H219.482V68.6387H219.58C220.182 66.946 221.029 65.6764 222.119 64.8301C223.226 63.9837 224.577 63.5605 226.172 63.5605C226.53 63.5605 226.88 63.585 227.222 63.6338C227.58 63.6826 227.946 63.7477 228.32 63.8291L227.539 70.3965ZM255.444 89H247.754V85.1914H247.632C246.688 86.6562 245.573 87.763 244.287 88.5117C243.018 89.2441 241.585 89.6104 239.99 89.6104C237.093 89.6104 234.92 88.7314 233.472 86.9736C232.023 85.2158 231.299 82.5872 231.299 79.0879V64H238.989V78.4043C238.989 80.1621 239.339 81.4886 240.039 82.3838C240.739 83.2627 241.789 83.7021 243.188 83.7021C244.572 83.7021 245.679 83.222 246.509 82.2617C247.339 81.2852 247.754 79.9668 247.754 78.3066V64H254.785C255.811 64 256.576 63.6989 257.08 63.0967C257.585 62.4945 257.837 61.5911 257.837 60.3867C257.837 60.0286 257.796 59.638 257.715 59.2148C257.65 58.7917 257.544 58.3359 257.397 57.8477H261.89C262.02 58.2383 262.118 58.6696 262.183 59.1416C262.248 59.6136 262.28 60.1344 262.28 60.7041C262.28 62.6084 261.678 64.1546 260.474 65.3428C259.285 66.5146 257.609 67.1576 255.444 67.2715V89ZM287.305 67.1006C288.428 68.2562 289.266 69.5908 289.819 71.1045C290.373 72.6019 290.649 74.2865 290.649 76.1582C290.649 80.3086 289.429 83.5882 286.987 85.9971C284.562 88.4059 281.234 89.6104 277.002 89.6104C272.835 89.6104 269.556 88.4466 267.163 86.1191C264.787 83.7754 263.599 80.6016 263.599 76.5977C263.599 72.4635 264.836 69.2327 267.31 66.9053C269.784 64.5615 273.128 63.3896 277.344 63.3896C277.897 63.3896 278.483 63.4222 279.102 63.4873C279.736 63.5361 280.396 63.6257 281.079 63.7559C281.551 63.8372 282.007 63.9023 282.446 63.9512C282.902 63.9837 283.341 64 283.765 64C285.213 64 286.296 63.7152 287.012 63.1455C287.728 62.5596 288.086 61.6969 288.086 60.5576C288.086 60.1507 288.045 59.7194 287.964 59.2637C287.899 58.8079 287.793 58.3359 287.646 57.8477H292.334C292.529 58.401 292.668 58.9463 292.749 59.4834C292.847 60.0205 292.896 60.5413 292.896 61.0459C292.896 62.8851 292.432 64.3092 291.504 65.3184C290.576 66.3275 289.176 66.9215 287.305 67.1006ZM277.197 69.2979C275.374 69.2979 273.958 69.9245 272.949 71.1777C271.94 72.431 271.436 74.2051 271.436 76.5C271.436 78.8926 271.916 80.6911 272.876 81.8955C273.853 83.0999 275.309 83.7021 277.246 83.7021C279.102 83.7021 280.485 83.0837 281.396 81.8467C282.324 80.6097 282.788 78.7624 282.788 76.3047C282.788 73.9609 282.324 72.2113 281.396 71.0557C280.469 69.8838 279.069 69.2979 277.197 69.2979ZM282.886 60.0449H277.344L269.678 52.1592H276.538L282.886 60.0449ZM320.728 89H313.037V75.1084C313.037 73.1715 312.687 71.723 311.987 70.7627C311.304 69.7861 310.27 69.2979 308.887 69.2979C307.552 69.2979 306.453 69.8105 305.591 70.8359C304.728 71.8613 304.297 73.1634 304.297 74.7422V89H296.582V64H304.297V67.9551H304.395C305.322 66.4251 306.453 65.2858 307.788 64.5371C309.123 63.7721 310.669 63.3896 312.427 63.3896C315.194 63.3896 317.269 64.2523 318.652 65.9775C320.036 67.6865 320.728 70.2581 320.728 73.6924V89ZM351.367 86.1436C351.367 90.2614 350.065 93.7201 347.461 96.5195C344.873 99.3353 341.073 100.743 336.06 100.743C334.302 100.743 332.666 100.589 331.152 100.279C329.655 99.9701 328.101 99.4736 326.489 98.79L328.711 93.5654C329.948 94.0863 331.144 94.4606 332.3 94.6885C333.455 94.9326 334.766 95.0547 336.23 95.0547C338.639 95.0547 340.479 94.3467 341.748 92.9307C343.018 91.5309 343.652 89.6836 343.652 87.3887V85.4111H343.555C342.676 86.8109 341.585 87.8607 340.283 88.5605C338.981 89.2604 337.476 89.6104 335.767 89.6104C332.56 89.6104 330.021 88.4873 328.149 86.2412C326.294 83.9788 325.366 80.9759 325.366 77.2324C325.366 72.9844 326.408 69.6152 328.491 67.125C330.575 64.6348 333.317 63.3896 336.719 63.3896C338.232 63.3896 339.559 63.6826 340.698 64.2686C341.854 64.8545 342.806 65.7334 343.555 66.9053H343.652V64H351.367V86.1436ZM343.75 76.9883V75.0107C343.75 73.432 343.278 72.0892 342.334 70.9824C341.406 69.8594 340.194 69.2979 338.696 69.2979C336.987 69.2979 335.645 69.9652 334.668 71.2998C333.691 72.6344 333.203 74.5143 333.203 76.9395C333.203 79.0228 333.667 80.6748 334.595 81.8955C335.522 83.0999 336.792 83.7021 338.403 83.7021C340.015 83.7021 341.309 83.0918 342.285 81.8711C343.262 80.6341 343.75 79.0065 343.75 76.9883ZM411.328 89H403.638V74.7422C403.638 72.9193 403.304 71.5602 402.637 70.665C401.969 69.7536 400.968 69.2979 399.634 69.2979C398.364 69.2979 397.331 69.8431 396.533 70.9336C395.736 72.0241 395.337 73.3831 395.337 75.0107V89H387.622V74.5957C387.622 72.8216 387.297 71.4951 386.646 70.6162C385.994 69.7373 385.01 69.2979 383.691 69.2979C382.373 69.2979 381.315 69.8187 380.518 70.8604C379.736 71.902 379.346 73.318 379.346 75.1084V89H371.631V64H379.346V67.9062H379.443C380.241 66.5716 381.356 65.4893 382.788 64.6592C384.237 63.8128 385.815 63.3896 387.524 63.3896C389.299 63.3896 390.788 63.7803 391.992 64.5615C393.197 65.3265 394.124 66.4902 394.775 68.0527C395.736 66.4902 396.916 65.3265 398.315 64.5615C399.715 63.7803 401.335 63.3896 403.174 63.3896C405.892 63.3896 407.926 64.2279 409.277 65.9043C410.645 67.5807 411.328 70.0954 411.328 73.4482V89ZM438.232 89H430.933V85.4111H430.835C430.005 86.8109 428.963 87.8607 427.71 88.5605C426.473 89.2604 425.065 89.6104 423.486 89.6104C421.322 89.6104 419.458 88.9512 417.896 87.6328C416.349 86.2982 415.576 84.4346 415.576 82.042C415.576 79.7308 416.341 77.8428 417.871 76.3779C419.417 74.9131 421.826 73.9609 425.098 73.5215L430.981 72.7402V72.252C430.981 71.0638 430.599 70.1686 429.834 69.5664C429.069 68.9479 428.011 68.6387 426.66 68.6387C425.635 68.6387 424.487 68.8096 423.218 69.1514C421.965 69.4932 420.687 70.0384 419.385 70.7871L416.772 66.2217C418.481 65.2288 420.174 64.5127 421.851 64.0732C423.543 63.6175 425.382 63.3896 427.368 63.3896C431.095 63.3896 433.838 64.2767 435.596 66.0508C437.354 67.8249 438.232 70.4941 438.232 74.0586V89ZM430.981 78.8438V77.1592L426.44 77.7451C425.187 77.9079 424.243 78.2904 423.608 78.8926C422.99 79.4785 422.681 80.2272 422.681 81.1387C422.681 82.0176 422.982 82.7419 423.584 83.3115C424.202 83.8649 425.033 84.1416 426.074 84.1416C427.523 84.1416 428.703 83.6452 429.614 82.6523C430.526 81.6432 430.981 80.3737 430.981 78.8438ZM419.019 60.0449L424.585 53.9414H430.42L435.986 60.0449H431.079L427.637 56.6758L423.926 60.0449H419.019ZM416.479 56.334L410.034 50.3281H416.87L421.289 56.334H416.479ZM484.033 89H476.343V74.7422C476.343 72.9193 476.009 71.5602 475.342 70.665C474.674 69.7536 473.674 69.2979 472.339 69.2979C471.069 69.2979 470.036 69.8431 469.238 70.9336C468.441 72.0241 468.042 73.3831 468.042 75.0107V89H460.327V74.5957C460.327 72.8216 460.002 71.4951 459.351 70.6162C458.7 69.7373 457.715 69.2979 456.396 69.2979C455.078 69.2979 454.02 69.8187 453.223 70.8604C452.441 71.902 452.051 73.318 452.051 75.1084V89H444.336V64H452.051V67.9062H452.148C452.946 66.5716 454.061 65.4893 455.493 64.6592C456.942 63.8128 458.521 63.3896 460.229 63.3896C462.004 63.3896 463.493 63.7803 464.697 64.5615C465.902 65.3265 466.829 66.4902 467.48 68.0527C468.441 66.4902 469.621 65.3265 471.021 64.5615C472.42 63.7803 474.04 63.3896 475.879 63.3896C478.597 63.3896 480.632 64.2279 481.982 65.9043C483.35 67.5807 484.033 70.0954 484.033 73.4482V89ZM528.101 89H520.41V75.1084C520.41 73.1715 520.06 71.723 519.36 70.7627C518.677 69.7861 517.643 69.2979 516.26 69.2979C514.925 69.2979 513.826 69.8105 512.964 70.8359C512.101 71.8613 511.67 73.1634 511.67 74.7422V89H503.955V64H511.67V67.9551H511.768C512.695 66.4251 513.826 65.2858 515.161 64.5371C516.496 63.7721 518.042 63.3896 519.8 63.3896C522.567 63.3896 524.642 64.2523 526.025 65.9775C527.409 67.6865 528.101 70.2581 528.101 73.6924V89ZM546.143 89.6104C541.976 89.6104 538.696 88.4385 536.304 86.0947C533.911 83.751 532.723 80.5853 532.739 76.5977C532.756 72.4635 533.993 69.2327 536.45 66.9053C538.924 64.5615 542.269 63.3896 546.484 63.3896C550.635 63.3896 553.89 64.5534 556.25 66.8809C558.61 69.2083 559.79 72.3008 559.79 76.1582C559.79 80.2923 558.569 83.5719 556.128 85.9971C553.703 88.4059 550.374 89.6104 546.143 89.6104ZM546.387 83.7021C548.242 83.7021 549.626 83.0837 550.537 81.8467C551.465 80.6097 551.929 78.7624 551.929 76.3047C551.929 73.9772 551.465 72.2275 550.537 71.0557C549.609 69.8838 548.21 69.2979 546.338 69.2979C544.515 69.2979 543.099 69.9326 542.09 71.2021C541.081 72.4554 540.576 74.2214 540.576 76.5C540.576 78.9089 541.056 80.7155 542.017 81.9199C542.993 83.1081 544.45 83.7021 546.387 83.7021ZM588.94 89H581.25V75.1084C581.25 73.1715 580.9 71.723 580.2 70.7627C579.517 69.7861 578.483 69.2979 577.1 69.2979C575.765 69.2979 574.666 69.8105 573.804 70.8359C572.941 71.8613 572.51 73.1634 572.51 74.7422V89H564.795V64H572.51V67.9551H572.607C573.535 66.4251 574.666 65.2858 576.001 64.5371C577.336 63.7721 578.882 63.3896 580.64 63.3896C583.407 63.3896 585.482 64.2523 586.865 65.9775C588.249 67.6865 588.94 70.2581 588.94 73.6924V89Z" fill="white"/>
<defs>
<filter id="filter0_d_182_178" x="0" y="0" width="775" height="144" filterUnits="userSpaceOnUse" color-interpolation-filters="sRGB">
<feFlood flood-opacity="0" result="BackgroundImageFix"/>
<feColorMatrix in="SourceAlpha" type="matrix" values="0 0 0 0 0 0 0 0 0 0 0 0 0 0 0 0 0 0 127 0" result="hardAlpha"/>
<feOffset dy="4"/>
<feGaussianBlur stdDeviation="2"/>
<feComposite in2="hardAlpha" operator="out"/>
<feColorMatrix type="matrix" values="0 0 0 0 0 0 0 0 0 0 0 0 0 0 0 0 0 0 0.25 0"/>
<feBlend mode="normal" in2="BackgroundImageFix" result="effect1_dropShadow_182_178"/>
<feBlend mode="normal" in="SourceGraphic" in2="effect1_dropShadow_182_178" result="shape"/>
</filter>
</defs>
</svg>
