<svg width="775" height="144" viewBox="0 0 775 144" fill="none" xmlns="http://www.w3.org/2000/svg">
<g filter="url(#filter0_d_182_179)">
<rect x="4" width="767" height="136" rx="20" fill="#67AC2F"/>
</g>
<path d="M200 59.4111H190.015V88H182.104V59.4111H172.168V52.9902H200V59.4111ZM215.796 69.3965C215.487 69.3314 215.169 69.2826 214.844 69.25C214.518 69.2174 214.16 69.2012 213.77 69.2012C211.735 69.2012 210.221 69.8034 209.229 71.0078C208.236 72.196 207.739 73.8805 207.739 76.0615V88H200.024V63H207.739V67.6387H207.837C208.439 65.946 209.285 64.6764 210.376 63.8301C211.483 62.9837 212.834 62.5605 214.429 62.5605C214.787 62.5605 215.137 62.585 215.479 62.6338C215.837 62.6826 216.203 62.7477 216.577 62.8291L215.796 69.3965ZM243.701 88H236.011V84.1914H235.889C234.945 85.6562 233.83 86.763 232.544 87.5117C231.274 88.2441 229.842 88.6104 228.247 88.6104C225.35 88.6104 223.177 87.7314 221.729 85.9736C220.28 84.2158 219.556 81.5872 219.556 78.0879V63H227.246V77.4043C227.246 79.1621 227.596 80.4886 228.296 81.3838C228.996 82.2627 230.046 82.7021 231.445 82.7021C232.829 82.7021 233.936 82.222 234.766 81.2617C235.596 80.2852 236.011 78.9668 236.011 77.3066V63H243.042C244.067 63 244.832 62.6989 245.337 62.0967C245.841 61.4945 246.094 60.5911 246.094 59.3867C246.094 59.0286 246.053 58.638 245.972 58.2148C245.907 57.7917 245.801 57.3359 245.654 56.8477H250.146C250.277 57.2383 250.374 57.6696 250.439 58.1416C250.505 58.6136 250.537 59.1344 250.537 59.7041C250.537 61.6084 249.935 63.1546 248.73 64.3428C247.542 65.5146 245.866 66.1576 243.701 66.2715V88ZM275.562 66.1006C276.685 67.2562 277.523 68.5908 278.076 70.1045C278.63 71.6019 278.906 73.2865 278.906 75.1582C278.906 79.3086 277.686 82.5882 275.244 84.9971C272.819 87.4059 269.491 88.6104 265.259 88.6104C261.092 88.6104 257.812 87.4466 255.42 85.1191C253.044 82.7754 251.855 79.6016 251.855 75.5977C251.855 71.4635 253.092 68.2327 255.566 65.9053C258.04 63.5615 261.385 62.3896 265.601 62.3896C266.154 62.3896 266.74 62.4222 267.358 62.4873C267.993 62.5361 268.652 62.6257 269.336 62.7559C269.808 62.8372 270.264 62.9023 270.703 62.9512C271.159 62.9837 271.598 63 272.021 63C273.47 63 274.552 62.7152 275.269 62.1455C275.985 61.5596 276.343 60.6969 276.343 59.5576C276.343 59.1507 276.302 58.7194 276.221 58.2637C276.156 57.8079 276.05 57.3359 275.903 56.8477H280.591C280.786 57.401 280.924 57.9463 281.006 58.4834C281.104 59.0205 281.152 59.5413 281.152 60.0459C281.152 61.8851 280.688 63.3092 279.761 64.3184C278.833 65.3275 277.433 65.9215 275.562 66.1006ZM265.454 68.2979C263.631 68.2979 262.215 68.9245 261.206 70.1777C260.197 71.431 259.692 73.2051 259.692 75.5C259.692 77.8926 260.173 79.6911 261.133 80.8955C262.109 82.0999 263.566 82.7021 265.503 82.7021C267.358 82.7021 268.742 82.0837 269.653 80.8467C270.581 79.6097 271.045 77.7624 271.045 75.3047C271.045 72.9609 270.581 71.2113 269.653 70.0557C268.726 68.8838 267.326 68.2979 265.454 68.2979ZM271.143 59.0449H265.601L257.935 51.1592H264.795L271.143 59.0449ZM308.984 88H301.294V74.1084C301.294 72.1715 300.944 70.723 300.244 69.7627C299.561 68.7861 298.527 68.2979 297.144 68.2979C295.809 68.2979 294.71 68.8105 293.848 69.8359C292.985 70.8613 292.554 72.1634 292.554 73.7422V88H284.839V63H292.554V66.9551H292.651C293.579 65.4251 294.71 64.2858 296.045 63.5371C297.38 62.7721 298.926 62.3896 300.684 62.3896C303.451 62.3896 305.526 63.2523 306.909 64.9775C308.293 66.6865 308.984 69.2581 308.984 72.6924V88ZM339.624 85.1436C339.624 89.2614 338.322 92.7201 335.718 95.5195C333.13 98.3353 329.329 99.7432 324.316 99.7432C322.559 99.7432 320.923 99.5885 319.409 99.2793C317.912 98.9701 316.357 98.4736 314.746 97.79L316.968 92.5654C318.205 93.0863 319.401 93.4606 320.557 93.6885C321.712 93.9326 323.022 94.0547 324.487 94.0547C326.896 94.0547 328.735 93.3467 330.005 91.9307C331.274 90.5309 331.909 88.6836 331.909 86.3887V84.4111H331.812C330.933 85.8109 329.842 86.8607 328.54 87.5605C327.238 88.2604 325.732 88.6104 324.023 88.6104C320.817 88.6104 318.278 87.4873 316.406 85.2412C314.551 82.9788 313.623 79.9759 313.623 76.2324C313.623 71.9844 314.665 68.6152 316.748 66.125C318.831 63.6348 321.574 62.3896 324.976 62.3896C326.489 62.3896 327.816 62.6826 328.955 63.2686C330.111 63.8545 331.063 64.7334 331.812 65.9053H331.909V63H339.624V85.1436ZM332.007 75.9883V74.0107C332.007 72.432 331.535 71.0892 330.591 69.9824C329.663 68.8594 328.451 68.2979 326.953 68.2979C325.244 68.2979 323.901 68.9652 322.925 70.2998C321.948 71.6344 321.46 73.5143 321.46 75.9395C321.46 78.0228 321.924 79.6748 322.852 80.8955C323.779 82.0999 325.049 82.7021 326.66 82.7021C328.271 82.7021 329.565 82.0918 330.542 80.8711C331.519 79.6341 332.007 78.0065 332.007 75.9883ZM367.7 85.0947H367.603V99.499H359.888V63H367.603V66.7598H367.7C368.644 65.2949 369.784 64.2044 371.118 63.4883C372.469 62.7559 374.007 62.3896 375.732 62.3896C378.955 62.3896 381.453 63.5046 383.228 65.7344C385.002 67.9479 385.889 70.9671 385.889 74.792C385.889 78.9587 384.855 82.3034 382.788 84.8262C380.721 87.349 377.987 88.6104 374.585 88.6104C373.071 88.6104 371.745 88.3174 370.605 87.7314C369.466 87.1455 368.498 86.2666 367.7 85.0947ZM367.48 74.8408V76.8428C367.48 78.568 367.936 79.9759 368.848 81.0664C369.759 82.1569 370.955 82.7021 372.437 82.7021C374.194 82.7021 375.553 82.0267 376.514 80.6758C377.49 79.3086 377.979 77.3799 377.979 74.8896C377.979 72.6924 377.547 71.0485 376.685 69.958C375.838 68.8512 374.561 68.2979 372.852 68.2979C371.273 68.2979 369.979 68.9001 368.97 70.1045C367.977 71.2926 367.48 72.8714 367.48 74.8408ZM414.893 88H407.202V73.791C407.202 71.9518 406.868 70.5765 406.201 69.665C405.534 68.7536 404.533 68.2979 403.198 68.2979C401.831 68.2979 400.724 68.8105 399.878 69.8359C399.032 70.8613 398.608 72.1634 398.608 73.7422V88H390.894V50.9883H398.608V66.7109H398.706C399.65 65.2624 400.765 64.18 402.051 63.4639C403.337 62.7477 404.785 62.3896 406.396 62.3896C409.229 62.3896 411.353 63.2441 412.769 64.9531C414.185 66.6621 414.893 69.2256 414.893 72.6436V88ZM432.935 88.6104C428.768 88.6104 425.488 87.4385 423.096 85.0947C420.703 82.751 419.515 79.5853 419.531 75.5977C419.548 71.4635 420.785 68.2327 423.242 65.9053C425.716 63.5615 429.061 62.3896 433.276 62.3896C437.427 62.3896 440.682 63.5534 443.042 65.8809C445.402 68.2083 446.582 71.3008 446.582 75.1582C446.582 79.2923 445.361 82.5719 442.92 84.9971C440.495 87.4059 437.166 88.6104 432.935 88.6104ZM433.179 82.7021C435.034 82.7021 436.418 82.0837 437.329 80.8467C438.257 79.6097 438.721 77.7624 438.721 75.3047C438.721 72.9772 438.257 71.2275 437.329 70.0557C436.401 68.8838 435.002 68.2979 433.13 68.2979C431.307 68.2979 429.891 68.9326 428.882 70.2021C427.873 71.4554 427.368 73.2214 427.368 75.5C427.368 77.9089 427.848 79.7155 428.809 80.9199C429.785 82.1081 431.242 82.7021 433.179 82.7021ZM440.21 55.9443V52.8926C441.17 52.8275 441.886 52.6647 442.358 52.4043C442.847 52.1439 443.091 51.7858 443.091 51.3301C443.091 50.8743 442.92 50.5407 442.578 50.3291C442.253 50.1012 441.756 49.9873 441.089 49.9873C440.796 49.9873 440.527 49.9954 440.283 50.0117C440.055 50.028 439.746 50.0768 439.355 50.1582L438.916 47.4971C439.551 47.3994 440.088 47.3343 440.527 47.3018C440.983 47.2692 441.471 47.2529 441.992 47.2529C443.701 47.2529 444.979 47.5703 445.825 48.2051C446.672 48.8398 447.095 49.8001 447.095 51.0859C447.095 52.0951 446.802 52.9089 446.216 53.5273C445.646 54.1296 444.775 54.5365 443.604 54.748V55.9443H440.21ZM424.707 59.6309L430.249 53.0635H436.108L441.65 59.6309H436.743L433.057 55.7979L429.59 59.6309H424.707ZM481.03 87.6094C480.249 87.9349 479.37 88.179 478.394 88.3418C477.433 88.5208 476.457 88.6104 475.464 88.6104C472.729 88.6104 470.671 87.9512 469.287 86.6328C467.904 85.3145 467.212 83.3451 467.212 80.7246V68.6885H463.159V63H467.212V56.9453L474.902 54.748V63H480.518V68.6885H474.902V80.2363C474.902 81.1966 475.09 81.8965 475.464 82.3359C475.838 82.7591 476.44 82.9707 477.271 82.9707C477.677 82.9707 478.068 82.9219 478.442 82.8242C478.817 82.7103 479.175 82.5719 479.517 82.4092L481.03 87.6094ZM508.887 88H501.196V73.791C501.196 71.9518 500.863 70.5765 500.195 69.665C499.528 68.7536 498.527 68.2979 497.192 68.2979C495.825 68.2979 494.718 68.8105 493.872 69.8359C493.026 70.8613 492.603 72.1634 492.603 73.7422V88H484.888V50.9883H492.603V66.7109H492.7C493.644 65.2624 494.759 64.18 496.045 63.4639C497.331 62.7477 498.779 62.3896 500.391 62.3896C503.223 62.3896 505.347 63.2441 506.763 64.9531C508.179 66.6621 508.887 69.2256 508.887 72.6436V88ZM526.929 88.6104C522.762 88.6104 519.482 87.4385 517.09 85.0947C514.697 82.751 513.509 79.5853 513.525 75.5977C513.542 71.4635 514.779 68.2327 517.236 65.9053C519.71 63.5615 523.055 62.3896 527.271 62.3896C531.421 62.3896 534.676 63.5534 537.036 65.8809C539.396 68.2083 540.576 71.3008 540.576 75.1582C540.576 79.2923 539.355 82.5719 536.914 84.9971C534.489 87.4059 531.16 88.6104 526.929 88.6104ZM527.173 82.7021C529.028 82.7021 530.412 82.0837 531.323 80.8467C532.251 79.6097 532.715 77.7624 532.715 75.3047C532.715 72.9772 532.251 71.2275 531.323 70.0557C530.396 68.8838 528.996 68.2979 527.124 68.2979C525.301 68.2979 523.885 68.9326 522.876 70.2021C521.867 71.4554 521.362 73.2214 521.362 75.5C521.362 77.9089 521.842 79.7155 522.803 80.9199C523.779 82.1081 525.236 82.7021 527.173 82.7021ZM523.462 59.0449H518.408L524.146 51.1104H530.2L535.962 59.0449H530.908L527.051 54.4551L523.462 59.0449ZM569.727 88H562.036V74.1084C562.036 72.1715 561.686 70.723 560.986 69.7627C560.303 68.7861 559.269 68.2979 557.886 68.2979C556.551 68.2979 555.452 68.8105 554.59 69.8359C553.727 70.8613 553.296 72.1634 553.296 73.7422V88H545.581V63H553.296V66.9551H553.394C554.321 65.4251 555.452 64.2858 556.787 63.5371C558.122 62.7721 559.668 62.3896 561.426 62.3896C564.193 62.3896 566.268 63.2523 567.651 64.9775C569.035 66.6865 569.727 69.2581 569.727 72.6924V88ZM600.366 85.1436C600.366 89.2614 599.064 92.7201 596.46 95.5195C593.872 98.3353 590.072 99.7432 585.059 99.7432C583.301 99.7432 581.665 99.5885 580.151 99.2793C578.654 98.9701 577.1 98.4736 575.488 97.79L577.71 92.5654C578.947 93.0863 580.143 93.4606 581.299 93.6885C582.454 93.9326 583.765 94.0547 585.229 94.0547C587.638 94.0547 589.478 93.3467 590.747 91.9307C592.017 90.5309 592.651 88.6836 592.651 86.3887V84.4111H592.554C591.675 85.8109 590.584 86.8607 589.282 87.5605C587.98 88.2604 586.475 88.6104 584.766 88.6104C581.559 88.6104 579.02 87.4873 577.148 85.2412C575.293 82.9788 574.365 79.9759 574.365 76.2324C574.365 71.9844 575.407 68.6152 577.49 66.125C579.574 63.6348 582.316 62.3896 585.718 62.3896C587.231 62.3896 588.558 62.6826 589.697 63.2686C590.853 63.8545 591.805 64.7334 592.554 65.9053H592.651V63H600.366V85.1436ZM592.749 75.9883V74.0107C592.749 72.432 592.277 71.0892 591.333 69.9824C590.405 68.8594 589.193 68.2979 587.695 68.2979C585.986 68.2979 584.644 68.9652 583.667 70.2998C582.69 71.6344 582.202 73.5143 582.202 75.9395C582.202 78.0228 582.666 79.6748 583.594 80.8955C584.521 82.0999 585.791 82.7021 587.402 82.7021C589.014 82.7021 590.308 82.0918 591.284 80.8711C592.261 79.6341 592.749 78.0065 592.749 75.9883Z" fill="white"/>
<defs>
<filter id="filter0_d_182_179" x="0" y="0" width="775" height="144" filterUnits="userSpaceOnUse" color-interpolation-filters="sRGB">
<feFlood flood-opacity="0" result="BackgroundImageFix"/>
<feColorMatrix in="SourceAlpha" type="matrix" values="0 0 0 0 0 0 0 0 0 0 0 0 0 0 0 0 0 0 127 0" result="hardAlpha"/>
<feOffset dy="4"/>
<feGaussianBlur stdDeviation="2"/>
<feComposite in2="hardAlpha" operator="out"/>
<feColorMatrix type="matrix" values="0 0 0 0 0 0 0 0 0 0 0 0 0 0 0 0 0 0 0.25 0"/>
<feBlend mode="normal" in2="BackgroundImageFix" result="effect1_dropShadow_182_179"/>
<feBlend mode="normal" in="SourceGraphic" in2="effect1_dropShadow_182_179" result="shape"/>
</filter>
</defs>
</svg>
