<svg width="742" height="756" viewBox="0 0 742 756" fill="none" xmlns="http://www.w3.org/2000/svg">
<path d="M-150.611 662.908L460.411 480.239C468.873 477.711 469.772 468.1 461.895 464.506L183.555 337.726L155.433 324.919C140.682 318.212 143.189 300.056 159.361 296.253L188.632 289.4L636.228 184.474C641.994 183.116 642.412 176.472 636.834 174.634L377.11 89.4521L376.734 89.3267C370.132 87.1538 370.424 79.3398 377.152 77.5011H377.173L660.861 0.0290527L414.467 79.6323C410.748 80.7605 410.853 85.1689 414.613 86.1718L719.759 167.948L731.877 171.186C745.311 174.78 745.395 190.513 732.002 194.232L718.923 197.846L301.853 313.26C294.728 315.224 294.122 323.414 300.912 326.089L609.568 448.022L656.285 466.47C672.687 472.947 671.976 492.482 655.157 498.145L605.222 514.943L-108.072 754.922C-110.726 755.821 -113.776 754.734 -114.8 752.499L-153.661 668.403C-154.685 666.21 -153.306 663.702 -150.611 662.908Z" fill="url(#paint0_linear_28_10189)"/>
<path d="M8.78357 660.505L28.5486 654.237L29.7186 657.915L9.95359 664.224L8.78357 660.505Z" fill="white"/>
<path d="M48.3134 647.949L68.0783 641.681L69.2275 645.295L49.4625 651.605L48.3134 647.949Z" fill="white"/>
<path d="M87.8433 635.392L107.608 629.103L108.736 632.655L88.9924 638.964L87.8433 635.392Z" fill="white"/>
<path d="M127.373 622.835L147.138 616.546L148.245 620.035L128.501 626.345L127.373 622.835Z" fill="white"/>
<path d="M166.904 610.278L186.669 603.99L187.755 607.395L168.011 613.726L166.904 610.278Z" fill="white"/>
<path d="M206.454 597.7L226.219 591.432L227.285 594.775L207.52 601.085L206.454 597.7Z" fill="white"/>
<path d="M245.984 585.144L265.749 578.876L266.794 582.135L247.029 588.466L245.984 585.144Z" fill="white"/>
<path d="M285.515 572.587L305.28 566.319L306.304 569.516L286.539 575.825L285.515 572.587Z" fill="white"/>
<path d="M325.044 560.03L344.809 553.741L345.812 556.875L326.068 563.206L325.044 560.03Z" fill="white"/>
<path d="M364.575 547.473L384.361 541.184L385.322 544.256L365.578 550.565L364.575 547.473Z" fill="white"/>
<path d="M404.126 534.916L423.891 528.627L424.831 531.636L405.087 537.946L404.126 534.916Z" fill="white"/>
<path d="M443.656 522.36L463.421 516.071L464.361 518.996L444.596 525.306L443.656 522.36Z" fill="white"/>
<path d="M483.186 509.782L502.951 503.514L503.87 506.376L484.105 512.686L483.186 509.782Z" fill="white"/>
<path d="M522.716 497.225L542.481 490.957L543.379 493.736L523.614 500.046L522.716 497.225Z" fill="white"/>
<path d="M562.245 484.668C563.833 484.229 565.003 483.54 565.964 482.453C566.905 481.388 567.469 479.988 567.594 478.567C567.719 477.126 567.427 475.663 566.717 474.43C566.006 473.198 564.899 472.216 563.562 471.61L564.732 468.998C566.549 469.813 568.179 471.213 569.182 472.989C570.206 474.765 570.624 476.833 570.436 478.818C570.247 480.824 569.454 482.788 568.116 484.334C566.821 485.88 564.836 486.966 563.102 487.426L562.245 484.668Z" fill="white"/>
<path d="M544.528 463.462L525.453 455.313L526.56 452.743L545.635 460.871L544.528 463.462Z" fill="white"/>
<path d="M506.398 447.144L487.323 438.995L488.388 436.509L507.464 444.636L506.398 447.144Z" fill="white"/>
<path d="M468.246 430.847L449.171 422.699L450.195 420.275L469.291 428.403L468.246 430.847Z" fill="white"/>
<path d="M430.096 414.55L411.021 406.402L412.023 404.041L431.12 412.168L430.096 414.55Z" fill="white"/>
<path d="M391.945 398.253L372.89 390.105L373.851 387.807L392.948 395.934L391.945 398.253Z" fill="white"/>
<path d="M353.814 381.957L334.739 373.808L335.679 371.573L354.775 379.7L353.814 381.957Z" fill="white"/>
<path d="M315.663 365.66L296.588 357.491L297.507 355.339L316.603 363.466L315.663 365.66Z" fill="white"/>
<path d="M277.512 349.343L258.458 341.194L259.335 339.105L278.432 347.232L277.512 349.343Z" fill="white"/>
<path d="M239.383 333.046L229.855 328.972L225.092 326.924C223.462 326.214 221.979 325.65 220.265 324.814L221.289 322.871C222.689 323.54 224.423 324.229 225.969 324.898L230.733 326.924L240.281 330.978L239.383 333.046Z" fill="white"/>
<path d="M218.573 305.551C220.056 304.36 221.978 303.649 223.671 303.273L228.685 301.999L238.735 299.429L239.257 301.497L229.207 304.088L224.193 305.383C222.501 305.759 221.143 306.303 219.889 307.285L218.573 305.551Z" fill="white"/>
<path d="M258.854 294.289L278.933 289.17L279.455 291.155L259.377 296.315L258.854 294.289Z" fill="white"/>
<path d="M299.032 284.03L319.131 278.912L319.633 280.834L299.534 285.994L299.032 284.03Z" fill="white"/>
<path d="M339.231 273.772L359.331 268.632L359.811 270.492L339.712 275.652L339.231 273.772Z" fill="white"/>
<path d="M379.43 263.513L399.508 258.373L399.968 260.149L379.889 265.331L379.43 263.513Z" fill="white"/>
<path d="M419.607 253.234L439.707 248.115L440.145 249.828L420.067 254.989L419.607 253.234Z" fill="white"/>
<path d="M459.806 242.975L479.906 237.836L480.324 239.486L460.245 244.647L459.806 242.975Z" fill="white"/>
<path d="M500.004 232.717L520.083 227.577L520.5 229.144L500.401 234.325L500.004 232.717Z" fill="white"/>
<path d="M540.182 222.458L560.281 217.318L560.678 218.823L540.579 223.983L540.182 222.458Z" fill="white"/>
<path d="M580.381 212.178L600.48 207.059L600.836 208.48L580.757 213.641L580.381 212.178Z" fill="white"/>
<path d="M620.579 201.92L640.678 196.78L641.013 198.138L620.934 203.32L620.579 201.92Z" fill="white"/>
<path d="M660.757 191.662L680.856 186.522L681.19 187.817L661.112 192.978L660.757 191.662Z" fill="white"/>
<path d="M688.086 174.78C687.418 174.383 686.645 174.195 685.788 173.944L683.302 173.213L678.329 171.75L668.384 168.825L668.739 167.613L678.684 170.538L683.657 172.001L686.143 172.732C686.937 172.962 687.877 173.192 688.713 173.693L688.086 174.78Z" fill="white"/>
<path d="M648.493 162.933L628.603 157.062L628.937 155.934L648.828 161.763L648.493 162.933Z" fill="white"/>
<path d="M608.691 151.212L588.801 145.341L589.114 144.276L609.025 150.105L608.691 151.212Z" fill="white"/>
<path d="M568.91 139.47L549.02 133.599L549.312 132.596L569.223 138.446L568.91 139.47Z" fill="white"/>
<path d="M529.129 127.749L509.239 121.878L509.511 120.938L529.401 126.767L529.129 127.749Z" fill="white"/>
<path d="M489.328 116.007L469.438 110.136L469.689 109.28L489.6 115.109L489.328 116.007Z" fill="white"/>
<path d="M449.548 104.265L429.657 98.4149L429.887 97.621L449.798 103.45L449.548 104.265Z" fill="white"/>
<path d="M409.767 92.5438L399.822 89.6187L397.336 88.8874C396.458 88.6158 395.644 88.198 394.933 87.613C393.512 86.422 392.698 84.6252 392.635 82.7866L393.387 82.7657C393.45 84.3954 394.181 85.9833 395.435 87.028C396.646 88.0935 398.401 88.3651 400.052 88.8874L409.997 91.8125L409.767 92.5438Z" fill="white"/>
<path d="M409.328 72.7579L429.302 67.1167L429.469 67.7226L409.516 73.4265L409.328 72.7579Z" fill="white"/>
<path d="M449.255 61.4758L469.208 55.8346L469.354 56.3151L449.401 62.019L449.255 61.4758Z" fill="white"/>
<path d="M489.161 50.1935L509.135 44.5524L509.218 44.9076L489.286 50.6114L489.161 50.1935Z" fill="white"/>
<path d="M529.088 38.9109L549.041 33.2698L549.103 33.4787L529.171 39.2034L529.088 38.9109Z" fill="white"/>
<path d="M568.994 27.6288L588.968 21.9877L588.988 22.0712L569.056 27.7751L568.994 27.6288Z" fill="white"/>
<path d="M608.921 16.3463L618.971 13.5049L608.921 16.3672V16.3463Z" fill="white"/>
<defs>
<linearGradient id="paint0_linear_28_10189" x1="589.13" y1="-1.16896" x2="200.516" y2="674.378" gradientUnits="userSpaceOnUse">
<stop stop-color="#A1BAC8"/>
<stop offset="1" stop-color="#506875"/>
</linearGradient>
</defs>
</svg>
