<svg width="463" height="664" viewBox="0 0 742 964" fill="none"
    xmlns="http://www.w3.org/2000/svg">

    <style>
    .pro__once:hover path{
        fill: #67AC2F;
        filter: drop-shadow(3px 5px 2px rgb(0 0 0 / 0.4));
    }
    .pro__once:hover rect{
        fill: #67AC2F;
        filter: drop-shadow(3px 5px 2px rgb(0 0 0 / 0.4));
    }

    .pro__once:hover .pro__text{
        fill: #fff;
    }

    .pro__once:hover rect{
        fill: #fff;
    }

    .pro__twice:hover path{
        fill: #1D6495;
        filter: drop-shadow(3px 5px 2px rgb(0 0 0 / 0.4));
    }

    .pro__twice:hover .pro__text{
        fill: #fff;
    }

    .pro__twice:hover rect{
        fill: #1D6495;
        filter: drop-shadow(3px 5px 2px rgb(0 0 0 / 0.4));
    }

    .pro__twice:hover rect{
        fill: #fff;
    }
    
    </style>


    <path d="M-150.611 870.908L460.411 688.239C468.873 685.711 469.772 676.1 461.895 672.506L183.555 545.726L155.433 532.919C140.682 526.212 143.189 508.056 159.361 504.253L188.632 497.4L636.228 392.474C641.994 391.116 642.412 384.472 636.834 382.634L377.11 297.452L376.734 297.327C370.132 295.154 370.424 287.34 377.152 285.501H377.173L660.861 208.029L414.467 287.632C410.748 288.76 410.853 293.169 414.613 294.172L719.759 375.948L731.877 379.186C745.311 382.78 745.395 398.513 732.002 402.232L718.923 405.846L301.853 521.26C294.728 523.224 294.122 531.414 300.912 534.089L609.568 656.022L656.285 674.47C672.687 680.947 671.976 700.482 655.157 706.145L605.222 722.943L-108.072 962.922C-110.726 963.821 -113.776 962.734 -114.8 960.499L-153.661 876.403C-154.685 874.21 -153.306 871.702 -150.611 870.908Z" fill="url(#paint0_linear_30_363)"/>
    <path d="M8.78357 868.505L28.5486 862.237L29.7186 865.915L9.95359 872.224L8.78357 868.505Z" fill="white"/>
    <path d="M48.3134 855.949L68.0783 849.681L69.2275 853.295L49.4625 859.605L48.3134 855.949Z" fill="white"/>
    <path d="M87.8433 843.392L107.608 837.103L108.736 840.655L88.9924 846.964L87.8433 843.392Z" fill="white"/>
    <path d="M127.373 830.835L147.138 824.546L148.245 828.035L128.501 834.345L127.373 830.835Z" fill="white"/>
    <path d="M166.904 818.278L186.669 811.99L187.755 815.395L168.011 821.726L166.904 818.278Z" fill="white"/>
    <path d="M206.454 805.7L226.219 799.432L227.285 802.775L207.52 809.085L206.454 805.7Z" fill="white"/>
    <path d="M245.984 793.144L265.749 786.876L266.794 790.135L247.029 796.466L245.984 793.144Z" fill="white"/>
    <path d="M285.515 780.587L305.28 774.319L306.304 777.516L286.539 783.825L285.515 780.587Z" fill="white"/>
    <path d="M325.044 768.03L344.809 761.741L345.812 764.875L326.068 771.206L325.044 768.03Z" fill="white"/>
    <path d="M364.575 755.473L384.361 749.184L385.322 752.256L365.578 758.565L364.575 755.473Z" fill="white"/>
    <path d="M404.126 742.916L423.891 736.627L424.831 739.636L405.087 745.946L404.126 742.916Z" fill="white"/>
    <path d="M443.656 730.36L463.421 724.071L464.361 726.996L444.596 733.306L443.656 730.36Z" fill="white"/>
    <path d="M483.186 717.782L502.951 711.514L503.87 714.376L484.105 720.686L483.186 717.782Z" fill="white"/>
    <path d="M522.716 705.225L542.481 698.957L543.379 701.736L523.614 708.046L522.716 705.225Z" fill="white"/>
    <path d="M562.245 692.668C563.833 692.229 565.003 691.54 565.964 690.453C566.905 689.388 567.469 687.988 567.594 686.567C567.719 685.126 567.427 683.663 566.717 682.43C566.006 681.198 564.899 680.216 563.562 679.61L564.732 676.998C566.549 677.813 568.179 679.213 569.182 680.989C570.206 682.765 570.624 684.833 570.436 686.818C570.247 688.824 569.454 690.788 568.116 692.334C566.821 693.88 564.836 694.966 563.102 695.426L562.245 692.668Z" fill="white"/>
    <path d="M544.528 671.462L525.453 663.313L526.56 660.743L545.635 668.871L544.528 671.462Z" fill="white"/>
    <path d="M506.398 655.144L487.323 646.995L488.388 644.509L507.464 652.636L506.398 655.144Z" fill="white"/>
    <path d="M468.246 638.847L449.171 630.699L450.195 628.275L469.291 636.403L468.246 638.847Z" fill="white"/>
    <path d="M430.096 622.55L411.021 614.402L412.023 612.041L431.12 620.168L430.096 622.55Z" fill="white"/>
    <path d="M391.945 606.253L372.89 598.105L373.851 595.807L392.948 603.934L391.945 606.253Z" fill="white"/>
    <path d="M353.814 589.957L334.739 581.808L335.679 579.573L354.775 587.7L353.814 589.957Z" fill="white"/>
    <path d="M315.663 573.66L296.588 565.491L297.507 563.339L316.603 571.466L315.663 573.66Z" fill="white"/>
    <path d="M277.512 557.343L258.458 549.194L259.335 547.105L278.432 555.232L277.512 557.343Z" fill="white"/>
    <path d="M239.383 541.046L229.855 536.972L225.092 534.924C223.462 534.214 221.979 533.65 220.265 532.814L221.289 530.871C222.689 531.54 224.423 532.229 225.969 532.898L230.733 534.924L240.281 538.978L239.383 541.046Z" fill="white"/>
    <path d="M218.573 513.551C220.056 512.36 221.978 511.649 223.671 511.273L228.685 509.999L238.735 507.429L239.257 509.497L229.207 512.088L224.193 513.383C222.501 513.759 221.143 514.303 219.889 515.285L218.573 513.551Z" fill="white"/>
    <path d="M258.854 502.289L278.933 497.17L279.455 499.155L259.377 504.315L258.854 502.289Z" fill="white"/>
    <path d="M299.032 492.03L319.131 486.912L319.633 488.834L299.534 493.994L299.032 492.03Z" fill="white"/>
    <path d="M339.231 481.772L359.331 476.632L359.811 478.492L339.712 483.652L339.231 481.772Z" fill="white"/>
    <path d="M379.43 471.513L399.508 466.373L399.968 468.149L379.889 473.331L379.43 471.513Z" fill="white"/>
    <path d="M419.607 461.234L439.707 456.115L440.145 457.828L420.067 462.989L419.607 461.234Z" fill="white"/>
    <path d="M459.806 450.975L479.906 445.836L480.324 447.486L460.245 452.647L459.806 450.975Z" fill="white"/>
    <path d="M500.004 440.717L520.083 435.577L520.5 437.144L500.401 442.325L500.004 440.717Z" fill="white"/>
    <path d="M540.182 430.458L560.281 425.318L560.678 426.823L540.579 431.983L540.182 430.458Z" fill="white"/>
    <path d="M580.381 420.178L600.48 415.059L600.836 416.48L580.757 421.641L580.381 420.178Z" fill="white"/>
    <path d="M620.579 409.92L640.678 404.78L641.013 406.138L620.934 411.32L620.579 409.92Z" fill="white"/>
    <path d="M660.757 399.662L680.856 394.522L681.19 395.817L661.112 400.978L660.757 399.662Z" fill="white"/>
    <path d="M688.086 382.78C687.418 382.383 686.645 382.195 685.788 381.944L683.302 381.213L678.329 379.75L668.384 376.825L668.739 375.613L678.684 378.538L683.657 380.001L686.143 380.732C686.937 380.962 687.877 381.192 688.713 381.693L688.086 382.78Z" fill="white"/>
    <path d="M648.493 370.933L628.603 365.062L628.937 363.934L648.828 369.763L648.493 370.933Z" fill="white"/>
    <path d="M608.691 359.212L588.801 353.341L589.114 352.276L609.025 358.105L608.691 359.212Z" fill="white"/>
    <path d="M568.91 347.47L549.02 341.599L549.312 340.596L569.223 346.446L568.91 347.47Z" fill="white"/>
    <path d="M529.129 335.749L509.239 329.878L509.511 328.938L529.401 334.767L529.129 335.749Z" fill="white"/>
    <path d="M489.328 324.007L469.438 318.136L469.689 317.28L489.6 323.109L489.328 324.007Z" fill="white"/>
    <path d="M449.548 312.265L429.657 306.415L429.887 305.621L449.798 311.45L449.548 312.265Z" fill="white"/>
    <path d="M409.767 300.544L399.822 297.619L397.336 296.887C396.458 296.616 395.644 296.198 394.933 295.613C393.512 294.422 392.698 292.625 392.635 290.787L393.387 290.766C393.45 292.395 394.181 293.983 395.435 295.028C396.646 296.094 398.401 296.365 400.052 296.887L409.997 299.813L409.767 300.544Z" fill="white"/>
    <path d="M409.328 280.758L429.302 275.117L429.469 275.723L409.516 281.426L409.328 280.758Z" fill="white"/>
    <path d="M449.255 269.476L469.208 263.835L469.354 264.315L449.401 270.019L449.255 269.476Z" fill="white"/>
    <path d="M489.161 258.194L509.135 252.552L509.218 252.908L489.286 258.611L489.161 258.194Z" fill="white"/>
    <path d="M529.088 246.911L549.041 241.27L549.103 241.479L529.171 247.203L529.088 246.911Z" fill="white"/>
    <path d="M568.994 235.629L588.968 229.988L588.988 230.071L569.056 235.775L568.994 235.629Z" fill="white"/>
    <path d="M608.921 224.346L618.971 221.505L608.921 224.367V224.346Z" fill="white"/>
    <path d="M155.896 643.554H146.116V837.17H155.896V643.554Z" fill="#67AC2F"/>

    <a class="pro__once" href="http://youcare.vn/hanh-trinh-1/" target="_blank">
        <rect x="152" y="506" width="476" height="127" rx="19" fill="white" stroke="#67AC2F" stroke-width="2"/>
        <path d="M150.992 650.984C196.275 650.984 232.984 614.275 232.984 568.992C232.984 523.709 196.275 487 150.992 487C105.709 487 69 523.709 69 568.992C69 614.275 105.709 650.984 150.992 650.984Z" fill="#67AC2F"/>
        <path d="M151.873 632.395C186.889 632.395 215.275 604.009 215.275 568.992C215.275 533.976 186.889 505.589 151.873 505.589C116.856 505.589 88.4697 533.976 88.4697 568.992C88.4697 604.009 116.856 632.395 151.873 632.395Z" fill="white"/>
        <path class="pro__text" d="M159.829 601H145.632V551.691C143.979 552.803 142.146 553.749 140.133 554.531C138.15 555.312 135.971 556.078 133.597 556.829L129.721 545.471C133.838 544.269 137.729 542.767 141.395 540.964C145.061 539.161 148.336 537.148 151.221 534.924H159.829V601Z" fill="#333333"/>
    </a>

    <a class="pro__twice" href="http://youcare.vn/hanh-trinh-2/" target="_blank">
        <rect x="119" y="21" width="476" height="127" rx="19" fill="white" stroke="#1D6495" stroke-width="2"/>
        <path d="M591.024 164.898C636.307 164.898 673.016 128.189 673.016 82.9063C673.016 37.6234 636.307 0.914307 591.024 0.914307C545.741 0.914307 509.032 37.6234 509.032 82.9063C509.032 128.189 545.741 164.898 591.024 164.898Z" fill="#1D6495"/>
        <path d="M591.904 146.309C626.921 146.309 655.307 117.923 655.307 82.9065C655.307 47.8901 626.921 19.5037 591.904 19.5037C556.888 19.5037 528.501 47.8901 528.501 82.9065C528.501 117.923 556.888 146.309 591.904 146.309Z" fill="white"/>

        <path class="pro__text" d="M570.634 112V107.132C570.634 103.827 571.19 100.867 572.302 98.253C573.413 95.6088 574.811 93.235 576.493 91.1316C578.176 89.0583 580.009 87.2254 581.992 85.6328C584.005 84.0102 585.913 82.5529 587.716 81.2608C589.609 79.9087 591.262 78.6166 592.674 77.3846C594.117 76.1526 595.319 74.9207 596.28 73.6887C597.272 72.4868 598.038 71.2248 598.579 69.9026C599.15 68.5805 599.435 67.0331 599.435 65.2602C599.435 62.9465 598.684 61.1286 597.181 59.8065C595.709 58.4844 593.726 57.8233 591.232 57.8233C588.948 57.8233 586.935 58.5745 585.192 60.0769C583.48 61.5793 582.007 63.6376 580.775 66.2518L569.327 61.5643C571.49 56.8468 574.54 53.1208 578.477 50.3864C582.443 47.652 587.281 46.2849 592.99 46.2849C599.33 46.2849 604.363 47.9525 608.089 51.2879C611.845 54.5932 613.723 59.0403 613.723 64.6292C613.723 67.604 613.257 70.2482 612.326 72.5619C611.424 74.8756 610.207 76.979 608.675 78.872C607.172 80.765 605.445 82.5379 603.492 84.1905C601.569 85.8131 599.54 87.3606 597.407 88.8329C596.055 89.8546 594.718 90.8462 593.395 91.8077C592.103 92.7392 590.977 93.6857 590.015 94.6472C588.993 95.6388 588.227 96.6004 587.716 97.5319C587.236 98.4633 586.995 99.3498 586.995 100.191H613.633V112H570.634Z" fill="#333333"/>
    </a>


    <g opacity="0.3">
        <path opacity="0.0137" d="M231.818 702.511C266.487 696.844 289.999 664.145 284.333 629.476C278.666 594.806 245.967 571.294 211.297 576.96C176.628 582.627 153.116 615.326 158.782 649.996C164.449 684.665 197.148 708.177 231.818 702.511Z" fill="#231F20"/>
    </g>

    <path d="M166.879 837.198C166.879 845.979 159.772 853.086 150.991 853.086C142.21 853.086 135.104 845.979 135.104 837.198C135.104 828.418 142.21 821.311 150.991 821.311C159.772 821.311 166.879 828.418 166.879 837.198Z" fill="#67AC2F"/>
    
    <path d="M261.048 548.507H255.811V563.499H251.663V548.507H246.452V545.139H261.048V548.507ZM275.72 563.499H271.687V556.047C271.687 555.083 271.512 554.362 271.162 553.884C270.812 553.406 270.287 553.167 269.587 553.167C268.87 553.167 268.29 553.436 267.846 553.973C267.402 554.511 267.18 555.194 267.18 556.022V563.499H263.135V544.09H267.18V552.335H267.232C267.727 551.575 268.311 551.007 268.986 550.632C269.66 550.256 270.419 550.069 271.264 550.069C272.75 550.069 273.863 550.517 274.606 551.413C275.349 552.309 275.72 553.653 275.72 555.446V563.499ZM290.712 558.096H282.16C282.228 559.043 282.544 559.748 283.107 560.208C283.679 560.669 284.464 560.9 285.463 560.9C285.838 560.9 286.355 560.789 287.012 560.567C287.678 560.336 288.322 559.978 288.945 559.491L290.738 561.783C289.842 562.492 288.92 563.008 287.972 563.332C287.025 563.657 285.979 563.819 284.836 563.819C282.719 563.819 281.076 563.234 279.906 562.065C278.737 560.887 278.152 559.248 278.152 557.149C278.152 555.057 278.771 553.355 280.009 552.04C281.247 550.726 282.813 550.069 284.708 550.069C286.526 550.069 287.981 550.619 289.073 551.72C290.166 552.813 290.712 554.404 290.712 556.496V558.096ZM286.961 555.612C286.961 554.596 286.769 553.875 286.385 553.448C286.009 553.013 285.442 552.796 284.682 552.796C284.033 552.796 283.47 553.047 282.992 553.551C282.523 554.054 282.237 554.742 282.134 555.612H286.961ZM299.367 563.819C297.182 563.819 295.462 563.204 294.207 561.975C292.953 560.746 292.33 559.086 292.338 556.995C292.347 554.827 292.995 553.133 294.284 551.912C295.582 550.683 297.336 550.069 299.546 550.069C301.723 550.069 303.43 550.679 304.667 551.899C305.905 553.12 306.524 554.742 306.524 556.764C306.524 558.932 305.884 560.652 304.603 561.924C303.332 563.187 301.586 563.819 299.367 563.819ZM299.495 560.721C300.468 560.721 301.193 560.396 301.671 559.748C302.158 559.099 302.401 558.13 302.401 556.841C302.401 555.621 302.158 554.703 301.671 554.089C301.185 553.474 300.451 553.167 299.469 553.167C298.513 553.167 297.771 553.5 297.242 554.165C296.712 554.823 296.448 555.749 296.448 556.944C296.448 558.207 296.7 559.154 297.203 559.786C297.715 560.409 298.479 560.721 299.495 560.721ZM325.126 561.694C324.666 562.402 324.098 562.935 323.424 563.294C322.749 563.644 321.964 563.819 321.068 563.819C319.438 563.819 318.119 563.243 317.112 562.09C316.113 560.93 315.614 559.312 315.614 557.238C315.614 555.07 316.164 553.333 317.265 552.027C318.375 550.721 319.817 550.069 321.593 550.069C322.438 550.069 323.155 550.222 323.744 550.529C324.333 550.828 324.794 551.281 325.126 551.887H325.178V544.09H329.223V563.499H325.178V561.694H325.126ZM319.724 557.123C319.724 558.275 319.967 559.163 320.453 559.786C320.94 560.409 321.614 560.721 322.476 560.721C323.296 560.721 323.961 560.392 324.473 559.735C324.994 559.078 325.254 558.207 325.254 557.123V556.137C325.254 555.284 325.007 554.575 324.512 554.012C324.017 553.448 323.372 553.167 322.579 553.167C321.682 553.167 320.983 553.521 320.479 554.229C319.975 554.929 319.724 555.894 319.724 557.123ZM338.877 563.819C336.692 563.819 334.972 563.204 333.717 561.975C332.462 560.746 331.839 559.086 331.848 556.995C331.856 554.827 332.505 553.133 333.794 551.912C335.091 550.683 336.845 550.069 339.056 550.069C341.232 550.069 342.94 550.679 344.177 551.899C345.415 553.12 346.034 554.742 346.034 556.764C346.034 558.932 345.393 560.652 344.113 561.924C342.841 563.187 341.096 563.819 338.877 563.819ZM339.005 560.721C339.978 560.721 340.703 560.396 341.181 559.748C341.668 559.099 341.911 558.13 341.911 556.841C341.911 555.621 341.668 554.703 341.181 554.089C340.695 553.474 339.961 553.167 338.979 553.167C338.023 553.167 337.281 553.5 336.751 554.165C336.222 554.823 335.958 555.749 335.958 556.944C335.958 558.207 336.209 559.154 336.713 559.786C337.225 560.409 337.989 560.721 339.005 560.721ZM343.575 544.346C343.575 545.541 343.336 546.467 342.858 547.124C342.389 547.773 341.745 548.097 340.925 548.097C340.558 548.097 340.195 548.05 339.837 547.956C339.478 547.862 339.124 547.726 338.774 547.546C338.399 547.341 338.079 547.192 337.814 547.098C337.55 546.996 337.345 546.945 337.2 546.945C336.858 546.945 336.602 547.06 336.431 547.29C336.261 547.521 336.175 547.866 336.175 548.327H334.37C334.37 547.141 334.605 546.219 335.074 545.562C335.544 544.905 336.201 544.576 337.046 544.576C337.396 544.576 337.75 544.627 338.109 544.73C338.467 544.832 338.83 544.99 339.197 545.203C339.538 545.391 339.837 545.532 340.093 545.626C340.349 545.72 340.562 545.767 340.733 545.767C341.066 545.767 341.314 545.647 341.476 545.408C341.646 545.169 341.732 544.815 341.732 544.346H343.575ZM350.707 548.583C350.007 548.583 349.435 548.37 348.991 547.943C348.547 547.516 348.325 546.987 348.325 546.356C348.325 545.698 348.547 545.165 348.991 544.755C349.435 544.337 350.007 544.128 350.707 544.128C351.415 544.128 351.987 544.337 352.422 544.755C352.866 545.165 353.088 545.698 353.088 546.356C353.088 547.013 352.866 547.551 352.422 547.969C351.987 548.379 351.415 548.583 350.707 548.583ZM352.704 563.499H348.658V550.389H352.704V563.499ZM378.809 563.499L376.748 561.566C375.732 562.351 374.725 562.918 373.726 563.268C372.728 563.618 371.588 563.793 370.308 563.793C368.302 563.793 366.646 563.315 365.34 562.359C364.035 561.403 363.382 560.008 363.382 558.173C363.382 556.884 363.753 555.843 364.495 555.049C365.247 554.247 366.266 553.534 367.555 552.911C366.864 552.194 366.36 551.541 366.045 550.952C365.737 550.363 365.584 549.727 365.584 549.044C365.584 547.687 366.104 546.646 367.146 545.92C368.187 545.195 369.523 544.832 371.153 544.832C372.723 544.832 373.999 545.203 374.981 545.946C375.971 546.689 376.466 547.649 376.466 548.827C376.466 549.723 376.214 550.512 375.711 551.195C375.207 551.869 374.192 552.565 372.664 553.282L376.978 557.2C377.601 556.423 378.02 555.642 378.233 554.857C378.446 554.063 378.553 553.188 378.553 552.232H382.138C382.138 553.53 381.92 554.737 381.485 555.855C381.058 556.974 380.316 558.109 379.257 559.261L383.93 563.499H378.809ZM370.718 551.515C371.435 551.208 371.972 550.884 372.331 550.542C372.698 550.192 372.881 549.714 372.881 549.108C372.881 548.605 372.706 548.216 372.356 547.943C372.006 547.67 371.605 547.534 371.153 547.534C370.581 547.534 370.116 547.696 369.757 548.02C369.399 548.336 369.22 548.72 369.22 549.172C369.22 549.556 369.339 549.923 369.578 550.273C369.817 550.615 370.197 551.029 370.718 551.515ZM374.507 559.466L369.578 554.844C369.006 555.168 368.511 555.578 368.093 556.073C367.683 556.56 367.479 557.204 367.479 558.006C367.479 558.834 367.76 559.496 368.323 559.991C368.887 560.486 369.617 560.733 370.513 560.733C371.272 560.733 371.964 560.639 372.587 560.452C373.21 560.264 373.85 559.935 374.507 559.466ZM391.561 562.359L393.212 559.671C393.656 560.012 394.181 560.307 394.787 560.554C395.393 560.802 396.067 560.925 396.81 560.925C397.331 560.925 397.757 560.832 398.09 560.644C398.423 560.447 398.59 560.161 398.59 559.786C398.59 559.487 398.466 559.252 398.218 559.082C397.979 558.903 397.497 558.736 396.772 558.582C395.141 558.241 393.959 557.759 393.225 557.136C392.491 556.513 392.124 555.621 392.124 554.46C392.124 553.128 392.653 552.066 393.712 551.272C394.779 550.47 396.08 550.069 397.617 550.069C398.419 550.069 399.183 550.175 399.908 550.389C400.634 550.593 401.304 550.901 401.918 551.31L400.395 553.909C399.874 553.577 399.379 553.333 398.91 553.18C398.44 553.017 397.958 552.936 397.463 552.936C396.942 552.936 396.52 553.035 396.195 553.231C395.88 553.427 395.722 553.679 395.722 553.986C395.722 554.345 395.88 554.605 396.195 554.767C396.511 554.921 397.1 555.083 397.962 555.254C399.482 555.561 400.566 556.043 401.214 556.7C401.863 557.349 402.187 558.228 402.187 559.338C402.187 560.678 401.679 561.762 400.664 562.59C399.657 563.409 398.316 563.819 396.644 563.819C395.73 563.819 394.855 563.704 394.019 563.473C393.191 563.234 392.372 562.863 391.561 562.359ZM415.336 563.499H411.508V561.617H411.457C411.021 562.351 410.475 562.901 409.818 563.268C409.169 563.635 408.431 563.819 407.603 563.819C406.468 563.819 405.49 563.473 404.671 562.782C403.86 562.082 403.455 561.105 403.455 559.85C403.455 558.638 403.856 557.648 404.658 556.88C405.469 556.111 406.732 555.612 408.448 555.382L411.533 554.972V554.716C411.533 554.093 411.333 553.623 410.932 553.308C410.53 552.983 409.976 552.821 409.267 552.821C408.73 552.821 408.128 552.911 407.462 553.09C406.805 553.269 406.135 553.555 405.452 553.948L404.082 551.554C404.978 551.033 405.866 550.657 406.745 550.427C407.633 550.188 408.597 550.069 409.639 550.069C411.593 550.069 413.031 550.534 413.953 551.464C414.875 552.394 415.336 553.794 415.336 555.663V563.499ZM411.533 558.173V557.289L409.152 557.597C408.495 557.682 408 557.883 407.667 558.198C407.343 558.506 407.18 558.898 407.18 559.376C407.18 559.837 407.338 560.217 407.654 560.516C407.978 560.806 408.414 560.951 408.96 560.951C409.72 560.951 410.338 560.691 410.816 560.17C411.294 559.641 411.533 558.975 411.533 558.173ZM412.686 548.315H409.779L405.759 544.179H409.357L412.686 548.315ZM431.199 563.499H427.166V556.214C427.166 555.198 426.982 554.439 426.615 553.935C426.257 553.423 425.715 553.167 424.989 553.167C424.289 553.167 423.713 553.436 423.261 553.973C422.808 554.511 422.582 555.194 422.582 556.022V563.499H418.537V550.389H422.582V552.463H422.634C423.12 551.66 423.713 551.063 424.413 550.67C425.113 550.269 425.924 550.069 426.846 550.069C428.297 550.069 429.385 550.521 430.11 551.426C430.836 552.322 431.199 553.67 431.199 555.471V563.499ZM447.266 562.001C447.266 564.16 446.584 565.974 445.218 567.442C443.861 568.919 441.868 569.657 439.239 569.657C438.317 569.657 437.459 569.576 436.666 569.414C435.88 569.252 435.065 568.991 434.22 568.633L435.385 565.893C436.034 566.166 436.661 566.362 437.267 566.482C437.873 566.61 438.56 566.674 439.329 566.674C440.592 566.674 441.556 566.303 442.222 565.56C442.888 564.826 443.221 563.857 443.221 562.654V561.617H443.169C442.709 562.351 442.137 562.901 441.454 563.268C440.771 563.635 439.981 563.819 439.085 563.819C437.404 563.819 436.072 563.23 435.091 562.052C434.118 560.866 433.631 559.291 433.631 557.328C433.631 555.1 434.177 553.333 435.27 552.027C436.363 550.721 437.801 550.069 439.585 550.069C440.378 550.069 441.074 550.222 441.671 550.529C442.277 550.837 442.777 551.298 443.169 551.912H443.221V550.389H447.266V562.001ZM443.272 557.2V556.163C443.272 555.335 443.024 554.631 442.529 554.05C442.043 553.461 441.407 553.167 440.622 553.167C439.725 553.167 439.021 553.517 438.509 554.217C437.997 554.917 437.741 555.902 437.741 557.174C437.741 558.267 437.984 559.133 438.471 559.773C438.957 560.405 439.623 560.721 440.468 560.721C441.313 560.721 441.992 560.4 442.504 559.76C443.016 559.112 443.272 558.258 443.272 557.2ZM457.893 563.499V544.09H461.939V563.499H457.893ZM471.592 563.819C469.407 563.819 467.687 563.204 466.432 561.975C465.178 560.746 464.555 559.086 464.563 556.995C464.572 554.827 465.22 553.133 466.509 551.912C467.807 550.683 469.561 550.069 471.771 550.069C473.948 550.069 475.655 550.679 476.892 551.899C478.13 553.12 478.749 554.742 478.749 556.764C478.749 558.932 478.109 560.652 476.828 561.924C475.557 563.187 473.811 563.819 471.592 563.819ZM471.72 560.721C472.693 560.721 473.418 560.396 473.896 559.748C474.383 559.099 474.626 558.13 474.626 556.841C474.626 555.621 474.383 554.703 473.896 554.089C473.41 553.474 472.676 553.167 471.694 553.167C470.738 553.167 469.996 553.5 469.467 554.165C468.937 554.823 468.673 555.749 468.673 556.944C468.673 558.207 468.925 559.154 469.428 559.786C469.94 560.409 470.704 560.721 471.72 560.721ZM471.656 568.518C471.084 568.518 470.61 568.347 470.235 568.005C469.868 567.664 469.684 567.25 469.684 566.764C469.684 566.251 469.872 565.833 470.248 565.509C470.623 565.193 471.093 565.035 471.656 565.035C472.228 565.035 472.693 565.197 473.051 565.522C473.418 565.846 473.602 566.26 473.602 566.764C473.602 567.267 473.418 567.685 473.051 568.018C472.693 568.351 472.228 568.518 471.656 568.518ZM491.91 562.679C491.219 563.072 490.532 563.358 489.849 563.537C489.175 563.725 488.436 563.819 487.634 563.819C485.415 563.819 483.686 563.209 482.449 561.988C481.211 560.767 480.592 559.193 480.592 557.264C480.592 555.036 481.25 553.282 482.564 552.002C483.887 550.713 485.637 550.069 487.813 550.069C488.641 550.069 489.362 550.15 489.977 550.312C490.591 550.465 491.215 550.717 491.846 551.067L490.348 553.781C489.956 553.568 489.571 553.414 489.196 553.32C488.829 553.218 488.423 553.167 487.98 553.167C486.955 553.167 486.153 553.5 485.573 554.165C484.992 554.831 484.702 555.774 484.702 556.995C484.702 558.164 485.026 559.078 485.675 559.735C486.324 560.392 487.109 560.721 488.031 560.721C488.278 560.721 488.616 560.665 489.042 560.554C489.478 560.435 489.917 560.247 490.361 559.991L491.91 562.679ZM515.877 548.507H514.046V563.499H510.001V561.694H509.949C509.489 562.402 508.921 562.935 508.247 563.294C507.572 563.644 506.787 563.819 505.891 563.819C504.252 563.819 502.933 563.243 501.935 562.09C500.936 560.93 500.437 559.312 500.437 557.238C500.437 555.07 500.987 553.333 502.088 552.027C503.19 550.721 504.632 550.069 506.416 550.069C507.261 550.069 507.978 550.222 508.567 550.529C509.156 550.828 509.617 551.281 509.949 551.887H510.001V548.507H505.776V545.882H510.001V544.09H514.046V545.882H515.877V548.507ZM510.078 557.123V556.137C510.078 555.284 509.83 554.575 509.335 554.012C508.84 553.448 508.195 553.167 507.402 553.167C506.506 553.167 505.806 553.521 505.302 554.229C504.798 554.929 504.547 555.894 504.547 557.123C504.547 558.275 504.79 559.163 505.276 559.786C505.763 560.409 506.437 560.721 507.299 560.721C508.119 560.721 508.784 560.392 509.297 559.735C509.817 559.078 510.078 558.207 510.078 557.123ZM528.719 563.499H524.891V561.617H524.839C524.404 562.351 523.858 562.901 523.201 563.268C522.552 563.635 521.814 563.819 520.986 563.819C519.85 563.819 518.873 563.473 518.054 562.782C517.243 562.082 516.837 561.105 516.837 559.85C516.837 558.638 517.239 557.648 518.041 556.88C518.852 556.111 520.115 555.612 521.831 555.382L524.916 554.972V554.716C524.916 554.093 524.716 553.623 524.314 553.308C523.913 552.983 523.358 552.821 522.65 552.821C522.112 552.821 521.511 552.911 520.845 553.09C520.188 553.269 519.518 553.555 518.835 553.948L517.465 551.554C518.361 551.033 519.249 550.657 520.128 550.427C521.015 550.188 521.98 550.069 523.021 550.069C524.976 550.069 526.414 550.534 527.336 551.464C528.258 552.394 528.719 553.794 528.719 555.663V563.499ZM524.916 558.173V557.289L522.535 557.597C521.878 557.682 521.383 557.883 521.05 558.198C520.725 558.506 520.563 558.898 520.563 559.376C520.563 559.837 520.721 560.217 521.037 560.516C521.361 560.806 521.796 560.951 522.343 560.951C523.102 560.951 523.721 560.691 524.199 560.17C524.677 559.641 524.916 558.975 524.916 558.173ZM523.188 548.315H520.269L523.597 544.179H527.195L523.188 548.315ZM544.581 563.499H540.548V556.214C540.548 555.198 540.365 554.439 539.998 553.935C539.639 553.423 539.097 553.167 538.372 553.167C537.672 553.167 537.096 553.436 536.644 553.973C536.191 554.511 535.965 555.194 535.965 556.022V563.499H531.919V550.389H535.965V552.463H536.016C536.503 551.66 537.096 551.063 537.796 550.67C538.496 550.269 539.307 550.069 540.228 550.069C541.679 550.069 542.768 550.521 543.493 551.426C544.219 552.322 544.581 553.67 544.581 555.471V563.499ZM560.38 563.499H556.347V556.047C556.347 555.083 556.172 554.362 555.822 553.884C555.472 553.406 554.948 553.167 554.248 553.167C553.531 553.167 552.95 553.436 552.506 553.973C552.063 554.511 551.841 555.194 551.841 556.022V563.499H547.795V544.09H551.841V552.335H551.892C552.387 551.575 552.972 551.007 553.646 550.632C554.32 550.256 555.08 550.069 555.925 550.069C557.41 550.069 558.524 550.517 559.266 551.413C560.009 552.309 560.38 553.653 560.38 555.446V563.499ZM583.694 562.001C583.694 564.16 583.012 565.974 581.646 567.442C580.289 568.919 578.296 569.657 575.667 569.657C574.745 569.657 573.887 569.576 573.094 569.414C572.308 569.252 571.493 568.991 570.648 568.633L571.813 565.893C572.462 566.166 573.089 566.362 573.695 566.482C574.301 566.61 574.988 566.674 575.757 566.674C577.02 566.674 577.984 566.303 578.65 565.56C579.316 564.826 579.649 563.857 579.649 562.654V561.617H579.597C579.137 562.351 578.565 562.901 577.882 563.268C577.199 563.635 576.409 563.819 575.513 563.819C573.832 563.819 572.5 563.23 571.519 562.052C570.546 560.866 570.059 559.291 570.059 557.328C570.059 555.1 570.605 553.333 571.698 552.027C572.791 550.721 574.229 550.069 576.013 550.069C576.806 550.069 577.502 550.222 578.099 550.529C578.705 550.837 579.205 551.298 579.597 551.912H579.649V550.389H583.694V562.001ZM579.7 557.2V556.163C579.7 555.335 579.452 554.631 578.957 554.05C578.471 553.461 577.835 553.167 577.05 553.167C576.153 553.167 575.449 553.517 574.937 554.217C574.425 554.917 574.169 555.902 574.169 557.174C574.169 558.267 574.412 559.133 574.899 559.773C575.385 560.405 576.051 560.721 576.896 560.721C577.741 560.721 578.42 560.4 578.932 559.76C579.444 559.112 579.7 558.258 579.7 557.2ZM589.123 548.583C588.423 548.583 587.851 548.37 587.407 547.943C586.963 547.516 586.741 546.987 586.741 546.356C586.741 545.698 586.963 545.165 587.407 544.755C587.851 544.337 588.423 544.128 589.123 544.128C589.831 544.128 590.403 544.337 590.838 544.755C591.282 545.165 591.504 545.698 591.504 546.356C591.504 547.013 591.282 547.551 590.838 547.969C590.403 548.379 589.831 548.583 589.123 548.583ZM591.12 563.499H587.074V550.389H591.12V563.499ZM605.434 563.499H601.606V561.617H601.554C601.119 562.351 600.573 562.901 599.916 563.268C599.267 563.635 598.529 563.819 597.701 563.819C596.566 563.819 595.588 563.473 594.769 562.782C593.958 562.082 593.553 561.105 593.553 559.85C593.553 558.638 593.954 557.648 594.756 556.88C595.567 556.111 596.83 555.612 598.546 555.382L601.631 554.972V554.716C601.631 554.093 601.431 553.623 601.03 553.308C600.628 552.983 600.074 552.821 599.365 552.821C598.827 552.821 598.226 552.911 597.56 553.09C596.903 553.269 596.233 553.555 595.55 553.948L594.18 551.554C595.076 551.033 595.964 550.657 596.843 550.427C597.731 550.188 598.695 550.069 599.736 550.069C601.691 550.069 603.129 550.534 604.051 551.464C604.973 552.394 605.434 553.794 605.434 555.663V563.499ZM601.631 558.173V557.289L599.25 557.597C598.593 557.682 598.098 557.883 597.765 558.198C597.44 558.506 597.278 558.898 597.278 559.376C597.278 559.837 597.436 560.217 597.752 560.516C598.076 560.806 598.512 560.951 599.058 560.951C599.818 560.951 600.436 560.691 600.914 560.17C601.392 559.641 601.631 558.975 601.631 558.173ZM599.903 548.315H596.984L600.313 544.179H603.91L599.903 548.315ZM291.634 588.743C291.472 588.709 291.305 588.683 291.135 588.666C290.964 588.649 290.776 588.641 290.571 588.641C289.504 588.641 288.711 588.956 288.19 589.588C287.669 590.211 287.409 591.094 287.409 592.238V598.499H283.363V585.389H287.409V587.821H287.46C287.776 586.933 288.22 586.268 288.792 585.824C289.372 585.38 290.081 585.158 290.917 585.158C291.105 585.158 291.288 585.171 291.468 585.197C291.655 585.222 291.847 585.256 292.044 585.299L291.634 588.743ZM300.058 598.819C297.873 598.819 296.153 598.204 294.899 596.975C293.644 595.746 293.021 594.086 293.029 591.995C293.038 589.827 293.687 588.133 294.976 586.912C296.273 585.683 298.027 585.069 300.238 585.069C302.414 585.069 304.121 585.679 305.359 586.899C306.596 588.12 307.215 589.742 307.215 591.764C307.215 593.932 306.575 595.652 305.295 596.924C304.023 598.187 302.277 598.819 300.058 598.819ZM300.186 595.721C301.159 595.721 301.885 595.396 302.363 594.748C302.849 594.099 303.093 593.13 303.093 591.841C303.093 590.621 302.849 589.703 302.363 589.089C301.876 588.474 301.142 588.167 300.161 588.167C299.205 588.167 298.462 588.5 297.933 589.165C297.404 589.823 297.139 590.749 297.139 591.944C297.139 593.207 297.391 594.154 297.895 594.786C298.407 595.409 299.171 595.721 300.186 595.721ZM302.056 583.315L300.122 581.561L298.304 583.315H295.744L298.65 580.127H301.723L304.629 583.315H302.056ZM303.451 581.381L305.756 578.232H309.353L305.96 581.381H303.451ZM311.888 583.583C311.188 583.583 310.616 583.37 310.173 582.943C309.729 582.516 309.507 581.987 309.507 581.356C309.507 580.698 309.729 580.165 310.173 579.755C310.616 579.337 311.188 579.128 311.888 579.128C312.597 579.128 313.168 579.337 313.604 579.755C314.048 580.165 314.27 580.698 314.27 581.356C314.27 582.013 314.048 582.551 313.604 582.969C313.168 583.379 312.597 583.583 311.888 583.583ZM313.885 598.499H309.84V585.389H313.885V598.499ZM324.537 598.499V579.09H328.583V598.499H324.537ZM338.237 598.819C336.052 598.819 334.332 598.204 333.077 596.975C331.822 595.746 331.199 594.086 331.208 591.995C331.216 589.827 331.865 588.133 333.154 586.912C334.451 585.683 336.205 585.069 338.416 585.069C340.592 585.069 342.299 585.679 343.537 586.899C344.775 588.12 345.393 589.742 345.393 591.764C345.393 593.932 344.753 595.652 343.473 596.924C342.201 598.187 340.456 598.819 338.237 598.819ZM338.365 595.721C339.338 595.721 340.063 595.396 340.541 594.748C341.028 594.099 341.271 593.13 341.271 591.841C341.271 590.621 341.028 589.703 340.541 589.089C340.055 588.474 339.321 588.167 338.339 588.167C337.383 588.167 336.641 588.5 336.111 589.165C335.582 589.823 335.318 590.749 335.318 591.944C335.318 593.207 335.569 594.154 336.073 594.786C336.585 595.409 337.349 595.721 338.365 595.721ZM358.926 598.499H355.098V596.617H355.047C354.612 597.351 354.065 597.901 353.408 598.268C352.759 598.635 352.021 598.819 351.193 598.819C350.058 598.819 349.081 598.473 348.261 597.782C347.45 597.082 347.045 596.105 347.045 594.85C347.045 593.638 347.446 592.648 348.249 591.88C349.059 591.111 350.323 590.612 352.038 590.382L355.124 589.972V589.716C355.124 589.093 354.923 588.623 354.522 588.308C354.121 587.983 353.566 587.821 352.858 587.821C352.32 587.821 351.718 587.911 351.052 588.09C350.395 588.269 349.725 588.555 349.042 588.948L347.672 586.554C348.569 586.033 349.456 585.657 350.335 585.427C351.223 585.188 352.188 585.069 353.229 585.069C355.183 585.069 356.622 585.534 357.543 586.464C358.465 587.394 358.926 588.794 358.926 590.663V598.499ZM355.124 593.173V592.289L352.742 592.597C352.085 592.682 351.59 592.883 351.257 593.198C350.933 593.506 350.771 593.898 350.771 594.376C350.771 594.837 350.929 595.217 351.244 595.516C351.569 595.806 352.004 595.951 352.55 595.951C353.31 595.951 353.929 595.691 354.407 595.17C354.885 594.641 355.124 593.975 355.124 593.173ZM353.165 603.518C352.593 603.518 352.119 603.347 351.744 603.005C351.377 602.664 351.193 602.25 351.193 601.764C351.193 601.251 351.381 600.833 351.757 600.509C352.132 600.193 352.601 600.035 353.165 600.035C353.737 600.035 354.202 600.197 354.56 600.522C354.927 600.846 355.111 601.26 355.111 601.764C355.111 602.267 354.927 602.685 354.56 603.018C354.202 603.351 353.737 603.518 353.165 603.518ZM374.789 598.499H370.756V591.214C370.756 590.198 370.573 589.439 370.206 588.935C369.847 588.423 369.305 588.167 368.58 588.167C367.88 588.167 367.304 588.436 366.851 588.973C366.399 589.511 366.173 590.194 366.173 591.022V598.499H362.127V585.389H366.173V587.463H366.224C366.71 586.66 367.304 586.063 368.003 585.67C368.703 585.269 369.514 585.069 370.436 585.069C371.887 585.069 372.975 585.521 373.701 586.426C374.426 587.322 374.789 588.67 374.789 590.471V598.499ZM389.346 596.975H389.295V604.529H385.249V585.389H389.295V587.36H389.346C389.841 586.592 390.438 586.02 391.138 585.645C391.847 585.261 392.653 585.069 393.558 585.069C395.248 585.069 396.558 585.653 397.489 586.823C398.419 587.983 398.884 589.567 398.884 591.572C398.884 593.757 398.342 595.511 397.258 596.834C396.174 598.157 394.74 598.819 392.956 598.819C392.163 598.819 391.467 598.665 390.869 598.358C390.272 598.051 389.764 597.59 389.346 596.975ZM389.231 591.598V592.648C389.231 593.553 389.47 594.291 389.948 594.863C390.426 595.435 391.053 595.721 391.83 595.721C392.751 595.721 393.464 595.366 393.968 594.658C394.48 593.941 394.736 592.93 394.736 591.624C394.736 590.471 394.51 589.609 394.057 589.037C393.614 588.457 392.944 588.167 392.047 588.167C391.219 588.167 390.541 588.483 390.012 589.114C389.491 589.737 389.231 590.565 389.231 591.598ZM414.094 598.499H410.061V591.047C410.061 590.083 409.886 589.362 409.536 588.884C409.186 588.406 408.661 588.167 407.961 588.167C407.244 588.167 406.664 588.436 406.22 588.973C405.776 589.511 405.554 590.194 405.554 591.022V598.499H401.509V579.09H405.554V587.335H405.606C406.101 586.575 406.685 586.007 407.36 585.632C408.034 585.256 408.794 585.069 409.639 585.069C411.124 585.069 412.238 585.517 412.98 586.413C413.723 587.309 414.094 588.653 414.094 590.446V598.499ZM428.216 598.499H424.388V596.617H424.336C423.901 597.351 423.355 597.901 422.698 598.268C422.049 598.635 421.311 598.819 420.483 598.819C419.347 598.819 418.37 598.473 417.551 597.782C416.74 597.082 416.334 596.105 416.334 594.85C416.334 593.638 416.736 592.648 417.538 591.88C418.349 591.111 419.612 590.612 421.328 590.382L424.413 589.972V589.716C424.413 589.093 424.213 588.623 423.811 588.308C423.41 587.983 422.855 587.821 422.147 587.821C421.609 587.821 421.008 587.911 420.342 588.09C419.685 588.269 419.015 588.555 418.332 588.948L416.962 586.554C417.858 586.033 418.746 585.657 419.625 585.427C420.513 585.188 421.477 585.069 422.518 585.069C424.473 585.069 425.911 585.534 426.833 586.464C427.755 587.394 428.216 588.794 428.216 590.663V598.499ZM424.413 593.173V592.289L422.032 592.597C421.375 592.682 420.88 592.883 420.547 593.198C420.222 593.506 420.06 593.898 420.06 594.376C420.06 594.837 420.218 595.217 420.534 595.516C420.858 595.806 421.293 595.951 421.84 595.951C422.599 595.951 423.218 595.691 423.696 595.17C424.174 594.641 424.413 593.975 424.413 593.173ZM422.685 583.315H419.766L423.094 579.179H426.692L422.685 583.315ZM439.61 598.294C439.201 598.465 438.74 598.593 438.227 598.678C437.724 598.772 437.212 598.819 436.691 598.819C435.257 598.819 434.178 598.473 433.452 597.782C432.727 597.09 432.364 596.058 432.364 594.684V588.372H430.238V585.389H432.364V582.213L436.397 581.061V585.389H439.341V588.372H436.397V594.427C436.397 594.931 436.495 595.298 436.691 595.528C436.887 595.75 437.203 595.861 437.639 595.861C437.852 595.861 438.057 595.836 438.253 595.785C438.449 595.725 438.637 595.652 438.816 595.567L439.61 598.294ZM457.073 598.294C456.664 598.465 456.203 598.593 455.691 598.678C455.187 598.772 454.675 598.819 454.154 598.819C452.72 598.819 451.641 598.473 450.915 597.782C450.19 597.09 449.827 596.058 449.827 594.684V588.372H447.702V585.389H449.827V582.213L453.86 581.061V585.389H456.805V588.372H453.86V594.427C453.86 594.931 453.958 595.298 454.154 595.528C454.351 595.75 454.666 595.861 455.102 595.861C455.315 595.861 455.52 595.836 455.716 595.785C455.913 595.725 456.1 595.652 456.28 595.567L457.073 598.294ZM467.367 588.743C467.205 588.709 467.038 588.683 466.868 588.666C466.697 588.649 466.509 588.641 466.304 588.641C465.237 588.641 464.444 588.956 463.923 589.588C463.402 590.211 463.142 591.094 463.142 592.238V598.499H459.096V585.389H463.142V587.821H463.193C463.509 586.933 463.953 586.268 464.525 585.824C465.105 585.38 465.814 585.158 466.65 585.158C466.838 585.158 467.021 585.171 467.201 585.197C467.388 585.222 467.58 585.256 467.777 585.299L467.367 588.743ZM471.72 583.583C471.02 583.583 470.448 583.37 470.004 582.943C469.561 582.516 469.339 581.987 469.339 581.356C469.339 580.698 469.561 580.165 470.004 579.755C470.448 579.337 471.02 579.128 471.72 579.128C472.428 579.128 473 579.337 473.436 579.755C473.879 580.165 474.101 580.698 474.101 581.356C474.101 582.013 473.879 582.551 473.436 582.969C473 583.379 472.428 583.583 471.72 583.583ZM473.717 598.499H469.671V585.389H473.717V598.499ZM488.901 593.096H480.349C480.417 594.043 480.733 594.748 481.297 595.208C481.868 595.669 482.654 595.9 483.652 595.9C484.028 595.9 484.544 595.789 485.201 595.567C485.867 595.336 486.512 594.978 487.135 594.491L488.927 596.783C488.031 597.492 487.109 598.008 486.162 598.332C485.214 598.657 484.169 598.819 483.025 598.819C480.908 598.819 479.265 598.234 478.096 597.065C476.926 595.887 476.342 594.248 476.342 592.149C476.342 590.057 476.961 588.355 478.198 587.04C479.436 585.726 481.002 585.069 482.897 585.069C484.715 585.069 486.17 585.619 487.263 586.72C488.355 587.813 488.901 589.404 488.901 591.496V593.096ZM485.15 590.612C485.15 589.596 484.958 588.875 484.574 588.448C484.199 588.013 483.631 587.796 482.871 587.796C482.223 587.796 481.659 588.047 481.181 588.551C480.712 589.054 480.426 589.742 480.324 590.612H485.15ZM486.61 581.689V580.088C487.113 580.054 487.489 579.969 487.736 579.832C487.992 579.696 488.121 579.508 488.121 579.269C488.121 579.03 488.031 578.855 487.852 578.744C487.681 578.624 487.421 578.565 487.071 578.565C486.917 578.565 486.776 578.569 486.648 578.577C486.529 578.586 486.367 578.612 486.162 578.654L485.931 577.259C486.264 577.208 486.546 577.173 486.776 577.156C487.015 577.139 487.271 577.131 487.544 577.131C488.441 577.131 489.111 577.297 489.554 577.63C489.998 577.963 490.22 578.466 490.22 579.141C490.22 579.67 490.067 580.097 489.759 580.421C489.461 580.737 489.004 580.95 488.389 581.061V581.689H486.61ZM478.48 583.622L481.386 580.178H484.459L487.365 583.622H484.792L482.858 581.612L481.04 583.622H478.48ZM503.971 598.499H499.938V591.214C499.938 590.198 499.754 589.439 499.387 588.935C499.029 588.423 498.487 588.167 497.761 588.167C497.061 588.167 496.485 588.436 496.033 588.973C495.58 589.511 495.354 590.194 495.354 591.022V598.499H491.308V585.389H495.354V587.463H495.405C495.892 586.66 496.485 586.063 497.185 585.67C497.885 585.269 498.696 585.069 499.618 585.069C501.069 585.069 502.157 585.521 502.882 586.426C503.608 587.322 503.971 588.67 503.971 590.471V598.499ZM526.081 587.015C526.67 587.621 527.11 588.32 527.4 589.114C527.69 589.899 527.835 590.783 527.835 591.764C527.835 593.941 527.195 595.661 525.915 596.924C524.643 598.187 522.898 598.819 520.678 598.819C518.493 598.819 516.773 598.209 515.519 596.988C514.273 595.759 513.65 594.095 513.65 591.995C513.65 589.827 514.298 588.133 515.596 586.912C516.893 585.683 518.647 585.069 520.858 585.069C521.148 585.069 521.455 585.086 521.779 585.12C522.112 585.145 522.458 585.192 522.816 585.261C523.064 585.303 523.303 585.337 523.533 585.363C523.772 585.38 524.003 585.389 524.225 585.389C524.984 585.389 525.552 585.239 525.928 584.94C526.303 584.633 526.491 584.181 526.491 583.583C526.491 583.37 526.47 583.144 526.427 582.905C526.393 582.666 526.337 582.418 526.26 582.162H528.719C528.821 582.452 528.894 582.738 528.936 583.02C528.987 583.302 529.013 583.575 529.013 583.839C529.013 584.804 528.77 585.551 528.283 586.08C527.797 586.609 527.063 586.921 526.081 587.015ZM520.781 588.167C519.825 588.167 519.082 588.495 518.553 589.153C518.024 589.81 517.759 590.74 517.759 591.944C517.759 593.198 518.011 594.142 518.515 594.773C519.027 595.405 519.791 595.721 520.806 595.721C521.779 595.721 522.505 595.396 522.983 594.748C523.469 594.099 523.713 593.13 523.713 591.841C523.713 590.612 523.469 589.695 522.983 589.089C522.496 588.474 521.762 588.167 520.781 588.167ZM521.728 583.302H519.936V581.714C520.448 581.68 520.828 581.595 521.075 581.458C521.331 581.322 521.459 581.134 521.459 580.895C521.459 580.656 521.37 580.481 521.19 580.37C521.02 580.25 520.759 580.191 520.409 580.191C520.247 580.191 520.094 580.199 519.949 580.216C519.812 580.225 519.65 580.25 519.462 580.293L519.193 578.923C519.552 578.838 519.897 578.787 520.23 578.769C520.563 578.752 520.781 578.744 520.883 578.744C521.779 578.744 522.449 578.915 522.893 579.256C523.337 579.589 523.559 580.092 523.559 580.767C523.559 581.296 523.405 581.718 523.098 582.034C522.799 582.35 522.343 582.563 521.728 582.674V583.302ZM546.387 598.294C545.977 598.465 545.516 598.593 545.004 598.678C544.5 598.772 543.988 598.819 543.468 598.819C542.034 598.819 540.954 598.473 540.228 597.782C539.503 597.09 539.14 596.058 539.14 594.684V588.372H537.015V585.389H539.14V582.213L543.173 581.061V585.389H546.118V588.372H543.173V594.427C543.173 594.931 543.271 595.298 543.468 595.528C543.664 595.75 543.98 595.861 544.415 595.861C544.628 595.861 544.833 595.836 545.03 595.785C545.226 595.725 545.414 595.652 545.593 595.567L546.387 598.294ZM556.68 588.743C556.518 588.709 556.352 588.683 556.181 588.666C556.01 588.649 555.822 588.641 555.618 588.641C554.551 588.641 553.757 588.956 553.236 589.588C552.716 590.211 552.455 591.094 552.455 592.238V598.499H548.41V585.389H552.455V587.821H552.506C552.822 586.933 553.266 586.268 553.838 585.824C554.418 585.38 555.127 585.158 555.963 585.158C556.151 585.158 556.335 585.171 556.514 585.197C556.702 585.222 556.894 585.256 557.09 585.299L556.68 588.743ZM570.635 593.096H562.083C562.151 594.043 562.467 594.748 563.03 595.208C563.602 595.669 564.388 595.9 565.386 595.9C565.762 595.9 566.278 595.789 566.935 595.567C567.601 595.336 568.245 594.978 568.869 594.491L570.661 596.783C569.765 597.492 568.843 598.008 567.896 598.332C566.948 598.657 565.903 598.819 564.759 598.819C562.642 598.819 560.999 598.234 559.83 597.065C558.66 595.887 558.076 594.248 558.076 592.149C558.076 590.057 558.694 588.355 559.932 587.04C561.17 585.726 562.736 585.069 564.631 585.069C566.449 585.069 567.904 585.619 568.997 586.72C570.089 587.813 570.635 589.404 570.635 591.496V593.096ZM566.884 590.612C566.884 589.596 566.692 588.875 566.308 588.448C565.932 588.013 565.365 587.796 564.605 587.796C563.956 587.796 563.393 588.047 562.915 588.551C562.446 589.054 562.16 589.742 562.057 590.612H566.884ZM565.463 583.302H563.671V581.714C564.183 581.68 564.562 581.595 564.81 581.458C565.066 581.322 565.194 581.134 565.194 580.895C565.194 580.656 565.104 580.481 564.925 580.37C564.755 580.25 564.494 580.191 564.144 580.191C563.982 580.191 563.828 580.199 563.683 580.216C563.547 580.225 563.385 580.25 563.197 580.293L562.928 578.923C563.286 578.838 563.632 578.787 563.965 578.769C564.298 578.752 564.516 578.744 564.618 578.744C565.514 578.744 566.184 578.915 566.628 579.256C567.072 579.589 567.294 580.092 567.294 580.767C567.294 581.296 567.14 581.718 566.833 582.034C566.534 582.35 566.078 582.563 565.463 582.674V583.302Z" fill="#67AC2F"/>

    <path d="M595.927 157.469H586.148V351.084H595.927V157.469Z" fill="#1D6495"/>
    <g opacity="0.3">
        <path opacity="0.0137" d="M671.849 216.425C706.519 210.759 730.031 178.06 724.365 143.39C718.698 108.72 685.999 85.2082 651.329 90.8747C616.66 96.5411 593.148 129.24 598.814 163.91C604.481 198.58 637.18 222.091 671.849 216.425Z" fill="#231F20"/>
    </g>
    
    <path d="M606.91 351.113C606.91 359.893 599.804 367 591.023 367C582.242 367 575.135 359.893 575.135 351.113C575.135 342.332 582.242 335.225 591.023 335.225C599.804 335.225 606.91 342.332 606.91 351.113Z" fill="#1D6495"/>
    
    <path d="M144.536 81V73.4976H142.436V70.0921H144.536V62.6409H151.04C154.3 62.6409 156.745 63.3877 158.376 64.8814C160.006 66.3665 160.821 68.6027 160.821 71.59C160.821 74.4493 159.929 76.7324 158.145 78.4395C156.37 80.1465 154.001 81 151.04 81H144.536ZM148.671 66.008V70.0921H152.141V73.4976H148.671V77.6457H150.719C152.512 77.6457 153.916 77.108 154.932 76.0325C155.956 74.9571 156.468 73.4933 156.468 71.6412C156.468 69.8915 155.96 68.5173 154.944 67.5187C153.937 66.5116 152.52 66.008 150.694 66.008H148.671ZM169.719 81.3201C167.534 81.3201 165.814 80.7055 164.559 79.4765C163.305 78.2474 162.682 76.5873 162.69 74.4962C162.699 72.3283 163.347 70.6341 164.636 69.4135C165.933 68.1845 167.687 67.5699 169.898 67.5699C172.074 67.5699 173.781 68.1802 175.019 69.4007C176.257 70.6213 176.875 72.2429 176.875 74.2658C176.875 76.4337 176.235 78.1535 174.955 79.4253C173.683 80.6885 171.938 81.3201 169.719 81.3201ZM169.847 78.2218C170.82 78.2218 171.545 77.8975 172.023 77.2488C172.51 76.6001 172.753 75.6314 172.753 74.3426C172.753 73.1221 172.51 72.2045 172.023 71.59C171.537 70.9755 170.803 70.6682 169.821 70.6682C168.865 70.6682 168.123 71.0011 167.593 71.6668C167.064 72.324 166.8 73.2501 166.8 74.445C166.8 75.7082 167.052 76.6556 167.555 77.2872C168.067 77.9103 168.831 78.2218 169.847 78.2218ZM165.263 65.816L168.182 62.6153H171.242L174.161 65.816H171.588L169.783 64.0492L167.837 65.816H165.263ZM163.932 63.8699L160.552 60.7205H164.137L166.454 63.8699H163.932ZM192.162 81H188.129V73.7152C188.129 72.6996 187.946 71.9399 187.579 71.4364C187.22 70.9242 186.678 70.6682 185.953 70.6682C185.253 70.6682 184.677 70.9371 184.224 71.4748C183.772 72.0125 183.546 72.6953 183.546 73.5232V81H179.5V67.89H183.546V69.964H183.597C184.083 69.1617 184.677 68.5643 185.376 68.1717C186.076 67.7705 186.887 67.5699 187.809 67.5699C189.26 67.5699 190.348 68.0223 191.074 68.927C191.799 69.8232 192.162 71.1718 192.162 72.9727V81ZM208.229 79.5021C208.229 81.6615 207.547 83.4752 206.181 84.9432C204.824 86.4198 202.831 87.1581 200.202 87.1581C199.28 87.1581 198.422 87.077 197.629 86.9149C196.843 86.7527 196.028 86.4924 195.183 86.1339L196.348 83.3941C196.997 83.6672 197.624 83.8635 198.23 83.983C198.836 84.1111 199.524 84.1751 200.292 84.1751C201.555 84.1751 202.519 83.8038 203.185 83.0612C203.851 82.3272 204.184 81.3585 204.184 80.155V79.118H204.132C203.672 79.852 203.1 80.4025 202.417 80.7696C201.734 81.1366 200.945 81.3201 200.048 81.3201C198.367 81.3201 197.036 80.7311 196.054 79.5533C195.081 78.3669 194.594 76.7922 194.594 74.8291C194.594 72.6014 195.141 70.8346 196.233 69.5288C197.326 68.2229 198.764 67.5699 200.548 67.5699C201.341 67.5699 202.037 67.7236 202.635 68.0308C203.241 68.3381 203.74 68.799 204.132 69.4135H204.184V67.89H208.229V79.5021ZM204.235 74.7011V73.664C204.235 72.8361 203.987 72.132 203.492 71.5516C203.006 70.9627 202.37 70.6682 201.585 70.6682C200.689 70.6682 199.984 71.0181 199.472 71.718C198.96 72.4179 198.704 73.4037 198.704 74.6754C198.704 75.7679 198.947 76.6343 199.434 77.2744C199.92 77.906 200.586 78.2218 201.431 78.2218C202.276 78.2218 202.955 77.9017 203.467 77.2616C203.979 76.6129 204.235 75.7594 204.235 74.7011ZM231.441 81H227.408V73.5488C227.408 72.5843 227.233 71.8631 226.883 71.3851C226.533 70.9072 226.008 70.6682 225.308 70.6682C224.591 70.6682 224.011 70.9371 223.567 71.4748C223.123 72.0125 222.901 72.6953 222.901 73.5232V81H218.856V61.5911H222.901V69.836H222.953C223.448 69.0764 224.032 68.5088 224.706 68.1333C225.381 67.7577 226.14 67.5699 226.985 67.5699C228.47 67.5699 229.584 68.018 230.327 68.9142C231.069 69.8104 231.441 71.1547 231.441 72.9471V81ZM245.562 81H241.734V79.118H241.683C241.248 79.852 240.701 80.4025 240.044 80.7696C239.395 81.1366 238.657 81.3201 237.829 81.3201C236.694 81.3201 235.717 80.9744 234.897 80.283C234.087 79.5832 233.681 78.6059 233.681 77.3512C233.681 76.1392 234.082 75.1492 234.885 74.381C235.695 73.6128 236.959 73.1135 238.674 72.8831L241.76 72.4734V72.2173C241.76 71.5943 241.559 71.1248 241.158 70.809C240.757 70.4847 240.202 70.3225 239.494 70.3225C238.956 70.3225 238.354 70.4121 237.688 70.5914C237.031 70.7706 236.361 71.0565 235.678 71.4492L234.309 69.055C235.205 68.5344 236.092 68.1589 236.971 67.9284C237.859 67.6894 238.824 67.5699 239.865 67.5699C241.819 67.5699 243.258 68.0351 244.179 68.9654C245.101 69.8958 245.562 71.2955 245.562 73.1647V81ZM241.76 75.6741V74.7907L239.378 75.0979C238.721 75.1833 238.226 75.3839 237.893 75.6997C237.569 76.0069 237.407 76.3996 237.407 76.8775C237.407 77.3384 237.565 77.7182 237.88 78.017C238.205 78.3072 238.64 78.4523 239.186 78.4523C239.946 78.4523 240.565 78.1919 241.043 77.6713C241.521 77.1421 241.76 76.4764 241.76 75.6741ZM242.912 65.816H240.006L235.986 61.6807H239.583L242.912 65.816ZM261.425 81H257.392V73.7152C257.392 72.6996 257.208 71.9399 256.841 71.4364C256.483 70.9242 255.941 70.6682 255.215 70.6682C254.516 70.6682 253.939 70.9371 253.487 71.4748C253.035 72.0125 252.808 72.6953 252.808 73.5232V81H248.763V67.89H252.808V69.964H252.86C253.346 69.1617 253.939 68.5643 254.639 68.1717C255.339 67.7705 256.15 67.5699 257.072 67.5699C258.523 67.5699 259.611 68.0223 260.336 68.927C261.062 69.8232 261.425 71.1718 261.425 72.9727V81ZM277.223 81H273.19V73.5488C273.19 72.5843 273.015 71.8631 272.666 71.3851C272.316 70.9072 271.791 70.6682 271.091 70.6682C270.374 70.6682 269.793 70.9371 269.35 71.4748C268.906 72.0125 268.684 72.6953 268.684 73.5232V81H264.638V61.5911H268.684V69.836H268.735C269.23 69.0764 269.815 68.5088 270.489 68.1333C271.163 67.7577 271.923 67.5699 272.768 67.5699C274.253 67.5699 275.367 68.018 276.109 68.9142C276.852 69.8104 277.223 71.1547 277.223 72.9471V81ZM298.22 80.1806C297.528 80.5732 296.841 80.8592 296.159 81.0384C295.484 81.2262 294.746 81.3201 293.944 81.3201C291.725 81.3201 289.996 80.7098 288.759 79.4893C287.521 78.2688 286.902 76.694 286.902 74.7651C286.902 72.5374 287.559 70.7834 288.874 69.5031C290.197 68.2143 291.946 67.5699 294.123 67.5699C294.951 67.5699 295.672 67.651 296.287 67.8132C296.901 67.9668 297.524 68.2186 298.156 68.5685L296.658 71.2827C296.265 71.0693 295.881 70.9157 295.506 70.8218C295.139 70.7194 294.733 70.6682 294.289 70.6682C293.265 70.6682 292.463 71.0011 291.882 71.6668C291.302 72.3325 291.012 73.2757 291.012 74.4962C291.012 75.6655 291.336 76.5788 291.985 77.236C292.634 77.8932 293.419 78.2218 294.341 78.2218C294.588 78.2218 294.925 78.1663 295.352 78.0554C295.787 77.9359 296.227 77.7481 296.671 77.4921L298.22 80.1806ZM312.738 81H308.705V79.0028H308.641C308.146 79.7709 307.562 80.3513 306.887 80.7439C306.221 81.128 305.47 81.3201 304.634 81.3201C303.115 81.3201 301.975 80.8592 301.216 79.9374C300.456 79.0156 300.076 77.6371 300.076 75.8021V67.89H304.109V75.4436C304.109 76.3654 304.293 77.061 304.66 77.5305C305.027 77.9914 305.577 78.2218 306.311 78.2218C307.037 78.2218 307.617 77.97 308.052 77.4664C308.488 76.9543 308.705 76.263 308.705 75.3924V67.89H312.738V81ZM309.422 65.816H306.516L302.496 61.6807H306.093L309.422 65.816ZM328.818 81H324.785V73.7152C324.785 72.6996 324.602 71.9399 324.235 71.4364C323.876 70.9242 323.334 70.6682 322.609 70.6682C321.909 70.6682 321.333 70.9371 320.881 71.4748C320.428 72.0125 320.202 72.6953 320.202 73.5232V81H316.156V67.89H320.202V69.964H320.253C320.74 69.1617 321.333 68.5643 322.033 68.1717C322.733 67.7705 323.544 67.5699 324.465 67.5699C325.916 67.5699 327.005 68.0223 327.73 68.927C328.456 69.8232 328.818 71.1718 328.818 72.9727V81ZM344.886 79.5021C344.886 81.6615 344.203 83.4752 342.837 84.9432C341.48 86.4198 339.487 87.1581 336.858 87.1581C335.937 87.1581 335.079 87.077 334.285 86.9149C333.5 86.7527 332.685 86.4924 331.84 86.1339L333.005 83.3941C333.653 83.6672 334.281 83.8635 334.887 83.983C335.493 84.1111 336.18 84.1751 336.948 84.1751C338.211 84.1751 339.176 83.8038 339.841 83.0612C340.507 82.3272 340.84 81.3585 340.84 80.155V79.118H340.789C340.328 79.852 339.756 80.4025 339.073 80.7696C338.39 81.1366 337.601 81.3201 336.705 81.3201C335.023 81.3201 333.692 80.7311 332.71 79.5533C331.737 78.3669 331.251 76.7922 331.251 74.8291C331.251 72.6014 331.797 70.8346 332.89 69.5288C333.982 68.2229 335.42 67.5699 337.204 67.5699C337.998 67.5699 338.693 67.7236 339.291 68.0308C339.897 68.3381 340.396 68.799 340.789 69.4135H340.84V67.89H344.886V79.5021ZM340.891 74.7011V73.664C340.891 72.8361 340.644 72.132 340.149 71.5516C339.662 70.9627 339.026 70.6682 338.241 70.6682C337.345 70.6682 336.641 71.0181 336.129 71.718C335.617 72.4179 335.361 73.4037 335.361 74.6754C335.361 75.7679 335.604 76.6343 336.09 77.2744C336.577 77.906 337.243 78.2218 338.087 78.2218C338.932 78.2218 339.611 77.9017 340.123 77.2616C340.635 76.6129 340.891 75.7594 340.891 74.7011ZM359.609 79.4765H359.558V87.0301H355.512V67.89H359.558V69.8616H359.609C360.104 69.0935 360.701 68.5216 361.401 68.1461C362.11 67.762 362.916 67.5699 363.821 67.5699C365.511 67.5699 366.821 68.1546 367.751 69.3239C368.682 70.4847 369.147 72.068 369.147 74.0737C369.147 76.2587 368.605 78.0127 367.521 79.3356C366.437 80.6586 365.003 81.3201 363.219 81.3201C362.425 81.3201 361.73 81.1664 361.132 80.8592C360.535 80.5519 360.027 80.091 359.609 79.4765ZM359.494 74.0993V75.1492C359.494 76.0539 359.733 76.7922 360.211 77.364C360.689 77.9359 361.316 78.2218 362.093 78.2218C363.014 78.2218 363.727 77.8676 364.231 77.1592C364.743 76.4422 364.999 75.4308 364.999 74.1249C364.999 72.9727 364.773 72.1106 364.32 71.5388C363.876 70.9584 363.206 70.6682 362.31 70.6682C361.482 70.6682 360.804 70.984 360.275 71.6156C359.754 72.2387 359.494 73.0666 359.494 74.0993ZM384.357 81H380.324V73.5488C380.324 72.5843 380.149 71.8631 379.799 71.3851C379.449 70.9072 378.924 70.6682 378.224 70.6682C377.507 70.6682 376.927 70.9371 376.483 71.4748C376.039 72.0125 375.817 72.6953 375.817 73.5232V81H371.771V61.5911H375.817V69.836H375.868C376.363 69.0764 376.948 68.5088 377.622 68.1333C378.297 67.7577 379.056 67.5699 379.901 67.5699C381.386 67.5699 382.5 68.018 383.243 68.9142C383.985 69.8104 384.357 71.1547 384.357 72.9471V81ZM400.027 81H395.994V79.0028H395.93C395.435 79.7709 394.851 80.3513 394.176 80.7439C393.511 81.128 392.759 81.3201 391.923 81.3201C390.404 81.3201 389.264 80.8592 388.505 79.9374C387.745 79.0156 387.365 77.6371 387.365 75.8021V67.89H391.398V75.4436C391.398 76.3654 391.582 77.061 391.949 77.5305C392.316 77.9914 392.866 78.2218 393.6 78.2218C394.326 78.2218 394.906 77.97 395.341 77.4664C395.777 76.9543 395.994 76.263 395.994 75.3924V67.89H400.027V81ZM393.805 86.0187C393.233 86.0187 392.759 85.848 392.384 85.5066C392.017 85.1652 391.833 84.7512 391.833 84.2647C391.833 83.7526 392.021 83.3344 392.397 83.01C392.772 82.6942 393.242 82.5363 393.805 82.5363C394.377 82.5363 394.842 82.6985 395.2 83.0228C395.567 83.3472 395.751 83.7611 395.751 84.2647C395.751 84.7683 395.567 85.1865 395.2 85.5194C394.842 85.8522 394.377 86.0187 393.805 86.0187ZM423.277 81H419.244V73.5488C419.244 72.5843 419.069 71.8631 418.719 71.3851C418.369 70.9072 417.844 70.6682 417.144 70.6682C416.427 70.6682 415.847 70.9371 415.403 71.4748C414.959 72.0125 414.737 72.6953 414.737 73.5232V81H410.692V61.5911H414.737V69.836H414.789C415.284 69.0764 415.868 68.5088 416.543 68.1333C417.217 67.7577 417.977 67.5699 418.822 67.5699C420.307 67.5699 421.42 68.018 422.163 68.9142C422.906 69.8104 423.277 71.1547 423.277 72.9471V81ZM438.947 81H434.915V79.0028H434.851C434.356 79.7709 433.771 80.3513 433.097 80.7439C432.431 81.128 431.68 81.3201 430.843 81.3201C429.324 81.3201 428.185 80.8592 427.425 79.9374C426.665 79.0156 426.286 77.6371 426.286 75.8021V67.89H430.318V75.4436C430.318 76.3654 430.502 77.061 430.869 77.5305C431.236 77.9914 431.786 78.2218 432.52 78.2218C433.246 78.2218 433.826 77.97 434.262 77.4664C434.697 76.9543 434.915 76.263 434.915 75.3924V67.89H438.947V81ZM454.848 67.89L448.985 83.4325C448.541 84.6018 447.871 85.5151 446.975 86.1723C446.079 86.8295 444.999 87.1581 443.736 87.1581C443.326 87.1581 442.933 87.1368 442.558 87.0941C442.182 87.0514 441.815 86.9874 441.457 86.9021L442.123 83.9318C442.319 84.0001 442.511 84.0471 442.699 84.0727C442.886 84.1068 443.096 84.1239 443.326 84.1239C443.727 84.1239 444.077 84.0257 444.376 83.8294C444.683 83.6331 444.931 83.3216 445.118 82.8948L445.938 80.9744L440.612 67.89H445.093L447.538 75.8661C447.615 76.1136 447.683 76.3825 447.743 76.6727C447.803 76.9629 447.854 77.2787 447.897 77.6201H447.948C447.99 77.364 448.046 77.0952 448.114 76.8135C448.182 76.5318 448.268 76.2246 448.37 75.8917L450.841 67.89H454.848ZM469.136 81H465.103V73.7152C465.103 72.6996 464.92 71.9399 464.553 71.4364C464.194 70.9242 463.652 70.6682 462.927 70.6682C462.227 70.6682 461.651 70.9371 461.199 71.4748C460.746 72.0125 460.52 72.6953 460.52 73.5232V81H456.474V67.89H460.52V69.964H460.571C461.058 69.1617 461.651 68.5643 462.351 68.1717C463.051 67.7705 463.862 67.5699 464.783 67.5699C466.234 67.5699 467.323 68.0223 468.048 68.927C468.774 69.8232 469.136 71.1718 469.136 72.9727V81ZM484.935 81H480.902V73.5488C480.902 72.5843 480.727 71.8631 480.377 71.3851C480.027 70.9072 479.502 70.6682 478.802 70.6682C478.085 70.6682 477.505 70.9371 477.061 71.4748C476.617 72.0125 476.395 72.6953 476.395 73.5232V81H472.35V61.5911H476.395V69.836H476.447C476.942 69.0764 477.526 68.5088 478.201 68.1333C478.875 67.7577 479.634 67.5699 480.479 67.5699C481.965 67.5699 483.078 68.018 483.821 68.9142C484.564 69.8104 484.935 71.1547 484.935 72.9471V81ZM491.964 77.7737L490.094 84.2519H486.945L488.251 77.7737H491.964ZM223.618 116H219.585V108.715C219.585 107.7 219.402 106.94 219.035 106.436C218.676 105.924 218.134 105.668 217.409 105.668C216.709 105.668 216.133 105.937 215.681 106.475C215.228 107.012 215.002 107.695 215.002 108.523V116H210.956V102.89H215.002V104.964H215.053C215.54 104.162 216.133 103.564 216.833 103.172C217.533 102.771 218.344 102.57 219.265 102.57C220.716 102.57 221.805 103.022 222.53 103.927C223.256 104.823 223.618 106.172 223.618 107.973V116ZM239.417 116H235.384V108.549C235.384 107.584 235.209 106.863 234.859 106.385C234.509 105.907 233.984 105.668 233.284 105.668C232.567 105.668 231.987 105.937 231.543 106.475C231.099 107.012 230.877 107.695 230.877 108.523V116H226.832V96.5911H230.877V104.836H230.929C231.424 104.076 232.008 103.509 232.683 103.133C233.357 102.758 234.116 102.57 234.961 102.57C236.447 102.57 237.56 103.018 238.303 103.914C239.046 104.81 239.417 106.155 239.417 107.947V116ZM253.538 116H249.71V114.118H249.659C249.224 114.852 248.677 115.403 248.02 115.77C247.372 116.137 246.633 116.32 245.805 116.32C244.67 116.32 243.693 115.974 242.874 115.283C242.063 114.583 241.657 113.606 241.657 112.351C241.657 111.139 242.058 110.149 242.861 109.381C243.672 108.613 244.935 108.114 246.65 107.883L249.736 107.473V107.217C249.736 106.594 249.535 106.125 249.134 105.809C248.733 105.485 248.178 105.323 247.47 105.323C246.932 105.323 246.33 105.412 245.665 105.591C245.007 105.771 244.337 106.057 243.655 106.449L242.285 104.055C243.181 103.534 244.068 103.159 244.948 102.928C245.835 102.689 246.8 102.57 247.841 102.57C249.796 102.57 251.234 103.035 252.156 103.965C253.077 104.896 253.538 106.296 253.538 108.165V116ZM249.736 110.674V109.791L247.355 110.098C246.697 110.183 246.202 110.384 245.869 110.7C245.545 111.007 245.383 111.4 245.383 111.878C245.383 112.338 245.541 112.718 245.857 113.017C246.181 113.307 246.616 113.452 247.162 113.452C247.922 113.452 248.541 113.192 249.019 112.671C249.497 112.142 249.736 111.476 249.736 110.674ZM250.888 100.816H247.982L243.962 96.6807H247.559L250.888 100.816ZM272.179 115.795C271.769 115.966 271.308 116.094 270.796 116.179C270.293 116.273 269.781 116.32 269.26 116.32C267.826 116.32 266.746 115.974 266.021 115.283C265.295 114.592 264.933 113.559 264.933 112.185V105.873H262.807V102.89H264.933V99.7149L268.966 98.5627V102.89H271.91V105.873H268.966V111.929C268.966 112.432 269.064 112.799 269.26 113.03C269.456 113.252 269.772 113.363 270.207 113.363C270.421 113.363 270.626 113.337 270.822 113.286C271.018 113.226 271.206 113.154 271.385 113.068L272.179 115.795ZM282.472 106.244C282.31 106.21 282.144 106.185 281.973 106.168C281.802 106.15 281.615 106.142 281.41 106.142C280.343 106.142 279.549 106.458 279.028 107.089C278.508 107.712 278.248 108.596 278.248 109.739V116H274.202V102.89H278.248V105.323H278.299C278.615 104.435 279.058 103.769 279.63 103.325C280.211 102.881 280.919 102.66 281.755 102.66C281.943 102.66 282.127 102.672 282.306 102.698C282.494 102.724 282.686 102.758 282.882 102.8L282.472 106.244ZM297.106 116H293.073V114.003H293.009C292.514 114.771 291.929 115.351 291.255 115.744C290.589 116.128 289.838 116.32 289.002 116.32C287.483 116.32 286.343 115.859 285.583 114.937C284.824 114.016 284.444 112.637 284.444 110.802V102.89H288.477V110.444C288.477 111.365 288.66 112.061 289.027 112.53C289.394 112.991 289.945 113.222 290.679 113.222C291.404 113.222 291.985 112.97 292.42 112.466C292.855 111.954 293.073 111.263 293.073 110.392V102.89H296.76C297.298 102.89 297.699 102.732 297.964 102.416C298.228 102.1 298.361 101.627 298.361 100.995C298.361 100.807 298.339 100.603 298.297 100.381C298.262 100.159 298.207 99.9198 298.13 99.6637H300.486C300.554 99.8686 300.605 100.095 300.639 100.342C300.674 100.59 300.691 100.863 300.691 101.162C300.691 102.16 300.375 102.971 299.743 103.594C299.12 104.209 298.241 104.546 297.106 104.606V116ZM313.814 104.516C314.402 105.122 314.842 105.822 315.132 106.616C315.422 107.401 315.567 108.284 315.567 109.266C315.567 111.442 314.927 113.162 313.647 114.425C312.375 115.688 310.63 116.32 308.411 116.32C306.226 116.32 304.506 115.71 303.251 114.489C302.005 113.26 301.382 111.596 301.382 109.496C301.382 107.328 302.031 105.634 303.328 104.414C304.625 103.184 306.379 102.57 308.59 102.57C308.88 102.57 309.187 102.587 309.512 102.621C309.845 102.647 310.19 102.694 310.549 102.762C310.796 102.805 311.035 102.839 311.266 102.864C311.505 102.881 311.735 102.89 311.957 102.89C312.717 102.89 313.284 102.741 313.66 102.442C314.035 102.135 314.223 101.682 314.223 101.085C314.223 100.871 314.202 100.645 314.159 100.406C314.125 100.167 314.07 99.9198 313.993 99.6637H316.451C316.553 99.9539 316.626 100.24 316.669 100.521C316.72 100.803 316.745 101.076 316.745 101.341C316.745 102.305 316.502 103.052 316.016 103.581C315.529 104.111 314.795 104.422 313.814 104.516ZM308.513 105.668C307.557 105.668 306.815 105.997 306.286 106.654C305.756 107.311 305.492 108.242 305.492 109.445C305.492 110.7 305.744 111.643 306.247 112.274C306.759 112.906 307.523 113.222 308.539 113.222C309.512 113.222 310.237 112.897 310.715 112.249C311.202 111.6 311.445 110.631 311.445 109.343C311.445 108.114 311.202 107.196 310.715 106.59C310.229 105.975 309.495 105.668 308.513 105.668ZM311.496 100.816H308.59L304.57 96.6807H308.168L311.496 100.816ZM331.34 116H327.308V108.715C327.308 107.7 327.124 106.94 326.757 106.436C326.399 105.924 325.857 105.668 325.131 105.668C324.431 105.668 323.855 105.937 323.403 106.475C322.95 107.012 322.724 107.695 322.724 108.523V116H318.679V102.89H322.724V104.964H322.775C323.262 104.162 323.855 103.564 324.555 103.172C325.255 102.771 326.066 102.57 326.988 102.57C328.438 102.57 329.527 103.022 330.252 103.927C330.978 104.823 331.34 106.172 331.34 107.973V116ZM347.408 114.502C347.408 116.661 346.725 118.475 345.359 119.943C344.002 121.42 342.009 122.158 339.381 122.158C338.459 122.158 337.601 122.077 336.807 121.915C336.022 121.753 335.207 121.492 334.362 121.134L335.527 118.394C336.176 118.667 336.803 118.864 337.409 118.983C338.015 119.111 338.702 119.175 339.47 119.175C340.733 119.175 341.698 118.804 342.364 118.061C343.029 117.327 343.362 116.358 343.362 115.155V114.118H343.311C342.85 114.852 342.278 115.403 341.595 115.77C340.913 116.137 340.123 116.32 339.227 116.32C337.546 116.32 336.214 115.731 335.232 114.553C334.259 113.367 333.773 111.792 333.773 109.829C333.773 107.601 334.319 105.835 335.412 104.529C336.504 103.223 337.942 102.57 339.726 102.57C340.52 102.57 341.216 102.724 341.813 103.031C342.419 103.338 342.918 103.799 343.311 104.414H343.362V102.89H347.408V114.502ZM343.413 109.701V108.664C343.413 107.836 343.166 107.132 342.671 106.552C342.184 105.963 341.548 105.668 340.763 105.668C339.867 105.668 339.163 106.018 338.651 106.718C338.139 107.418 337.883 108.404 337.883 109.675C337.883 110.768 338.126 111.634 338.612 112.274C339.099 112.906 339.765 113.222 340.61 113.222C341.455 113.222 342.133 112.902 342.645 112.262C343.157 111.613 343.413 110.759 343.413 109.701ZM370.517 102.89L365.639 116H361.03L356.383 102.89H360.71L362.989 110.969C363.117 111.429 363.219 111.856 363.296 112.249C363.373 112.633 363.42 112.983 363.437 113.299H363.488C363.514 113 363.565 112.663 363.642 112.287C363.727 111.912 363.834 111.498 363.962 111.045L366.292 102.89H370.517ZM383.153 116H379.325V114.118H379.274C378.839 114.852 378.292 115.403 377.635 115.77C376.986 116.137 376.248 116.32 375.42 116.32C374.285 116.32 373.308 115.974 372.488 115.283C371.678 114.583 371.272 113.606 371.272 112.351C371.272 111.139 371.673 110.149 372.476 109.381C373.286 108.613 374.55 108.114 376.265 107.883L379.351 107.473V107.217C379.351 106.594 379.15 106.125 378.749 105.809C378.348 105.485 377.793 105.323 377.085 105.323C376.547 105.323 375.945 105.412 375.279 105.591C374.622 105.771 373.952 106.057 373.269 106.449L371.9 104.055C372.796 103.534 373.683 103.159 374.562 102.928C375.45 102.689 376.415 102.57 377.456 102.57C379.41 102.57 380.849 103.035 381.77 103.965C382.692 104.896 383.153 106.296 383.153 108.165V116ZM379.351 110.674V109.791L376.969 110.098C376.312 110.183 375.817 110.384 375.484 110.7C375.16 111.007 374.998 111.4 374.998 111.878C374.998 112.338 375.156 112.718 375.471 113.017C375.796 113.307 376.231 113.452 376.777 113.452C377.537 113.452 378.156 113.192 378.634 112.671C379.112 112.142 379.351 111.476 379.351 110.674ZM380.503 100.816H377.597L373.577 96.6807H377.174L380.503 100.816ZM401.794 115.795C401.384 115.966 400.923 116.094 400.411 116.179C399.908 116.273 399.396 116.32 398.875 116.32C397.441 116.32 396.361 115.974 395.636 115.283C394.91 114.592 394.548 113.559 394.548 112.185V105.873H392.422V102.89H394.548V99.7149L398.58 98.5627V102.89H401.525V105.873H398.58V111.929C398.58 112.432 398.679 112.799 398.875 113.03C399.071 113.252 399.387 113.363 399.822 113.363C400.036 113.363 400.24 113.337 400.437 113.286C400.633 113.226 400.821 113.154 401 113.068L401.794 115.795ZM412.087 106.244C411.925 106.21 411.759 106.185 411.588 106.168C411.417 106.15 411.229 106.142 411.025 106.142C409.958 106.142 409.164 106.458 408.643 107.089C408.123 107.712 407.862 108.596 407.862 109.739V116H403.817V102.89H407.862V105.323H407.914C408.229 104.435 408.673 103.769 409.245 103.325C409.825 102.881 410.534 102.66 411.37 102.66C411.558 102.66 411.742 102.672 411.921 102.698C412.109 102.724 412.301 102.758 412.497 102.8L412.087 106.244ZM426.042 110.597H417.49C417.558 111.545 417.874 112.249 418.437 112.71C419.009 113.171 419.795 113.401 420.793 113.401C421.169 113.401 421.685 113.29 422.342 113.068C423.008 112.838 423.652 112.479 424.276 111.993L426.068 114.284C425.172 114.993 424.25 115.509 423.302 115.834C422.355 116.158 421.31 116.32 420.166 116.32C418.049 116.32 416.406 115.735 415.237 114.566C414.067 113.388 413.483 111.749 413.483 109.65C413.483 107.559 414.102 105.856 415.339 104.542C416.577 103.227 418.143 102.57 420.038 102.57C421.856 102.57 423.311 103.12 424.404 104.221C425.496 105.314 426.042 106.906 426.042 108.997V110.597ZM422.291 108.114C422.291 107.098 422.099 106.377 421.715 105.95C421.339 105.515 420.772 105.297 420.012 105.297C419.364 105.297 418.8 105.549 418.322 106.052C417.853 106.556 417.567 107.243 417.464 108.114H422.291ZM420.87 100.803H419.078V99.2156C419.59 99.1815 419.97 99.0961 420.217 98.9596C420.473 98.823 420.601 98.6352 420.601 98.3962C420.601 98.1573 420.512 97.9823 420.332 97.8713C420.162 97.7518 419.901 97.6921 419.551 97.6921C419.389 97.6921 419.235 97.7006 419.09 97.7177C418.954 97.7262 418.792 97.7518 418.604 97.7945L418.335 96.4246C418.694 96.3393 419.039 96.2881 419.372 96.271C419.705 96.2539 419.923 96.2454 420.025 96.2454C420.921 96.2454 421.591 96.4161 422.035 96.7575C422.479 97.0904 422.701 97.5939 422.701 98.2682C422.701 98.7974 422.547 99.2199 422.24 99.5357C421.941 99.8515 421.485 100.065 420.87 100.176V100.803Z" fill="#1D6495"/>
    <defs>
        <linearGradient id="paint0_linear_30_363" x1="589.13" y1="206.831" x2="200.516" y2="882.378" gradientUnits="userSpaceOnUse">
            <stop stop-color="#A1BAC8"/>
            <stop offset="1" stop-color="#506875"/>
        </linearGradient>
    </defs>
</svg>
