<svg width="149" height="27" viewBox="0 0 149 27" fill="none" xmlns="http://www.w3.org/2000/svg">
<path d="M4.45616 17.3846V26H0.363394V1.34026H8.01583C10.859 1.34026 13.0257 2.00519 14.5161 3.33505C16.0179 4.65344 16.7688 6.57372 16.7688 9.09587C16.7688 11.5492 15.9262 13.544 14.2409 15.0802C12.5557 16.6165 10.2858 17.3846 7.43115 17.3846H4.45616ZM4.45616 4.69357V14.0485H7.10441C8.86992 14.0485 10.2055 13.6415 11.1112 12.8275C12.0169 12.0021 12.4697 10.8155 12.4697 9.26783C12.4697 7.74308 12.0398 6.60238 11.18 5.84573C10.3202 5.07762 9.03042 4.69357 7.31077 4.69357H4.45616ZM39.9325 15.6993C39.9325 19.2762 39.1128 21.9588 37.4734 23.7473C35.8455 25.5242 33.3978 26.4127 30.1305 26.4127C26.9778 26.4127 24.6104 25.5529 23.0283 23.8332C21.4577 22.1021 20.6724 19.4997 20.6724 16.026V1.34026H24.7652V15.9745C24.7652 18.2559 25.2352 19.9698 26.1753 21.1162C27.1154 22.2626 28.5198 22.8358 30.3884 22.8358C32.2113 22.8358 33.5755 22.2856 34.4812 21.185C35.3869 20.0729 35.8397 18.4106 35.8397 16.198V1.34026H39.9325V15.6993ZM45.7277 26V1.34026H53.6381C56.057 1.34026 57.9372 1.85615 59.2785 2.88794C60.6313 3.90826 61.3077 5.32411 61.3077 7.13547C61.3077 8.49972 60.9179 9.69201 60.1383 10.7123C59.3702 11.7212 58.3442 12.432 57.0602 12.8447V12.9135C58.6881 13.1084 59.9893 13.7332 60.9638 14.7879C61.9382 15.8426 62.4255 17.1782 62.4255 18.7947C62.4255 20.9729 61.6459 22.7212 60.0868 24.0396C58.5276 25.3465 56.4812 26 53.9476 26H45.7277ZM49.8205 4.62478V11.7097H52.5547C53.9304 11.7097 55.0138 11.3773 55.8048 10.7123C56.6073 10.0474 57.0086 9.11306 57.0086 7.90931C57.0086 6.80873 56.636 5.98904 55.8908 5.45021C55.1571 4.89993 54.0565 4.62478 52.5891 4.62478H49.8205ZM49.8205 14.9943V22.7155H53.3285C54.8418 22.7155 56.0169 22.3601 56.8538 21.6493C57.7022 20.9385 58.1264 19.9698 58.1264 18.7431C58.1264 17.5164 57.6907 16.5878 56.8194 15.9573C55.9481 15.3153 54.6813 14.9943 53.019 14.9943H49.8205ZM84.9357 24.7791C83.6975 25.3523 82.4938 25.765 81.3244 26.0172C80.155 26.2809 78.8825 26.4127 77.5068 26.4127C73.735 26.4127 70.783 25.3121 68.6506 23.111C66.5182 20.8984 65.452 17.8833 65.452 14.0656C65.452 10.1678 66.6271 7.00363 68.9773 4.57319C71.339 2.14276 74.4286 0.92754 78.2462 0.92754C79.4729 0.92754 80.5964 1.03072 81.6167 1.23708C82.6485 1.43197 83.7147 1.75297 84.8153 2.20008L83.4912 5.5362C82.6199 5.1808 81.7715 4.92285 80.9461 4.76235C80.1321 4.60185 79.2494 4.5216 78.2978 4.5216C75.7986 4.5216 73.7465 5.35277 72.1415 7.01509C70.5479 8.67742 69.7512 10.9359 69.7512 13.7905C69.7512 16.5763 70.4906 18.7775 71.9695 20.3939C73.4484 21.999 75.4317 22.8015 77.9195 22.8015C78.7335 22.8015 79.6047 22.6983 80.5334 22.4919C81.462 22.2856 82.4192 21.9474 83.4052 21.4773L84.9357 24.7791ZM86.1394 26L95.3739 1.34026H99.9826L109.148 26H104.66L102.545 20.05H92.6569L90.6105 26H86.1394ZM93.7231 16.6795H101.444L98.0222 6.87752C97.9419 6.62531 97.8731 6.37309 97.8158 6.12088C97.7585 5.8572 97.7012 5.5362 97.6439 5.15787H97.5407C97.4833 5.5018 97.4203 5.80561 97.3515 6.06929C97.2942 6.33297 97.2197 6.59091 97.128 6.84313L93.7231 16.6795ZM131.194 26H126.482L122.682 19.4138C122.006 18.2559 121.392 17.4648 120.842 17.0406C120.292 16.605 119.644 16.37 118.899 16.3356H116.663V26H112.57V1.34026H120.584C123.118 1.34026 125.112 1.91347 126.568 3.0599C128.024 4.20633 128.752 5.91452 128.752 8.18445C128.752 9.88117 128.282 11.3199 127.342 12.5008C126.414 13.6816 125.141 14.5471 123.525 15.0974V15.1662C124.132 15.4299 124.688 15.8312 125.193 16.37C125.697 16.8973 126.167 17.5336 126.603 18.2788L131.194 26ZM116.663 4.65918V12.9995H119.896C121.226 12.9995 122.315 12.581 123.163 11.7441C124.023 10.9072 124.453 9.84678 124.453 8.56277C124.453 7.33609 124.069 6.37882 123.301 5.69096C122.544 5.0031 121.432 4.65918 119.965 4.65918H116.663ZM148.339 26H134.496V1.34026H147.789V4.81394H138.589V11.7957H147.118V15.2522H138.589V22.5263H148.339V26Z" fill="white"/>
</svg>
