<svg width="325" height="191" viewBox="0 0 325 191" fill="none" xmlns="http://www.w3.org/2000/svg">
<path d="M7.48438 7.10303V182.311H312.388" stroke="#EA0001" stroke-width="2.52571" stroke-miterlimit="10" stroke-linecap="round"/>
<path d="M0.942627 7.43122C0.942627 3.81946 3.87245 0.889648 7.48421 0.889648C11.096 0.889648 14.0258 3.81946 14.0258 7.43122C14.0258 11.043 11.096 13.9728 7.48421 13.9728C3.87245 13.9728 0.942627 11.043 0.942627 7.43122Z" fill="#EA0001"/>
<path d="M309.837 191L324.89 182.311L309.837 173.623V191Z" fill="#EA0001"/>
<path d="M42.918 93.1445L45.5352 88.2422C46.9414 89.0755 48.1589 89.6419 49.1875 89.9414C50.2292 90.2279 51.3229 90.3711 52.4688 90.3711C53.9792 90.3711 55.0924 90.0846 55.8086 89.5117C56.5247 88.9258 56.8828 88.1315 56.8828 87.1289C56.8828 86.1654 56.5964 85.4297 56.0234 84.9219C55.4505 84.401 54.3958 83.9648 52.8594 83.6133C49.7344 82.8971 47.4622 81.8815 46.043 80.5664C44.6237 79.2513 43.9141 77.4154 43.9141 75.0586C43.9141 72.6888 44.832 70.6771 46.668 69.0234C48.5039 67.3568 51.0755 66.5234 54.3828 66.5234C55.763 66.5234 57.1172 66.6797 58.4453 66.9922C59.7734 67.3047 61.0365 67.7604 62.2344 68.3594L59.8711 73.3398C58.7904 72.7279 57.7747 72.2917 56.8242 72.0312C55.8737 71.7708 54.9883 71.6406 54.168 71.6406C52.9049 71.6406 51.9219 71.888 51.2188 72.3828C50.5156 72.8776 50.1641 73.5872 50.1641 74.5117C50.1641 75.3581 50.4831 76.0091 51.1211 76.4648C51.7721 76.9206 52.931 77.3372 54.5977 77.7148C57.6315 78.4049 59.8255 79.4336 61.1797 80.8008C62.5339 82.168 63.2109 84.0951 63.2109 86.582C63.2109 89.2383 62.2734 91.3867 60.3984 93.0273C58.5365 94.668 55.8281 95.4883 52.2734 95.4883C50.724 95.4883 49.1029 95.2865 47.4102 94.8828C45.7174 94.4661 44.2201 93.8867 42.918 93.1445ZM83.6602 95H77.8203V92.1289H77.7422C77.0781 93.2487 76.2448 94.0885 75.2422 94.6484C74.2526 95.2083 73.1263 95.4883 71.8633 95.4883C70.1315 95.4883 68.6406 94.9609 67.3906 93.9062C66.1536 92.8385 65.5352 91.3477 65.5352 89.4336C65.5352 87.5846 66.1471 86.0742 67.3711 84.9023C68.6081 83.7305 70.5352 82.9688 73.1523 82.6172L77.8594 81.9922V81.6016C77.8594 80.651 77.5534 79.9349 76.9414 79.4531C76.3294 78.9583 75.4831 78.7109 74.4023 78.7109C73.582 78.7109 72.6641 78.8477 71.6484 79.1211C70.6458 79.3945 69.6237 79.8307 68.582 80.4297L66.4922 76.7773C67.8594 75.9831 69.2135 75.4102 70.5547 75.0586C71.9089 74.694 73.3802 74.5117 74.9688 74.5117C77.9505 74.5117 80.1445 75.2214 81.5508 76.6406C82.957 78.0599 83.6602 80.1953 83.6602 83.0469V95ZM77.8594 86.875V85.5273L74.2266 85.9961C73.224 86.1263 72.4688 86.4323 71.9609 86.9141C71.4661 87.3828 71.2188 87.9818 71.2188 88.7109C71.2188 89.4141 71.4596 89.9935 71.9414 90.4492C72.4362 90.8919 73.1003 91.1133 73.9336 91.1133C75.0924 91.1133 76.0365 90.7161 76.7656 89.9219C77.4948 89.1146 77.8594 88.099 77.8594 86.875ZM79.6172 71.8359H75.1836L69.0508 65.5273H74.5391L79.6172 71.8359ZM107.859 95H101.707V83.8867C101.707 82.3372 101.427 81.1784 100.867 80.4102C100.32 79.6289 99.4935 79.2383 98.3867 79.2383C97.319 79.2383 96.4401 79.6484 95.75 80.4688C95.0599 81.2891 94.7148 82.3307 94.7148 83.5938V95H88.543V75H94.7148V78.1641H94.793C95.5352 76.9401 96.4401 76.0286 97.5078 75.4297C98.5755 74.8177 99.8125 74.5117 101.219 74.5117C103.432 74.5117 105.092 75.2018 106.199 76.582C107.306 77.9492 107.859 80.0065 107.859 82.7539V95ZM132.371 92.7148C132.371 96.0091 131.329 98.776 129.246 101.016C127.176 103.268 124.135 104.395 120.125 104.395C118.719 104.395 117.41 104.271 116.199 104.023C115.001 103.776 113.758 103.379 112.469 102.832L114.246 98.6523C115.236 99.069 116.193 99.3685 117.117 99.5508C118.042 99.7461 119.09 99.8438 120.262 99.8438C122.189 99.8438 123.66 99.2773 124.676 98.1445C125.691 97.0247 126.199 95.5469 126.199 93.7109V92.1289H126.121C125.418 93.2487 124.546 94.0885 123.504 94.6484C122.462 95.2083 121.258 95.4883 119.891 95.4883C117.326 95.4883 115.294 94.5898 113.797 92.793C112.312 90.9831 111.57 88.5807 111.57 85.5859C111.57 82.1875 112.404 79.4922 114.07 77.5C115.737 75.5078 117.931 74.5117 120.652 74.5117C121.863 74.5117 122.924 74.7461 123.836 75.2148C124.76 75.6836 125.522 76.3867 126.121 77.3242H126.199V75H132.371V92.7148ZM126.277 85.3906V83.8086C126.277 82.5456 125.9 81.4714 125.145 80.5859C124.402 79.6875 123.432 79.2383 122.234 79.2383C120.867 79.2383 119.793 79.7721 119.012 80.8398C118.23 81.9076 117.84 83.4115 117.84 85.3516C117.84 87.0182 118.211 88.3398 118.953 89.3164C119.695 90.2799 120.711 90.7617 122 90.7617C123.289 90.7617 124.324 90.2734 125.105 89.2969C125.887 88.3073 126.277 87.0052 126.277 85.3906ZM148.582 95V65.3906H154.754V95H148.582ZM169.48 95.4883C166.147 95.4883 163.523 94.5508 161.609 92.6758C159.695 90.8008 158.745 88.2682 158.758 85.0781C158.771 81.7708 159.76 79.1862 161.727 77.3242C163.706 75.4492 166.382 74.5117 169.754 74.5117C173.074 74.5117 175.678 75.4427 177.566 77.3047C179.454 79.1667 180.398 81.6406 180.398 84.7266C180.398 88.0339 179.422 90.6576 177.469 92.5977C175.529 94.5247 172.866 95.4883 169.48 95.4883ZM169.676 90.7617C171.16 90.7617 172.267 90.2669 172.996 89.2773C173.738 88.2878 174.109 86.8099 174.109 84.8438C174.109 82.9818 173.738 81.582 172.996 80.6445C172.254 79.707 171.134 79.2383 169.637 79.2383C168.178 79.2383 167.046 79.7461 166.238 80.7617C165.431 81.7643 165.027 83.1771 165.027 85C165.027 86.9271 165.411 88.3724 166.18 89.3359C166.961 90.2865 168.126 90.7617 169.676 90.7617ZM169.578 102.656C168.706 102.656 167.983 102.396 167.41 101.875C166.85 101.354 166.57 100.723 166.57 99.9805C166.57 99.1992 166.857 98.5612 167.43 98.0664C168.003 97.5846 168.719 97.3438 169.578 97.3438C170.451 97.3438 171.16 97.5911 171.707 98.0859C172.267 98.5807 172.547 99.2122 172.547 99.9805C172.547 100.749 172.267 101.387 171.707 101.895C171.16 102.402 170.451 102.656 169.578 102.656ZM200.477 93.75C199.422 94.349 198.374 94.7852 197.332 95.0586C196.303 95.3451 195.177 95.4883 193.953 95.4883C190.568 95.4883 187.931 94.5573 186.043 92.6953C184.155 90.8333 183.211 88.431 183.211 85.4883C183.211 82.0898 184.214 79.4141 186.219 77.4609C188.237 75.4948 190.906 74.5117 194.227 74.5117C195.49 74.5117 196.59 74.6354 197.527 74.8828C198.465 75.1172 199.415 75.5013 200.379 76.0352L198.094 80.1758C197.495 79.8503 196.909 79.6159 196.336 79.4727C195.776 79.3164 195.158 79.2383 194.48 79.2383C192.918 79.2383 191.694 79.7461 190.809 80.7617C189.923 81.7773 189.48 83.2161 189.48 85.0781C189.48 86.862 189.975 88.2552 190.965 89.2578C191.954 90.2604 193.152 90.7617 194.559 90.7617C194.936 90.7617 195.451 90.6771 196.102 90.5078C196.766 90.3255 197.436 90.0391 198.113 89.6484L200.477 93.75ZM68.1719 148L65.0273 145.051C63.4779 146.249 61.9414 147.115 60.418 147.648C58.8945 148.182 57.1562 148.449 55.2031 148.449C52.1432 148.449 49.6172 147.72 47.625 146.262C45.6328 144.803 44.6367 142.674 44.6367 139.875C44.6367 137.909 45.2031 136.32 46.3359 135.109C47.4818 133.885 49.0378 132.798 51.0039 131.848C49.9492 130.754 49.181 129.758 48.6992 128.859C48.2305 127.961 47.9961 126.991 47.9961 125.949C47.9961 123.879 48.7904 122.29 50.3789 121.184C51.9674 120.077 54.0052 119.523 56.4922 119.523C58.888 119.523 60.8346 120.09 62.332 121.223C63.8424 122.355 64.5977 123.82 64.5977 125.617C64.5977 126.984 64.2135 128.189 63.4453 129.23C62.6771 130.259 61.1276 131.32 58.7969 132.414L65.3789 138.391C66.3294 137.206 66.9674 136.014 67.293 134.816C67.6185 133.605 67.7812 132.271 67.7812 130.812H73.25C73.25 132.792 72.918 134.634 72.2539 136.34C71.6029 138.046 70.4701 139.777 68.8555 141.535L75.9844 148H68.1719ZM55.8281 129.719C56.9219 129.25 57.7422 128.755 58.2891 128.234C58.849 127.701 59.1289 126.971 59.1289 126.047C59.1289 125.279 58.862 124.686 58.3281 124.27C57.7943 123.853 57.1823 123.645 56.4922 123.645C55.6198 123.645 54.9102 123.892 54.3633 124.387C53.8164 124.868 53.543 125.454 53.543 126.145C53.543 126.73 53.7253 127.29 54.0898 127.824C54.4544 128.345 55.0339 128.977 55.8281 129.719ZM61.6094 141.848L54.0898 134.797C53.2174 135.292 52.4622 135.917 51.8242 136.672C51.1992 137.414 50.8867 138.397 50.8867 139.621C50.8867 140.884 51.3164 141.893 52.1758 142.648C53.0352 143.404 54.1484 143.781 55.5156 143.781C56.6745 143.781 57.7292 143.638 58.6797 143.352C59.6302 143.065 60.6068 142.564 61.6094 141.848ZM102.137 147.688C101.512 147.948 100.809 148.143 100.027 148.273C99.2591 148.417 98.4779 148.488 97.6836 148.488C95.4961 148.488 93.849 147.961 92.7422 146.906C91.6354 145.852 91.082 144.276 91.082 142.18V132.551H87.8398V128H91.082V123.156L97.2344 121.398V128H101.727V132.551H97.2344V141.789C97.2344 142.557 97.3841 143.117 97.6836 143.469C97.9831 143.807 98.4648 143.977 99.1289 143.977C99.4544 143.977 99.7669 143.938 100.066 143.859C100.366 143.768 100.652 143.658 100.926 143.527L102.137 147.688ZM124.422 148H118.27V136.633C118.27 135.161 118.003 134.061 117.469 133.332C116.935 132.603 116.134 132.238 115.066 132.238C113.973 132.238 113.087 132.648 112.41 133.469C111.733 134.289 111.395 135.331 111.395 136.594V148H105.223V118.391H111.395V130.969H111.473C112.228 129.81 113.12 128.944 114.148 128.371C115.177 127.798 116.336 127.512 117.625 127.512C119.891 127.512 121.59 128.195 122.723 129.562C123.855 130.93 124.422 132.98 124.422 135.715V148ZM147.293 139.758H134.246C134.35 141.203 134.832 142.277 135.691 142.98C136.564 143.684 137.762 144.035 139.285 144.035C139.858 144.035 140.646 143.866 141.648 143.527C142.664 143.176 143.647 142.629 144.598 141.887L147.332 145.383C145.965 146.464 144.559 147.251 143.113 147.746C141.668 148.241 140.073 148.488 138.328 148.488C135.099 148.488 132.592 147.596 130.809 145.812C129.025 144.016 128.133 141.516 128.133 138.312C128.133 135.122 129.077 132.525 130.965 130.52C132.853 128.514 135.242 127.512 138.133 127.512C140.906 127.512 143.126 128.352 144.793 130.031C146.46 131.698 147.293 134.126 147.293 137.316V139.758ZM141.57 135.969C141.57 134.419 141.277 133.319 140.691 132.668C140.118 132.004 139.253 131.672 138.094 131.672C137.104 131.672 136.245 132.056 135.516 132.824C134.799 133.592 134.363 134.641 134.207 135.969H141.57ZM160.496 148.488C157.163 148.488 154.539 147.551 152.625 145.676C150.711 143.801 149.76 141.268 149.773 138.078C149.786 134.771 150.776 132.186 152.742 130.324C154.721 128.449 157.397 127.512 160.77 127.512C164.09 127.512 166.694 128.443 168.582 130.305C170.47 132.167 171.414 134.641 171.414 137.727C171.414 141.034 170.438 143.658 168.484 145.598C166.544 147.525 163.882 148.488 160.496 148.488ZM160.691 143.762C162.176 143.762 163.283 143.267 164.012 142.277C164.754 141.288 165.125 139.81 165.125 137.844C165.125 135.982 164.754 134.582 164.012 133.645C163.27 132.707 162.15 132.238 160.652 132.238C159.194 132.238 158.061 132.746 157.254 133.762C156.447 134.764 156.043 136.177 156.043 138C156.043 139.927 156.427 141.372 157.195 142.336C157.977 143.286 159.142 143.762 160.691 143.762ZM199.793 145.246C199.09 146.327 198.224 147.141 197.195 147.688C196.167 148.221 194.969 148.488 193.602 148.488C191.115 148.488 189.103 147.609 187.566 145.852C186.043 144.081 185.281 141.613 185.281 138.449C185.281 135.142 186.121 132.492 187.801 130.5C189.493 128.508 191.694 127.512 194.402 127.512C195.691 127.512 196.785 127.746 197.684 128.215C198.582 128.671 199.285 129.361 199.793 130.285H199.871V118.391H206.043V148H199.871V145.246H199.793ZM191.551 138.273C191.551 140.031 191.922 141.385 192.664 142.336C193.406 143.286 194.435 143.762 195.75 143.762C197 143.762 198.016 143.26 198.797 142.258C199.591 141.255 199.988 139.927 199.988 138.273V136.77C199.988 135.467 199.611 134.387 198.855 133.527C198.1 132.668 197.117 132.238 195.906 132.238C194.539 132.238 193.471 132.779 192.703 133.859C191.935 134.927 191.551 136.398 191.551 138.273ZM220.77 148.488C217.436 148.488 214.812 147.551 212.898 145.676C210.984 143.801 210.034 141.268 210.047 138.078C210.06 134.771 211.049 132.186 213.016 130.324C214.995 128.449 217.671 127.512 221.043 127.512C224.363 127.512 226.967 128.443 228.855 130.305C230.743 132.167 231.688 134.641 231.688 137.727C231.688 141.034 230.711 143.658 228.758 145.598C226.818 147.525 224.155 148.488 220.77 148.488ZM220.965 143.762C222.449 143.762 223.556 143.267 224.285 142.277C225.027 141.288 225.398 139.81 225.398 137.844C225.398 135.982 225.027 134.582 224.285 133.645C223.543 132.707 222.423 132.238 220.926 132.238C219.467 132.238 218.335 132.746 217.527 133.762C216.72 134.764 216.316 136.177 216.316 138C216.316 139.927 216.701 141.372 217.469 142.336C218.25 143.286 219.415 143.762 220.965 143.762ZM227.938 118.781C227.938 120.604 227.573 122.017 226.844 123.02C226.128 124.009 225.145 124.504 223.895 124.504C223.335 124.504 222.781 124.432 222.234 124.289C221.688 124.146 221.147 123.938 220.613 123.664C220.04 123.352 219.552 123.124 219.148 122.98C218.745 122.824 218.432 122.746 218.211 122.746C217.69 122.746 217.299 122.922 217.039 123.273C216.779 123.625 216.648 124.152 216.648 124.855H213.895C213.895 123.046 214.253 121.639 214.969 120.637C215.685 119.634 216.688 119.133 217.977 119.133C218.51 119.133 219.051 119.211 219.598 119.367C220.145 119.523 220.698 119.764 221.258 120.09C221.779 120.376 222.234 120.591 222.625 120.734C223.016 120.878 223.341 120.949 223.602 120.949C224.109 120.949 224.487 120.767 224.734 120.402C224.995 120.038 225.125 119.497 225.125 118.781H227.938ZM238.816 125.246C237.749 125.246 236.876 124.921 236.199 124.27C235.522 123.618 235.184 122.811 235.184 121.848C235.184 120.845 235.522 120.031 236.199 119.406C236.876 118.768 237.749 118.449 238.816 118.449C239.897 118.449 240.77 118.768 241.434 119.406C242.111 120.031 242.449 120.845 242.449 121.848C242.449 122.85 242.111 123.671 241.434 124.309C240.77 124.934 239.897 125.246 238.816 125.246ZM241.863 148H235.691V128H241.863V148Z" fill="#EA0001"/>
</svg>
