<svg width="71" height="71" viewBox="0 0 71 71" fill="none" xmlns="http://www.w3.org/2000/svg">
<path d="M70.4707 35.8739C70.4707 16.5436 54.7766 0.874023 35.416 0.874023C16.0554 0.874023 0.361328 16.5436 0.361328 35.8739C0.361328 53.3427 13.1784 67.8248 29.9371 70.4485V45.9901H21.0358V35.8739H29.9371V28.1635C29.9371 19.3902 35.1719 14.5473 43.18 14.5473C47.0178 14.5473 51.027 15.2317 51.027 15.2317V23.8443H46.6076C42.2504 23.8443 40.8949 26.5406 40.8949 29.3094V35.8739H50.6168L49.064 45.9901H40.8949V70.4485C57.6537 67.8248 70.4707 53.3427 70.4707 35.8739Z" fill="white"/>
<path d="M49.0591 45.9907L50.6119 35.8744H40.8953V29.31C40.8953 26.5411 42.2507 23.8448 46.6079 23.8448H51.0274V15.2323C51.0274 15.2323 47.0181 14.5479 43.1803 14.5479C35.1723 14.5479 29.9374 19.3908 29.9374 28.1641V35.8744H21.0361V45.9907H29.9374V70.4491C31.7239 70.7291 33.552 70.8743 35.4163 70.8743C37.2807 70.8743 39.1088 70.7291 40.8953 70.4491V45.9907H49.0591Z" fill="#0B2D48"/>
</svg>
