<svg width="55" height="45" viewBox="0 0 55 45" fill="none" xmlns="http://www.w3.org/2000/svg">
<path d="M2.57162 44.3965H22.2383C22.8903 44.3965 23.5156 44.1379 23.9766 43.6776C24.4376 43.2173 24.6966 42.593 24.6966 41.942C24.6966 41.291 24.4376 40.6667 23.9766 40.2064C23.5156 39.7461 22.8903 39.4875 22.2383 39.4875H5.20449C5.80102 35.4003 7.84999 31.6637 10.9773 28.96C14.1045 26.2562 18.1015 24.7657 22.2383 24.7605C25.1329 24.7856 27.9451 23.7987 30.1875 21.9709C32.4299 20.1432 33.9611 17.5897 34.5159 14.753C35.0706 11.9163 34.6138 8.9753 33.2248 6.43958C31.8357 3.90386 29.6018 1.93327 26.9104 0.869346C24.2189 -0.194583 21.2394 -0.2848 18.4883 0.614328C15.7372 1.51346 13.3879 3.34526 11.8475 5.79228C10.307 8.2393 9.67263 11.1473 10.0542 14.0123C10.4357 16.8773 11.8092 19.5188 13.9365 21.4789C9.85617 23.1315 6.3618 25.961 3.89962 29.6058C1.43745 33.2507 0.119221 37.5456 0.113281 41.942C0.113281 42.593 0.372283 43.2173 0.833311 43.6776C1.29434 44.1379 1.91962 44.3965 2.57162 44.3965ZM22.2383 5.12453C23.6969 5.12453 25.1228 5.55639 26.3356 6.3655C27.5484 7.17462 28.4937 8.32464 29.0519 9.67014C29.6101 11.0156 29.7561 12.4962 29.4716 13.9246C29.187 15.353 28.4846 16.665 27.4532 17.6948C26.4218 18.7246 25.1077 19.4259 23.6771 19.71C22.2465 19.9942 20.7636 19.8483 19.416 19.291C18.0684 18.7337 16.9166 17.7899 16.1062 16.579C15.2958 15.368 14.8633 13.9444 14.8633 12.488C14.8633 10.5351 15.6403 8.66217 17.0234 7.28125C18.4065 5.90033 20.2823 5.12453 22.2383 5.12453V5.12453ZM44.3633 44.3965C47.2932 43.2105 49.7979 41.1716 51.5516 38.5451C53.3054 35.9186 54.227 32.826 54.1966 29.6695C54.1966 27.0656 53.1606 24.5684 51.3165 22.7271C49.4724 20.8859 46.9713 19.8515 44.3633 19.8515C41.7553 19.8515 39.2542 20.8859 37.4101 22.7271C35.566 24.5684 34.53 27.0656 34.53 29.6695C34.4996 32.826 35.4212 35.9186 37.1749 38.5451C38.9287 41.1716 41.4334 43.2105 44.3633 44.3965V44.3965ZM40.6758 29.6695C40.6758 28.9413 40.8921 28.2295 41.2973 27.6241C41.7024 27.0186 42.2784 26.5467 42.9522 26.268C43.626 25.9894 44.3674 25.9165 45.0827 26.0585C45.798 26.2006 46.455 26.5512 46.9708 27.0661C47.4865 27.581 47.8377 28.2371 47.9799 28.9512C48.1222 29.6654 48.0492 30.4057 47.7701 31.0785C47.491 31.7512 47.0184 32.3262 46.412 32.7308C45.8056 33.1353 45.0926 33.3513 44.3633 33.3513C43.3853 33.3513 42.4474 32.9634 41.7558 32.2729C41.0643 31.5824 40.6758 30.646 40.6758 29.6695Z" fill="white"/>
</svg>
