<svg width="71" height="54" viewBox="0 0 71 54" fill="none" xmlns="http://www.w3.org/2000/svg">
<path d="M60.2433 42.8643L50.716 46.7137L39.2527 51.3444C39.247 51.3444 39.2414 51.35 39.2414 51.35L39.1791 51.3727C39.1508 51.384 39.1168 51.3953 39.0885 51.4066C38.9979 51.4406 38.9074 51.4746 38.8111 51.5029C38.7602 51.5199 38.7036 51.5312 38.6526 51.5425C38.5734 51.5651 38.4941 51.5821 38.4149 51.5991C38.3526 51.6104 38.2903 51.6217 38.2281 51.6274C38.1545 51.6387 38.0865 51.6501 38.013 51.6557C37.945 51.6614 37.8771 51.667 37.8148 51.667C37.7469 51.6727 37.679 51.6727 37.6054 51.6727C37.4865 51.6727 37.3733 51.667 37.2544 51.6557C37.2374 51.6557 37.2204 51.6557 37.2034 51.6501C37.1015 51.6387 36.9996 51.6217 36.8978 51.6048C36.8638 51.5991 36.8298 51.5934 36.8015 51.5878C36.7845 51.5821 36.7732 51.5821 36.7562 51.5765C36.677 51.5595 36.6034 51.5425 36.5241 51.5199C36.4845 51.5085 36.4392 51.4972 36.3996 51.4859C36.309 51.4576 36.2128 51.4236 36.1222 51.3897C36.0939 51.3783 36.0599 51.3727 36.0316 51.3557L4.31923 38.5677C2.17374 37.7016 1.0076 35.2787 1.83975 33.1162C2.68323 30.9141 5.1627 29.8386 7.34215 30.716L35.5221 42.1001L35.992 42.2926C37.0223 42.7115 38.1771 42.7115 39.2074 42.2926L64.6871 32.001L69.9971 29.8556C70.6311 29.6065 70.5688 28.8649 70.0367 28.5819L40.6566 15.3353C38.7149 14.4579 36.4902 14.4579 34.5485 15.3353L3.82107 29.1876C2.29828 29.731 1.05288 30.8915 0.418862 32.4539C-0.769928 35.4032 0.65662 38.7658 3.60595 39.9546L35.307 52.7596C35.6807 52.9238 36.0713 53.0426 36.4788 53.1219C36.5015 53.1275 36.5298 53.1332 36.5524 53.1332C36.6883 53.1615 36.8298 53.1785 36.9713 53.1955C37.011 53.2011 37.0506 53.2068 37.0959 53.2068C37.2657 53.2238 37.4299 53.2294 37.5997 53.2294C38.3413 53.2294 39.0659 53.0879 39.7565 52.8105L68.797 41.0811C70.2065 40.515 70.45 40.0056 70.45 38.7319L60.2433 42.8643ZM4.30224 29.0404C4.29092 29.046 4.2796 29.046 4.26828 29.0517C4.2796 29.046 4.29092 29.0404 4.30224 29.0404ZM5.28158 28.8706C5.24762 28.8762 5.21365 28.8762 5.18535 28.8819C5.21931 28.8762 5.24762 28.8762 5.28158 28.8706ZM4.79474 28.9328C4.7721 28.9385 4.7438 28.9442 4.72115 28.9442C4.7438 28.9442 4.7721 28.9385 4.79474 28.9328Z" fill="white"/>
<path d="M37.5999 49.7141C37.1527 49.7141 36.6998 49.6462 36.2582 49.516C36.2413 49.5103 36.2299 49.5047 36.2129 49.499L5.6497 37.1299C5.40062 37.028 5.28174 36.745 5.38364 36.4959C5.48554 36.2468 5.76858 36.1279 6.01766 36.2298L36.5583 48.5876C37.2602 48.7914 37.9452 48.7914 38.6528 48.5876L68.1461 36.694C68.3952 36.5921 68.6783 36.7167 68.7802 36.9658C68.882 37.2148 68.7632 37.4979 68.5084 37.5998L38.9925 49.499C38.9755 49.5047 38.9641 49.5103 38.9472 49.516C38.5 49.6462 38.0471 49.7141 37.5999 49.7141Z" fill="white"/>
<path d="M37.5999 46.3233C37.1527 46.3233 36.6998 46.2554 36.2583 46.1252C36.2413 46.1195 36.23 46.1138 36.213 46.1082L5.64409 33.7391C5.39501 33.6372 5.27613 33.3542 5.37803 33.1051C5.47992 32.856 5.76297 32.7371 6.01205 32.8334L36.5583 45.1911C37.2603 45.3949 37.9452 45.3949 38.6528 45.1911L68.1462 33.2976C68.3952 33.1957 68.6783 33.3202 68.7802 33.5693C68.8821 33.8184 68.7632 34.1014 68.5085 34.2033L38.9925 46.1082C38.9755 46.1138 38.9642 46.1195 38.9472 46.1252C38.5 46.2554 38.0471 46.3233 37.5999 46.3233Z" fill="white"/>
<path d="M35.409 0.226486L13.7787 10.0991C13.2352 10.3482 13.2352 11.1181 13.7787 11.3672L35.409 21.2454C36.06 21.5455 36.8129 21.5455 37.4696 21.2454L59.0999 11.3672C59.6434 11.1181 59.6434 10.3482 59.0999 10.0991L37.4696 0.226486C36.8129 -0.0735422 36.0657 -0.0735422 35.409 0.226486Z" fill="white"/>
<path d="M36.326 32.9409C26.8157 32.9409 19.6377 29.7028 19.6377 25.4119V14.1863L34.8712 21.1435C35.3694 21.37 35.8958 21.4832 36.4393 21.4832C36.9827 21.4832 37.5148 21.37 38.013 21.1435L53.0144 14.2938V25.4119C53.0087 29.7028 45.8364 32.9409 36.326 32.9409Z" fill="#67AC2F"/>
<path d="M38.5168 22.2473C37.8601 22.5473 37.1639 22.7002 36.4393 22.7002C35.7203 22.7002 35.0184 22.5473 34.3674 22.2473L20.8491 16.0769V25.4117C20.8491 28.8989 27.7781 31.7293 36.3204 31.7293C44.8684 31.7293 51.7973 28.8989 51.7973 25.4117V16.1845L38.5168 22.2473Z" fill="white"/>
</svg>
