<svg width="71" height="70" viewBox="0 0 71 70" fill="none" xmlns="http://www.w3.org/2000/svg">
<path d="M35.6231 70C54.9832 70 70.6777 54.33 70.6777 35C70.6777 15.67 54.9832 0 35.6231 0C16.2629 0 0.568359 15.67 0.568359 35C0.568359 54.33 16.2629 70 35.6231 70Z" fill="white"/>
<path d="M55.2636 23.4319C55.2636 23.2297 55.2584 23.2193 55.0455 23.2245C54.5313 23.2297 54.0224 23.1674 53.5186 23.0897C51.6854 22.8148 45.7339 19.6985 44.7264 14.6015C44.7056 14.503 44.4823 13.2378 44.4823 12.6985C44.4823 12.46 44.4771 12.4548 44.2434 12.4548C44.1863 12.4548 44.1344 12.4548 44.0772 12.4548C41.7507 12.4548 39.4189 12.4548 37.0923 12.4548C36.6249 12.4548 36.6872 12.3978 36.6872 12.8645C36.6872 22.9445 36.6872 33.0245 36.6872 43.1045C36.6872 43.483 36.6768 43.8563 36.6093 44.2245C36.2562 46.1741 35.259 47.7037 33.566 48.746C32.1015 49.6482 30.5072 49.9074 28.8142 49.5704C28.2793 49.4667 27.7807 49.2645 27.2821 49.0674C27.2406 49.0311 27.1991 48.9948 27.1627 48.9585C26.9965 48.8185 26.8096 48.6993 26.6278 48.5748C24.4726 47.0867 23.4495 45.0178 23.7611 42.4304C24.0779 39.8067 25.5891 38.023 28.0819 37.1052C28.8246 36.8304 29.6087 36.7163 30.4033 36.763C30.9174 36.7889 31.4264 36.8563 31.9198 36.9963C32.0911 37.043 32.1846 36.986 32.195 36.8045C32.2002 36.7422 32.2002 36.6748 32.2002 36.6126C32.2002 34.803 32.1327 30.8519 32.1223 30.8415C32.1275 30.323 32.1275 29.7993 32.1379 29.2808C32.1431 29.1304 32.0652 29.1045 31.9405 29.0889C31.0005 28.98 30.0606 28.9541 29.1154 29.0267C27.8119 29.12 26.5447 29.3897 25.3139 29.8304C23.3508 30.5356 21.6319 31.6245 20.1466 33.0763C18.869 34.326 17.8667 35.7674 17.1345 37.3956C16.4282 38.9511 16.0283 40.5845 15.914 42.2852C15.8673 43.0215 15.8725 43.763 15.9452 44.5045C16.0387 45.526 16.236 46.5267 16.5476 47.5067C17.4461 50.3171 19.0716 52.6193 21.3826 54.4497C21.6163 54.6363 21.8448 54.8386 22.1252 54.9578C22.2447 55.0615 22.3589 55.1652 22.4784 55.2689C22.8523 55.5489 23.2522 55.7926 23.6728 55.9948C26.2591 57.2704 28.9856 57.7889 31.8574 57.4415C35.5862 56.9852 38.6918 55.3363 41.1326 52.4948C43.4333 49.8193 44.5498 46.6822 44.5706 43.1719C44.6018 38.1526 44.5758 33.1334 44.581 28.1089C44.581 27.9897 44.5135 27.8185 44.6433 27.7563C44.7472 27.7097 44.851 27.8445 44.9497 27.9119C46.8193 29.1408 48.8395 30.0274 51.0258 30.5252C52.2982 30.8156 53.5809 30.9919 54.8897 30.9919C55.2999 30.9919 55.3571 30.9711 55.3571 30.5615C55.3571 28.7778 55.2636 23.9037 55.2636 23.4319Z" fill="#0B2D48"/>
</svg>
