<svg width="49" height="48" viewBox="0 0 49 48" fill="none" xmlns="http://www.w3.org/2000/svg">
<path d="M20.4167 28C19.8752 28 19.3559 28.2107 18.973 28.5858C18.5901 28.9609 18.375 29.4696 18.375 30V32C18.375 32.5304 18.5901 33.0391 18.973 33.4142C19.3559 33.7893 19.8752 34 20.4167 34C20.9582 34 21.4775 33.7893 21.8603 33.4142C22.2432 33.0391 22.4583 32.5304 22.4583 32V30C22.4583 29.4696 22.2432 28.9609 21.8603 28.5858C21.4775 28.2107 20.9582 28 20.4167 28Z" fill="white"/>
<path d="M28.5834 28C28.0419 28 27.5226 28.2107 27.1397 28.5858C26.7569 28.9609 26.5417 29.4696 26.5417 30V32C26.5417 32.5304 26.7569 33.0391 27.1397 33.4142C27.5226 33.7893 28.0419 34 28.5834 34C29.1249 34 29.6442 33.7893 30.0271 33.4142C30.41 33.0391 30.6251 32.5304 30.6251 32V30C30.6251 29.4696 30.41 28.9609 30.0271 28.5858C29.6442 28.2107 29.1249 28 28.5834 28Z" fill="white"/>
<path d="M24.4999 4C14.2916 4 4.08325 10.752 4.08325 22C4.08325 24.058 5.79825 31.742 9.21804 29.586C9.36268 33.4616 11.036 37.1312 13.8861 39.8229C16.7362 42.5147 20.5409 44.0187 24.4999 44.0187C28.4589 44.0187 32.2636 42.5147 35.1137 39.8229C37.9638 37.1312 39.6372 33.4616 39.7818 29.586C43.2016 31.748 44.9166 24.064 44.9166 22C44.9166 10.752 34.7083 4 24.4999 4ZM24.4999 8C28.0557 7.98875 31.5407 8.97268 34.5449 10.836C33.4222 12.4288 31.9215 13.7307 30.1719 14.6301C28.4222 15.5294 26.4758 15.9993 24.4999 15.9993C22.524 15.9993 20.5776 15.5294 18.828 14.6301C17.0783 13.7307 15.5777 12.4288 14.4549 10.836C17.4591 8.97268 20.9442 7.98875 24.4999 8ZM24.4999 40C21.5228 39.9968 18.6685 38.8369 16.5633 36.7747C14.4581 34.7125 13.274 31.9164 13.2708 29C13.2708 28.878 13.2708 28.756 13.2708 28.634C16.2697 25.6781 20.2571 23.8821 24.4999 23.576C28.7427 23.8821 32.7301 25.6781 35.7291 28.634C35.7291 28.756 35.7291 28.878 35.7291 29C35.7258 31.9164 34.5417 34.7125 32.4366 36.7747C30.3314 38.8369 27.4771 39.9968 24.4999 40V40Z" fill="white"/>
</svg>
