<svg width="71" height="70" viewBox="0 0 71 70" fill="none" xmlns="http://www.w3.org/2000/svg">
<path d="M35.8301 70C55.1903 70 70.8848 54.33 70.8848 35C70.8848 15.67 55.1903 0 35.8301 0C16.4699 0 0.775391 15.67 0.775391 35C0.775391 54.33 16.4699 70 35.8301 70Z" fill="white"/>
<path d="M58.2232 23.7687C57.6883 21.7621 56.1043 20.1806 54.0893 19.6413C50.4437 18.6665 35.8298 18.6665 35.8298 18.6665C35.8298 18.6665 21.2159 18.6665 17.5702 19.6413C15.5604 20.1806 13.9764 21.7569 13.4363 23.7687C12.46 27.4087 12.46 34.9998 12.46 34.9998C12.46 34.9998 12.46 42.5909 13.4363 46.2309C13.9764 48.2376 15.5552 49.8191 17.5702 50.3584C21.2159 51.3332 35.8298 51.3332 35.8298 51.3332C35.8298 51.3332 50.4437 51.3332 54.0893 50.3584C56.0991 49.8191 57.6831 48.2428 58.2232 46.2309C59.1995 42.5909 59.1996 34.9998 59.1996 34.9998C59.1996 34.9998 59.1995 27.4035 58.2232 23.7687ZM31.1558 41.9998V27.9998L43.2977 34.9998L31.1558 41.9998Z" fill="#0B2D48"/>
</svg>
