<svg width="385" height="287" viewBox="0 0 385 287" fill="none" xmlns="http://www.w3.org/2000/svg">
<path d="M72.4018 186.233H19.1595C18.2334 186.233 17.3452 185.865 16.6903 185.21C16.0354 184.555 15.6675 183.667 15.6675 182.741C15.6675 181.815 16.0354 180.927 16.6903 180.272C17.3452 179.617 18.2334 179.249 19.1595 179.249H72.4018C73.328 179.249 74.2162 179.617 74.8711 180.272C75.526 180.927 75.8939 181.815 75.8939 182.741C75.8939 183.667 75.526 184.555 74.8711 185.21C74.2162 185.865 73.328 186.233 72.4018 186.233Z" fill="white"/>
<path opacity="0.8" d="M72.4018 186.233H19.1595C18.2334 186.233 17.3452 185.865 16.6903 185.21C16.0354 184.555 15.6675 183.667 15.6675 182.741C15.6675 181.815 16.0354 180.927 16.6903 180.272C17.3452 179.617 18.2334 179.249 19.1595 179.249H72.4018C73.328 179.249 74.2162 179.617 74.8711 180.272C75.526 180.927 75.8939 181.815 75.8939 182.741C75.8939 183.667 75.526 184.555 74.8711 185.21C74.2162 185.865 73.328 186.233 72.4018 186.233Z" fill="white"/>
<path d="M120.348 276.084L128.194 272.487L124.411 252.233L116.577 255.842L120.348 276.084Z" fill="#FF8B7B"/>
<path d="M127.821 270.334L119.009 274.373C118.858 274.435 118.738 274.554 118.675 274.705C118.611 274.855 118.61 275.025 118.672 275.176L121.442 282.346C121.61 282.713 121.915 282.999 122.292 283.143C122.669 283.287 123.087 283.277 123.456 283.115C126.506 281.648 127.879 280.787 131.755 279.017C134.142 277.923 144.397 273.523 147.679 272.033C150.962 270.543 149.39 267.307 147.854 267.657C140.998 269.205 132.407 270.939 129.393 270.217C128.871 270.078 128.317 270.119 127.821 270.334Z" fill="#263238"/>
<path opacity="0.2" d="M116.565 255.841L124.41 252.245L126.366 262.686L118.509 266.283L116.565 255.841Z" fill="black"/>
<path d="M65.0337 145.842C65.0337 145.842 132.174 150.649 129.462 175.245C125.574 210.596 128.775 255.318 128.775 255.318L114.155 261.348C114.155 261.348 101.351 211.516 104.762 183.963C88.0114 176.979 42.5913 183.672 37.2485 169.204C34.6366 161.707 33.9482 153.674 35.2464 145.842H65.0337Z" fill="#FFD760"/>
<path opacity="0.3" d="M97.7427 166.317C97.7427 166.317 96.1131 173.627 94.9956 181.566H95.1469L96.8697 181.833L97.7427 181.996L98.7321 182.182C100.081 182.449 101.414 182.791 102.725 183.207C103.039 183.3 103.33 183.405 103.621 183.509C103.912 183.614 104.401 183.789 104.785 183.94C104.382 187.336 104.184 190.752 104.191 194.172C114.377 179.214 105.623 166.317 97.7427 166.317Z" fill="black"/>
<path d="M112.84 266.155L131.756 257.472L130.533 250.511L111.083 257.623L112.84 266.155Z" fill="#EBBE39"/>
<path d="M131.313 270.427C130.597 270.727 129.852 270.954 129.09 271.102C129.053 271.11 129.014 271.107 128.978 271.092C128.943 271.078 128.913 271.053 128.892 271.02C128.87 270.988 128.858 270.949 128.858 270.91C128.858 270.87 128.87 270.832 128.892 270.799C129.055 270.508 130.58 267.982 131.709 267.913C131.839 267.903 131.968 267.929 132.085 267.986C132.202 268.043 132.301 268.13 132.373 268.238C132.506 268.383 132.598 268.561 132.639 268.754C132.68 268.946 132.669 269.146 132.605 269.333C132.327 269.847 131.866 270.237 131.313 270.427ZM129.474 270.601C130.999 270.241 132.012 269.728 132.21 269.193C132.252 269.071 132.259 268.94 132.23 268.815C132.201 268.689 132.138 268.574 132.047 268.483C132.014 268.427 131.965 268.383 131.908 268.354C131.85 268.325 131.785 268.313 131.721 268.32C131.081 268.355 130.079 269.659 129.439 270.601H129.474Z" fill="white"/>
<path d="M129.101 271.091H128.985C128.95 271.093 128.915 271.084 128.886 271.065C128.857 271.046 128.834 271.018 128.822 270.986C128.822 270.904 127.553 268.728 127.995 267.599C128.048 267.453 128.134 267.322 128.248 267.216C128.361 267.111 128.498 267.035 128.647 266.993C128.806 266.925 128.983 266.912 129.15 266.956C129.316 267 129.463 267.1 129.567 267.238C130.137 268.006 129.73 270.183 129.159 271.009L129.101 271.091ZM128.706 267.412C128.632 267.445 128.566 267.494 128.512 267.554C128.457 267.614 128.416 267.685 128.391 267.761C128.303 268.713 128.524 269.668 129.02 270.485C129.486 269.558 129.574 268.485 129.264 267.494C129.194 267.389 129.078 267.296 128.799 267.377L128.706 267.412Z" fill="white"/>
<path d="M68.3049 75.8608L76.4531 99.4905C77.8383 103.425 79.2118 107.348 80.6319 111.224C82.052 115.1 83.507 118.965 85.0668 122.643L84.6827 121.944C84.2921 121.38 83.7684 120.92 83.1578 120.606C82.4432 120.228 81.6354 120.062 80.8298 120.129C79.7705 120.268 79.8055 120.489 79.9219 120.408C80.5981 120.085 81.2189 119.657 81.761 119.139C83.3798 117.695 84.9149 116.16 86.3589 114.541C87.907 112.853 89.4319 111.049 91.015 109.292L95.6012 103.89L101.165 107.22C100.199 109.548 99.1049 111.736 97.9874 113.959C96.87 116.183 95.6594 118.324 94.2742 120.478C92.8868 122.723 91.3302 124.859 89.6181 126.868C88.5336 128.13 87.2892 129.245 85.9166 130.186C84.6572 131.057 83.1932 131.586 81.6679 131.722C80.2691 131.835 78.8672 131.544 77.6287 130.884C76.487 130.274 75.5181 129.385 74.8118 128.3L74.6721 128.09L74.4277 127.613C72.4721 123.656 70.7494 119.744 69.0965 115.787C67.4436 111.829 65.8721 107.906 64.3705 103.937C62.869 99.9677 61.4023 95.9984 60.0055 92.0058C58.6086 88.0132 57.2351 84.0206 55.9663 79.9466L68.3049 75.8608Z" fill="#FF8B7B"/>
<path d="M69.7711 77.1413C76.7553 85.1963 81.4113 96.464 81.4113 96.464L63.0664 107.511C57.7701 101.062 51.1701 83.9741 50.8907 78.2122C50.4833 69.354 62.205 68.4693 69.7711 77.1413Z" fill="white"/>
<path opacity="0.3" d="M63.2996 85.3596C67.3038 88.7236 70.144 95.7194 71.4477 102.506L63.1366 107.511C60.5176 104.322 57.5726 98.5363 55.2329 92.7861C57.0488 87.0824 59.761 82.3797 63.2996 85.3596Z" fill="black"/>
<path d="M65.895 275.409H74.5321L78.4781 255.434H69.8527L65.895 275.409Z" fill="#FF8B7B"/>
<path d="M74.8001 273.313H65.1038C65.0227 273.31 64.9419 273.323 64.8659 273.351C64.7898 273.38 64.7201 273.422 64.6606 273.478C64.6011 273.533 64.5531 273.599 64.5193 273.673C64.4855 273.746 64.4666 273.826 64.4636 273.907L63.9863 281.578C63.9863 281.981 64.145 282.369 64.4281 282.656C64.7112 282.944 65.0961 283.108 65.4996 283.114C68.8752 283.056 70.4932 282.858 74.7535 282.858C77.3726 282.858 86.2773 283.126 89.8858 283.126C93.4942 283.126 93.3778 279.541 91.8646 279.215C84.9853 277.76 78.7112 275.723 76.2667 273.849C75.8541 273.507 75.336 273.318 74.8001 273.313Z" fill="#263238"/>
<path opacity="0.2" d="M69.8529 255.434H78.4783L76.4412 265.736H67.8042L69.8529 255.434Z" fill="black"/>
<path d="M48.1204 145.842C48.1204 145.842 105.018 150.649 103.621 175.35C102.084 202.402 80.1892 263.245 80.1892 263.245H64.3818C64.3818 263.245 71.5289 208.198 74.986 180.658C58.9575 180.658 25.6781 183.672 20.3469 169.204C17.7545 161.702 17.0861 153.669 18.403 145.842H48.1204Z" fill="#FFD760"/>
<path d="M62.6826 263.245H83.4953L84.6826 255.039L62.962 256.016L62.6826 263.245Z" fill="#EBBE39"/>
<path d="M77.8496 274.815C77.0651 274.797 76.2847 274.696 75.5216 274.513C75.4827 274.505 75.447 274.486 75.419 274.458C75.391 274.43 75.372 274.395 75.3644 274.356C75.3569 274.317 75.3612 274.277 75.3768 274.24C75.3924 274.204 75.4185 274.173 75.4517 274.152C75.7311 273.954 78.1639 272.289 79.2232 272.697C79.3418 272.746 79.4463 272.824 79.5275 272.924C79.6087 273.023 79.6641 273.141 79.6888 273.267C79.7434 273.455 79.7497 273.654 79.707 273.846C79.6643 274.037 79.5739 274.214 79.4443 274.361C78.9865 274.703 78.4189 274.865 77.8496 274.815ZM76.1036 274.222C77.6518 274.524 78.7925 274.478 79.1883 274.082C79.276 273.986 79.3364 273.869 79.363 273.742C79.3897 273.615 79.3816 273.483 79.3396 273.36C79.3302 273.297 79.3035 273.237 79.2624 273.188C79.2213 273.139 79.1675 273.102 79.1068 273.081C78.548 272.86 77.1047 273.581 76.1036 274.222Z" fill="white"/>
<path d="M75.603 274.513C75.573 274.524 75.5398 274.524 75.5098 274.513C75.4797 274.49 75.4569 274.46 75.4444 274.424C75.432 274.389 75.4304 274.351 75.44 274.315C75.44 274.21 75.2305 271.731 76.1035 270.892C76.2153 270.785 76.3496 270.705 76.4967 270.656C76.6437 270.608 76.7997 270.593 76.9532 270.613C77.1251 270.619 77.2902 270.682 77.4228 270.791C77.5554 270.9 77.6482 271.051 77.6866 271.218C77.8844 272.161 76.5924 273.965 75.7426 274.478L75.603 274.513ZM76.767 271.02C76.6062 271.02 76.4516 271.083 76.3363 271.195C75.8572 272.022 75.6572 272.981 75.7659 273.931C76.5225 273.302 77.3723 271.928 77.2442 271.311C77.2442 271.195 77.1511 271.055 76.8601 271.02H76.767Z" fill="white"/>
<path d="M94.3091 106.824L96.9863 97.2554L105.612 102.947C105.612 102.947 100.956 111.235 98.0339 110.56L94.3091 106.824Z" fill="#FF8B7B"/>
<path d="M104.983 93.3677L109.487 98.5476L105.611 102.948L96.9858 97.2439L104.983 93.3677Z" fill="#FF8B7B"/>
<path d="M64.9639 146.272H18.8221C18.4962 142.152 19.4507 128.742 18.7406 111.666C18.3019 99.0089 16.7674 86.4137 14.1544 74.0215C13.9448 73.0903 13.7353 72.1707 13.5142 71.2395C13.5142 71.2395 15.8422 70.7623 19.2062 70.2734C21.9882 69.866 25.4803 69.4469 28.9025 69.284C35.4351 68.9112 41.9837 68.9112 48.5163 69.284C51.5311 69.5633 54.476 70.0639 56.8274 70.5178C59.8305 71.1231 61.5998 71.6818 61.5998 71.6818C61.5998 71.6818 72.9723 97.7559 64.9639 146.272Z" fill="white"/>
<path opacity="0.3" d="M18.741 111.678C18.3023 99.0205 16.7678 86.4252 14.1548 74.0331C17.2394 73.7654 22.5125 74.0331 23.3855 79.05C24.3283 84.4045 23.141 96.9992 18.741 111.678Z" fill="black"/>
<path d="M22.4655 82.6351C21.4528 85.5102 20.3586 88.6065 19.3925 91.6213C18.4263 94.6362 17.4718 97.7092 16.6105 100.759C14.8203 106.653 13.5581 112.695 12.839 118.813L12.7576 119.884V120.419C12.7576 120.536 12.7576 120.955 12.7576 120.629C12.6715 119.962 12.4149 119.328 12.0126 118.79C11.5323 118.111 10.8468 117.605 10.057 117.346C9.6147 117.23 9.49829 117.265 9.48665 117.276C9.60868 117.309 9.73712 117.309 9.85915 117.276C10.4053 117.242 10.9471 117.156 11.4771 117.02C14.3519 116.238 17.1618 115.234 19.8814 114.017C25.7015 111.526 31.603 108.639 37.4231 105.776L40.9851 111.177C35.747 115.535 30.1821 119.485 24.3396 122.992C21.2517 124.887 17.9892 126.481 14.5967 127.753C13.5536 128.119 12.4833 128.403 11.3957 128.602C10.7082 128.732 10.0114 128.806 9.31206 128.823C8.29052 128.843 7.27256 128.697 6.29724 128.393C4.71107 127.901 3.3294 126.903 2.36285 125.553C1.50121 124.31 1.00886 122.849 0.942745 121.339C0.925335 121.001 0.925335 120.663 0.942745 120.326V118.219C1.0349 114.644 1.38894 111.08 2.00201 107.557C2.56074 104.065 3.28243 100.736 4.12052 97.4182C4.95862 94.1007 5.86655 90.8182 6.91417 87.5822C7.96179 84.3462 9.00941 81.1917 10.3364 77.9092L22.4655 82.6351Z" fill="#FF8B7B"/>
<path d="M13.5143 71.2514C21.9185 68.5974 27.2963 75.3138 24.9682 86.9656C23.3828 94.4096 20.6912 101.574 16.9831 108.221L0 100.166C1.61799 88.7466 4.91217 73.9635 13.5143 71.2514Z" fill="white"/>
<path d="M29.3217 47.3306L34.5714 51.684L41.7185 57.6205C41.5066 58.5723 41.355 59.5364 41.2645 60.5073C40.8804 64.3835 41.8814 67.9104 47.5851 69.2607C47.5851 69.2607 53.1957 74.4988 41.9746 74.6618C30.7534 74.8247 28.146 69.3771 28.146 69.3771C32.3714 65.1284 30.7767 53.6163 29.3217 47.3306Z" fill="#FF8B7B"/>
<path opacity="0.2" d="M41.6833 57.5859C41.4714 58.5377 41.3198 59.5018 41.2293 60.4727C38.5637 59.9372 35.0018 57.097 34.6293 54.3732C34.4983 53.4715 34.4671 52.558 34.5362 51.6494L41.6833 57.5859Z" fill="black"/>
<path d="M50.0414 40.7544C52.1017 36.0983 50.8097 29.3586 47.3176 26.856C46.5541 26.2859 45.6461 25.9411 44.6966 25.8609C43.7471 25.7806 42.7941 25.9681 41.9457 26.402C41.0973 26.8358 40.3875 27.4988 39.8968 28.3156C39.4061 29.1324 39.1541 30.0704 39.1694 31.0232C38.9832 36.7502 47.6901 46.0507 50.0414 40.7544Z" fill="#263238"/>
<path d="M27.1567 38.2046C28.9842 46.5971 29.6244 51.5791 34.5832 55.4088C36.1801 56.6689 38.091 57.4687 40.1094 57.7218C42.1278 57.9748 44.1769 57.6716 46.0355 56.8447C47.8941 56.0179 49.4914 54.6989 50.6549 53.0303C51.8184 51.3617 52.5038 49.4069 52.6371 47.377C53.289 39.5664 50.2043 27.1463 41.3694 24.7717C39.4706 24.2089 37.4571 24.1548 35.5308 24.615C33.6045 25.0752 31.8329 26.0335 30.3935 27.3939C28.9541 28.7543 27.8975 30.4691 27.3294 32.3664C26.7613 34.2637 26.7018 36.277 27.1567 38.2046Z" fill="#FF8B7B"/>
<path d="M30.7185 44.7469C33.3841 40.3935 32.9651 33.549 29.8455 30.6157C29.1638 29.9373 28.3044 29.4651 27.3662 29.2533C26.428 29.0416 25.4491 29.0989 24.5421 29.4187C23.635 29.7384 22.8366 30.3077 22.2386 31.061C21.6407 31.8143 21.2675 32.7211 21.1619 33.6771C20.2773 39.3459 27.7154 49.6591 30.7185 44.7469Z" fill="#263238"/>
<path d="M32.0568 34.3604C33.9674 33.3666 34.7107 31.0121 33.7169 29.1015C32.7231 27.1909 30.3687 26.4476 28.458 27.4414C26.5474 28.4351 25.8041 30.7896 26.7979 32.7002C27.7917 34.6109 30.1461 35.3541 32.0568 34.3604Z" fill="#263238"/>
<path d="M30.672 29.3114C30.4703 29.9758 30.0753 30.5649 29.5372 31.0037C28.9991 31.4424 28.3424 31.7108 27.6511 31.7745C26.9598 31.8383 26.2651 31.6945 25.6559 31.3616C25.0466 31.0287 24.5505 30.5217 24.2307 29.9054C23.911 29.2892 23.7822 28.5916 23.8608 27.9017C23.9395 27.2119 24.2219 26.5612 24.6722 26.0327C25.1224 25.5042 25.7199 25.1219 26.3884 24.9346C27.057 24.7473 27.7662 24.7636 28.4254 24.9813C29.2909 25.2671 30.0104 25.88 30.4302 26.689C30.8499 27.4981 30.9367 28.4393 30.672 29.3114Z" fill="#263238"/>
<path d="M36.5271 28.7059C36.3213 29.3664 35.9239 29.9508 35.3854 30.3851C34.847 30.8194 34.1916 31.0839 33.5026 31.1452C32.8135 31.2065 32.1218 31.0617 31.5151 30.7293C30.9084 30.3968 30.4142 29.8917 30.095 29.2779C29.7759 28.6642 29.6462 27.9695 29.7225 27.2819C29.7987 26.5943 30.0775 25.9449 30.5234 25.416C30.9693 24.8871 31.5622 24.5026 32.227 24.3111C32.8918 24.1197 33.5984 24.1301 34.2573 24.3409C35.1351 24.6217 35.8663 25.2381 36.2915 26.0558C36.7166 26.8735 36.8014 27.8261 36.5271 28.7059Z" fill="#263238"/>
<path d="M29.6129 24.8765C29.3423 25.7407 28.8212 26.5051 28.1157 27.0729C27.4103 27.6407 26.5522 27.9863 25.6501 28.066C24.748 28.1457 23.8426 27.9559 23.0485 27.5206C22.2544 27.0853 21.6073 26.4241 21.1893 25.6207C20.7713 24.8174 20.6012 23.908 20.7004 23.0079C20.7996 22.1078 21.1638 21.2573 21.7468 20.5643C22.3297 19.8713 23.1053 19.3669 23.9751 19.1151C24.845 18.8632 25.77 18.8752 26.6331 19.1495C27.2058 19.3283 27.7375 19.6186 28.1976 20.0036C28.6578 20.3887 29.0372 20.8609 29.3141 21.3932C29.5911 21.9254 29.7601 22.5072 29.8113 23.105C29.8626 23.7028 29.7952 24.3048 29.6129 24.8765Z" fill="#263238"/>
<path d="M36.4685 22.4786C36.1948 23.3591 35.6659 24.1385 34.9487 24.718C34.2315 25.2975 33.3585 25.6511 32.4401 25.7338C31.5218 25.8166 30.5996 25.6248 29.7904 25.1828C28.9812 24.7408 28.3214 24.0685 27.8947 23.2511C27.468 22.4337 27.2937 21.508 27.3937 20.5914C27.4937 19.6748 27.8636 18.8085 28.4565 18.1024C29.0495 17.3963 29.8387 16.8821 30.7242 16.625C31.6097 16.368 32.5516 16.3796 33.4304 16.6585C34.603 17.0305 35.5806 17.8514 36.1499 18.9419C36.7191 20.0324 36.8337 21.3039 36.4685 22.4786Z" fill="#263238"/>
<path d="M42.5218 20.8727C42.2489 21.7531 41.7208 22.5326 41.0044 23.1126C40.2881 23.6926 39.4157 24.047 38.4978 24.1308C37.5799 24.2146 36.6577 24.024 35.8482 23.5833C35.0387 23.1426 34.3782 22.4715 33.9504 21.655C33.5226 20.8386 33.3467 19.9136 33.445 18.9971C33.5434 18.0807 33.9116 17.214 34.5029 16.5069C35.0942 15.7999 35.8821 15.2843 36.7667 15.0253C37.6513 14.7664 38.5929 14.7759 39.4721 15.0526C40.6468 15.4222 41.6272 16.2421 42.1987 17.3329C42.7703 18.4237 42.8865 19.6965 42.5218 20.8727Z" fill="#263238"/>
<path d="M49.552 20.8957C49.2665 21.7671 48.73 22.5349 48.0098 23.1026C47.2897 23.6703 46.4179 24.0128 45.5039 24.0869C44.5898 24.1611 43.6743 23.9637 42.872 23.5195C42.0697 23.0753 41.4165 22.4041 40.9942 21.5901C40.5719 20.7761 40.3994 19.8555 40.4984 18.9438C40.5973 18.0321 40.9633 17.1699 41.5503 16.4654C42.1374 15.761 42.9194 15.2455 43.7983 14.9837C44.6771 14.722 45.6137 14.7256 46.4906 14.9941C47.0825 15.1754 47.6324 15.4728 48.1079 15.8691C48.5835 16.2654 48.9753 16.7526 49.2604 17.3021C49.5454 17.8516 49.718 18.4525 49.7681 19.0695C49.8182 19.6866 49.7447 20.3074 49.552 20.8957Z" fill="#263238"/>
<path d="M26.2836 29.7886C26.0329 30.5812 25.5527 31.2815 24.9038 31.8011C24.255 32.3206 23.4666 32.6361 22.6384 32.7075C21.8103 32.779 20.9795 32.6032 20.2513 32.2024C19.523 31.8016 18.93 31.1938 18.5472 30.456C18.1645 29.7181 18.0091 28.8833 18.1009 28.0571C18.1926 27.231 18.5273 26.4506 19.0627 25.8147C19.598 25.1788 20.3099 24.7159 21.1084 24.4847C21.9068 24.2535 22.7559 24.2642 23.5482 24.5156C24.6099 24.8525 25.4944 25.5972 26.0074 26.5859C26.5203 27.5747 26.6197 28.7267 26.2836 29.7886Z" fill="#263238"/>
<path d="M40.5197 25.9707C40.294 26.6864 39.8611 27.3191 39.2759 27.7888C38.6906 28.2585 37.9792 28.5442 37.2316 28.6096C36.484 28.6751 35.7338 28.5174 35.0758 28.1565C34.4179 27.7956 33.8816 27.2477 33.535 26.5821C33.1884 25.9165 33.0469 25.1631 33.1284 24.4171C33.21 23.6711 33.5108 22.966 33.9931 22.391C34.4753 21.816 35.1172 21.3969 35.8376 21.1866C36.5579 20.9764 37.3245 20.9845 38.0403 21.2098C38.5158 21.3595 38.9571 21.6015 39.339 21.9218C39.721 22.2421 40.0361 22.6345 40.2663 23.0766C40.4966 23.5187 40.6374 24.0019 40.6809 24.4984C40.7244 24.995 40.6696 25.4953 40.5197 25.9707Z" fill="#263238"/>
<path d="M45.1761 25.6216C44.9854 26.2304 44.6183 26.7689 44.1214 27.169C43.6244 27.5691 43.02 27.8127 42.3845 27.8691C41.749 27.9256 41.1111 27.7922 40.5515 27.4859C39.9918 27.1797 39.5356 26.7143 39.2405 26.1486C38.9455 25.583 38.8249 24.9425 38.894 24.3083C38.963 23.6741 39.2187 23.0746 39.6286 22.5857C40.0385 22.0969 40.5842 21.7406 41.1967 21.562C41.8092 21.3834 42.4609 21.3905 43.0693 21.5825C43.8838 21.8394 44.5631 22.409 44.9581 23.1662C45.3531 23.9235 45.4315 24.8066 45.1761 25.6216Z" fill="#263238"/>
<path d="M52.2758 23.1189C52.0831 23.724 51.7154 24.2583 51.2191 24.6545C50.7229 25.0507 50.1203 25.291 49.4876 25.3449C48.8549 25.3989 48.2204 25.2641 47.6643 24.9577C47.1081 24.6512 46.6552 24.1869 46.3628 23.6232C46.0704 23.0595 45.9516 22.4218 46.0214 21.7907C46.0912 21.1595 46.3465 20.5632 46.755 20.0771C47.1635 19.5909 47.7069 19.2367 48.3166 19.0592C48.9263 18.8817 49.5749 18.8889 50.1806 19.0798C50.5837 19.2069 50.9578 19.4123 51.2814 19.6842C51.6051 19.9561 51.8719 20.2893 52.0665 20.6645C52.2611 21.0397 52.3798 21.4497 52.4157 21.8709C52.4516 22.2921 52.4041 22.7162 52.2758 23.1189Z" fill="#263238"/>
<path d="M49.4014 25.7496C49.2187 26.332 48.8674 26.8471 48.3918 27.2297C47.9163 27.6123 47.3379 27.8453 46.7299 27.899C46.1219 27.9528 45.5116 27.825 44.9763 27.5318C44.441 27.2385 44.0047 26.7931 43.7227 26.2518C43.4406 25.7105 43.3255 25.0977 43.3918 24.491C43.4582 23.8842 43.7031 23.3108 44.0955 22.8433C44.4878 22.3758 45.0101 22.0352 45.5962 21.8646C46.1822 21.694 46.8057 21.7012 47.3877 21.8851C47.7743 22.0056 48.1332 22.2014 48.4439 22.4612C48.7546 22.7209 49.0109 23.0395 49.198 23.3987C49.3852 23.7578 49.4995 24.1504 49.5344 24.5539C49.5693 24.9573 49.5241 25.3637 49.4014 25.7496Z" fill="#263238"/>
<path d="M55.1395 21.6177C54.9892 22.097 54.7001 22.5209 54.3087 22.8357C53.9173 23.1505 53.4413 23.3421 52.9409 23.3861C52.4406 23.4302 51.9384 23.3248 51.498 23.0833C51.0576 22.8418 50.6988 22.4749 50.467 22.0293C50.2352 21.5837 50.1409 21.0794 50.196 20.5801C50.2511 20.0808 50.4531 19.6092 50.7764 19.2248C51.0998 18.8404 51.5299 18.5607 52.0124 18.421C52.4948 18.2812 53.0079 18.2878 53.4866 18.4399C53.8043 18.5393 54.0992 18.7004 54.3545 18.9141C54.6097 19.1278 54.8201 19.3899 54.9737 19.6852C55.1274 19.9805 55.2211 20.3032 55.2495 20.6349C55.278 20.9666 55.2406 21.3006 55.1395 21.6177Z" fill="#263238"/>
<path d="M56.4082 23.957C56.3196 24.2438 56.1477 24.4979 55.9142 24.6867C55.6808 24.8756 55.3965 24.9907 55.0975 25.0175C54.7984 25.0443 54.4982 24.9815 54.2349 24.8371C53.9717 24.6928 53.7573 24.4734 53.6191 24.2069C53.4809 23.9403 53.4251 23.6387 53.4588 23.3403C53.4925 23.042 53.6142 22.7604 53.8084 22.5315C54.0026 22.3025 54.2606 22.1365 54.5494 22.0545C54.8383 21.9726 55.1449 21.9784 55.4305 22.0713C55.6185 22.1308 55.793 22.2269 55.9439 22.3539C56.0948 22.4809 56.2193 22.6364 56.3101 22.8115C56.4009 22.9866 56.4563 23.1779 56.4731 23.3745C56.49 23.571 56.4679 23.769 56.4082 23.957Z" fill="#263238"/>
<path d="M31.2888 25.8314C31.199 26.1169 31.0266 26.3694 30.7933 26.5569C30.5601 26.7444 30.2764 26.8585 29.9783 26.8849C29.6801 26.9112 29.3809 26.8485 29.1184 26.7047C28.8559 26.5609 28.6419 26.3426 28.5035 26.0772C28.3651 25.8118 28.3085 25.5113 28.3409 25.2138C28.3733 24.9162 28.4932 24.635 28.6854 24.4056C28.8776 24.1762 29.1336 24.0089 29.4209 23.925C29.7082 23.841 30.0139 23.8442 30.2994 23.934C30.6804 24.0571 30.9977 24.325 31.1828 24.68C31.3679 25.035 31.406 25.4485 31.2888 25.8314Z" fill="#263238"/>
<path d="M25.7948 45.98C26.9423 47.472 28.6005 48.4876 30.4509 48.8318C32.779 49.2509 33.5472 47.0742 32.4996 44.9557C31.5451 43.0467 29.1822 40.5324 26.9822 41.0678C24.7822 41.6033 24.3864 44.1292 25.7948 45.98Z" fill="#FF8B7B"/>
<path d="M41.5322 38.9734C41.637 39.6602 42.091 40.1374 42.5449 40.1374C42.9989 40.1374 43.2783 39.4856 43.1735 38.7988C43.0687 38.112 42.6148 37.6348 42.1608 37.6348C41.7068 37.6348 41.4275 38.2866 41.5322 38.9734Z" fill="#263238"/>
<path d="M49.3428 38.0187C49.4476 38.7055 49.9015 39.1827 50.3555 39.1827C50.8095 39.1827 51.0888 38.5192 50.9841 37.8325C50.8793 37.1457 50.4253 36.6685 49.9714 36.6685C49.5174 36.6685 49.238 37.3552 49.3428 38.0187Z" fill="#263238"/>
<path d="M46.9683 38.3213C47.8297 40.0938 48.926 41.7421 50.2275 43.2218C49.8428 43.5335 49.3936 43.7557 48.9125 43.8725C48.4314 43.9892 47.9303 43.9976 47.4455 43.897L46.9683 38.3213Z" fill="#630F0F"/>
<path d="M44.2441 47.4356C43.437 47.4445 42.6364 47.2903 41.8903 46.9823C41.1442 46.6742 40.468 46.2187 39.9023 45.643C39.8668 45.6029 39.8487 45.5503 39.8519 45.4968C39.8552 45.4433 39.8796 45.3933 39.9197 45.3578C39.9599 45.3223 40.0125 45.3042 40.0659 45.3075C40.1194 45.3108 40.1694 45.3352 40.2049 45.3753C40.8332 45.9882 41.592 46.4511 42.4246 46.7293C43.2571 47.0075 44.1417 47.0937 45.0123 46.9816C45.0643 46.978 45.1157 46.9939 45.1566 47.0262C45.1975 47.0585 45.2249 47.1049 45.2335 47.1563C45.2402 47.2101 45.2258 47.2645 45.1932 47.3079C45.1606 47.3513 45.1125 47.3804 45.0589 47.3891C44.7885 47.4216 44.5164 47.4372 44.2441 47.4356Z" fill="#263238"/>
<path d="M38.3897 35.0038C38.326 34.9844 38.2666 34.9528 38.2151 34.9107C38.1763 34.8728 38.1456 34.8275 38.1246 34.7775C38.1036 34.7276 38.0928 34.6739 38.0928 34.6197C38.0928 34.5655 38.1036 34.5118 38.1246 34.4619C38.1456 34.4119 38.1763 34.3666 38.2151 34.3287C38.6391 33.8312 39.1805 33.4473 39.7902 33.2115C40.3999 32.9758 41.0587 32.8957 41.7071 32.9784C41.7607 32.9867 41.8119 33.0059 41.8578 33.0347C41.9036 33.0636 41.943 33.1016 41.9736 33.1464C42.0041 33.1911 42.0252 33.2416 42.0354 33.2948C42.0456 33.3481 42.0448 33.4028 42.033 33.4557C42.0246 33.508 42.0058 33.5581 41.9777 33.6031C41.9495 33.648 41.9127 33.6868 41.8692 33.7172C41.8258 33.7476 41.7767 33.769 41.7249 33.78C41.673 33.7911 41.6195 33.7916 41.5674 33.7816C41.064 33.7314 40.556 33.8048 40.0874 33.9955C39.6188 34.1861 39.2038 34.4883 38.8785 34.8758C38.8209 34.9459 38.7427 34.9961 38.6549 35.0191C38.5671 35.042 38.4742 35.0367 38.3897 35.0038Z" fill="#263238"/>
<path d="M52.1597 34.526C52.0958 34.5449 52.0281 34.5473 51.963 34.5331C51.8979 34.5188 51.8374 34.4884 51.7872 34.4445C51.3908 34.1018 50.9224 33.8528 50.4166 33.7157C49.9108 33.5787 49.3807 33.5573 48.8655 33.653C48.8143 33.6689 48.7604 33.6742 48.7071 33.6686C48.6538 33.6631 48.6022 33.6467 48.5554 33.6206C48.5086 33.5945 48.4676 33.5591 48.4348 33.5166C48.4021 33.4742 48.3784 33.4255 48.365 33.3736C48.3362 33.2702 48.3494 33.1596 48.4018 33.0659C48.4541 32.9722 48.5413 32.9029 48.6444 32.8731C49.285 32.7353 49.9489 32.7487 50.5834 32.9124C51.2178 33.0761 51.8054 33.3854 52.2994 33.816C52.3831 33.8862 52.436 33.9864 52.4468 34.0951C52.4577 34.2039 52.4257 34.3125 52.3576 34.398C52.3022 34.4551 52.2345 34.4989 52.1597 34.526Z" fill="#263238"/>
<path d="M35.6191 106.754L38.6456 99.3975L45.0244 106.184C45.0244 106.184 41.9398 113.401 38.3546 111.492L35.6191 106.754Z" fill="#FF8B7B"/>
<path d="M46.5958 94.4507L50.146 100.317L45.0243 106.184L38.6455 99.3861L46.5958 94.4507Z" fill="#FF8B7B"/>
<path d="M235.19 31.372C240.809 31.372 245.364 26.8171 245.364 21.1984C245.364 15.5798 240.809 11.0249 235.19 11.0249C229.571 11.0249 225.017 15.5798 225.017 21.1984C225.017 26.8171 229.571 31.372 235.19 31.372Z" fill="#263238"/>
<path d="M237.553 31.6628C235.481 31.6628 233.455 31.0484 231.733 29.8973C230.01 28.7461 228.667 27.11 227.874 25.1957C227.081 23.2814 226.874 21.175 227.278 19.1428C227.682 17.1106 228.68 15.244 230.145 13.7789C231.61 12.3137 233.477 11.316 235.509 10.9118C237.541 10.5075 239.648 10.715 241.562 11.5079C243.476 12.3008 245.112 13.6436 246.263 15.3664C247.415 17.0892 248.029 19.1146 248.029 21.1866C248.029 23.9651 246.925 26.6298 244.961 28.5944C242.996 30.5591 240.331 31.6628 237.553 31.6628ZM237.553 11.3274C235.598 11.3274 233.687 11.9073 232.061 12.9937C230.436 14.0801 229.169 15.6242 228.421 17.4307C227.674 19.2372 227.479 21.2249 227.861 23.1422C228.243 25.0595 229.186 26.8204 230.569 28.202C231.952 29.5837 233.714 30.524 235.632 30.904C237.55 31.284 239.537 31.0866 241.343 30.3368C243.148 29.5871 244.691 28.3186 245.776 26.6919C246.86 25.0652 247.438 23.1534 247.435 21.1983C247.432 18.5793 246.39 16.0686 244.537 14.2178C242.684 12.367 240.172 11.3274 237.553 11.3274Z" fill="#263238"/>
<path d="M215.006 37.5407C212.934 37.5407 210.909 36.9263 209.186 35.7752C207.463 34.6241 206.12 32.9879 205.327 31.0736C204.534 29.1594 204.327 27.0529 204.731 25.0208C205.135 22.9886 206.133 21.1219 207.598 19.6568C209.063 18.1917 210.93 17.1939 212.962 16.7897C214.994 16.3855 217.101 16.5929 219.015 17.3858C220.929 18.1787 222.565 19.5215 223.717 21.2443C224.868 22.9671 225.482 24.9926 225.482 27.0646C225.482 29.843 224.378 32.5077 222.414 34.4723C220.449 36.437 217.784 37.5407 215.006 37.5407ZM215.006 17.1937C213.051 17.1937 211.141 17.7733 209.516 18.8592C207.89 19.9451 206.624 21.4885 205.876 23.2943C205.128 25.1001 204.932 27.0872 205.313 29.0042C205.695 30.9212 206.636 32.6821 208.018 34.0642C209.4 35.4463 211.161 36.3875 213.078 36.7688C214.995 37.1502 216.982 36.9545 218.788 36.2065C220.594 35.4585 222.137 34.1918 223.223 32.5666C224.309 30.9415 224.889 29.0308 224.889 27.0762C224.889 25.7784 224.633 24.4933 224.136 23.2943C223.64 22.0953 222.912 21.0059 221.994 20.0882C221.076 19.1705 219.987 18.4426 218.788 17.9459C217.589 17.4493 216.304 17.1937 215.006 17.1937Z" fill="#263238"/>
<path d="M216.019 37.273C221.772 37.273 226.437 32.6087 226.437 26.855C226.437 21.1013 221.772 16.437 216.019 16.437C210.265 16.437 205.601 21.1013 205.601 26.855C205.601 32.6087 210.265 37.273 216.019 37.273Z" fill="#263238"/>
<path d="M205.915 11.0828C204.646 17.0659 208.988 27.5421 213.551 28.1124C218.114 28.6828 219.01 17.287 215.053 12.3167C211.095 7.3463 206.87 6.72937 205.915 11.0828Z" fill="#263238"/>
<path d="M214.447 56.4326C214.994 59.7268 215.285 62.8114 215.53 66.0125C215.774 69.2136 215.821 72.3797 215.774 75.5924C215.753 82.1173 214.909 88.6135 213.26 94.9268C211.456 101.096 209.291 106.858 207.044 112.666L203.552 121.303C202.33 124.155 201.154 127.007 199.862 129.847L195.765 128.357L198.291 119.453L200.863 110.583L203.377 101.736C204.215 98.8029 205.007 95.8347 205.705 92.9829C206.859 87.2578 207.335 81.417 207.126 75.5807C207.126 72.6125 206.939 69.6326 206.695 66.6643C206.45 63.6961 206.136 60.6464 205.775 57.8411L214.447 56.4326Z" fill="#FF8B7B"/>
<path d="M206.287 47.5402C203.04 49.2047 203.855 63.9762 203.855 63.9762L219.115 69.9592C219.115 69.9592 220.71 51.8703 217.194 48.6693C213.679 45.4682 211.048 45.1074 206.287 47.5402Z" fill="white"/>
<path opacity="0.2" d="M207.323 50.6479L207.929 65.5823L214.109 67.9918L207.323 50.6479Z" fill="black"/>
<path d="M197.476 126.146L187.768 130.104L195.241 134.061C195.241 134.061 200.223 131.663 200.374 128.102L197.476 126.146Z" fill="#FF8B7B"/>
<path d="M224.446 274.349H215.844L214.389 254.433H222.991L224.446 274.349Z" fill="#FF8B7B"/>
<path d="M272.182 261.51L263.743 263.175L257.178 244.178L265.606 242.514L272.182 261.51Z" fill="#FF8B7B"/>
<path d="M262.509 261.72L271.6 258.46C271.756 258.402 271.927 258.403 272.081 258.463C272.236 258.523 272.363 258.638 272.438 258.786L276.058 265.607C276.143 265.782 276.19 265.973 276.197 266.168C276.203 266.362 276.168 266.556 276.095 266.736C276.021 266.916 275.91 267.079 275.77 267.213C275.629 267.347 275.462 267.451 275.279 267.516C272.089 268.599 270.494 268.96 266.49 270.391C264.034 271.264 259.355 273.884 255.956 275.048C252.557 276.212 251.183 272.964 252.464 272.161C256.287 269.939 259.365 266.634 261.31 262.662C261.589 262.219 262.012 261.885 262.509 261.72Z" fill="#263238"/>
<path d="M215.204 273.348H224.865C225.031 273.347 225.192 273.407 225.316 273.516C225.441 273.626 225.521 273.777 225.541 273.942L226.646 281.578C226.668 281.771 226.648 281.967 226.589 282.152C226.529 282.337 226.432 282.507 226.302 282.652C226.173 282.797 226.014 282.913 225.837 282.993C225.659 283.072 225.467 283.114 225.273 283.114C221.897 283.056 220.279 282.858 216.031 282.858C213.411 282.858 208.01 283.126 204.39 283.126C200.77 283.126 200.596 279.552 202.062 279.238C208.79 277.783 211.444 275.746 213.702 273.884C214.12 273.527 214.655 273.336 215.204 273.348Z" fill="#263238"/>
<g opacity="0.2">
<path opacity="0.2" d="M214.389 254.445L215.181 265.282H223.783L222.991 254.445H214.389Z" fill="black"/>
<path opacity="0.2" d="M265.618 242.514L257.179 244.19L260.845 254.771L269.191 252.85L265.618 242.514Z" fill="black"/>
</g>
<path d="M206.287 47.5396C206.287 47.5396 202.621 49.8676 221.804 97.2316L255.863 89.4909C252.138 75.7671 250.183 67.2232 250.345 37.2729C245.352 37.3722 240.372 37.8352 235.446 38.6581C230.217 39.4518 225.051 40.6188 219.988 42.1502C213.469 44.292 206.287 47.5396 206.287 47.5396Z" fill="white"/>
<path opacity="0.2" d="M250.322 41.8945C247.583 43.8093 245.628 46.6492 244.816 49.8913C243.92 54.0003 249.624 60.9379 250.962 62.4861C250.555 56.9802 250.345 50.3686 250.322 41.8945Z" fill="black"/>
<path d="M230.371 23.4565C230.534 28.6597 231.197 36.1327 235.435 38.6586C233.502 45.0901 229.847 50.8704 224.865 55.374C216.717 51.428 219.976 42.174 219.976 42.174C225.226 39.5899 224.574 37.3666 222.723 33.7232L230.371 23.4565Z" fill="#FF8B7B"/>
<path opacity="0.2" d="M227.251 27.6465L222.723 33.7227C223.189 34.5628 223.579 35.4433 223.887 36.3534C225.936 35.5618 228.858 33.001 228.788 30.5915C228.528 29.4973 228 28.4851 227.251 27.6465Z" fill="black"/>
<path d="M229.777 10.9084C232.327 19.0566 233.572 22.4438 231.116 28.0661C227.403 36.5169 216.845 37.8555 211.921 30.6386C207.486 24.1433 204.064 11.9095 210.652 5.77508C212.097 4.41577 213.866 3.44833 215.79 2.9646C217.714 2.48088 219.73 2.49692 221.646 3.01121C223.562 3.5255 225.315 4.52098 226.738 5.90313C228.161 7.28527 229.207 9.00822 229.777 10.9084Z" fill="#FF8B7B"/>
<path d="M221.803 97.2318C221.803 97.2318 202.248 147.029 202.807 173.242C203.4 200.515 213.388 262.721 213.388 262.721H225.028C225.028 262.721 223.177 202.145 224.201 175.372C225.365 146.179 246.737 91.563 246.737 91.563L221.803 97.2318Z" fill="white"/>
<path opacity="0.5" d="M221.803 97.2318C221.803 97.2318 202.248 147.029 202.807 173.242C203.4 200.515 213.388 262.721 213.388 262.721H225.028C225.028 262.721 223.177 202.145 224.201 175.372C225.365 146.179 246.737 91.563 246.737 91.563L221.803 97.2318Z" fill="black"/>
<path d="M226.029 263.128H212.387L211.386 258.786L226.658 258.251L226.029 263.128Z" fill="#263238"/>
<path opacity="0.2" d="M230.72 112.515C224.062 124.307 224.656 143.536 226.448 158.029C229.397 144.045 233.179 130.25 237.774 116.717C236.843 108.895 234.806 105.275 230.72 112.515Z" fill="black"/>
<path d="M230.79 95.1838C230.79 95.1838 226.134 149.648 232.141 171.753C239.23 198.002 258.192 252.431 258.192 252.431L269.692 250.161C269.692 250.161 260.38 187.363 254.909 173.534C243.339 144.026 269.18 106.219 255.898 89.4917L230.79 95.1838Z" fill="white"/>
<path opacity="0.5" d="M230.79 95.1838C230.79 95.1838 226.134 149.648 232.141 171.753C239.23 198.002 258.192 252.431 258.192 252.431L269.692 250.161C269.692 250.161 260.38 187.363 254.909 173.534C243.339 144.026 269.18 106.219 255.898 89.4917L230.79 95.1838Z" fill="black"/>
<path d="M271.088 250.498L256.817 253.315L254.419 249.137L271.053 245.051L271.088 250.498Z" fill="#263238"/>
<path d="M217.892 17.8576C218.137 18.5094 217.997 19.1613 217.566 19.3243C217.136 19.4872 216.6 19.0914 216.402 18.4396C216.204 17.7877 216.298 17.1359 216.717 16.9846C217.136 16.8332 217.648 17.2174 217.892 17.8576Z" fill="#263238"/>
<path d="M210.57 20.6513C210.815 21.3031 210.675 21.955 210.245 22.1179C209.814 22.2809 209.278 21.8851 209.081 21.2333C208.883 20.5814 208.976 19.9296 209.395 19.7666C209.814 19.6037 210.314 19.9994 210.57 20.6513Z" fill="#263238"/>
<path d="M209.558 19.7314L207.824 19.8828C207.824 19.8828 209.093 20.7907 209.558 19.7314Z" fill="#263238"/>
<path d="M213.271 20.9536C213.259 22.6517 213.012 24.3399 212.538 25.9705C212.957 26.0821 213.395 26.1003 213.821 26.0239C214.248 25.9475 214.652 25.7782 215.006 25.5282L213.271 20.9536Z" fill="#FF5652"/>
<path d="M219.511 26.7158C219.217 26.8885 218.909 27.0365 218.591 27.1581C218.54 27.1773 218.484 27.1759 218.434 27.1542C218.384 27.1325 218.344 27.0921 218.323 27.0417C218.312 27.0166 218.306 26.9895 218.306 26.962C218.306 26.9346 218.312 26.9074 218.323 26.8822C218.334 26.857 218.35 26.8344 218.37 26.8158C218.39 26.7971 218.414 26.7829 218.44 26.774C219.252 26.4816 219.985 26.0029 220.579 25.3762C221.174 24.7496 221.613 23.9925 221.862 23.1655C221.874 23.113 221.907 23.0676 221.953 23.0392C221.999 23.0108 222.054 23.0018 222.106 23.0142C222.159 23.0265 222.204 23.0592 222.233 23.1051C222.261 23.1509 222.27 23.2062 222.258 23.2586C222.051 23.9878 221.701 24.6686 221.23 25.262C220.758 25.8554 220.174 26.3495 219.511 26.7158Z" fill="#263238"/>
<path d="M215.344 7.07862C217.963 13.6903 229.242 19.4522 233.293 17.6945C238.135 15.5876 236.785 5.11142 229.009 1.81724C222.502 -0.95313 213.435 2.25957 215.344 7.07862Z" fill="#263238"/>
<path d="M221.536 1.3749C218.975 -1.16266 203.61 -0.534097 202.318 6.20558C200.525 15.5177 209.465 13.4109 214.354 11.4786C220.605 9.02251 224.888 4.69236 221.536 1.3749Z" fill="#263238"/>
<path d="M234.154 18.5909C234.128 20.2416 233.45 21.815 232.268 22.9676C230.697 24.4809 228.881 23.3168 228.45 21.2914C228.066 19.4639 228.45 16.484 230.429 15.7391C230.868 15.5821 231.34 15.5377 231.801 15.6097C232.261 15.6818 232.697 15.8681 233.067 16.1516C233.438 16.4352 233.731 16.807 233.921 17.233C234.111 17.6591 234.191 18.1259 234.154 18.5909Z" fill="#FF8B7B"/>
<path d="M218.615 14.7377C218.534 14.7683 218.447 14.7736 218.363 14.7528C218.28 14.732 218.205 14.6861 218.149 14.6213C217.649 14.185 217.064 13.8564 216.431 13.6561C215.798 13.4559 215.131 13.3882 214.471 13.4573C214.417 13.4626 214.363 13.4574 214.312 13.4419C214.26 13.4263 214.212 13.4008 214.171 13.3668C214.129 13.3327 214.095 13.2908 214.069 13.2434C214.044 13.1961 214.028 13.1441 214.023 13.0906C214.017 13.0371 214.022 12.9831 214.038 12.9316C214.053 12.8801 214.079 12.8322 214.113 12.7906C214.147 12.749 214.189 12.7145 214.236 12.6891C214.284 12.6637 214.336 12.6478 214.389 12.6425C215.179 12.5604 215.978 12.6489 216.731 12.9019C217.484 13.155 218.174 13.5666 218.754 14.1091C218.793 14.1471 218.824 14.1924 218.845 14.2423C218.866 14.2923 218.877 14.346 218.877 14.4002C218.877 14.4544 218.866 14.508 218.845 14.558C218.824 14.6079 218.793 14.6532 218.754 14.6912L218.615 14.7377Z" fill="#263238"/>
<path d="M206.148 18.2299C206.088 18.2646 206.019 18.2829 205.95 18.2829C205.88 18.2829 205.812 18.2646 205.752 18.2299C205.658 18.176 205.588 18.0876 205.558 17.9834C205.527 17.8792 205.539 17.7672 205.589 17.6711C205.895 17.1006 206.334 16.6123 206.869 16.2475C207.404 15.8828 208.019 15.6524 208.662 15.5759C208.716 15.5728 208.769 15.5802 208.82 15.5978C208.871 15.6154 208.917 15.6429 208.957 15.6786C208.997 15.7142 209.03 15.7575 209.053 15.8058C209.076 15.8541 209.09 15.9065 209.093 15.96C209.096 16.0135 209.089 16.0672 209.071 16.1178C209.053 16.1684 209.026 16.2151 208.99 16.2551C208.954 16.2951 208.911 16.3277 208.863 16.351C208.815 16.3742 208.762 16.3877 208.709 16.3907C208.201 16.4589 207.718 16.6477 207.299 16.9414C206.879 17.2351 206.537 17.625 206.299 18.0785C206.264 18.1423 206.212 18.1948 206.148 18.2299Z" fill="#263238"/>
<path d="M258.645 264.292H258.552C258.37 264.212 258.211 264.087 258.09 263.928C257.97 263.769 257.893 263.582 257.865 263.384C257.837 263.265 257.839 263.141 257.871 263.022C257.904 262.904 257.966 262.796 258.052 262.709C258.843 261.952 261.87 262.651 262.207 262.709C262.246 262.72 262.282 262.74 262.31 262.769C262.339 262.797 262.36 262.833 262.37 262.872C262.377 262.912 262.371 262.953 262.355 262.991C262.338 263.028 262.311 263.059 262.277 263.081C261.346 263.675 259.67 264.618 258.645 264.292ZM261.637 262.988C260.473 262.744 258.75 262.569 258.343 262.988C258.302 263.026 258.272 263.074 258.258 263.128C258.243 263.181 258.245 263.238 258.261 263.291C258.278 263.422 258.328 263.547 258.405 263.655C258.482 263.763 258.585 263.85 258.704 263.908C259.251 264.117 260.322 263.838 261.683 262.988H261.637Z" fill="white"/>
<path d="M261.822 263.023C260.798 262.697 259.087 261.627 258.959 260.695C258.938 260.535 258.971 260.372 259.053 260.233C259.135 260.093 259.262 259.986 259.413 259.927C259.557 259.866 259.711 259.835 259.867 259.835C260.023 259.835 260.177 259.866 260.321 259.927C261.485 260.393 262.323 262.721 262.358 262.826C262.374 262.856 262.383 262.89 262.383 262.924C262.383 262.959 262.374 262.993 262.358 263.023C262.332 263.049 262.301 263.069 262.267 263.081C262.233 263.093 262.196 263.097 262.16 263.093L261.822 263.023ZM260.111 260.346C260.03 260.312 259.943 260.294 259.855 260.294C259.767 260.294 259.68 260.312 259.599 260.346C259.366 260.474 259.343 260.602 259.366 260.695C259.448 261.289 260.833 262.278 261.822 262.616C261.508 261.848 260.856 260.614 260.17 260.288L260.111 260.346Z" fill="white"/>
<path d="M211.967 274.85C211.234 274.917 210.499 274.732 209.884 274.326C209.75 274.201 209.648 274.046 209.585 273.875C209.522 273.703 209.501 273.518 209.523 273.337C209.529 273.225 209.564 273.116 209.622 273.02C209.681 272.925 209.763 272.846 209.861 272.79C210.92 272.208 214.342 273.954 214.738 274.163C214.773 274.185 214.802 274.216 214.82 274.253C214.839 274.29 214.846 274.331 214.843 274.373C214.838 274.415 214.82 274.456 214.79 274.487C214.761 274.519 214.722 274.54 214.68 274.547C213.786 274.73 212.879 274.831 211.967 274.85ZM210.466 273.081C210.334 273.069 210.201 273.093 210.082 273.15C210.041 273.171 210.007 273.203 209.985 273.242C209.962 273.281 209.951 273.326 209.954 273.372C209.932 273.491 209.943 273.614 209.984 273.728C210.024 273.843 210.094 273.944 210.186 274.023C210.699 274.489 212.119 274.571 214.028 274.256C212.916 273.663 211.712 273.266 210.466 273.081Z" fill="white"/>
<path d="M214.633 274.547H214.552C213.527 274.081 211.502 272.219 211.665 271.253C211.665 271.02 211.863 270.729 212.422 270.682C212.629 270.652 212.841 270.667 213.043 270.727C213.244 270.788 213.429 270.892 213.586 271.032C214.668 271.928 214.866 274.244 214.878 274.337C214.881 274.373 214.875 274.409 214.861 274.441C214.847 274.474 214.825 274.502 214.796 274.524C214.747 274.551 214.689 274.559 214.633 274.547ZM212.585 271.055H212.468C212.096 271.055 212.072 271.241 212.061 271.299C211.968 271.881 213.341 273.336 214.389 273.977C214.308 273 213.926 272.072 213.295 271.323C213.099 271.15 212.845 271.058 212.585 271.067V271.055Z" fill="white"/>
<path d="M216.88 16.938L215.123 17.066C215.123 17.066 216.415 17.9972 216.88 16.938Z" fill="#263238"/>
<path d="M255.863 87.3726L257.423 90.2244C257.598 90.4339 257.423 90.7366 256.981 90.8297L221.932 98.7916C221.629 98.8615 221.338 98.7916 221.268 98.5821L220.279 95.6022C220.209 95.4043 220.43 95.1599 220.768 95.09L255.246 87.2445C255.352 87.2131 255.463 87.2083 255.571 87.2306C255.679 87.253 255.779 87.3018 255.863 87.3726Z" fill="white"/>
<path d="M252.034 92.3084L252.965 92.0988C253.139 92.0988 253.267 91.9359 253.221 91.8195L251.894 87.9549C251.847 87.8944 251.783 87.8496 251.71 87.8267C251.637 87.8038 251.559 87.8039 251.486 87.8269L250.567 88.0364C250.381 88.0364 250.264 88.211 250.299 88.3158L251.638 92.1803C251.673 92.2967 251.859 92.3549 252.034 92.3084Z" fill="white"/>
<path opacity="0.5" d="M252.034 92.3084L252.965 92.0988C253.139 92.0988 253.267 91.9359 253.221 91.8195L251.894 87.9549C251.847 87.8944 251.783 87.8496 251.71 87.8267C251.637 87.8038 251.559 87.8039 251.486 87.8269L250.567 88.0364C250.381 88.0364 250.264 88.211 250.299 88.3158L251.638 92.1803C251.673 92.2967 251.859 92.3549 252.034 92.3084Z" fill="black"/>
<path d="M224.644 98.5476L225.575 98.3381C225.761 98.3381 225.878 98.1751 225.831 98.0587L224.504 94.1941C224.461 94.1291 224.398 94.0809 224.323 94.0575C224.249 94.0342 224.169 94.0372 224.097 94.0661L223.177 94.2756C222.991 94.2756 222.875 94.4502 222.909 94.555L224.248 98.4195C224.283 98.5476 224.434 98.5476 224.644 98.5476Z" fill="white"/>
<path opacity="0.5" d="M224.644 98.5476L225.575 98.3381C225.761 98.3381 225.878 98.1751 225.831 98.0587L224.504 94.1941C224.461 94.1291 224.398 94.0809 224.323 94.0575C224.249 94.0342 224.169 94.0372 224.097 94.0661L223.177 94.2756C222.991 94.2756 222.875 94.4502 222.909 94.555L224.248 98.4195C224.283 98.5476 224.434 98.5476 224.644 98.5476Z" fill="black"/>
<path d="M238.286 95.4395L239.206 95.2299C239.392 95.2299 239.508 95.0553 239.473 94.9506L238.135 91.086C238.135 90.9696 237.914 90.9114 237.739 90.958L236.808 91.1675C236.622 91.1675 236.505 91.3305 236.552 91.4469L237.879 95.3114C237.925 95.372 237.989 95.4167 238.062 95.4396C238.135 95.4625 238.213 95.4625 238.286 95.4395Z" fill="white"/>
<path opacity="0.5" d="M238.286 95.4395L239.206 95.2299C239.392 95.2299 239.508 95.0553 239.473 94.9506L238.135 91.086C238.135 90.9696 237.914 90.9114 237.739 90.958L236.808 91.1675C236.622 91.1675 236.505 91.3305 236.552 91.4469L237.879 95.3114C237.925 95.372 237.989 95.4167 238.062 95.4396C238.135 95.4625 238.213 95.4625 238.286 95.4395Z" fill="black"/>
<path d="M184.474 135.668L191.33 137.367L195.241 134.061L187.768 130.104L184.474 135.668Z" fill="#FF8B7B"/>
<path d="M239.194 79.3294L232.501 72.939L231.919 81.6691C231.919 81.6691 236.575 84.6374 239.695 82.903L239.194 79.3294Z" fill="#FF8B7B"/>
<path d="M255.863 45.2119C256.166 45.596 256.317 45.8172 256.527 46.1082L257.085 46.9114C257.434 47.4468 257.772 47.9823 258.098 48.5177C258.734 49.5886 259.34 50.6712 259.914 51.7654C261.008 53.9537 261.994 56.177 262.87 58.4352C263.767 60.6817 264.512 62.9865 265.198 65.2913C265.536 66.4553 265.815 67.6193 266.106 68.7833L266.223 69.2257L266.351 69.7844C266.465 70.2857 266.535 70.7959 266.56 71.3093C266.611 72.4325 266.429 73.5541 266.025 74.6034C265.279 76.3741 264.012 77.8761 262.393 78.9103C261.176 79.701 259.867 80.3383 258.494 80.8077C256.094 81.6092 253.616 82.1555 251.102 82.4373C246.354 82.999 241.562 83.0847 236.796 82.6934V78.3399C238.985 78.0722 241.255 77.7929 243.443 77.4087C245.631 77.0246 247.843 76.6405 249.95 76.105C251.976 75.6129 253.955 74.943 255.863 74.1029C256.647 73.7592 257.385 73.3214 258.063 72.7992C258.622 72.3452 258.82 71.9378 258.773 71.8796C258.727 71.8214 258.773 71.8796 258.773 71.7749L258.494 70.9368C258.145 69.8892 257.795 68.8415 257.4 67.8172C256.69 65.7336 255.816 63.7082 254.978 61.7061C254.14 59.704 253.174 57.7368 252.15 55.886C251.661 54.9431 251.137 54.0003 250.602 53.104C250.334 52.65 250.055 52.2193 249.775 51.7886L249.379 51.1601L249.03 50.6595L255.863 45.2119Z" fill="#FF8B7B"/>
<path d="M250.334 37.2732C253.977 37.5409 260.74 48.3547 260.74 48.3547L250.38 59.5759C250.38 59.5759 242.605 52.1145 243.059 47.3304C243.489 42.4531 246.167 36.9706 250.334 37.2732Z" fill="white"/>
<path d="M225.307 72.1357L225.226 79.4691L231.919 81.6109L232.501 72.8807L225.307 72.1357Z" fill="#FF8B7B"/>
<path d="M365.84 186.233H312.598C311.672 186.233 310.784 185.865 310.129 185.21C309.474 184.555 309.106 183.667 309.106 182.741C309.106 181.814 309.474 180.926 310.129 180.271C310.784 179.616 311.672 179.249 312.598 179.249H365.84C366.766 179.249 367.655 179.616 368.31 180.271C368.964 180.926 369.332 181.814 369.332 182.741C369.332 183.667 368.964 184.555 368.31 185.21C367.655 185.865 366.766 186.233 365.84 186.233Z" fill="white"/>
<path opacity="0.8" d="M365.84 186.233H312.598C311.672 186.233 310.784 185.865 310.129 185.21C309.474 184.555 309.106 183.667 309.106 182.741C309.106 181.814 309.474 180.926 310.129 180.271C310.784 179.616 311.672 179.249 312.598 179.249H365.84C366.766 179.249 367.655 179.616 368.31 180.271C368.964 180.926 369.332 181.814 369.332 182.741C369.332 183.667 368.964 184.555 368.31 185.21C367.655 185.865 366.766 186.233 365.84 186.233Z" fill="white"/>
<path d="M297.034 275.408H288.409L283.392 255.434H292.017L297.034 275.408Z" fill="#FFB573"/>
<path d="M287.804 273.313H297.501C297.582 273.31 297.662 273.323 297.739 273.351C297.815 273.379 297.884 273.422 297.944 273.477C298.003 273.532 298.051 273.598 298.085 273.672C298.119 273.746 298.138 273.826 298.141 273.907L298.606 281.577C298.606 281.981 298.448 282.368 298.165 282.656C297.882 282.943 297.497 283.108 297.093 283.114C293.718 283.056 292.111 282.858 287.851 282.858C285.22 282.858 274.069 283.126 270.391 283.126C266.712 283.126 266.898 279.54 268.412 279.215C275.291 277.759 283.823 275.722 286.256 273.848C286.695 273.496 287.242 273.307 287.804 273.313Z" fill="#263238"/>
<path opacity="0.2" d="M292.029 255.434H283.392L285.988 265.735H294.613L292.029 255.434Z" fill="black"/>
<path d="M319.978 145.841C319.978 145.841 249.752 150.648 251.207 175.372C252.744 202.424 282.275 263.267 282.275 263.267H298.082C298.082 263.267 283.753 211.538 280.296 183.986C297.046 177.002 342.478 183.695 347.809 169.226C350.421 161.729 351.11 153.696 349.812 145.864L319.978 145.841Z" fill="white"/>
<path opacity="0.3" d="M281.099 190.004C280.902 188.77 280.727 187.559 280.564 186.395C280.448 185.569 280.331 184.754 280.238 183.962C283.385 182.773 286.664 181.967 290.004 181.565C288.84 173.626 287.257 166.316 287.257 166.316C279.109 166.316 269.925 180.284 282.124 195.975C281.922 194.904 281.736 193.845 281.565 192.797C281.402 191.855 281.251 190.912 281.099 190.004Z" fill="black"/>
<path d="M299.724 263.244H278.911L277.119 256.411L297.757 254.77L299.724 263.244Z" fill="#808080"/>
<path d="M284.743 274.815C285.528 274.796 286.308 274.695 287.071 274.512C287.108 274.5 287.141 274.478 287.168 274.45C287.194 274.421 287.213 274.387 287.223 274.349C287.227 274.312 287.222 274.274 287.207 274.24C287.193 274.205 287.17 274.175 287.141 274.151C286.862 273.953 284.417 272.289 283.37 272.696C283.251 272.747 283.145 272.825 283.062 272.924C282.979 273.023 282.921 273.141 282.892 273.267C282.839 273.456 282.835 273.655 282.88 273.847C282.925 274.038 283.017 274.215 283.149 274.361C283.606 274.703 284.174 274.864 284.743 274.815ZM286.489 274.221C284.953 274.524 283.812 274.477 283.405 274.081C283.321 273.984 283.264 273.866 283.24 273.739C283.215 273.613 283.224 273.482 283.265 273.36C283.273 273.298 283.298 273.239 283.337 273.19C283.376 273.141 283.428 273.103 283.486 273.08C284.057 272.859 285.488 273.581 286.489 274.221Z" fill="white"/>
<path d="M287.001 274.511C287.032 274.521 287.064 274.521 287.094 274.511C287.124 274.495 287.149 274.471 287.167 274.443C287.185 274.414 287.196 274.382 287.199 274.348C287.199 274.244 287.397 271.764 286.536 270.926C286.422 270.819 286.285 270.738 286.136 270.69C285.987 270.642 285.83 270.627 285.674 270.647C285.504 270.653 285.34 270.716 285.21 270.826C285.079 270.936 284.989 271.085 284.953 271.252C284.755 272.195 286.035 273.999 286.897 274.511H287.001ZM285.837 271.019C286.002 271.017 286.161 271.08 286.28 271.194C286.75 272.024 286.946 272.981 286.838 273.929C286.093 273.301 285.232 271.927 285.36 271.31C285.36 271.194 285.453 271.054 285.744 271.019H285.837Z" fill="white"/>
<path d="M329.01 80.2604C327.695 83.8805 326.263 87.4191 324.855 90.981C323.446 94.5429 321.968 98.0816 320.443 101.597C317.428 108.663 314.274 115.658 310.782 122.631L310.281 123.62L309.769 124.144C307.288 126.63 304.457 128.74 301.365 130.406C298.415 131.996 295.29 133.234 292.053 134.096C288.937 134.941 285.749 135.494 282.531 135.749C280.936 135.889 279.353 135.924 277.77 135.924C276.148 135.924 274.528 135.835 272.916 135.656L273.044 129.173C274.266 128.986 275.733 128.742 277.072 128.463C278.41 128.183 279.795 127.834 281.134 127.473C283.769 126.774 286.349 125.879 288.851 124.796C291.245 123.774 293.531 122.515 295.673 121.036C297.677 119.652 299.489 118.008 301.062 116.147L300.049 117.66C302.936 110.793 305.672 103.692 308.442 96.708L312.597 86.1271L316.8 75.5811L329.01 80.2604Z" fill="#FFB573"/>
<path d="M315.229 77.1403C308.244 85.1953 303.588 96.4631 303.588 96.4631L321.933 107.51C327.23 101.061 333.841 83.9731 334.109 78.2112C334.516 69.353 322.795 68.4684 315.229 77.1403Z" fill="#FFD760"/>
<path opacity="0.3" d="M321.7 85.3586C317.696 88.7227 314.856 95.7184 313.61 102.505L321.921 107.51C324.541 104.321 327.486 98.5353 329.825 92.7851C327.951 87.0814 325.239 82.3787 321.7 85.3586Z" fill="black"/>
<path d="M331.094 269.996L322.701 271.974L314.262 253.431L322.666 251.453L331.094 269.996Z" fill="#FFB573"/>
<path d="M321.258 269.658L330.349 266.306C330.502 266.247 330.672 266.249 330.824 266.312C330.975 266.375 331.097 266.493 331.164 266.643L334.248 273.628C334.369 274.007 334.345 274.417 334.182 274.78C334.019 275.143 333.727 275.433 333.364 275.595C330.384 277.178 328.708 277.283 324.599 278.551C322.795 279.098 318.208 282.905 312.9 282.905H308.244C305.497 282.905 305.125 279.971 306.65 279.564C314.018 277.597 318.383 273.267 320.013 270.624C320.303 270.167 320.743 269.826 321.258 269.658Z" fill="#263238"/>
<path opacity="0.2" d="M322.666 251.453L314.262 253.431L318.616 262.988L327.02 261.009L322.666 251.453Z" fill="black"/>
<path d="M336.879 145.841C336.879 145.841 279.982 150.648 281.379 175.349C282.915 202.401 314.402 261.428 314.402 261.428L329.779 257.808C329.779 257.808 313.482 208.197 309.99 180.657C326.031 180.657 359.298 183.671 364.699 169.203C367.311 161.706 368 153.673 366.702 145.841H336.879Z" fill="white"/>
<path d="M331.431 257.412L311.177 262.185L309.024 255.375L329.534 249.346L331.431 257.412Z" fill="#808080"/>
<path d="M318.907 272.172C319.625 271.883 320.312 271.521 320.955 271.09C320.988 271.069 321.013 271.039 321.03 271.004C321.046 270.969 321.053 270.93 321.048 270.892C321.042 270.853 321.025 270.816 320.998 270.787C320.971 270.758 320.936 270.738 320.897 270.729C320.571 270.648 317.708 269.914 316.858 270.671C316.762 270.757 316.689 270.867 316.646 270.989C316.603 271.111 316.592 271.242 316.614 271.369C316.621 271.566 316.682 271.757 316.791 271.922C316.9 272.086 317.052 272.217 317.23 272.3C317.786 272.468 318.383 272.422 318.907 272.172ZM320.338 271.008C319 271.823 317.917 272.172 317.393 271.94C317.28 271.878 317.184 271.787 317.117 271.677C317.049 271.567 317.012 271.44 317.009 271.311C317 271.25 317.006 271.187 317.026 271.128C317.046 271.069 317.08 271.016 317.126 270.973C317.556 270.566 319.174 270.752 320.338 271.008Z" fill="white"/>
<path d="M320.92 271.113C320.948 271.1 320.972 271.08 320.99 271.055C321.006 271.027 321.015 270.995 321.015 270.962C321.015 270.929 321.006 270.897 320.99 270.869C320.99 270.764 320.292 268.366 319.186 267.889C319.047 267.818 318.894 267.78 318.738 267.78C318.582 267.78 318.428 267.818 318.289 267.889C318.13 267.955 317.996 268.071 317.91 268.221C317.823 268.37 317.789 268.544 317.812 268.715C317.952 269.67 319.779 270.915 320.769 271.102L320.92 271.113ZM318.592 268.238C318.666 268.207 318.745 268.191 318.825 268.191C318.905 268.191 318.984 268.207 319.058 268.238C319.721 268.529 320.222 269.845 320.536 270.566C319.616 270.24 318.336 269.251 318.208 268.622C318.208 268.506 318.208 268.355 318.464 268.215L318.592 268.238Z" fill="white"/>
<path d="M274.581 128.998L264.838 127.007L266.06 136.482C266.06 136.482 275.489 136.89 276.199 134.015L274.581 128.998Z" fill="#FFB573"/>
<path d="M257.726 132.362L260.287 138.729L266.06 136.482L264.838 127.007L257.726 132.362Z" fill="#FFB573"/>
<path d="M320.024 146.272H366.177C366.503 142.151 365.549 128.742 366.259 111.666C366.698 99.0086 368.232 86.4134 370.845 74.0213C371.055 73.09 370.624 72.4033 370.845 71.4721C369.21 70.8953 367.516 70.5048 365.793 70.3081C363.011 69.9006 359.519 69.4816 356.097 69.3186C349.564 68.9459 343.016 68.9459 336.483 69.3186C333.469 69.598 330.524 70.0985 328.172 70.5525C325.169 71.1578 323.4 71.7165 323.4 71.7165C323.4 71.7165 312.027 97.7557 320.024 146.272Z" fill="#FFD760"/>
<path opacity="0.3" d="M366.259 111.677C366.698 99.0195 368.232 86.4243 370.845 74.0321C367.76 73.7644 362.487 74.0321 361.614 79.049C360.625 84.4035 361.859 96.9982 366.259 111.677Z" fill="black"/>
<path d="M374.734 77.9087C376.095 81.2727 377.143 84.4854 378.226 87.8261C379.308 91.1669 380.239 94.4843 381.066 97.8949C381.892 101.306 382.649 104.751 383.184 108.313C383.475 110.059 383.673 111.886 383.883 113.691C384.092 115.495 384.15 117.369 384.116 119.313V120.733C384.105 121.775 383.928 122.808 383.592 123.794C383.037 125.349 382.16 126.769 381.019 127.962C379.423 129.567 377.59 130.917 375.583 131.966C372.292 133.686 368.837 135.075 365.27 136.11C358.569 138.084 351.705 139.455 344.76 140.207L343.421 133.863C346.506 132.792 349.684 131.686 352.734 130.499C355.783 129.312 358.868 128.171 361.79 126.798C364.598 125.594 367.3 124.157 369.868 122.502C370.813 121.906 371.658 121.163 372.371 120.302C372.58 120.035 372.557 119.895 372.371 120.163C372.333 120.253 372.306 120.346 372.289 120.442V120.628V120.721L372.196 119.627C371.953 116.568 371.494 113.53 370.822 110.536C370.171 107.44 369.379 104.309 368.494 101.224C367.61 98.1393 366.655 94.9849 365.643 91.9119C364.63 88.8388 363.547 85.6494 362.5 82.7045L374.734 77.9087Z" fill="#FFB573"/>
<path d="M370.845 71.4835C362.441 68.8295 357.703 75.3131 360.031 86.965C361.624 94.4087 364.319 101.573 368.028 108.22L385 100.165C383.393 88.7459 379.447 74.1956 370.845 71.4835Z" fill="#FFD760"/>
<path d="M356.074 49.6582L350.824 54.0116L343.677 59.9481C343.889 60.8999 344.04 61.8641 344.131 62.8349C344.515 66.7111 341.372 68.5153 337.414 69.2603C337.414 69.2603 331.804 74.4984 343.025 74.6614C354.246 74.8243 356.854 69.3767 356.854 69.3767C352.582 65.128 354.619 55.9439 356.074 49.6582Z" fill="#FFB573"/>
<path d="M355.771 69.3066C352.128 71.8464 348.024 73.6496 343.689 74.6145C345.889 76.8028 347.309 82.1806 347.309 82.1806C347.309 82.1806 359.461 79.3288 359.904 69.4462C359.258 69.1586 358.583 68.9439 357.89 68.806C357.521 68.7434 357.144 68.7555 356.78 68.8415C356.416 68.9274 356.073 69.0856 355.771 69.3066Z" fill="white"/>
<path d="M338.299 69.54C338.02 70.9135 338.299 73.4278 343.689 74.6151C340.371 76.5241 338.951 81.5992 338.951 81.5992C338.951 81.5992 331.432 74.9992 335.296 69.2955C336 68.9891 336.739 68.7702 337.496 68.6437C337.615 68.6232 337.737 68.6332 337.85 68.6727C337.964 68.7122 338.066 68.7799 338.146 68.8695C338.226 68.9591 338.282 69.0676 338.309 69.1849C338.336 69.3022 338.333 69.4244 338.299 69.54Z" fill="white"/>
<path opacity="0.2" d="M343.677 59.9131C343.889 60.8648 344.04 61.829 344.131 62.7998C348.554 62.1247 351.417 59.5057 351.79 56.7935C351.93 55.7692 350.894 54.6866 350.824 53.9766L343.677 59.9131Z" fill="black"/>
<path d="M336.949 46.5967C332.852 43.5586 330.664 37.0634 332.456 33.1639C332.838 32.2841 333.46 31.5293 334.251 30.9855C335.041 30.4418 335.968 30.131 336.927 30.0885C337.885 30.0461 338.836 30.2737 339.672 30.7454C340.507 31.2171 341.193 31.9139 341.652 32.7565C344.597 37.6803 341.605 50.0539 336.949 46.5967Z" fill="#263238"/>
<path d="M356.435 38.4952C356.505 47.0857 356.994 52.091 353.001 56.9217C351.723 58.5063 350.035 59.7111 348.122 60.4059C346.208 61.1006 344.141 61.2587 342.144 60.8631C340.146 60.4675 338.296 59.5333 336.791 58.1615C335.287 56.7897 334.186 55.0326 333.608 53.0804C331.28 45.6074 331.513 32.8264 339.592 28.5545C341.318 27.5834 343.269 27.083 345.25 27.1036C347.231 27.1242 349.171 27.665 350.877 28.6718C352.583 29.6787 353.995 31.1161 354.97 32.8402C355.945 34.5643 356.451 36.5144 356.435 38.4952Z" fill="#FFB573"/>
<path d="M353.467 45.328C350.37 41.2656 350.079 34.4211 352.896 31.1735C353.51 30.4458 354.316 29.9043 355.222 29.61C356.127 29.3157 357.097 29.2803 358.022 29.5079C358.947 29.7354 359.789 30.2168 360.455 30.8978C361.121 31.5788 361.583 32.4322 361.789 33.3619C363.291 38.8793 356.97 49.9375 353.467 45.328Z" fill="#263238"/>
<path d="M334.482 31.8834C331.886 30.3236 337.881 25.0506 345.656 22.7459C354.34 20.1734 365.317 26.9247 365.852 32.7797C366.411 38.949 362.244 35.9459 361.592 37.8781C361.592 37.8781 339.801 35.0845 334.482 31.8834Z" fill="white"/>
<path d="M331.851 34.0369C331.972 32.7817 332.485 31.5963 333.318 30.6496C333.76 30.2422 359.508 35.4337 362.185 37.7385C362.686 38.1692 360.882 41.8475 360.486 41.3703C357.669 38.0179 331.956 34.9681 331.851 34.0369Z" fill="white"/>
<path opacity="0.3" d="M331.851 34.0369C331.972 32.7817 332.485 31.5963 333.318 30.6496C333.76 30.2422 359.508 35.4337 362.185 37.7385C362.686 38.1692 360.882 41.8475 360.486 41.3703C357.669 38.0179 331.956 34.9681 331.851 34.0369Z" fill="black"/>
<path d="M359.217 43.3839C359.259 43.3934 359.303 43.3934 359.345 43.3839C359.409 43.3431 359.455 43.2789 359.472 43.2049C359.49 43.131 359.477 43.0532 359.438 42.9881C358.053 40.7183 348.555 39.95 347.484 39.8685C344.409 39.7101 341.327 39.9132 338.3 40.4738C337.92 40.333 337.513 40.2798 337.11 40.3181C336.707 40.3564 336.318 40.4852 335.972 40.695C333.97 40.6725 331.971 40.8677 330.012 41.277C329.974 41.2853 329.939 41.3009 329.907 41.3229C329.876 41.345 329.849 41.373 329.828 41.4055C329.808 41.438 329.794 41.4742 329.787 41.5121C329.781 41.55 329.782 41.5888 329.791 41.6262C329.799 41.6637 329.814 41.6993 329.836 41.7307C329.859 41.7622 329.887 41.789 329.919 41.8096C329.952 41.8301 329.988 41.8441 330.026 41.8505C330.064 41.857 330.102 41.8559 330.14 41.8474C332.076 41.4434 334.051 41.2522 336.03 41.277C336.08 41.2877 336.131 41.2877 336.181 41.277C336.458 41.0943 336.775 40.98 337.104 40.9436C337.434 40.9072 337.768 40.9496 338.078 41.0675C338.142 41.0906 338.212 41.0906 338.276 41.0675C341.278 40.4928 344.339 40.2857 347.391 40.4505C350.242 40.6601 357.867 41.6146 358.891 43.2908C358.93 43.337 358.982 43.3706 359.04 43.3872C359.098 43.4038 359.16 43.4027 359.217 43.3839Z" fill="#263238"/>
<path d="M343.631 47.842H343.91C344.501 47.7833 345.072 47.5941 345.581 47.2882C346.091 46.9822 346.526 46.5671 346.855 46.0727C348.322 43.8029 347.332 40.2526 347.298 40.1362C347.287 40.0976 347.261 40.065 347.226 40.0453C347.191 40.0257 347.15 40.0207 347.111 40.0314C347.075 40.0446 347.045 40.0713 347.028 40.106C347.01 40.1406 347.007 40.1806 347.018 40.2177C347.018 40.2177 348.008 43.7097 346.611 45.9214C346.305 46.382 345.899 46.7678 345.423 47.0499C344.948 47.3321 344.415 47.5033 343.864 47.551C343.344 47.6511 342.808 47.6353 342.295 47.5045C341.782 47.3737 341.304 47.1312 340.895 46.7944C338.754 44.9901 338.567 40.788 338.567 40.7531C338.567 40.713 338.551 40.6745 338.523 40.6461C338.495 40.6177 338.456 40.6018 338.416 40.6018C338.379 40.6071 338.345 40.625 338.319 40.6526C338.294 40.6802 338.279 40.7157 338.276 40.7531C338.276 40.9277 338.416 45.1298 340.663 47.0155C341.074 47.3507 341.549 47.5972 342.06 47.7394C342.571 47.8817 343.106 47.9166 343.631 47.842Z" fill="#263238"/>
<path d="M333.329 48.587C333.778 48.572 334.218 48.4603 334.62 48.2594C335.022 48.0585 335.375 47.7732 335.657 47.423C337.228 45.3277 336.25 41.3468 336.216 41.1838C336.202 41.1503 336.177 41.1227 336.144 41.1061C336.112 41.0895 336.075 41.0851 336.04 41.0935C336.005 41.102 335.974 41.1228 335.953 41.1522C335.931 41.1816 335.921 41.2176 335.925 41.2537C335.925 41.2537 336.914 45.2695 335.424 47.2484C335.155 47.6118 334.804 47.9067 334.399 48.1089C333.995 48.3112 333.548 48.4151 333.096 48.4124C332.794 48.4323 332.491 48.3828 332.21 48.2678C331.93 48.1529 331.679 47.9754 331.478 47.7489C329.93 46.0378 330.5 41.6378 330.5 41.5912C330.503 41.5729 330.503 41.554 330.499 41.5358C330.495 41.5176 330.487 41.5004 330.476 41.4852C330.466 41.47 330.452 41.4571 330.436 41.4473C330.42 41.4376 330.402 41.4311 330.384 41.4283C330.365 41.4249 330.347 41.4253 330.328 41.4294C330.31 41.4335 330.293 41.4412 330.278 41.4521C330.263 41.4629 330.25 41.4767 330.24 41.4926C330.23 41.5085 330.224 41.5262 330.221 41.5447C330.221 41.7309 329.627 46.2008 331.268 47.9468C331.5 48.2009 331.785 48.4005 332.103 48.5314C332.421 48.6622 332.764 48.7209 333.108 48.7034L333.329 48.587Z" fill="#263238"/>
<path d="M359.461 45.7817C358.681 47.4794 357.306 48.8331 355.597 49.588C353.374 50.5192 352.198 48.5521 352.745 46.2473C353.245 44.1753 355.003 41.2071 357.261 41.242C359.52 41.2769 360.451 43.6632 359.461 45.7817Z" fill="#FFB573"/>
<path d="M342.583 42.4295C342.583 43.1163 342.303 43.7216 341.85 43.7681C341.396 43.8147 341 43.2909 340.942 42.6041C340.883 41.9174 341.221 41.3004 341.675 41.2539C342.129 41.2073 342.536 41.7311 342.583 42.4295Z" fill="#263238"/>
<path d="M334.76 43.2558C334.76 43.9426 334.481 44.5479 334.027 44.5944C333.573 44.641 333.166 44.1172 333.119 43.4304C333.073 42.7436 333.399 42.1384 333.853 42.0918C334.306 42.0452 334.714 42.5574 334.76 43.2558Z" fill="#263238"/>
<path d="M337.345 43.605C336.815 45.8591 335.985 48.0319 334.877 50.0653C335.4 50.3208 335.972 50.4584 336.553 50.4684C337.134 50.4785 337.711 50.3607 338.241 50.1235L337.345 43.605Z" fill="#ED893E"/>
<path d="M341.815 51.288C342.604 51.1175 343.352 50.7895 344.012 50.3234C344.672 49.8574 345.231 49.263 345.656 48.5758C345.678 48.5273 345.682 48.4722 345.667 48.4208C345.652 48.3695 345.619 48.3253 345.574 48.2965C345.525 48.2721 345.468 48.2682 345.416 48.2857C345.363 48.3031 345.32 48.3404 345.295 48.3896C344.821 49.1275 344.184 49.7471 343.433 50.2011C342.683 50.655 341.838 50.9312 340.965 51.0086C340.911 51.0173 340.863 51.0463 340.831 51.0898C340.798 51.1332 340.783 51.1876 340.79 51.2414C340.793 51.2675 340.801 51.2927 340.814 51.3156C340.827 51.3386 340.844 51.3587 340.864 51.375C340.885 51.3912 340.908 51.4032 340.934 51.4103C340.959 51.4173 340.985 51.4193 341.011 51.416C341.282 51.3921 341.55 51.3493 341.815 51.288Z" fill="#263238"/>
<path d="M346.122 39.0654C346.189 39.0385 346.247 38.9937 346.291 38.9358C346.334 38.878 346.361 38.8093 346.368 38.7373C346.375 38.6653 346.363 38.5927 346.332 38.5274C346.3 38.4621 346.252 38.4066 346.191 38.367C345.673 37.9851 345.069 37.7348 344.433 37.6375C343.796 37.5402 343.145 37.5988 342.536 37.8082C342.487 37.8286 342.441 37.8587 342.403 37.8967C342.365 37.9348 342.335 37.98 342.314 38.0298C342.293 38.0796 342.283 38.133 342.283 38.1869C342.283 38.2407 342.294 38.294 342.315 38.3437C342.359 38.4424 342.439 38.5205 342.539 38.5617C342.638 38.6029 342.75 38.604 342.851 38.5648C343.33 38.4077 343.841 38.3679 344.339 38.4489C344.837 38.5299 345.309 38.7294 345.714 39.0304C345.771 39.0754 345.84 39.1026 345.913 39.1088C345.985 39.115 346.058 39.0999 346.122 39.0654Z" fill="#263238"/>
<path d="M331.269 40.4619C331.335 40.4661 331.401 40.4545 331.462 40.4282C331.522 40.4019 331.576 40.3616 331.618 40.3106C331.924 39.8857 332.324 39.5368 332.786 39.2906C333.248 39.0444 333.76 38.9075 334.284 38.8905C334.337 38.8936 334.391 38.8862 334.442 38.8686C334.492 38.851 334.539 38.8235 334.579 38.7878C334.619 38.7521 334.651 38.7089 334.675 38.6606C334.698 38.6123 334.712 38.5599 334.714 38.5064C334.718 38.4528 334.71 38.3992 334.693 38.3486C334.675 38.298 334.648 38.2513 334.612 38.2113C334.576 38.1713 334.533 38.1387 334.485 38.1154C334.436 38.0922 334.384 38.0787 334.33 38.0757C333.675 38.0833 333.031 38.2441 332.449 38.5453C331.866 38.8464 331.363 39.2796 330.978 39.8101C330.944 39.8522 330.92 39.9009 330.905 39.9529C330.891 40.005 330.888 40.0594 330.896 40.1128C330.903 40.1663 330.922 40.2176 330.95 40.2636C330.978 40.3096 331.015 40.3494 331.059 40.3804C331.116 40.4335 331.191 40.4627 331.269 40.4619Z" fill="#263238"/>
<path d="M345.586 133.468L338.451 129.976L338.148 139.288C338.148 139.288 345.225 142.652 346.657 138.857L345.586 133.468Z" fill="#FFB573"/>
<path d="M329.208 131.43L329.337 139.683L338.148 139.206L338.451 129.882L329.208 131.43Z" fill="#FFB573"/>
<path d="M371.567 286.234H364.583V153.07C364.583 150.291 363.479 147.627 361.515 145.662C359.55 143.697 356.885 142.593 354.107 142.593H75.5917C72.8132 142.593 70.1485 143.697 68.1839 145.662C66.2192 147.627 65.1155 150.291 65.1155 153.07V286.234H58.1313V153.07C58.1313 148.439 59.9709 143.998 63.2453 140.723C66.5198 137.449 70.9609 135.609 75.5917 135.609H354.107C358.738 135.609 363.179 137.449 366.453 140.723C369.728 143.998 371.567 148.439 371.567 153.07V286.234Z" fill="white"/>
<path opacity="0.7" d="M371.567 286.234H364.583V153.07C364.583 150.291 363.479 147.627 361.515 145.662C359.55 143.697 356.885 142.593 354.107 142.593H75.5917C72.8132 142.593 70.1485 143.697 68.1839 145.662C66.2192 147.627 65.1155 150.291 65.1155 153.07V286.234H58.1313V153.07C58.1313 148.439 59.9709 143.998 63.2453 140.723C66.5198 137.449 70.9609 135.609 75.5917 135.609H354.107C358.738 135.609 363.179 137.449 366.453 140.723C369.728 143.998 371.567 148.439 371.567 153.07V286.234Z" fill="#BDBDBD"/>
<path d="M346.506 286.234H339.522V153.07C339.522 150.291 338.418 147.627 336.454 145.662C334.489 143.697 331.824 142.593 329.046 142.593H50.5306C47.7522 142.593 45.0875 143.697 43.1228 145.662C41.1582 147.627 40.0544 150.291 40.0544 153.07V286.234H33.0703V153.07C33.0703 148.439 34.9099 143.998 38.1843 140.723C41.4588 137.449 45.8999 135.609 50.5306 135.609H329.046C333.677 135.609 338.118 137.449 341.392 140.723C344.667 143.998 346.506 148.439 346.506 153.07V286.234Z" fill="white"/>
<path opacity="0.8" d="M346.506 286.234H339.522V153.07C339.522 150.291 338.418 147.627 336.454 145.662C334.489 143.697 331.824 142.593 329.046 142.593H50.5306C47.7522 142.593 45.0875 143.697 43.1228 145.662C41.1582 147.627 40.0544 150.291 40.0544 153.07V286.234H33.0703V153.07C33.0703 148.439 34.9099 143.998 38.1843 140.723C41.4588 137.449 45.8999 135.609 50.5306 135.609H329.046C333.677 135.609 338.118 137.449 341.392 140.723C344.667 143.998 346.506 148.439 346.506 153.07V286.234Z" fill="#D1D1D1"/>
<path d="M194.264 132.781H134.27C133.41 132.769 132.583 132.446 131.942 131.873C131.301 131.3 130.887 130.515 130.778 129.662L126.774 91.8776C126.722 91.4848 126.755 91.0854 126.872 90.7067C126.989 90.3281 127.186 89.9792 127.45 89.6839C127.715 89.3887 128.04 89.1541 128.403 88.9963C128.766 88.8385 129.16 88.7612 129.556 88.7697H189.55C190.409 88.7795 191.235 89.0995 191.877 89.6706C192.518 90.2417 192.932 91.0255 193.042 91.8776L197.046 129.662C197.098 130.055 197.064 130.455 196.948 130.834C196.831 131.213 196.634 131.563 196.37 131.859C196.106 132.155 195.781 132.391 195.417 132.55C195.054 132.709 194.66 132.788 194.264 132.781Z" fill="white"/>
<path opacity="0.2" d="M194.264 132.781H134.27C133.41 132.769 132.583 132.446 131.942 131.873C131.301 131.3 130.887 130.515 130.778 129.662L126.774 91.8776C126.722 91.4848 126.755 91.0854 126.872 90.7067C126.989 90.3281 127.186 89.9792 127.45 89.6839C127.715 89.3887 128.04 89.1541 128.403 88.9963C128.766 88.8385 129.16 88.7612 129.556 88.7697H189.55C190.409 88.7795 191.235 89.0995 191.877 89.6706C192.518 90.2417 192.932 91.0255 193.042 91.8776L197.046 129.662C197.098 130.055 197.064 130.455 196.948 130.834C196.831 131.213 196.634 131.563 196.37 131.859C196.106 132.155 195.781 132.391 195.417 132.55C195.054 132.709 194.66 132.788 194.264 132.781Z" fill="black"/>
<path d="M192.599 132.781H132.617C131.756 132.773 130.926 132.453 130.284 131.879C129.641 131.305 129.229 130.517 129.125 129.661L125.109 91.8774C125.059 91.4849 125.094 91.0863 125.211 90.7085C125.329 90.3307 125.526 89.9826 125.79 89.6878C126.054 89.393 126.378 89.1584 126.741 89C127.103 88.8415 127.496 88.7629 127.891 88.7694H187.885C188.744 88.7768 189.572 89.0959 190.215 89.6675C190.857 90.2391 191.27 91.0243 191.377 91.8774L195.393 129.661C195.443 130.055 195.408 130.456 195.29 130.835C195.171 131.214 194.973 131.563 194.708 131.859C194.443 132.155 194.118 132.39 193.754 132.55C193.39 132.709 192.996 132.788 192.599 132.781Z" fill="white"/>
<path d="M195.335 132.502H135.388C134.563 132.502 133.771 132.829 133.186 133.411C132.602 133.994 132.272 134.784 132.269 135.61H198.49C198.488 135.198 198.405 134.791 198.246 134.411C198.086 134.032 197.853 133.688 197.56 133.399C197.266 133.11 196.919 132.882 196.537 132.728C196.155 132.574 195.747 132.497 195.335 132.502Z" fill="#BDBDBD"/>
<path d="M215.903 132.501H194.474C193.65 132.505 192.862 132.833 192.279 133.415C191.697 133.997 191.369 134.786 191.366 135.609H219.023C219.02 134.784 218.69 133.994 218.105 133.411C217.52 132.829 216.729 132.501 215.903 132.501Z" fill="white"/>
<path opacity="0.2" d="M215.903 132.501H194.474C193.65 132.505 192.862 132.833 192.279 133.415C191.697 133.997 191.369 134.786 191.366 135.609H219.023C219.02 134.784 218.69 133.994 218.105 133.411C217.52 132.829 216.729 132.501 215.903 132.501Z" fill="black"/>
<path fill-rule="evenodd" clip-rule="evenodd" d="M160.702 124.343C167.327 124.148 172.538 118.619 172.343 111.995C172.275 109.698 171.567 107.571 170.393 105.78L167.213 119.164L163.818 119.264L161.746 111.866L160.119 119.549L156.767 119.648L152.67 106.44L156.375 106.33L158.354 113.599L160.255 106.216L163.21 106.129L165.454 113.389L167.872 102.999C165.723 101.268 162.969 100.266 159.995 100.353C153.37 100.549 148.158 106.077 148.354 112.702C148.549 119.326 154.077 124.538 160.702 124.343Z" fill="#0A1EA5"/>
</svg>
