<svg width="233" height="137" viewBox="0 0 233 137" fill="none" xmlns="http://www.w3.org/2000/svg">
<g clip-path="url(#clip0)">
<path fill-rule="evenodd" clip-rule="evenodd" d="M192.322 7.45262C192.177 5.05875 190.447 2.72934 188.949 1.71553C184.876 -1.03873 178.46 -0.477626 175.202 3.40326C174.593 4.12992 173.987 5.35029 173.774 6.4769C173.339 8.77262 173.765 9.10665 173.83 10.3871C173.396 10.3417 172.827 9.54616 171.079 9.59597C170.012 9.62673 168.999 10.0003 168.449 10.4794C167.836 11.0141 167.312 11.943 167.168 12.6623C166.938 13.8138 167.006 14.6035 166.937 15.777C166.664 15.5894 164.933 12.9846 161.846 13.5853C157.857 14.3632 157.607 16.5139 157.742 19.8336L182.054 19.8322H182.056H212.553C212.718 14.6606 208.729 10.1263 202.527 12.3429C202.318 9.75859 201.326 7.84378 199.331 6.78896C198.271 6.22785 196.993 5.90261 195.465 6.15313C193.753 6.43588 192.754 7.39402 192.322 7.45262Z" fill="#EEF0FF"/>
<path fill-rule="evenodd" clip-rule="evenodd" d="M43.7814 9.64297C43.6664 7.72084 42.2762 5.85146 41.0733 5.0369C37.8036 2.82469 32.6528 3.27592 30.0377 6.39206C29.5482 6.97514 29.0618 7.95525 28.8908 8.85918C28.5414 10.7022 28.8834 10.9703 28.935 11.9988C28.5871 11.9621 28.1301 11.3234 26.7267 11.3629C25.8687 11.3878 25.0564 11.6882 24.6157 12.072C24.1233 12.5013 23.7032 13.247 23.5882 13.8242C23.4039 14.7486 23.4585 15.383 23.4024 16.325C23.1828 16.1741 21.7941 14.082 19.316 14.5655C16.1127 15.1911 15.9122 16.9169 16.0213 19.5832L35.5393 19.5818H35.5407H60.0267C60.1594 15.4299 56.9575 11.7893 51.9777 13.5693C51.8097 11.4933 51.0122 9.95649 49.4112 9.1097C48.5606 8.65993 47.5346 8.39769 46.3066 8.59987C44.9312 8.82695 44.1278 9.59609 43.7814 9.64297Z" fill="#EEF0FF"/>
<path fill-rule="evenodd" clip-rule="evenodd" d="M0.340533 136.323H232.659C232.847 136.323 233 136.476 233 136.662C233 136.848 232.847 137 232.659 137H0.340533C0.153314 137 0 136.848 0 136.662C0 136.476 0.153314 136.323 0.340533 136.323Z" fill="white"/>
<path fill-rule="evenodd" clip-rule="evenodd" d="M57.1108 78.8557H121.595C123.907 78.8557 125.798 80.7354 125.798 83.0325V120.385H52.9079V83.0325C52.9079 80.7354 54.7993 78.8557 57.1108 78.8557Z" fill="#003398"/>
<path d="M122.809 81.9338H55.8991V117.892H122.809V81.9338Z" fill="url(#paint0_linear)"/>
<path d="M122.809 81.9338H55.8991V117.892H122.809V81.9338Z" fill="white"/>
<path fill-rule="evenodd" clip-rule="evenodd" d="M83.6444 126.629C83.3481 131.949 82.5653 133.293 77.1375 136.325H89.1667H101.196C95.768 133.293 94.9852 131.949 94.6889 126.629L89.1652 126.197L83.6444 126.629Z" fill="#003398"/>
<path fill-rule="evenodd" clip-rule="evenodd" d="M125.798 120.385V123.13C125.798 125.428 123.907 127.307 121.595 127.307H57.1108C54.7993 127.307 52.9079 125.428 52.9079 123.13V120.385H125.798Z" fill="#092968"/>
<path d="M125.798 117.679H52.9079V122.067H125.798V117.679Z" fill="#003398"/>
<path d="M94.8378 127.307H83.4056V128.821H94.8378V127.307Z" fill="#4371E4"/>
<path fill-rule="evenodd" clip-rule="evenodd" d="M132.574 78.8557H197.058C199.37 78.8557 201.261 80.7354 201.261 83.0325V120.385H128.371V83.0325C128.371 80.7354 130.262 78.8557 132.574 78.8557Z" fill="#003398"/>
<path d="M198.272 81.9338H131.362V124.228H198.272V81.9338Z" fill="white"/>
<path fill-rule="evenodd" clip-rule="evenodd" d="M159.107 126.629C158.811 131.949 158.028 133.293 152.6 136.325H164.629H176.659C171.231 133.293 170.448 131.949 170.152 126.629L164.628 126.197L159.107 126.629Z" fill="#003398"/>
<path fill-rule="evenodd" clip-rule="evenodd" d="M201.261 120.385V123.13C201.261 125.428 199.37 127.307 197.058 127.307H132.574C130.262 127.307 128.371 125.428 128.371 123.13V120.385H201.261Z" fill="#092968"/>
<path d="M201.261 117.679H128.371V122.067H201.261V117.679Z" fill="#003398"/>
<path d="M170.301 127.307H158.868V128.821H170.301V127.307Z" fill="#4371E4"/>
<path fill-rule="evenodd" clip-rule="evenodd" d="M151.571 58.8344C149.263 63.9269 148.294 72.6131 142.308 76.6214C138.577 78.4542 123.857 85.7647 123.14 80.9726C122.424 76.179 123.481 76.45 123.481 76.45C123.481 76.45 136.041 68.8333 137.471 68.3586C138.55 68.0012 142.178 51.4624 145.402 48.5337C146.087 47.9126 152.563 56.6442 151.571 58.8344Z" fill="#143484"/>
<path fill-rule="evenodd" clip-rule="evenodd" d="M151.736 46.1033H164.267C167.298 46.1033 171.666 47.6137 173.501 49.7497C176.131 52.8102 175.205 88.4985 174.402 93.2687L173.482 93.9162C173.482 101.782 173.92 109.75 174.366 117.679H160.917L157.95 102.686L153.09 94.3235L145.209 93.695L143.073 93.4122L145.399 48.5352C147.138 47.0805 149.301 46.1033 151.736 46.1033Z" fill="#143484"/>
<path fill-rule="evenodd" clip-rule="evenodd" d="M151.736 46.1033H153.811L154.082 49.1505L155.846 77.2075L148.788 54.996L151.141 52.6578L149.376 50.9042L151.138 46.1223C151.335 46.1106 151.536 46.1033 151.736 46.1033Z" fill="#2B50AC"/>
<path fill-rule="evenodd" clip-rule="evenodd" d="M95.0928 57.0926C94.0358 54.9068 94.8495 50.6274 97.0888 49.6664C97.6814 49.4129 101.874 48.8679 102.963 49.4759C107.914 52.1408 113.602 74.5852 110.819 89.3176C110.539 90.8031 108.806 91.0961 107.119 90.5028C105.806 90.0472 104.147 80.7647 101.525 72.0008C99.362 64.7738 96.0421 59.0543 95.0928 57.0926Z" fill="#1C145E"/>
<path fill-rule="evenodd" clip-rule="evenodd" d="M161.902 46.1031L161.242 48.8588L155.846 77.2073L165.741 55.3284L163.708 52.7104L165.683 51.1955L164.497 46.106C163.919 45.9917 162.507 46.1031 161.902 46.1031Z" fill="#2B50AC"/>
<path fill-rule="evenodd" clip-rule="evenodd" d="M152.975 46.1032C152.146 52.2886 155.127 70.4463 155.846 77.2075C156.065 76.6756 161.896 50.8704 162.464 46.1032H156.803C155.522 46.1032 154.067 45.9479 152.975 46.1032Z" fill="white"/>
<path fill-rule="evenodd" clip-rule="evenodd" d="M149.655 39.95C149.216 42.8537 152.569 45.0674 154.847 44.874V46.2028L154.73 46.3684C153.934 48.4223 156.174 49.7438 156.917 50.4499C157.596 49.9328 161.226 48.9512 161.308 46.1046H161.162V41.1133C161.326 41.0635 161.501 40.9931 161.663 40.8935C162.165 40.5903 162.361 39.8475 162.226 39.0813C162.092 38.3151 161.022 38.8337 161.022 38.8337C161.951 36.5629 163.14 34.6041 160.746 33.3413C158.354 32.0799 153.526 32.1736 153.526 32.1736L150.632 31.8762C151.414 33.1142 149.947 38.025 149.655 39.95Z" fill="#F4B1B1"/>
<path fill-rule="evenodd" clip-rule="evenodd" d="M159.125 42.656C158.108 45.3649 157.141 46.3713 154.847 46.6805V44.8374C155.723 44.7525 157.869 44.0126 159.125 42.656Z" fill="#ED8082"/>
<path fill-rule="evenodd" clip-rule="evenodd" d="M144.391 91.8784L159.442 91.8213L158.201 117.679H145.551L144.391 91.8784Z" fill="#143484"/>
<path fill-rule="evenodd" clip-rule="evenodd" d="M159.137 34.9952C160.017 35.8171 160.011 36.8748 159.371 38.9977C159.182 39.6232 158.89 40.1008 159.852 39.5192C160.292 39.2526 161.025 38.8673 161.311 39.0475C161.946 39.4489 161.765 40.4671 161.336 40.8363C161.144 41.0004 160.776 41.2568 160.776 41.2568C160.776 41.2568 162 41.5717 163.123 40.6722C164.246 39.7712 167.569 36.8997 166.925 32.991C166.067 27.7901 159.949 27.0781 156.356 24.7297C155.263 24.0148 154.266 23.2515 153.974 23.2676C150 23.4903 147.165 27.5396 148.642 30.918C150.526 35.2237 156.875 32.8841 159.137 34.9952Z" fill="#000446"/>
<path fill-rule="evenodd" clip-rule="evenodd" d="M106.205 92.2768C106.307 92.3164 106.761 91.3069 106.705 91.5882L106.202 94.0744C106.202 94.0744 106.756 94.5227 107.116 94.1814C107.477 93.84 107.477 93.84 107.477 93.84L107.535 94.4421C107.535 94.4421 107.893 94.6766 108.152 94.3513C108.41 94.0261 108.726 94.2634 108.726 94.2634L109.022 94.7234C109.68 94.6795 109.646 93.8635 110.028 94.4348C110.265 94.7879 110.479 94.782 110.664 94.2825C110.843 93.8063 110.856 93.0665 110.862 93.0225C111.037 91.8007 110.801 89.9283 110.128 89.3614C109.689 88.9922 107.902 89.1079 107.35 89.3394C107.034 89.4683 104.654 91.6688 106.205 92.2768Z" fill="#F4B1B1"/>
<path fill-rule="evenodd" clip-rule="evenodd" d="M154.315 65.3408C154.909 69.9483 155.572 74.632 155.846 77.2076C156.878 73.2139 157.819 68.7866 158.689 64.7709L157.632 53.9707L158.436 52.2961L156.928 50.5747L155.432 52.3269L156.266 53.9414L154.315 65.3408Z" fill="#009844"/>
<path d="M169.746 61.719H164.296V62.7533H169.746V61.719Z" fill="#2B50AC"/>
<path fill-rule="evenodd" clip-rule="evenodd" d="M121.856 76.9379C121.251 76.5409 120.536 75.4275 118.728 75.4788C118.376 75.4876 117.278 76.0648 117.306 76.2523C117.331 76.4149 117.92 76.5453 118.116 76.6991C118.526 77.0244 118.895 76.8662 119.147 77.0112C117.738 79.8783 113.137 79.1677 113.527 80.6885C114.559 81.5938 116.524 84.0654 124.663 80.7808C124.722 80.2548 124.585 78.4997 123.58 77.2925L121.856 76.9379Z" fill="#F4B1B1"/>
<path fill-rule="evenodd" clip-rule="evenodd" d="M74.7006 90.529C74.7006 99.791 75.2062 108.751 75.8578 117.679H89.9288L92.1283 100.304L103.947 101.986L104.284 88.4384H104.283C103.752 41.6026 79.415 52.4512 81.5216 78.9523C81.753 81.8677 73.5758 87.3294 74.7006 90.529Z" fill="#1C145E"/>
<path fill-rule="evenodd" clip-rule="evenodd" d="M104.943 92.6211H89.342L92.0059 117.679H104.707L104.943 92.6211Z" fill="#1C145E"/>
<path fill-rule="evenodd" clip-rule="evenodd" d="M80.6578 45.2432C73.5685 45.2432 69.5204 50.0778 69.373 56.795C69.1725 65.9749 73.5729 80.7806 72.7621 96.4697C83.2877 96.4697 95.0501 94.9812 105.574 94.9812C105.764 87.1945 105.812 63.6309 104.04 50.4323C100.163 44.3656 86.6193 45.2432 80.6578 45.2432Z" fill="#1C145E"/>
<path fill-rule="evenodd" clip-rule="evenodd" d="M92.3833 45.5186C94.4324 49.2764 94.1744 57.7736 93.5626 66.5404L92.6663 78.3618C88.6167 63.2236 82.6463 49.9533 80.9068 45.2432C84.6453 44.9971 87.803 44.811 92.3833 45.5186Z" fill="white"/>
<path fill-rule="evenodd" clip-rule="evenodd" d="M94.6757 41.1427C93.5037 42.5418 92.1519 43.6699 90.7617 43.9761V45.4821L91.0315 45.8455C92.0221 47.5566 90.4271 49.2663 89.1623 50.201C86.5353 49.6721 83.4351 47.246 83.2803 45.34L83.5692 45.0734L84.1943 44.6383L84.4994 40.8848C84.3063 40.8277 83.068 39.6923 82.6744 39.4638C82.2808 39.2352 81.8474 38.2785 82.0066 37.4098C82.1658 36.541 83.4351 37.1285 83.4351 37.1285C82.3339 34.5544 80.9231 32.3334 83.7624 30.9035C86.6016 29.4722 92.3273 29.5806 92.3273 29.5806L95.8756 29.21C95.1946 30.2399 95.311 33.6637 95.6029 36.204C95.8668 38.4807 96.2486 39.2645 94.6757 41.1427Z" fill="#F4B1B1"/>
<path fill-rule="evenodd" clip-rule="evenodd" d="M85.9412 41.6948C85.9412 41.6948 87.0556 45.29 88.5151 45.9288C89.973 46.569 90.1765 46.487 90.7617 46.5514V43.9759C89.6708 43.8997 88.2247 43.5334 85.9412 41.6948Z" fill="#E98385"/>
<path fill-rule="evenodd" clip-rule="evenodd" d="M110.206 75.675C108.778 76.0545 107.286 77.3657 106.274 78.8293C105.135 80.4774 104.628 81.3198 106.877 81.2495C108.453 81.2012 111.889 81.2803 111.889 81.2803C113.925 79.9793 113.681 77.7188 113.686 76.1746L110.206 75.675Z" fill="#000446"/>
<path fill-rule="evenodd" clip-rule="evenodd" d="M113.417 76.4354L115.851 76.7108L119.008 75.7087C119.008 75.7087 120.587 76.0779 120.928 76.3519C120.992 76.4046 119.489 77.1386 119.552 77.2236C120.093 77.9488 123.739 78.3341 123.695 78.4044C119.545 84.8785 117.712 80.4482 112.171 80.6196C110.126 80.6826 112.634 76.9218 113.417 76.4354Z" fill="#F4B1B1"/>
<path fill-rule="evenodd" clip-rule="evenodd" d="M92.1887 21.8863C100.765 23.4846 99.1203 33.0308 92.8344 33C90.4772 33.3897 87.7117 31.0295 85.8734 32.7451C84.9638 33.5948 85.1186 35.8715 85.7805 38.0676C85.9751 38.7137 86.2773 39.2088 85.2837 38.6082C84.8282 38.3328 84.0705 37.9343 83.7756 38.1203C83.1182 38.5364 83.3054 39.5868 83.7491 39.9692C83.9466 40.1391 84.3285 40.4028 84.3285 40.4028C80.6017 39.8403 78.7487 35.4584 78.8711 32.2514C78.9861 29.207 80.7108 25.313 88.4384 24.0149C90.1367 23.7293 90.3048 21.3061 92.1887 21.8863Z" fill="#000446"/>
<path fill-rule="evenodd" clip-rule="evenodd" d="M166.531 57.6111C165.305 55.0751 166.248 50.1086 168.847 48.9923C169.535 48.6978 171.032 48.0298 172.297 48.7359C181.721 53.9881 191.122 101.07 179.004 96.2426C177.478 95.7137 177.04 85.0878 173.996 74.9161C171.486 66.5273 167.632 59.8877 166.531 57.6111Z" fill="#143484"/>
<path fill-rule="evenodd" clip-rule="evenodd" d="M177.421 98.0404C177.537 98.0858 178.067 96.9152 178 97.2404L177.416 100.125C177.416 100.125 178.22 100.36 178.638 99.9625C179.057 99.5655 179.057 99.5655 179.057 99.5655L178.963 100.55C178.963 100.55 179.379 100.822 179.679 100.444C179.979 100.067 180.344 100.342 180.344 100.342L180.688 100.875C181.451 100.824 181.413 99.8775 181.855 100.54C182.129 100.95 182.378 100.943 182.595 100.364C182.802 99.8116 182.816 98.9531 182.824 98.9018C183.027 97.4836 182.754 95.311 181.97 94.6532C181.46 94.2254 179.386 94.3602 178.746 94.6283C178.383 94.7806 175.622 97.3342 177.421 98.0404Z" fill="#F4B1B1"/>
<path fill-rule="evenodd" clip-rule="evenodd" d="M52.3597 93.0928C55.4716 93.0928 57.9954 93.6217 57.9954 94.2751C57.9954 94.9285 55.4716 95.4573 52.3597 95.4573C49.2477 95.4573 46.7239 94.9285 46.7239 94.2751C46.7239 93.6231 49.2477 93.0928 52.3597 93.0928Z" fill="#1D48B3"/>
<path d="M56.527 97.2522H48.1906V99.6856H56.527V97.2522Z" fill="#1E2187"/>
<path fill-rule="evenodd" clip-rule="evenodd" d="M52.2136 98.5632C62.7849 98.5632 71.3543 107.079 71.3543 117.585C71.3543 128.091 62.7849 136.606 52.2136 136.606C41.6424 136.606 33.0745 128.09 33.0745 117.585C33.073 107.079 41.6424 98.5632 52.2136 98.5632Z" fill="#15378B"/>
<path fill-rule="evenodd" clip-rule="evenodd" d="M52.2136 101.718C61.0306 101.718 68.1789 108.821 68.1789 117.584C68.1789 126.346 61.0306 133.45 52.2136 133.45C43.3966 133.45 36.2484 126.346 36.2484 117.584C36.2469 108.821 43.3951 101.718 52.2136 101.718Z" fill="#EDEEEE"/>
<path fill-rule="evenodd" clip-rule="evenodd" d="M52.2137 102.666C60.5044 102.666 67.2266 109.345 67.2266 117.585C67.2266 125.825 60.5059 132.505 52.2137 132.505C43.9229 132.505 37.2007 125.826 37.2007 117.585C37.2007 109.345 43.9215 102.666 52.2137 102.666Z" fill="white"/>
<path fill-rule="evenodd" clip-rule="evenodd" d="M46.2625 94.2957H58.4553C58.79 94.2957 59.0642 94.5682 59.0642 94.9007V96.9034C59.0642 97.236 58.79 97.5085 58.4553 97.5085H46.2625C45.9279 97.5085 45.6537 97.236 45.6537 96.9034V94.9007C45.6537 94.5682 45.9279 94.2957 46.2625 94.2957Z" fill="#15378B"/>
<path fill-rule="evenodd" clip-rule="evenodd" d="M64.9254 116.632C65.4546 116.632 65.8851 117.058 65.8851 117.585C65.8851 118.111 65.4561 118.539 64.9254 118.539C64.3962 118.539 63.9657 118.113 63.9657 117.585C63.9657 117.058 64.3947 116.632 64.9254 116.632Z" fill="#1E2187"/>
<path fill-rule="evenodd" clip-rule="evenodd" d="M52.2137 129.077C52.8829 129.077 53.4254 129.616 53.4254 130.281C53.4254 130.947 52.8829 131.486 52.2137 131.486C51.5444 131.486 51.0019 130.947 51.0019 130.281C51.0019 129.616 51.5444 129.077 52.2137 129.077Z" fill="#1E2187"/>
<path fill-rule="evenodd" clip-rule="evenodd" d="M52.2137 103.408C52.8933 103.408 53.4431 103.955 53.4431 104.63C53.4431 105.304 52.8933 105.852 52.2137 105.852C51.5356 105.852 50.9842 105.305 50.9842 104.63C50.9842 103.955 51.5341 103.408 52.2137 103.408Z" fill="#1E2187"/>
<path fill-rule="evenodd" clip-rule="evenodd" d="M43.656 125.725C43.8565 125.924 43.8565 126.251 43.656 126.45L43.3052 126.799C43.1047 126.998 42.776 126.998 42.5755 126.799C42.375 126.6 42.375 126.273 42.5755 126.072L42.9263 125.724C43.1268 125.526 43.4556 125.526 43.656 125.725ZM61.5495 107.942C61.75 108.143 61.75 108.468 61.5495 108.669L61.1987 109.018C60.9982 109.217 60.6694 109.217 60.4689 109.018C60.2685 108.819 60.2685 108.492 60.4689 108.293L60.8198 107.944C61.0203 107.743 61.349 107.743 61.5495 107.942Z" fill="#F18E00"/>
<path fill-rule="evenodd" clip-rule="evenodd" d="M60.7682 125.725C60.5677 125.924 60.5677 126.251 60.7682 126.45L61.119 126.799C61.3195 126.998 61.6483 126.998 61.8488 126.799C62.0492 126.6 62.0492 126.273 61.8488 126.072L61.4979 125.724C61.2974 125.526 60.9687 125.526 60.7682 125.725ZM42.8747 107.942C42.6742 108.143 42.6742 108.468 42.8747 108.669L43.2256 109.018C43.426 109.217 43.7548 109.217 43.9553 109.018C44.1558 108.819 44.1558 108.492 43.9553 108.293L43.6044 107.944C43.4039 107.743 43.0752 107.743 42.8747 107.942Z" fill="#F18E00"/>
<path fill-rule="evenodd" clip-rule="evenodd" d="M41.862 115.647C41.9018 115.418 42.123 115.263 42.3529 115.304L52.3965 117.048C52.6264 117.087 52.7827 117.307 52.7414 117.535C52.7016 117.764 52.4805 117.919 52.2505 117.878L42.207 116.135C41.9785 116.095 41.8222 115.876 41.862 115.647Z" fill="#F18E00"/>
<path fill-rule="evenodd" clip-rule="evenodd" d="M57.9997 111.86C58.1648 112.024 58.1648 112.292 57.9997 112.456L52.8062 117.626C52.6411 117.79 52.3713 117.79 52.2062 117.626C52.0411 117.462 52.0411 117.194 52.2062 117.03L57.3997 111.86C57.5634 111.696 57.8346 111.696 57.9997 111.86Z" fill="#F18E00"/>
<path fill-rule="evenodd" clip-rule="evenodd" d="M42.9294 131.987C42.4798 131.764 41.2134 131.5 41.0616 131.976L40.0621 135.107C39.9103 135.583 39.9471 136.124 40.3968 136.347C40.8464 136.569 41.3107 136.388 41.6439 136.014L43.8493 133.551C44.1839 133.179 43.379 132.209 42.9294 131.987ZM61.4936 131.987C61.9432 131.764 63.1682 131.537 63.3274 132.01L64.3608 135.106C64.5186 135.579 64.4758 136.122 64.0262 136.345C63.5766 136.568 63.1225 136.377 62.779 136.012L60.4351 133.532C60.0916 133.17 61.044 132.209 61.4936 131.987Z" fill="#15378B"/>
<path fill-rule="evenodd" clip-rule="evenodd" d="M225.119 50.217C226.661 50.217 227.913 51.433 227.913 52.712C227.913 53.991 226.994 54.8817 225.762 55.141H222.327V52.712C222.327 51.3349 223.577 50.217 225.119 50.217Z" fill="#07448B"/>
<path fill-rule="evenodd" clip-rule="evenodd" d="M228.364 63.4318V86.0739H190.06V63.4318L209.624 52.8484L228.364 63.4318Z" fill="#E6A126"/>
<path fill-rule="evenodd" clip-rule="evenodd" d="M225.149 50.217H225.121H225.149ZM222.327 56.4464H222.336V83.2844H195.59V62.9746V56.4464V52.712C195.59 51.3334 196.84 50.217 198.384 50.217H225.121C223.579 50.217 222.328 51.3349 222.328 52.712V56.4464H222.327Z" fill="#F7F7F7"/>
<path fill-rule="evenodd" clip-rule="evenodd" d="M190.06 63.4319L208.924 80.1216L228.364 63.4319V86.074H190.06V63.4319Z" fill="#FCA70C"/>
<path fill-rule="evenodd" clip-rule="evenodd" d="M190.06 86.0738L209.376 72.6189L228.364 86.0738H190.06Z" fill="#FFC04E"/>
<path fill-rule="evenodd" clip-rule="evenodd" d="M200.232 65.8813H217.645C218.098 65.8813 218.466 66.227 218.466 66.649C218.466 67.0709 218.096 67.4166 217.645 67.4166H200.232C199.781 67.4166 199.411 67.0709 199.411 66.649C199.411 66.227 199.78 65.8813 200.232 65.8813ZM200.232 58.8535H206.966C207.419 58.8535 207.787 59.1993 207.787 59.6212C207.787 60.0431 207.417 60.3889 206.966 60.3889H200.232C199.781 60.3889 199.411 60.0431 199.411 59.6212C199.411 59.1978 199.78 58.8535 200.232 58.8535ZM200.232 62.3799H217.645C218.098 62.3799 218.466 62.7256 218.466 63.1475C218.466 63.5695 218.096 63.9152 217.645 63.9152H200.232C199.781 63.9152 199.411 63.5695 199.411 63.1475C199.411 62.7256 199.78 62.3799 200.232 62.3799ZM200.232 69.3842H217.645C218.098 69.3842 218.466 69.7299 218.466 70.1518C218.466 70.5738 218.096 70.9195 217.645 70.9195H200.232C199.781 70.9195 199.411 70.5738 199.411 70.1518C199.411 69.7299 199.78 69.3842 200.232 69.3842Z" fill="#07448B"/>
<path fill-rule="evenodd" clip-rule="evenodd" d="M201.839 52.4951C203.13 52.4951 204.177 53.5353 204.177 54.8172C204.177 56.1006 203.13 57.1393 201.839 57.1393C200.548 57.1393 199.502 56.0991 199.502 54.8172C199.501 53.5353 200.548 52.4951 201.839 52.4951Z" fill="#07448B"/>
<path fill-rule="evenodd" clip-rule="evenodd" d="M201.836 53.3772C202.237 53.3772 202.563 53.701 202.563 54.0995C202.563 54.4979 202.237 54.8217 201.836 54.8217C201.435 54.8217 201.109 54.4979 201.109 54.0995C201.109 53.701 201.435 53.3772 201.836 53.3772Z" fill="white"/>
<path fill-rule="evenodd" clip-rule="evenodd" d="M201.003 55.0942H202.669C203.01 55.0942 203.29 55.3711 203.29 55.711C203.29 56.0494 203.011 56.3278 202.669 56.3278H201.003C200.663 56.3278 200.384 56.0509 200.384 55.711C200.384 55.3711 200.663 55.0942 201.003 55.0942Z" fill="white"/>
<path fill-rule="evenodd" clip-rule="evenodd" d="M136.947 10.4854H118.663C114.522 10.4854 111.164 13.8212 111.164 17.938V22.9015C111.164 27.0183 114.522 30.3527 118.663 30.3527H132.949L136.947 34.008V30.3527C141.088 30.3527 144.447 27.0168 144.447 22.9015V17.938C144.447 13.8212 141.088 10.4854 136.947 10.4854Z" fill="#FFBF42"/>
<path fill-rule="evenodd" clip-rule="evenodd" d="M135.473 19.2241C134.542 19.2241 133.787 19.9742 133.787 20.9001C133.787 21.826 134.542 22.5761 135.473 22.5761C136.405 22.5761 137.16 21.826 137.16 20.9001C137.16 19.9742 136.405 19.2241 135.473 19.2241Z" fill="white"/>
<path fill-rule="evenodd" clip-rule="evenodd" d="M127.806 19.2241C126.874 19.2241 126.12 19.9742 126.12 20.9001C126.12 21.826 126.874 22.5761 127.806 22.5761C128.738 22.5761 129.493 21.826 129.493 20.9001C129.493 19.9742 128.736 19.2241 127.806 19.2241Z" fill="white"/>
<path fill-rule="evenodd" clip-rule="evenodd" d="M120.137 19.2241C119.206 19.2241 118.451 19.9742 118.451 20.9001C118.451 21.826 119.206 22.5761 120.137 22.5761C121.069 22.5761 121.824 21.826 121.824 20.9001C121.824 19.9742 121.069 19.2241 120.137 19.2241Z" fill="white"/>
<path fill-rule="evenodd" clip-rule="evenodd" d="M199.956 96.7496C199.544 96.7115 198.989 96.8375 198.039 97.4631C196.607 98.4036 196.581 98.871 195.121 98.3743C193.663 97.8777 192.288 96.7598 191.621 97.6286C191.306 98.0403 191.026 99.2255 191.346 100.191C191.703 101.266 192.714 102.144 193.371 102.929C194.621 104.419 194.371 104.668 194.079 105.786C192.059 113.526 173.362 135.701 195 136.578C197.691 136.687 206.621 136.739 208.434 136.317C223.39 132.836 207.703 112.968 205.831 105.786C205.539 104.668 205.29 104.419 206.539 102.929C207.198 102.144 208.207 101.266 208.564 100.191C208.884 99.2255 208.604 98.0403 208.288 97.6286C207.622 96.7584 206.247 97.8762 204.789 98.3743C203.331 98.871 203.303 98.4051 201.871 97.4631C200.924 96.839 200.369 96.7115 199.956 96.7496Z" fill="#009844"/>
<path fill-rule="evenodd" clip-rule="evenodd" d="M191.389 98.0989C191.2 98.6512 191.11 99.4804 191.346 100.191C191.703 101.266 192.714 102.144 193.371 102.929C194.621 104.419 194.371 104.668 194.079 105.786C192.154 113.17 175.196 133.553 192.426 136.175C188.757 131.666 188.76 129.016 190.007 124.196C191.309 119.166 193.986 111.954 196.134 106.685C196.134 106.685 196.483 106.523 196.234 104.958C195.983 103.394 192.21 100.387 191.585 98.972C191.453 98.6702 191.396 98.3758 191.389 98.0989Z" fill="#00823D"/>
<path d="M206.132 104.35H193.197V106.685H206.132V104.35Z" fill="#FDA600"/>
<path d="M206.132 104.35H204.492V106.685H206.132V104.35Z" fill="#FDA600"/>
<path d="M204.492 104.35H202.834V106.685H204.492V104.35Z" fill="#FFD115"/>
<path d="M202.834 104.35H196.871V106.685H202.834V104.35Z" fill="#FCA700"/>
<path d="M205.501 106.687H193.811V106.91H205.501V106.687Z" fill="#DF641E"/>
<path fill-rule="evenodd" clip-rule="evenodd" d="M199.611 116.018L199.315 113.694L201.826 113.693L201.42 115.997C203.441 116.239 204.755 117.212 205.358 118.907L202.404 119.793C202.11 118.999 201.501 118.598 200.577 118.589C199.8 118.581 199.409 118.826 199.405 119.324C199.404 119.506 199.47 119.66 199.6 119.789C199.729 119.918 200.091 120.048 200.686 120.184C202.044 120.487 203.015 120.759 203.603 120.996C204.192 121.238 204.678 121.638 205.064 122.199C205.451 122.76 205.639 123.419 205.632 124.181C205.622 125.246 205.231 126.135 204.464 126.847C203.695 127.561 202.641 127.984 201.302 128.122L201.677 130.464L199.029 130.486L199.494 128.104C197.231 127.816 195.818 126.611 195.255 124.502L198.552 123.924C198.824 124.884 199.529 125.369 200.668 125.379C201.557 125.388 202.005 125.149 202.01 124.666C202.013 124.411 201.913 124.209 201.705 124.067C201.5 123.922 201.133 123.793 200.608 123.68C198.543 123.246 197.237 122.701 196.688 122.049C196.14 121.397 195.872 120.647 195.879 119.809C195.888 118.882 196.2 118.061 196.813 117.346C197.431 116.639 198.361 116.195 199.611 116.018Z" fill="#7CC390"/>
<path d="M189.805 129.621H165.794V132.681H189.805V129.621Z" fill="#FDA600"/>
<path d="M189.805 129.621H186.763V132.681H189.805V129.621Z" fill="#FDA600"/>
<path d="M186.763 129.621H183.683V132.681H186.763V129.621Z" fill="#FFD115"/>
<path d="M183.685 129.621H172.614V132.681H183.685V129.621Z" fill="#FCA700"/>
<path d="M172.614 129.621H167.958V132.681H172.614V129.621Z" fill="#EC830E"/>
<path d="M188.633 132.681H166.932V132.973H188.633V132.681Z" fill="#DF641E"/>
<path d="M193.682 132.973H168.751V136.033H193.682V132.973Z" fill="#FDA600"/>
<path d="M193.682 132.973H190.523V136.033H193.682V132.973Z" fill="#FDA600"/>
<path d="M190.523 132.973H187.326V136.033H190.523V132.973Z" fill="#FFD115"/>
<path d="M187.326 132.973H175.83V136.033H187.326V132.973Z" fill="#FCA700"/>
<path d="M175.83 132.973H170.996V136.033H175.83V132.973Z" fill="#EC830E"/>
<path d="M192.465 136.032H169.931V136.323H192.465V136.032Z" fill="#DF641E"/>
<path d="M192.763 126.269H168.751V129.329H192.763V126.269Z" fill="#FDA600"/>
<path d="M192.761 126.269H189.718V129.329H192.761V126.269Z" fill="#FDA600"/>
<path d="M189.72 126.269H186.64V129.329H189.72V126.269Z" fill="#FFD115"/>
<path d="M186.64 126.269H175.569V129.329H186.64V126.269Z" fill="#FCA700"/>
<path d="M175.569 126.269H170.914V129.329H175.569V126.269Z" fill="#EC830E"/>
<path d="M191.589 129.329H169.888V129.621H191.589V129.329Z" fill="#DF641E"/>
<path fill-rule="evenodd" clip-rule="evenodd" d="M89.3539 123.078C90.0379 123.078 90.5922 123.629 90.5922 124.309C90.5922 124.988 90.0379 125.539 89.3539 125.539C88.6699 125.539 88.1156 124.988 88.1156 124.309C88.1156 123.627 88.6699 123.078 89.3539 123.078Z" fill="white"/>
<path fill-rule="evenodd" clip-rule="evenodd" d="M164.817 123.078C165.501 123.078 166.055 123.629 166.055 124.309C166.055 124.988 165.501 125.539 164.817 125.539C164.133 125.539 163.578 124.988 163.578 124.309C163.578 123.627 164.133 123.078 164.817 123.078Z" fill="white"/>
<path d="M77.1271 129.407H52.3537V132.564H77.1271V129.407Z" fill="#FDA600"/>
<path d="M77.127 129.407H73.9885V132.564H77.127V129.407Z" fill="#FDA600"/>
<path d="M73.9872 129.407H70.8103V132.564H73.9872V129.407Z" fill="#FFD115"/>
<path d="M70.8103 129.407H59.3884V132.564H70.8103V129.407Z" fill="#FCA700"/>
<path d="M59.3884 129.407H54.5855V132.564H59.3884V129.407Z" fill="#EC830E"/>
<path d="M75.9183 132.565H53.5272V132.866H75.9183V132.565Z" fill="#DF641E"/>
<path d="M81.128 132.866H55.4038V136.023H81.128V132.866Z" fill="#FDA600"/>
<path d="M81.1266 132.866H77.8672V136.023H81.1266V132.866Z" fill="#FDA600"/>
<path d="M77.8672 132.866H74.568V136.023H77.8672V132.866Z" fill="#FFD115"/>
<path d="M74.5679 132.866H62.7083V136.023H74.5679V132.866Z" fill="#FCA700"/>
<path d="M62.7082 132.866H57.7211V136.023H62.7082V132.866Z" fill="#EC830E"/>
<path d="M79.8706 136.023H56.6215V136.323H79.8706V136.023Z" fill="#DF641E"/>
<path fill-rule="evenodd" clip-rule="evenodd" d="M93.5612 66.5405C93.2973 71.1788 92.97 75.8977 92.8801 78.4849C91.5651 74.5747 90.3121 70.225 89.1563 66.2797L89.2699 53.9543L87.9918 52.3721L89.3731 50.5496L90.9917 52.1919L90.6305 53.8298L93.5612 66.5405Z" fill="#FCA700"/>
<path fill-rule="evenodd" clip-rule="evenodd" d="M92.3832 45.5186C95.8682 57.5334 91.9513 71.5699 93.9975 77.871L78.4007 54.8304L79.9751 51.9179L78.6779 51.2249C78.6941 50.6755 78.9108 46.8723 78.9978 45.3413C79.7997 45.227 80.9009 45.1538 81.7088 45.1904L93.9975 77.871L98.8032 53.4752L96.0981 51.5516L98.1384 49.9957L95.4864 45.9156C93.6731 45.5083 92.5778 45.564 92.3832 45.5186Z" fill="#464878"/>
<path fill-rule="evenodd" clip-rule="evenodd" d="M80.2258 51.6616C77.6342 48.9616 74.7964 47.6899 71.7316 49.8919C65.9189 54.1844 77.2892 70.3716 85.008 76.9892C88.1406 79.6746 105.786 82.1637 107.886 81.5206C108.99 81.1821 113.74 79.5135 110.151 75.3352C110.082 75.2546 95.4038 71.929 93.6938 70.9943C91.4766 69.7827 82.0419 53.5545 80.2258 51.6616Z" fill="#1C145E"/>
</g>
<defs>
<linearGradient id="paint0_linear" x1="92.4207" y1="81.9338" x2="92.4207" y2="117.892" gradientUnits="userSpaceOnUse">
<stop stop-color="#5469FA"/>
<stop offset="1" stop-color="#130B75"/>
</linearGradient>
<clipPath id="clip0">
<rect width="233" height="137" fill="white"/>
</clipPath>
</defs>
</svg>
