<svg width="200" height="155" viewBox="0 0 200 155" fill="none" xmlns="http://www.w3.org/2000/svg">
<path d="M116.794 116.884H87.5604V124.768H116.794V116.884Z" fill="#0343BE"/>
<path d="M147.521 119.459H57.142C54.1189 119.459 51.6619 117.001 51.6619 113.963V51.8331C51.6619 48.801 54.1131 46.3367 57.142 46.3367H147.521C150.544 46.3367 153.001 48.7952 153.001 51.8331V113.969C153.001 117.001 150.544 119.459 147.521 119.459Z" fill="url(#paint0_linear)"/>
<path d="M146.494 112.447H57.8598C55.9981 112.447 54.4924 110.936 54.4924 109.069V52.3834C54.4924 50.5161 55.9981 49.0059 57.8598 49.0059H146.494C148.356 49.0059 149.861 50.5161 149.861 52.3834V109.069C149.861 110.936 148.356 112.447 146.494 112.447Z" fill="white"/>
<path d="M129.359 129.059H74.9949V128.374C74.9949 126.009 76.9092 124.089 79.267 124.089H125.081C127.439 124.089 129.353 126.009 129.353 128.374V129.059H129.359Z" fill="#1051B9"/>
<g opacity="0.35">
<g opacity="0.35">
<g opacity="0.35">
<path opacity="0.35" d="M141.072 98.3746H80.189C78.5724 98.3746 77.2651 97.0634 77.2651 95.442V56.3169C77.2651 54.6955 78.5724 53.3843 80.189 53.3843H141.072C142.689 53.3843 143.996 54.6955 143.996 56.3169V95.4361C143.996 97.0634 142.689 98.3746 141.072 98.3746Z" fill="white"/>
</g>
</g>
</g>
<g opacity="0.25">
<g opacity="0.25">
<g opacity="0.25">
<g opacity="0.25">
<g opacity="0.25">
<path opacity="0.25" d="M86.5154 86.252H83.6089V93.5689H86.5154V86.252Z" fill="#FCA70C"/>
</g>
</g>
</g>
<g opacity="0.25">
<g opacity="0.25">
<g opacity="0.25">
<path opacity="0.25" d="M93.0637 79.8247H90.1573V93.5688H93.0637V79.8247Z" fill="#B1AFFD"/>
</g>
</g>
</g>
<g opacity="0.25">
<g opacity="0.25">
<g opacity="0.25">
<path opacity="0.25" d="M99.6175 81.2471H96.7111V93.5688H99.6175V81.2471Z" fill="#FCA70C"/>
</g>
</g>
</g>
<g opacity="0.25">
<g opacity="0.25">
<g opacity="0.25">
<path opacity="0.25" d="M106.166 74.2871H103.259V93.5687H106.166V74.2871Z" fill="#B1AFFD"/>
</g>
</g>
</g>
<g opacity="0.15">
<g opacity="0.15">
<g opacity="0.15">
<path opacity="0.26" d="M91.4938 79.8247H90.1573V93.5688H91.4938V79.8247Z" fill="black"/>
</g>
</g>
</g>
<g opacity="0.15">
<g opacity="0.15">
<g opacity="0.15">
<path opacity="0.26" d="M84.9454 86.252H83.6089V93.5689H84.9454V86.252Z" fill="black"/>
</g>
</g>
</g>
<g opacity="0.62">
<g opacity="0.62">
<g opacity="0.62">
<path opacity="0.26" d="M104.596 74.2871H103.259V93.5687H104.596V74.2871Z" fill="black"/>
</g>
</g>
</g>
<g opacity="0.15">
<g opacity="0.15">
<g opacity="0.15">
<path opacity="0.26" d="M98.0476 81.2471H96.7111V93.5688H98.0476V81.2471Z" fill="black"/>
</g>
</g>
</g>
<g opacity="0.25">
<g opacity="0.25">
<g opacity="0.25">
<path opacity="0.25" d="M107.707 95.5824H81.6889V67.8015H82.0857V95.1844H107.707V95.5824Z" fill="#D5DBDA"/>
</g>
</g>
</g>
<g opacity="0.25">
<g opacity="0.25">
<g opacity="0.25">
<path opacity="0.25" d="M84.3619 82.8216L84.0993 82.5231L90.9043 76.3944L97.2074 77.77L104.03 70.1487L104.327 70.4179L97.3474 78.209L91.0152 76.8276L84.3619 82.8216Z" fill="#D5DBDA"/>
</g>
</g>
</g>
<g opacity="0.25">
<g opacity="0.25">
<g opacity="0.25">
<path opacity="0.25" d="M104.858 71.5419L102.938 69.6922L105.419 69.0249L104.858 71.5419Z" fill="#D5DBDA"/>
</g>
</g>
</g>
<g opacity="0.25">
<g opacity="0.25">
<g opacity="0.25">
<g opacity="0.25">
<path opacity="0.25" d="M112.166 85.731H110.17V87.7329H112.166V85.731Z" fill="#B1AFFD"/>
</g>
</g>
</g>
<g opacity="0.25">
<g opacity="0.25">
<g opacity="0.25">
<path opacity="0.25" d="M112.166 89.2373H110.17V91.2392H112.166V89.2373Z" fill="#FCA70C"/>
</g>
</g>
</g>
<g opacity="0.25">
<g opacity="0.25">
<g opacity="0.25">
<path opacity="0.25" d="M119.041 90.1035H112.714V91.2391H119.041V90.1035Z" fill="#EFEFEF"/>
</g>
</g>
</g>
<g opacity="0.25">
<g opacity="0.25">
<g opacity="0.25">
<path opacity="0.25" d="M119.041 86.5974H112.714V87.733H119.041V86.5974Z" fill="#EFEFEF"/>
</g>
</g>
</g>
</g>
<g opacity="0.25">
<g opacity="0.25">
<g opacity="0.25">
<g opacity="0.25">
<path opacity="0.25" d="M123.902 85.731H121.906V87.7329H123.902V85.731Z" fill="#B1AFFD"/>
</g>
</g>
</g>
<g opacity="0.25">
<g opacity="0.25">
<g opacity="0.25">
<path opacity="0.25" d="M123.902 89.2373H121.906V91.2392H123.902V89.2373Z" fill="#FCA70C"/>
</g>
</g>
</g>
<g opacity="0.25">
<g opacity="0.25">
<g opacity="0.25">
<path opacity="0.25" d="M130.777 90.1035H124.451V91.2391H130.777V90.1035Z" fill="#EFEFEF"/>
</g>
</g>
</g>
<g opacity="0.25">
<g opacity="0.25">
<g opacity="0.25">
<path opacity="0.25" d="M130.777 86.5974H124.451V87.733H130.777V86.5974Z" fill="#EFEFEF"/>
</g>
</g>
</g>
</g>
<g opacity="0.25">
<g opacity="0.25">
<g opacity="0.25">
<g opacity="0.25">
<path opacity="0.25" d="M134.471 85.731H132.475V87.7329H134.471V85.731Z" fill="#B1AFFD"/>
</g>
</g>
</g>
<g opacity="0.25">
<g opacity="0.25">
<g opacity="0.25">
<path opacity="0.25" d="M134.471 89.2373H132.475V91.2392H134.471V89.2373Z" fill="#FCA70C"/>
</g>
</g>
</g>
<g opacity="0.25">
<g opacity="0.25">
<g opacity="0.25">
<path opacity="0.25" d="M139.187 90.1035H135.026V91.2391H139.187V90.1035Z" fill="#EFEFEF"/>
</g>
</g>
</g>
<g opacity="0.25">
<g opacity="0.25">
<g opacity="0.25">
<path opacity="0.25" d="M139.187 86.5974H135.026V87.733H139.187V86.5974Z" fill="#EFEFEF"/>
</g>
</g>
</g>
</g>
<g opacity="0.25">
<g opacity="0.25">
<g opacity="0.25">
<g opacity="0.25">
<path opacity="0.25" d="M139.187 66.6016H110.543V67.1225H139.187V66.6016Z" fill="#EFEFEF"/>
</g>
</g>
</g>
<g opacity="0.25">
<g opacity="0.25">
<g opacity="0.25">
<path opacity="0.25" d="M139.187 60.1919H81.6889V61.386H139.187V60.1919Z" fill="#EFEFEF"/>
</g>
</g>
</g>
<g opacity="0.25">
<g opacity="0.25">
<g opacity="0.25">
<path opacity="0.25" d="M139.187 68.2229H110.455V68.7439H139.187V68.2229Z" fill="#EFEFEF"/>
</g>
</g>
</g>
<g opacity="0.25">
<g opacity="0.25">
<g opacity="0.25">
<path opacity="0.25" d="M139.187 64.9741H110.455V65.4951H139.187V64.9741Z" fill="#EFEFEF"/>
</g>
</g>
</g>
<g opacity="0.25">
<g opacity="0.25">
<g opacity="0.25">
<path opacity="0.25" d="M139.187 69.8503H110.455V70.3713H139.187V69.8503Z" fill="#EFEFEF"/>
</g>
</g>
</g>
<g opacity="0.25">
<g opacity="0.25">
<g opacity="0.25">
<path opacity="0.25" d="M139.187 71.4775H110.455V71.9985H139.187V71.4775Z" fill="#EFEFEF"/>
</g>
</g>
</g>
<g opacity="0.25">
<g opacity="0.25">
<g opacity="0.25">
<path opacity="0.25" d="M139.187 73.0989H110.455V73.6199H139.187V73.0989Z" fill="#EFEFEF"/>
</g>
</g>
</g>
<g opacity="0.25">
<g opacity="0.25">
<g opacity="0.25">
<path opacity="0.25" d="M139.187 74.7263H110.455V75.2473H139.187V74.7263Z" fill="#EFEFEF"/>
</g>
</g>
</g>
<g opacity="0.25">
<g opacity="0.25">
<g opacity="0.25">
<path opacity="0.25" d="M139.187 76.3477H110.455V76.8686H139.187V76.3477Z" fill="#EFEFEF"/>
</g>
</g>
</g>
<g opacity="0.25">
<g opacity="0.25">
<g opacity="0.25">
<path opacity="0.25" d="M139.187 77.9749H110.455V78.4958H139.187V77.9749Z" fill="#EFEFEF"/>
</g>
</g>
</g>
<g opacity="0.25">
<g opacity="0.25">
<g opacity="0.25">
<path opacity="0.25" d="M139.187 79.5964H113.975V80.1174H139.187V79.5964Z" fill="#EFEFEF"/>
</g>
</g>
</g>
</g>
</g>
<path opacity="0.25" d="M141.072 53.3843H80.189C78.5724 53.3843 77.2651 54.6955 77.2651 56.3169V58.8808H143.996V56.3169C143.996 54.7013 142.689 53.3843 141.072 53.3843Z" fill="#7A7AE5"/>
<path opacity="0.25" d="M135.417 56.235C135.417 56.7033 135.038 57.0779 134.577 57.0779C134.11 57.0779 133.736 56.6974 133.736 56.235C133.736 55.7667 134.115 55.3921 134.577 55.3921C135.038 55.3921 135.417 55.7726 135.417 56.235Z" fill="#CFCFFF"/>
<path opacity="0.25" d="M138.008 57.0779C138.472 57.0779 138.848 56.7005 138.848 56.235C138.848 55.7695 138.472 55.3921 138.008 55.3921C137.544 55.3921 137.168 55.7695 137.168 56.235C137.168 56.7005 137.544 57.0779 138.008 57.0779Z" fill="#CFCFFF"/>
<path opacity="0.25" d="M141.446 57.0779C141.91 57.0779 142.286 56.7005 142.286 56.235C142.286 55.7695 141.91 55.3921 141.446 55.3921C140.982 55.3921 140.605 55.7695 140.605 56.235C140.605 56.7005 140.982 57.0779 141.446 57.0779Z" fill="#CFCFFF"/>
</g>
<path d="M123.348 108.326H62.4646C60.848 108.326 59.5407 107.015 59.5407 105.393V66.2739C59.5407 64.6525 60.848 63.3413 62.4646 63.3413H123.348C124.964 63.3413 126.272 64.6525 126.272 66.2739V105.393C126.272 107.015 124.964 108.326 123.348 108.326Z" fill="#E0E0E0"/>
<path d="M124.702 106.576H63.8187C62.2021 106.576 60.8948 105.264 60.8948 103.643V64.5237C60.8948 62.9023 62.2021 61.5911 63.8187 61.5911H124.702C126.318 61.5911 127.626 62.9023 127.626 64.5237V103.643C127.626 105.259 126.318 106.576 124.702 106.576Z" fill="white"/>
<path d="M70.1451 94.447H67.2386V101.764H70.1451V94.447Z" fill="#FCC70C"/>
<path d="M76.6934 88.0256H73.787V101.77H76.6934V88.0256Z" fill="#1246AD"/>
<path d="M83.2415 89.4421H80.3351V101.764H83.2415V89.4421Z" fill="#FCC70C"/>
<path d="M89.7955 82.4883H86.8891V101.77H89.7955V82.4883Z" fill="#1246AD"/>
<g opacity="0.15">
<g opacity="0.15">
<g opacity="0.15">
<path opacity="0.26" d="M75.1235 88.0256H73.787V101.77H75.1235V88.0256Z" fill="black"/>
</g>
</g>
</g>
<g opacity="0.15">
<g opacity="0.15">
<g opacity="0.15">
<path opacity="0.26" d="M68.5751 94.447H67.2386V101.764H68.5751V94.447Z" fill="black"/>
</g>
</g>
</g>
<g opacity="0.62">
<g opacity="0.62">
<g opacity="0.62">
<path opacity="0.26" d="M88.2256 82.4883H86.8891V101.77H88.2256V82.4883Z" fill="black"/>
</g>
</g>
</g>
<g opacity="0.15">
<g opacity="0.15">
<g opacity="0.15">
<path opacity="0.26" d="M81.6716 89.4421H80.3351V101.764H81.6716V89.4421Z" fill="black"/>
</g>
</g>
</g>
<path d="M91.3304 103.783H65.3186V78.4844H65.7154V103.385H91.3304V103.783Z" fill="#BDBDBD"/>
<path d="M68.1408 90.888C68.0583 90.9623 67.9313 90.9556 67.8571 90.8731C67.7831 90.7908 67.7897 90.6639 67.8721 90.5898L74.1468 84.9387C74.3861 84.7231 74.7146 84.6361 75.0292 84.7047L80.2618 85.8467C80.6137 85.9235 80.9796 85.8052 81.2199 85.537L87.5276 78.4967C87.6005 78.4153 87.7255 78.4081 87.8073 78.4805C87.8899 78.5536 87.8972 78.6798 87.8237 78.762L81.3657 85.9757C81.1255 86.2441 80.7595 86.3625 80.4075 86.2857L75.146 85.1379C74.8313 85.0692 74.5028 85.1563 74.2635 85.3719L68.1408 90.888Z" fill="#828282"/>
<path d="M88.5655 79.3948C88.5317 79.5473 88.344 79.6039 88.2315 79.4955L86.8171 78.1328C86.7051 78.0248 86.7538 77.8359 86.904 77.7956L88.7299 77.3055C88.875 77.2666 89.0096 77.3954 88.977 77.542L88.5655 79.3948Z" fill="#828282"/>
<path d="M93.7933 94.9328C93.7933 95.484 94.2401 95.9338 94.7913 95.9338C95.3424 95.9338 95.7893 95.484 95.7893 94.9328C95.7893 94.3817 95.3424 93.9319 94.7913 93.9319C94.2401 93.9319 93.7933 94.3817 93.7933 94.9328Z" fill="#1246AD"/>
<path d="M93.7933 98.4392C93.7933 98.9904 94.2401 99.4401 94.7913 99.4401C95.3424 99.4401 95.7893 98.9904 95.7893 98.4392C95.7893 97.888 95.3424 97.4382 94.7913 97.4382C94.2401 97.4382 93.7933 97.888 93.7933 98.4392Z" fill="#FCC70C"/>
<path d="M102.102 98.3044H96.9114C96.5978 98.3044 96.3436 98.5587 96.3436 98.8722C96.3436 99.1858 96.5978 99.44 96.9114 99.44H102.102C102.416 99.44 102.67 99.1858 102.67 98.8722C102.67 98.5587 102.416 98.3044 102.102 98.3044Z" fill="#BDBDBD"/>
<path d="M102.102 94.7925H96.9114C96.5978 94.7925 96.3436 95.0467 96.3436 95.3603C96.3436 95.6739 96.5978 95.9281 96.9114 95.9281H102.102C102.416 95.9281 102.67 95.6739 102.67 95.3603C102.67 95.0467 102.416 94.7925 102.102 94.7925Z" fill="#BDBDBD"/>
<path d="M105.536 94.9328C105.536 95.484 105.982 95.9338 106.534 95.9338C107.085 95.9338 107.532 95.484 107.532 94.9328C107.532 94.3817 107.085 93.9319 106.534 93.9319C105.982 93.9319 105.536 94.3817 105.536 94.9328Z" fill="#1246AD"/>
<path d="M105.536 98.4392C105.536 98.9904 105.982 99.4401 106.534 99.4401C107.085 99.4401 107.532 98.9904 107.532 98.4392C107.532 97.888 107.085 97.4382 106.534 97.4382C105.982 97.4382 105.536 97.888 105.536 98.4392Z" fill="#FCC70C"/>
<path d="M113.839 98.3044H108.648C108.334 98.3044 108.08 98.5587 108.08 98.8722C108.08 99.1858 108.334 99.44 108.648 99.44H113.839C114.152 99.44 114.407 99.1858 114.407 98.8722C114.407 98.5587 114.152 98.3044 113.839 98.3044Z" fill="#BDBDBD"/>
<path d="M113.839 94.7925H108.648C108.334 94.7925 108.08 95.0467 108.08 95.3603C108.08 95.6739 108.334 95.9281 108.648 95.9281H113.839C114.152 95.9281 114.407 95.6739 114.407 95.3603C114.407 95.0467 114.152 94.7925 113.839 94.7925Z" fill="#BDBDBD"/>
<path d="M116.105 94.9328C116.105 95.484 116.552 95.9338 117.103 95.9338C117.654 95.9338 118.101 95.484 118.101 94.9328C118.101 94.3817 117.654 93.9319 117.103 93.9319C116.552 93.9319 116.105 94.3817 116.105 94.9328Z" fill="#1246AD"/>
<path d="M116.105 98.4392C116.105 98.9904 116.552 99.4401 117.103 99.4401C117.654 99.4401 118.101 98.9904 118.101 98.4392C118.101 97.888 117.654 97.4382 117.103 97.4382C116.552 97.4382 116.105 97.888 116.105 98.4392Z" fill="#FCC70C"/>
<path d="M122.243 98.3044H119.217C118.904 98.3044 118.65 98.5587 118.65 98.8722C118.65 99.1858 118.904 99.44 119.217 99.44H122.243C122.557 99.44 122.811 99.1858 122.811 98.8722C122.811 98.5587 122.557 98.3044 122.243 98.3044Z" fill="#BDBDBD"/>
<path d="M122.243 94.7925H119.217C118.904 94.7925 118.65 95.0467 118.65 95.3603C118.65 95.6739 118.904 95.9281 119.217 95.9281H122.243C122.557 95.9281 122.811 95.6739 122.811 95.3603C122.811 95.0467 122.557 94.7925 122.243 94.7925Z" fill="#BDBDBD"/>
<path d="M122.55 74.8025H94.4272C94.2833 74.8025 94.1667 74.9191 94.1667 75.063C94.1667 75.2068 94.2833 75.3235 94.4272 75.3235H122.55C122.694 75.3235 122.811 75.2068 122.811 75.063C122.811 74.9191 122.694 74.8025 122.55 74.8025Z" fill="#E0E0E0"/>
<path d="M122.22 68.387H65.9156C65.5859 68.387 65.3186 68.6543 65.3186 68.984C65.3186 69.3138 65.5859 69.5811 65.9156 69.5811H122.22C122.549 69.5811 122.817 69.3138 122.817 68.984C122.817 68.6543 122.549 68.387 122.22 68.387Z" fill="#BDBDBD"/>
<path d="M122.556 76.4238H94.3456C94.2017 76.4238 94.0851 76.5405 94.0851 76.6843C94.0851 76.8282 94.2017 76.9448 94.3456 76.9448H122.556C122.7 76.9448 122.817 76.8282 122.817 76.6843C122.817 76.5405 122.7 76.4238 122.556 76.4238Z" fill="#E0E0E0"/>
<path d="M122.556 73.175H94.3456C94.2017 73.175 94.0851 73.2917 94.0851 73.4355C94.0851 73.5794 94.2017 73.696 94.3456 73.696H122.556C122.7 73.696 122.817 73.5794 122.817 73.4355C122.817 73.2917 122.7 73.175 122.556 73.175Z" fill="#E0E0E0"/>
<path d="M122.556 78.0513H94.3456C94.2017 78.0513 94.0851 78.1679 94.0851 78.3118C94.0851 78.4556 94.2017 78.5722 94.3456 78.5722H122.556C122.7 78.5722 122.817 78.4556 122.817 78.3118C122.817 78.1679 122.7 78.0513 122.556 78.0513Z" fill="#E0E0E0"/>
<path d="M122.556 79.6726H94.3456C94.2017 79.6726 94.0851 79.7892 94.0851 79.9331C94.0851 80.0769 94.2017 80.1936 94.3456 80.1936H122.556C122.7 80.1936 122.817 80.0769 122.817 79.9331C122.817 79.7892 122.7 79.6726 122.556 79.6726Z" fill="#E0E0E0"/>
<path d="M122.556 81.2998H94.3456C94.2017 81.2998 94.0851 81.4164 94.0851 81.5603C94.0851 81.7042 94.2017 81.8208 94.3456 81.8208H122.556C122.7 81.8208 122.817 81.7042 122.817 81.5603C122.817 81.4164 122.7 81.2998 122.556 81.2998Z" fill="#E0E0E0"/>
<path d="M122.556 82.9214H94.3456C94.2017 82.9214 94.0851 83.038 94.0851 83.1819C94.0851 83.3257 94.2017 83.4424 94.3456 83.4424H122.556C122.7 83.4424 122.817 83.3257 122.817 83.1819C122.817 83.038 122.7 82.9214 122.556 82.9214Z" fill="#E0E0E0"/>
<path d="M122.556 84.5486H94.3456C94.2017 84.5486 94.0851 84.6652 94.0851 84.8091C94.0851 84.9529 94.2017 85.0695 94.3456 85.0695H122.556C122.7 85.0695 122.817 84.9529 122.817 84.8091C122.817 84.6652 122.7 84.5486 122.556 84.5486Z" fill="#E0E0E0"/>
<path d="M122.556 86.1699H94.3456C94.2017 86.1699 94.0851 86.2865 94.0851 86.4304C94.0851 86.5743 94.2017 86.6909 94.3456 86.6909H122.556C122.7 86.6909 122.817 86.5743 122.817 86.4304C122.817 86.2865 122.7 86.1699 122.556 86.1699Z" fill="#E0E0E0"/>
<path d="M122.55 87.7974H97.8589C97.715 87.7974 97.5984 87.914 97.5984 88.0578C97.5984 88.2017 97.715 88.3183 97.8589 88.3183H122.55C122.694 88.3183 122.811 88.2017 122.811 88.0578C122.811 87.914 122.694 87.7974 122.55 87.7974Z" fill="#E0E0E0"/>
<path opacity="0.8" d="M124.702 61.5852H63.8187C62.2021 61.5852 60.8948 62.8964 60.8948 64.5178V67.0817H127.626V64.5178C127.626 62.8964 126.318 61.5852 124.702 61.5852Z" fill="#1663BA"/>
<path d="M119.041 64.4359C119.041 64.9042 118.661 65.2788 118.2 65.2788C117.739 65.2788 117.36 64.8984 117.36 64.4359C117.36 63.9735 117.739 63.593 118.2 63.593C118.661 63.593 119.041 63.9676 119.041 64.4359Z" fill="white"/>
<path d="M122.478 64.4359C122.478 64.9042 122.099 65.2788 121.638 65.2788C121.171 65.2788 120.797 64.8984 120.797 64.4359C120.797 63.9735 121.177 63.593 121.638 63.593C122.099 63.593 122.478 63.9676 122.478 64.4359Z" fill="white"/>
<path d="M125.916 64.4359C125.916 64.9042 125.536 65.2788 125.075 65.2788C124.608 65.2788 124.235 64.8984 124.235 64.4359C124.235 63.9735 124.614 63.593 125.075 63.593C125.536 63.593 125.916 63.9676 125.916 64.4359Z" fill="white"/>
<path opacity="0.35" d="M147.223 46.3894H131.6C131.705 51.4703 131.793 56.557 131.857 61.6379C131.868 62.4164 131.857 63.2183 131.577 63.9383C131.565 63.9383 131.553 63.9383 131.553 63.9383C131.349 63.9266 131.437 63.991 131.366 64.3656C131.366 64.3715 131.361 64.3773 131.361 64.3832C130.73 65.4193 129.493 65.9812 128.297 66.2505C128.285 66.3149 128.297 66.3676 128.314 66.4202C128.174 66.5432 128.11 66.7012 128.192 66.8944C128.262 67.0641 129.16 67.2924 130.38 67.1636C130.73 67.1285 131.413 66.9353 131.734 66.789C131.927 66.7012 132.096 66.5666 132.23 66.4495C132.388 66.4319 132.545 66.3968 132.685 66.3383L132.732 66.3851L134.133 65.7763C134.133 65.7763 133.981 64.8925 133.859 64.43C133.835 64.3422 133.8 64.272 133.765 64.2134C134.932 61.0291 135.86 57.7628 136.508 54.4322C136.251 58.5589 134.775 66.9471 134.664 67.2339C134.477 67.7197 133.835 68.4046 132.884 68.4865C132.551 68.5158 130.923 68.4221 131.098 69.1714C131.139 69.3529 131.985 69.7333 133.211 69.8153C133.561 69.8387 134.267 69.7685 134.611 69.6807C135.067 69.5577 135.481 69.2065 135.481 69.2065L135.668 69.4582L137.15 69.1012C137.15 69.1012 137.15 68.7148 137.138 68.2465C137.127 67.7783 136.823 67.3392 136.823 67.3392L136.847 66.4963L137.67 66.3968C137.67 66.3968 139.321 61.0408 140.103 59.2204C140.424 58.4711 140.786 57.7277 140.99 56.9375C141.23 56.0068 141.253 55.0409 141.329 54.081C141.469 52.3366 141.79 50.604 142.286 48.9298C142.315 48.8245 142.35 48.7133 142.426 48.6313C142.554 48.485 142.77 48.4616 142.969 48.444C145.07 48.2508 146.033 48.6079 147.346 48.1981C149.079 47.6596 149.26 46.8694 149.348 46.8343C148.7 46.5416 147.976 46.3894 147.223 46.3894Z" fill="#1246AD"/>
<g opacity="0.35">
<path opacity="0.35" d="M153.001 81.4697V63.2944C150.299 66.8417 147.626 70.0202 144.924 73.5733C143.751 75.1128 139.158 80.2112 142.292 82.2599C143.091 82.7809 144.486 82.7575 145.181 82.8102C147.679 82.9858 150.159 82.2951 152.587 81.6043C152.721 81.5575 152.861 81.5165 153.001 81.4697Z" fill="#5851BC"/>
</g>
<path opacity="0.35" d="M153.001 85.3799L151.496 85.497L151.466 85.4092L150.293 85.5028L149.943 84.5019C149.745 83.9341 149.079 83.5126 148.467 83.5595C147.854 83.6121 147.515 84.1097 147.72 84.6833C147.778 84.8589 147.953 85.3389 148.07 85.6726L146.838 85.7662L146.862 85.854L144.323 86.0531C143.92 86.0531 143.331 86.574 143.459 86.937L143.482 86.9896C143.488 87.0189 143.482 87.0482 143.494 87.0833L145.689 93.2939L145.63 119.459H148.175L152.995 100.664V85.3799H153.001ZM149.038 85.1867C148.694 85.216 148.321 84.976 148.21 84.6599C148.099 84.338 148.286 84.057 148.63 84.0277C148.974 83.9985 149.348 84.2385 149.459 84.5546C149.575 84.8765 149.383 85.1575 149.038 85.1867Z" fill="#5851BC"/>
<path opacity="0.35" d="M58.0291 80.5975C57.463 81.2239 56.7919 82.5585 56.5234 83.1321C56.2374 83.6999 55.9281 84.0219 55.1169 84.4023C54.0022 84.9116 52.8058 85.4033 51.6619 85.854V88.8218C53.9963 87.4111 56.109 86.0999 56.144 86.0882C57.9299 86.773 59.4181 85.2862 59.8967 84.2092C60.1126 83.7292 59.7917 83.5302 59.7741 83.3019C59.7683 83.1848 59.9201 82.4882 59.8967 82.3946C59.7566 81.7682 58.0817 82.3185 58.2159 82.0199C58.2976 81.7917 58.496 81.259 58.9162 80.9722C59.7391 80.4102 60.3694 79.7839 60.3694 79.5498C60.3694 79.1459 58.2276 80.3868 58.0291 80.5975Z" fill="#5851BC"/>
<path d="M40.3338 68.2641C41.1158 69.6221 40.4388 71.4718 41.2325 72.824C41.5477 73.3625 42.0846 73.7898 42.2364 74.3986C42.3647 74.9078 42.1663 75.4873 41.7519 75.8151C41.3376 76.1429 40.7306 76.1956 40.2696 75.9498C40.1703 75.8971 40.077 75.8327 39.9661 75.7976C39.575 75.6805 39.2249 76.0317 38.8864 76.26C38.472 76.541 37.9351 76.6698 37.4623 76.5117C36.8554 76.3068 36.4819 75.6922 36.2776 75.0893C35.7115 73.3859 36.1142 71.5245 36.6336 69.8094C36.8962 68.9548 37.2814 68.0007 38.116 67.6904" fill="#170D54"/>
<path d="M58.5136 82.6874C58.5252 82.8747 58.8112 83.0386 58.6245 83.4366C58.1984 84.3205 56.8736 85.5498 55.292 84.982C55.222 85.0054 46.5436 90.0395 45.8724 90.0395C45.2013 90.0395 40.649 85.7137 39.155 80.3635C38.799 79.0875 38.939 77.5831 40.1296 76.9392C40.1296 76.9392 41.1218 77.1792 41.7696 78.4026C42.7559 80.2699 45.709 86.4571 46.3685 86.6912C47.1856 86.1468 51.16 84.9586 54.3816 83.5888C55.0994 83.2728 55.3737 83.0093 55.6305 82.5411C55.8698 82.0669 56.4651 80.9665 56.967 80.4513C57.1421 80.2757 59.0447 79.2514 59.0447 79.585C59.0447 79.7782 58.4844 80.2933 57.7549 80.7557C57.3814 80.9957 57.2063 81.4347 57.1362 81.622C57.0137 81.8679 58.5019 81.4172 58.6245 81.9323C58.6478 82.0142 58.5077 82.5879 58.5136 82.6874Z" fill="#FFB9B0"/>
<path d="M39.7854 76.7869C40.9118 77.0503 41.8397 77.7761 42.3767 78.8005C42.5167 79.0639 42.6218 79.339 42.7327 79.6141C43.1937 80.7965 43.8299 81.8619 44.2909 83.0385C43.6606 83.5477 42.8961 83.7877 42.2483 84.0277C41.6471 84.256 40.9876 84.3438 40.3457 84.2853C40.2348 84.2736 40.1239 84.2618 40.0247 84.215C39.8904 84.1506 39.7912 84.0394 39.692 83.9282C39.4936 83.6999 39.301 83.4658 39.1142 83.2316C38.9508 83.0267 38.7932 82.816 38.729 82.5643C38.6357 82.2248 38.729 81.8677 38.8224 81.5282" fill="#AF4545"/>
<g opacity="0.35">
<path opacity="0.35" d="M40.9233 80.0064C40.8825 79.9537 40.8358 79.901 40.7774 79.8776C40.6607 79.8308 40.5265 79.9069 40.4681 80.0181C40.4039 80.1293 40.4039 80.2581 40.4039 80.381C40.4097 80.861 40.4856 81.3351 40.6257 81.7917L40.4798 84.2794C40.4798 84.2794 40.4798 84.2853 40.4856 84.2853C41.0867 84.3204 41.6995 84.2385 42.2656 84.0277C42.5341 83.9282 42.8259 83.8229 43.1177 83.7058C42.8026 82.301 41.8513 81.1185 40.9233 80.0064Z" fill="#7762EF"/>
</g>
<path d="M37.0774 74.3108C37.0774 74.3108 37.0424 75.8679 37.2817 75.9732C37.7544 76.1781 38.2855 76.2835 38.2855 76.2835L38.303 79.5088L34.0192 78.859L31.072 77.2142C31.072 77.2142 34.136 76.1957 34.1651 75.8913C34.1943 75.5869 33.9959 73.8601 33.9959 73.8601" fill="#FFB9B0"/>
<path d="M30.4883 120.969C30.4883 120.975 30.4883 120.975 30.4883 120.981C29.3153 126.56 29.8755 134.216 29.6129 138.413C29.6771 138.431 31.2062 138.624 31.2062 138.624C31.2062 138.624 34.8305 120.928 35.4899 117.539C35.5366 117.305 35.5658 117.083 35.5716 116.884C35.7292 114.331 33.4414 114.203 32.1458 116.31C31.9299 116.655 31.7314 117.036 31.5564 117.446C31.4863 117.609 31.4163 117.779 31.3463 117.961V117.967C31.1303 118.517 30.9436 119.114 30.7802 119.746L30.7685 119.81C30.716 119.986 30.6693 120.167 30.6284 120.349L30.6226 120.39C30.57 120.583 30.5292 120.776 30.4883 120.969Z" fill="#FFB9B0"/>
<path d="M37.3575 100.956C37.3167 101.419 37.0715 103.614 36.7739 106.201C36.5229 108.379 36.2486 110.831 36.0327 112.775C35.8751 114.232 35.7584 115.397 35.7059 115.941C35.6825 116.281 35.6358 116.585 35.5775 116.884V116.895C35.023 119.442 33.2722 119.588 32.2042 118.997C32.0583 118.921 31.9182 118.821 31.8015 118.722C31.5563 118.499 31.3929 118.23 31.3462 117.972V117.967C31.2762 117.446 31.212 116.732 31.1478 115.883V115.871C31.142 115.865 31.142 115.865 31.142 115.859L31.1361 115.842C31.0077 114.185 30.8969 112.06 30.7976 109.988C30.6809 107.442 30.605 104.989 30.5875 103.602C30.5817 103.52 30.5817 103.45 30.5759 103.374C30.5584 99.1299 34.4453 96.408 36.8614 97.7251C36.8906 97.7368 36.914 97.7485 36.949 97.766C36.984 97.7894 37.019 97.807 37.0424 97.8187C37.3167 98.006 37.41 98.6382 37.4159 99.364C37.4275 99.8967 37.3925 100.476 37.3575 100.956Z" fill="#FFB9B0"/>
<path d="M31.4397 116.972L31.1421 115.859C31.1421 115.865 31.1421 115.865 31.1421 115.871C31.1479 116.123 31.1771 117.914 30.7744 119.752L30.7627 119.816C30.7219 119.992 30.6752 120.179 30.6227 120.355L30.6168 120.396C30.5351 120.689 30.4943 120.876 30.4943 120.964C30.4943 120.97 30.4943 120.97 30.4943 120.975C30.4885 121.479 31.5623 119.243 31.8074 118.716C31.8366 118.652 31.8541 118.611 31.8541 118.611L31.5623 117.446L31.4397 116.972Z" fill="#FFB9B0"/>
<path d="M39.8145 122.035C39.8145 122.041 39.8145 122.041 39.8145 122.046C39.7036 127.882 41.5012 134.749 41.9739 138.993C42.0323 138.993 43.4446 138.805 43.4446 138.805C43.4446 138.805 43.7131 120.917 43.7306 117.381C43.7306 117.135 43.7189 116.907 43.6956 116.708C43.4038 114.133 41.3261 114.572 40.5207 116.995C40.3865 117.393 40.2756 117.82 40.1822 118.271C40.1472 118.452 40.1122 118.64 40.0771 118.833V118.839C39.9779 119.442 39.9079 120.08 39.867 120.753V120.823C39.8495 121.016 39.8379 121.204 39.832 121.397V121.438C39.8262 121.631 39.8204 121.83 39.8145 122.035Z" fill="#FFB9B0"/>
<path d="M41.0226 119.652C40.8708 119.611 40.7366 119.547 40.614 119.471C40.3514 119.313 40.153 119.09 40.0771 118.839V118.833C39.9254 118.329 39.7445 117.627 39.5402 116.796C39.5344 116.79 39.5344 116.79 39.5344 116.784L39.5285 116.761C39.1375 115.151 38.6706 113.061 38.2329 111.024C37.696 108.519 37.2174 106.096 36.9664 104.72C36.9489 104.644 36.733 103.643 36.7155 103.573C35.9685 99.3054 39.2834 96.5308 41.6937 97.3445C41.7288 97.3562 41.7579 97.3679 41.7871 97.3796C42.2715 97.5728 42.4058 99.282 42.5166 100.441C42.6275 101.594 43.4446 113.57 43.6489 115.736C43.6839 116.082 43.6956 116.404 43.6897 116.708C43.643 119.383 42.0848 119.974 41.0226 119.652Z" fill="#FFB9B0"/>
<path d="M39.9954 117.82L39.5401 116.79C39.5401 116.796 39.5401 116.796 39.546 116.802C39.5927 117.048 39.9253 118.827 39.8728 120.753V120.823C39.867 121.01 39.8553 121.204 39.8378 121.397V121.438C39.8144 121.754 39.8086 121.941 39.8203 122.035C39.8203 122.041 39.8203 122.041 39.8203 122.047C39.902 122.55 40.4856 120.056 40.6198 119.477C40.6373 119.401 40.649 119.36 40.649 119.36L40.1938 118.271L39.9954 117.82Z" fill="#FFB9B0"/>
<path d="M32.6011 92.7612C32.6011 92.7612 29.4787 96.7358 29.7997 100.734C29.9339 102.396 30.1382 103.865 30.325 105.534C30.3541 105.774 30.7277 109.292 30.6226 109.292C30.6226 109.292 37.0541 111.288 43.2696 108.671C43.2696 108.244 43.7657 100.066 40.4099 92.2695C36.3596 92.849 32.6011 92.7612 32.6011 92.7612Z" fill="#170D54"/>
<path d="M42.3767 83.583C42.3534 84.7244 41.7464 85.4151 40.8826 86.3751C40.7718 86.5449 40.5033 89.0853 40.4099 90.7711C40.3632 91.6492 40.7367 92.1994 40.4099 92.2755C39.161 93.3642 34.6671 94.254 32.6011 92.7613C32.817 90.9233 32 86.8785 31.4455 84.8239C31.358 84.5078 31.2821 84.2386 31.2121 84.0337C30.6985 82.4708 29.7647 77.4602 30.4534 77.2436C30.5935 77.2026 30.8036 77.1441 31.0487 77.068C32.1284 76.7402 33.7217 76.1841 33.7217 76.1841C33.7217 76.1841 34.6554 78.9587 37.0833 79.2923C38.4081 78.7421 38.2914 77.0621 38.2739 76.2894C38.7058 76.4124 38.8983 76.5294 40.2407 76.9275C40.62 77.4719 40.2932 78.6075 40.9002 80.305C41.0636 80.7206 42.4059 82.1957 42.3767 83.583Z" fill="#AF4545"/>
<path d="M40.1762 67.9482C40.1762 67.9482 40.4213 70.9627 39.9077 72.5373C39.5283 73.708 37.9701 74.7968 36.6686 74.7851C33.0852 74.7851 32.4374 69.8974 32.4607 69.6632C32.4783 69.4291 37.7483 67.3745 37.7483 67.3745L40.1762 67.9482Z" fill="#FFB9B0"/>
<path d="M47.0045 140.678C45.7264 140.907 44.3666 140.55 43.8063 140.643C43.3452 140.719 42.1547 141.024 41.7111 140.626C41.2676 140.228 41.3376 138.811 41.8512 138.624C41.8512 138.624 41.9679 138.671 42.1838 138.706C42.5048 138.753 43.0301 138.776 43.6954 138.583C44.6642 138.981 44.7051 139.156 45.8081 139.385C46.2867 139.484 46.847 139.642 47.2146 139.812C47.6874 140.029 47.7224 140.55 47.0045 140.678Z" fill="#AF4545"/>
<path d="M33.2254 141.246C31.9472 141.03 31.136 140.321 30.5757 140.222C30.1147 140.14 28.9533 139.912 28.8307 139.432C28.7373 139.074 29.0933 137.599 29.6361 137.594C29.6361 137.594 29.7295 137.675 29.9221 137.781C30.2081 137.933 30.6983 138.138 31.387 138.179C32.169 138.887 32.1398 139.063 33.1028 139.648C33.523 139.906 33.9957 140.245 34.2817 140.526C34.6552 140.895 33.949 141.363 33.2254 141.246Z" fill="#AF4545"/>
<path d="M14.5905 81.4346L15.7635 80.0356L22.9304 86.4628C22.9304 86.4628 26.4262 81.7917 27.3892 80.3342C28.4455 78.7303 29.4027 77.3606 30.9493 77.0913C31.3053 77.3137 30.8267 83.0678 30.6399 83.2083C28.4806 84.8297 24.2727 90.0628 22.9362 90.332C21.3896 90.6423 14.5905 81.4346 14.5905 81.4346Z" fill="#FFB9B0"/>
<path d="M31.4803 76.8279C31.4803 76.8279 30.0154 76.8454 29.3851 77.3664C28.7548 77.8874 25.7492 82.6639 25.7492 82.6639C25.7492 82.6639 25.6733 83.5653 26.5371 84.3263C27.465 85.1341 28.7023 85.2687 28.7023 85.2687C28.7023 85.2687 30.2139 83.7643 31.0601 83.0795C31.5912 82.6522 31.6437 83.7117 31.6437 83.7117L34.305 81.1068L31.4803 76.8279Z" fill="#AF4545"/>
<path d="M30.5934 76.8864C30.5117 76.8455 30.4358 76.7986 30.3599 76.7518C29.9514 76.506 29.5721 76.2484 29.397 75.7801C29.146 75.107 29.0293 74.0709 29.3795 73.4153C29.6129 72.9704 30.0565 72.6836 30.3658 72.2855C30.786 71.7353 30.9085 71.0153 30.9436 70.3188C30.9786 69.628 30.9377 68.9256 31.0836 68.2466C31.3346 67.0876 31.6614 65.9813 32.5543 65.232C33.9842 64.032 36.8439 63.3238 38.4022 64.6584C38.6882 64.9042 38.7407 65.0974 39.1259 65.1325C39.6395 65.1852 39.9721 65.2496 40.4332 65.513C40.9468 65.8115 41.5654 66.2271 41.4895 66.9003C41.437 67.3686 40.9118 68.1003 40.5149 68.3227C40.3456 68.4164 40.1531 68.4456 39.9663 68.4456C39.3593 68.4573 38.8574 68.0593 38.2621 68.1237C37.9703 68.1529 37.696 68.311 37.5151 68.5393C37.2992 68.8027 37.3283 69.1773 37.0774 69.4232C36.6747 69.8212 36.0502 69.7861 35.5775 70.0495C35.4958 70.0905 35.4199 70.1431 35.3732 70.2192C35.3265 70.2953 35.3265 70.389 35.3207 70.4768C35.309 70.7285 35.3032 70.9802 35.2915 71.2319C35.0581 71.1265 35.0289 70.7929 34.8363 70.6231C34.6495 70.4592 34.3402 70.5061 34.1535 70.67C33.9667 70.8339 33.8733 71.0797 33.8266 71.3256C33.7683 71.6182 33.8675 71.9285 33.9609 72.227C34.1184 72.7421 34.5562 73.1987 34.9063 72.8651C35.1631 73.2455 34.883 73.8777 34.8713 74.305C34.8655 74.6445 34.8713 75.3177 35.1865 75.5401C35.4783 75.745 35.9393 75.5869 35.9568 76.1196C35.9743 76.6055 35.4899 76.9801 35.0114 77.0386C34.5328 77.0972 34.0601 76.9274 33.599 76.7928C33.138 76.6523 32.6302 76.5469 32.1808 76.7225C31.9065 76.8279 31.6731 77.0328 31.3813 77.0796C31.1011 77.1206 30.8385 77.0211 30.5934 76.8864Z" fill="#170D54"/>
<path d="M17.5727 81.6628C17.5727 81.6628 15.886 80.3106 15.7751 79.936C15.6584 79.5672 15.6351 79.1692 15.495 78.8063C15.2907 78.2795 14.8472 77.858 14.3278 77.6414C13.9076 77.4658 14.1118 77.3253 13.6624 77.4131C12.9796 77.5478 12.6586 78.2151 12.3843 78.7419C11.2229 80.9779 14.4036 81.3994 14.5204 81.4053C14.7538 81.417 15.9386 82.7633 15.9386 82.7633" fill="#FFB9B0"/>
<path d="M12.5012 79.5146C12.4079 78.8648 12.5538 78.2444 12.9098 77.7761C13.0323 77.6122 13.1782 77.4717 13.3241 77.3312C13.3942 77.261 13.4701 77.1907 13.5751 77.1673C13.7385 77.1263 13.9428 77.1907 14.112 77.2902C14.2988 77.3956 14.4797 77.5478 14.5556 77.7293C14.6781 78.0336 14.468 78.2853 14.2288 78.4375C14.2054 78.4551 14.1762 78.4668 14.1704 78.4961C14.1587 78.537 14.1879 78.5897 14.2112 78.6366C14.3163 78.8239 14.4038 79.0287 14.3805 79.2161C14.3572 79.3975 14.1996 79.5497 13.9836 79.5146C13.8961 79.5029 13.7794 79.4678 13.7502 79.5321C13.7385 79.5556 13.7444 79.579 13.7502 79.6082C13.7735 79.7956 13.7268 79.9712 13.616 80.0941C13.5868 80.1234 13.5576 80.1526 13.5109 80.1643C13.4759 80.1702 13.435 80.1585 13.4 80.1468C13.2658 80.1058 13.1316 80.0473 13.0032 79.9712" fill="#FFB9B0"/>
<path d="M14.4674 70H9.53262C9.23846 70 9 70.2654 9 70.5928V78.4072C9 78.7346 9.23846 79 9.53262 79H14.4674C14.7615 79 15 78.7346 15 78.4072V70.5928C15 70.2654 14.7615 70 14.4674 70Z" fill="white"/>
<path d="M11.8225 71H10.1775C10.0795 71 10 71.059 10 71.1317V72.8683C10 72.941 10.0795 73 10.1775 73H11.8225C11.9205 73 12 72.941 12 72.8683V71.1317C12 71.059 11.9205 71 11.8225 71Z" fill="#E0E0E0"/>
<path d="M13.6449 74H10.3551C10.159 74 10 74.0295 10 74.0659V74.9341C10 74.9705 10.159 75 10.3551 75H13.6449C13.841 75 14 74.9705 14 74.9341V74.0659C14 74.0295 13.841 74 13.6449 74Z" fill="#E0E0E0"/>
<path d="M13.6449 76H10.3551C10.159 76 10 76.0295 10 76.0659V76.9341C10 76.9705 10.159 77 10.3551 77H13.6449C13.841 77 14 76.9705 14 76.9341V76.0659C14 76.0295 13.841 76 13.6449 76Z" fill="#E0E0E0"/>
<path d="M15.7636 80.0298C15.7228 79.7839 15.6352 79.3742 15.6236 79.1225C15.6002 78.4434 15.2384 77.7644 14.6489 77.4249C14.6022 77.3957 14.5439 77.3722 14.4913 77.3781C14.4213 77.3898 14.3746 77.46 14.3629 77.5303C14.3513 77.6005 14.3746 77.6708 14.3921 77.741C14.4622 77.9576 14.7656 78.3615 14.6723 78.5781C14.5322 78.9059 14.4213 79.2688 14.433 79.6317C14.4446 79.9537 14.5906 80.4746 14.9699 80.5273" fill="#FFB9B0"/>
<path d="M123.429 27.4298C123.429 27.4298 122.07 26.4698 122.023 26.066C121.976 25.6621 121.025 24.0231 120.721 23.7011C120.418 23.3733 118.825 22.8231 118.486 22.7704C118.148 22.7236 116.193 22.8875 116.438 23.1567C116.683 23.426 117.943 23.3265 118.188 23.4728C118.434 23.6192 118.434 23.6192 118.434 23.6192C118.434 23.6192 118.188 23.947 118.288 24.1518C118.387 24.3509 117.873 24.6611 118.066 25.0006C118.259 25.3401 117.99 25.3167 118.159 25.6738C118.445 26.2591 119.181 26.5869 119.373 26.4289C119.519 26.7742 120.079 27.4884 120.599 27.4357C121.124 27.3889 122.391 28.583 122.391 28.583" fill="#FFB9B0"/>
<path d="M144.165 20.5869C144.212 21.5001 144.148 23.0981 144.41 23.3322C144.673 23.5664 145.513 23.5312 145.513 23.5312C145.513 23.5312 142.496 27.3595 142.228 27.1487C141.959 26.938 138.387 24.0229 139.193 23.8708C139.992 23.7186 140.78 23.7537 140.757 23.3381C140.734 22.9225 140.71 22.5069 140.687 22.0913" fill="#FFB9B0"/>
<path d="M147.603 41.0216C147.603 41.0216 141.714 41.6947 140.36 41.7181C139.006 41.7474 139.07 41.0391 139.07 41.0391C139 39.5406 138.749 36.0168 138.469 34.8226C138.207 33.7046 138.09 33.2949 137.862 32.2354C137.355 29.8764 137.378 29.4315 136.841 26.5223L140.36 23.6892C140.36 23.6892 140.722 24.7721 142.199 24.7955C144.171 24.8189 144.784 23.4375 144.784 23.4375L149.581 26.6335L150.031 34.4012L149.459 40.7991" fill="#FCC70C"/>
<path d="M144.229 19.7557C144.124 20.2181 143.984 20.6688 143.815 21.1137C143.506 21.9215 143.045 22.2142 142.193 22.2376C141.592 22.2493 140.99 22.2669 140.389 22.2786C139.928 22.2903 139.356 22.3078 138.983 21.98C138.615 21.6581 138.603 21.1137 138.522 20.6688C138.417 20.101 138.329 19.5215 138.265 18.9479C138.136 17.8182 138.084 16.6826 138.107 15.547C138.113 15.3889 138.113 15.2367 138.148 15.0787C138.16 15.0143 138.183 14.9499 138.224 14.9089C138.282 14.8504 138.364 14.8387 138.44 14.827C139.566 14.6514 140.71 14.5753 141.848 14.6104C142.654 14.6338 143.506 14.7275 144.142 15.2192C144.784 15.7167 145.087 16.5245 145.362 17.2913C145.408 17.4143 145.438 17.5782 145.333 17.6543" fill="#FFB9B0"/>
<path d="M131.028 62.0827C131.028 62.0827 131.221 63.2592 131.378 63.6573C131.536 64.0612 132.849 63.6865 132.937 63.429C133.024 63.1714 132.522 61.2573 132.522 61.2573" fill="#ED9C80"/>
<path d="M133.392 63.7627C133.503 64.1959 133.649 65.0271 133.649 65.0271L132.335 65.6007L132.12 65.3959C132.12 65.3959 131.793 65.7939 131.39 65.9812C131.092 66.1217 130.445 66.2973 130.118 66.3324C128.974 66.4554 128.128 66.2388 128.058 66.0807C127.772 65.4134 129.295 65.2378 129.598 65.1559C130.468 64.9276 130.946 64.19 131.04 63.71C131.104 63.3588 131.022 63.3003 131.215 63.312C131.215 63.312 131.384 63.3003 131.542 63.4642C131.787 63.7159 132.149 63.8271 132.476 63.6808C132.662 63.5988 132.837 63.47 132.942 63.2944C132.942 63.2944 133.275 63.3296 133.392 63.7627Z" fill="#38287C"/>
<path d="M136.829 46.7348C134.775 47.1387 132.201 47.168 130.129 46.8929C130.421 47.7241 131.133 48.7953 131.402 49.9719C132.295 53.8469 132.604 59.0566 132.832 62.2819C132.832 62.2819 132.4 63.1072 131.028 62.4809C128.974 57.3883 125.385 47.0685 125.42 44.8324C125.46 41.9818 132.557 41.2969 137.751 40.5945" fill="#1C145E"/>
<path d="M145.887 41.0275C147.521 42.2275 136.829 46.7347 136.829 46.7347C135.645 46.9689 134.489 47.0742 133.322 47.0684C133.211 46.8577 133.106 46.6352 133.059 46.4011C132.995 46.0908 133.03 45.763 132.977 45.4528C132.872 44.844 132.435 44.3289 131.909 44.007C131.384 43.685 130.771 43.5387 130.164 43.4392C128.717 43.205 126.196 43.3689 126.196 43.3689C129.411 40.9924 135.989 40.6822 139.053 40.4832C139.631 41.4607 145.654 40.8519 145.887 41.0275Z" fill="#09052F"/>
<path d="M134.413 64.7929C134.413 64.7929 134.401 65.9812 134.489 66.4085C134.571 66.83 135.93 66.6953 136.059 66.4553C136.187 66.2153 136.024 64.2485 136.024 64.2485" fill="#ED9C80"/>
<path d="M136.456 66.8592C136.491 67.304 136.491 68.1469 136.491 68.1469L135.102 68.4806L134.927 68.2406C134.927 68.2406 134.536 68.5742 134.11 68.6855C133.789 68.7674 133.123 68.8318 132.796 68.8142C131.647 68.7381 130.853 68.3752 130.812 68.2113C130.649 67.5089 132.178 67.5967 132.487 67.5674C133.38 67.4913 133.981 66.8474 134.156 66.3909C134.285 66.0572 134.209 65.9811 134.396 66.028C134.396 66.028 134.565 66.0514 134.693 66.2387C134.892 66.5255 135.23 66.707 135.574 66.6133C135.773 66.5606 135.965 66.4728 136.1 66.3089C136.094 66.3206 136.415 66.4143 136.456 66.8592Z" fill="#38287C"/>
<path d="M149.453 40.7876C149.453 40.7876 146.179 41.1154 142.204 41.0217C141.276 41.0217 134.279 42.3388 133.608 43.5271C132.505 45.4821 134.325 56.92 134.156 65.1091C134.156 65.1091 134.997 65.8115 136.479 65.1501C136.847 61.1287 139.216 51.6401 137.582 47.2089C141.44 47.724 144.556 48.2333 148.064 47.0685C148.887 46.7933 149.5 46.2138 149.867 45.1485C150.247 44.0831 150.054 41.7417 149.453 40.7876Z" fill="#1C145E"/>
<path d="M140.36 23.6833C140.36 23.6833 139.52 23.7302 139.356 23.7419C138.656 23.8004 137.938 23.8882 137.279 24.1341C136.327 24.4911 135.65 25.375 134.874 26.0716C134.127 26.7389 130.252 30.4442 129.528 30.5788C128.804 30.7135 122.46 26.3526 122.46 26.3526L120.914 27.9038C120.914 27.9038 127.795 34.2841 129.849 34.2958C130.847 34.3017 136.339 31.3983 138.096 30.2744L140.36 23.6833Z" fill="#FCC70C"/>
<path opacity="0.25" d="M129.866 33.0783C128.454 33.1602 121.97 28.1906 121.217 27.6111L120.92 27.9096C120.92 27.9096 127.8 34.29 129.855 34.3017C130.684 34.3075 134.635 32.2939 136.952 30.971L137.553 30.6257L137.197 28.4833C137.185 28.4774 131.372 32.9963 129.866 33.0783Z" fill="#CE4A30"/>
<path d="M123.266 42.0637H139.024L136.199 32.8268C136.041 32.3175 135.574 31.9663 135.043 31.9663H121.247C120.721 31.9663 120.342 32.4814 120.494 32.9848L123.266 42.0637Z" fill="white"/>
<path d="M123.067 42.0637H138.586L135.761 32.8268C135.604 32.3175 135.137 31.9663 134.606 31.9663H120.809C120.284 31.9663 119.904 32.4814 120.056 32.9848L122.764 41.8354C122.799 41.9759 122.922 42.0637 123.067 42.0637Z" fill="#4582C8"/>
<g opacity="0.25">
<path opacity="0.25" d="M147.293 28.1379C146.511 31.6968 146.371 34.4773 146.15 37.0177C143.395 38.0889 142.274 39.6869 139.584 40.8869C139.584 40.8869 137.454 40.5298 137.232 41.3376C137.103 41.8001 139.724 42.1688 139.724 42.1688C142.222 42.1805 148.805 40.3484 149.249 40.2255C149.692 40.1025 150.994 31.7085 151.046 27.1545C151.052 26.5047 151.029 25.8082 150.626 25.2989C150.416 25.0355 150.118 24.854 149.815 24.696C148.058 23.7946 146.756 23.5487 144.79 23.4258" fill="#CE4A30"/>
</g>
<path d="M139.952 41.4373C139.654 41.0627 139.117 41.01 138.638 41.0217C138.288 41.0276 137.932 41.0568 137.588 41.1037C137.43 41.1271 137.244 41.1622 137.232 41.3378C137.214 41.5134 138.002 41.3378 138.417 41.4549C137.605 41.5251 136.794 41.5485 135.983 41.5193C135.89 41.5134 135.79 41.5134 135.703 41.5485C135.615 41.5836 135.539 41.6656 135.545 41.7651C135.551 41.8412 135.604 41.8997 135.656 41.9524C135.884 42.1573 136.193 42.2392 136.497 42.2919C137.74 42.5085 139.047 42.4734 140.197 41.9641" fill="#FFB9B0"/>
<path d="M147.119 28.0676C147.054 31.8666 146.786 33.6109 146.856 37.4099C144.953 37.8196 142.321 39.9796 139.625 41.1796C139.625 41.1796 139.467 41.7181 139.712 42.1688C139.917 42.2449 148.799 40.0733 149.506 39.4235C150.142 38.8382 150.982 31.7085 151.035 27.1545C151.04 26.5047 151.017 25.8082 150.614 25.2989C150.404 25.0355 150.107 24.854 149.803 24.696C148.047 23.7946 146.745 23.5487 144.778 23.4258" fill="#FCC70C"/>
<path opacity="0.45" d="M131.075 37.1758C131.133 37.9836 130.176 38.645 128.945 38.645C127.713 38.645 126.663 37.9894 126.61 37.1758C126.552 36.368 127.509 35.7065 128.74 35.7065C129.972 35.7065 131.016 36.368 131.075 37.1758Z" stroke="white" stroke-miterlimit="10"/>
<path d="M130.261 37.2396C130.278 36.7906 129.658 36.4018 128.875 36.3711C128.093 36.3405 127.444 36.6797 127.427 37.1287C127.409 37.5777 128.03 37.9665 128.812 37.9971C129.595 38.0278 130.243 37.6886 130.261 37.2396Z" fill="white"/>
<path d="M141.451 17.3265C141.422 17.186 141.107 17.1567 140.792 17.1977C140.477 17.2387 139.631 17.344 139.461 17.4787C139.286 17.6133 139.298 17.7128 139.204 17.7245C139.117 17.7362 139.105 17.6367 138.907 17.5489C138.708 17.4611 138.218 17.5196 137.903 17.5606C137.588 17.6016 137.284 17.6718 137.296 17.8182C137.302 17.9645 137.36 18.2162 137.424 18.2572C137.489 18.2982 137.489 18.2923 137.74 18.8659C137.88 19.1879 138.09 19.3693 138.498 19.2815C139.018 19.1703 139.053 18.5733 139.094 18.3274C139.134 18.0816 139.169 18.0406 139.251 18.0347C139.333 18.023 139.385 18.0523 139.485 18.2806C139.584 18.5089 139.66 19.0416 140.191 19.0708C140.891 19.1118 141.189 18.8718 141.288 18.4211C141.416 17.8123 141.387 17.8123 141.44 17.7538C141.463 17.7304 141.959 17.8006 141.959 17.8006L141.947 17.6191C141.942 17.6074 141.463 17.3616 141.451 17.3265ZM138.919 18.5499C138.901 18.8601 138.749 19.1469 138.405 19.1879C138.084 19.2289 137.938 19.0591 137.763 18.6494C137.611 18.2923 137.605 18.0055 137.658 17.906C137.71 17.8065 137.886 17.8123 138.282 17.783C138.679 17.7538 138.813 17.7479 138.878 17.9235C138.907 17.9938 138.936 18.2396 138.919 18.5499ZM141.195 18.2162C141.13 18.6552 140.967 18.8718 140.529 18.9245C139.911 19.0006 139.788 18.7547 139.695 18.4562C139.601 18.1577 139.572 17.9118 139.578 17.8416C139.596 17.6543 139.73 17.6308 140.121 17.5548C140.512 17.4787 141.037 17.3909 141.113 17.4728C141.189 17.5548 141.253 17.8299 141.195 18.2162Z" fill="#483A99"/>
<path d="M145.665 16.3547C145.63 16.0327 145.572 15.7166 145.49 15.4181C145.28 14.5986 144.778 13.9079 144.037 13.504C143.086 12.9889 141.784 12.8835 140.745 13.1762C140.144 13.346 139.917 13.6621 139.607 13.6562C139.368 13.6503 139.07 13.4864 138.767 13.3752C136.409 12.5265 136.806 14.8386 137.057 15.4767C137.168 15.7576 137.705 15.9625 137.775 16.0796C137.845 16.1966 137.839 16.7703 137.886 17.022C137.932 17.2737 138.177 17.3673 138.177 17.3673C138.177 17.3673 138.189 16.6239 138.201 16.5244C138.23 16.261 138.317 15.9859 138.551 15.8279C138.79 15.664 139.117 15.6405 139.397 15.5879C139.689 15.5352 141.043 15.7986 141.13 15.8747C141.568 16.2552 141.685 17.1156 141.807 17.6249C141.866 17.8649 141.924 18.0229 142.023 18.0171C142.099 17.3205 142.339 17.2971 142.753 17.5371C142.975 17.6659 143.103 18.1049 143.109 18.4854C143.121 18.9302 142.87 19.4219 142.409 19.5156C142.239 19.5507 142.741 20.5048 142.975 20.7448C143.051 20.8209 143.126 20.9029 143.22 20.9614C143.307 21.0141 143.407 21.0375 143.506 21.0668C143.617 21.0961 143.728 21.1253 143.844 21.1604C143.996 21.2014 144.154 21.2424 144.305 21.2014C144.556 21.1312 144.685 20.8678 144.796 20.6336C144.982 20.2531 145.192 19.8785 145.344 19.4805C145.689 18.5381 145.788 17.4025 145.665 16.3547Z" fill="#170D54"/>
<path d="M188.118 51.3766H158.9C158.707 51.3766 158.626 51.1308 158.78 51.016L161.866 48.7249V35.7886C161.866 34.7115 162.736 33.8335 163.816 33.8335H188.118C189.191 33.8335 190.067 34.7057 190.067 35.7886V49.4215C190.067 50.4985 189.197 51.3766 188.118 51.3766Z" fill="white"/>
<ellipse cx="167.818" cy="40.8202" rx="3.81769" ry="3.82015" fill="#1663BA"/>
<path fill-rule="evenodd" clip-rule="evenodd" d="M165.628 39.5238C165.555 39.1031 165.874 38.7164 166.3 38.7065L169.268 38.6374C169.718 38.6269 170.06 39.0386 169.968 39.4793L169.296 42.6937C169.225 43.0302 168.921 43.2655 168.578 43.2486L166.808 43.1611C166.481 43.1449 166.209 42.9041 166.154 42.5816L165.628 39.5238ZM169.246 40.0578C169.246 40.2973 169.052 40.4914 168.813 40.4914C168.573 40.4914 168.379 40.2973 168.379 40.0578C168.379 39.8183 168.573 39.6242 168.813 39.6242C169.052 39.6242 169.246 39.8183 169.246 40.0578ZM167.729 42.298C168.248 42.298 168.668 41.8774 168.668 41.3586C168.668 40.8397 168.248 40.4191 167.729 40.4191C167.211 40.4191 166.79 40.8397 166.79 41.3586C166.79 41.8774 167.211 42.298 167.729 42.298Z" fill="white"/>
<path opacity="0.45" d="M186.823 36.3564H174.501C174.14 36.3564 173.848 36.6487 173.848 37.0091C173.848 37.3696 174.14 37.6618 174.501 37.6618H186.823C187.183 37.6618 187.476 37.3696 187.476 37.0091C187.476 36.6487 187.183 36.3564 186.823 36.3564Z" fill="#1663BA"/>
<path opacity="0.45" d="M186.823 38.3115H174.501C174.14 38.3115 173.848 38.6037 173.848 38.9642C173.848 39.3247 174.14 39.6169 174.501 39.6169H186.823C187.183 39.6169 187.476 39.3247 187.476 38.9642C187.476 38.6037 187.183 38.3115 186.823 38.3115Z" fill="#1663BA"/>
<path opacity="0.45" d="M186.823 40.2666H174.501C174.14 40.2666 173.848 40.5588 173.848 40.9193C173.848 41.2797 174.14 41.5719 174.501 41.5719H186.823C187.183 41.5719 187.476 41.2797 187.476 40.9193C187.476 40.5588 187.183 40.2666 186.823 40.2666Z" fill="#1663BA"/>
<path opacity="0.45" d="M186.823 42.1689H174.501C174.14 42.1689 173.848 42.4612 173.848 42.8216C173.848 43.1821 174.14 43.4743 174.501 43.4743H186.823C187.183 43.4743 187.476 43.1821 187.476 42.8216C187.476 42.4612 187.183 42.1689 186.823 42.1689Z" fill="#1663BA"/>
<path opacity="0.45" d="M182.703 44.446H174.501C174.14 44.446 173.848 44.7383 173.848 45.0987C173.848 45.4592 174.14 45.7514 174.501 45.7514H182.703C183.063 45.7514 183.355 45.4592 183.355 45.0987C183.355 44.7383 183.063 44.446 182.703 44.446Z" fill="#1663BA"/>
<path opacity="0.45" d="M172.242 47.6479H164.757C164.46 47.6479 164.218 47.8891 164.218 48.1865C164.218 48.4839 164.46 48.725 164.757 48.725H172.242C172.539 48.725 172.78 48.4839 172.78 48.1865C172.78 47.8891 172.539 47.6479 172.242 47.6479Z" fill="#1663BA"/>
<path d="M77.3354 33.3067H114.421C114.71 33.3067 114.832 32.938 114.6 32.7657L110.777 29.9292V9.08468C110.777 7.7091 109.668 6.59692 108.296 6.59692H77.3354C75.9639 6.59692 74.855 7.7091 74.855 9.08468V30.8189C74.855 32.1945 75.9639 33.3067 77.3354 33.3067Z" fill="white"/>
<g opacity="0.45">
<path opacity="0.7" d="M78.9914 12.124L94.6858 12.124C95.1464 12.124 95.5199 11.7506 95.5199 11.2899C95.5199 10.8292 95.1464 10.4558 94.6858 10.4558L78.9914 10.4558C78.5307 10.4558 78.1573 10.8292 78.1573 11.2899C78.1573 11.7506 78.5307 12.124 78.9914 12.124Z" fill="#1663BA"/>
<path opacity="0.7" d="M78.9914 14.6152L94.6858 14.6152C95.1464 14.6152 95.5199 14.2418 95.5199 13.7811C95.5199 13.3204 95.1464 12.947 94.6858 12.947L78.9914 12.947C78.5307 12.947 78.1573 13.3204 78.1573 13.7811C78.1573 14.2418 78.5307 14.6152 78.9914 14.6152Z" fill="#1663BA"/>
<path opacity="0.7" d="M78.9914 17.1062L94.6858 17.1062C95.1464 17.1062 95.5199 16.7327 95.5199 16.2721C95.5199 15.8114 95.1464 15.4379 94.6858 15.4379L78.9914 15.4379C78.5307 15.4379 78.1573 15.8114 78.1573 16.2721C78.1573 16.7327 78.5307 17.1062 78.9914 17.1062Z" fill="#1663BA"/>
<path opacity="0.7" d="M78.9914 19.5283L94.6858 19.5283C95.1464 19.5283 95.5199 19.1549 95.5199 18.6942C95.5199 18.2335 95.1464 17.8601 94.6858 17.8601L78.9914 17.8601C78.5307 17.8601 78.1573 18.2335 78.1573 18.6942C78.1573 19.1549 78.5307 19.5283 78.9914 19.5283Z" fill="#1663BA"/>
<path opacity="0.7" d="M78.9914 21.9563L94.6858 21.9563C95.1464 21.9563 95.5199 21.5828 95.5199 21.1222C95.5199 20.6615 95.1464 20.288 94.6858 20.288L78.9914 20.288C78.5307 20.288 78.1573 20.6615 78.1573 21.1222C78.1573 21.5828 78.5307 21.9563 78.9914 21.9563Z" fill="#1663BA"/>
<path opacity="0.7" d="M78.9914 26.364L94.6858 26.364C95.1464 26.364 95.5199 25.9906 95.5199 25.5299C95.5199 25.0692 95.1464 24.6957 94.6858 24.6957L78.9914 24.6957C78.5307 24.6957 78.1573 25.0692 78.1573 25.5299C78.1573 25.9906 78.5307 26.364 78.9914 26.364Z" fill="#1663BA"/>
<path opacity="0.7" d="M78.9893 28.9854L106.957 28.9854C107.418 28.9854 107.791 28.6119 107.791 28.1512C107.791 27.6905 107.418 27.3171 106.957 27.3171L78.9893 27.3171C78.5287 27.3171 78.1552 27.6905 78.1552 28.1512C78.1552 28.6119 78.5287 28.9854 78.9893 28.9854Z" fill="#1663BA"/>
</g>
<ellipse cx="103.182" cy="16.1844" rx="4.18167" ry="4.18437" fill="#1663BA"/>
<path fill-rule="evenodd" clip-rule="evenodd" d="M103.173 18.7258C104.568 18.7258 105.698 17.5949 105.698 16.1998C105.698 15.7162 105.562 15.2643 105.326 14.8803L104.575 17.6764H103.86L103.47 16.107L103.081 17.7136H102.375L101.596 14.909H102.375L102.746 16.4506L103.192 14.909H103.814L104.241 16.4506L104.813 14.2794C104.372 13.9018 103.799 13.6738 103.173 13.6738C101.779 13.6738 100.649 14.8047 100.649 16.1998C100.649 17.5949 101.779 18.7258 103.173 18.7258Z" fill="white"/>
<path opacity="0.45" d="M97.571 26.2178H107.103C107.483 26.2178 107.791 25.9098 107.791 25.53C107.791 25.1501 107.483 24.8422 107.103 24.8422H97.571C97.1911 24.8422 96.8832 25.1501 96.8832 25.53C96.8832 25.9098 97.1911 26.2178 97.571 26.2178Z" fill="#1663BA"/>
<path d="M156.229 138.776C156.089 139.051 155.417 139.683 154.484 140.105C153.55 140.52 151.571 140.719 152.674 141.088C153.772 141.457 155.056 141.234 155.703 141.129C156.351 141.024 156.981 141.012 157.746 141.006C158.756 141 158.761 140.936 158.627 139.794C158.429 138.22 156.678 137.886 156.229 138.776Z" fill="#201673"/>
<path d="M174.508 138.208C174.449 138.524 174.899 139.484 174.099 140.192C173.299 140.895 171.473 141.638 172.681 141.668C173.889 141.697 175.044 141.416 175.663 141.112C176.276 140.807 175.786 140.327 176.55 140.087C177.554 139.771 177.344 139.028 176.824 138.571C176.153 137.055 174.688 137.178 174.508 138.208Z" fill="#201673"/>
<path d="M170.661 106.242C170.661 106.242 173.066 99.1534 166.243 93.3115C166.243 93.3115 162.59 94.7691 159.66 94.9447C157.355 95.0851 156.182 94.8686 156.182 94.8686C156.182 94.8686 155.989 101.167 155.978 104.562L170.661 106.242Z" fill="#1C145E"/>
<path d="M155.429 118.013C155.295 114.841 158.727 115.256 159.987 117.627C162.602 122.526 159.024 133.8 158.551 139.145C158.061 139.338 157.238 139.484 156.742 139.256C156.404 139.098 156.217 138.671 156.217 138.671C156.293 132.126 155.569 121.408 155.429 118.013Z" fill="#1C145E"/>
<path d="M159.87 118.493C159.473 119.787 155.102 121.151 155.458 116.439C155.616 114.349 156.036 102.812 156.118 101.699C156.199 100.587 156.386 98.96 156.917 98.761C159.596 97.7484 164.341 101.26 163.635 105.44C163.162 108.226 160.687 115.812 159.87 118.493Z" fill="#1C145E"/>
<path d="M166.757 120.296C165.701 117.305 169.138 116.778 171.082 118.622C175.646 122.936 175.821 133.104 176.941 138.349C176.305 138.782 175.301 138.94 174.945 138.922C174.572 138.905 174.402 138.641 174.402 138.641C172.547 132.355 167.883 123.492 166.757 120.296Z" fill="#1C145E"/>
<path d="M171.269 119.319C171.385 120.665 167.743 123.451 166.308 118.95C165.672 116.954 162.946 105.159 162.602 104.099C162.263 103.04 162.357 100.845 162.777 100.459C164.884 98.5093 169.634 100.224 170.539 104.363C171.152 107.126 171.023 116.526 171.269 119.319Z" fill="#1C145E"/>
<path d="M152.488 67.6789C152.61 67.5501 152.738 67.4155 152.849 67.275C153.713 66.1687 153.842 65.1853 154.641 63.8975C154.758 63.7102 154.915 63.2243 155.225 62.7795C155.546 62.317 156.322 61.8195 156.526 61.7083C156.9 61.5093 156.579 62.3405 156.579 62.3405C156.579 62.3405 156.894 61.878 157.203 61.9131C157.32 61.9249 157.343 62.6331 157.343 62.7502C157.361 63.716 157.133 64.6877 156.69 65.5482C156.585 65.7472 156.468 65.9579 156.468 66.1862C156.754 66.1804 156.993 65.9814 157.221 65.8116C157.448 65.6419 157.74 65.4897 158.009 65.5833C157.974 65.7004 157.915 65.8058 157.857 65.9111C157.518 66.555 157.133 67.2399 156.474 67.5501C156.083 67.7374 155.627 67.7725 155.242 67.9716C154.554 68.3403 154.215 69.195 153.515 69.5403" fill="#F2A181"/>
<path d="M156.591 67.9247L154.53 67.0583C154.338 66.9764 154.25 66.754 154.326 66.5608L156.159 62.1706C156.24 61.9775 156.462 61.8897 156.655 61.9658L158.715 62.8321C158.908 62.914 158.995 63.1365 158.919 63.3296L157.087 67.7198C157.005 67.9188 156.783 68.0066 156.591 67.9247Z" fill="#5E5DBB"/>
<path d="M158.808 63.1988L156.498 62.2297L154.604 66.7715L156.914 67.7406L158.808 63.1988Z" fill="#B4B4DB"/>
<path d="M158.802 72.1627C158.802 72.1627 157.04 72.2563 155.464 72.7305C153.089 73.4446 152.272 74.5509 151.449 75.0075C153.042 72.9763 154.822 68.6681 154.822 68.6681C154.822 68.6681 152.68 66.9003 152.435 67.3218C152.19 67.7374 143.196 78.2972 143.477 80.0064C143.593 80.7088 144.632 81.4054 145.554 81.3761C148.105 81.2883 151.064 80.3576 154.168 79.3391C155.534 78.8884 155.954 79.8542 155.954 79.8542" fill="white"/>
<path d="M151.449 75.0016C151.449 75.0016 150.316 77.2903 149.978 77.4425C149.639 77.5947 150.801 76.9684 151.443 76.3069C152.079 75.6455 152.954 73.9128 152.954 73.9128C152.616 74.0475 151.449 75.0016 151.449 75.0016Z" fill="white"/>
<path d="M155.003 63.9092C155.114 63.9853 155.143 64.1375 155.161 64.2721C155.237 64.7814 155.312 65.314 155.114 65.7882C154.986 66.0925 154.752 66.3501 154.507 66.5667C154.227 66.8125 153.912 67.0291 153.579 67.2047" fill="#F2A181"/>
<path d="M158.855 60.0984C158.254 60.274 157.939 61.0525 157.734 61.5852C157.489 62.2291 157.367 62.9081 157.285 63.5871C157.227 64.0612 157.197 64.5588 157.384 64.9978C157.478 65.2202 157.629 65.4193 157.775 65.6124C157.857 65.7236 157.944 65.8349 158.055 65.911C158.166 65.9871 158.318 66.028 158.446 65.9753C158.633 65.9051 158.709 65.6827 158.761 65.4895C159.106 64.2251 159.485 62.9432 160.197 61.8427" fill="#170D54"/>
<path d="M158.189 64.1022C158.178 63.6983 157.758 63.4349 157.39 63.8564C157.086 64.2017 157.005 64.8573 156.987 65.3432C156.964 65.9227 157.413 66.0398 157.781 66.1158" fill="#F2A181"/>
<path d="M154.174 74.2407C154.915 73.386 157.267 71.9812 160.413 72.0807C162.578 72.1509 168.485 72.508 169.144 73.9597C169.483 74.7031 169.844 82.3127 169.348 84.9409C168.975 86.9136 168.029 91.8013 168.029 92.9837C168.029 94.1661 168.66 94.6695 168.368 95.009C167.708 95.7758 163.191 96.0978 161.073 96.0978C159.188 96.0978 155.972 95.5944 155.808 94.9856C155.569 94.0842 156.176 94.1193 156.258 93.1769C156.339 92.2345 156.579 86.1058 156.234 85.1048C155.61 83.2961 155.306 80.3459 154.81 79.0054C154.431 77.9986 153.433 75.0953 154.174 74.2407Z" fill="white"/>
<path d="M167.691 80.3984C167.919 80.8667 169.442 83.3311 169.442 83.3311L169.506 83.6237C169.471 84.133 169.418 84.5837 169.348 84.9408C168.975 86.9134 168.029 91.8011 168.029 92.9836C168.029 94.166 168.636 94.646 168.368 95.0089C167.849 95.7172 159.334 97.3093 159.748 95.3308C159.783 95.1494 166.897 89.7114 166.932 89.53C167.259 87.9671 167.545 86.8432 167.691 85.7076C168.035 82.9681 167.469 79.9302 167.691 80.3984Z" fill="#EAE6E6"/>
<path d="M158.703 69.3588C158.703 69.3588 158.686 71.8349 158.586 71.9344C158.487 72.0339 157.997 72.268 157.997 72.268C157.997 72.268 158.347 74.4221 158.884 74.2582C159.421 74.1002 162.969 72.2973 162.969 72.2973C162.969 72.2973 162.467 72.0924 162.467 71.8934C162.467 71.6944 162.946 67.8018 162.946 67.8018" fill="#FFBE9D"/>
<path d="M161.166 60.3677C160.647 60.5082 159.287 60.2272 158.908 60.795C158.534 61.3628 158.201 62.7267 158.061 63.1071C157.781 63.8564 157.6 64.6583 157.396 65.4368C157.127 66.4437 156.69 68.2934 157.676 69.1363C157.956 69.3763 158.085 69.4582 158.435 69.5226C158.902 69.6046 159.363 69.7041 159.83 69.786C160.553 69.9148 161.353 70.067 162.071 69.8329C163.028 69.5226 163.553 68.1997 163.798 67.3041L165.211 62.1647L161.166 60.3677Z" fill="#FFBE9D"/>
<path d="M158.616 75.2239C158.616 75.2239 158.406 84.8881 158.015 90.765L159.433 92.726L160.407 90.2733C160.407 90.2733 160.816 83.1847 159.485 75.2941L158.616 75.2239Z" fill="#1C145E"/>
<path d="M158.289 74.3751L158.324 74.5098C158.388 74.7615 158.487 75.0014 158.616 75.2239L159.485 75.2883C159.485 75.2883 160.075 74.978 160.156 74.6444C160.232 74.3107 159.188 73.7664 159.188 73.7664L159.059 73.819C158.767 73.9361 158.505 74.1234 158.3 74.3634L158.289 74.3751Z" fill="#1C145E"/>
<path d="M162.526 71.2903C162.526 71.2903 163.08 71.6356 163.518 72.2971C163.069 73.3215 162.059 75.1419 160.95 75.9731C160.431 74.5741 159.187 73.7605 159.187 73.7605C159.187 73.7605 162.216 73.2278 162.526 71.2903Z" fill="white"/>
<path d="M159.182 73.7665C159.182 73.7665 158.096 74.1996 157.454 75.4172C157.454 75.4172 157.244 73.7723 157.688 72.3558C157.688 72.3558 158.4 71.4426 158.645 71.425C158.545 72.5899 159.182 73.7665 159.182 73.7665Z" fill="white"/>
<path d="M159.322 95.3367C158.242 95.5006 157.845 95.8986 157.238 96.5015C157.186 96.5484 157.139 96.6127 157.145 96.683C157.157 96.7708 157.262 96.8059 157.343 96.8235C157.845 96.9054 157.927 96.5835 158.394 96.3903C158.709 96.2557 159.024 96.121 159.339 95.9864" fill="#F2A181"/>
<path d="M155.662 87.4693L159.479 99.7325C159.584 100.06 159.398 100.347 159.077 100.347L151.116 101.05C150.83 101.05 150.538 100.827 150.451 100.534L146.348 88.4586C146.243 88.1308 146.721 87.6566 147.037 87.6566L154.997 86.9542C155.283 86.9484 155.575 87.1708 155.662 87.4693Z" fill="#E9E6FF"/>
<path d="M155.4 87.7856L159.164 99.8615C159.269 100.189 159.082 100.476 158.761 100.476L150.801 101.179C150.515 101.179 150.223 100.956 150.135 100.663L146.371 88.5876C146.266 88.2598 146.453 87.9729 146.774 87.9729L154.734 87.2705C155.02 87.2705 155.312 87.4929 155.4 87.7856Z" fill="#E0D9FF"/>
<path d="M149.044 87.3932L149.324 88.4527L153.048 88.1249L152.744 87.0713L149.044 87.3932Z" fill="white"/>
<path d="M149.75 86.41C149.826 86.6558 150.124 87.61 150.124 87.61L151.904 87.4461L151.53 86.2461C151.367 85.731 150.842 85.3505 150.351 85.3914C149.855 85.4383 149.587 85.8949 149.75 86.41ZM150.141 86.3866C150.054 86.0997 150.2 85.8422 150.474 85.8188C150.748 85.7953 151.046 86.0061 151.133 86.2987C151.221 86.5856 151.075 86.8431 150.801 86.8665C150.527 86.89 150.229 86.6792 150.141 86.3866Z" fill="white"/>
<path d="M162.351 94.4822C161.516 94.6578 159.293 95.3251 159.053 95.4363C158.773 95.5709 157.851 96.2675 157.635 96.4899C156.795 97.3328 157.227 97.725 156.894 98.8665C156.876 98.925 156.877 98.9836 156.871 99.0479C156.871 99.165 157.028 99.2704 157.192 99.1592C157.279 99.3055 157.536 99.2177 157.664 99.0538C157.664 99.1709 157.822 99.2411 158.079 99.0948C158.219 99.0187 158.19 99.0245 158.511 98.7377C158.738 98.5328 159.007 98.3689 159.415 98.1875C159.69 98.0645 160.046 97.9475 160.296 97.7836C160.635 97.5611 161.236 97.5085 161.534 96.5368C161.598 96.3202 161.808 96.1914 162.001 96.0743C162.456 95.7875 162.905 95.5007 163.36 95.2197" fill="#FFBE9D"/>
<path d="M167.487 78.7712C167.843 80.0355 169.313 88.8158 169.313 88.8158L161.014 94.845L161.703 96.6655C161.703 96.6655 171.63 93.3231 172.412 91.0343C173.194 88.7515 173.159 78.4258 170.399 74.8025C169.523 73.6493 167.761 73.0698 167.761 73.0698" fill="white"/>
<path d="M158.972 97.6431C158.972 97.6431 158.89 97.7192 158.762 97.8362C158.633 97.9533 158.464 98.0821 158.33 98.2577C158.19 98.4274 158.05 98.6031 157.933 98.726C157.816 98.8489 157.723 98.9191 157.723 98.9191C157.723 98.9191 157.927 98.5152 158.23 98.1699C158.376 97.9884 158.586 97.8655 158.727 97.7777C158.872 97.6957 158.972 97.6431 158.972 97.6431Z" fill="#F2A181"/>
<path d="M158.516 97.0869C158.516 97.0869 158.406 97.1747 158.283 97.3503C158.219 97.4323 158.149 97.5376 158.079 97.643C158.044 97.6957 158.009 97.7542 157.968 97.8128C157.927 97.8771 157.898 97.9181 157.874 97.9884C157.653 98.521 157.285 98.9659 157.285 98.9659C157.285 98.9659 157.332 98.8313 157.419 98.6322C157.507 98.4332 157.629 98.1815 157.746 97.9298C157.88 97.6547 158.079 97.4498 158.225 97.2918C158.388 97.1513 158.516 97.0869 158.516 97.0869Z" fill="#F2A181"/>
<path d="M157.991 96.6421C157.991 96.6421 157.921 96.7592 157.793 96.9231C157.728 97.005 157.647 97.0987 157.583 97.1982C157.53 97.2977 157.477 97.4382 157.425 97.5552C157.32 97.8069 157.226 98.0645 157.156 98.2577C157.086 98.4508 157.034 98.5796 157.034 98.5796C157.034 98.5796 157.034 98.4391 157.069 98.2342C157.104 98.0294 157.18 97.7543 157.302 97.5026C157.367 97.3738 157.419 97.2567 157.507 97.1396C157.594 97.0343 157.682 96.9523 157.758 96.8821C157.903 96.7474 157.991 96.6421 157.991 96.6421Z" fill="#F2A181"/>
<path d="M164.329 66.4085C164.003 66.2154 163.757 66.0163 163.541 66.3266C163.431 66.4905 163.361 66.7188 163.168 66.7773C162.975 66.8358 162.777 66.6602 162.73 66.4671C162.684 66.2739 162.742 66.069 162.8 65.8817C162.929 65.4603 163.063 65.0388 163.191 64.6173C163.32 64.2017 163.448 63.751 163.285 63.353C163.203 63.1481 163.051 62.9842 162.888 62.8437C162.351 62.3813 161.645 62.153 160.95 62.0125C160.256 61.872 159.544 61.7959 158.867 61.5852C158.581 61.4974 158.301 61.3803 158.073 61.1872C157.705 60.8769 157.519 60.3852 157.513 59.8994C157.507 59.4135 157.67 58.9453 157.921 58.5297C157.974 58.6936 158.044 58.8575 158.131 59.0038C158.213 58.7814 158.347 58.5765 158.511 58.4067C158.715 59.5365 163.466 59.1618 164.58 59.6594C165.351 60.0048 165.987 60.233 165.964 61.4857C165.987 61.5676 166.051 61.6262 166.115 61.6847C166.798 62.311 167.096 63.0779 167.177 64.2134C167.282 65.6007 166.477 67.1051 165.683 68.2524C165.485 68.5392 165.374 68.7441 165.094 68.9548C164.814 69.1655 164.329 69.2709 163.991 69.2065C163.647 69.1421 162.97 69.1714 162.964 68.8202C162.958 68.5685 163.495 68.1236 163.641 67.9187" fill="#170D54"/>
<path d="M163.086 67.7198C163.086 67.7198 163.028 67.954 163.174 68.1354C163.302 68.2935 163.559 68.2701 163.734 68.2174C164.242 68.0535 164.586 67.5618 164.685 67.0525C164.796 66.4496 164.475 65.8526 163.927 66.0047C163.606 66.0984 163.407 66.4613 163.407 66.795" fill="#FFBE9D"/>
<path d="M158.703 69.5696L160.226 69.8505C160.226 69.8505 159.719 70.4242 158.68 70.4242" fill="#F2A181"/>
<g opacity="0.3">
<g opacity="0.3">
<g opacity="0.3">
<path opacity="0.3" d="M38.9568 43.3396L40.9994 44.3757L39.9781 41.8586" fill="#3939D3"/>
</g>
</g>
</g>
<g opacity="0.3">
<g opacity="0.3">
<g opacity="0.3">
<path opacity="0.3" d="M180.309 74.4277L178.266 75.4579L179.288 72.9409" fill="#3939D3"/>
</g>
<path opacity="0.3" d="M186.647 71.2083C186.647 73.4678 184.715 75.2941 182.328 75.2941C179.941 75.2941 178.009 73.4619 178.009 71.2083C178.009 68.9489 179.941 67.1226 182.328 67.1226C184.715 67.1226 186.647 68.9547 186.647 71.2083Z" fill="#3939D3"/>
</g>
<g opacity="0.3">
<g opacity="0.3">
<g opacity="0.3">
<path opacity="0.3" d="M181.558 73.1692C182.497 73.1867 183.455 73.1985 184.318 73.1399C184.593 73.1224 184.832 72.7126 184.499 72.578C184.639 72.5077 184.779 72.4433 184.844 72.297C184.902 72.1565 184.832 71.9634 184.674 71.9282C185.001 72.0043 185.13 71.5126 184.873 71.3546C185.007 71.2434 185.118 71.1029 185.147 70.939C185.176 70.7751 185.106 70.5878 184.949 70.5058C184.849 70.4531 184.727 70.4531 184.61 70.4531C184.219 70.4531 183.828 70.4473 183.437 70.4473C183.542 69.8678 183.577 69.2356 183.262 68.7263C183.169 68.5742 182.918 68.3868 182.719 68.5098C182.532 68.621 182.585 68.8961 182.591 69.0717C182.632 69.7917 182.194 70.5175 181.523 70.857C181.523 70.8512 181.569 72.3848 181.558 73.1692Z" fill="#FEFEFE"/>
</g>
</g>
<path opacity="0.3" d="M181.219 70.8511H179.795V73.1691H181.219V70.8511Z" fill="#FEFEFE"/>
</g>
</g>
<g opacity="0.3">
<g opacity="0.3">
<g opacity="0.3">
<path opacity="0.3" d="M114.944 38.9496L116.432 37.334L114.389 37.7379" fill="#3939D3"/>
</g>
<path opacity="0.3" d="M109.423 39.3242C109.423 40.9632 110.823 42.2861 112.557 42.2861C114.29 42.2861 115.691 40.9573 115.691 39.3242C115.691 37.6852 114.29 36.3623 112.557 36.3623C110.823 36.3623 109.423 37.6852 109.423 39.3242Z" fill="#3939D3"/>
</g>
<g opacity="0.3">
<g opacity="0.3">
<g opacity="0.3">
<path opacity="0.3" d="M111.95 40.7466C112.568 40.7583 113.193 40.7641 113.759 40.7232C113.94 40.7115 114.092 40.4129 113.876 40.3193C113.969 40.2724 114.062 40.2198 114.103 40.1144C114.144 40.0149 114.097 39.8744 113.992 39.8451C114.208 39.8978 114.29 39.5466 114.127 39.4295C114.214 39.3534 114.29 39.2481 114.308 39.1252C114.325 39.0081 114.278 38.8676 114.179 38.8091C114.115 38.7739 114.033 38.7681 113.957 38.7681C113.701 38.7681 113.444 38.7622 113.187 38.7622C113.257 38.3408 113.275 37.8842 113.076 37.5154C113.012 37.4042 112.849 37.2696 112.72 37.3574C112.598 37.4393 112.633 37.6384 112.638 37.7613C112.662 38.2822 112.382 38.8091 111.938 39.0549C111.932 39.0608 111.961 40.1788 111.95 40.7466Z" fill="#FEFEFE"/>
</g>
</g>
<path opacity="0.3" d="M111.728 39.0608H110.794V40.7408H111.728V39.0608Z" fill="#FEFEFE"/>
</g>
</g>
<g opacity="0.3">
<path opacity="0.3" d="M129.528 17.2796C130.158 16.4894 130.538 15.4826 130.538 14.3938C130.538 11.8358 128.466 9.75781 125.916 9.75781C123.365 9.75781 121.293 11.8358 121.293 14.3938C121.293 16.9518 123.365 19.0298 125.916 19.0298C126.861 19.0298 127.742 18.743 128.478 18.2513L130.269 19.2054L129.528 17.2796Z" fill="#3939D3"/>
<path opacity="0.3" d="M123.966 13.1235C124.41 12.6845 125.128 12.6962 125.56 13.1411L125.846 13.4338L126.143 13.1411C126.587 12.7021 127.299 12.7079 127.737 13.1528C128.174 13.5977 128.168 14.3177 127.725 14.7508L126.628 15.8337L126.622 15.8396C126.447 16.0093 126.231 16.1147 126.003 16.1498C125.653 16.2025 125.291 16.0913 125.023 15.822L123.943 14.7157C123.511 14.2826 123.523 13.5626 123.966 13.1235Z" fill="white"/>
</g>
<defs>
<linearGradient id="paint0_linear" x1="144.516" y1="71.0923" x2="53.0612" y2="71.0923" gradientUnits="userSpaceOnUse">
<stop stop-color="#1247AD"/>
<stop offset="1" stop-color="#0D6CD8"/>
</linearGradient>
</defs>
</svg>
