<svg width="213" height="146" viewBox="0 0 213 146" fill="none" xmlns="http://www.w3.org/2000/svg">
<path d="M24.043 133.389C24.043 133.389 -3.04918 119.236 3.47871 87.4043C10.0066 55.5773 36.5945 48.0222 47.5303 50.3569C68.0245 54.7368 34.5399 67.6572 26.5411 45.4773C16.5065 17.6567 52.2885 -3.41183 85.4556 2.03742C106.772 5.53951 117.063 15.7469 136.012 22.1581C154.895 28.5459 162.814 19.9915 155.292 15.0325C148.152 10.3257 122.223 18.0069 131.128 28.5319C143.315 42.9465 172.695 20.6125 195.463 45.482C218.231 70.3515 198.466 101.618 180.965 104.224C163.459 106.829 171.135 81.7076 198.466 101.618C225.796 121.529 191.275 143.111 191.275 143.111" stroke="white" stroke-miterlimit="10"/>
<path d="M210.088 145.105H2.97435C1.87703 145.105 0.985168 144.213 0.985168 143.116C0.985168 142.018 1.87703 141.126 2.97435 141.126H212.077V143.116C212.077 144.213 211.185 145.105 210.088 145.105Z" fill="white"/>
<path d="M108.345 65.2341C99.4777 82.2776 89.5084 89.2211 89.5084 89.2211L98.1142 102.963L113.14 87.344L108.345 65.2341Z" fill="#0B9289"/>
<path d="M130.334 61.1672L108.341 65.2343C106.949 106.839 106.426 141.118 106.426 141.118H145.897C145.897 141.118 147.041 77.4076 140.691 63.5066L130.334 61.1672Z" fill="#0B9289"/>
<path d="M117.437 59.4721L122.862 73.8913L130.334 61.1671L125.412 53.1169L117.437 59.4721Z" fill="#E9A394"/>
<path d="M98.1143 102.959C98.1143 102.959 101.327 96.2627 94.4301 87.6382C90.6059 82.8567 88.8455 74.6011 88.8455 74.6011L83.1021 75.4743L88.3645 102.959H98.1143Z" fill="#E9A394"/>
<path d="M81.9301 65.9858L79.5767 68.1244L82.7192 70.8981L72.876 70.73L72.6659 74.1107L83.1021 75.4788L88.8455 74.601L81.9301 65.9858Z" fill="#E9A394"/>
<path d="M83.6486 71.2484L74.2023 67.3494L73.5952 69.0304L81.4773 72.341L83.6486 71.2484Z" fill="#E9A394"/>
<path d="M140.7 63.5063C140.7 63.5063 153.391 70.73 157.398 97.7988L142.675 101.352L140.7 63.5063Z" fill="#0B9289"/>
<path d="M113.137 41.8541L108.346 54.1161L112.011 55.2461L113.137 62.1522L124.838 59.472L126.529 40.7241L113.137 41.8541Z" fill="#E9A394"/>
<path d="M120.949 44.768H111.997L112.973 42.1251L120.949 41.6301V44.768Z" fill="#E37A82"/>
<path d="M125.623 50.3618C125.623 50.3618 119.912 49.1804 119.912 43.2735C119.912 43.2735 111.441 44.4269 108.518 39.8275C105.054 34.3829 110.349 28.1212 114.719 29.3959C114.719 29.3959 111.964 32.1275 116.148 32.4451C119.132 32.6739 124.581 28.7048 126.528 32.5431C126.528 32.5431 141.545 35.9752 130.334 49.9648L125.623 50.3618Z" fill="#16005C"/>
<path d="M119.912 42.8072C119.912 42.8072 108.589 44.9925 106.221 36.877C104.839 32.1281 109.592 29.4292 109.592 29.4292" stroke="#16005C" stroke-width="2" stroke-miterlimit="10"/>
<path d="M119.046 51.1446C119.982 48.9786 118.986 46.4636 116.82 45.527C114.654 44.5905 112.139 45.5871 111.202 47.753C110.266 49.919 111.262 52.434 113.428 53.3706C115.594 54.3071 118.109 53.3105 119.046 51.1446Z" stroke="#16005C" stroke-width="0.5" stroke-miterlimit="10"/>
<path d="M119.165 48.0693L125.254 48.4009" stroke="#16005C" stroke-width="0.5" stroke-miterlimit="10"/>
<path d="M132.996 51.4405C132.996 54.0881 129.447 56.2314 126.804 56.2314C124.157 56.2314 123.414 54.0834 123.414 51.4405C123.414 48.7929 125.562 46.6497 128.205 46.6497C130.853 46.645 132.996 48.7929 132.996 51.4405Z" fill="#E9A394"/>
<path d="M155.638 98.219V120.32H144.618L143.702 101.1L155.638 98.219Z" fill="#E9A394"/>
<path fill-rule="evenodd" clip-rule="evenodd" d="M123.163 73.3803L122.863 73.4242L122.696 73.4487L118.641 62.6753L113.145 68.8203L122.389 73.6444C122.402 73.7319 122.42 73.8575 122.442 74.0194C122.49 74.3629 122.56 74.8694 122.647 75.521C122.822 76.8243 123.064 78.7077 123.336 81.0266C123.88 85.665 124.544 92.0441 125.024 99.008C125.503 105.973 125.797 113.517 125.603 120.486C125.409 127.464 124.726 133.828 123.268 138.455L124.222 138.755C125.722 133.994 126.408 127.517 126.603 120.513C126.798 113.501 126.502 105.922 126.021 98.9394C125.54 91.9551 124.875 85.5594 124.329 80.9101C124.056 78.5852 123.813 76.6965 123.639 75.3887C123.551 74.7347 123.481 74.226 123.433 73.8804L123.413 73.7396L132.995 71.0945L130.334 61.1672L123.163 73.3803ZM107.486 93.2228L107.948 77.823L100.809 100.162L107.486 93.2228Z" fill="#0B5192"/>
<path d="M118.007 60.9381L124.838 59.4719L119.235 64.2534L118.007 60.9381Z" fill="#E37A82"/>
<path d="M114.779 49.7317C114.779 50.6749 114.415 51.436 113.962 51.436C113.509 51.436 113.145 50.6703 113.145 49.7317C113.145 48.7885 113.509 48.0273 113.962 48.0273C114.415 48.0273 114.779 48.7885 114.779 49.7317Z" fill="#16005C"/>
<path d="M116.185 45.5806C116.185 43.2926 114.364 44.8335 114.364 44.8335L116.185 45.5806Z" fill="#16005C"/>
<path d="M114.364 55.7038L116.965 55.0127C116.97 55.0127 118.081 64.6645 114.364 55.7038Z" fill="white"/>
<path d="M58.2657 98.9797C58.2657 98.9797 75.8275 96.2621 76.173 126.889C76.229 131.857 79.3949 141.122 79.3949 141.122H63.4768L58.2657 98.9797Z" fill="#F2F2F2"/>
<path d="M39.9003 96.2622L29.2866 98.7697L32.5272 141.122H73.8285C73.8285 141.122 72.4417 107.614 56.8691 97.5603L39.9003 96.2622Z" fill="white"/>
<path d="M56.5 103C58.5 106.167 62.1 116 60.5 130" stroke="#16005C"/>
<path d="M29.2868 98.7696C18.3463 101.263 20.9052 109.663 23.0204 126.908C17.5618 131.344 22.7963 133.338 22.7963 133.338C16.8007 139.693 24.2812 141.121 24.2812 141.121H44.2524C44.2571 141.121 40.2367 96.2714 29.2868 98.7696Z" fill="white"/>
<path d="M43.0663 131.339L38.2755 109.336" stroke="#16005C" stroke-miterlimit="10"/>
<path d="M24.2807 141.121C24.2807 141.121 27.6521 133.379 38.3124 129.485C47.147 126.258 60.0768 134.635 68.351 126.674L69.8826 135.635L44.2567 141.117H24.2807V141.121Z" fill="#E9A394"/>
<path d="M59.4141 74.4512L67.3148 86.4797L62.2485 88.2868L61.3706 98.0646L46.1342 92.7695L47.5677 72.887L59.4141 74.4512Z" fill="#E9A394"/>
<path d="M47.6894 87.0869L39.9007 96.2624L49.8934 108.506L54.3947 94.2078L47.6894 87.0869Z" fill="#E37A82"/>
<path d="M50.2946 81.404L61.4405 77.5377L59.414 74.4512L48.4034 75.5952L50.2946 81.404Z" fill="#E37A82"/>
<path d="M49.3326 85.6158C49.3326 85.6158 52.7086 92.3725 50.3599 79.3494C50.3599 79.3494 53.5631 79.7089 56.0706 75.4831C56.0706 75.4831 55.2908 82.3705 62.6499 75.4831C70.0089 68.5956 60.656 63.2071 49.2252 65.2336C39.3213 66.9893 29.408 72.588 43.8927 91.56L49.3326 85.6158Z" fill="#16005C"/>
<path d="M47.5306 88.3007C46.7694 89.3186 45.462 90.2432 44.1078 90.444C41.3902 90.8409 38.738 88.6976 38.3457 85.98C37.9488 83.2623 39.3217 81.8522 42.0393 81.4599C43.5662 81.2358 45.3312 81.6887 46.6574 82.6133C47.0543 83.1083 47.5306 88.3007 47.5306 88.3007Z" fill="#E9A394"/>
<path d="M58.5643 82.6647C58.8164 83.5939 58.6904 84.4344 58.2841 84.5465C57.8779 84.6585 57.3456 83.9955 57.0934 83.0663C56.8413 82.137 56.9673 81.2965 57.3736 81.1845C57.7752 81.0724 58.3121 81.7355 58.5643 82.6647Z" fill="#16005C"/>
<path d="M55.1884 80.5076C55.1884 80.5076 54.7915 78.2756 56.8647 79.3496L55.1884 80.5076Z" fill="#16005C"/>
<g filter="url(#filter0_d)">
<path d="M38.6539 96.6404L40.4656 94.5625L39.7979 93.0216L43.893 91.5601L55.6367 97.4669L56.0709 101.978L54.0817 101.347L50.8365 113.441L38.6539 96.6404Z" fill="white"/>
</g>
<path d="M50.3598 79.3494C50.3598 79.3494 51.728 87.3248 53.7358 88.9638C54.3942 89.5008 55.641 88.1326 61.3704 88.0159C64.8771 87.9458 64.8725 100.18 60.2217 99.8296C55.5709 99.4794 48.5014 96.5796 47.4414 87.661C46.5122 79.835 50.3598 79.3494 50.3598 79.3494Z" fill="#16005C"/>
<path d="M56.0706 90.4441C56.0706 90.4441 57.252 92.6434 59.582 91.1539" stroke="#C4C6C5" stroke-miterlimit="10"/>
<path d="M82.654 136.088H43.4446V138.992C43.4446 140.169 44.3971 141.122 45.5738 141.122H82.654C83.8307 141.122 84.7832 140.169 84.7832 138.992V138.217C84.7832 137.04 83.8307 136.088 82.654 136.088Z" fill="#0D3E98"/>
<path d="M114.495 106.965H68.884C67.5299 106.965 66.3858 107.973 66.2131 109.318L62.5382 138.086C62.3328 139.697 63.5888 141.122 65.2091 141.122H110.82C112.174 141.122 113.318 140.113 113.491 138.768L117.166 110C117.376 108.389 116.12 106.965 114.495 106.965Z" fill="#0D3E98"/>
<path d="M116.704 106.965H71.0924C69.7382 106.965 68.5942 107.973 68.4215 109.318L64.7466 138.086C64.5412 139.697 65.7972 141.122 67.4175 141.122H113.029C114.383 141.122 115.527 140.113 115.7 138.768L119.375 110C119.58 108.389 118.329 106.965 116.704 106.965Z" fill="#1048AE"/>
<path d="M96.56 124.046C96.2985 126.53 94.0712 128.542 91.587 128.542C89.1029 128.542 87.3005 126.53 87.562 124.046C87.8235 121.561 90.0508 119.549 92.5349 119.549C95.0191 119.544 96.8215 121.561 96.56 124.046Z" fill="white"/>
<path d="M140.798 102.379L159.644 102.739L155.372 79.6858L145.351 80.8205C145.351 80.8205 140.836 87.4838 144.403 92.6622C148.423 98.5037 140.387 98.7185 140.798 102.379Z" fill="#16005C"/>
<path d="M149.109 99.5918C149.109 99.5918 140.536 108.006 136.012 139.716H145.556L149.109 99.5918Z" fill="#E0E0E0"/>
<path d="M171.775 97.2477L168.044 139.716H140.322L143.772 123.495C143.772 123.495 133.219 117.989 149.114 99.5918L153.065 97.5606L170.23 96.2625L171.775 97.2477Z" fill="white"/>
<path d="M149.11 118.601C149.11 118.601 147.447 121.449 149.044 123.733L146.691 139.721" stroke="#E0E0E0" stroke-miterlimit="10"/>
<path d="M145.239 123.569L161.292 124.046" stroke="#E0E0E0" stroke-miterlimit="10"/>
<path d="M164.458 131.564L162.763 111.139" stroke="#E0E0E0" stroke-miterlimit="10"/>
<path d="M171.775 97.2478C171.775 97.2478 173.307 99.1716 175.077 103.64C177.589 109.972 180.587 121.417 180.39 139.716H168.04L171.775 97.2478Z" fill="white"/>
<path d="M180.391 141.117C180.391 141.117 174.222 127.006 158.701 131.045C141.755 135.453 135.461 134.631 135.461 134.631L134.177 141.117H180.391Z" fill="#E9A394"/>
<g filter="url(#filter1_d)">
<path d="M164.239 128.08L158.733 129.313L171.243 141.122H183.033C183.029 141.117 177.948 128.799 164.239 128.08Z" fill="white"/>
</g>
<path d="M135.465 134.631L127.411 132.964L121.639 141.117H134.177L135.465 134.631Z" fill="#E9A394"/>
<g filter="url(#filter2_d)">
<path d="M149.11 118.601L164.075 103.636L161.292 102.323L171.775 97.2477L166.961 94.1846H155.764L149.11 102.501L150.949 102.958L149.11 104.247V118.601Z" fill="#BDBDBD"/>
</g>
<path d="M149 118.417L163.966 103.451L161.183 102.139L171.666 97.0632L166.851 94H155.654L149 102.316L150.84 102.774L149 104.063V118.417Z" fill="white"/>
<path d="M159.574 99.2743L164.458 95.8937L159.182 84.0986L151.006 89.235L153.308 99.0222L149.11 118.601L159.574 99.2743Z" fill="#E9A394"/>
<path d="M151.664 92.0273L157.402 89.0342L152.28 94.6422L151.664 92.0273Z" fill="#E37A82"/>
<path d="M141.176 74.9465L138.673 88.8381H142.432L146.653 94.6422L157.402 89.0342L149.884 72.2849L141.176 74.9465Z" fill="#E9A394"/>
<path d="M140.569 78.318L140.317 79.8403L150.235 78.4908L150.081 76.5903L140.569 78.318Z" fill="#E37A82"/>
<path d="M168.581 73.8911C166.097 67.1624 163.066 64.5708 163.066 64.5708C156.982 58.5286 146.588 65.2339 146.588 65.2339C133.266 62.0073 138.673 78.5512 138.673 78.5512L149.525 77.2204C151.042 86.3211 156.468 81.7124 156.468 81.7124L158.999 86.2744C158.999 86.2744 156.445 88.5298 159.106 92.4008C161.296 95.5853 156.048 96.6733 157.407 100.063L178.377 95.7161C178.373 81.9132 173.068 86.0503 168.581 73.8911Z" fill="#16005C"/>
<path d="M179.75 95.3147C179.75 95.3147 181.427 89.0342 172.298 81.9133" stroke="#16005C" stroke-width="2" stroke-miterlimit="10"/>
<path d="M161.18 83.371C161.751 80.9408 160.244 78.5077 157.814 77.9366C155.384 77.3654 152.95 78.8724 152.379 81.3026C151.808 83.7328 153.315 86.1659 155.745 86.7371C158.176 87.3082 160.609 85.8012 161.18 83.371Z" fill="#E9A394"/>
<path d="M145.239 88.329L148.041 87.6426C148.036 87.6379 149.021 95.6273 145.239 88.329Z" fill="white"/>
<path d="M142.904 83.6083C142.904 83.6083 143.795 78.173 145.747 83.6083" stroke="#1C145E" stroke-width="0.5" stroke-miterlimit="10"/>
<path d="M143.594 79.4756C143.594 79.4756 144.682 77.6359 145.967 79.4756H143.594Z" fill="#16005C"/>
<path d="M101.448 30.5255C99.8233 26.0055 94.7149 23.7455 90.2369 25.674C86.3846 27.3363 84.3394 31.7069 85.5347 35.732C86.2025 37.9827 87.7107 39.7197 89.6018 40.7376C91.3482 41.6762 92.8424 43.0117 93.9398 44.66L94.2573 45.1363L100.533 42.8809L100.472 42.3159C100.267 40.3127 100.617 38.3095 101.355 36.4371C102.079 34.6066 102.167 32.5194 101.448 30.5255Z" fill="#C3C8FF"/>
<path d="M101.448 30.5255C99.8233 26.0055 94.7149 23.7455 90.2369 25.674C86.3846 27.3363 84.3394 31.7069 85.5347 35.732C86.2025 37.9827 87.7107 39.7197 89.6018 40.7376C91.3482 41.6762 92.8424 43.0117 93.9398 44.66L94.2573 45.1363L100.533 42.8809L100.472 42.3159C100.267 40.3127 100.617 38.3095 101.355 36.4371C102.079 34.6066 102.167 32.5194 101.448 30.5255Z" fill="#FFBF42"/>
<path d="M95.6947 43.2826L90.6937 36.2317C90.6937 36.2317 90.7871 34.8029 92.356 35.0317C93.9249 35.2558 94.8635 37.7353 93.7428 37.3337C92.6221 36.9322 92.2252 34.0231 94.3452 33.5795C96.4651 33.1359 97.1749 37.9501 96.0028 37.0209C94.8308 36.0917 95.0783 33.0285 97.3476 33.0005L98.6784 43.1752" stroke="white" stroke-miterlimit="10"/>
<path d="M100.455 47.9175L97.5081 48.9775C96.3874 49.3791 95.1547 48.8 94.7484 47.6794L94.1274 45.947C93.7258 44.8263 94.3048 43.5936 95.4255 43.1874L98.3719 42.1274C99.4926 41.7258 100.725 42.3048 101.132 43.4255L101.753 45.1579C102.154 46.2785 101.575 47.5159 100.455 47.9175Z" fill="#16005C"/>
<path d="M99.1997 41.0185L94.0923 42.8547C93.0529 43.2283 92.5132 44.3738 92.8869 45.4132L93.0912 45.9817C93.4649 47.0211 94.6104 47.5608 95.6498 47.1871L100.757 45.3509C101.797 44.9772 102.336 43.8317 101.963 42.7923L101.758 42.2239C101.385 41.1845 100.239 40.6448 99.1997 41.0185Z" fill="#392D62"/>
<path d="M93.3562 22.8491L92.469 17.7734" stroke="#C3C8FF" stroke-miterlimit="10"/>
<path d="M86.9589 25.8701L82.7237 21.7283" stroke="#C3C8FF" stroke-miterlimit="10"/>
<path d="M82.5416 33.3928L77.7087 33.7384" stroke="#C3C8FF" stroke-miterlimit="10"/>
<path d="M100.328 25.6272L102.503 21.5928" stroke="#C3C8FF" stroke-miterlimit="10"/>
<path d="M168.427 62.913H198.419C199.461 62.913 200.46 62.0678 200.651 61.0265L203.752 43.927C203.939 42.8857 203.248 42.0405 202.206 42.0405H172.214C171.173 42.0405 170.174 42.8857 169.982 43.927L166.882 61.0265C166.69 62.0678 167.386 62.913 168.427 62.913Z" fill="#1C145C"/>
<path d="M189.309 52.4766C189.113 53.5599 189.832 54.4377 190.915 54.4377C191.998 54.4377 193.035 53.5599 193.231 52.4766C193.427 51.3932 192.708 50.5154 191.625 50.5154C190.541 50.5154 189.505 51.3932 189.309 52.4766Z" fill="white"/>
<path d="M183.351 52.4766C183.155 53.5599 183.874 54.4377 184.957 54.4377C186.041 54.4377 187.077 53.5599 187.273 52.4766C187.469 51.3932 186.75 50.5154 185.667 50.5154C184.588 50.5154 183.552 51.3932 183.351 52.4766Z" fill="white"/>
<path d="M180.56 53.8058C181.436 53.0057 181.605 51.7645 180.937 51.0334C180.269 50.3022 179.018 50.3581 178.142 51.1581C177.266 51.9581 177.097 53.1994 177.765 53.9305C178.433 54.6616 179.685 54.6058 180.56 53.8058Z" fill="white"/>
<path d="M184.57 61.7874L174.148 67.9837L176.015 61.3018L184.57 61.7874Z" fill="#1C145C"/>
<path d="M71.8114 60.3773H41.8195C40.7782 60.3773 39.7789 59.5322 39.5875 58.4909L36.487 41.3913C36.3002 40.3501 36.9913 39.5049 38.0325 39.5049H68.0244C69.0657 39.5049 70.065 40.3501 70.2564 41.3913L73.3569 58.4909C73.5437 59.5322 72.8526 60.3773 71.8114 60.3773Z" fill="white"/>
<path d="M50.9298 49.9412C51.1259 51.0245 50.4068 51.9023 49.3235 51.9023C48.2402 51.9023 47.2036 51.0245 47.0075 49.9412C46.8114 48.8578 47.5305 47.98 48.6138 47.98C49.6924 47.98 50.729 48.8578 50.9298 49.9412Z" fill="#2A5DB4"/>
<path d="M56.5044 51.391C57.1723 50.6598 57.0037 49.4186 56.1278 48.6186C55.252 47.8185 54.0006 47.7627 53.3328 48.4938C52.6649 49.2249 52.8335 50.4662 53.7093 51.2662C54.5852 52.0662 55.8366 52.1221 56.5044 51.391Z" fill="#2A5DB4"/>
<path d="M62.8417 49.9412C63.0378 51.0245 62.3187 51.9023 61.2354 51.9023C60.1521 51.9023 59.1154 51.0245 58.9193 49.9412C58.7232 48.8578 59.4423 47.98 60.5256 47.98C61.6089 47.98 62.6456 48.8578 62.8417 49.9412Z" fill="#2A5DB4"/>
<path d="M61.1142 59.2567L62.7578 65.2336L69.4118 58.8364L61.1142 59.2567Z" fill="white"/>
<defs>
<filter id="filter0_d" x="38.6539" y="91.5601" width="17.9171" height="22.8811" filterUnits="userSpaceOnUse" color-interpolation-filters="sRGB">
<feFlood flood-opacity="0" result="BackgroundImageFix"/>
<feColorMatrix in="SourceAlpha" type="matrix" values="0 0 0 0 0 0 0 0 0 0 0 0 0 0 0 0 0 0 127 0"/>
<feOffset dx="0.5" dy="1"/>
<feColorMatrix type="matrix" values="0 0 0 0 0 0 0 0 0 0 0 0 0 0 0 0 0 0 0.1 0"/>
<feBlend mode="normal" in2="BackgroundImageFix" result="effect1_dropShadow"/>
<feBlend mode="normal" in="SourceGraphic" in2="effect1_dropShadow" result="shape"/>
</filter>
<filter id="filter1_d" x="158.733" y="128.08" width="25.2998" height="13.0418" filterUnits="userSpaceOnUse" color-interpolation-filters="sRGB">
<feFlood flood-opacity="0" result="BackgroundImageFix"/>
<feColorMatrix in="SourceAlpha" type="matrix" values="0 0 0 0 0 0 0 0 0 0 0 0 0 0 0 0 0 0 127 0"/>
<feOffset dx="1"/>
<feColorMatrix type="matrix" values="0 0 0 0 0 0 0 0 0 0 0 0 0 0 0 0 0 0 0.1 0"/>
<feBlend mode="normal" in2="BackgroundImageFix" result="effect1_dropShadow"/>
<feBlend mode="normal" in="SourceGraphic" in2="effect1_dropShadow" result="shape"/>
</filter>
<filter id="filter2_d" x="149.11" y="94.1846" width="22.6655" height="25.4166" filterUnits="userSpaceOnUse" color-interpolation-filters="sRGB">
<feFlood flood-opacity="0" result="BackgroundImageFix"/>
<feColorMatrix in="SourceAlpha" type="matrix" values="0 0 0 0 0 0 0 0 0 0 0 0 0 0 0 0 0 0 127 0"/>
<feOffset dy="1"/>
<feColorMatrix type="matrix" values="0 0 0 0 0 0 0 0 0 0 0 0 0 0 0 0 0 0 0.1 0"/>
<feBlend mode="normal" in2="BackgroundImageFix" result="effect1_dropShadow"/>
<feBlend mode="normal" in="SourceGraphic" in2="effect1_dropShadow" result="shape"/>
</filter>
</defs>
</svg>
