<svg width="250" height="176" viewBox="0 0 250 176" fill="none" xmlns="http://www.w3.org/2000/svg">
<path d="M116.525 125.52C116.878 128.601 117.167 132.395 117.263 136.805C117.359 142.448 117.455 148.869 115.82 156.75C114.922 161.095 113.768 164.63 112.806 167.192C111.972 167.224 111.17 167.224 110.337 167.257C109.952 143.486 109.054 138.297 108.252 138.265C107.451 138.232 106.905 143.616 104.212 152.599C102.32 158.89 100.3 163.916 98.8246 167.257C97.8946 167.257 96.9326 167.257 96.0027 167.257C96.131 166.057 96.3234 164.241 96.4837 162.036C96.9647 155.939 97.093 151.172 97.2212 145.918C97.2854 142.448 97.3816 137.421 97.4778 131.163C99.6583 129.638 103.186 127.563 107.932 126.395C111.299 125.552 114.281 125.423 116.525 125.52Z" fill="#461228"/>
<path d="M117.198 105.025C115.049 104.603 113.125 103.987 111.458 103.306C113.157 110.7 114.825 118.126 116.524 125.52C113.702 126.461 110.784 127.401 107.77 128.309C104.243 129.379 100.78 130.32 97.4446 131.163C96.7391 128.601 95.713 124.872 94.4945 120.299C93.3721 116.018 91.865 112.386 91.4481 111.349C91.416 111.284 91.384 111.186 91.3198 111.057C88.4659 104.409 86.574 103.111 86.4136 100.258C86.3495 99.3172 86.4778 97.8579 87.5039 95.977C91.3519 93.9015 92.827 93.3502 93.4363 93.2529C93.5004 93.2529 94.2058 93.1231 95.1358 92.961C95.4244 92.8961 95.6809 92.8637 95.9695 92.7989C97.1239 92.5394 98.0218 92.2475 98.2463 92.1827C103.345 90.5288 106.199 90.8206 106.199 90.8206C106.552 90.8855 107.129 90.9828 107.802 91.1774C111.907 92.4746 112.901 95.6851 115.883 97.6957C117.518 98.7659 119.699 98.9605 124.028 99.3496C126.786 99.5766 130.826 99.7064 135.7 98.9605C135.7 100.517 135.7 102.074 135.7 103.663C131.692 105.057 124.99 106.614 117.198 105.025Z" fill="#6979F8"/>
<path d="M99.7867 77.5891C100.46 78.4647 100.717 79.243 101.069 80.5727C101.999 83.9453 102.48 85.6641 102.031 86.4748C101.486 87.4153 100.877 87.3504 100.171 88.2585C99.6905 88.8746 99.3698 90.0097 100.204 92.377C99.6584 92.7338 98.9209 93.0905 98.023 93.3499C96.0348 93.9012 94.3032 93.5769 93.4695 93.3175C93.8543 89.4259 93.213 86.637 92.5716 84.7885C91.7058 82.3563 90.4552 80.6375 91.2248 78.789C91.802 77.3946 93.1809 76.7135 93.726 76.4541C94.1429 76.2271 96.2593 75.1893 98.1833 76.1298C98.985 76.519 99.466 77.1351 99.7867 77.5891Z" fill="url(#paint0_linear)"/>
<path opacity="0.35" d="M99.882 92.5394C99.0162 92.6043 97.6694 92.5719 96.3546 91.826C94.11 90.5288 93.4366 87.9345 93.18 86.994C93.0518 86.5724 92.9876 86.1833 92.9556 85.9238C93.7893 86.086 95.072 86.4103 96.3546 87.3183C98.8879 89.1019 99.6896 91.7287 99.882 92.5394Z" fill="url(#paint1_linear)"/>
<path d="M92.9555 85.9242C92.8272 85.989 92.5066 86.1512 92.1539 86.0863C91.4163 85.989 90.775 85.081 90.9674 84.3675C91.0636 84.0108 91.2881 83.7838 91.4484 83.6865C91.737 84.1405 92.0577 84.627 92.3783 85.081C92.5707 85.3729 92.7631 85.6647 92.9555 85.9242Z" fill="#F7AE76"/>
<path d="M112.388 168.327C111.651 168.36 110.945 168.392 110.208 168.425C110.24 168.036 110.272 167.646 110.304 167.257C111.137 167.225 111.939 167.192 112.773 167.192C112.645 167.582 112.516 167.938 112.388 168.327Z" fill="#F7AE76"/>
<path d="M121.302 171.57C117.454 171.505 113.606 171.441 109.726 171.376C109.694 171.149 109.694 170.824 109.694 170.468C109.694 170.37 109.726 170.046 109.822 169.592C109.886 169.3 109.982 168.879 110.175 168.425C110.528 168.392 110.848 168.392 111.201 168.36C111.586 168.327 111.971 168.327 112.355 168.295C113.638 168.717 114.728 169.008 115.594 169.203C116.524 169.43 117.518 169.657 118.673 169.754C118.769 169.754 118.833 169.754 118.929 169.787C119.282 169.819 120.981 170.079 121.27 171.019C121.366 171.278 121.334 171.441 121.302 171.57Z" fill="url(#paint2_linear)"/>
<path d="M120.757 172.057C117.358 172.09 113.927 172.09 110.528 172.122C110.4 172.122 110.111 172.09 109.919 171.895C109.79 171.765 109.758 171.571 109.758 171.538C109.758 171.473 109.758 171.409 109.758 171.344H121.334C121.334 171.441 121.334 171.506 121.334 171.603C121.302 171.863 121.046 172.057 120.757 172.057Z" fill="url(#paint3_linear)"/>
<path d="M96.676 175.559C96.5798 175.494 96.227 175.3 95.9064 174.878C95.3292 174.132 95.265 173.321 95.1688 172.348C95.1368 171.959 95.1368 171.57 95.1688 170.824C95.2009 169.073 95.3612 168.587 95.714 168.327C95.8102 168.23 95.9384 168.197 96.0026 168.165C96.8363 168.165 97.7021 168.197 98.5358 168.197C98.5679 168.23 98.632 168.295 98.6962 168.392C99.2092 169.041 99.2092 169.787 99.2413 170.046C99.3696 172.154 100.845 173.775 99.9788 175.105C99.9468 175.17 99.8185 175.332 99.6582 175.462C98.8565 176.143 97.5738 176.078 96.676 175.559Z" fill="url(#paint4_linear)"/>
<path d="M98.5359 168.197C98.3435 168.327 97.7022 168.684 96.8685 168.522C96.4837 168.457 96.1951 168.295 96.0027 168.165C96.0027 167.873 96.0027 167.581 96.0027 167.257C96.5478 167.257 97.0609 167.257 97.606 167.257C98.0229 167.257 98.4077 167.257 98.8245 167.257C98.7283 167.581 98.6321 167.873 98.5359 168.197Z" fill="#F7AE76"/>
<path d="M99.1441 175.786C98.1821 176.24 96.8353 175.948 96.0657 175.137C95.8092 174.845 95.6489 174.553 95.5847 174.359C96.6109 175.396 97.9897 175.721 99.0479 175.267C99.6893 174.975 100.042 174.488 100.234 174.164C100.234 174.359 100.202 174.683 100.01 175.04C99.7534 175.494 99.3365 175.688 99.1441 175.786Z" fill="url(#paint5_linear)"/>
<path d="M144.326 100.355C144.904 100.355 145.481 100.485 145.994 100.647V89.2964H134.001C134.642 88.3884 135.059 87.2858 135.059 86.0859C135.059 83.0699 132.654 80.6377 129.672 80.6377C126.722 80.6377 124.285 83.0699 124.285 86.0859C124.285 87.2858 124.669 88.3884 125.343 89.2964H113.35V114.591C113.382 115.402 113.638 118.029 115.562 120.04C116.396 120.883 117.294 121.369 117.583 121.499C118.962 122.18 120.244 122.277 120.95 122.277H145.962V110.927C145.449 111.089 144.872 111.219 144.294 111.219C141.312 111.219 138.907 108.787 138.907 105.771C138.907 102.755 141.376 100.355 144.326 100.355Z" fill="white"/>
<path d="M144.326 101.1C144.904 101.1 145.481 101.23 145.994 101.392V90.0415H134.001C134.642 89.1335 135.059 88.0309 135.059 86.831C135.059 83.815 132.654 81.3828 129.672 81.3828C126.722 81.3828 124.285 83.815 124.285 86.831C124.285 88.0309 124.669 89.1335 125.343 90.0415H113.35V115.337C113.382 116.147 113.638 118.774 115.562 120.785C116.396 121.628 117.294 122.114 117.583 122.244C118.962 122.925 120.244 123.022 120.95 123.022H145.962V111.672C145.449 111.834 144.872 111.964 144.294 111.964C141.312 111.964 138.907 109.532 138.907 106.516C138.971 103.532 141.376 101.1 144.326 101.1Z" fill="url(#paint6_linear)"/>
<path opacity="0.35" d="M100.01 77.9135C99.8178 78.2702 99.4971 78.7567 98.952 79.2107C97.3807 80.4754 95.9377 79.5674 94.6871 80.7025C93.7251 81.5456 93.7572 82.7455 92.8593 82.8752C92.5066 82.9401 92.1859 82.8104 91.9614 82.6806C91.9614 82.2915 92.0897 80.0539 93.8854 78.5297C95.5529 77.1352 97.9579 76.9082 100.01 77.9135Z" fill="url(#paint7_linear)"/>
<path d="M105.86 88.7961C105.828 89.4446 105.122 90.1581 103.775 91.6499C102.653 92.8497 102.236 93.0443 101.851 93.1092C101.05 93.2389 100.376 92.8822 99.6387 92.4606C96.881 90.8067 95.5342 89.3798 95.5342 89.3798C94.3798 87.9205 92.8726 85.9747 91.2693 83.51C91.5579 82.8614 91.8786 82.2128 92.1672 81.5967C93.8988 85.2612 96.5282 87.4664 98.5485 87.3691C100.28 87.2719 101.242 86.3638 101.242 86.3638C101.691 85.9423 101.948 85.4882 102.108 85.1639C104.353 85.9747 105.956 87.4664 105.86 88.7961Z" fill="#121B46"/>
<path d="M104.532 85.3075C104.532 85.5993 103.249 85.4696 101.582 86.2155C99.1449 87.2857 98.2471 89.1666 98.0226 89.0044C97.734 88.8099 98.7281 85.5021 101.165 84.7562C102.768 84.2697 104.532 84.9507 104.532 85.3075Z" fill="#353D64"/>
<path d="M103.024 73.7951C103.441 74.9625 101.581 77.1029 99.4326 78.3028C96.5466 79.8594 94.6226 78.8541 93.3079 80.508C92.0893 82.0322 92.9551 83.9779 92.3138 84.1725C91.5763 84.3671 89.8447 81.8052 89.9409 79.2756C89.9729 78.6919 90.005 77.8487 90.5822 77.265C91.4159 76.4218 92.3138 77.038 93.6927 76.5191C95.777 75.7084 95.3602 73.6329 97.701 72.6276C99.0158 72.0763 100.298 72.2384 100.523 72.2709C101.164 72.3681 101.549 72.5303 101.709 72.6276C102.222 72.7897 102.832 73.2762 103.024 73.7951Z" fill="#121B46"/>
<path d="M123.162 110.829C123.002 111.283 122.232 111.446 121.142 111.705C120.308 111.9 119.603 111.932 119.09 111.932C118.897 111.932 118.705 111.932 118.481 111.932C118.096 111.964 117.775 111.997 117.486 112.062C117.39 112.029 116.524 111.802 116.172 110.927C115.883 110.181 116.14 109.305 116.781 108.754C117.134 108.786 117.519 108.819 117.903 108.851C119.154 108.884 120.244 108.689 121.078 108.43C122.521 109.305 123.355 110.246 123.162 110.829Z" fill="url(#paint8_linear)"/>
<path d="M125.761 108.138C126.274 108.495 126.338 109.273 126.37 109.5C126.402 109.727 126.434 110.116 126.242 110.538C126.017 111.024 125.568 111.251 125.119 111.413C124.125 111.835 122.971 112.321 121.271 112.257C120.726 112.224 119.956 112.159 119.059 111.867C120.694 111.089 121.047 110.473 121.079 110.019C121.079 109.435 120.502 109.046 120.694 108.592C120.854 108.235 121.367 108.17 121.945 108.073C122.618 107.976 122.842 108.073 123.676 108.073C125.055 108.106 125.344 107.814 125.761 108.138Z" fill="url(#paint9_linear)"/>
<path d="M116.813 108.787C116.749 109.177 116.717 109.793 116.877 110.539C117.006 111.22 117.294 111.771 117.487 112.095C110.945 113.165 105.878 112.355 102.896 111.609C96.9638 110.117 86.3176 105.771 85.997 99.6746C85.9649 99.1882 85.9328 97.2424 87.1193 96.3019C89.8129 94.2264 96.8035 99.0909 99.1123 100.68C102.832 103.274 103.089 104.247 105.846 105.836C109.887 108.204 113.991 108.723 116.813 108.787Z" fill="#5C6EFC"/>
<path opacity="0.1" d="M103.858 106.711C108.604 109.5 113.382 110.214 116.845 110.343C116.749 109.695 116.749 109.143 116.813 108.787C113.991 108.722 109.886 108.203 105.814 105.836C103.088 104.246 102.799 103.241 99.0797 100.679C97.0275 99.2523 91.3196 95.2959 88.177 95.8472C91.1592 97.2741 94.0452 99.3172 95.4882 100.323C100.106 103.501 100.459 104.733 103.858 106.711Z" fill="#AFB6F1"/>
<path opacity="0.35" d="M140.287 107.068C140.575 108.43 140.896 109.079 140.511 109.76C140.223 110.311 139.549 110.765 138.972 110.668C137.689 110.441 137.497 107.684 137.497 107.425C137.465 106.776 137.401 106.03 137.882 105.414C138.235 104.96 138.555 104.992 139.004 104.441C139.613 103.695 139.517 102.917 139.678 102.917C139.902 102.917 139.774 104.668 140.287 107.068Z" fill="url(#paint10_linear)"/>
<path d="M139.036 104.992C139.773 104.214 139.324 103.014 139.677 102.917C139.998 102.819 140.799 103.857 140.864 104.895C140.896 105.154 140.831 105.414 140.896 106.03C140.928 106.516 140.992 106.808 140.992 107.003C141.024 107.197 141.312 109.338 140.318 109.954C139.837 110.278 139.228 110.083 139.164 110.051C138.683 109.889 138.426 109.467 138.298 109.273C138.042 108.851 138.138 108.624 137.977 107.035C137.913 106.224 137.849 106.03 138.01 105.77C138.266 105.316 138.619 105.381 139.036 104.992Z" fill="url(#paint11_linear)"/>
<path d="M47.3778 139.618C47.5381 142.342 47.2816 144.353 46.993 145.715C46.993 145.715 46.5761 147.823 46.6403 149.704C46.7044 150.806 46.993 151.844 46.993 151.844C47.0251 151.974 47.0892 152.136 47.1213 152.266C48.5001 156.579 49.2056 161.897 48.3398 168.351C48.2757 168.545 47.7947 170.329 48.7246 171.367C48.8849 171.529 49.2377 171.918 49.7828 171.983C49.7828 171.983 50.2638 172.015 50.7127 171.756C51.4503 171.302 51.7068 170.07 51.4503 168.643C51.2258 167.313 51.0655 165.692 51.0975 163.843C51.1296 162.092 51.322 160.568 51.5785 159.303C51.5785 159.303 52.8291 152.914 52.4443 148.634C52.4123 148.439 52.3161 147.466 52.284 146.137C52.2519 145.618 52.2519 145.034 52.2519 144.353C52.2519 142.602 52.3481 141.175 52.4443 140.234C51.6747 140.202 50.8731 140.137 50.0393 140.04C49.0773 139.878 48.2115 139.748 47.3778 139.618Z" fill="url(#paint12_linear)"/>
<path d="M60.0438 101.675C62.8016 108.647 63.7956 109.069 64.4049 109.101C65.6876 109.199 66.9382 107.675 68.8943 105.307C69.8563 104.107 70.5617 103.037 71.0107 102.324C70.9145 102.259 69.9525 101.643 69.8242 101.578C69.4394 101.318 69.0546 101.059 68.6377 100.832C68.285 101.383 67.8361 101.934 67.323 102.551C66.4893 103.524 65.6234 104.302 64.8859 104.886C64.6935 104.334 64.3728 103.524 64.0842 102.518C63.4429 100.378 63.475 99.8914 62.994 98.3024C62.2885 95.9674 61.8396 94.4432 60.4286 93.4703C60.2683 93.3731 58.6008 92.2704 57.8312 92.8542C56.8371 93.6001 58.0236 96.6484 60.0438 101.675Z" fill="url(#paint13_linear)"/>
<path d="M58.9215 165.692C58.9536 165.756 59.0177 165.821 59.0498 165.919C59.5629 166.729 60.1401 167.378 60.7814 168.027C62.1282 169.421 62.3206 169.616 62.7375 169.68C63.1223 169.745 63.475 169.648 63.6995 169.551C63.9881 169.875 64.3729 170.297 64.8218 170.783C66.0083 172.145 66.0403 172.34 65.9762 172.469C65.8479 172.794 65.0463 172.761 63.5391 172.696C62.7054 172.664 62.3206 172.632 62.1923 172.599C60.6852 172.015 61.2945 169.68 59.627 168.61C58.9215 168.189 58.2802 168.221 57.8633 167.54C57.6068 167.086 57.5747 166.665 57.5427 166.308C57.5106 165.302 57.8954 164.459 58.184 163.94C58.3123 164.362 58.5367 164.978 58.9215 165.692Z" fill="#452962"/>
<path d="M58.5372 172.178C58.4089 172.146 58.2807 172.146 58.1524 172.113C57.96 170.362 57.7676 168.578 57.5752 166.827C57.96 167.216 58.3448 167.605 58.7296 168.027C58.6655 169.389 58.6014 170.784 58.5372 172.178Z" fill="#452962"/>
<path d="M57.959 97.0053C58.44 98.5619 59.9792 99.243 60.4923 99.47C61.7429 100.021 62.8652 99.9564 63.4104 99.8915C63.3142 99.2105 63.1538 98.2701 62.8332 97.1999C62.4804 95.9351 62.256 95.1892 61.6467 94.4434C61.326 94.0218 60.332 92.7246 59.37 92.9192C58.2797 93.1137 57.4139 95.319 57.959 97.0053Z" fill="#F3BB2A"/>
<path d="M62.3212 139.164C62.5456 146.85 62.1608 151.682 61.7119 154.795C61.7119 154.795 60.9423 160.081 61.744 164.459C62.0326 165.983 62.3212 166.826 62.3212 166.826C62.3532 166.989 62.4174 167.216 62.5456 167.507C63.1228 168.999 63.9886 169.615 63.7962 169.907C63.6359 170.134 62.8342 169.907 62.257 169.615C62.0326 169.486 61.5836 169.259 60.6537 168.156C59.9803 167.378 59.4031 166.664 58.8259 165.529C58.5052 164.913 58.3128 164.362 58.2166 163.973C58.3449 163.551 58.5052 162.902 58.6335 162.124C59.1145 159.173 58.7297 157.033 57.8959 152.752C56.6133 146.169 56.1002 143.963 56.7095 140.721C56.8377 140.007 56.9981 139.423 57.1263 139.034C58.8259 139.067 60.5575 139.099 62.3212 139.164Z" fill="url(#paint14_linear)"/>
<path opacity="0.35" d="M62.3531 139.909C62.3531 140.136 62.3531 140.363 62.3852 140.59C61.5514 140.72 60.6535 140.882 59.7557 140.979C58.6654 141.109 57.6072 141.239 56.5811 141.336C56.6131 141.109 56.6452 140.85 56.6773 140.623C58.5692 140.396 60.4611 140.136 62.3531 139.909Z" fill="url(#paint15_linear)"/>
<path d="M47.1845 141.305C49.8461 141.208 52.6359 141.046 55.586 140.754C57.9269 140.527 60.2037 140.235 62.3521 139.911C62.7369 133.814 62.2559 129.014 61.7749 125.836C60.2999 116.302 57.51 113.221 59.3379 107.708C60.5885 103.914 62.8652 102.552 62.5125 99.1789C62.1918 96.1305 60.0113 93.828 58.1834 92.3362C58.1834 92.8875 58.0552 95.9035 56.6122 96.4872C55.1371 97.071 52.4114 95.0928 50.3912 91.0391C47.4411 95.8062 46.9921 99.5681 47.1845 102.195C47.4731 106.054 49.1727 108.486 48.3069 112.799C47.7938 115.426 46.6394 117.112 46.1263 117.988C44.1061 121.393 42.9838 127.879 47.1845 141.305Z" fill="#F3BB2A"/>
<path d="M49.0779 116.95C49.1099 117.015 49.4306 117.858 50.2643 118.02C50.9377 118.15 51.7394 117.761 51.7715 117.371C51.8035 116.885 50.8095 116.269 50.2643 116.496C50.0719 116.561 50.0078 116.723 49.6871 116.853C49.4306 116.95 49.2061 116.95 49.0779 116.95Z" fill="#F7AE76"/>
<path d="M52.155 85.1689C51.8344 85.5905 49.75 88.4768 50.712 91.7197C51.7382 95.1897 55.7145 97.3625 56.933 96.5517C57.6385 96.0977 57.7026 94.5087 57.3819 93.4385C57.0933 92.5629 56.6765 92.3683 56.3879 91.5576C56.0351 90.4874 56.3237 89.4172 56.6123 88.7038C56.1634 88.7686 55.5221 88.8011 54.8166 88.5416C52.7322 87.8282 52.1871 85.3635 52.155 85.1689Z" fill="url(#paint16_linear)"/>
<path d="M54.6563 81.7638C56.1955 86.6282 56.452 88.7686 56.2917 89.7414C56.2596 89.936 56.1313 90.4873 56.2917 91.1683C56.4841 92.0439 56.9009 92.3358 57.2537 93.1141C57.6064 93.9573 57.5423 94.6383 57.5743 95.4166C57.6064 98.2056 58.5363 101.092 58.8249 101.059C59.0174 101.059 58.9532 99.6325 59.0173 97.8813C59.1456 94.2492 59.6587 91.5575 60.0756 89.3523C61.0696 84.0663 61.9354 83.7095 61.711 80.8882C61.5827 79.364 61.4224 77.2885 59.9794 75.7643C58.0553 73.7212 54.6242 73.3645 51.1289 74.532C52.7643 77.3209 53.9187 79.8504 54.6563 81.7638Z" fill="#450D20"/>
<path d="M57.7027 76.6072C53.8226 78.7476 51.61 82.1851 52.1551 85.1687C52.6041 87.6333 54.7846 89.871 56.2918 89.7088C57.0614 89.644 57.7027 89.1251 57.7027 89.1251C58.0234 88.8657 58.1196 88.6711 58.6326 87.7955C58.6326 87.7955 60.1077 85.2011 60.236 84.1958C60.3001 83.6445 60.2039 83.8391 60.1398 82.2176C60.0436 79.8826 60.2681 79.4286 59.9474 78.4233C59.755 77.7747 59.4985 76.6721 58.7288 76.4451C58.344 76.3478 57.9592 76.4775 57.7027 76.6072Z" fill="url(#paint17_linear)"/>
<path opacity="0.8" d="M60.7497 136.051C61.4231 136.667 62.0324 137.121 62.4172 137.413C62.4172 137.738 62.4172 138.062 62.4172 138.386C61.4231 138.97 60.4291 139.521 59.4029 140.105C57.511 136.862 55.619 133.587 53.7271 130.344C53.5988 130.571 52.22 132.873 49.3981 133.1C46.6724 133.327 44.9408 131.381 44.7805 131.187C44.7163 130.765 44.6522 130.344 44.6201 129.922C49.3339 126.484 51.8672 126.484 53.3423 127.165C55.7794 128.333 56.0359 131.868 60.7497 136.051Z" fill="url(#paint18_linear)"/>
<path d="M61.5834 99.3734C62.0002 99.7626 62.385 100.184 62.6736 100.671C64.1487 103.265 63.2829 106.573 60.7176 108.097C58.1522 109.589 54.8814 108.713 53.3743 106.119C53.0857 105.6 52.8933 105.049 52.7971 104.53L43.0808 110.205L49.0773 120.68C47.987 120.55 46.8326 120.745 45.8065 121.361C43.2411 122.852 42.3433 126.193 43.8504 128.787C45.3255 131.381 48.6284 132.257 51.1937 130.765C52.2199 130.149 52.9574 129.274 53.4063 128.236L59.4028 138.711C66.6179 134.495 73.8329 130.279 81.0479 126.063C81.5931 125.739 82.3947 125.187 83.1323 124.247C83.3567 123.955 84.1905 122.917 84.5753 121.393C85.0884 119.48 84.8639 117.404 83.8057 115.556L71.2996 93.6982L61.5834 99.3734Z" fill="white"/>
<path d="M61.8717 99.7945C62.2886 100.184 62.6734 100.605 62.962 101.092C64.437 103.686 63.5712 107.026 61.0059 108.518C58.4405 110.01 55.1377 109.134 53.6626 106.54C53.374 106.021 53.1816 105.47 53.0854 104.918L43.3691 110.594L49.3656 121.101C48.2754 120.971 47.121 121.166 46.0948 121.782C43.5295 123.274 42.6637 126.614 44.1387 129.208C45.6138 131.803 48.9167 132.678 51.482 131.186C52.5082 130.57 53.2457 129.695 53.6947 128.657L59.6912 139.164C66.9062 134.948 74.1212 130.732 81.3363 126.517C81.8814 126.192 82.6831 125.641 83.4206 124.7C83.6451 124.409 84.4788 123.371 84.8636 121.814C85.3767 119.901 85.1522 117.825 84.094 115.977L71.5879 94.0869L61.8717 99.7945Z" fill="url(#paint19_linear)"/>
<path d="M45.6465 93.5366C44.7807 94.2177 44.3318 94.9635 44.0111 95.4824C42.7926 97.6228 42.3757 99.4064 41.7985 101.417C40.8686 104.628 40.1952 107.871 39.3935 111.113C39.3294 111.373 39.137 112.086 39.4577 112.735C39.618 113.092 39.8745 113.319 40.0349 113.448C41.1251 114.356 42.6002 115.362 43.0491 115.686C43.2736 115.264 43.5943 114.778 44.0111 114.292C44.2356 114.032 44.428 113.805 44.6204 113.611C44.2035 113.124 43.7867 112.638 43.3698 112.151C43.0491 111.794 42.7285 111.405 42.4078 111.049C42.6002 110.465 42.9209 109.589 43.4339 108.616C44.0432 107.384 44.6525 106.541 44.9411 106.152C46.0634 104.53 46.7048 103.006 47.5385 100.931C48.2119 99.3415 50.6169 93.5042 49.1418 92.434C48.3402 91.8503 46.5123 92.8556 45.6465 93.5366Z" fill="url(#paint20_linear)"/>
<path opacity="0.25" d="M46.0633 104.271C45.5181 104.238 44.5882 104.141 43.53 103.622C42.568 103.168 41.9587 102.552 41.606 102.163C41.638 102.033 41.6701 101.903 41.7022 101.773C43.2734 102.357 44.8447 102.973 46.416 103.557C46.2877 103.817 46.1915 104.044 46.0633 104.271Z" fill="url(#paint21_linear)"/>
<path d="M41.573 101.643C42.054 102.162 42.8557 102.908 44.0742 103.459C44.8759 103.816 45.6134 103.978 46.1586 104.043C46.7037 102.973 47.2168 101.838 47.7619 100.573C48.3391 99.1786 48.788 97.8489 49.1728 96.6166C48.8201 95.7086 48.4353 94.8006 48.0505 93.8925C47.8581 93.4385 47.6336 92.9521 47.4412 92.498C46.864 92.6602 46.0303 93.0169 45.1966 93.698C44.7156 94.0871 44.3307 94.4763 44.0101 94.8978C43.5611 95.4816 43.3046 96.0329 43.0481 96.6166C42.2464 98.53 41.7333 100.93 41.573 101.643Z" fill="#F3BB2A"/>
<path d="M48.596 77.1266C47.1851 80.2399 48.3075 83.1585 47.9868 88.2824C47.8906 90.1309 47.602 91.5902 47.4417 92.5307C51.9631 103.297 54.0474 107.643 54.4001 107.448C54.4322 107.416 54.4643 107.189 53.8871 104.432C53.6626 103.297 53.374 101.741 53.0854 99.6652C52.9892 98.8869 52.6365 96.5844 52.5082 93.6657C52.5082 93.4063 52.3158 89.3526 53.1495 84.3584C53.374 82.9964 53.5985 81.9586 54.4322 81.2452C55.0735 80.6939 55.6828 80.5966 57.9275 79.9804C59.146 79.6561 60.1401 79.3643 60.7814 79.1697C60.589 78.3914 60.1401 77.0293 58.9216 76.1213C58.3443 75.6997 57.7671 75.5376 55.0415 75.0836C53.1495 74.7917 52.6365 74.5323 51.9951 74.5323C51.5783 74.4998 51.3859 74.5323 51.0973 74.5971C49.6543 74.9214 48.8847 76.5429 48.596 77.1266Z" fill="#450D20"/>
<path opacity="0.35" d="M79.0279 107.319C79.1241 107.74 79.3806 108.324 79.9578 108.94C79.8296 109.394 79.541 109.719 79.2203 109.719C78.8996 109.719 78.6752 109.362 78.611 109.265C78.3866 108.908 78.5148 108.713 78.2904 108.421C78.0659 108.162 77.9056 108.259 77.7452 108C77.5528 107.708 77.7452 107.513 77.5849 107.189C77.4246 106.865 77.2001 106.93 77.0718 106.67C76.8153 106.151 77.3604 105.113 77.8735 105.081C78.13 105.081 78.3545 105.34 78.4828 105.503C78.9317 106.119 78.8676 106.67 79.0279 107.319Z" fill="url(#paint22_linear)"/>
<path d="M78.9314 108.551C79.0918 109.005 79.1238 109.037 79.1559 109.07C79.3483 109.232 79.7331 109.199 79.9576 108.972C80.1179 108.778 80.1179 108.518 80.1179 108.453C80.1179 108.324 80.0538 108.259 79.8614 107.967C79.6048 107.578 79.5728 107.578 79.4445 107.351C79.3483 107.189 79.22 106.994 79.1238 106.702C79.0276 106.443 79.0918 106.443 78.9956 106.248C78.8994 105.989 78.739 105.827 78.4504 105.567C78.1618 105.275 77.9694 105.113 77.8411 105.146C77.7129 105.211 77.8091 105.405 77.6167 105.665C77.4563 105.859 77.3281 105.827 77.2639 105.989C77.1998 106.183 77.296 106.475 77.4884 106.605C77.6487 106.735 77.7449 106.67 77.8732 106.8C77.9373 106.897 77.9373 106.929 78.0015 107.156C78.0335 107.286 78.1297 107.578 78.3221 107.74C78.4825 107.87 78.5145 107.805 78.6749 107.967C78.7711 108.064 78.8032 108.162 78.9314 108.551Z" fill="url(#paint23_linear)"/>
<path opacity="0.45" d="M52.3159 119.836C52.7648 120.095 53.5024 119.673 54.1437 119.187C54.1437 119.317 54.1437 120.322 53.4703 120.744C53.1817 120.938 52.861 120.971 52.6365 121.003C52.2517 121.068 51.9311 121.003 51.5783 120.971C51.4821 120.971 51.1294 120.906 50.7446 120.776C49.7826 120.484 48.8206 119.868 48.4358 119.641C47.8586 119.284 47.0249 118.83 45.8384 118.474C45.9666 118.247 46.0949 118.02 46.2232 117.793C49.9109 116.982 51.3218 117.339 51.7387 118.052C52.1235 118.668 51.8349 119.544 52.3159 119.836Z" fill="url(#paint24_linear)"/>
<path d="M43.0481 115.685C44.2987 116.529 45.3569 117.242 46.1586 117.761C46.6075 118.053 47.1847 118.442 47.9223 118.896C49.3653 119.772 50.0707 120.226 50.8083 120.388C51.7382 120.615 53.4377 120.744 53.9829 119.869C54.2073 119.48 54.2073 118.928 53.9829 118.572C53.7263 118.247 53.3736 118.312 52.7002 118.053C51.9627 117.761 51.9306 117.534 51.3213 117.21C50.2952 116.691 49.9425 117.177 48.7881 116.853C48.1467 116.658 47.6336 116.237 46.5754 115.426C45.8058 114.81 45.1645 114.194 44.6514 113.675C44.3628 113.967 44.0422 114.323 43.7215 114.745C43.4329 115.037 43.2084 115.394 43.0481 115.685Z" fill="url(#paint25_linear)"/>
<path d="M48.4033 168.286C48.1147 169 47.6016 170.621 48.1468 172.437C48.2109 172.632 48.8522 174.772 49.7822 174.804C50.7121 174.804 51.6421 172.632 51.7383 170.783C51.8024 169.843 51.61 169.064 51.4497 168.546C51.4817 168.74 51.6421 170.556 50.6801 171.399C50.5197 171.529 50.1991 171.821 49.7181 171.821C49.7181 171.821 49.3653 171.821 49.0126 171.562C48.4354 171.075 48.1788 169.81 48.4033 168.286Z" fill="#452962"/>
<path d="M187.447 140.332C187.287 143.056 187.543 145.067 187.832 146.429C187.832 146.429 188.249 148.537 188.185 150.418C188.12 151.52 187.832 152.558 187.832 152.558C187.8 152.688 187.736 152.85 187.704 152.98C186.325 157.293 185.619 162.611 186.485 169.065C186.549 169.259 187.03 171.043 186.1 172.081C185.94 172.243 185.587 172.632 185.042 172.697C185.042 172.697 184.561 172.729 184.112 172.47C183.374 172.016 183.118 170.783 183.374 169.357C183.599 168.027 183.759 166.405 183.727 164.557C183.695 162.806 183.503 161.282 183.246 160.017C183.246 160.017 181.996 153.628 182.38 149.347C182.412 149.153 182.509 148.18 182.541 146.85C182.573 146.332 182.573 145.748 182.573 145.067C182.573 143.316 182.477 141.889 182.38 140.948C183.15 140.916 183.952 140.851 184.785 140.754C185.747 140.624 186.613 140.494 187.447 140.332Z" fill="url(#paint26_linear)"/>
<path d="M174.78 102.422C172.023 109.394 171.029 109.816 170.419 109.848C169.137 109.946 167.886 108.422 165.93 106.054C164.968 104.854 164.262 103.784 163.813 103.071C163.91 103.006 164.872 102.39 165 102.325C165.385 102.065 165.77 101.806 166.186 101.579C166.539 102.13 166.988 102.682 167.501 103.298C168.335 104.271 169.201 105.049 169.938 105.633C170.131 105.081 170.451 104.271 170.74 103.265C171.381 101.125 171.349 100.638 171.83 99.0494C172.536 96.7145 172.985 95.1903 174.396 94.2174C174.556 94.1201 176.223 93.0175 176.993 93.6012C177.955 94.3147 176.768 97.3955 174.78 102.422Z" fill="url(#paint27_linear)"/>
<path d="M175.903 166.44C175.871 166.505 175.807 166.602 175.774 166.667C175.261 167.477 174.684 168.126 174.043 168.775C172.696 170.169 172.504 170.364 172.087 170.428C171.702 170.493 171.349 170.396 171.125 170.299C170.836 170.623 170.451 171.045 170.002 171.531C168.816 172.893 168.784 173.088 168.848 173.217C168.976 173.542 169.778 173.509 171.285 173.444C172.119 173.412 172.504 173.38 172.632 173.347C174.139 172.763 173.53 170.428 175.197 169.358C175.903 168.937 176.544 168.969 176.961 168.288C177.218 167.867 177.25 167.413 177.282 167.056C177.314 166.051 176.929 165.207 176.64 164.688C176.512 165.11 176.288 165.726 175.903 166.44Z" fill="#F3BB2A"/>
<path d="M176.288 172.892C176.416 172.859 176.544 172.859 176.672 172.827C176.865 171.076 177.057 169.292 177.25 167.541C176.865 167.93 176.48 168.352 176.095 168.741C176.159 170.135 176.223 171.53 176.288 172.892Z" fill="#F3BB2A"/>
<path d="M176.865 97.7524C176.384 99.309 174.845 99.99 174.332 100.217C173.081 100.768 171.959 100.703 171.414 100.639C171.51 99.9576 171.67 99.0171 171.991 97.9469C172.344 96.6822 172.568 95.9363 173.177 95.1904C173.498 94.7688 174.492 93.4717 175.454 93.6662C176.545 93.8284 177.378 96.066 176.865 97.7524Z" fill="#6979F8"/>
<path d="M172.503 139.911C172.278 147.597 172.663 152.429 173.112 155.542C173.112 155.542 173.882 160.828 173.08 165.206C172.792 166.73 172.503 167.573 172.503 167.573C172.471 167.736 172.407 167.963 172.278 168.254C171.701 169.746 170.835 170.362 171.028 170.654C171.188 170.881 171.99 170.654 172.567 170.362C172.792 170.233 173.24 170.006 174.17 168.903C174.844 168.125 175.421 167.411 175.998 166.276C176.319 165.66 176.511 165.109 176.607 164.72C176.479 164.298 176.319 163.649 176.191 162.871C175.71 159.92 176.094 157.78 176.928 153.499C178.211 146.916 178.724 144.711 178.115 141.468C177.986 140.754 177.826 140.17 177.698 139.781C175.998 139.781 174.235 139.846 172.503 139.911Z" fill="url(#paint28_linear)"/>
<path opacity="0.35" d="M172.471 140.657C172.471 140.884 172.471 141.111 172.439 141.338C173.273 141.468 174.171 141.63 175.069 141.727C176.159 141.857 177.217 141.987 178.243 142.084C178.211 141.857 178.179 141.598 178.147 141.371C176.255 141.144 174.363 140.884 172.471 140.657Z" fill="url(#paint29_linear)"/>
<path d="M187.639 142.019C184.978 141.922 182.188 141.759 179.238 141.468C176.897 141.241 174.62 140.949 172.472 140.624C172.055 134.528 172.568 129.728 173.049 126.55C174.524 117.016 177.314 113.935 175.486 108.422C174.236 104.627 171.959 103.265 172.312 99.8928C172.632 96.8444 174.813 94.5419 176.641 93.0501C176.641 93.6014 176.769 96.6174 178.212 97.2011C179.687 97.7848 182.413 95.8066 184.433 91.7529C187.383 96.5201 187.832 100.282 187.639 102.909C187.351 106.768 185.651 109.2 186.517 113.513C187.03 116.14 188.185 117.826 188.698 118.702C190.686 122.139 191.84 128.625 187.639 142.019Z" fill="#6979F8"/>
<path d="M185.747 117.697C185.715 117.762 185.394 118.605 184.56 118.767C183.887 118.897 183.085 118.508 183.053 118.118C183.021 117.632 184.015 117.016 184.56 117.243C184.753 117.308 184.817 117.47 185.137 117.6C185.394 117.664 185.586 117.697 185.747 117.697Z" fill="#F7AE76"/>
<path d="M182.669 85.916C182.99 86.3376 185.074 89.2238 184.112 92.4668C183.086 95.9368 179.11 98.1096 177.891 97.2988C177.186 96.8448 177.122 95.2557 177.442 94.1856C177.731 93.31 178.148 93.1154 178.436 92.3047C178.789 91.2345 178.5 90.1643 178.212 89.4508C178.661 89.5157 179.302 89.5481 180.008 89.2887C182.092 88.5428 182.605 86.1106 182.669 85.916Z" fill="url(#paint30_linear)"/>
<path d="M180.168 82.5109C178.628 87.3753 178.372 89.5157 178.532 90.4886C178.564 90.6831 178.692 91.2344 178.532 91.9155C178.34 92.7911 177.923 93.0829 177.57 93.8612C177.249 94.5747 177.249 95.1909 177.249 96.1637C177.282 99.3743 178.596 101.061 178.019 101.547C177.538 101.936 175.935 101.32 175.005 100.088C173.658 98.2392 175.069 96.6502 173.882 93.6342C173.177 91.8182 172.504 92.0452 172.215 90.5858C171.83 88.4779 173.145 87.7969 172.985 85.2025C172.888 83.354 172.151 83.2568 172.119 81.6029C172.023 78.8139 173.915 76.7384 174.043 76.5763C176.191 74.2413 180.103 73.6576 183.663 75.344C182.027 78.068 180.905 80.5651 180.168 82.5109Z" fill="#450D20"/>
<path d="M177.089 77.3553C180.969 79.4957 183.182 82.9332 182.636 85.9167C182.187 88.3814 180.007 90.619 178.5 90.4569C177.73 90.392 177.089 89.8731 177.089 89.8731C176.768 89.6137 176.672 89.4191 176.159 88.5435C176.159 88.5435 174.684 85.9492 174.556 84.9438C174.491 84.3925 174.588 84.5871 174.652 82.9656C174.748 80.6307 174.524 80.1767 174.844 79.1714C175.037 78.5228 175.293 77.4202 176.063 77.1931C176.48 77.0959 176.864 77.2256 177.089 77.3553Z" fill="url(#paint31_linear)"/>
<path opacity="0.2" d="M174.074 136.798C173.401 137.414 172.791 137.868 172.406 138.16C172.406 138.485 172.406 138.809 172.406 139.133C173.401 139.717 174.395 140.268 175.421 140.852C177.313 137.609 179.205 134.334 181.097 131.091C181.225 131.318 182.604 133.62 185.426 133.847C188.151 134.074 189.883 132.128 190.043 131.934C190.107 131.512 190.172 131.091 190.204 130.669C185.49 127.232 182.957 127.232 181.481 127.913C179.044 129.08 178.788 132.615 174.074 136.798Z" fill="url(#paint32_linear)"/>
<path d="M173.434 100.218C172.985 100.51 172.408 100.931 172.023 101.612C170.74 103.753 171.606 107.417 174.107 108.844C175.55 109.655 177.346 109.622 178.725 108.974C179.943 108.39 180.617 107.385 180.841 107.028C181.386 106.217 181.611 105.471 181.707 104.953C185.042 106.963 188.377 108.974 191.712 110.952L185.715 121.427C186.806 121.297 187.96 121.492 188.986 122.108C191.552 123.6 192.449 126.94 190.942 129.534C189.467 132.129 186.164 133.004 183.599 131.512C182.573 130.896 181.835 130.021 181.386 128.983L175.39 139.458C168.175 135.242 160.96 131.026 153.745 126.81C153.2 126.486 152.398 125.934 151.66 124.994C151.436 124.702 150.602 123.664 150.217 122.14C149.704 120.227 149.929 118.151 150.987 116.303L163.493 94.4453C166.796 96.3587 170.131 98.272 173.434 100.218Z" fill="white"/>
<path d="M172.952 100.541C172.536 100.931 172.151 101.352 171.862 101.839C170.387 104.433 171.253 107.773 173.818 109.265C176.384 110.757 179.686 109.881 181.162 107.287C181.45 106.768 181.643 106.217 181.739 105.665L191.455 111.34L185.458 121.848C186.549 121.718 187.703 121.913 188.729 122.529C191.295 124.02 192.16 127.361 190.685 129.955C189.21 132.549 185.907 133.425 183.342 131.933C182.316 131.317 181.578 130.441 181.129 129.404L175.133 139.911C167.918 135.695 160.703 131.479 153.488 127.263C152.943 126.939 152.141 126.388 151.404 125.447C151.179 125.155 150.345 124.118 149.961 122.594C149.447 120.68 149.672 118.605 150.73 116.756L163.236 94.8662L172.952 100.541Z" fill="url(#paint33_linear)"/>
<path d="M189.178 94.2827C190.044 94.9638 190.492 95.7096 190.813 96.2285C192.032 98.3689 192.449 100.153 193.058 102.163C193.988 105.374 194.661 108.617 195.463 111.86C195.527 112.119 195.719 112.833 195.399 113.481C195.238 113.838 194.982 114.065 194.821 114.195C193.731 115.103 192.256 116.108 191.807 116.432C191.583 116.011 191.262 115.524 190.845 115.038C190.621 114.778 190.428 114.551 190.236 114.357C190.653 113.87 191.07 113.384 191.487 112.897C191.807 112.541 192.128 112.184 192.449 111.795C192.256 111.211 191.935 110.335 191.422 109.363C190.813 108.13 190.204 107.287 189.915 106.898C188.793 105.276 188.152 103.752 187.318 101.677C186.644 100.088 184.239 94.2503 185.714 93.1801C186.484 92.5964 188.28 93.6017 189.178 94.2827Z" fill="url(#paint34_linear)"/>
<path opacity="0.25" d="M188.761 105.018C189.307 104.985 190.236 104.888 191.295 104.369C192.257 103.915 192.866 103.299 193.219 102.91C193.187 102.78 193.155 102.65 193.123 102.521C191.551 103.104 189.98 103.72 188.409 104.304C188.505 104.531 188.633 104.791 188.761 105.018Z" fill="url(#paint35_linear)"/>
<path d="M193.25 102.39C192.769 102.909 191.968 103.655 190.749 104.206C189.948 104.563 189.21 104.725 188.665 104.79C188.152 103.687 187.639 102.52 187.126 101.255C186.58 99.9256 186.099 98.596 185.683 97.3637C186.035 96.4556 186.42 95.5476 186.805 94.6396C186.997 94.1856 187.222 93.6991 187.414 93.2451C187.991 93.4073 188.825 93.764 189.659 94.445C190.14 94.8342 190.525 95.2233 190.845 95.6449C191.294 96.2286 191.551 96.7799 191.807 97.3637C192.577 99.277 193.09 101.677 193.25 102.39Z" fill="#6979F8"/>
<path d="M186.228 77.8739C187.479 80.1115 186.741 81.8627 186.837 89.0296C186.869 91.3321 186.965 92.2077 187.382 93.2779C188.152 95.0615 189.146 95.3858 189.37 96.9749C189.595 98.5964 188.793 99.9584 188.408 100.575C187.254 102.52 185.458 103.299 184.753 103.558C183.566 104.045 182.476 104.466 181.963 104.012C180.841 102.974 184.144 99.245 182.668 96.6182C181.963 95.3534 181.001 95.8723 180.328 94.6724C178.981 92.3699 182.316 89.808 181.674 85.0732C181.418 83.1275 180.841 82.3491 180.392 81.96C179.75 81.4087 179.141 81.3114 176.896 80.6952C175.678 80.3709 174.684 80.0791 174.042 79.8845C174.235 79.1062 174.684 77.7442 175.902 76.8361C176.48 76.4145 177.057 76.2524 179.782 75.7984C181.674 75.5065 182.187 75.2471 182.829 75.2471C183.149 75.2471 183.438 75.2795 183.438 75.2795C183.566 75.3119 183.663 75.3119 183.727 75.3444C185.138 76.22 185.843 77.1928 186.228 77.8739Z" fill="#450D20"/>
<path opacity="0.35" d="M155.764 108.066C155.668 108.487 155.411 109.071 154.834 109.687C154.962 110.141 155.251 110.466 155.572 110.466C155.892 110.466 156.117 110.109 156.181 110.012C156.405 109.655 156.277 109.46 156.501 109.168C156.726 108.909 156.886 109.006 157.047 108.747C157.239 108.455 157.047 108.26 157.207 107.936C157.367 107.612 157.592 107.677 157.72 107.417C157.976 106.898 157.431 105.861 156.918 105.828C156.662 105.828 156.437 106.088 156.309 106.25C155.86 106.866 155.924 107.417 155.764 108.066Z" fill="url(#paint36_linear)"/>
<path d="M155.861 109.266C155.701 109.72 155.669 109.752 155.637 109.785C155.444 109.947 155.059 109.914 154.835 109.687C154.675 109.493 154.675 109.266 154.675 109.168C154.675 109.039 154.739 108.974 154.931 108.682C155.188 108.293 155.22 108.293 155.348 108.066C155.444 107.904 155.572 107.709 155.669 107.417C155.765 107.158 155.701 107.158 155.797 106.963C155.893 106.704 156.053 106.542 156.342 106.282C156.631 105.99 156.823 105.828 156.951 105.861C157.08 105.925 156.983 106.12 157.176 106.379C157.336 106.574 157.464 106.542 157.528 106.704C157.593 106.898 157.496 107.19 157.304 107.32C157.144 107.45 157.047 107.385 156.919 107.514C156.855 107.612 156.855 107.644 156.791 107.871C156.759 108.001 156.663 108.293 156.47 108.455C156.31 108.585 156.278 108.52 156.118 108.682C156.021 108.812 156.021 108.909 155.861 109.266Z" fill="url(#paint37_linear)"/>
<path opacity="0.65" d="M182.508 120.584C182.059 120.843 181.322 120.422 180.68 119.935C180.68 120.065 180.68 121.07 181.354 121.492C181.642 121.686 181.963 121.719 182.187 121.751C182.572 121.816 182.893 121.751 183.246 121.719C183.342 121.719 183.694 121.654 184.079 121.524C185.041 121.232 186.003 120.616 186.388 120.389C186.965 120.032 187.799 119.578 188.953 119.222C188.825 118.995 188.697 118.768 188.569 118.541C184.881 117.73 183.47 118.087 183.053 118.8C182.7 119.416 182.989 120.292 182.508 120.584Z" fill="url(#paint38_linear)"/>
<path d="M191.775 116.433C190.525 117.276 189.466 117.989 188.665 118.508C188.216 118.8 187.639 119.189 186.901 119.643C185.458 120.519 184.753 120.973 184.015 121.135C183.085 121.362 181.386 121.492 180.84 120.616C180.616 120.227 180.616 119.675 180.84 119.319C181.097 118.994 181.45 119.059 182.123 118.8C182.861 118.508 182.893 118.281 183.502 117.957C184.528 117.438 184.881 117.924 186.035 117.6C186.677 117.405 187.19 116.984 188.248 116.173C189.018 115.557 189.659 114.941 190.172 114.422C190.461 114.714 190.781 115.07 191.102 115.492C191.39 115.784 191.583 116.108 191.775 116.433Z" fill="url(#paint39_linear)"/>
<path d="M186.42 169.033C186.709 169.747 187.222 171.368 186.677 173.184C186.613 173.379 185.971 175.519 185.041 175.552C184.112 175.552 183.182 173.379 183.085 171.53C183.021 170.59 183.214 169.812 183.374 169.293C183.342 169.487 183.182 171.303 184.144 172.146C184.304 172.276 184.625 172.568 185.106 172.568C185.106 172.568 185.458 172.568 185.811 172.309C186.388 171.822 186.613 170.557 186.42 169.033Z" fill="#F3BB2A"/>
<path d="M227.017 122.56C226.279 127.165 226.023 131.057 225.894 133.976C225.734 138.256 225.542 145.131 227.337 153.725C228.235 158.006 229.39 161.508 230.32 164.038C231.121 164.07 231.955 164.07 232.757 164.103C232.211 156.644 232.404 147.985 234.071 138.548C234.456 136.408 234.873 134.365 235.354 132.419C235.931 137.413 236.957 143.218 238.785 149.607C240.389 155.152 242.28 160.016 244.14 164.103C245.07 164.103 246 164.103 246.93 164.103C246.802 162.935 246.642 161.119 246.449 158.946C245.808 150.936 245.744 144.807 245.744 142.991C245.712 137.705 245.904 131.089 246.61 123.436C243.563 123.014 240.196 122.69 236.605 122.528C233.173 122.398 229.967 122.431 227.017 122.56Z" fill="#6979F8"/>
<path d="M230.319 73.1705C229.902 74.1758 229.87 75.019 229.87 76.381C229.87 79.851 229.87 81.6022 230.511 82.2508C231.281 83.0291 232.082 82.6399 232.724 83.4507C233.525 84.4236 233.301 85.9477 232.948 87.1152C233.173 87.3747 234.006 88.4124 235.45 88.607C236.957 88.8016 238.464 88.0557 239.362 86.6612C238.72 83.0615 238.816 80.1753 239.041 78.0998C239.33 75.5378 239.939 73.5272 238.752 72.003C237.855 70.8355 236.347 70.5437 235.77 70.4464C235.289 70.3491 233.012 69.8951 231.441 71.322C230.8 71.9381 230.511 72.6516 230.319 73.1705Z" fill="url(#paint40_linear)"/>
<path d="M226.952 123.209C229.71 122.787 232.948 122.528 236.604 122.56C240.42 122.592 243.787 122.982 246.609 123.468C246.609 120.841 246.609 116.982 246.577 112.312C246.513 107.188 247.282 106.313 247.186 102.648C247.154 101.124 247.763 94.3137 243.691 89.7087C242.857 88.7683 241.51 87.5684 239.426 86.6279C238.272 88.0548 236.54 88.7683 235.001 88.3791C233.943 88.1197 233.301 87.4387 232.981 87.0819C230.511 87.99 227.497 89.6115 226.279 92.595C224.964 95.7731 226.375 99.0485 226.888 100.702C228.363 105.47 229.389 112.701 226.952 123.209Z" fill="white"/>
<path d="M221.885 168.869C222.27 168.934 225.06 169.291 227.241 169.064C228.042 168.999 228.459 168.967 228.812 168.869C229.613 168.642 229.966 168.383 230.672 168.448C231.024 168.48 231.089 168.578 231.505 168.675C231.986 168.772 232.596 168.837 233.397 168.707C233.429 168.156 233.397 167.67 233.365 167.313C233.333 167.021 233.333 166.761 233.237 166.437C233.173 166.145 233.077 165.756 232.884 165.302C232.596 165.335 232.243 165.302 231.858 165.237C231.121 165.108 230.575 164.816 230.255 164.621C229.517 165.14 228.876 165.432 228.395 165.594C226.182 166.405 224.258 165.951 222.751 166.891C222.174 167.248 221.982 167.605 221.885 167.897C221.757 168.286 221.821 168.642 221.885 168.869Z" fill="url(#paint41_linear)"/>
<path opacity="0.15" d="M231.218 87.7635C229.903 101.157 228.62 114.55 227.305 127.976C228.652 128.106 229.967 128.236 231.314 128.365C232.051 114.777 232.789 101.222 233.526 87.6338C232.757 87.6662 231.987 87.7311 231.218 87.7635Z" fill="url(#paint42_linear)"/>
<path opacity="0.1" d="M243.723 141.597C243.787 148.764 244.493 155.152 244.942 159.4C245.166 161.379 245.358 163 245.519 164.168C246 164.135 246.481 164.103 246.962 164.07C246.833 162.903 246.673 161.087 246.481 158.914C245.839 150.904 245.775 144.775 245.775 142.959C245.743 137.673 245.936 131.057 246.641 123.404C246.064 123.339 245.487 123.274 244.909 123.209C243.883 130.668 243.659 136.927 243.723 141.597Z" fill="url(#paint43_linear)"/>
<path opacity="0.15" d="M239.907 86.791C240.805 100.865 241.671 114.972 242.568 129.047C241.222 128.982 239.907 128.917 238.56 128.852C238.656 115.297 238.752 101.709 238.849 88.1531C239.201 87.6666 239.554 87.245 239.907 86.791Z" fill="url(#paint44_linear)"/>
<path d="M241.863 121.944C239.843 122.269 237.438 122.496 234.712 122.431C232.724 122.398 230.928 122.204 229.357 121.944C229.357 122.431 229.357 122.95 229.357 123.436C231.12 123.663 233.109 123.825 235.289 123.858C237.726 123.89 239.971 123.76 241.959 123.533C241.895 123.015 241.895 122.496 241.863 121.944Z" fill="url(#paint45_linear)"/>
<path d="M248.725 114.388C248.821 118.637 249.046 122.755 249.334 126.712C248.629 127.36 247.378 128.398 245.519 129.014C242.889 129.89 240.644 129.436 239.682 129.176C239.586 115.005 239.522 100.833 239.426 86.6611C240.356 86.9206 241.286 87.1476 242.28 87.3746C243.787 87.7313 245.23 87.9908 246.641 88.2502C247.507 89.3528 248.34 90.423 249.206 91.5256C248.725 98.6276 248.501 106.281 248.725 114.388Z" fill="#F3BB2A"/>
<path d="M226.215 108.13C225.67 113.967 224.9 119.415 224.002 124.442C224.098 124.864 224.611 126.874 226.599 128.139C228.299 129.209 230.031 129.047 230.512 128.982C231.345 114.973 232.179 100.963 233.013 86.9209C232.404 87.2128 231.377 87.6343 230.031 87.9586C228.523 88.3154 227.882 88.2505 226.856 88.7045C225.67 89.2234 225.028 89.9693 224.259 90.8125C220.924 94.3797 220.443 93.796 218.871 95.9688C218.038 97.1038 216.915 99.0171 216.178 101.774C218.102 100.444 220.25 99.1144 222.719 97.8173C224.194 97.0389 225.605 96.3579 226.984 95.7417C226.856 99.6982 226.632 103.817 226.215 108.13Z" fill="#F3BB2A"/>
<path d="M216.499 104.044C215.921 105.406 214.19 106.346 213.196 105.795C212.426 105.373 212.298 104.206 212.362 103.493C212.554 101.709 214.478 100.055 215.633 100.477C216.627 100.833 217.108 102.682 216.499 104.044Z" fill="url(#paint46_linear)"/>
<path opacity="0.25" d="M235.995 90.2605C236.444 89.1579 236.444 88.9633 236.348 88.8336C236.252 88.7363 236.156 88.7363 235.194 88.7363C234.392 88.7363 234.264 88.7363 234.168 88.8336C234.103 88.8985 233.975 89.0931 234.296 90.0335C234.424 90.4551 234.584 90.8767 234.745 91.201C234.007 94.4764 233.334 98.7247 233.366 103.719C233.398 108.259 234.007 113.707 234.681 113.675C235.354 113.675 236.092 107.837 236.252 103.038C236.38 98.4004 235.963 94.4439 235.482 91.3956C235.611 91.201 235.771 90.8118 235.995 90.2605Z" fill="url(#paint47_linear)"/>
<path d="M236.637 102.681C236.508 107.481 235.771 113.318 235.065 113.318C234.392 113.318 233.783 107.903 233.751 103.362C233.718 97.4602 234.648 92.5633 235.514 89.1582C236.156 92.3363 236.797 97.0062 236.637 102.681Z" fill="url(#paint48_linear)"/>
<path opacity="0.25" d="M225.573 107.48C225.221 107.577 224.868 107.707 224.515 107.804C224.804 106.961 225.092 105.923 225.221 104.691C225.413 103.037 225.317 101.642 225.189 100.572C225.381 101.513 225.573 102.615 225.637 103.848C225.734 105.21 225.67 106.442 225.573 107.48Z" fill="url(#paint49_linear)"/>
<path opacity="0.25" d="M228.619 99.9569C228.01 100.087 227.4 100.184 226.759 100.314C226.823 98.7894 226.887 97.2976 226.951 95.7734C227.176 96.9733 227.4 98.1732 227.593 99.3731C227.945 99.5677 228.266 99.7623 228.619 99.9569Z" fill="url(#paint50_linear)"/>
<path d="M226.343 88.5423C226.856 88.2829 227.433 88.1532 227.978 88.0883L223.136 77.8406L212.329 83.0617C212.522 81.9591 212.426 80.7916 211.913 79.7215C210.63 77.0298 207.423 75.8623 204.762 77.1595C202.1 78.4567 200.946 81.6997 202.228 84.3913C202.741 85.4615 203.575 86.3047 204.537 86.8236L193.731 92.0447L204.537 114.875C204.922 115.589 206.269 117.859 208.866 118.799C209.989 119.188 210.983 119.221 211.303 119.253C212.843 119.286 214.029 118.799 214.67 118.507L237.245 107.579L232.403 97.3308C231.986 97.7199 231.57 98.0766 231.024 98.3361C228.363 99.6333 225.156 98.4982 223.874 95.7741C222.527 93.0825 223.649 89.8395 226.343 88.5423Z" fill="white"/>
<path d="M226.663 89.222C227.177 88.9626 227.754 88.8328 228.299 88.768L223.457 78.5202L212.65 83.7414C212.843 82.6388 212.746 81.4713 212.233 80.4011C210.951 77.7095 207.744 76.542 205.083 77.8392C202.421 79.1364 201.267 82.3794 202.549 85.071C203.062 86.1736 203.896 86.9844 204.858 87.5032L194.052 92.7244L204.858 115.555C205.243 116.268 206.59 118.538 209.187 119.479C210.309 119.868 211.303 119.9 211.624 119.933C213.163 119.965 214.382 119.479 214.991 119.187L237.566 108.258L232.724 98.0104C232.339 98.3996 231.89 98.7563 231.345 99.0157C228.684 100.313 225.477 99.1779 224.194 96.4538C222.848 93.7621 223.97 90.5192 226.663 89.222Z" fill="url(#paint51_linear)"/>
<path opacity="0.35" d="M238.88 80.5322C238.528 81.1484 237.886 81.9916 236.924 82.8023C235.481 83.9698 234.038 84.3913 233.237 84.5535C233.205 84.3265 233.108 83.9049 232.82 83.5157C232.692 83.3536 232.531 83.2239 232.435 83.1266C233.012 83.1266 233.686 83.0617 234.423 82.8672C236.54 82.3807 238.047 81.2781 238.88 80.5322Z" fill="url(#paint52_linear)"/>
<path opacity="0.35" d="M239.266 85.6553C239.234 86.012 239.138 86.4984 238.881 86.9849C238.079 88.5739 236.38 89.0604 235.995 89.1252C235.931 88.7361 235.867 88.3145 235.803 87.9253C236.188 87.7956 236.636 87.601 237.117 87.3416C238.079 86.8227 238.785 86.1741 239.266 85.6553Z" fill="url(#paint53_linear)"/>
<path opacity="0.35" d="M233.172 86.2393C233.172 86.4987 233.172 86.9203 233.365 87.3743C233.685 88.1526 234.231 88.5417 234.455 88.7039C234.583 88.3147 234.744 87.9256 234.872 87.5689C234.615 87.4716 234.295 87.3094 233.942 87.05C233.589 86.7581 233.333 86.4663 233.172 86.2393Z" fill="url(#paint54_linear)"/>
<path d="M236.379 89.8386C235.994 90.8115 235.77 91.298 235.577 91.298C235.225 91.298 234.936 90.4224 234.647 89.6116C234.327 88.6712 234.455 88.4766 234.519 88.4117C234.615 88.3144 234.744 88.3145 235.545 88.3145C236.507 88.3145 236.636 88.3144 236.7 88.4117C236.86 88.5415 236.828 88.736 236.379 89.8386Z" fill="url(#paint55_linear)"/>
<path opacity="0.25" d="M197.9 100.378C198.06 100.703 198.125 100.962 198.189 101.124C198.285 101.481 198.349 101.773 198.413 102.032C198.477 102.097 198.67 102.389 199.022 102.454C199.119 102.486 199.343 102.519 199.568 102.389C199.824 102.227 199.888 101.967 199.888 101.903C199.952 101.578 199.824 101.286 199.76 101.157C199.535 100.703 199.343 100.703 199.247 100.411C199.151 100.087 199.311 99.9892 199.215 99.7298C199.087 99.4055 198.83 99.4703 198.638 99.146C198.477 98.8542 198.702 98.6596 198.509 98.4326C198.381 98.238 198.125 98.2056 197.932 98.1731C197.676 98.1407 197.676 98.2056 197.259 98.2056C197.162 98.2056 197.034 98.1731 196.874 98.238C196.778 98.2704 196.681 98.3029 196.649 98.3353C196.714 98.465 196.842 98.7244 197.002 98.9839C197.387 99.6325 197.643 99.7946 197.9 100.378Z" fill="url(#paint56_linear)"/>
<path d="M198.958 100.996C199.246 101.385 199.246 101.45 199.246 101.482C199.279 101.741 199.022 102.066 198.733 102.098C198.477 102.131 198.284 101.968 198.22 101.936C198.124 101.871 198.092 101.774 197.964 101.45C197.771 100.996 197.803 100.996 197.707 100.769C197.643 100.606 197.547 100.379 197.355 100.152C197.194 99.9254 197.162 99.9578 197.066 99.7957C196.906 99.5687 196.874 99.3417 196.809 98.9525C196.745 98.5309 196.681 98.3039 196.809 98.2066C196.906 98.1418 197.034 98.3039 197.355 98.3039C197.611 98.3039 197.643 98.1418 197.836 98.1742C198.028 98.2066 198.22 98.4661 198.22 98.6931C198.22 98.8877 198.124 98.9525 198.188 99.1147C198.22 99.212 198.284 99.2444 198.413 99.4065C198.509 99.5362 198.669 99.7308 198.701 100.023C198.733 100.217 198.637 100.25 198.701 100.444C198.669 100.606 198.733 100.639 198.958 100.996Z" fill="url(#paint57_linear)"/>
<path d="M230.704 165.173C230.832 165.27 231.185 165.562 231.762 165.595C232.34 165.627 232.724 165.368 232.853 165.27C232.853 165.108 232.821 164.849 232.821 164.687C232.788 164.298 232.756 163.941 232.756 163.552C232.436 163.617 232.019 163.681 231.57 163.714C231.025 163.714 230.544 163.649 230.191 163.584C230.351 164.135 230.512 164.654 230.704 165.173Z" fill="#F7AE76"/>
<path opacity="0.35" d="M230.063 73.9814C230.159 74.2733 230.383 74.6948 230.768 74.9543C231.666 75.5704 232.917 75.084 234.007 74.8246C235.129 74.5651 236.701 74.4678 238.817 75.084C238.881 74.5651 238.977 74.0138 239.041 73.495C238.24 73.1707 237.085 72.8139 235.674 72.7166C233.013 72.5869 231.025 73.495 230.063 73.9814Z" fill="url(#paint58_linear)"/>
<path d="M230.063 73.9809C232.211 75.4727 235.546 72.7486 237.278 74.1755C237.759 74.5647 238.304 75.4403 238.08 77.6455C238.336 77.7428 238.593 77.84 238.849 77.9373C238.946 77.4833 238.978 77.386 239.01 77.4185C239.074 77.4185 239.01 78.2941 238.978 80.1101C238.946 81.083 238.945 81.537 238.945 81.5694C239.266 81.6343 241.575 76.1537 240.164 72.1C239.875 71.3217 239.523 70.7704 239.01 70.3488C237.983 69.5705 236.829 69.9596 235.354 69.7975C234.36 69.7002 232.917 69.3435 231.249 68.1112C231.185 68.3057 231.153 68.5652 231.153 68.8246C231.153 69.084 231.153 69.3435 231.185 69.5381C230.544 69.0192 229.903 68.5003 229.261 67.9814C229.133 68.2733 228.877 69.0192 229.037 69.9596C229.165 70.6731 229.454 71.1595 229.646 71.419C229.55 71.3866 229.422 71.3541 229.325 71.3217C229.037 71.2244 228.812 71.1271 228.588 70.9974C228.716 72.0027 229.037 73.2999 230.063 73.9809Z" fill="#353D64"/>
<path d="M238.881 79.494C239.009 79.5264 239.266 79.5589 239.49 79.4616C240.003 79.2346 240.324 78.4887 240.035 77.9374C239.843 77.5807 239.426 77.3861 239.009 77.4185C239.009 77.8077 238.977 78.1968 238.945 78.586C238.913 78.8779 238.913 79.1697 238.881 79.494Z" fill="#F7AE76"/>
<path opacity="0.15" d="M244.589 100.994C244.493 104.173 242.216 106.248 240.388 107.87C235.643 112.118 229.903 112.961 226.856 113.156C223.81 115.523 222.784 115.782 222.463 115.49C222.367 115.426 222.303 115.264 222.303 115.134C222.335 114.647 223.425 114.582 224.547 113.966C225.349 113.512 225.413 113.22 226.215 112.539C226.856 112.021 227.882 111.34 229.422 110.885C237.663 105.989 239.747 103.167 240.068 101.481C240.1 101.221 240.356 99.5351 240.902 97.2651C241.158 96.13 241.415 95.2544 241.575 94.7031C244.557 97.6542 244.621 100.249 244.589 100.994Z" fill="url(#paint59_linear)"/>
<path d="M231.12 115.361C230.896 115.458 230.703 115.555 230.479 115.685C230.03 114.453 229.581 113.22 229.1 112.021C229.324 111.923 229.549 111.826 229.773 111.696C230.222 112.896 230.671 114.128 231.12 115.361Z" fill="white"/>
<path d="M232.596 87.1148C232.692 87.3094 232.788 87.504 232.885 87.6986C233.366 88.5417 233.943 89.1903 234.456 89.6443C234.584 89.0606 234.744 88.4769 234.873 87.8931C234.616 87.7959 234.103 87.5689 233.686 87.0824C233.43 86.7581 233.269 86.4663 233.173 86.2393C232.981 86.5311 232.788 86.823 232.596 87.1148Z" fill="#F2F2F2"/>
<path d="M239.907 86.7907C239.715 87.115 239.458 87.5041 239.105 87.8933C238.175 88.8986 237.085 89.2878 236.476 89.4824C236.38 88.9959 236.315 88.5095 236.219 88.023C236.764 87.8284 237.534 87.4717 238.304 86.8231C238.72 86.4664 239.041 86.0772 239.266 85.7529C239.49 86.0772 239.682 86.434 239.907 86.7907Z" fill="#F2F2F2"/>
<path d="M229.229 112.312C229.518 113.058 229.807 113.804 230.063 114.55C229.422 114.777 228.877 114.907 228.492 114.972C227.979 115.069 227.658 115.069 227.017 115.231C226.568 115.328 226.536 115.393 226.055 115.523C225.157 115.782 224.419 116.009 223.553 115.88C223.361 115.847 222.495 115.718 222.463 115.458C222.431 115.134 223.778 115.101 225.349 114.064C226.247 113.448 226.343 113.091 227.209 112.702C227.979 112.345 228.716 112.312 229.229 112.312Z" fill="url(#paint60_linear)"/>
<path d="M248.79 90.2284C249.72 92.0444 249.207 93.6983 247.507 99.8275C246.064 105.049 245.84 105.989 244.782 107.319C244.108 108.194 243.242 109.038 240.741 110.627C238.561 112.021 235.386 113.837 231.185 115.523C230.704 114.194 230.191 112.832 229.71 111.502C233.141 109.913 235.514 108.032 237.021 106.638C238.913 104.887 239.875 104.011 240.581 102.454C241.575 100.184 240.805 99.3087 241.703 94.2496C242.184 91.4931 242.665 90.2608 243.691 89.3203C243.98 89.0609 245.231 87.9259 246.642 88.2502C247.924 88.5096 248.598 89.8392 248.79 90.2284Z" fill="#F3BB2A"/>
<path d="M244.428 165.043C244.685 165.173 245.294 165.465 246.095 165.368C246.544 165.303 246.897 165.173 247.122 165.043C247.025 164.297 246.897 163.552 246.801 162.806C246.512 162.968 246.031 163.26 245.358 163.357C244.685 163.454 244.107 163.357 243.787 163.292C243.979 163.681 244.139 164.103 244.3 164.589C244.364 164.751 244.396 164.914 244.428 165.043Z" fill="#F7AE76"/>
<path d="M247.795 167.638C247.763 166.341 247.667 165.692 247.25 165.173C247.186 165.108 246.544 164.363 245.646 164.46C244.941 164.525 244.524 165.011 244.396 165.141C243.851 165.757 243.819 166.503 243.787 166.892C243.69 167.833 243.466 169.162 242.792 170.978C242.792 170.978 242.792 170.978 242.792 170.946C242.792 171.043 242.792 171.173 242.825 171.335C242.857 171.4 242.889 171.497 242.921 171.562C242.953 171.627 242.953 171.724 243.017 171.789L243.049 171.821C243.049 171.854 243.049 171.854 243.081 171.886C243.113 171.951 243.241 172.113 243.402 172.243C243.402 172.243 243.434 172.275 243.466 172.275C243.626 172.405 243.819 172.502 243.915 172.567C243.947 172.567 243.979 172.567 244.011 172.6C244.075 172.632 244.171 172.632 244.268 172.665C245.198 172.924 246.288 172.665 246.961 171.919C247.218 171.627 247.378 171.335 247.442 171.173C247.442 171.173 247.442 171.173 247.41 171.173C247.699 170.557 247.763 169.908 247.827 169.162C247.795 168.741 247.795 168.384 247.795 167.638Z" fill="url(#paint61_linear)"/>
<path opacity="0.15" d="M236.7 124.474C235.546 124.441 234.392 124.441 233.269 124.409C233.269 123.76 233.269 123.079 233.269 122.431C234.456 122.463 235.61 122.463 236.797 122.496C236.765 123.144 236.733 123.825 236.7 124.474Z" fill="url(#paint62_linear)"/>
<path d="M236.444 124.15C235.321 124.117 234.167 124.085 233.013 124.085C233.013 123.436 233.013 122.755 233.013 122.106C234.199 122.139 235.354 122.139 236.54 122.171C236.508 122.82 236.476 123.469 236.444 124.15Z" fill="url(#paint63_linear)"/>
<path d="M18.6274 88.7934C19.1758 90.2288 20.0299 91.5825 21.0917 92.6835L20.7641 92.9921C19.6159 91.8359 18.7413 90.457 18.1768 88.9511L18.6274 88.7934Z" fill="#6979F8"/>
<path d="M17.8173 82.7199C17.668 84.2633 17.7908 85.8361 18.149 87.3427L17.7029 87.455C17.3037 85.8982 17.2102 84.2597 17.339 82.6911L17.8173 82.7199Z" fill="#6979F8"/>
<path d="M19.5715 76.9012C18.8211 78.265 18.3134 79.7238 18.0076 81.2273L17.5586 81.1329C17.8483 79.5588 18.4057 78.0595 19.1605 76.6503L19.5715 76.9012Z" fill="#6979F8"/>
<path d="M23.4023 72.1089C22.2701 73.1562 21.2199 74.3041 20.3627 75.5875L19.997 75.3416C20.8791 74.0379 21.9337 72.8446 23.1157 71.7569L23.4023 72.1089Z" fill="#6979F8"/>
<path d="M28.4839 68.5989C27.106 69.3444 25.7896 70.1654 24.596 71.1372L24.3093 70.7852C25.5483 69.8182 26.8691 68.9519 28.2924 68.2113L28.4839 68.5989Z" fill="#6979F8"/>
<path d="M34.1653 66.2309C32.6777 66.6894 31.2267 67.2435 29.7874 67.9136L29.5753 67.5008C31.0147 66.8307 32.4657 66.2766 33.9781 65.7978L34.1653 66.2309Z" fill="#6979F8"/>
<path d="M40.2006 64.7047C38.6809 65.0221 37.1568 65.3848 35.6488 65.8181L35.5318 65.3697C37.0398 64.9364 38.5639 64.5737 40.129 64.2612L40.2006 64.7047Z" fill="#6979F8"/>
<path d="M46.3155 63.5316C44.7753 63.8238 43.2147 64.0909 41.6949 64.4082L41.6233 63.9647C43.1635 63.6725 44.7037 63.3803 46.2644 63.1132L46.3155 63.5316Z" fill="#6979F8"/>
<path d="M52.4396 62.267C50.9155 62.6297 49.3504 62.9422 47.8102 63.2344L47.7385 62.7909C49.2787 62.4987 50.7985 62.1813 52.3431 61.8437L52.4396 62.267Z" fill="#6979F8"/>
<path d="M58.4517 60.5088C56.9554 61.058 55.4678 61.5164 53.9393 61.9246L53.8223 61.4762C55.3259 61.0883 56.8135 60.6299 58.3098 60.0806L58.4517 60.5088Z" fill="#6979F8"/>
<path d="M64.0813 57.7225C62.74 58.5637 61.3417 59.284 59.8863 59.8836L59.7196 59.4757C61.1545 58.851 62.5484 58.176 63.8444 57.3299L64.0813 57.7225Z" fill="#6979F8"/>
<path d="M68.9509 53.7999C67.8348 54.9177 66.6368 55.935 65.3774 56.8768L65.1156 56.5044C66.3706 55.608 67.5686 54.5908 68.6598 53.4932L68.9509 53.7999Z" fill="#6979F8"/>
<path d="M72.8406 48.8753C71.9995 50.2292 71.0311 51.4777 70.0013 52.6507L69.6649 52.3392C70.6947 51.1661 71.6382 49.9379 72.4545 48.6042L72.8406 48.8753Z" fill="#6979F8"/>
<path d="M75.5175 43.2262C75.0054 44.7304 74.3617 46.1745 73.5864 47.5586L73.1959 47.3329C73.9464 45.9691 74.5652 44.5452 75.0977 43.0661L75.5175 43.2262Z" fill="#6979F8"/>
<path d="M76.8442 37.0851C76.7901 37.8819 76.6906 38.6739 76.5457 39.461C76.4009 40.248 76.2355 41.0099 76 41.7872L75.5758 41.6725C75.807 40.9406 75.9518 40.1536 76.1172 39.3917C76.262 38.6046 76.3571 37.8581 76.4113 37.0612L76.8442 37.0851Z" fill="#6979F8"/>
<path d="M76.3089 30.7889C76.5312 31.5697 76.6628 32.3408 76.7695 33.1321C76.8762 33.9235 76.9127 34.7301 76.9039 35.5319L76.4461 35.5283C76.43 34.7467 76.414 33.9652 76.3278 33.1991C76.2415 32.4329 76.1099 31.6618 75.8833 30.9263L76.3089 30.7889Z" fill="#6979F8"/>
<path d="M73.3715 25.1508C74.3953 26.4082 75.2494 27.7619 75.814 29.2678L75.4088 29.4304C74.8399 27.9699 74.0311 26.6211 73.0234 25.4342L73.3715 25.1508Z" fill="#6979F8"/>
<path d="M68.3371 21.3035L68.8842 21.569L69.4063 21.8548C69.7559 22.0302 70.0762 22.2712 70.4214 22.492C71.0869 22.9538 71.7026 23.4561 72.2891 24.0241L71.9819 24.3579C71.4159 23.815 70.8206 23.3379 70.1551 22.876C69.8304 22.6804 69.5101 22.4394 69.1606 22.264L68.6384 21.9782L68.1119 21.7378L68.3371 21.3035Z" fill="#6979F8"/>
<path d="M62.1532 20.1078C62.5452 20.0814 62.9577 20.0801 63.3453 20.0991C63.5515 20.0984 63.7329 20.118 63.9596 20.1426C64.141 20.1622 64.3472 20.1615 64.5491 20.2063C64.9323 20.2706 65.3404 20.3147 65.7192 20.4245C65.921 20.4692 66.1229 20.514 66.2999 20.579L66.8761 20.7789L66.7415 21.2231L66.1857 21.0483C65.9839 21.0035 65.8069 20.9385 65.6255 20.9189C65.2467 20.8092 64.884 20.77 64.5008 20.7056C64.2989 20.6609 64.1132 20.6866 63.9113 20.6419C63.73 20.6223 63.5486 20.6027 63.3424 20.6033C62.9752 20.6095 62.5876 20.5905 62.1956 20.617L62.1532 20.1078Z" fill="#6979F8"/>
<path d="M56.174 22.0074C57.5153 21.1662 59.0365 20.5967 60.6015 20.2843L60.6732 20.7278C59.1783 21.0249 57.682 21.5741 56.3905 22.3748L56.174 22.0074Z" fill="#6979F8"/>
<path d="M51.8411 26.5381C52.596 25.129 53.655 23.8903 54.8983 22.878L55.185 23.23C53.9709 24.1767 52.9821 25.4 52.2565 26.7436L51.8411 26.5381Z" fill="#6979F8"/>
<path d="M50.6003 32.7353C50.5024 31.1422 50.6605 29.508 51.2178 28.0086L51.6376 28.1687C51.1095 29.6024 50.9353 31.166 51.0376 32.7137L50.6003 32.7353Z" fill="#6979F8"/>
<path d="M52.6817 38.6931C52.1947 38.0441 51.8525 37.3191 51.5103 36.5941C51.364 36.2113 51.1929 35.8488 51.1169 35.4507L50.9428 34.8815L50.8186 34.2717L51.2603 34.2048L51.389 34.7691L51.563 35.3384C51.6639 35.7162 51.8145 36.0536 51.9608 36.4364C52.2825 37.1362 52.6247 37.8613 53.0708 38.4599L52.6817 38.6931Z" fill="#6979F8"/>
<path d="M57.6406 42.6008C56.1429 41.9802 54.7621 41.0971 53.6389 39.9207L53.9665 39.6121C55.0488 40.7382 56.3637 41.5913 57.7957 42.1818L57.6406 42.6008Z" fill="#6979F8"/>
<path d="M63.883 43.6653C62.299 43.7004 60.6871 43.5491 59.1514 43.085L59.2611 42.6611C60.7559 43.0749 62.318 43.2667 63.8567 43.2267L63.883 43.6653Z" fill="#6979F8"/>
<path d="M70.0612 42.5663C68.5487 43.045 67.0246 43.4078 65.4274 43.5791L65.3557 43.1356C66.9076 42.9593 68.4318 42.5966 69.9193 42.1382L70.0612 42.5663Z" fill="#6979F8"/>
<path d="M75.8573 40.189C75.1376 40.524 74.418 40.859 73.7232 41.1738C72.9831 41.4837 72.2678 41.7734 71.5321 42.0379L71.3653 41.6299C72.1011 41.3655 72.8163 41.0758 73.536 40.7408C74.2513 40.4511 74.9504 40.091 75.6701 39.7559L75.8573 40.189Z" fill="#6979F8"/>
<path d="M81.3439 37.2276C79.9821 38.0437 78.6247 38.8143 77.2264 39.5347L77.0143 39.1219C78.4127 38.4015 79.7701 37.6309 81.107 36.8351L81.3439 37.2276Z" fill="#6979F8"/>
<path d="M86.4993 33.6566C85.2399 34.5984 83.96 35.515 82.6392 36.3814L82.3774 36.0091C83.6734 35.163 84.9532 34.2463 86.2127 33.3046L86.4993 33.6566Z" fill="#6979F8"/>
<path d="M91.2634 29.6531C90.687 30.1642 90.1063 30.7207 89.53 31.2317C88.9332 31.7177 88.332 32.249 87.7103 32.7552L87.4237 32.4031C88.0409 31.9423 88.6217 31.3858 89.2185 30.8999C89.7948 30.3888 90.396 29.8575 90.9518 29.3213L91.2634 29.6531Z" fill="#6979F8"/>
<path d="M95.6157 25.147C95.1008 25.7335 94.5859 26.3201 94.0256 26.9017L93.2123 27.7311L92.8057 28.1459L92.399 28.5606L92.0875 28.2288L92.4942 27.814L92.9008 27.3993L93.7141 26.5698C94.2495 26.0085 94.7644 25.422 95.2793 24.8355L95.6157 25.147Z" fill="#6979F8"/>
<path d="M99.4599 20.2193C98.9859 20.8561 98.5573 21.4979 98.0629 22.1095L97.3316 23.0396L96.9659 23.5046L96.5797 23.9445L96.2184 23.6531L96.6046 23.2133L96.9703 22.7482L97.7017 21.8182C98.1756 21.1814 98.6247 20.5648 99.0986 19.928L99.4599 20.2193Z" fill="#6979F8"/>
<path d="M95.2389 14.3721L108.088 3.74314C105.412 7.7198 102.712 11.7167 100.036 15.6934C98.4757 15.2494 96.8449 14.8209 95.2389 14.3721Z" fill="#8F9CFF"/>
<path d="M100.061 15.6726C101.844 16.1864 103.647 16.7253 105.405 17.2594C106.302 12.7235 107.195 8.23308 108.092 3.69722C105.412 7.71926 102.736 11.6959 100.061 15.6726Z" fill="#6979F8"/>
<path d="M99.3481 15.4585C99.7591 16.4203 100.125 17.3772 100.536 18.339C100.973 17.6065 101.386 16.8942 101.803 16.1366C100.975 15.9324 100.172 15.708 99.3481 15.4585Z" fill="#4D5DDC"/>
<defs>
<linearGradient id="paint0_linear" x1="94.1477" y1="85.7212" x2="99.5677" y2="83.3096" gradientUnits="userSpaceOnUse">
<stop offset="2.7e-07" stop-color="#F2A36D"/>
<stop offset="1" stop-color="#FCD1B4"/>
</linearGradient>
<linearGradient id="paint1_linear" x1="92.9649" y1="89.2501" x2="99.8932" y2="89.2501" gradientUnits="userSpaceOnUse">
<stop offset="2.7e-07" stop-color="#F2A36D"/>
<stop offset="1" stop-color="#FCD1B4"/>
</linearGradient>
<linearGradient id="paint2_linear" x1="118.496" y1="155.975" x2="112.779" y2="183.962" gradientUnits="userSpaceOnUse">
<stop offset="2.7e-07" stop-color="#E0398A"/>
<stop offset="1" stop-color="#190F4C"/>
</linearGradient>
<linearGradient id="paint3_linear" x1="115.511" y1="169.374" x2="115.571" y2="174.969" gradientUnits="userSpaceOnUse">
<stop offset="2.7e-07" stop-color="#FF7BAC"/>
<stop offset="1" stop-color="#2E3192"/>
</linearGradient>
<linearGradient id="paint4_linear" x1="104.803" y1="160.942" x2="90.3883" y2="182.596" gradientUnits="userSpaceOnUse">
<stop offset="2.7e-07" stop-color="#E0398A"/>
<stop offset="1" stop-color="#190F4C"/>
</linearGradient>
<linearGradient id="paint5_linear" x1="97.8743" y1="173.132" x2="98.0596" y2="179.24" gradientUnits="userSpaceOnUse">
<stop offset="2.7e-07" stop-color="#FF7BAC"/>
<stop offset="1" stop-color="#2E3192"/>
</linearGradient>
<linearGradient id="paint6_linear" x1="135.037" y1="84.3368" x2="124.157" y2="128.576" gradientUnits="userSpaceOnUse">
<stop offset="1.3e-07" stop-color="#E6E6E6"/>
<stop offset="1" stop-color="#F2F2F2"/>
</linearGradient>
<linearGradient id="paint7_linear" x1="93.9896" y1="83.6985" x2="97.5918" y2="76.671" gradientUnits="userSpaceOnUse">
<stop offset="2.7e-07" stop-color="#F2A36D"/>
<stop offset="1" stop-color="#FCD1B4"/>
</linearGradient>
<linearGradient id="paint8_linear" x1="119.815" y1="112.49" x2="119.297" y2="106.766" gradientUnits="userSpaceOnUse">
<stop offset="2.7e-07" stop-color="#F2A36D"/>
<stop offset="1" stop-color="#FCD1B4"/>
</linearGradient>
<linearGradient id="paint9_linear" x1="122.819" y1="112.207" x2="122.303" y2="106.498" gradientUnits="userSpaceOnUse">
<stop offset="2.7e-07" stop-color="#F2A36D"/>
<stop offset="1" stop-color="#FCD1B4"/>
</linearGradient>
<linearGradient id="paint10_linear" x1="137.456" y1="106.796" x2="140.69" y2="106.796" gradientUnits="userSpaceOnUse">
<stop offset="2.7e-07" stop-color="#F2A36D"/>
<stop offset="1" stop-color="#FCD1B4"/>
</linearGradient>
<linearGradient id="paint11_linear" x1="148.153" y1="98.9114" x2="129.692" y2="115.515" gradientUnits="userSpaceOnUse">
<stop offset="2.7e-07" stop-color="#F2A36D"/>
<stop offset="1" stop-color="#FCD1B4"/>
</linearGradient>
<linearGradient id="paint12_linear" x1="67.8816" y1="153.222" x2="54.4652" y2="154.97" gradientUnits="userSpaceOnUse">
<stop offset="2.7e-07" stop-color="#F2A36D"/>
<stop offset="1" stop-color="#FCD1B4"/>
</linearGradient>
<linearGradient id="paint13_linear" x1="59.7709" y1="104.417" x2="75.4988" y2="81.788" gradientUnits="userSpaceOnUse">
<stop offset="2.7e-07" stop-color="#F2A36D"/>
<stop offset="1" stop-color="#FCD1B4"/>
</linearGradient>
<linearGradient id="paint14_linear" x1="67.9149" y1="153.477" x2="54.4991" y2="155.225" gradientUnits="userSpaceOnUse">
<stop offset="2.7e-07" stop-color="#F2A36D"/>
<stop offset="1" stop-color="#FCD1B4"/>
</linearGradient>
<linearGradient id="paint15_linear" x1="58.6264" y1="142.395" x2="60.4087" y2="138.918" gradientUnits="userSpaceOnUse">
<stop offset="2.7e-07" stop-color="#F2A36D"/>
<stop offset="1" stop-color="#FCD1B4"/>
</linearGradient>
<linearGradient id="paint16_linear" x1="44.8342" y1="84.0183" x2="73.301" y2="106.124" gradientUnits="userSpaceOnUse">
<stop offset="2.7e-07" stop-color="#F2A36D"/>
<stop offset="1" stop-color="#FCD1B4"/>
</linearGradient>
<linearGradient id="paint17_linear" x1="46.9949" y1="87.0353" x2="61.7543" y2="81.5017" gradientUnits="userSpaceOnUse">
<stop offset="2.7e-07" stop-color="#F2A36D"/>
<stop offset="0.1324" stop-color="#F4AC7B"/>
<stop offset="0.4895" stop-color="#F8C09A"/>
<stop offset="0.7914" stop-color="#FBCDAD"/>
<stop offset="1" stop-color="#FCD1B4"/>
</linearGradient>
<linearGradient id="paint18_linear" x1="44.5736" y1="133.439" x2="62.3983" y2="133.439" gradientUnits="userSpaceOnUse">
<stop offset="2.7e-07" stop-color="#F2A36D"/>
<stop offset="1" stop-color="#FCD1B4"/>
</linearGradient>
<linearGradient id="paint19_linear" x1="57.5943" y1="100.304" x2="67.9235" y2="134.707" gradientUnits="userSpaceOnUse">
<stop offset="1.3e-07" stop-color="#E6E6E6"/>
<stop offset="1" stop-color="#F2F2F2"/>
</linearGradient>
<linearGradient id="paint20_linear" x1="67.9468" y1="101.077" x2="32.8638" y2="105.553" gradientUnits="userSpaceOnUse">
<stop offset="2.7e-07" stop-color="#F2A36D"/>
<stop offset="1" stop-color="#FCD1B4"/>
</linearGradient>
<linearGradient id="paint21_linear" x1="19.3211" y1="108.697" x2="71.5778" y2="96.8926" gradientUnits="userSpaceOnUse">
<stop offset="5.4e-07" stop-color="#FCBD40"/>
<stop offset="0.2216" stop-color="#FAA843"/>
<stop offset="0.676" stop-color="#F4734A"/>
<stop offset="1" stop-color="#EF494F"/>
</linearGradient>
<linearGradient id="paint22_linear" x1="77.0128" y1="107.441" x2="79.9719" y2="107.441" gradientUnits="userSpaceOnUse">
<stop offset="2.7e-07" stop-color="#F2A36D"/>
<stop offset="1" stop-color="#FCD1B4"/>
</linearGradient>
<linearGradient id="paint23_linear" x1="84.4617" y1="122.035" x2="73.8397" y2="95.486" gradientUnits="userSpaceOnUse">
<stop offset="2.7e-07" stop-color="#F2A36D"/>
<stop offset="1" stop-color="#FCD1B4"/>
</linearGradient>
<linearGradient id="paint24_linear" x1="45.8554" y1="119.195" x2="54.12" y2="119.195" gradientUnits="userSpaceOnUse">
<stop offset="2.7e-07" stop-color="#F2A36D"/>
<stop offset="1" stop-color="#FCD1B4"/>
</linearGradient>
<linearGradient id="paint25_linear" x1="71.1421" y1="114.128" x2="34.0517" y2="118.86" gradientUnits="userSpaceOnUse">
<stop offset="2.7e-07" stop-color="#F2A36D"/>
<stop offset="1" stop-color="#FCD1B4"/>
</linearGradient>
<linearGradient id="paint26_linear" x1="152.525" y1="141.739" x2="191.965" y2="158.762" gradientUnits="userSpaceOnUse">
<stop offset="2.7e-07" stop-color="#F2A36D"/>
<stop offset="1" stop-color="#FCD1B4"/>
</linearGradient>
<linearGradient id="paint27_linear" x1="175.043" y1="105.159" x2="159.314" y2="82.5302" gradientUnits="userSpaceOnUse">
<stop offset="2.7e-07" stop-color="#F2A36D"/>
<stop offset="1" stop-color="#FCD1B4"/>
</linearGradient>
<linearGradient id="paint28_linear" x1="164.479" y1="154.31" x2="178.207" y2="155.544" gradientUnits="userSpaceOnUse">
<stop offset="2.7e-07" stop-color="#F2A36D"/>
<stop offset="1" stop-color="#FCD1B4"/>
</linearGradient>
<linearGradient id="paint29_linear" x1="176.188" y1="143.139" x2="174.405" y2="139.661" gradientUnits="userSpaceOnUse">
<stop offset="2.7e-07" stop-color="#F2A36D"/>
<stop offset="1" stop-color="#FCD1B4"/>
</linearGradient>
<linearGradient id="paint30_linear" x1="189.98" y1="84.7605" x2="161.512" y2="106.866" gradientUnits="userSpaceOnUse">
<stop offset="2.7e-07" stop-color="#F2A36D"/>
<stop offset="1" stop-color="#FCD1B4"/>
</linearGradient>
<linearGradient id="paint31_linear" x1="187.818" y1="87.7788" x2="173.059" y2="82.2455" gradientUnits="userSpaceOnUse">
<stop offset="2.7e-07" stop-color="#F2A36D"/>
<stop offset="0.1324" stop-color="#F4AC7B"/>
<stop offset="0.4895" stop-color="#F8C09A"/>
<stop offset="0.7914" stop-color="#FBCDAD"/>
<stop offset="1" stop-color="#FCD1B4"/>
</linearGradient>
<linearGradient id="paint32_linear" x1="190.24" y1="134.181" x2="172.415" y2="134.181" gradientUnits="userSpaceOnUse">
<stop offset="2.7e-07" stop-color="#E0398A"/>
<stop offset="1" stop-color="#190F4C"/>
</linearGradient>
<linearGradient id="paint33_linear" x1="149.683" y1="117.386" x2="191.465" y2="117.386" gradientUnits="userSpaceOnUse">
<stop offset="1.3e-07" stop-color="#E6E6E6"/>
<stop offset="1" stop-color="#F2F2F2"/>
</linearGradient>
<linearGradient id="paint34_linear" x1="166.866" y1="101.818" x2="201.95" y2="106.294" gradientUnits="userSpaceOnUse">
<stop offset="2.7e-07" stop-color="#F2A36D"/>
<stop offset="1" stop-color="#FCD1B4"/>
</linearGradient>
<linearGradient id="paint35_linear" x1="215.493" y1="109.439" x2="163.236" y2="97.6344" gradientUnits="userSpaceOnUse">
<stop offset="5.4e-07" stop-color="#FCBD40"/>
<stop offset="0.2216" stop-color="#FAA843"/>
<stop offset="0.676" stop-color="#F4734A"/>
<stop offset="1" stop-color="#EF494F"/>
</linearGradient>
<linearGradient id="paint36_linear" x1="157.8" y1="108.183" x2="154.841" y2="108.183" gradientUnits="userSpaceOnUse">
<stop offset="2.7e-07" stop-color="#F2A36D"/>
<stop offset="1" stop-color="#FCD1B4"/>
</linearGradient>
<linearGradient id="paint37_linear" x1="150.352" y1="122.777" x2="160.975" y2="96.2287" gradientUnits="userSpaceOnUse">
<stop offset="2.7e-07" stop-color="#F2A36D"/>
<stop offset="1" stop-color="#FCD1B4"/>
</linearGradient>
<linearGradient id="paint38_linear" x1="188.958" y1="119.938" x2="180.693" y2="119.938" gradientUnits="userSpaceOnUse">
<stop offset="2.7e-07" stop-color="#F2A36D"/>
<stop offset="1" stop-color="#FCD1B4"/>
</linearGradient>
<linearGradient id="paint39_linear" x1="163.671" y1="114.871" x2="200.76" y2="119.603" gradientUnits="userSpaceOnUse">
<stop offset="2.7e-07" stop-color="#F2A36D"/>
<stop offset="1" stop-color="#FCD1B4"/>
</linearGradient>
<linearGradient id="paint40_linear" x1="240.506" y1="79.935" x2="231.127" y2="79.1174" gradientUnits="userSpaceOnUse">
<stop offset="2.7e-07" stop-color="#F2A36D"/>
<stop offset="1" stop-color="#FCD1B4"/>
</linearGradient>
<linearGradient id="paint41_linear" x1="231.534" y1="137.348" x2="227.17" y2="171.098" gradientUnits="userSpaceOnUse">
<stop offset="2.7e-07" stop-color="#E0398A"/>
<stop offset="1" stop-color="#190F4C"/>
</linearGradient>
<linearGradient id="paint42_linear" x1="225.298" y1="99.7129" x2="235.895" y2="116.085" gradientUnits="userSpaceOnUse">
<stop stop-color="#414B7B"/>
<stop offset="1" stop-color="#471251"/>
</linearGradient>
<linearGradient id="paint43_linear" x1="258.535" y1="71.3735" x2="239.436" y2="178.387" gradientUnits="userSpaceOnUse">
<stop stop-color="#414B7B"/>
<stop offset="1" stop-color="#471251"/>
</linearGradient>
<linearGradient id="paint44_linear" x1="246.411" y1="99.5634" x2="235.217" y2="116.859" gradientUnits="userSpaceOnUse">
<stop stop-color="#414B7B"/>
<stop offset="1" stop-color="#471251"/>
</linearGradient>
<linearGradient id="paint45_linear" x1="247.014" y1="100.752" x2="232.371" y2="128.458" gradientUnits="userSpaceOnUse">
<stop offset="2.7e-07" stop-color="#E0398A"/>
<stop offset="1" stop-color="#190F4C"/>
</linearGradient>
<linearGradient id="paint46_linear" x1="209.607" y1="85.3186" x2="217.251" y2="112.375" gradientUnits="userSpaceOnUse">
<stop offset="2.7e-07" stop-color="#E0398A"/>
<stop offset="1" stop-color="#190F4C"/>
</linearGradient>
<linearGradient id="paint47_linear" x1="238.04" y1="93.9896" x2="55.1598" y2="459.511" gradientUnits="userSpaceOnUse">
<stop offset="2.7e-07" stop-color="#E0398A"/>
<stop offset="1" stop-color="#190F4C"/>
</linearGradient>
<linearGradient id="paint48_linear" x1="243.386" y1="88.8548" x2="224.91" y2="144.69" gradientUnits="userSpaceOnUse">
<stop offset="2.7e-07" stop-color="#E0398A"/>
<stop offset="1" stop-color="#190F4C"/>
</linearGradient>
<linearGradient id="paint49_linear" x1="225.924" y1="103.712" x2="223.931" y2="104.744" gradientUnits="userSpaceOnUse">
<stop offset="2.7e-07" stop-color="#E0398A"/>
<stop offset="1" stop-color="#190F4C"/>
</linearGradient>
<linearGradient id="paint50_linear" x1="228.067" y1="97.4218" x2="226.851" y2="99.2994" gradientUnits="userSpaceOnUse">
<stop offset="2.7e-07" stop-color="#E0398A"/>
<stop offset="1" stop-color="#190F4C"/>
</linearGradient>
<linearGradient id="paint51_linear" x1="209.248" y1="80.73" x2="223.716" y2="123.649" gradientUnits="userSpaceOnUse">
<stop offset="1.3e-07" stop-color="#E6E6E6"/>
<stop offset="1" stop-color="#F2F2F2"/>
</linearGradient>
<linearGradient id="paint52_linear" x1="237.107" y1="78.8326" x2="230.136" y2="92.7668" gradientUnits="userSpaceOnUse">
<stop offset="2.7e-07" stop-color="#F2A36D"/>
<stop offset="1" stop-color="#FCD1B4"/>
</linearGradient>
<linearGradient id="paint53_linear" x1="238.646" y1="84.7521" x2="233.456" y2="95.1256" gradientUnits="userSpaceOnUse">
<stop offset="2.7e-07" stop-color="#F2A36D"/>
<stop offset="1" stop-color="#FCD1B4"/>
</linearGradient>
<linearGradient id="paint54_linear" x1="233.648" y1="85.7647" x2="235.574" y2="92.4236" gradientUnits="userSpaceOnUse">
<stop offset="2.7e-07" stop-color="#F2A36D"/>
<stop offset="1" stop-color="#FCD1B4"/>
</linearGradient>
<linearGradient id="paint55_linear" x1="235.797" y1="88.5113" x2="210.81" y2="138.452" gradientUnits="userSpaceOnUse">
<stop offset="2.7e-07" stop-color="#E0398A"/>
<stop offset="1" stop-color="#190F4C"/>
</linearGradient>
<linearGradient id="paint56_linear" x1="199.162" y1="98.8215" x2="197.386" y2="101.423" gradientUnits="userSpaceOnUse">
<stop offset="2.7e-07" stop-color="#E0398A"/>
<stop offset="0.2334" stop-color="#A52D78"/>
<stop offset="0.4974" stop-color="#692065"/>
<stop offset="0.7226" stop-color="#3E1757"/>
<stop offset="0.8972" stop-color="#23114F"/>
<stop offset="1" stop-color="#190F4C"/>
</linearGradient>
<linearGradient id="paint57_linear" x1="206.94" y1="113.162" x2="190.694" y2="89.7032" gradientUnits="userSpaceOnUse">
<stop offset="2.7e-07" stop-color="#F2A36D"/>
<stop offset="1" stop-color="#FCD1B4"/>
</linearGradient>
<linearGradient id="paint58_linear" x1="235.938" y1="76.5688" x2="233.667" y2="72.1381" gradientUnits="userSpaceOnUse">
<stop offset="2.7e-07" stop-color="#F2A36D"/>
<stop offset="1" stop-color="#FCD1B4"/>
</linearGradient>
<linearGradient id="paint59_linear" x1="239.248" y1="99.7576" x2="230.592" y2="113.132" gradientUnits="userSpaceOnUse">
<stop stop-color="#414B7B"/>
<stop offset="1" stop-color="#471251"/>
</linearGradient>
<linearGradient id="paint60_linear" x1="222.485" y1="114.11" x2="230.072" y2="114.11" gradientUnits="userSpaceOnUse">
<stop offset="2.7e-07" stop-color="#F2A36D"/>
<stop offset="1" stop-color="#FCD1B4"/>
</linearGradient>
<linearGradient id="paint61_linear" x1="248.177" y1="157.098" x2="243.82" y2="176.37" gradientUnits="userSpaceOnUse">
<stop offset="2.7e-07" stop-color="#E0398A"/>
<stop offset="0.0834" stop-color="#B8317E"/>
<stop offset="0.1869" stop-color="#8E2871"/>
<stop offset="0.2961" stop-color="#6A2065"/>
<stop offset="0.4102" stop-color="#4D1A5C"/>
<stop offset="0.5306" stop-color="#361555"/>
<stop offset="0.6602" stop-color="#261250"/>
<stop offset="0.8057" stop-color="#1C104D"/>
<stop offset="1" stop-color="#190F4C"/>
</linearGradient>
<linearGradient id="paint62_linear" x1="235.57" y1="122.538" x2="234.47" y2="124.236" gradientUnits="userSpaceOnUse">
<stop stop-color="#414B7B"/>
<stop offset="1" stop-color="#471251"/>
</linearGradient>
<linearGradient id="paint63_linear" x1="235.325" y1="122.197" x2="234.225" y2="123.895" gradientUnits="userSpaceOnUse">
<stop stop-color="#F9E243"/>
<stop offset="1" stop-color="#E57C56"/>
</linearGradient>
</defs>
</svg>
