<svg width="203" height="204" viewBox="0 0 203 204" fill="none" xmlns="http://www.w3.org/2000/svg">
<path opacity="0.95" d="M97.2919 94.7559H47.3817C43.4387 94.7559 40.2417 91.5662 40.2417 87.6321V37.8347C40.2417 33.9007 43.4387 30.7109 47.3817 30.7109H97.2919C101.235 30.7109 104.432 33.9007 104.432 37.8347V87.6321C104.431 91.5662 101.235 94.7559 97.2919 94.7559Z" fill="url(#paint0_linear)"/>
<path d="M87.1944 80.1748H57.4761V81.6391H87.1944V80.1748Z" fill="#96BFE6"/>
<path d="M82.9866 84.79H61.686V86.2544H82.9866V84.79Z" fill="#96BFE6"/>
<path opacity="0.95" d="M194.43 155.807H123.402C118.757 155.807 114.991 152.05 114.991 147.415V61.3153C114.991 56.6806 118.757 52.9238 123.402 52.9238H194.43C199.075 52.9238 202.84 56.6806 202.84 61.3153V147.415C202.842 152.05 199.075 155.807 194.43 155.807Z" fill="url(#paint1_linear)"/>
<path d="M161.79 113.618H154.823V114.905H161.79V113.618Z" fill="#4598E6"/>
<path d="M168.915 125.416H128.37V127.909H168.915V125.416Z" fill="#96BFE6"/>
<path d="M161.156 137.384H128.37V139.877H161.156V137.384Z" fill="#96BFE6"/>
<path d="M147.591 131.399H128.37V133.892H147.591V131.399Z" fill="#96BFE6"/>
<path d="M179.521 63.1826V64.4418H186.95V71.3992H188.212V63.1826H179.521ZM129.068 71.3992H130.33V64.4418H137.759V63.1826H129.068V71.3992ZM186.95 107.297V114.257H179.521V115.517H188.212V107.297H186.95ZM130.33 107.297H129.068V115.517H137.759V114.257H130.33V107.297Z" fill="#4598E6"/>
<path d="M184.279 140.059C180.182 140.059 176.849 136.734 176.849 132.645C176.849 128.557 180.182 125.231 184.279 125.231C188.377 125.231 191.71 128.557 191.71 132.645C191.71 136.734 188.376 140.059 184.279 140.059ZM184.279 126.668C180.975 126.668 178.287 129.35 178.287 132.647C178.287 135.943 180.975 138.625 184.279 138.625C187.584 138.625 190.272 135.943 190.272 132.647C190.272 129.35 187.584 126.668 184.279 126.668Z" fill="#4598E6"/>
<path d="M183.806 135.565L180.43 132.196L181.446 131.181L183.806 133.536L187.111 130.235L188.129 131.25L183.806 135.565Z" fill="#4598E6"/>
<path opacity="0.1" d="M188.715 197.912C188.715 201.03 146.488 203.558 94.3999 203.558C42.3116 203.558 0.0849609 201.03 0.0849609 197.912C0.0849609 194.793 42.3116 192.266 94.3999 192.266C146.488 192.266 188.715 194.793 188.715 197.912Z" fill="#181818"/>
<path opacity="0.95" d="M152.026 49.3724H116.605C113.363 49.3724 110.735 46.751 110.735 43.5163V12.8513C110.735 9.61661 113.363 6.99512 116.605 6.99512H152.026C155.268 6.99512 157.895 9.61661 157.895 12.8513V43.5163C157.896 46.7497 155.268 49.3724 152.026 49.3724Z" fill="url(#paint2_linear)"/>
<path d="M136.009 41.3574H132.268V42.0483H136.009V41.3574Z" fill="#4598E6"/>
<path d="M145.525 14.6631V15.3394H149.513V19.0743H150.191V14.6631H145.525ZM118.441 19.0743H119.119V15.3394H123.107V14.6631H118.441V19.0743ZM149.514 38.3451V42.0813H145.526V42.7576H150.192V38.3451H149.514ZM119.118 38.3451H118.44V42.7576H123.106V42.0813H119.118V38.3451Z" fill="#4598E6"/>
<path d="M74.8335 73.0195H69.8379V73.9423H74.8335V73.0195Z" fill="#4598E6"/>
<path d="M87.3086 37.3635V38.2657H92.6365V43.2537H93.5407V37.3623H87.3086V37.3635ZM51.1318 43.2549H52.036V38.2669H57.3639V37.3647H51.1318V43.2549ZM92.6353 68.995V73.9855H87.3074V74.8876H93.5395V68.995H92.6353ZM52.036 68.995H51.1318V74.8876H57.3639V73.9855H52.036V68.995Z" fill="#4598E6"/>
<path d="M73.4195 19.7307C73.4195 19.7307 70.2724 17.7163 67.4344 21.297C64.5965 24.8777 65.6175 28.32 66.2102 31.5353C66.798 34.7238 69.659 42.0188 68.4433 45.2328C67.2275 48.4468 68.7816 50.12 68.7816 50.12C68.7816 50.12 78.5405 52.6128 77.4026 37.9682C76.2659 23.3235 73.4195 19.7307 73.4195 19.7307Z" fill="#163342"/>
<path d="M79.3617 52.1902C79.3617 52.1902 82.2191 59.7451 84.9184 66.7863H92.2409C91.1212 63.3391 89.987 59.6649 89.8617 58.9898C89.6232 57.6785 89.5136 53.7918 88.0143 51.0659C86.5126 48.3399 82.9383 47.2617 82.9383 47.2617C77.0397 47.5264 79.3617 52.1902 79.3617 52.1902Z" fill="#4598E6"/>
<path d="M61.0038 59.5661C61.0038 59.5661 62.1441 63.2707 63.2466 66.7859H87.1394C87.2404 66.4774 87.3645 66.152 87.5142 65.8072C89.263 61.7663 90.1136 58.3252 89.263 56.0303C88.4123 53.7355 83.5651 47.4507 82.3129 47.2018C81.063 46.9529 77.4645 45.2566 77.4645 45.2566C75.1121 44.9069 71.7691 45.0805 70.6178 45.4812C69.469 45.8795 63.0641 46.5279 60.7153 48.348C58.0112 50.4449 61.0038 59.5661 61.0038 59.5661Z" fill="#EDDAD3"/>
<path d="M78.6143 53.2624L80.8024 50.7065L78.9027 43.9785C78.9027 43.9773 78.2651 47.7244 78.6143 53.2624Z" fill="#D6C5BE"/>
<path d="M79.183 41.1099C79.183 41.1099 78.465 47.6995 78.6146 49.8438C78.6146 49.8438 74.8737 53.5836 70.6191 45.4775C70.6191 45.4775 72.4093 42.1359 71.0621 37.5838C69.7149 33.033 79.183 41.1099 79.183 41.1099Z" fill="#EEA886"/>
<path d="M78.614 49.8438V53.2618L74.3096 50.0514L78.614 49.8438Z" fill="#EEA886"/>
<path d="M78.6146 53.2621L76.8281 51.0547L70.8065 45.0674L68.8594 46.9385L78.6146 53.2621Z" fill="#D6C5BE"/>
<path d="M58.4946 53.5209C58.4946 53.5209 59.5266 57.3396 62.3183 66.7862H74.7521C75.1379 61.8164 75.3521 57.8568 75.2657 56.6596C75.0235 53.2914 69.9694 45.6406 69.9694 45.6406C69.9694 45.6406 66.8211 46.0195 63.4404 46.7516C59.5838 47.5858 58.4946 53.5209 58.4946 53.5209Z" fill="#4598E6"/>
<path d="M80.1357 46.4375C83.2159 50.1154 84.3099 58.196 84.484 66.7865H87.2489C90.4568 60.0901 89.5977 57.0522 89.5977 57.0522C87.9219 51.3284 82.9384 47.2607 82.9384 47.2607L80.1357 46.4375Z" fill="#4598E6"/>
<path d="M80.8025 50.7067L83.5589 51.4668L78.9028 43.9775L80.8025 50.7067Z" fill="#FAE6DE"/>
<path d="M76.828 51.0547L74.3101 54.3464L69.166 45.7461L70.8065 45.0674L76.828 51.0547Z" fill="#FAE6DE"/>
<path d="M79.0357 42.5604L78.903 43.8584C78.903 43.8584 75.9385 44.4376 72.0479 39.7021C72.0479 39.7034 74.8055 43.0594 79.0357 42.5604Z" fill="#A77860"/>
<path d="M78.2798 42.6565C79.4505 42.6141 82.7205 42.2316 84.333 34.7168C86.3033 25.5361 81.9489 20.774 78.2214 19.8912C74.4926 19.0085 71.0546 20.3016 69.1452 25.1002C69.1452 25.1002 67.7494 28.8412 70.0141 35.5072C72.2801 42.1733 77.0263 42.7027 78.2798 42.6565Z" fill="#EEA987"/>
<path d="M75.2887 25.8466C75.2887 25.8466 80.2953 26.1574 84.9502 33.1331C84.9502 33.1331 87.1286 24.7392 81.4344 20.9083C75.7402 17.0775 71.7522 20.3717 70.3636 22.0412C70.3636 22.0412 68.3702 22.4977 68.3082 26.2703C68.2449 30.0417 65.7039 35.7339 71.2812 38.4331C71.2812 38.4331 70.7494 34.1275 71.2411 33.1428C71.7327 32.1593 73.4377 32.8234 75.2887 25.8466Z" fill="#163342"/>
<path d="M71.5162 31.4706C71.2642 30.8174 70.5754 30.5551 70.197 31.2545C69.8185 31.9551 70.2688 34.6689 71.2801 34.9664C72.2889 35.2638 72.0273 32.7941 71.5162 31.4706Z" fill="#EEA987"/>
<path d="M53.6704 66.7854H61.8107C62.6662 64.6933 63.4621 62.8392 63.9939 61.506C65.7561 57.0802 72.7719 48.7591 68.302 45.9835C68.302 45.9835 62.4435 45.6253 59.507 49.0348C56.568 52.4467 56.7287 56.4949 55.9814 58.2543C55.4277 59.5584 54.347 64.0485 53.6704 66.7854Z" fill="#4598E6"/>
<path d="M107.801 129.213L82.9434 129.401L82.9606 131.673L107.818 131.485L107.801 129.213Z" fill="#323657"/>
<path d="M112.42 108.268L105.516 130.788L107.583 131.419L114.486 108.898L112.42 108.268Z" fill="#323657"/>
<path d="M154.967 134.442H153.027V190.708H154.967V134.442Z" fill="#706865"/>
<path d="M80.625 134.441H165.874V131.051H80.625V134.441Z" fill="#B59074"/>
<path d="M90.482 190.707H92.4219V134.442H90.482V190.707Z" fill="#706865"/>
<path d="M82.2157 126.911C82.2157 126.911 83.5008 127.17 84.1166 127.189C84.7311 127.209 87.5752 125.922 88.4855 126.044C89.3958 126.167 95.331 128.683 95.5999 128.866C95.8689 129.05 95.4733 129.454 95.4733 129.454L81.8481 129.615L82.2157 126.911Z" fill="#EEA886"/>
<path d="M58.9032 184.153L58.0294 186.04C58.0294 186.04 54.3481 184.67 54.3298 184.624C54.3116 184.578 55.3436 182.004 55.3436 182.004L58.9032 184.153Z" fill="#515269"/>
<path d="M90.4336 184.112L91.4522 187.082C91.4522 187.082 87.4119 187.97 86.8253 187.924C86.773 187.92 86.061 184.56 86.061 184.56L90.4336 184.112Z" fill="#6A6B8A"/>
<path d="M86.3725 187.058C86.3725 187.058 89.1958 186.293 89.2798 186.17C89.3638 186.048 90.3994 185.351 90.9337 185.439C91.4679 185.529 91.5154 186.165 92.0496 186.295C92.5826 186.425 96.7094 187.742 97.2802 188.078C97.8521 188.414 100.582 187.423 101.106 188.129C101.632 188.834 102.142 190.688 97.8533 191.33C93.5647 191.971 88.9731 193.881 87.9472 193.621C86.9201 193.361 86.2155 188.198 86.3725 187.058Z" fill="#51588F"/>
<path d="M54.0387 184.121C54.0387 184.121 56.6551 185.236 56.7927 185.193C56.9302 185.151 58.1423 185.242 58.4952 185.63C58.8481 186.02 58.5001 186.535 58.8286 186.955C59.1572 187.375 61.0228 189.839 61.568 190.407C62.0146 190.872 64.4632 191.307 65.2493 192.125C65.842 192.742 65.1459 195.21 60.979 194.031C56.9217 192.883 51.898 190.892 51.2725 190.076C50.647 189.26 53.2294 184.898 54.0387 184.121Z" fill="#51588F"/>
<path d="M56.7224 147.101C56.7224 147.101 68.2312 152.206 70.67 153.952C73.1088 155.698 78.4489 158.914 78.6266 159.7C78.8043 160.487 79.8618 159.72 77.9682 163.651C76.0746 167.583 67.1201 177.043 66.2817 178.071C65.4067 179.144 59.1953 185.569 59.1953 185.569L54.5245 182.059C54.5245 182.059 63.5058 168.882 64.8055 166.944C66.1052 165.007 66.6906 164.72 65.9214 163.864C65.1523 163.008 62.0819 163.021 46.276 156.489C44.6963 155.836 40.2897 154.324 39.7092 152.207C38.6602 148.384 39.5595 143.537 43.8079 141.406C48.0552 139.275 56.7224 147.101 56.7224 147.101Z" fill="#34395C"/>
<path d="M62.1956 110.134C62.0946 110.223 61.985 110.418 61.8706 110.686C61.7051 111.069 61.5299 111.605 61.3607 112.195C60.8387 114.016 60.3653 116.354 60.3653 116.354C60.3653 116.354 53.7778 110.877 54.7088 110.534C55.6398 110.19 56.3286 108.59 56.3286 108.59C56.3286 108.59 62.8905 109.52 62.1956 110.134Z" fill="#EEA886"/>
<path d="M61.785 129.051C61.785 129.051 56.4389 139.25 56.2077 143.074C55.9765 146.897 45.0469 141.87 45.0469 141.87L61.785 129.051Z" fill="#EDDCC5"/>
<path d="M56.2281 142.829L56.351 143.78L56.5421 145.034C56.5421 145.034 56.5421 145.034 56.5397 145.034C56.3754 145.023 45.8668 144.365 45.1062 144.558C44.3395 144.754 46.5532 142.086 46.5532 142.086L56.2281 142.829Z" fill="#323657"/>
<path d="M56.5407 145.034C56.5407 145.034 68.4317 147.825 71.3707 148.763C74.3109 149.7 79.3698 151.35 80.7291 152.124C81.4508 152.535 82.5534 153.15 83.8738 157.437C85.3706 162.298 88.7879 175.965 89.5631 178.093C90.0499 179.43 91.4506 184.69 91.4506 184.69L85.3743 185.742C85.3743 185.742 78.1382 171.206 77.5516 167.332C76.5635 160.81 74.0297 160.775 73.0063 160.181C71.9828 159.587 67.0529 160.702 49.5164 159.307C47.7639 159.167 42.9727 159.081 41.7327 157.194C39.4922 153.785 37.2311 149.913 40.7104 146.485C44.1909 143.057 56.5407 145.034 56.5407 145.034Z" fill="#494F80"/>
<path d="M64.5175 96.4071C64.5175 96.4071 66.5754 99.9526 66.1069 100.918C65.6384 101.883 68.2561 104.222 67.8265 104.717C67.3969 105.213 66.5109 105.812 66.5255 105.957C66.5401 106.101 65.7649 110.723 64.7549 110.826C63.7448 110.929 56.8409 110.572 56.2689 108.417C55.6957 106.263 54.0127 101.543 53.6159 100.667C53.2192 99.7887 57.1987 93.0195 64.5175 96.4071Z" fill="#EEA886"/>
<path d="M56.0055 95.7209C55.4311 96.1459 54.9662 96.5976 54.595 97.0578C54.1423 97.2702 51.4723 98.5938 52.0272 100.023C52.7744 101.947 55.7925 107.102 56.0468 107.641C56.0809 107.713 56.0809 107.577 56.0566 107.288C56.2428 105.467 58.4881 103.428 58.4881 103.428L59.6856 102.887C59.06 101.728 59.3071 100.643 59.3071 100.643C60.6628 99.1936 65.1692 97.6309 65.1692 97.6309C64.5291 91.2186 59.026 93.4855 56.0055 95.7209Z" fill="#403429"/>
<path d="M58.0452 101.92C57.7264 101.434 56.0457 101.514 56.2903 102.945C56.535 104.375 58.5977 105.524 59.0468 104.885C59.4971 104.249 58.3847 102.437 58.0452 101.92Z" fill="#EEA886"/>
<path d="M54.7083 110.535C54.7083 110.535 46.3648 115.386 44.4821 123.856C42.5995 132.327 39.1944 147.202 39.1348 148.963C39.1348 148.963 50.4258 143.541 56.5411 145.033C56.5411 145.033 60.3915 131.23 62.4178 127.97C64.4428 124.71 61.4333 117.046 61.4333 117.046C61.4333 117.046 58.5539 112.448 54.7083 110.535Z" fill="#5C9AFF"/>
<path d="M61.8703 110.688C61.7048 111.071 61.5296 111.607 61.3604 112.197C60.3747 111.788 58.4932 110.056 58.436 110.003C59.221 110.306 61.8703 110.688 61.8703 110.688Z" fill="#A77860"/>
<path d="M57.9565 114.946C57.9565 114.946 58.8376 115.954 60.0655 118.082C61.4578 120.493 62.5871 122.876 62.8889 123.412C63.5035 124.501 65.6709 125.622 66.6384 126.037C67.528 126.418 82.8776 126.743 83.065 126.726C83.2536 126.709 82.8423 131.377 82.8423 131.377C82.8423 131.377 61.6537 131.982 60.7288 131.138C59.8039 130.294 57.1302 127.11 56.0057 125.53C54.936 124.024 53.2955 121.553 52.4254 120.488C51.4531 119.298 49.411 115.225 52.0068 113.193C55.3255 110.597 57.1582 113.755 57.9565 114.946Z" fill="#5C9AFF"/>
<path d="M53.4756 121.893C53.4756 121.893 55.11 126.856 56.5411 129.052C57.9723 131.247 60.1421 133.426 60.1421 133.426L60.9356 131.111C60.9368 131.111 54.8994 123.873 53.4756 121.893Z" fill="#406CB3"/>
<path d="M26.7886 192.555L27.2948 193.977L48.7074 187.357L47.6815 184.477L26.7886 192.555Z" fill="#918783"/>
<path d="M49.4427 163.116H47.0088V186.344H49.4427V163.116Z" fill="#918783"/>
<path d="M55.4032 161.881H41.0479V163.249H55.4032V161.881Z" fill="#5E5854"/>
<path d="M69.8516 192.554L69.3454 193.976L47.9316 187.356L48.8724 184.295L69.8516 192.554Z" fill="#918783"/>
<path d="M54.7649 193.824V195.478L47.9316 187.356L48.8724 184.295L54.7649 193.824Z" fill="#918783"/>
<path d="M71.852 194.532C71.852 195.635 70.9563 196.528 69.8513 196.528C68.7463 196.528 67.8506 195.635 67.8506 194.532C67.8506 193.43 68.7463 192.536 69.8513 192.536C70.9563 192.536 71.852 193.43 71.852 194.532Z" fill="#BFB2AC"/>
<path d="M54.935 194.532C54.935 195.635 54.0393 196.528 52.9343 196.528C51.8293 196.528 50.9336 195.635 50.9336 194.532C50.9336 193.43 51.8293 192.536 52.9343 192.536C54.0381 192.536 54.935 193.43 54.935 194.532Z" fill="#BFB2AC"/>
<path d="M28.7895 194.532C28.7895 195.635 27.8938 196.528 26.7888 196.528C25.6838 196.528 24.7881 195.635 24.7881 194.532C24.7881 193.43 25.6838 192.536 26.7888 192.536C27.8938 192.536 28.7895 193.43 28.7895 194.532Z" fill="#BFB2AC"/>
<path d="M62.7582 161.881H33.8808C32.4642 161.881 31.3154 160.735 31.3154 159.321V159.256C31.3154 157.842 32.4642 156.696 33.8808 156.696H62.7582C64.1747 156.696 65.3236 157.842 65.3236 159.256V159.321C65.3236 160.736 64.1747 161.881 62.7582 161.881Z" fill="#E2D2CA"/>
<path d="M38.0081 153.066H27.8135C25.3601 153.066 23.3716 151.082 23.3716 148.634V125.09C23.3716 122.642 25.3601 120.658 27.8135 120.658H38.0081C40.4615 120.658 42.45 122.642 42.45 125.09V148.634C42.4512 151.082 40.4615 153.066 38.0081 153.066Z" fill="#E2D2CA"/>
<path d="M42.6679 160.59C39.2105 160.59 36.4066 159.432 34.3317 157.147C29.6439 151.982 30.4861 142.904 30.5238 142.52C30.5956 141.805 31.2345 141.282 31.9513 141.353C32.6681 141.425 33.1914 142.061 33.1208 142.776C33.1111 142.88 32.3638 151.108 36.2703 155.404C37.8511 157.142 39.9431 157.987 42.6667 157.987C43.3871 157.987 43.9713 158.57 43.9713 159.288C43.9725 160.007 43.3884 160.59 42.6679 160.59Z" fill="#E2D2CA"/>
<path d="M110.206 78.6261C110.206 78.6261 114.223 80.587 113.23 85.9211C112.237 91.2551 111.798 91.9739 112.909 94.0575C114.02 96.1411 115.33 105.033 114.331 106.718C113.331 108.403 101.954 99.3127 100.376 91.6862C98.7992 84.0585 101.377 80.6672 102.287 79.4032C103.197 78.138 106.658 76.8303 110.206 78.6261Z" fill="#0E2D3D"/>
<path d="M111.318 97.8809C111.318 97.8809 113.363 98.2961 114.512 99.9827C115.31 101.156 115.376 103.763 115.49 104.253C115.606 104.744 117.131 110.299 117.131 110.299L112.871 113.147L111.318 97.8809Z" fill="#5C9AFF"/>
<path d="M127.056 192.867C127.056 192.867 129.836 196.6 129.455 197.192C129.074 197.783 126.151 197.868 124.37 197.192C122.591 196.515 122.548 192.139 121.744 190.26C121.407 189.473 122.129 187.149 123.142 186.981C124.156 186.813 125.259 187.308 125.259 187.308C125.259 187.308 124.207 189.956 127.056 192.867Z" fill="#1D3B54"/>
<path d="M125.278 187.277C125.278 187.277 125.863 188.867 126.076 190.386C126.254 191.645 128.056 194.319 127.972 194.656C127.887 194.995 125.599 195.301 124.668 194.429C123.736 193.557 123.136 191.022 122.932 189.506C122.74 188.093 122.5 187.395 122.5 187.395C122.5 187.395 124.388 186.347 125.278 187.277Z" fill="#EEA886"/>
<path d="M102.86 192.929C102.86 192.929 105.54 196.6 105.158 197.192C104.777 197.783 101.854 197.868 100.073 197.192C98.2942 196.515 98.2516 192.139 97.4472 190.26C97.1101 189.473 97.8317 187.149 98.8455 186.981C99.8592 186.813 101.048 187.343 101.048 187.343C101.048 187.343 100.011 190.018 102.86 192.929Z" fill="#1D3B54"/>
<path d="M101.049 187.343C101.049 187.343 101.261 189.076 101.6 190.302C101.939 191.529 103.761 194.318 103.677 194.656C103.593 194.995 101.304 195.301 100.373 194.429C99.4404 193.558 98.7199 191.033 98.636 189.506C98.5508 187.978 98.8477 186.981 98.8477 186.981C98.8477 186.981 100.16 186.413 101.049 187.343Z" fill="#EEA886"/>
<path d="M114.44 126.557C114.44 126.557 116.825 137.628 117.373 140.416C117.92 143.204 119.455 156.705 119.619 159C119.783 161.296 122.108 169.945 121.998 170.766C121.889 171.585 125.445 188.055 125.445 188.055C125.445 188.055 124.23 189.03 122.95 188.143C122.292 187.687 115.148 172.724 115.148 168.625C115.148 162.958 110.948 155.561 110.407 154.294C105.372 142.517 106.364 138.916 105.707 138.151C105.05 137.386 104.992 138.623 104.609 140.318C104.226 142.012 103.404 156.661 102.911 158.519C102.418 160.377 102.801 166.663 102.527 169.833C102.253 173.003 101.051 187.343 101.051 187.343C101.051 187.343 100.12 188.799 98.8126 187.381C98.5314 187.076 96.5563 171.407 96.5015 167.635C96.4468 163.864 96.3884 158.662 96.2825 157.032C95.2675 141.403 92.7728 139.171 96.7023 128.11C104.056 107.401 114.44 126.557 114.44 126.557Z" fill="#EEA886"/>
<path d="M98.4207 123.462C98.4207 123.462 91.6252 132.951 94.5508 153.137C94.5508 153.137 110.669 155.324 119.305 150.607C119.305 150.607 115.735 129.794 114.441 126.556C113.146 123.317 98.4207 123.462 98.4207 123.462Z" fill="#141954"/>
<path d="M121.669 189.932V193.84H122.178V190.819L121.669 189.932Z" fill="#1D3B54"/>
<path d="M97.374 189.932V193.84H97.8827V190.819L97.374 189.932Z" fill="#1D3B54"/>
<path d="M107.541 96.4969C107.541 96.4969 110.044 97.6759 110.914 97.8495C111.783 98.0231 115.156 102.394 115.748 103.99C116.339 105.585 115.748 107.98 114.531 110.789C113.314 113.599 114.462 114.536 113.905 117.346C113.349 120.156 112.862 126.107 112.967 127.667C113.072 129.228 98.9027 129.524 95.6692 126.677C95.6692 126.677 98.9197 121.821 99.3371 121.127C99.7545 120.434 99.4065 116.652 99.0243 115.68C98.6422 114.709 96.0963 106.447 96.0963 106.447C96.0963 106.447 94.0141 100.103 95.8955 98.6448C97.5299 97.3784 101.984 96.9267 102.784 96.6499C103.579 96.3755 105.906 96.254 107.541 96.4969Z" fill="#EDDAD3"/>
<path d="M108.34 102.066L109.861 100.288L108.54 95.6084C108.541 95.6096 108.097 98.2153 108.34 102.066Z" fill="#D6C5BE"/>
<path d="M108.736 93.6147C108.736 93.6147 108.667 94.2412 108.586 95.107C108.551 95.4907 108.513 95.9217 108.476 96.3661C108.374 97.6277 108.291 98.9937 108.34 99.6882C108.34 99.6882 105.738 102.29 102.78 96.6527C102.78 96.6527 104.025 94.3287 103.088 91.162C102.151 87.9978 108.736 93.6147 108.736 93.6147Z" fill="#EEA886"/>
<path d="M108.34 99.6895V102.066L105.347 99.8339L108.34 99.6895Z" fill="#EEA886"/>
<path d="M108.34 102.065L107.098 100.531L102.91 96.3672L101.556 97.6688L108.34 102.065Z" fill="#D6C5BE"/>
<path d="M102.329 96.7656C102.329 96.7656 105.842 102.086 106.01 104.429C106.178 106.771 104.704 124.288 103.524 129.919C102.343 135.55 93.8159 129.284 93.8159 129.284C93.8159 129.284 99.5466 120.029 97.3463 112.618C95.1461 105.208 94.3477 102.245 94.3477 102.245C94.3477 102.245 95.1047 98.1183 97.7869 97.5379C100.139 97.0291 102.329 96.7656 102.329 96.7656Z" fill="#5C9AFF"/>
<path d="M115.978 104.703C115.978 104.703 116.612 106.941 114.143 111.886C114.143 111.886 114.182 118.216 114.251 120.194C114.32 122.172 115.722 129.282 115.722 129.282L112.349 131.075C111.857 131.362 111.248 130.963 111.317 130.398C112.008 124.707 114.258 103.121 109.399 97.3193L111.349 97.8924C111.349 97.8924 114.813 100.722 115.978 104.703Z" fill="#5C9AFF"/>
<path d="M109.861 100.289L111.778 100.817L108.541 95.6094L109.861 100.289Z" fill="#FAE6DE"/>
<path d="M107.098 100.53L105.346 102.821L101.751 96.8417L102.998 96.1387L107.098 100.53Z" fill="#FAE6DE"/>
<path d="M110.125 109.41L109.628 109.803L114.28 115.667L114.777 115.275L110.125 109.41Z" fill="#EB4747"/>
<path d="M109.344 114.992C109.344 114.992 109.788 115 110.08 114.781C110.585 114.401 110.767 113.467 111.657 113.535C112.548 113.603 112.961 116.389 112.738 116.916C112.515 117.443 111.279 117.708 109.451 117.344C107.623 116.981 109.344 114.992 109.344 114.992Z" fill="#EEA886"/>
<path d="M111.352 113.554C111.352 113.554 112.632 113.12 114.11 112.8C115.406 112.521 116.955 112.429 117.106 112.653C117.274 112.903 115.843 113.118 114.574 113.479C113.404 113.81 113.683 113.932 113.683 113.932C113.683 113.932 113.606 113.893 114.941 113.768C116.377 113.634 117.854 113.637 118.001 113.923C118.071 114.063 118.022 114.156 117.505 114.288C117.816 114.273 117.859 114.353 117.872 114.478C117.932 115.123 115.839 115.637 115.008 115.841C115.647 115.688 116.13 115.641 115.9 116.074C115.637 116.568 112.65 117.166 111.596 117.479C110.444 117.82 111.352 113.554 111.352 113.554Z" fill="#EEA886"/>
<path d="M98.2832 97.6337C97.4021 97.3495 94.8185 98.2638 94.3816 100.907C93.9447 103.552 93.7695 106.486 93.3618 107.91C92.9541 109.334 91.9148 115.642 92.7886 116.165C93.6624 116.688 95.3163 117.166 97.637 117.166C100.033 117.166 109.326 117.582 109.326 117.582L109.909 114.289C109.909 114.289 106.38 114.107 104.551 113.831C102.924 113.585 100.667 112.894 98.0106 112.604C98.0106 112.604 98.5741 108.696 98.9818 107.591C99.3894 106.486 102.243 98.9122 98.2832 97.6337Z" fill="#5C9AFF"/>
<path d="M110.16 120.066L119.519 118.214L126.462 103.394L116.471 104.441L110.16 120.066Z" fill="white"/>
<path d="M120.686 115.7C120.686 115.7 121.2 115.225 121.656 114.56C122.114 113.895 123.608 111.353 123.472 111.194C123.336 111.035 121.115 110.98 120.712 111.342C120.309 111.704 121.109 111.845 121.109 111.845C121.109 111.845 119.894 111.97 119.982 112.311C120.068 112.654 120.799 112.559 120.799 112.559C120.799 112.559 119.822 112.746 119.971 113.046C120.119 113.346 120.589 113.343 120.589 113.343C120.589 113.343 119.722 113.451 119.829 113.779C119.937 114.107 121.307 114.417 121.123 114.689C120.941 114.961 120.686 115.7 120.686 115.7Z" fill="#EEA886"/>
<path d="M109.623 79.2178C109.623 79.2178 115.456 81.0464 112.289 91.0904C109.123 101.134 101.156 89.926 101.989 83.8076C102.824 77.6879 109.623 79.2178 109.623 79.2178Z" fill="#EEA987"/>
<path d="M112.885 85.0781C112.885 85.0781 109.987 87.9158 105.136 88.2703C105.136 88.2703 103.271 90.451 103.128 91.3071C103.128 91.3071 98.8003 83.9465 104.12 79.534C109.441 75.1228 114.841 83.2592 112.885 85.0781Z" fill="#0E2D3D"/>
<path d="M105.196 88.4711C105.158 87.7401 104.707 86.0766 103.619 86.5417C102.53 87.008 103.686 90.3944 104.407 90.1868C104.406 90.1868 105.285 90.2001 105.196 88.4711Z" fill="#EEA987"/>
<path d="M108.586 95.1062C108.551 95.4899 108.513 95.921 108.477 96.3654H108.475C105.103 94.7043 104.586 92.3087 104.571 92.2334C106.975 95.3321 108.586 95.1062 108.586 95.1062Z" fill="#A77860"/>
<path d="M157.61 45.9144C157.61 45.9144 164.489 45.1956 166.967 51.8228C169.446 58.4512 171.779 60.621 172.072 64.1034C173.254 78.1871 179.846 75.001 177.992 83.1192C176.138 91.2374 174.854 92.465 174.854 92.465L159.095 89.3821L143.13 89.4331C143.13 89.4331 149.376 86.3211 147.986 79.6927C146.595 73.0643 143.13 62.2007 145.087 54.8013C147.044 47.4043 153.499 46.4791 157.61 45.9144Z" fill="#0E2D3D"/>
<path d="M185.132 103.548H131.139C133.745 96.8771 136.305 90.6567 137.035 89.8942C138.585 88.2805 146.217 83.2293 152.622 81.2113C159.023 79.1957 162.664 81.1445 162.664 81.1445C162.664 81.1445 174.549 84.4703 179.604 89.9185C181.015 91.4399 183.182 97.3992 185.132 103.548Z" fill="#EB4747"/>
<path d="M162.362 73.4483C162.362 73.4483 161.809 80.3002 163.131 82.3522C164.454 84.4054 162 87.1908 156.944 86.2377C151.889 85.2845 152.182 82.425 152.182 82.425C152.182 82.425 153.598 78.1971 153.184 74.8131C152.771 71.4291 162.362 73.4483 162.362 73.4483Z" fill="#EEA886"/>
<path d="M165.649 82.1107C165.649 82.1107 161.089 92.4024 155.182 94.6232C155.182 94.6232 148.887 89.6328 150.454 81.9893C150.454 81.9893 158.442 78.3127 165.649 82.1107Z" fill="#EEA886"/>
<path d="M158.517 49.7913C158.517 49.7913 167.627 51.1027 166.293 64.5222C164.959 77.9405 156.919 76.8756 156.381 76.8647C155.844 76.8537 148.315 77.1439 147.663 60.7702C147.665 60.769 147.361 48.6609 158.517 49.7913Z" fill="#EEA886"/>
<path d="M157.475 54.6548C157.475 54.6548 161.732 59.1195 163.71 61.3803C165.688 63.6412 165.915 68.0087 165.915 68.0087C165.915 68.0087 169.246 63.9496 167.852 59.2227C166.46 54.4957 163.164 45.2981 154.821 48.1248C146.479 50.9502 146.17 63.385 147.148 69.5508C147.147 69.5508 150.893 55.9394 157.475 54.6548Z" fill="#0E2D3D"/>
<path d="M153.973 76.2977C153.973 76.2977 157.869 78.2441 161.818 75.1709C161.818 75.1709 160.303 77.6855 157.657 77.8227C155.011 77.9599 153.973 76.2977 153.973 76.2977Z" fill="#A77860"/>
<path d="M149.283 35.6113H143.853C143.777 35.1462 143.71 34.6763 143.652 34.2125C143.652 34.2101 143.652 34.2089 143.652 34.2089C143.293 31.3834 143.203 28.8044 143.203 28.8044C143.203 28.8044 141.617 21.5628 146.198 21.1172C146.198 21.1172 147.425 21.5009 147.498 22.0036C147.774 23.939 148.405 28.1232 148.433 29.114C148.446 29.6228 148.929 33.0796 149.283 35.6113Z" fill="#323657"/>
<path d="M146.333 21.2705C146.266 23.2546 146.148 25.3807 145.98 27.6561C145.98 27.6561 145.751 31.3668 145.673 35.6129H126.369C125.919 33.522 125.418 31.6703 125.355 31.4384C125.355 31.436 125.352 31.4323 125.352 31.4311C125.352 31.4287 125.352 31.425 125.35 31.425C125.35 31.4178 125.35 31.4153 125.35 31.4153C125.35 31.4153 124.917 33.5013 124.57 35.6141H119.893C120.472 30.9758 121.888 20.6914 122.636 20.1559C123.274 19.7006 127.273 18.1014 129.349 17.3146C130.308 16.9492 131.038 16.6954 131.188 16.6857C131.662 16.6565 137.515 17.2163 137.515 17.2163C137.515 17.2163 138.353 17.5028 139.21 17.8962C140.675 18.5665 142.955 19.6131 144.591 20.3915C145.122 20.6416 145.784 20.9816 146.333 21.2705Z" fill="#D8D5E0"/>
<path d="M131.22 16.6721C131.65 20.6062 136.028 20.6062 136.028 20.6062C136.028 20.6062 137.841 19.0241 137.783 17.8536C137.782 17.8281 137.781 17.8014 137.777 17.7771C137.75 17.561 137.506 17.2938 137.48 16.8616C137.477 16.8033 137.475 16.7426 137.474 16.6831C137.473 16.6248 137.473 16.5665 137.473 16.5082C137.474 16.2095 137.491 15.9145 137.509 15.7093C137.516 15.6376 137.522 15.5757 137.527 15.5271C137.534 15.4543 137.539 15.413 137.539 15.413C137.539 15.413 136.833 14.6711 135.936 13.7872C134.369 12.2415 132.213 10.2599 132.21 11.0479C132.21 11.0892 132.216 11.1402 132.228 11.1973C132.606 12.9712 131.22 16.6721 131.22 16.6721Z" fill="#EEA886"/>
<path d="M134.206 18.9893L136.029 20.6078C136.029 20.6078 133.925 20.4682 133.532 20.1185L134.206 18.9893Z" fill="#B4B1BA"/>
<path d="M144.593 20.39C143.487 19.8654 142.082 19.2146 140.837 18.6415C140.245 18.3659 139.685 18.1109 139.21 17.8948L138.459 17.5742C138.501 17.675 139.865 20.9497 140.896 28.1318C141.16 29.9701 141.571 32.6366 141.975 35.6114H145.818C146.029 31.3871 146.134 27.7299 146.134 27.7299C146.305 25.4156 146.404 23.2507 146.468 21.2351C145.908 20.9971 145.182 20.6693 144.593 20.39Z" fill="#323657"/>
<path d="M134.429 35.6117H126.06C125.884 34.1461 125.696 32.8591 125.522 32.2605C125.522 32.2605 125.158 33.7479 124.824 35.6117H119.348C119.929 30.4804 121.116 20.7873 121.825 20.2798C122.364 19.8949 126.362 18.4803 128.321 17.7105C128.68 17.5685 129.028 17.4361 129.349 17.3135C129.764 17.7749 134.176 25.9162 134.52 32.5337C134.56 33.2938 134.518 34.3744 134.429 35.6117Z" fill="#323657"/>
<path d="M138.02 19.2748C138.02 19.2748 138.176 21.509 136.282 21.5612C134.388 21.6134 132.884 19.7982 132.884 19.7982L136.028 20.6068L137.941 18.9883L138.02 19.2748Z" fill="#D8D5E0"/>
<path d="M131.473 15.9365C131.473 15.9365 133.268 18.235 134.206 18.9878L132.67 21.5596L130.021 17.0621L131.473 15.9365Z" fill="#EAE6F2"/>
<path d="M137.649 19.4107L136.028 20.6067C136.028 20.6067 137.452 18.0168 137.48 16.8633L137.649 19.4107Z" fill="#B4B1BA"/>
<path d="M137.48 16.8633L138.52 17.5967L139.68 21.0475L137.649 19.4107L137.48 16.8633Z" fill="#EAE6F2"/>
<path d="M142.636 5.34685C142.636 5.34685 143.779 8.12255 143.033 8.45646C142.416 8.7333 143.407 11.4422 143.528 11.8818C143.649 12.3201 142.399 12.4986 142.11 12.7426C141.823 12.9867 140.705 16.2408 139.691 16.2359C138.677 16.2311 134.321 14.1876 133.224 12.7815C132.128 11.3754 131.725 5.49984 132.803 3.15276C133.88 0.804471 140.614 0.496058 142.636 5.34685Z" fill="#EEA886"/>
<path d="M142.858 5.94599C142.858 5.94599 144.607 3.26136 142.196 0.881501C139.786 -1.49836 134.542 1.68531 133.981 1.76788C133.418 1.85166 130.125 2.55348 131.221 7.55361C132.195 12.0061 132.289 12.1227 132.289 12.1227C132.289 12.1227 133.597 9.76834 134.209 9.41622C135.166 8.86497 137.098 9.22438 137.098 9.22438C137.098 9.22438 136.429 6.66724 137.917 6.47053C139.405 6.27383 141.448 5.24782 142.858 5.94599Z" fill="#0E2D3D"/>
<path d="M135.701 7.65337C135.608 7.30246 135.348 5.80898 134.01 6.53022C132.673 7.25146 134.41 10.1971 134.624 10.2542C134.838 10.3125 136.48 10.6051 135.701 7.65337Z" fill="#EEA886"/>
<path d="M133.396 12.9814C133.426 13.0567 134.421 15.4682 137.474 16.6848C137.473 16.6265 137.473 16.5682 137.473 16.51C137.474 16.2113 137.491 15.9162 137.509 15.711C137.515 15.6394 137.522 15.5774 137.526 15.5289C137.525 15.5277 134.245 13.9905 133.396 12.9814Z" fill="#A77860"/>
<defs>
<linearGradient id="paint0_linear" x1="76.9209" y1="145.641" x2="71.9309" y2="54.9926" gradientUnits="userSpaceOnUse">
<stop stop-color="#D1D7E0"/>
<stop offset="1" stop-color="#EBEBFF"/>
</linearGradient>
<linearGradient id="paint1_linear" x1="158.916" y1="170.912" x2="158.916" y2="77.5898" gradientUnits="userSpaceOnUse">
<stop stop-color="#D1D7E0"/>
<stop offset="1" stop-color="#EBEBFF"/>
</linearGradient>
<linearGradient id="paint2_linear" x1="134.316" y1="55.594" x2="134.316" y2="17.1546" gradientUnits="userSpaceOnUse">
<stop stop-color="#D1D7E0"/>
<stop offset="1" stop-color="#EBEBFF"/>
</linearGradient>
</defs>
</svg>
