<svg width="295" height="192" viewBox="0 0 295 192" fill="none" xmlns="http://www.w3.org/2000/svg">
<path d="M80.9931 1.22043L110.283 12.6841L77.554 19.7065L80.0018 11.525L76.0757 6.93694L100.863 10.6333L80.1005 5.35498L79.2889 3.36111L77.9225 0L80.9931 1.22043Z" fill="#004381"/>
<path fill-rule="evenodd" clip-rule="evenodd" d="M67.7584 5.48193L67.6729 6.40218C68.1839 6.446 68.6949 6.49859 69.206 6.55556L69.3069 5.63531C68.7914 5.57834 68.276 5.52576 67.7584 5.48193Z" fill="#004381"/>
<path fill-rule="evenodd" clip-rule="evenodd" d="M72.0817 5.9838L70.5376 5.78003L70.4214 6.69809L71.9501 6.89967L72.0817 5.9838Z" fill="#004381"/>
<path fill-rule="evenodd" clip-rule="evenodd" d="M74.8342 6.4242L73.2944 6.16565L73.1519 7.07933L74.6697 7.33568L74.8342 6.4242Z" fill="#004381"/>
<path fill-rule="evenodd" clip-rule="evenodd" d="M60.9242 6.07576V5.15112L59.3604 5.17522L59.3867 6.09986L60.9242 6.07576Z" fill="#004381"/>
<path fill-rule="evenodd" clip-rule="evenodd" d="M63.7225 5.21032C63.2027 5.19498 62.6829 5.1665 62.1631 5.16431L62.1455 6.08894C62.6588 6.09113 63.172 6.11961 63.6852 6.13495L63.7225 5.21032Z" fill="#004381"/>
<path fill-rule="evenodd" clip-rule="evenodd" d="M64.9511 5.27173L64.8984 6.19417C65.4117 6.21827 65.9227 6.25552 66.436 6.29715L66.5062 5.37471C65.9885 5.33527 65.4709 5.29802 64.9511 5.27173Z" fill="#004381"/>
<path fill-rule="evenodd" clip-rule="evenodd" d="M52.5165 5.88306C52.0033 5.99918 51.4857 6.09559 50.9746 6.23144L51.2049 7.12759C51.6962 6.99612 52.1985 6.9041 52.6964 6.79016L52.5165 5.88306Z" fill="#004381"/>
<path fill-rule="evenodd" clip-rule="evenodd" d="M53.7495 5.67043L53.8943 6.5841C54.3966 6.49208 54.9054 6.43949 55.4143 6.37814L55.309 5.46008C54.787 5.51924 54.2649 5.57402 53.7495 5.67043Z" fill="#004381"/>
<path fill-rule="evenodd" clip-rule="evenodd" d="M58.1473 6.15253L58.099 5.22791C57.577 5.24324 57.0572 5.29583 56.5352 5.33527L56.6141 6.2577C57.1252 6.21827 57.6362 6.16787 58.1473 6.15253Z" fill="#004381"/>
<path fill-rule="evenodd" clip-rule="evenodd" d="M45.2197 9.89922L44.6363 9.18054C44.2218 9.53111 43.8248 9.91455 43.4453 10.3068L44.134 10.9246C44.4806 10.5697 44.8403 10.2213 45.2197 9.89922Z" fill="#004381"/>
<path fill-rule="evenodd" clip-rule="evenodd" d="M47.5009 8.46189L47.0907 7.63367C46.6082 7.86592 46.152 8.15953 45.6826 8.42027L46.1849 9.1981C46.6236 8.95489 47.0447 8.67881 47.5009 8.46189Z" fill="#004381"/>
<path fill-rule="evenodd" clip-rule="evenodd" d="M50.0212 7.45832L49.7427 6.57751L48.2402 7.10994L48.5868 7.96884L50.0212 7.45832Z" fill="#004381"/>
<path fill-rule="evenodd" clip-rule="evenodd" d="M41.0459 16.9414C41.0678 17.4782 41.1161 18.015 41.1512 18.5497L42.0702 18.4445C42.0395 17.9427 41.9934 17.441 41.9715 16.9392L41.0459 16.9414Z" fill="#004381"/>
<path fill-rule="evenodd" clip-rule="evenodd" d="M42.3113 14.2836L41.4187 14.0404L41.2498 14.8445C41.1971 15.114 41.1248 15.3792 41.1226 15.6508L42.0438 15.7494C42.0416 15.4975 42.1118 15.2564 42.16 15.0132L42.3113 14.2836Z" fill="#004381"/>
<path fill-rule="evenodd" clip-rule="evenodd" d="M43.0309 12.5154L43.3971 11.869L42.6273 11.3563L42.2171 12.075C42.0811 12.316 41.9342 12.5505 41.853 12.8156L42.704 13.1793C42.7742 12.9405 42.908 12.7323 43.0309 12.5154Z" fill="#004381"/>
<path fill-rule="evenodd" clip-rule="evenodd" d="M43.1621 25.1973C43.3902 25.6705 43.5942 26.1569 43.8596 26.6083L44.6777 26.1767C44.4189 25.7363 44.2215 25.2652 44 24.8051L43.1621 25.1973Z" fill="#004381"/>
<path fill-rule="evenodd" clip-rule="evenodd" d="M42.083 22.5746L42.6489 24.0536L43.5043 23.7008L42.9603 22.2766L42.083 22.5746Z" fill="#004381"/>
<path fill-rule="evenodd" clip-rule="evenodd" d="M42.2699 19.6517L41.3618 19.8248L41.5088 20.6092L41.7259 21.3739L42.6186 21.1263L42.408 20.3967L42.2699 19.6517Z" fill="#004381"/>
<path fill-rule="evenodd" clip-rule="evenodd" d="M47.5771 32.3863L48.5247 33.6286L49.2507 33.0545L48.3185 31.8319L47.5771 32.3863Z" fill="#004381"/>
<path fill-rule="evenodd" clip-rule="evenodd" d="M45.9507 30.101L46.8434 31.3871L47.5957 30.8503L46.7206 29.5883L45.9507 30.101Z" fill="#004381"/>
<path fill-rule="evenodd" clip-rule="evenodd" d="M44.4692 27.7192C44.7149 28.1837 45.0132 28.6131 45.283 29.0601L46.0682 28.5693C45.805 28.1311 45.5111 27.7104 45.272 27.259L44.4692 27.7192Z" fill="#004381"/>
<path fill-rule="evenodd" clip-rule="evenodd" d="M53.6926 38.14L53.0215 38.7776L54.1072 39.8929L54.7696 39.2465L53.6926 38.14Z" fill="#004381"/>
<path fill-rule="evenodd" clip-rule="evenodd" d="M51.1328 36.7202C51.4706 37.1146 51.8281 37.4915 52.1812 37.8727L52.8612 37.2461C52.5124 36.8692 52.1593 36.4967 51.8259 36.1067L51.1328 36.7202Z" fill="#004381"/>
<path fill-rule="evenodd" clip-rule="evenodd" d="M49.3213 34.6014C49.6503 35.0045 49.9771 35.4099 50.3236 35.7955L51.0255 35.193C50.6812 34.8117 50.3609 34.4107 50.0363 34.0142L49.3213 34.6014Z" fill="#004381"/>
<path fill-rule="evenodd" clip-rule="evenodd" d="M59.6564 43.9222L59.0356 44.608L60.1915 45.6466L60.8057 44.952L59.6564 43.9222Z" fill="#004381"/>
<path fill-rule="evenodd" clip-rule="evenodd" d="M57.6234 42.0466L56.9873 42.7171L58.1235 43.7798L58.7507 43.0983L57.6234 42.0466Z" fill="#004381"/>
<path fill-rule="evenodd" clip-rule="evenodd" d="M55.6402 40.1295L54.9888 40.7868L56.1008 41.8714L56.7456 41.2075L55.6402 40.1295Z" fill="#004381"/>
<path fill-rule="evenodd" clip-rule="evenodd" d="M65.9865 49.3123L65.4053 50.0331L66.6204 50.9994L67.195 50.2741L65.9865 49.3123Z" fill="#004381"/>
<path fill-rule="evenodd" clip-rule="evenodd" d="M63.8456 47.5551L63.2534 48.265L64.451 49.2531L65.0366 48.5388L63.8456 47.5551Z" fill="#004381"/>
<path fill-rule="evenodd" clip-rule="evenodd" d="M61.744 45.7671L61.1387 46.466L62.3165 47.4783L62.9153 46.7728L61.744 45.7671Z" fill="#004381"/>
<path fill-rule="evenodd" clip-rule="evenodd" d="M72.5842 54.3759L72.0381 55.1208L73.2949 56.0323L73.8344 55.2808L72.5842 54.3759Z" fill="#004381"/>
<path fill-rule="evenodd" clip-rule="evenodd" d="M70.3645 52.7216L69.8052 53.4599L71.0466 54.389L71.5993 53.6462L70.3645 52.7216Z" fill="#004381"/>
<path fill-rule="evenodd" clip-rule="evenodd" d="M68.1733 51.041L67.603 51.7706L68.8313 52.7216L69.395 51.9876L68.1733 51.041Z" fill="#004381"/>
<path fill-rule="evenodd" clip-rule="evenodd" d="M80.697 59.9806L79.4051 59.1349L78.894 59.9061L80.1947 60.7585L80.697 59.9806Z" fill="#004381"/>
<path fill-rule="evenodd" clip-rule="evenodd" d="M77.1111 57.5858L76.5869 58.3483L77.87 59.2204L78.3876 58.4535L77.1111 57.5858Z" fill="#004381"/>
<path fill-rule="evenodd" clip-rule="evenodd" d="M74.8477 56.0039L74.3125 56.7576L75.5824 57.6516L76.111 56.8935L74.8477 56.0039Z" fill="#004381"/>
<path opacity="0.3" d="M147.5 191.925C228.962 191.925 295 186.679 295 180.207C295 173.735 228.962 168.489 147.5 168.489C66.038 168.489 0 173.735 0 180.207C0 186.679 66.038 191.925 147.5 191.925Z" fill="#606060"/>
<path d="M227.757 13.5628H225.531C225.013 13.5628 224.55 13.2319 224.395 12.7389C224.241 12.2591 224.048 11.7946 223.818 11.3542C223.579 10.8941 223.669 10.3309 224.037 9.96503L225.614 8.38966C226.083 7.92077 226.083 7.15827 225.614 6.68938L224.656 5.73188C224.186 5.26299 223.423 5.26299 222.953 5.73188L221.376 7.30726C221.008 7.67536 220.447 7.7652 219.986 7.52637C219.545 7.29631 219.08 7.10349 218.6 6.95012C218.106 6.79236 217.775 6.33224 217.775 5.81514V3.5912C217.775 2.92731 217.235 2.38831 216.571 2.38831H215.215C214.551 2.38831 214.011 2.92731 214.011 3.5912V5.81514C214.011 6.33224 213.68 6.79455 213.187 6.95012C212.706 7.10349 212.241 7.29631 211.8 7.52637C211.34 7.7652 210.776 7.67536 210.41 7.30726L208.833 5.73188C208.363 5.26299 207.6 5.26299 207.131 5.73188L206.172 6.68938C205.703 7.15827 205.703 7.92077 206.172 8.38966L207.749 9.96503C208.118 10.3331 208.208 10.8941 207.969 11.3542C207.738 11.7968 207.545 12.2591 207.392 12.7389C207.234 13.2319 206.773 13.5628 206.256 13.5628H204.029C203.365 13.5628 202.825 14.1018 202.825 14.7657V16.1198C202.825 16.7837 203.365 17.3227 204.029 17.3227H206.256C206.773 17.3227 207.236 17.6535 207.392 18.1465C207.545 18.6264 207.738 19.0909 207.969 19.5313C208.208 19.9914 208.118 20.5545 207.749 20.9204L206.172 22.4958C205.703 22.9647 205.703 23.7272 206.172 24.1961L207.131 25.1536C207.6 25.6224 208.363 25.6224 208.833 25.1536L210.41 23.5782C210.778 23.2101 211.34 23.1202 211.8 23.3591C212.243 23.5891 212.706 23.7819 213.187 23.9353C213.68 24.0931 214.011 24.5532 214.011 25.0703V27.2942C214.011 27.9581 214.551 28.4971 215.215 28.4971H216.571C217.235 28.4971 217.775 27.9581 217.775 27.2942V25.0703C217.775 24.5532 218.106 24.0909 218.6 23.9353C219.082 23.7819 219.545 23.5891 219.986 23.3591C220.447 23.1202 221.01 23.2101 221.376 23.5782L222.953 25.1536C223.423 25.6224 224.186 25.6224 224.656 25.1536L225.614 24.1961C226.083 23.7272 226.083 22.9647 225.614 22.4958L224.037 20.9204C223.669 20.5523 223.579 19.9914 223.818 19.5313C224.048 19.0887 224.241 18.6264 224.395 18.1465C224.552 17.6535 225.013 17.3227 225.531 17.3227H227.757C228.422 17.3227 228.961 16.7837 228.961 16.1198V14.7657C228.961 14.0996 228.422 13.5628 227.757 13.5628ZM220.431 16.3454C220.089 18.1531 218.608 19.6321 216.799 19.9739C213.542 20.5917 210.739 17.7916 211.357 14.5378C211.699 12.7302 213.18 11.2512 214.989 10.9094C218.247 10.2915 221.047 13.0917 220.431 16.3454Z" fill="#004381"/>
<path d="M260.192 59.9041L264.484 62.2486L260.192 64.5952L257.843 68.8853L255.494 64.5952L251.201 62.2486L255.494 59.9041L257.843 55.614L260.192 59.9041Z" fill="white"/>
<path d="M270.597 67.5268L273.085 68.8853L270.597 70.2415L269.238 72.7262L267.878 70.2415L265.393 68.8853L267.878 67.5268L269.238 65.0421L270.597 67.5268Z" fill="white"/>
<path d="M184.339 15.3836L180.044 17.7303L184.339 20.0769L186.688 24.3648L189.034 20.0769L193.329 17.7303L189.034 15.3836L186.688 11.0935L184.339 15.3836Z" fill="white"/>
<path d="M173.934 23.0063L171.446 24.3648L173.934 25.7232L175.291 28.2079L176.651 25.7232L179.138 24.3648L176.651 23.0063L175.291 20.5238L173.934 23.0063Z" fill="white"/>
<path d="M71.8005 165.249L69.6949 166.14C69.6445 165.926 68.8022 163.248 68.8022 163.248L70.9342 162.44L71.8005 165.249Z" fill="#F6C5AE"/>
<path d="M70.6886 166.622C70.6886 166.622 69.4538 173.835 69.4384 173.982C69.4318 174.048 69.4538 174.381 69.4801 174.732C69.5218 175.284 69.1993 175.779 68.6993 175.93C68.5238 175.983 68.379 176.02 68.3417 176.007C68.2321 175.969 64.624 163.954 64.624 163.954C64.624 163.954 68.4207 162.497 68.7672 163.084C69.116 163.673 69.2673 165.996 70.6886 166.622Z" fill="#394B5C"/>
<path d="M69.9862 170.757L68.7842 170.503L68.6855 170.954L69.9072 171.213L69.9862 170.757Z" fill="white"/>
<path d="M69.8457 171.559L68.6986 171.318L68.6021 171.769L69.7667 172.017L69.8457 171.559Z" fill="white"/>
<path d="M69.7163 172.319L68.6087 172.087L68.5122 172.538L69.6374 172.775L69.7163 172.319Z" fill="white"/>
<path d="M133.239 105.073C133.239 105.073 134.456 103.776 134.564 103.027C134.741 101.789 135.77 100.809 135.638 101.832C135.5 102.91 135.649 102.455 136.075 102.104C136.502 101.754 137.009 101.346 137.071 100.222C137.132 99.0979 137.884 99.5646 137.614 101.635C137.345 103.706 136.459 103.813 136.005 104.449C135.551 105.084 134.322 106.469 134.322 106.469L133.239 105.073Z" fill="#F6C5AE"/>
<path d="M120.071 104.819C120.457 103.896 120.428 102.799 119.93 101.929C119.43 101.059 118.448 100.454 117.428 100.456C117.193 100.456 116.952 100.491 116.752 100.61C116.59 100.706 116.467 100.851 116.34 100.989C115.752 101.622 115.021 102.126 114.217 102.457C113.216 102.866 112.124 103.002 111.08 103.292C110.477 103.458 109.856 103.699 109.485 104.192C109.016 104.817 109.073 105.673 109.242 106.429C109.411 107.185 109.411 107.952 109.551 108.714C109.659 109.304 109.632 109.319 109.738 110.029C109.834 110.68 110.049 111.122 110.367 111.703C110.545 112.027 110.626 113.211 111.001 113.246C111.256 113.27 111.183 112.334 111.337 112.135C111.49 111.935 111.565 111.692 111.626 111.449C111.929 110.25 111.982 108.912 112.804 107.974C113.258 107.455 113.931 107.135 114.622 107.067C115.372 106.994 116.048 107.485 116.765 107.395C118.123 107.227 119.564 106.028 120.071 104.819Z" fill="#333333"/>
<path d="M111.362 116.042H115.72V110.44H111.362V116.042Z" fill="#F6C5AE"/>
<path d="M117.705 107.174C117.705 107.174 117.933 112.472 116.299 113.298C114.665 114.124 112.476 112.79 111.724 112.225C110.972 111.659 110.52 110.456 110.52 110.456C110.52 110.456 109.952 109.606 109.976 108.971C109.998 108.335 110.033 107.512 110.634 107.915C111.588 108.557 111.141 108.077 111.141 108.077C111.141 108.077 110.783 107.426 111.507 106.646C112.231 105.868 117.688 104.293 117.705 107.174Z" fill="#F6C5AE"/>
<path d="M127.363 174.64L127.812 176.798C127.597 176.804 124.884 177.087 124.884 177.087L124.518 174.92L127.363 174.64Z" fill="#F6C5AE"/>
<path d="M128.462 175.952C128.462 175.952 135.107 178.498 135.243 178.542C135.305 178.562 135.625 178.603 135.965 178.645C136.5 178.711 136.91 179.111 136.959 179.611C136.976 179.789 136.983 179.931 136.963 179.962C136.906 180.058 124.759 181.165 124.759 181.165C124.759 181.165 124.09 177.302 124.718 177.087C125.349 176.872 127.593 177.175 128.462 175.952Z" fill="#394B5C"/>
<path d="M132.272 177.407L131.8 178.494L132.213 178.671L132.691 177.569L132.272 177.407Z" fill="white"/>
<path d="M133.011 177.692L132.562 178.73L132.974 178.908L133.432 177.854L133.011 177.692Z" fill="white"/>
<path d="M133.71 177.961L133.278 178.96L133.691 179.138L134.129 178.121L133.71 177.961Z" fill="white"/>
<path d="M116.727 114.063L123.748 112.413L133.445 104.764L135.099 106.14L127.734 115.097L117.826 120.711L112.621 137.1L97.5773 136.074L103.133 118.857L97.426 114.054L94.9585 100.794L96.9961 100.548L100.848 111.42L110.222 114.332L111.005 114.326C111.005 114.326 113.472 116.337 114.885 115.763C115.938 115.336 115.747 114.091 115.747 114.091L116.727 114.063Z" fill="#004381"/>
<path d="M112.751 137.131L123.435 147.632L128.78 174.666L124.167 175.179L117.436 152.81L105.215 144.635L92.1226 160.233L71.4898 165.682L70.0225 161.462L87.6131 153.986L97.6893 135.877" fill="#394B5C"/>
<path d="M96.9782 100.84C96.9782 100.84 96.6316 99.0957 96.9365 98.4033C97.4388 97.2574 97.0834 95.8836 96.6536 96.8214C96.2017 97.8095 96.3158 97.345 96.1381 96.8214C95.9605 96.2977 95.7455 95.6842 96.2895 94.6982C96.8334 93.7122 95.9473 93.71 95.0809 95.6119C94.2146 97.5115 94.912 98.0703 94.9625 98.8503C95.0129 99.6281 95.3244 101.453 95.3244 101.453L96.9782 100.84Z" fill="#F6C5AE"/>
<path d="M242.557 181.167H163.965C161.101 181.167 158.78 178.849 158.78 175.987V42.1672C158.78 39.3057 161.101 36.9875 163.965 36.9875H242.559C245.424 36.9875 247.744 39.3057 247.744 42.1672V175.987C247.742 178.849 245.422 181.167 242.557 181.167Z" fill="#394B5C"/>
<path d="M203.046 44.354C203.909 44.354 204.608 43.6555 204.608 42.7939C204.608 41.9323 203.909 41.2339 203.046 41.2339C202.184 41.2339 201.484 41.9323 201.484 42.7939C201.484 43.6555 202.184 44.354 203.046 44.354Z" fill="#FF9F2E"/>
<path d="M239.912 40.7344H213.399C211.927 40.7344 210.734 41.9263 210.734 43.3965C210.734 44.8667 209.541 46.0587 208.069 46.0587H198.451C196.979 46.0587 195.786 44.8667 195.786 43.3965C195.786 41.9263 194.593 40.7344 193.121 40.7344H166.61C164.007 40.7344 161.897 42.8422 161.897 45.443V111.469V173.969C161.897 176.119 163.579 177.858 165.656 177.858H240.866C242.943 177.858 244.625 176.116 244.625 173.969V111.469V45.443C244.625 42.8422 242.515 40.7344 239.912 40.7344Z" fill="white"/>
<path d="M224.153 154.449H182.37C180.144 154.449 178.336 153.095 178.336 151.423V133.447C178.336 131.776 180.142 130.422 182.37 130.422H224.151C226.377 130.422 228.184 131.776 228.184 133.447V151.423C228.184 153.095 226.379 154.449 224.153 154.449Z" fill="#FBAE17"/>
<path d="M197.719 140.2C197.719 140.897 197.609 141.513 197.392 142.05C197.175 142.586 196.859 143.038 196.442 143.406C196.028 143.774 195.517 144.052 194.913 144.245C194.31 144.436 193.597 144.532 192.779 144.532H191.744V148.489C191.744 148.553 191.724 148.61 191.683 148.662C191.641 148.713 191.573 148.754 191.476 148.787C191.38 148.82 191.253 148.844 191.093 148.864C190.932 148.884 190.728 148.892 190.478 148.892C190.235 148.892 190.033 148.884 189.869 148.864C189.706 148.844 189.577 148.82 189.48 148.787C189.384 148.754 189.318 148.713 189.279 148.662C189.241 148.612 189.222 148.553 189.222 148.489V137.339C189.222 137.039 189.301 136.813 189.456 136.664C189.612 136.515 189.818 136.438 190.075 136.438H193.001C193.295 136.438 193.575 136.449 193.841 136.471C194.106 136.493 194.424 136.541 194.795 136.616C195.166 136.69 195.541 136.824 195.922 137.023C196.302 137.22 196.626 137.472 196.896 137.775C197.164 138.077 197.37 138.432 197.51 138.837C197.648 139.241 197.719 139.696 197.719 140.2ZM195.08 140.382C195.08 139.948 195.003 139.591 194.85 139.309C194.696 139.028 194.508 138.82 194.284 138.686C194.06 138.553 193.825 138.467 193.58 138.432C193.334 138.397 193.08 138.38 192.817 138.38H191.742V142.584H192.874C193.277 142.584 193.613 142.529 193.885 142.422C194.157 142.312 194.378 142.161 194.551 141.966C194.725 141.771 194.854 141.539 194.944 141.267C195.036 140.998 195.08 140.702 195.08 140.382Z" fill="white"/>
<path d="M208.508 147.893C208.585 148.123 208.633 148.305 208.653 148.439C208.672 148.572 208.646 148.673 208.576 148.741C208.506 148.809 208.381 148.851 208.201 148.866C208.021 148.881 207.775 148.89 207.462 148.89C207.135 148.89 206.88 148.886 206.698 148.875C206.516 148.866 206.378 148.846 206.282 148.818C206.185 148.789 206.119 148.75 206.08 148.697C206.043 148.647 206.01 148.579 205.983 148.496L205.15 146.004H200.489L199.702 148.428C199.675 148.518 199.642 148.592 199.601 148.654C199.559 148.715 199.491 148.763 199.399 148.798C199.307 148.833 199.175 148.857 199.006 148.87C198.837 148.884 198.614 148.89 198.34 148.89C198.046 148.89 197.815 148.881 197.649 148.862C197.482 148.842 197.368 148.796 197.304 148.724C197.241 148.651 197.219 148.546 197.236 148.412C197.256 148.279 197.304 148.099 197.381 147.876L201.208 136.879C201.246 136.769 201.292 136.681 201.342 136.616C201.393 136.548 201.474 136.497 201.586 136.462C201.698 136.427 201.853 136.405 202.051 136.394C202.248 136.386 202.511 136.379 202.838 136.379C203.215 136.379 203.516 136.383 203.74 136.394C203.963 136.403 204.137 136.427 204.262 136.462C204.387 136.497 204.477 136.55 204.529 136.62C204.584 136.69 204.63 136.787 204.667 136.907L208.508 147.893ZM202.81 138.802H202.801L201.046 144.072H204.566L202.81 138.802Z" fill="white"/>
<path d="M213.656 144.129V148.487C213.656 148.551 213.636 148.607 213.594 148.66C213.552 148.71 213.484 148.752 213.388 148.785C213.291 148.818 213.162 148.842 213 148.862C212.837 148.881 212.633 148.89 212.39 148.89C212.14 148.89 211.936 148.881 211.776 148.862C211.616 148.842 211.486 148.818 211.388 148.785C211.289 148.752 211.219 148.71 211.181 148.66C211.144 148.61 211.124 148.551 211.124 148.487V144.129L207.729 137.376C207.609 137.139 207.53 136.955 207.494 136.826C207.459 136.695 207.479 136.596 207.551 136.528C207.626 136.46 207.76 136.419 207.959 136.403C208.157 136.388 208.433 136.379 208.784 136.379C209.078 136.379 209.313 136.386 209.488 136.399C209.664 136.412 209.804 136.436 209.905 136.471C210.008 136.506 210.083 136.552 210.131 136.609C210.179 136.666 210.225 136.741 210.269 136.83L211.651 139.876C211.785 140.17 211.918 140.479 212.048 140.805C212.179 141.132 212.311 141.473 212.445 141.83H212.465C212.585 141.486 212.71 141.151 212.84 140.825C212.967 140.498 213.092 140.189 213.215 139.896L214.577 136.868C214.61 136.765 214.649 136.684 214.697 136.624C214.746 136.565 214.818 136.515 214.912 136.475C215.009 136.438 215.138 136.412 215.305 136.399C215.472 136.386 215.691 136.379 215.967 136.379C216.331 136.379 216.614 136.388 216.816 136.403C217.018 136.419 217.154 136.46 217.228 136.528C217.303 136.596 217.321 136.697 217.281 136.83C217.244 136.964 217.167 137.146 217.051 137.376L213.656 144.129Z" fill="white"/>
<path d="M208.027 118.651H199.912C199.166 118.651 198.561 118.046 198.561 117.301V70.4804C198.561 69.7355 199.166 69.1307 199.912 69.1307H208.027C208.773 69.1307 209.378 69.7355 209.378 70.4804V117.301C209.378 118.046 208.773 118.651 208.027 118.651Z" fill="#394B5C"/>
<path d="M200.541 113.901C200.541 114.381 200.929 114.768 201.41 114.768H206.527C207.007 114.768 207.395 114.381 207.395 113.901V107.332C205.419 108.754 203.081 109.709 200.541 110.04V113.901Z" fill="white"/>
<path d="M207.395 73.8807C207.395 73.4009 207.007 73.0131 206.527 73.0131H201.41C200.929 73.0131 200.541 73.4009 200.541 73.8807V80.5591C203.081 80.89 205.419 81.8453 207.395 83.2673V73.8807Z" fill="white"/>
<path d="M198.565 107.792C191.59 107.796 185.931 102.205 185.927 95.3073C185.922 88.4076 191.575 82.8138 198.552 82.8094C199.229 82.8094 199.894 82.862 200.541 82.965V80.5614C199.89 80.4759 199.225 80.4277 198.55 80.4277C190.243 80.4321 183.514 87.0952 183.519 95.3073C183.523 103.522 190.259 110.176 198.565 110.174C199.236 110.174 199.894 110.126 200.541 110.04V107.636C199.898 107.737 199.238 107.792 198.565 107.792Z" fill="#F6A61C"/>
<path d="M207.395 86.3786V83.2694C205.419 81.8474 203.081 80.8921 200.541 80.5613V82.9649C203.191 83.3768 205.564 84.6038 207.395 86.3786Z" fill="#F6A61C"/>
<path d="M200.541 107.639V110.042C203.081 109.711 205.419 108.756 207.395 107.334V104.225C205.564 105.998 203.191 107.225 200.541 107.639Z" fill="#F6A61C"/>
<path d="M198.552 82.8094C191.577 82.8138 185.925 88.4076 185.927 95.3073C185.931 102.207 191.588 107.796 198.565 107.792C199.238 107.792 199.898 107.737 200.541 107.639V82.9628C199.894 82.862 199.229 82.8094 198.552 82.8094Z" fill="#FFD04F"/>
<path d="M200.541 107.639C203.191 107.225 205.564 105.998 207.395 104.223V86.3787C205.564 84.6039 203.191 83.3769 200.541 82.965V107.639Z" fill="#FFD04F"/>
<path d="M202.386 97.3977C202.386 97.8973 202.297 98.3464 202.119 98.7474C201.939 99.1484 201.687 99.4946 201.358 99.7838C201.029 100.075 200.634 100.307 200.169 100.481C199.706 100.656 199.191 100.765 198.629 100.811L198.638 102.676C198.631 102.722 198.618 102.764 198.599 102.799C198.579 102.834 198.539 102.862 198.485 102.886C198.43 102.91 198.353 102.928 198.256 102.943C198.16 102.959 198.037 102.965 197.89 102.965C197.701 102.965 197.55 102.956 197.436 102.939C197.322 102.921 197.232 102.897 197.169 102.864C197.105 102.832 197.061 102.79 197.041 102.737C197.022 102.685 197.017 102.628 197.028 102.564L197.019 100.796C196.767 100.761 196.528 100.717 196.307 100.662C196.083 100.608 195.881 100.546 195.699 100.481C195.517 100.415 195.359 100.345 195.227 100.277C195.096 100.207 194.995 100.139 194.927 100.073C194.859 100.007 194.811 99.9087 194.782 99.7772C194.754 99.6458 194.738 99.4529 194.738 99.1988C194.738 99.0016 194.745 98.8394 194.756 98.7102C194.767 98.5831 194.789 98.4845 194.817 98.4144C194.846 98.3443 194.883 98.2961 194.927 98.2698C194.971 98.2435 195.021 98.2303 195.08 98.2303C195.157 98.2303 195.269 98.2741 195.416 98.3618C195.563 98.4494 195.752 98.5436 195.98 98.6488C196.208 98.754 196.486 98.8482 196.811 98.9358C197.138 99.0235 197.519 99.0651 197.96 99.0651C198.647 99.0651 199.158 98.938 199.491 98.6861C199.827 98.4341 199.994 98.0989 199.994 97.6804C199.994 97.4021 199.921 97.172 199.776 96.9924C199.632 96.8127 199.441 96.6549 199.2 96.5191C198.958 96.3832 198.686 96.2606 198.386 96.1532C198.083 96.0458 197.774 95.9319 197.456 95.8092C197.138 95.6865 196.829 95.5463 196.526 95.3819C196.223 95.2198 195.951 95.0204 195.712 94.7816C195.471 94.5427 195.28 94.2557 195.135 93.9161C194.991 93.5765 194.918 93.1668 194.918 92.6847C194.918 92.2487 194.991 91.8521 195.137 91.495C195.284 91.1378 195.495 90.8267 195.771 90.5594C196.048 90.2921 196.385 90.0751 196.789 89.9108C197.19 89.7443 197.647 89.6326 198.158 89.5756L198.112 87.9191C198.118 87.8731 198.131 87.8337 198.151 87.8008C198.171 87.768 198.21 87.7395 198.265 87.7132C198.32 87.6869 198.397 87.6672 198.489 87.6562C198.583 87.6452 198.706 87.6387 198.86 87.6387C199.042 87.6387 199.193 87.6474 199.314 87.665C199.434 87.6825 199.526 87.7066 199.59 87.7395C199.654 87.7723 199.695 87.814 199.713 87.8666C199.73 87.9191 199.739 87.9761 199.739 88.0396L199.785 89.5909C199.95 89.615 200.123 89.6457 200.305 89.6873C200.487 89.729 200.658 89.775 200.816 89.8297C200.974 89.8845 201.119 89.9437 201.248 90.0028C201.378 90.0642 201.467 90.119 201.516 90.1672C201.564 90.2154 201.603 90.2658 201.63 90.3162C201.656 90.3666 201.676 90.4257 201.691 90.498C201.707 90.5703 201.715 90.658 201.722 90.7588C201.728 90.8596 201.731 90.9779 201.731 91.1115C201.731 91.2912 201.726 91.4402 201.717 91.5563C201.709 91.6724 201.693 91.7601 201.669 91.8214C201.645 91.8828 201.619 91.9222 201.59 91.9441C201.562 91.9639 201.527 91.9748 201.485 91.9748C201.408 91.9748 201.296 91.9376 201.149 91.8609C201.002 91.7864 200.823 91.7053 200.608 91.6177C200.393 91.53 200.147 91.449 199.869 91.3745C199.59 91.3 199.283 91.2605 198.947 91.2627C198.642 91.2627 198.381 91.2912 198.164 91.3503C197.947 91.4095 197.772 91.4906 197.636 91.5936C197.5 91.6987 197.401 91.8236 197.337 91.9682C197.274 92.1128 197.241 92.2728 197.241 92.4481C197.241 92.722 197.315 92.9498 197.462 93.1361C197.609 93.3223 197.805 93.4823 198.048 93.6137C198.292 93.7474 198.568 93.8679 198.875 93.9796C199.184 94.0892 199.498 94.2053 199.818 94.328C200.138 94.4507 200.452 94.591 200.761 94.7509C201.07 94.9108 201.345 95.108 201.586 95.3425C201.827 95.5769 202.02 95.8618 202.167 96.1948C202.312 96.5257 202.386 96.9288 202.386 97.3977Z" fill="white"/>
<path d="M143.023 103.638L64.1134 91.1509C61.7204 90.7718 60.0886 88.5281 60.4658 86.1377L68.7698 33.771C69.1493 31.3806 71.3952 29.7504 73.7882 30.1273L152.698 42.6142C155.091 42.9933 156.723 45.2369 156.346 47.6274L148.042 99.994C147.662 102.384 145.416 104.015 143.023 103.638Z" fill="#394B5C"/>
<path d="M104.202 46.9043C105.368 39.5526 100.287 32.639 92.8538 31.4624C85.4202 30.2857 78.4488 35.2917 77.2828 42.6434C76.1167 49.9952 81.1975 56.9088 88.631 58.0854C96.0645 59.262 103.036 54.2561 104.202 46.9043Z" fill="#F6A61C"/>
<path d="M102.044 46.5619C103.023 40.3875 98.755 34.5815 92.5119 33.5939C86.2689 32.6064 80.4144 36.8112 79.4357 42.9857C78.457 49.1601 82.7246 54.9661 88.9677 55.9537C95.2107 56.9412 101.065 52.7364 102.044 46.5619Z" fill="#FFD04F"/>
<path d="M93.8668 47.1937C93.7966 47.6406 93.6519 48.0307 93.4347 48.3637C93.2176 48.6967 92.9412 48.9706 92.6057 49.1832C92.2701 49.3957 91.8819 49.5491 91.4432 49.6389C91.0045 49.7287 90.5286 49.755 90.0175 49.7178L89.7609 51.3874C89.7499 51.429 89.7324 51.4619 89.7083 51.4904C89.6841 51.5188 89.6468 51.5386 89.5942 51.5517C89.5416 51.5649 89.4692 51.5714 89.3815 51.5692C89.2937 51.5692 89.1819 51.5583 89.0503 51.5364C88.8814 51.5101 88.7476 51.4816 88.6489 51.4487C88.548 51.4181 88.4712 51.383 88.4186 51.3436C88.3659 51.3063 88.333 51.2625 88.3221 51.2121C88.3111 51.1617 88.3155 51.1091 88.3352 51.0543L88.5787 49.4702C88.3572 49.4045 88.151 49.33 87.9602 49.2489C87.7693 49.1678 87.5961 49.0846 87.4425 48.9991C87.289 48.9137 87.1574 48.8304 87.0499 48.7493C86.9425 48.6683 86.8613 48.5938 86.8109 48.5236C86.7604 48.4535 86.7297 48.3593 86.7231 48.2388C86.7143 48.1183 86.7297 47.943 86.7648 47.7151C86.7933 47.5377 86.8218 47.3931 86.8503 47.2813C86.8789 47.1696 86.9118 47.0841 86.9468 47.025C86.9819 46.9658 87.0236 46.9285 87.0653 46.911C87.1092 46.8935 87.1552 46.8891 87.2079 46.8979C87.2758 46.9088 87.3702 46.9636 87.4886 47.0622C87.607 47.1608 87.7628 47.2726 87.9514 47.3996C88.1422 47.5245 88.3769 47.6494 88.6555 47.7743C88.934 47.8992 89.2718 47.9912 89.6666 48.0526C90.2807 48.149 90.7567 48.1095 91.0923 47.9299C91.4278 47.7502 91.6252 47.4741 91.6845 47.0995C91.7239 46.8497 91.691 46.6349 91.588 46.4531C91.4849 46.2712 91.3357 46.1025 91.1383 45.947C90.9431 45.7914 90.7172 45.6424 90.4606 45.5044C90.2061 45.3663 89.9451 45.2195 89.6776 45.0661C89.41 44.9128 89.1533 44.7419 88.9055 44.5534C88.6577 44.365 88.4427 44.1481 88.2607 43.9005C88.0786 43.6529 87.947 43.3681 87.868 43.0438C87.7869 42.7195 87.7803 42.3426 87.8483 41.911C87.9097 41.521 88.0326 41.177 88.2146 40.879C88.3966 40.581 88.6291 40.3312 88.9143 40.1297C89.1994 39.9303 89.5328 39.7835 89.9166 39.6914C90.3005 39.5994 90.7238 39.5644 91.1888 39.5841L91.3818 38.0963C91.3927 38.0547 91.4103 38.0218 91.4344 37.9977C91.4564 37.9715 91.4958 37.9517 91.5485 37.9364C91.6011 37.9211 91.6713 37.9145 91.7568 37.9167C91.8424 37.9189 91.9542 37.932 92.0902 37.9539C92.2525 37.9802 92.3863 38.0087 92.4916 38.0416C92.5969 38.0744 92.6758 38.1095 92.7285 38.1467C92.7811 38.184 92.8118 38.2278 92.8206 38.2782C92.8294 38.3264 92.8294 38.3812 92.8206 38.4381L92.643 39.8339C92.7877 39.8777 92.9369 39.9303 93.0948 39.9938C93.2527 40.0552 93.3975 40.1231 93.5313 40.1954C93.665 40.2677 93.7857 40.34 93.8932 40.4123C94.0006 40.4846 94.073 40.5482 94.1103 40.5985C94.1476 40.6489 94.1761 40.6993 94.1914 40.7475C94.209 40.7957 94.2178 40.8527 94.22 40.9206C94.2222 40.9886 94.22 41.0674 94.2112 41.1595C94.2024 41.2515 94.1871 41.3567 94.1695 41.4772C94.1432 41.6393 94.1191 41.7708 94.0949 41.8738C94.0708 41.9767 94.0445 42.0534 94.0138 42.1038C93.9831 42.1542 93.9546 42.1871 93.9261 42.2024C93.8975 42.2156 93.8646 42.2199 93.8274 42.2156C93.7594 42.2046 93.665 42.1542 93.5444 42.0666C93.4238 41.9789 93.2746 41.8803 93.0948 41.7708C92.9149 41.6634 92.7066 41.556 92.4675 41.4487C92.2284 41.3413 91.9586 41.2646 91.6603 41.2164C91.3862 41.1726 91.1493 41.1616 90.9475 41.1836C90.7457 41.2055 90.5768 41.2537 90.4408 41.3282C90.3048 41.4027 90.1974 41.5013 90.1206 41.6218C90.0417 41.7423 89.9912 41.8803 89.9671 42.0359C89.9276 42.2791 89.9627 42.496 90.0658 42.6823C90.1711 42.8685 90.3224 43.0394 90.522 43.1928C90.7216 43.3461 90.9519 43.4951 91.2107 43.6376C91.4717 43.78 91.7349 43.929 92.0047 44.0823C92.2745 44.2357 92.5355 44.4066 92.7877 44.5929C93.0399 44.7791 93.2593 44.9938 93.4413 45.2392C93.6234 45.4846 93.7572 45.7651 93.8405 46.085C93.9239 46.4027 93.9326 46.773 93.8668 47.1937Z" fill="white"/>
<path d="M127.876 41.4452C129.042 34.0935 123.96 27.1805 116.527 26.0046C109.093 24.8287 102.123 29.8353 100.957 37.187C99.7919 44.5388 104.873 51.4518 112.307 52.6276C119.74 53.8035 126.711 48.797 127.876 41.4452Z" fill="#F6A61C"/>
<path d="M125.724 41.1052C126.704 34.9307 122.436 29.1243 116.193 28.1361C109.95 27.1479 104.095 31.3522 103.116 37.5267C102.137 43.7011 106.404 49.5076 112.647 50.4958C118.89 51.484 124.745 47.2797 125.724 41.1052Z" fill="#FFD04F"/>
<path d="M117.543 41.7356C117.473 42.1825 117.328 42.5725 117.111 42.9056C116.894 43.2386 116.618 43.5125 116.282 43.725C115.946 43.9376 115.558 44.091 115.119 44.1808C114.681 44.2706 114.205 44.2969 113.694 44.2597L113.437 45.9293C113.426 45.9709 113.409 46.0038 113.385 46.0322C113.36 46.0607 113.323 46.0805 113.27 46.0936C113.218 46.1067 113.145 46.1133 113.058 46.1111C112.97 46.1111 112.858 46.1002 112.727 46.0783C112.558 46.052 112.424 46.0235 112.325 45.9906C112.224 45.9599 112.147 45.9249 112.095 45.8854C112.042 45.8482 112.009 45.8044 111.998 45.754C111.987 45.7036 111.992 45.651 112.012 45.5962L112.255 44.0121C112.033 43.9463 111.827 43.8719 111.636 43.7908C111.446 43.7097 111.272 43.6264 111.119 43.541C110.965 43.4555 110.834 43.3723 110.726 43.2912C110.619 43.2101 110.538 43.1356 110.487 43.0655C110.437 42.9954 110.406 42.9012 110.399 42.7807C110.391 42.6602 110.406 42.4849 110.441 42.257C110.47 42.0796 110.498 41.9349 110.527 41.8232C110.555 41.7114 110.588 41.626 110.623 41.5668C110.658 41.5077 110.7 41.4704 110.742 41.4529C110.785 41.4354 110.831 41.431 110.884 41.4398C110.952 41.4507 111.046 41.5055 111.165 41.6041C111.283 41.7027 111.439 41.8144 111.628 41.9415C111.816 42.0686 112.053 42.1913 112.332 42.3162C112.61 42.4411 112.948 42.5331 113.343 42.5944C113.957 42.6909 114.433 42.6514 114.769 42.4718C115.104 42.2921 115.302 42.016 115.361 41.6413C115.4 41.3915 115.367 41.1768 115.264 40.995C115.161 40.8131 115.012 40.6444 114.815 40.4888C114.619 40.3333 114.393 40.1843 114.137 40.0462C113.882 39.9082 113.621 39.7614 113.354 39.608C113.086 39.4546 112.83 39.2837 112.582 39.0953C112.334 38.9069 112.119 38.69 111.937 38.4424C111.755 38.1948 111.623 37.9099 111.544 37.5857C111.463 37.2614 111.457 36.8845 111.525 36.4529C111.586 36.0629 111.709 35.7189 111.889 35.4209C112.071 35.1229 112.303 34.8731 112.588 34.6715C112.873 34.4721 113.207 34.3253 113.591 34.2333C113.975 34.1413 114.398 34.1062 114.863 34.1259L115.056 32.6382C115.067 32.5966 115.084 32.5637 115.108 32.5396C115.13 32.5133 115.17 32.4936 115.223 32.4783C115.275 32.4629 115.345 32.4563 115.431 32.4585C115.516 32.4607 115.628 32.4739 115.764 32.4958C115.927 32.5221 116.06 32.5506 116.166 32.5834C116.271 32.6163 116.35 32.6514 116.403 32.6886C116.455 32.7258 116.486 32.7697 116.495 32.8201C116.503 32.8683 116.503 32.923 116.495 32.98L116.317 34.3757C116.462 34.4196 116.611 34.4721 116.769 34.5357C116.927 34.597 117.072 34.665 117.205 34.7373C117.339 34.8096 117.46 34.8819 117.567 34.9542C117.675 35.0265 117.747 35.09 117.784 35.1404C117.822 35.1908 117.85 35.2412 117.866 35.2894C117.881 35.3376 117.892 35.3946 117.894 35.4625C117.896 35.5304 117.894 35.6093 117.885 35.7013C117.876 35.7934 117.861 35.8985 117.844 36.019C117.817 36.1812 117.793 36.3126 117.769 36.4156C117.745 36.5186 117.719 36.5953 117.688 36.6457C117.657 36.6961 117.629 36.7289 117.6 36.7443C117.572 36.7574 117.539 36.7618 117.501 36.7574C117.433 36.7465 117.339 36.6961 117.218 36.6084C117.098 36.5208 116.949 36.4222 116.769 36.3126C116.589 36.2053 116.381 36.0979 116.142 35.9906C115.902 35.8832 115.633 35.8065 115.334 35.7583C115.06 35.7145 114.823 35.7035 114.622 35.7254C114.42 35.7473 114.251 35.7955 114.115 35.87C113.979 35.9445 113.871 36.0431 113.795 36.1636C113.716 36.2842 113.665 36.4222 113.641 36.5778C113.602 36.821 113.637 37.0379 113.74 37.2241C113.845 37.4104 113.996 37.5813 114.196 37.7346C114.396 37.888 114.626 38.037 114.885 38.1794C115.146 38.3219 115.409 38.4708 115.679 38.6242C115.949 38.7776 116.21 38.9485 116.462 39.1347C116.714 39.321 116.933 39.5357 117.115 39.7811C117.297 40.0265 117.431 40.307 117.515 40.6269C117.602 40.9446 117.611 41.3149 117.543 41.7356Z" fill="white"/>
<path d="M169.622 36.9853C170.788 29.6335 165.708 22.7199 158.274 21.5433C150.841 20.3667 143.869 25.3726 142.703 32.7244C141.537 40.0761 146.618 46.9897 154.051 48.1663C161.485 49.343 168.456 44.337 169.622 36.9853Z" fill="#F6A61C"/>
<path d="M167.46 36.6426C168.439 30.4681 164.172 24.6622 157.928 23.6746C151.685 22.6871 145.831 26.8919 144.852 33.0664C143.873 39.2408 148.141 45.0468 154.384 46.0343C160.627 47.0219 166.482 42.8171 167.46 36.6426Z" fill="#FFD04F"/>
<path d="M159.285 37.2768C159.215 37.7238 159.07 38.1138 158.853 38.4468C158.636 38.7799 158.359 39.0538 158.024 39.2663C157.688 39.4788 157.3 39.6322 156.861 39.7221C156.422 39.8119 155.947 39.8382 155.435 39.8009L155.179 41.4705C155.168 41.5122 155.15 41.545 155.126 41.5735C155.102 41.602 155.065 41.6217 155.012 41.6349C154.96 41.648 154.887 41.6546 154.799 41.6524C154.712 41.6524 154.6 41.6414 154.468 41.6195C154.299 41.5932 154.166 41.5647 154.067 41.5319C153.966 41.5012 153.889 41.4661 153.837 41.4267C153.784 41.3895 153.751 41.3456 153.74 41.2952C153.729 41.2449 153.733 41.1923 153.753 41.1375L153.997 39.5533C153.775 39.4876 153.569 39.4131 153.378 39.332C153.187 39.251 153.014 39.1677 152.861 39.0823C152.707 38.9968 152.575 38.9135 152.468 38.8325C152.36 38.7514 152.279 38.6769 152.229 38.6068C152.178 38.5367 152.148 38.4425 152.141 38.322C152.132 38.2014 152.148 38.0262 152.183 37.7983C152.211 37.6208 152.24 37.4762 152.268 37.3645C152.297 37.2527 152.33 37.1673 152.365 37.1081C152.4 37.0489 152.442 37.0117 152.483 36.9942C152.527 36.9766 152.573 36.9723 152.626 36.981C152.694 36.992 152.788 37.0468 152.907 37.1454C153.025 37.2439 153.181 37.3557 153.369 37.4828C153.56 37.6077 153.795 37.7326 154.073 37.8574C154.352 37.9823 154.69 38.0744 155.085 38.1357C155.699 38.2321 156.175 38.1927 156.51 38.013C156.846 37.8333 157.043 37.5573 157.102 37.1826C157.142 36.9328 157.109 36.7181 157.006 36.5362C156.903 36.3544 156.754 36.1857 156.556 36.0301C156.361 35.8745 156.135 35.7255 155.879 35.5875C155.624 35.4495 155.363 35.3027 155.096 35.1493C154.828 34.9959 154.571 34.825 154.323 34.6366C154.076 34.4481 153.861 34.2312 153.679 33.9836C153.497 33.736 153.365 33.4512 153.286 33.1269C153.205 32.8026 153.198 32.4258 153.266 31.9941C153.328 31.6041 153.451 31.2601 153.63 30.9621C153.812 30.6642 154.045 30.4144 154.33 30.2128C154.615 30.0134 154.949 29.8666 155.332 29.7768C155.716 29.6847 156.14 29.6497 156.605 29.6694L156.798 28.1817C156.809 28.14 156.826 28.1072 156.85 28.0831C156.872 28.0568 156.912 28.0371 156.964 28.0217C157.017 28.0064 157.087 27.9998 157.173 28.002C157.258 28.0042 157.37 28.0173 157.506 28.0392C157.668 28.0655 157.802 28.094 157.907 28.1269C158.013 28.1598 158.092 28.1948 158.144 28.2321C158.197 28.2693 158.228 28.3131 158.236 28.3635C158.245 28.4117 158.245 28.4665 158.236 28.5235L158.059 29.9192C158.203 29.963 158.353 30.0156 158.511 30.0791C158.668 30.1405 158.813 30.2084 158.947 30.2807C159.081 30.353 159.201 30.4253 159.309 30.4976C159.416 30.5699 159.489 30.6335 159.526 30.6839C159.563 30.7343 159.592 30.7847 159.607 30.8329C159.625 30.8811 159.634 30.938 159.636 31.006C159.638 31.0739 159.636 31.1528 159.627 31.2448C159.618 31.3368 159.603 31.442 159.585 31.5625C159.559 31.7246 159.535 31.8561 159.511 31.9591C159.487 32.0621 159.46 32.1387 159.43 32.1891C159.399 32.2395 159.37 32.2724 159.342 32.2877C159.313 32.3009 159.28 32.3053 159.243 32.3009C159.175 32.2899 159.081 32.2395 158.96 32.1519C158.84 32.0642 158.69 31.9657 158.511 31.8561C158.331 31.7487 158.122 31.6414 157.883 31.534C157.644 31.4267 157.374 31.35 157.076 31.3018C156.802 31.2579 156.565 31.247 156.363 31.2689C156.161 31.2908 155.993 31.339 155.857 31.4135C155.721 31.488 155.613 31.5866 155.536 31.7071C155.457 31.8276 155.407 31.9657 155.383 32.1212C155.343 32.3644 155.378 32.5813 155.482 32.7676C155.587 32.9538 155.738 33.1247 155.938 33.2781C156.137 33.4315 156.368 33.5805 156.626 33.7229C156.887 33.8653 157.151 34.0143 157.42 34.1677C157.69 34.3211 157.951 34.492 158.203 34.6782C158.456 34.8644 158.675 35.0792 158.857 35.3246C159.039 35.57 159.173 35.8504 159.256 36.1703C159.344 36.4858 159.353 36.8561 159.285 37.2768Z" fill="white"/>
<path d="M198.421 56.1801C199.586 48.8283 194.505 41.9153 187.071 40.7394C179.638 39.5636 172.667 44.5701 171.502 51.9219C170.336 59.2736 175.418 66.1866 182.851 67.3625C190.285 68.5384 197.256 63.5318 198.421 56.1801Z" fill="#F6A61C"/>
<path d="M196.268 55.8381C197.247 49.6637 192.98 43.8572 186.737 42.869C180.494 41.8808 174.639 46.0851 173.66 52.2596C172.681 58.4341 176.948 64.2405 183.191 65.2287C189.434 66.2169 195.289 62.0126 196.268 55.8381Z" fill="#FFD04F"/>
<path d="M188.09 56.4728C188.02 56.9198 187.876 57.3098 187.658 57.6429C187.441 57.9759 187.165 58.2498 186.829 58.4623C186.494 58.6749 186.105 58.8282 185.667 58.9181C185.228 59.0079 184.752 59.0342 184.241 58.997L183.985 60.6666C183.974 60.7082 183.956 60.7411 183.932 60.7695C183.908 60.798 183.87 60.8177 183.818 60.8309C183.765 60.844 183.693 60.8506 183.605 60.8484C183.517 60.8484 183.405 60.8375 183.274 60.8156C183.105 60.7893 182.971 60.7608 182.873 60.7279C182.772 60.6972 182.695 60.6622 182.642 60.6227C182.59 60.5855 182.557 60.5417 182.546 60.4913C182.535 60.4409 182.539 60.3883 182.559 60.3335L182.802 58.7494C182.581 58.6836 182.375 58.6091 182.184 58.5281C181.993 58.447 181.82 58.3637 181.666 58.2783C181.513 58.1928 181.381 58.1096 181.274 58.0285C181.166 57.9474 181.085 57.8729 181.034 57.8028C180.984 57.7327 180.953 57.6385 180.947 57.518C180.938 57.3975 180.953 57.2222 180.988 56.9943C181.017 56.8168 181.045 56.6722 181.074 56.5605C181.102 56.4487 181.135 56.3633 181.17 56.3041C181.206 56.245 181.247 56.2077 181.289 56.1902C181.333 56.1727 181.379 56.1683 181.431 56.1771C181.499 56.188 181.594 56.2428 181.712 56.3414C181.831 56.44 181.986 56.5517 182.175 56.6788C182.366 56.8037 182.601 56.9286 182.879 57.0535C183.158 57.1784 183.495 57.2704 183.89 57.3317C184.504 57.4282 184.98 57.3887 185.316 57.209C185.651 57.0294 185.849 56.7533 185.908 56.3786C185.948 56.1288 185.915 55.9141 185.812 55.7323C185.708 55.5504 185.559 55.3817 185.362 55.2261C185.167 55.0706 184.941 54.9216 184.684 54.7835C184.43 54.6455 184.169 54.4987 183.901 54.3453C183.634 54.1919 183.377 54.021 183.129 53.8326C182.881 53.6442 182.666 53.4273 182.484 53.1797C182.302 52.9321 182.171 52.6472 182.092 52.323C182.011 51.9987 182.004 51.6218 182.072 51.1902C182.133 50.8002 182.256 50.4562 182.438 50.1582C182.62 49.8602 182.853 49.6104 183.138 49.4088C183.423 49.2094 183.756 49.0626 184.14 48.9706C184.524 48.8786 184.947 48.8435 185.412 48.8633L185.605 47.3755C185.616 47.3339 185.634 47.301 185.658 47.2769C185.68 47.2506 185.719 47.2309 185.772 47.2156C185.825 47.2002 185.895 47.1937 185.98 47.1958C186.066 47.198 186.178 47.2112 186.314 47.2331C186.476 47.2594 186.61 47.2879 186.715 47.3207C186.821 47.3536 186.899 47.3887 186.952 47.4259C187.005 47.4632 187.035 47.507 187.044 47.5574C187.053 47.6078 187.053 47.6604 187.044 47.7173L186.867 49.113C187.011 49.1569 187.16 49.2094 187.318 49.273C187.476 49.3343 187.621 49.4023 187.755 49.4746C187.889 49.5469 188.009 49.6192 188.117 49.6915C188.224 49.7638 188.297 49.8273 188.334 49.8777C188.371 49.9281 188.4 49.9785 188.415 50.0267C188.433 50.0749 188.441 50.1319 188.444 50.1998C188.446 50.2677 188.444 50.3466 188.435 50.4386C188.426 50.5307 188.411 50.6358 188.393 50.7563C188.367 50.9185 188.343 51.0499 188.319 51.1529C188.294 51.2559 188.268 51.3326 188.237 51.383C188.207 51.4334 188.178 51.4662 188.15 51.4816C188.121 51.4947 188.088 51.4991 188.051 51.4947C187.983 51.4838 187.889 51.4334 187.768 51.3457C187.647 51.2581 187.498 51.1595 187.318 51.0499C187.139 50.9426 186.93 50.8352 186.691 50.7279C186.452 50.6205 186.182 50.5438 185.884 50.4956C185.61 50.4518 185.373 50.4408 185.171 50.4627C184.969 50.4846 184.8 50.5329 184.664 50.6073C184.528 50.6818 184.421 50.7804 184.344 50.9009C184.265 51.0215 184.215 51.1595 184.191 51.3151C184.151 51.5583 184.186 51.7752 184.289 51.9614C184.395 52.1477 184.546 52.3186 184.746 52.472C184.945 52.6253 185.176 52.7743 185.434 52.9167C185.695 53.0592 185.959 53.2082 186.228 53.3615C186.498 53.5149 186.759 53.6858 187.011 53.872C187.264 54.0583 187.483 54.273 187.665 54.5184C187.847 54.7638 187.981 55.0443 188.064 55.3642C188.147 55.6841 188.158 56.05 188.09 56.4728Z" fill="white"/>
<path d="M144.445 53.2709C145.611 45.9192 140.53 39.0056 133.097 37.8289C125.663 36.6523 118.692 41.6583 117.526 49.01C116.36 56.3618 121.441 63.2754 128.874 64.452C136.308 65.6286 143.279 60.6227 144.445 53.2709Z" fill="#F6A61C"/>
<path d="M142.288 52.9297C143.266 46.7553 138.999 40.9493 132.756 39.9617C126.513 38.9742 120.658 43.179 119.679 49.3535C118.701 55.5279 122.968 61.3339 129.211 62.3214C135.454 63.309 141.309 59.1042 142.288 52.9297Z" fill="#FFD04F"/>
<path d="M134.11 53.5629C134.04 54.0099 133.896 54.3999 133.678 54.733C133.461 55.066 133.185 55.3399 132.849 55.5524C132.514 55.765 132.126 55.9183 131.687 56.0082C131.248 56.098 130.772 56.1243 130.261 56.0871L130.005 57.7567C129.994 57.7983 129.976 57.8312 129.952 57.8596C129.928 57.8881 129.891 57.9078 129.838 57.921C129.785 57.9341 129.713 57.9407 129.625 57.9385C129.537 57.9385 129.426 57.9276 129.294 57.9056C129.125 57.8794 128.991 57.8509 128.893 57.818C128.792 57.7873 128.715 57.7523 128.662 57.7128C128.61 57.6756 128.577 57.6318 128.566 57.5814C128.555 57.531 128.559 57.4784 128.579 57.4236L128.822 55.8395C128.601 55.7737 128.395 55.6992 128.204 55.6182C128.013 55.5371 127.84 55.4538 127.686 55.3684C127.533 55.2829 127.401 55.1997 127.294 55.1186C127.186 55.0375 127.105 54.963 127.055 54.8929C127.004 54.8228 126.973 54.7286 126.967 54.6081C126.958 54.4876 126.973 54.3123 127.008 54.0844C127.037 53.9069 127.065 53.7623 127.094 53.6506C127.123 53.5388 127.155 53.4534 127.191 53.3942C127.226 53.3351 127.267 53.2978 127.309 53.2803C127.353 53.2628 127.399 53.2584 127.452 53.2672C127.52 53.2781 127.614 53.3329 127.732 53.4315C127.851 53.5301 128.006 53.6418 128.195 53.7689C128.384 53.896 128.621 54.0187 128.899 54.1436C129.178 54.2685 129.515 54.3605 129.91 54.4218C130.524 54.5183 131 54.4788 131.336 54.2991C131.671 54.1195 131.869 53.8434 131.928 53.4687C131.968 53.2189 131.935 53.0042 131.832 52.8224C131.729 52.6405 131.579 52.4718 131.382 52.3162C131.187 52.1607 130.961 52.0117 130.704 51.8736C130.45 51.7356 130.189 51.5888 129.921 51.4354C129.654 51.282 129.397 51.1111 129.149 50.9227C128.901 50.7343 128.686 50.5173 128.504 50.2698C128.322 50.0222 128.191 49.7373 128.112 49.413C128.031 49.0888 128.024 48.7119 128.092 48.2803C128.153 47.8903 128.276 47.5463 128.458 47.2483C128.64 46.9503 128.873 46.7005 129.158 46.4989C129.443 46.2995 129.776 46.1527 130.16 46.0629C130.544 45.9709 130.967 45.9358 131.432 45.9555L131.625 44.4678C131.636 44.4262 131.654 44.3933 131.678 44.3692C131.7 44.3429 131.739 44.3232 131.792 44.3078C131.845 44.2925 131.915 44.2859 132 44.2881C132.086 44.2903 132.198 44.3035 132.334 44.3254C132.496 44.3517 132.63 44.3802 132.735 44.413C132.841 44.4459 132.92 44.4809 132.972 44.5182C133.025 44.5554 133.055 44.5993 133.064 44.6497C133.073 44.6979 133.073 44.7526 133.064 44.8096L132.887 46.2053C133.031 46.2491 133.181 46.3017 133.338 46.3653C133.496 46.4266 133.641 46.4945 133.775 46.5668C133.909 46.6392 134.029 46.7115 134.137 46.7838C134.244 46.8561 134.317 46.9196 134.354 46.97C134.391 47.0204 134.42 47.0708 134.435 47.119C134.453 47.1672 134.461 47.2242 134.464 47.2921C134.466 47.36 134.464 47.4389 134.455 47.5309C134.446 47.6229 134.431 47.7281 134.413 47.8486C134.387 48.0108 134.363 48.1422 134.339 48.2452C134.314 48.3482 134.288 48.4249 134.257 48.4753C134.227 48.5257 134.198 48.5585 134.17 48.5739C134.141 48.587 134.108 48.5914 134.071 48.587C134.003 48.5761 133.909 48.5257 133.788 48.438C133.667 48.3504 133.518 48.2518 133.338 48.1422C133.159 48.0349 132.95 47.9275 132.711 47.8201C132.472 47.7128 132.202 47.6361 131.904 47.5879C131.63 47.5441 131.393 47.5331 131.191 47.555C130.989 47.5769 130.82 47.6251 130.684 47.6996C130.549 47.7741 130.441 47.8727 130.364 47.9932C130.287 48.1137 130.235 48.2518 130.211 48.4073C130.171 48.6506 130.206 48.8675 130.309 49.0537C130.415 49.24 130.566 49.4109 130.766 49.5642C130.965 49.7176 131.196 49.8666 131.454 50.009C131.715 50.1514 131.979 50.3004 132.248 50.4538C132.518 50.6072 132.779 50.7781 133.031 50.9643C133.284 51.1506 133.503 51.3653 133.685 51.6107C133.867 51.8561 134.001 52.1366 134.084 52.4565C134.168 52.7698 134.176 53.1401 134.11 53.5629Z" fill="white"/>
<path d="M141.942 99.8999L68.7393 88.3157C67.6295 88.1404 66.8728 87.0996 67.0482 85.991L73.2247 47.0381C73.4001 45.9294 74.442 45.1735 75.5518 45.3487L148.755 56.9329C149.864 57.1082 150.621 58.149 150.446 59.2577L144.269 98.2106C144.094 99.3192 143.052 100.075 141.942 99.8999Z" fill="#FF9F2E"/>
<path d="M99.1721 90.1277L59.8828 83.9117C58.0426 83.6202 56.788 81.8959 57.0797 80.0576L58.8081 69.1614C59.0998 67.323 60.8259 66.0698 62.6662 66.3612L101.955 72.5772C103.796 72.8686 105.05 74.593 104.759 76.4313L103.03 87.3275C102.738 89.1658 101.01 90.4191 99.1721 90.1277Z" fill="#394B5C"/>
<path d="M98.9594 86.5714L95.3557 86.0018C95.0311 85.9514 94.8117 85.6468 94.8622 85.3225L96.2966 76.28C96.3471 75.9557 96.652 75.7366 96.9766 75.787L100.58 76.3567C100.905 76.4071 101.124 76.7116 101.074 77.0359L99.6393 86.0784C99.5867 86.4027 99.284 86.624 98.9594 86.5714Z" fill="#FFD04F"/>
<path d="M142.897 47.3493L141.214 47.9518L142.627 49.0408L143.228 50.7213L144.32 49.3081L146.002 48.7077L144.588 47.6188L143.987 45.9382L142.897 47.3493Z" fill="white"/>
<path d="M138.71 49.5031L137.736 49.8514L138.554 50.4825L138.903 51.4553L139.534 50.638L140.508 50.2897L139.69 49.6586L139.341 48.6858L138.71 49.5031Z" fill="white"/>
<path d="M88.0558 33.622L86.3735 34.2223L87.7882 35.3135L88.3892 36.9919L89.4815 35.5808L91.1616 34.9804L89.7491 33.8893L89.1481 32.2087L88.0558 33.622Z" fill="white"/>
<path d="M83.8686 35.7758L82.897 36.1241L83.7151 36.7552L84.0616 37.728L84.6955 36.9107L85.6671 36.5624L84.849 35.9313L84.5025 34.9585L83.8686 35.7758Z" fill="white"/>
<path d="M121.357 123.57C121.357 123.57 124.141 143.2 127.907 148.075C131.673 152.95 138.878 155.847 138.878 155.847C138.878 155.847 146.083 152.948 149.849 148.075C153.615 143.2 156.398 123.57 156.398 123.57L138.878 117.247L121.357 123.57Z" fill="#FBAE17"/>
<path d="M138.88 119.988L123.847 125.413C123.847 125.413 126.235 142.256 129.466 146.436C132.697 150.619 138.88 153.106 138.88 153.106C138.88 153.106 145.061 150.619 148.294 146.436C151.524 142.253 153.913 125.413 153.913 125.413L138.88 119.988Z" fill="white"/>
<path d="M146.183 135.858C146.837 131.831 144.1 128.037 140.069 127.383C136.038 126.73 132.241 129.464 131.586 133.491C130.932 137.518 133.669 141.312 137.7 141.965C141.731 142.619 145.529 139.884 146.183 135.858Z" fill="#FFD04F"/>
<path d="M137.049 138.333C136.926 138.447 136.735 138.445 136.617 138.325L133.382 135.093L134.384 134.092L136.652 136.357C136.771 136.475 136.961 136.48 137.084 136.366L143.307 130.579L144.274 131.618L137.049 138.333Z" fill="white"/>
</svg>
