<svg width="206" height="163" viewBox="0 0 206 163" fill="none" xmlns="http://www.w3.org/2000/svg">
<path opacity="0.3" d="M28.1809 13.4141H14.844V19.6581H28.1809V13.4141Z" fill="white"/>
<path opacity="0.3" d="M36.1385 4.91602H22.8015V11.16H36.1385V4.91602Z" fill="white"/>
<path opacity="0.3" d="M59.0673 82.3346C58.4979 82.3346 57.9285 82.3161 57.3729 82.279L57.4331 81.3394C58.9423 81.4366 60.5162 81.3996 62.0346 81.2145L62.1457 82.1494C61.1319 82.2744 60.0996 82.3346 59.0673 82.3346ZM52.6557 81.5199C51.1142 81.1219 49.605 80.5711 48.1653 79.886L48.5681 79.039C49.9522 79.6963 51.4104 80.2239 52.8918 80.6127L52.6557 81.5199ZM66.8213 81.1358L66.5343 80.2424C67.9925 79.775 69.4183 79.1686 70.7654 78.4327L71.2145 79.2565C69.8118 80.0203 68.3351 80.6498 66.8213 81.1358ZM44.0591 77.4421C42.7722 76.5025 41.5686 75.4333 40.4807 74.2715L41.1658 73.6282C42.2121 74.7483 43.374 75.7758 44.61 76.683L44.0591 77.4421ZM75.1818 76.5905L74.5846 75.8638C75.7697 74.8918 76.8715 73.8041 77.8575 72.6284L78.5797 73.2301C77.5566 74.4521 76.4132 75.5814 75.1818 76.5905ZM37.555 70.4946C36.7032 69.1477 35.9718 67.7128 35.3885 66.2363L36.2634 65.8892C36.8282 67.3148 37.5272 68.6941 38.3512 69.9901L37.555 70.4946ZM81.2971 69.3004L80.4777 68.8422C81.2276 67.4999 81.8526 66.0836 82.3386 64.6348L83.2321 64.931C82.7229 66.4353 82.0748 67.9072 81.2971 69.3004ZM34.0599 61.6447C33.7636 60.0895 33.6155 58.488 33.6155 56.8865H34.5552C34.5552 58.4278 34.6987 59.9692 34.9811 61.4688L34.0599 61.6447ZM84.3015 60.27L83.371 60.1451C83.5145 59.0712 83.5839 57.9742 83.5839 56.8819C83.5839 56.4375 83.57 55.9886 83.5469 55.5442L84.4866 55.4933C84.5098 55.9515 84.5237 56.419 84.5237 56.8819C84.5237 58.0205 84.4496 59.1592 84.3015 60.27ZM34.6293 54.9564L33.6942 54.8823C33.8192 53.2901 34.0923 51.7071 34.5089 50.175L35.4163 50.4204C35.0135 51.8969 34.7497 53.4243 34.6293 54.9564ZM82.871 50.9989C82.5053 49.5085 81.9914 48.0505 81.3526 46.6573L82.2044 46.2639C82.871 47.7126 83.4034 49.2308 83.783 50.7768L82.871 50.9989ZM37.0411 46.1204L36.1986 45.7085C36.8976 44.2828 37.7402 42.9081 38.6938 41.6353L39.4437 42.2C38.5225 43.4219 37.717 44.7457 37.0411 46.1204ZM79.0426 42.6721C78.1538 41.4224 77.14 40.2513 76.0289 39.1914L76.677 38.511C77.8297 39.6126 78.8806 40.8299 79.8018 42.1259L79.0426 42.6721ZM42.5407 38.7841L41.9065 38.0898C43.0824 37.0159 44.3693 36.0439 45.721 35.2108L46.2164 36.0115C44.9109 36.8169 43.6749 37.7519 42.5407 38.7841ZM72.4227 36.3309C71.1358 35.4931 69.7655 34.7757 68.3443 34.1925L68.7008 33.3223C70.1729 33.924 71.5987 34.6692 72.9319 35.5394L72.4227 36.3309ZM50.3411 33.9749L50.0078 33.0955C51.4938 32.5308 53.0446 32.1004 54.6139 31.8227L54.7759 32.7484C53.2668 33.0168 51.7715 33.4288 50.3411 33.9749ZM63.9419 32.8595C62.4466 32.5586 60.9051 32.3966 59.3635 32.3781L59.3728 31.4385C60.9699 31.457 62.5716 31.6283 64.1271 31.9384L63.9419 32.8595Z" fill="white"/>
<path d="M205.478 116.568V74.512C205.478 67.1572 199.515 61.2002 192.164 61.2002H170.842V116.568H205.478Z" fill="#01AC4C"/>
<path d="M164.907 48.5137C164.907 48.5137 161.462 50.1568 160.601 52.2351C159.74 54.3087 155.662 70.8559 155.662 70.8559L138.122 77.9608L138.95 83.3855H150.417L163.735 76.4195L166.698 49.6199L164.907 48.5137Z" fill="#456997"/>
<path d="M169.221 47.1064L164.907 48.5182C164.907 48.5182 159.37 88.4954 159.37 90.9995C159.37 93.5035 159.37 101.141 159.37 101.141L167.712 104.432L166.902 89.398L169.221 47.1064Z" fill="#456997"/>
<path d="M170.841 45.9306L169.221 47.1062C169.221 47.1062 163.615 89.8606 163.967 92.4434C164.319 95.0261 165.258 101.136 165.258 101.136L188.28 107.361L189.224 78.9371V48.2773L186.289 44.9863L176.471 49.3233L170.841 45.9306Z" fill="#343C4B"/>
<path d="M131.101 159.321C131.165 158.849 131.374 158.294 131.971 158.012C133.707 157.192 140.1 154.628 141.813 153.202C143.141 152.096 144.28 149.731 144.725 148.727L156.728 149.083C157.497 152.18 158.089 158.169 158.21 159.419L131.101 159.321Z" fill="#CBA000"/>
<path d="M131.086 162.037L158.19 162.139L158.2 159.417L131.096 159.316L131.086 162.037Z" fill="white"/>
<path d="M144.089 153.972C144.108 154.004 144.126 154.036 144.145 154.064C144.274 154.305 144.362 154.671 144.047 154.814C143.885 154.888 143.7 154.865 143.529 154.828C142.932 154.708 142.385 154.453 141.862 154.152C141.298 153.828 140.696 153.481 140.33 152.926C139.95 152.352 140.474 151.819 141.122 151.954C142.228 152.194 143.487 152.977 144.089 153.972Z" fill="#FFEEDE"/>
<path d="M142.048 155.425C142.066 155.457 142.085 155.49 142.103 155.517C142.233 155.758 142.321 156.124 142.006 156.267C141.844 156.341 141.659 156.318 141.487 156.281C140.89 156.161 140.344 155.906 139.821 155.605C139.256 155.281 138.654 154.934 138.289 154.379C137.909 153.805 138.432 153.272 139.08 153.407C140.187 153.643 141.446 154.425 142.048 155.425Z" fill="#FFEEDE"/>
<path d="M139.534 156.374C139.552 156.406 139.571 156.439 139.589 156.467C139.719 156.707 139.807 157.073 139.492 157.216C139.33 157.29 139.145 157.267 138.974 157.23C138.377 157.11 137.83 156.855 137.307 156.555C136.742 156.231 136.141 155.883 135.775 155.328C135.395 154.754 135.918 154.222 136.566 154.356C137.673 154.597 138.932 155.379 139.534 156.374Z" fill="#FFEEDE"/>
<path d="M162.097 107.829L151.051 105.209L146.677 148.787L156.722 149.083L162.097 107.829Z" fill="#343C4B"/>
<path d="M153.223 117.507L156.588 116.567H205.478C205.478 119.203 203.341 121.339 200.706 121.339H153.223V117.507Z" fill="#01AC4C"/>
<path d="M121.304 157.877C121.401 157.41 121.646 156.868 122.262 156.628C124.054 155.929 130.599 153.8 132.405 152.499C133.807 151.485 135.104 149.203 135.613 148.231L147.566 149.402C148.121 152.545 148.306 158.558 148.339 159.817L121.304 157.877Z" fill="#FCC700"/>
<path d="M121.123 160.589L148.157 162.529L148.352 159.815L121.318 157.874L121.123 160.589Z" fill="#F2F2F2"/>
<path d="M134.627 153.425C134.645 153.458 134.659 153.49 134.673 153.522C134.789 153.768 134.849 154.143 134.525 154.263C134.358 154.323 134.173 154.291 134.006 154.244C133.419 154.087 132.891 153.791 132.386 153.458C131.845 153.097 131.271 152.708 130.942 152.129C130.604 151.532 131.164 151.037 131.794 151.213C132.891 151.523 134.094 152.388 134.627 153.425Z" fill="white"/>
<path d="M132.493 154.731C132.511 154.763 132.525 154.796 132.539 154.828C132.655 155.073 132.715 155.448 132.391 155.569C132.224 155.629 132.039 155.596 131.872 155.55C131.284 155.393 130.757 155.097 130.252 154.763C129.711 154.402 129.136 154.013 128.808 153.435C128.47 152.838 129.03 152.343 129.66 152.518C130.757 152.833 131.96 153.694 132.493 154.731Z" fill="white"/>
<path d="M129.919 155.508C129.938 155.541 129.951 155.573 129.965 155.605C130.081 155.851 130.141 156.226 129.817 156.346C129.651 156.406 129.465 156.374 129.299 156.327C128.711 156.17 128.183 155.874 127.678 155.541C127.137 155.18 126.563 154.791 126.234 154.212C125.896 153.615 126.456 153.12 127.086 153.296C128.188 153.61 129.391 154.476 129.919 155.508Z" fill="white"/>
<path d="M198.455 108.278C198.455 108.278 198.585 120.085 186.84 120.085C182.188 120.085 156.588 116.568 156.588 116.568L147.565 149.403L133.719 148.232C136.131 136.688 142.635 97.9235 145.987 97.058C153.796 95.0584 185.965 105.931 185.965 105.931L194.548 107.542L198.455 108.278Z" fill="#414C5B"/>
<path d="M183.609 43.2505C183.419 43.4402 175.068 49.6194 175.068 49.6194C175.068 49.6194 175.258 45.8147 175.351 43.829C175.378 43.2134 175.397 42.7737 175.397 42.6812C175.397 41.8897 174.721 38.4552 174.721 38.4552L183.146 34.5996C183.146 34.5996 183.28 36.3353 183.41 38.2562C183.567 40.5705 183.716 43.1486 183.609 43.2505Z" fill="#FFA07F"/>
<path d="M183.41 38.2562C181.068 39.9549 175.915 43.6763 175.397 43.8198C175.383 43.8244 175.364 43.829 175.351 43.829C175.378 43.2134 175.397 42.7737 175.397 42.6812C175.397 41.8897 174.721 38.4552 174.721 38.4552L183.146 34.5996C183.151 34.5996 183.28 36.34 183.41 38.2562Z" fill="#FF7D6F"/>
<path d="M184.303 34.8965C184.303 34.8965 184.091 35.5028 183.151 36.336C182.961 36.5072 182.734 36.6877 182.475 36.8729C181.484 37.581 172.23 41.5478 170.804 41.358C169.379 41.1682 168.036 36.2665 167.962 35.7528C167.504 32.5914 166.245 21.2745 166.245 21.2745C169.763 10.6287 182.313 17.6873 183.739 18.7334C185.16 19.7841 184.303 34.8965 184.303 34.8965Z" fill="#FFA07F"/>
<path d="M183.151 36.3361C182.961 36.5074 182.734 36.6879 182.475 36.873C181.484 37.5812 172.23 41.5479 170.804 41.3582C169.378 41.1684 168.036 36.2667 167.962 35.7529C168.851 37.9052 169.855 40.8814 170.864 40.7842C172.383 40.6454 182.026 36.9286 183.151 36.3361Z" fill="#FFBF90"/>
<path d="M186.875 27.3747C186.593 27.4071 186.306 27.4858 186.028 27.6061C184.959 28.0459 183.991 29.0271 183.732 30.0871C183.204 29.4807 183.228 28.5735 183.38 27.7867C183.524 26.9905 183.774 26.1805 183.589 25.3983C183.524 25.1345 183.413 24.8799 183.316 24.6299C182.917 23.5885 182.765 22.4036 182.816 21.2835C181.228 22.0472 179.08 21.2835 178.339 19.6866C176.455 21.2326 173.52 21.3251 171.539 19.9041C170.803 21.052 169.974 22.1675 168.9 23.0099C167.826 23.8477 166.465 24.3893 165.109 24.255C163.752 24.1254 162.433 23.2136 162.053 21.8991C162.03 21.8158 162.007 21.7278 161.993 21.6445C161.762 20.4781 162.266 19.2284 163.095 18.3536C163.988 17.4232 165.201 16.8632 166.428 16.4558C166.733 14.8266 167.539 13.151 169.034 12.4382C170.534 11.7208 172.377 11.7624 173.839 12.5447C175.205 11.2255 177.284 10.6793 179.126 11.17C180.964 11.6606 182.501 13.1603 183.033 14.9886C184.413 14.4794 186.116 15.0626 186.899 16.3077C187.676 17.5574 187.463 19.3395 186.399 20.3624C187.445 21.0844 188.153 22.2879 188.273 23.5561C188.389 24.829 187.764 26.4629 186.875 27.3747Z" fill="#343C4B"/>
<path d="M186.873 27.3747C186.59 27.4071 186.303 27.4858 186.026 27.6061C185.646 26.6573 185.688 25.551 186.322 24.7503C184.216 23.7505 183.262 20.8854 184.341 18.8211C182.086 19.6773 179.258 18.4091 178.392 16.155C177.077 18.8211 172.92 19.4552 170.869 17.3075C170.235 19.2145 168.726 20.8114 166.856 21.5566C165.314 22.1675 163.551 22.1907 161.986 21.6445C161.819 20.7975 162.037 19.9088 162.486 19.1543C162.657 18.8673 162.856 18.5943 163.088 18.3536C163.981 17.4232 165.194 16.8632 166.421 16.4558C166.726 14.8266 167.532 13.151 169.027 12.4382C170.527 11.7208 172.369 11.7624 173.832 12.5447C175.198 11.2255 177.276 10.6793 179.119 11.17C180.957 11.6606 182.494 13.1603 183.026 14.9886C184.405 14.4794 186.109 15.0626 186.891 16.3077C187.669 17.5574 187.456 19.3395 186.391 20.3624C187.141 20.8808 187.715 21.6445 188.026 22.5008C188.146 22.8387 188.234 23.1951 188.266 23.5561C188.387 24.829 187.762 26.4629 186.873 27.3747Z" fill="#414C5B"/>
<path d="M185.581 17.2003C184.743 16.0756 182.905 15.8951 181.868 16.8347C181.595 15.2609 180.424 13.8816 178.924 13.3493C177.42 12.817 175.637 13.1596 174.443 14.2102C174.994 14.6407 175.545 15.0712 176.091 15.5016C174.577 15.4137 173.063 15.3257 171.55 15.2378C171.929 15.0249 172.309 14.812 172.693 14.5991C171.402 14.2565 169.953 14.6083 168.962 15.497C167.971 16.3857 167.467 17.7882 167.666 19.1073C165.995 18.5704 164.152 18.6028 162.481 19.1582C162.652 18.8713 162.851 18.5982 163.083 18.3575C163.976 17.4271 165.189 16.8671 166.416 16.4597C166.721 14.8305 167.527 13.1549 169.022 12.4421C170.522 11.7247 172.364 11.7663 173.827 12.5486C175.193 11.2294 177.271 10.6833 179.114 11.1739C180.952 11.6645 182.489 13.1642 183.021 14.9925C184.401 14.4833 186.104 15.0665 186.887 16.3116C187.664 17.5614 187.451 19.3434 186.387 20.3663C187.136 20.8847 187.711 21.6484 188.021 22.5047C187.049 21.815 185.979 21.255 184.859 20.8616C186.062 20.1349 186.414 18.3204 185.581 17.2003Z" fill="#495969"/>
<path d="M182.943 35.2706C184.85 35.1225 186.239 33.9885 186.979 33.0443C187.146 32.8314 187.28 32.6277 187.382 32.4472C187.928 31.4613 188.081 28.0362 186.683 27.24C185.702 26.6846 184.984 27.49 184.646 28.0269C184.503 28.2537 184.424 28.4296 184.424 28.4296L182.943 35.2706Z" fill="#FFBF90"/>
<path d="M182.942 35.2707C184.85 35.1226 186.238 33.9886 186.979 33.0444C187.044 32.9472 187.099 32.8546 187.146 32.7666C187.692 31.7808 187.845 28.3556 186.447 27.5595C185.651 27.1059 185.03 27.5502 184.641 28.0223C184.498 28.2491 184.419 28.425 184.419 28.425L182.942 35.2707Z" fill="#FFA07F"/>
<path d="M187.123 29.9578C187.192 30.2309 187.15 30.5179 187.058 30.7864C186.674 31.9343 185.526 32.8137 184.428 33.6237C184.762 33.0683 184.882 32.4388 184.813 31.8232C184.79 31.6103 184.743 31.3973 184.743 31.1844C184.734 30.3281 186.706 28.3425 187.123 29.9578Z" fill="#FF7D6F"/>
<path d="M183.877 33.956C183.877 33.956 183.9 33.9421 183.937 33.9189C183.979 33.8958 184.039 33.8634 184.113 33.8125C184.261 33.7153 184.465 33.5579 184.655 33.3218C184.845 33.0904 185.021 32.7803 185.099 32.41C185.173 32.0444 185.16 31.6139 184.96 31.2019C184.937 31.151 184.91 31.1001 184.882 31.0492L184.859 31.0122C184.854 31.0029 184.859 31.0075 184.854 31.0075C184.854 31.0075 184.854 31.0075 184.859 31.0029L184.877 30.9705L184.914 30.9057C184.937 30.8641 184.965 30.8178 184.993 30.7761C185.095 30.6095 185.21 30.4475 185.326 30.304C185.442 30.1559 185.562 30.0216 185.678 29.8967C185.798 29.7763 185.909 29.6606 186.025 29.5727C186.141 29.4847 186.266 29.4292 186.382 29.4153C186.497 29.4014 186.608 29.4292 186.683 29.4662C186.757 29.5032 186.798 29.5542 186.817 29.5866C186.835 29.6236 186.835 29.6467 186.835 29.6421C186.835 29.6421 186.84 29.619 186.831 29.5819C186.821 29.5403 186.794 29.4801 186.72 29.4246C186.645 29.369 186.53 29.3181 186.372 29.3135C186.22 29.3135 186.048 29.3644 185.9 29.4477C185.747 29.531 185.613 29.6375 185.474 29.7532C185.331 29.8689 185.192 30.0031 185.053 30.1513C184.914 30.2994 184.785 30.4614 184.664 30.6373C184.632 30.6789 184.604 30.7252 184.576 30.7715L184.535 30.8409L184.479 30.9381L184.442 31.0075C184.451 31.0307 184.465 31.0538 184.479 31.077L184.535 31.1742C184.558 31.2158 184.585 31.2575 184.604 31.3038C184.775 31.6602 184.812 32.0351 184.78 32.373C184.738 32.7109 184.627 33.0071 184.488 33.2432C184.349 33.4792 184.192 33.6551 184.072 33.7708C184.011 33.831 183.961 33.868 183.928 33.9004C183.891 33.9374 183.877 33.956 183.877 33.956Z" fill="#CF4A57"/>
<path d="M175.355 43.8293C175.355 43.8293 171.531 45.4586 170.842 45.9261L169.763 54.3825L175.073 49.6151L177.554 55.4008C177.554 55.4008 185.665 47.1017 186.294 44.9865L183.618 43.2461L175.156 49.1337L175.355 43.8293Z" fill="white"/>
<path d="M175.073 49.6201L171.582 52.7537L172.267 55.8734L168.323 86.4545L171.203 92.0922L175.596 87.0424L175.105 56.2668L176.869 53.8136L175.073 49.6201Z" fill="#FD7658"/>
<path d="M186.29 44.9902C186.29 44.9902 182.415 66.8372 181.707 73.1784C181.003 79.5196 181.234 99.1356 181.707 102.542C182.174 105.949 186.993 110.295 190.164 111.471C193.335 112.647 200.15 108.18 200.15 108.18L193.456 74.53L194.395 50.5075C194.395 50.5122 191.928 47.6933 186.29 44.9902Z" fill="#456997"/>
<path d="M184.878 100.246L186.29 97.4922L196.627 103.486L194.983 105.208L184.878 100.246Z" fill="#254F79"/>
<path d="M159.484 87.8057H49.0193C47.2567 87.8057 45.8279 89.2345 45.8279 90.9971C45.8279 92.7597 47.2567 94.1885 49.0193 94.1885H159.484C161.247 94.1885 162.675 92.7597 162.675 90.9971C162.675 89.2345 161.247 87.8057 159.484 87.8057Z" fill="#797E84"/>
<path d="M127.798 98.9096H80.7045C78.0982 98.9096 75.9827 96.7944 75.9827 94.1885H132.515C132.515 96.7944 130.404 98.9096 127.798 98.9096Z" fill="#515D6C"/>
<path d="M108 99V160C105 160 102.5 160 99.9998 160V99H108Z" fill="#515D6C"/>
<path d="M197.958 121.34H159.266C158.055 121.34 157.074 122.321 157.074 123.531C157.074 124.742 158.055 125.723 159.266 125.723H197.958C199.168 125.723 200.149 124.742 200.149 123.531C200.149 122.321 199.168 121.34 197.958 121.34Z" fill="#515D6C"/>
<path d="M204.316 159.642H199.932L190.525 121.34H194.914L204.316 159.642Z" fill="#515D6C"/>
<path d="M152.908 159.642H157.296L166.698 121.34H162.314L152.908 159.642Z" fill="#515D6C"/>
<path d="M0.48877 116.568V74.512C0.48877 67.1572 6.45128 61.2002 13.8026 61.2002H35.125V116.568H0.48877Z" fill="#01AC4C"/>
<path d="M49.9527 65.9077C49.3787 69.6106 45.9808 72.2072 42.569 73.7624C36.6667 76.4516 29.9033 77.058 23.5751 75.7527C18.4505 74.702 12.5157 72.4803 9.51596 67.9581C7.53926 64.982 5.72922 61.8669 7.04856 58.2011C7.34483 57.3772 7.7661 56.6042 8.21977 55.8405C9.0947 54.3593 10.0715 52.9291 10.4187 51.2582C10.951 48.7263 10.0437 45.7223 11.7149 43.7552C13.099 42.1213 15.7285 41.9685 17.0478 40.2884C18.631 38.2796 17.5339 35.3913 17.3024 32.8456C16.7932 27.3098 20.9966 22.2044 26.0471 19.8901C29.2089 18.4414 32.8197 17.8396 36.2223 18.5617C39.6294 19.2791 42.7866 21.399 44.4346 24.4632C45.629 26.6849 45.99 29.2492 46.328 31.7486C46.9437 36.2569 47.5594 40.8068 47.2214 45.3474C46.9992 48.2727 46.3881 51.2304 46.9159 54.1186C47.4205 56.8541 48.925 59.4323 49.6472 62.0752V62.0798C49.9897 63.3388 50.1564 64.607 49.9527 65.9077Z" fill="#DE624C"/>
<path d="M74.8723 159.321C74.8074 158.849 74.5991 158.294 74.0019 158.012C72.266 157.192 65.8729 154.628 64.1601 153.202C62.8315 152.096 61.6927 149.731 61.2483 148.727L49.2446 149.083C48.4761 152.18 47.8835 158.169 47.7632 159.419L74.8723 159.321Z" fill="#343C4B"/>
<path d="M74.8725 159.323L47.7681 159.424L47.7782 162.145L74.8827 162.044L74.8725 159.323Z" fill="white"/>
<path d="M61.8824 153.97C61.8638 154.002 61.8453 154.034 61.8268 154.062C61.6972 154.303 61.6092 154.669 61.924 154.812C62.086 154.886 62.2712 154.863 62.4425 154.826C63.0397 154.706 63.5859 154.451 64.109 154.15C64.6738 153.826 65.2756 153.479 65.6413 152.924C66.0209 152.35 65.4978 151.817 64.8497 151.952C63.7387 152.192 62.4795 152.975 61.8824 153.97Z" fill="#FFEEDE"/>
<path d="M63.9239 155.424C63.9053 155.456 63.8868 155.489 63.8683 155.516C63.7387 155.757 63.6507 156.123 63.9655 156.266C64.1275 156.34 64.3127 156.317 64.484 156.28C65.0812 156.16 65.6274 155.905 66.1505 155.604C66.7153 155.28 67.3171 154.933 67.6828 154.378C68.0624 153.804 67.5393 153.271 66.8912 153.406C65.7802 153.642 64.521 154.424 63.9239 155.424Z" fill="#FFEEDE"/>
<path d="M66.4331 156.372C66.4146 156.404 66.3961 156.437 66.3776 156.465C66.248 156.705 66.16 157.071 66.4748 157.214C66.6368 157.289 66.822 157.265 66.9933 157.228C67.5905 157.108 68.1367 156.853 68.6598 156.553C69.2246 156.229 69.8264 155.881 70.1921 155.326C70.5717 154.752 70.0486 154.22 69.4005 154.354C68.2941 154.595 67.0349 155.377 66.4331 156.372Z" fill="#FFEEDE"/>
<path d="M59.2898 148.786L50.4571 149.045L48.2536 135.262L43.8696 107.828L54.9151 105.208L57.8547 134.47L59.2898 148.786Z" fill="#414C5B"/>
<path d="M59.2896 148.786L50.457 149.045L48.2534 135.261L57.8545 134.47L59.2896 148.786Z" fill="#FFA07F"/>
<path d="M52.7441 116.566H0.48877C0.48877 119.202 2.62531 121.339 5.26087 121.339H52.7441V116.566Z" fill="#01AC4C"/>
<path d="M84.6629 157.877C84.5657 157.41 84.3203 156.868 83.7046 156.628C81.9131 155.929 75.3673 153.8 73.5619 152.499C72.1592 151.485 70.863 149.203 70.3538 148.231L58.401 149.402C57.8455 152.545 57.6603 158.558 57.6279 159.817L84.6629 157.877Z" fill="#414C5B"/>
<path d="M84.6658 157.867L57.6318 159.808L57.8267 162.522L84.8607 160.582L84.6658 157.867Z" fill="#F2F2F2"/>
<path d="M71.34 153.424C71.3215 153.457 71.3076 153.489 71.2937 153.521C71.178 153.767 71.1178 154.142 71.4419 154.262C71.6085 154.322 71.7937 154.29 71.9603 154.244C72.5482 154.086 73.076 153.79 73.5806 153.457C74.1222 153.096 74.6962 152.707 75.0249 152.128C75.3628 151.531 74.8027 151.036 74.1731 151.212C73.076 151.522 71.8724 152.387 71.34 153.424Z" fill="white"/>
<path d="M73.4784 154.73C73.4599 154.762 73.446 154.795 73.4321 154.827C73.3164 155.072 73.2562 155.447 73.5803 155.568C73.7469 155.628 73.9321 155.595 74.0988 155.549C74.6867 155.392 75.2144 155.096 75.719 154.762C76.2606 154.401 76.8347 154.012 77.1633 153.434C77.5013 152.837 76.9411 152.342 76.3116 152.517C75.2098 152.832 74.0062 153.693 73.4784 154.73Z" fill="white"/>
<path d="M76.048 155.507C76.0295 155.54 76.0156 155.572 76.0017 155.604C75.886 155.85 75.8258 156.225 76.1499 156.345C76.3165 156.405 76.5017 156.373 76.6683 156.327C77.2563 156.169 77.784 155.873 78.2886 155.54C78.8302 155.179 79.4042 154.79 79.7329 154.211C80.0709 153.614 79.5107 153.119 78.8811 153.295C77.784 153.61 76.5804 154.475 76.048 155.507Z" fill="white"/>
<path d="M67.8172 148.481L59.9474 149.249L56.4986 133.595L52.7489 116.567C52.7489 116.567 23.7835 120.08 19.1311 120.08C13.5528 120.08 10.715 117.21 9.27533 114.197C7.83563 111.184 7.68749 107.717 8.67353 104.532L10.428 98.9041L39.2684 94.8633L39.6943 100.242C48.8001 97.733 56.0218 96.0436 59.9798 97.0526C62.35 97.6636 64.9933 116.733 66.5487 132.346C67.1968 138.854 67.6505 144.76 67.8172 148.481Z" fill="#414C5B"/>
<path d="M67.8171 148.481L59.9473 149.25L56.4985 133.596L66.5487 132.351C67.1968 138.854 67.6505 144.76 67.8171 148.481Z" fill="#FFA07F"/>
<path d="M8.0093 125.724H46.7014C47.9118 125.724 48.8931 124.742 48.8931 123.532C48.8931 122.322 47.9118 121.34 46.7014 121.34H8.0093C6.79888 121.34 5.81765 122.322 5.81765 123.532C5.81765 124.742 6.79888 125.724 8.0093 125.724Z" fill="#515D6C"/>
<path d="M1.65063 159.642H6.03919L15.4413 121.34H11.0573L1.65063 159.642Z" fill="#515D6C"/>
<path d="M53.0589 159.642H48.6704L39.2683 121.34H43.6522L53.0589 159.642Z" fill="#515D6C"/>
<path d="M160.602 75.1787C160.602 75.1787 156.287 75.3361 155.662 75.5305C155.037 75.7249 146.658 81.7189 146.895 82.3808C147.131 83.0473 147.756 83.4778 148.186 83.3574C148.617 83.2417 149.519 82.3808 149.519 82.3808C149.519 82.3808 149.441 83.2788 150.422 83.3806C151.399 83.4778 152.302 82.3808 152.302 82.3808C152.302 82.3808 152.991 82.8946 153.746 82.9686C154.5 83.0427 157.079 82.0661 157.079 82.0661L160.602 82.1031V75.1787Z" fill="#FFA07F"/>
<path d="M160.602 73.9609H165.833L164.296 82.7321H160.602V73.9609Z" fill="white"/>
<path d="M194.395 50.5127C194.395 50.5127 196.391 52.1188 196.627 53.998C196.863 55.8772 201.404 83.26 200.15 85.8567C198.895 88.4533 162.676 83.908 162.676 83.908L164.296 72.48L187.539 73.2623L190.525 52.4336L194.395 50.5127Z" fill="#456997"/>
<path d="M191.322 52.2992C188.882 54.5765 188.257 57.8582 187.961 61.0473C187.59 64.9862 187.294 68.9344 186.965 72.8734C186.952 72.8687 186.938 72.8641 186.919 72.8641C185.535 72.8687 184.151 72.8687 182.767 72.8734C182.466 72.8734 182.466 73.3455 182.767 73.3455C183.975 73.3455 185.188 73.3733 186.396 73.3177C186.618 73.3085 187.044 73.364 187.239 73.2668C187.479 73.1465 187.424 72.9382 187.447 72.6697C187.498 72.0634 187.549 71.4524 187.6 70.846C187.803 68.4114 188.007 65.9768 188.211 63.5467C188.243 63.1579 188.275 62.7691 188.308 62.3803C188.6 58.9043 188.942 55.1643 191.646 52.6418C191.872 52.4242 191.539 52.091 191.322 52.2992Z" fill="#254F79"/>
<path d="M193.571 86.079C189.979 86.2317 186.401 86.0697 182.836 85.6022C182.535 85.5606 182.54 86.0327 182.836 86.0743C186.401 86.5465 189.979 86.7038 193.571 86.5511C193.872 86.5372 193.872 86.0651 193.571 86.079Z" fill="#254F79"/>
<path d="M115.231 87.8047H162.677V83.9028H115.231V87.8047Z" fill="#343C4B"/>
<path d="M115.23 87.8055H155.662L148.913 60.1172H108.48L115.23 87.8055Z" fill="#414C5B"/>
<path d="M163.962 55.2614C163.624 54.2338 163.147 53.2757 162.522 52.3916C162.351 52.1463 161.939 52.3824 162.115 52.6277C162.717 53.4794 163.184 54.3958 163.508 55.3864C163.601 55.6733 164.055 55.553 163.962 55.2614Z" fill="#254F79"/>
<path d="M163.523 58.1595C162.981 63.1907 162.352 68.2081 161.639 73.2163C161.597 73.5125 162.051 73.6375 162.092 73.3413C162.815 68.2915 163.449 63.2278 163.995 58.1595C164.023 57.8586 163.555 57.8632 163.523 58.1595Z" fill="#254F79"/>
<path d="M150.028 31.3966H119.216C118.026 31.3966 117.063 30.4304 117.063 29.2444V8.19814C117.063 7.00815 118.03 6.0459 119.216 6.0459H150.028C151.219 6.0459 152.181 7.01215 152.181 8.19814V29.2444C152.181 30.4347 151.219 31.3966 150.028 31.3966Z" fill="white" stroke="#E0E0E0" stroke-width="0.5"/>
<path d="M124.666 11.3328C124.666 12.6196 123.62 13.6656 122.333 13.6656C121.046 13.6656 120 12.6196 120 11.3328C120 10.0461 121.046 9.00002 122.333 9.00002C123.625 8.99539 124.666 10.0415 124.666 11.3328Z" fill="#DFDEEE"/>
<path d="M122.628 12.3663C122.471 12.5233 122.218 12.5289 122.054 12.3791L121.155 11.5568C120.975 11.392 120.962 11.1123 121.127 10.9322C121.292 10.752 121.572 10.7397 121.752 10.9048L122.319 11.425L124.159 9.58923C124.332 9.4171 124.611 9.41777 124.783 9.59072C124.954 9.76293 124.953 10.041 124.782 10.2125L122.628 12.3663Z" fill="#01AC4C"/>
<path d="M124.666 18.3328C124.666 19.6196 123.62 20.6656 122.333 20.6656C121.046 20.6656 120 19.6196 120 18.3328C120 17.0461 121.046 16 122.333 16C123.625 15.9954 124.666 17.0415 124.666 18.3328Z" fill="#DFDEEE"/>
<path d="M122.628 19.3663C122.471 19.5233 122.218 19.5289 122.054 19.3791L121.155 18.5568C120.975 18.392 120.962 18.1123 121.127 17.9322C121.292 17.752 121.572 17.7397 121.752 17.9048L122.319 18.425L124.159 16.5892C124.332 16.4171 124.611 16.4178 124.783 16.5907C124.954 16.7629 124.953 17.041 124.782 17.2125L122.628 19.3663Z" fill="#01AC4C"/>
<path d="M124.666 25.3328C124.666 26.6196 123.62 27.6656 122.333 27.6656C121.046 27.6656 120 26.6196 120 25.3328C120 24.0461 121.046 23 122.333 23C123.625 22.9954 124.666 24.0415 124.666 25.3328Z" fill="#DFDEEE"/>
<path d="M122.628 26.3663C122.471 26.5233 122.218 26.5289 122.054 26.3791L121.155 25.5568C120.975 25.392 120.962 25.1123 121.127 24.9322C121.292 24.752 121.572 24.7397 121.752 24.9048L122.319 25.425L124.159 23.5892C124.332 23.4171 124.611 23.4178 124.783 23.5907C124.954 23.7629 124.953 24.041 124.782 24.2125L122.628 26.3663Z" fill="#01AC4C"/>
<path d="M148.086 10.8506H128.823C128.354 10.8506 127.974 11.2309 127.974 11.6999C127.974 12.169 128.354 12.5493 128.823 12.5493H148.086C148.555 12.5493 148.936 12.169 148.936 11.6999C148.936 11.2309 148.555 10.8506 148.086 10.8506Z" fill="#DFDEEE"/>
<path d="M148.105 17.8711H128.842C128.373 17.8711 127.993 18.2514 127.993 18.7204C127.993 19.1895 128.373 19.5698 128.842 19.5698H148.105C148.574 19.5698 148.954 19.1895 148.954 18.7204C148.954 18.2514 148.574 17.8711 148.105 17.8711Z" fill="#DFDEEE"/>
<path d="M148.123 24.8926H128.861C128.391 24.8926 128.011 25.2728 128.011 25.7419C128.011 26.211 128.391 26.5913 128.861 26.5913H148.123C148.592 26.5913 148.973 26.211 148.973 25.7419C148.973 25.2728 148.592 24.8926 148.123 24.8926Z" fill="#DFDEEE"/>
<path d="M42.1987 51.79C42.1987 51.79 44.9485 52.7482 45.1336 53.9192C45.3142 55.0902 48.8926 72.0031 48.8926 72.0031L58.7067 78.3443L55.0634 84.4541L39.0369 80.5383L42.1987 51.79Z" fill="#FCC700"/>
<path d="M35.7733 51.2531L42.1987 51.79C42.1987 51.79 47.3372 71.2579 44.018 74.5303C40.6988 77.8027 37.8472 80.5429 37.8472 80.5429L39.273 94.873L10.4326 98.9138C10.4326 98.9138 18.8533 59.6771 17.8163 48.5176L21.978 48.9619L32.9679 55.9465L35.7733 51.2531Z" fill="#FCC700"/>
<path d="M38.2312 55.9228C36.884 57.4317 34.9073 58.7046 32.0603 58.9314C25.783 59.422 22.8157 51.6645 21.9731 48.9568L24.5239 49.3039C24.8248 49.1651 25.2646 48.0449 25.6997 46.735C26.3848 44.6614 27.0329 42.1064 27.0329 42.1064L32.6483 44.717C32.6483 44.717 31.8474 46.823 31.4724 48.5124C31.3104 49.2437 31.2271 49.901 31.3289 50.2713C31.3289 50.2713 31.3289 50.2759 31.3335 50.2806C31.3428 50.3315 31.3659 50.387 31.3937 50.4287C31.4169 50.4611 31.4493 50.4935 31.5002 50.5212C31.9909 50.8314 33.7593 51.072 35.773 51.2479C35.773 51.2526 37.2914 53.59 38.2312 55.9228Z" fill="#FFA07F"/>
<path d="M38.3469 60.2693C36.0647 61.7921 32.0603 58.9317 32.0603 58.9317C32.0603 58.9317 30.903 62.0606 26.7459 60.6165C22.5888 59.1677 21.9731 48.957 21.9731 48.957L24.5239 49.3042C24.5239 49.3042 28.3199 56.9738 31.9353 56.585C35.1064 56.2471 32.2548 51.6555 31.5048 50.5261C31.4169 50.3919 31.3567 50.304 31.3335 50.2808C31.3289 50.2762 31.3289 50.2716 31.3289 50.2716L35.773 51.2528C35.773 51.2528 37.2914 53.5949 38.2312 55.9231C38.9719 57.7652 39.3561 59.5982 38.3469 60.2693Z" fill="white"/>
<path d="M25.6953 46.7304C27.3109 47.3599 29.8339 48.0774 31.4727 48.5124C31.8476 46.823 32.6485 44.717 32.6485 44.717L27.0332 42.1065C27.0332 42.1018 26.3851 44.6614 25.6953 46.7304Z" fill="#FF7D6F"/>
<path d="M32.1392 21.4111C32.3614 21.4204 40.4811 23.6884 41.7125 26.572C42.9393 29.4556 44.3142 39.8885 41.8792 44.7161C39.4442 49.5438 36.1203 48.6643 34.9445 48.2431C33.7687 47.8219 28.2783 45.1374 27.084 43.2257C25.8896 41.3141 23.6676 31.6681 24.436 29.2381C25.2045 26.8081 32.1392 21.4111 32.1392 21.4111Z" fill="#FFBF90"/>
<path d="M31.7966 20.6475C32.0188 20.6567 40.1386 22.9247 41.37 25.8084C42.5967 28.692 43.9716 39.1248 41.5366 43.9525C39.1016 48.7801 35.7778 47.9007 34.602 47.4795C33.4261 47.0583 27.9358 44.3737 26.7415 42.4621C25.5471 40.5505 23.3251 30.9044 24.0935 28.4744C24.862 26.0398 31.7966 20.6475 31.7966 20.6475Z" fill="#FFA07F"/>
<path d="M26.8387 38.0699C26.5471 37.9079 25.1444 35.8389 24.0102 36.9868C22.8807 38.1347 22.4826 40.1158 23.4223 41.2914C24.2834 42.3653 25.4962 43.5409 27.0748 43.2308L26.8387 38.0699Z" fill="#FFA07F"/>
<path d="M23.9638 38.5143C23.8851 38.7781 23.9129 39.0558 23.9869 39.3243C24.2832 40.4583 25.2924 41.3563 26.2599 42.194C25.9821 41.6386 25.8988 41.023 25.9868 40.4305C26.0192 40.2223 26.0701 40.0186 26.0794 39.8103C26.1257 38.9725 24.4128 36.9545 23.9638 38.5143Z" fill="#FF7D6F"/>
<path d="M26.7461 42.5312C26.7461 42.5312 26.7275 42.5173 26.6905 42.4942C26.6535 42.4711 26.5979 42.434 26.5331 42.3831C26.4035 42.2813 26.2229 42.1193 26.0609 41.8832C25.8989 41.6472 25.7554 41.3417 25.6952 40.976C25.6443 40.615 25.6767 40.203 25.8758 39.8096C25.8989 39.7587 25.9267 39.7124 25.9545 39.6661L25.9776 39.6337C25.9822 39.6245 25.9776 39.6291 25.9822 39.6291C25.9822 39.6291 25.9822 39.6291 25.9776 39.6245L25.9637 39.5921L25.9313 39.5273C25.9082 39.4856 25.8896 39.4393 25.8665 39.3977C25.7785 39.231 25.686 39.0737 25.5841 38.9256C25.4869 38.7774 25.3804 38.6432 25.2786 38.5182C25.1767 38.3933 25.0749 38.2776 24.9777 38.1896C24.8758 38.1017 24.7647 38.0415 24.6583 38.023C24.5518 38.0045 24.4499 38.0276 24.3805 38.06C24.3111 38.0924 24.2694 38.1387 24.2509 38.1711C24.2324 38.2035 24.2324 38.2266 24.2324 38.2266C24.2324 38.2266 24.2277 38.2081 24.237 38.1665C24.2462 38.1294 24.274 38.0693 24.3481 38.0184C24.4175 37.9674 24.5286 37.9258 24.6721 37.9258C24.8156 37.9304 24.9638 37.9906 25.098 38.0785C25.2323 38.1665 25.348 38.2776 25.473 38.3933C25.598 38.5136 25.723 38.6478 25.8387 38.796C25.9591 38.9441 26.0702 39.1061 26.172 39.282C26.1998 39.3236 26.2229 39.3699 26.2461 39.4162L26.2831 39.4856L26.3294 39.5828L26.3618 39.6522C26.3526 39.6754 26.3387 39.6939 26.3248 39.717L26.2692 39.8096C26.2461 39.8513 26.2183 39.8883 26.1998 39.9346C26.0285 40.2725 25.9776 40.6381 25.9915 40.9621C26.0146 41.2908 26.1026 41.587 26.2183 41.8231C26.3341 42.0591 26.4683 42.235 26.5748 42.3553C26.6257 42.4155 26.672 42.4572 26.6998 42.4849C26.7322 42.5173 26.7461 42.5312 26.7461 42.5312Z" fill="#CF4A57"/>
<path d="M21.8487 31.5495C21.9135 32.1003 21.9968 32.6604 22.0801 33.2112C22.0801 33.2158 22.0801 33.2158 22.0848 33.2251C22.5477 36.2198 22.9551 39.0941 22.9551 39.0941C23.168 38.0758 24.2837 37.0344 24.2837 37.0344C25.4734 36.553 26.927 38.1638 26.927 38.1638L26.802 31.332C26.802 31.332 26.8159 31.3273 26.8344 31.3227C28.8343 30.8228 30.7739 29.9156 32.783 29.3787C36.6392 28.3465 40.4584 27.9901 44.4071 27.6152C44.3562 25.3981 43.3702 23.218 41.7407 21.7137C40.5278 20.5936 38.9677 19.8623 37.3382 19.617C35.8985 19.3994 34.4681 18.9551 33.0006 18.9551C29.5379 18.9551 23.0523 24.8658 21.9274 26.6663C21.9042 26.708 21.8765 26.7589 21.8533 26.8144C21.8348 26.8515 21.8209 26.8931 21.8024 26.944C21.5107 27.805 21.6033 29.6009 21.8487 31.5495Z" fill="#DE624C"/>
<path d="M49.6474 62.0794C48.3327 59.3392 47.0226 56.5898 45.6986 53.8543C44.819 52.0168 43.9256 50.1237 43.7867 48.0964C43.6293 45.7219 44.5135 43.4261 45.0135 41.1025C46.3745 34.7706 44.7357 27.8647 40.6712 22.8149C40.699 24.4905 39.4907 26.1059 37.8797 26.5548C38.2501 25.2125 37.6946 23.6666 36.5604 22.8612C36.6993 25.6337 33.9171 28.1702 31.1719 27.7675C32.0191 27.0964 32.2274 25.7541 31.621 24.8561C31.695 26.8418 29.5378 28.1332 27.612 28.6516C25.6909 29.17 23.4688 29.5264 22.3624 31.1834C20.3996 34.1226 23.6216 38.4642 21.8023 41.496C20.3209 43.9676 16.6314 43.7779 14.3306 45.5043C12.4511 46.9161 11.7752 49.3646 10.9651 51.5724C10.3818 53.1693 9.51616 54.8541 8.21533 55.8493C9.09027 54.3681 10.067 52.9379 10.4142 51.2669C10.9466 48.7351 10.0393 45.7311 11.7104 43.764C12.3585 43.0003 13.2798 42.5605 14.2102 42.1393C15.2657 41.6533 16.3397 41.1951 17.0434 40.2972C18.6266 38.2883 17.5294 35.4001 17.298 32.8544C16.7888 27.3186 20.9921 22.2132 26.0427 19.8989C29.2045 18.4502 32.8153 17.8484 36.2178 18.5705C39.625 19.2879 42.7821 21.4078 44.4302 24.472C44.7403 25.0459 44.9949 25.6476 45.2079 26.2632C45.8143 28.0221 46.0782 29.9106 46.3282 31.762C46.9439 36.2703 47.5596 40.8202 47.2216 45.3608C46.9994 48.2861 46.3884 51.2438 46.9161 54.132C47.4207 56.8583 48.9298 59.4364 49.6474 62.0794Z" fill="#FD7658"/>
<path d="M45.2122 26.2586C43.467 24.06 41.3653 22.1577 38.9766 20.6765L38.7081 23.3241C38.0369 21.7226 36.412 20.5654 34.676 20.4543C35.4121 21.9262 34.3659 23.9582 32.7456 24.222C33.2085 23.014 32.5743 21.5004 31.3939 20.982C31.2179 24.0461 27.945 26.5363 24.9406 25.8883C25.76 24.9209 26.5701 23.9489 27.3849 22.9816C25.7322 23.6712 24.0518 24.3701 22.6167 25.4486C21.1817 26.5224 19.9919 28.0314 19.6679 29.7949C19.2327 32.1693 20.3993 34.5901 20.0938 36.9877C19.7373 39.8065 17.0338 42.0838 14.2192 42.1393C15.2747 41.6533 16.3487 41.1951 17.0524 40.2972C18.6356 38.2883 17.5384 35.4001 17.307 32.8544C16.7977 27.3186 21.0011 22.2132 26.0517 19.8989C29.2135 18.4502 32.8243 17.8484 36.2268 18.5705C39.634 19.2879 42.7911 21.4078 44.4392 24.472C44.7493 25.0413 44.9993 25.643 45.2122 26.2586Z" fill="#F88859"/>
<path d="M17.8068 48.5131C17.8068 48.5131 13.7516 47.8096 12.6545 50.5127C11.5573 53.2158 3.83106 79.5247 5.81239 84.4588C7.79835 89.3929 39.6894 83.1674 39.6894 83.1674L38.9071 73.2391H19.7048L17.8068 48.5131Z" fill="#FCC700"/>
<path d="M39.5366 81.1861L46.1611 80.5381L54.79 83.1579L56.1511 79.5198C56.1511 79.5198 51.0311 73.7202 50.4802 73.9562C49.9339 74.1923 46.1564 74.8542 46.1564 74.8542H39.032L39.5366 81.1861Z" fill="#FFA07F"/>
<path d="M93.2731 83.9033H45.8276V87.8052H93.2731V83.9033Z" fill="#343C4B"/>
<path d="M93.2688 87.8055H52.8413L59.5908 60.1172H100.023L93.2688 87.8055Z" fill="#414C5B"/>
<path d="M19.5984 56.3172C19.0521 53.8779 17.0662 51.994 14.5988 51.5821C14.3025 51.5312 14.1775 51.9848 14.4738 52.0357C16.793 52.4199 18.6309 54.151 19.1447 56.4421C19.2141 56.7384 19.6678 56.6134 19.5984 56.3172Z" fill="#FDA859"/>
<path d="M36.148 73.3501C30.417 73.9241 24.6813 74.498 18.9502 75.072C20.876 71.096 21.5334 66.6849 20.8529 62.3109C20.8066 62.0147 20.3529 62.1396 20.3992 62.4359C21.0797 66.8192 20.3622 71.2719 18.3531 75.2247C18.279 75.3682 18.367 75.595 18.5568 75.5765C24.422 74.9886 30.2873 74.4008 36.148 73.813C36.4443 73.7898 36.4489 73.3177 36.148 73.3501Z" fill="#FDA859"/>
<path d="M35.9722 83.6395C28.8617 85.0003 21.6585 85.7548 14.4183 85.9029C14.1174 85.9075 14.1174 86.3796 14.4183 86.375C21.6955 86.2315 28.945 85.4678 36.0972 84.0977C36.3935 84.0375 36.2685 83.5839 35.9722 83.6395Z" fill="#FDA859"/>
<path d="M44.726 66.1293C44.314 62.9726 43.6566 59.8622 42.7817 56.8027C42.6984 56.5111 42.2447 56.6361 42.328 56.9277C43.0687 59.5336 43.6613 62.1765 44.0733 64.8518C44.4714 67.467 45.3463 71.1282 43.0039 73.0861C42.7725 73.2805 43.1058 73.6091 43.3372 73.4194C45.4991 71.6142 45.0547 68.6102 44.726 66.1293Z" fill="#FDA859"/>
<path d="M89.6809 25.7958H58.8684C57.6828 25.7958 56.7158 24.8295 56.7158 23.6389V2.59267C56.7158 1.40669 57.6782 0.44043 58.8684 0.44043H89.6809C90.8671 0.44043 91.8335 1.40269 91.8335 2.59267V23.6436C91.8335 24.8295 90.8711 25.7958 89.6809 25.7958Z" fill="white" stroke="#E0E0E0" stroke-width="0.5"/>
<path d="M69.3323 4.73828H61.7034C61.1511 4.73828 60.7034 5.186 60.7034 5.73828V10.1072C60.7034 10.6595 61.1511 11.1072 61.7034 11.1072H69.3323C69.8845 11.1072 70.3323 10.6595 70.3323 10.1072V5.73828C70.3323 5.186 69.8845 4.73828 69.3323 4.73828Z" fill="#FCC700"/>
<path d="M60.7073 4.73145V4.78699L64.2302 7.92055L65.5171 9.06844L66.5633 8.14272L66.8087 7.92518L70.3362 4.80087V4.74533H69.9056L66.5633 7.70763L65.5171 8.63335L64.4755 7.70763L61.1378 4.73607L60.7073 4.73145Z" fill="white"/>
<path d="M60.697 11.0403V11.1005L70.3259 11.1098V11.0496L66.803 7.92067L66.5577 7.70312L65.5115 8.62885L64.4699 7.70312L64.2245 7.92067L60.697 11.0403ZM61.1322 11.0959L64.4745 8.13822L65.5161 9.06394L66.5623 8.13822L69.9 11.1051L61.1322 11.0959Z" fill="white"/>
<path d="M72.4461 10.036C72.4461 11.3227 71.3999 12.3688 70.1129 12.3688C68.826 12.3688 67.7798 11.3227 67.7798 10.036C67.7798 8.7492 68.826 7.70314 70.1129 7.70314C71.4045 7.69851 72.4461 8.74458 72.4461 10.036Z" fill="#DFDEEE"/>
<path d="M70.4075 11.0695C70.2505 11.2264 69.9977 11.2321 69.8339 11.0822L68.9347 10.2599C68.7545 10.0951 68.742 9.81545 68.9069 9.63532C69.0718 9.45509 69.3516 9.44282 69.5317 9.60792L70.099 10.1281L71.939 8.29235C72.1116 8.12023 72.3911 8.1209 72.5627 8.29385C72.7337 8.46605 72.7332 8.74409 72.5616 8.91566L70.4075 11.0695Z" fill="#01AC4C"/>
<path d="M88.0746 5.73145H76.7466C76.4527 5.73145 76.2144 5.96976 76.2144 6.26373C76.2144 6.55771 76.4527 6.79602 76.7466 6.79602H88.0746C88.3686 6.79602 88.6069 6.55771 88.6069 6.26373C88.6069 5.96976 88.3686 5.73145 88.0746 5.73145Z" fill="#E0E0E0"/>
<path d="M88.0746 9.7959H76.7466C76.4527 9.7959 76.2144 10.0342 76.2144 10.3282C76.2144 10.6222 76.4527 10.8605 76.7466 10.8605H88.0746C88.3686 10.8605 88.6069 10.6222 88.6069 10.3282C88.6069 10.0342 88.3686 9.7959 88.0746 9.7959Z" fill="#E0E0E0"/>
<path d="M88.0703 16.835H61.2296C60.9356 16.835 60.6973 17.0733 60.6973 17.3672C60.6973 17.6612 60.9356 17.8995 61.2296 17.8995H88.0703C88.3642 17.8995 88.6025 17.6612 88.6025 17.3672C88.6025 17.0733 88.3642 16.835 88.0703 16.835Z" fill="#E0E0E0"/>
<path d="M84.4314 20.625H61.2293C60.9353 20.625 60.697 20.8633 60.697 21.1573C60.697 21.4513 60.9353 21.6896 61.2293 21.6896H84.4314C84.7254 21.6896 84.9637 21.4513 84.9637 21.1573C84.9637 20.8633 84.7254 20.625 84.4314 20.625Z" fill="#E0E0E0"/>
</svg>
