<svg width="275" height="201" viewBox="0 0 275 201" fill="none" xmlns="http://www.w3.org/2000/svg">
<path d="M206.16 1.71387C205.505 1.71387 204.85 1.77298 204.195 1.8321C196.275 2.71887 189.784 9.04446 188.832 16.9071C188.057 23.2327 190.797 29.4992 195.977 33.2236C197.466 34.2877 198.717 35.7065 199.55 37.3027H197.526V38.7215H197.168V40.1995H197.526V41.3227H197.168V42.8006H197.526V43.9239H197.168V45.4018H197.526V46.525H197.168V47.8847H197.526C197.645 49.1262 198.717 50.0721 199.967 50.0721H201.277V50.7224C201.277 51.6683 202.052 52.4368 203.004 52.4368H209.138C210.091 52.4368 210.865 51.6683 210.865 50.7224V50.0721H212.175C213.425 50.0721 214.497 49.1262 214.616 47.8847H214.974V46.4068H214.616V45.2836H214.974V43.8056H214.616V42.6824H214.974V41.2045H214.616V40.0812H214.974V38.6033H214.616V37.2436H212.651C213.545 35.6474 214.795 34.2286 216.403 33.0462C220.869 29.7947 223.489 24.5333 223.489 19.0945C223.608 9.5174 215.807 1.71387 206.16 1.71387Z" fill="#D4EBF8"/>
<path d="M202.935 87.0082C210.917 83.7866 214.758 74.7509 211.513 66.8262C208.267 58.9016 199.166 55.0889 191.183 58.3105C183.201 61.532 179.36 70.5678 182.605 78.4924C185.85 86.4171 194.952 90.2297 202.935 87.0082Z" fill="#D4EBF8"/>
<path d="M235.876 184.625H229.087C229.087 181.019 226.705 177.412 224.919 174.397C224.859 174.279 224.799 174.22 224.74 174.102C223.192 171.442 221.167 169.018 220.571 165.885C220.393 164.998 220.393 163.993 220.81 163.224C221.286 162.337 222.179 161.805 223.132 161.569C234.387 158.731 236.769 173.747 235.876 184.625Z" fill="url(#paint0_linear)"/>
<path d="M232.958 184.625H232.66C232.66 183.088 232.481 181.551 232.243 180.073C231.945 178.24 231.469 176.466 230.873 174.693C229.682 171.205 227.896 167.894 225.514 165.057C225.335 164.82 225.514 164.702 225.693 164.879C228.253 167.599 230.278 170.909 231.469 174.516C232.064 176.289 232.481 178.122 232.719 180.013C232.898 181.551 233.017 183.088 232.958 184.625Z" fill="#5148FF"/>
<path d="M233.732 184.625H240.759C240.759 184.625 242.605 169.904 234.625 169.904C227.42 169.904 232.243 179.008 233.732 184.625Z" fill="url(#paint1_linear)"/>
<path d="M235.816 173.57C236.888 176.88 237.305 180.368 237.543 183.797C237.543 184.093 237.543 184.388 237.603 184.625H238.198C238.198 184.329 238.198 184.034 238.139 183.738C237.9 180.25 237.305 176.703 235.995 173.452C235.935 173.215 235.757 173.274 235.816 173.57Z" fill="#5148FF"/>
<path d="M31.9185 186.694H39.6004C39.6004 176.88 50.7361 167.303 42.3396 166.239C39.3622 165.884 37.2184 167.362 35.6701 169.786C31.9185 175.639 31.9185 186.694 31.9185 186.694Z" fill="url(#paint2_linear)"/>
<path d="M34.8364 186.693H35.3128C35.4915 185.215 35.7297 183.737 36.0274 182.259C36.4443 180.19 36.9802 178.18 37.6948 176.229C37.8735 175.756 38.1117 175.284 38.2903 174.751C38.4094 174.515 38.4689 174.279 38.588 174.042L38.9453 173.333L39.3026 172.623C39.4217 172.387 39.5408 172.15 39.6599 171.914L40.4936 170.554C40.6723 170.259 40.5532 170.14 40.315 170.436L39.4217 171.736C39.2431 171.973 39.124 172.209 39.0049 172.446L38.6476 173.155L38.2903 173.865C38.1712 174.101 38.0521 174.338 37.933 174.574C37.6948 175.047 37.5162 175.52 37.278 176.052C36.5038 178.062 35.9679 180.072 35.4915 182.141C35.2533 183.678 35.0151 185.156 34.8364 186.693Z" fill="#5148FF"/>
<path d="M183.592 170.437H190.618C190.618 170.437 192.465 155.717 184.485 155.717C177.22 155.717 182.103 164.821 183.592 170.437Z" fill="url(#paint3_linear)"/>
<path d="M185.675 159.322C186.747 162.633 187.164 166.121 187.402 169.55C187.402 169.845 187.402 170.141 187.462 170.377H188.057C188.057 170.082 188.057 169.786 187.998 169.491C187.76 166.003 187.164 162.456 185.854 159.204C185.795 158.968 185.556 159.086 185.675 159.322Z" fill="#5148FF"/>
<path d="M200.444 170.436H200.861C201.04 169.076 201.218 167.776 201.457 166.416C201.814 164.583 202.29 162.751 202.945 160.977C203.124 160.563 203.303 160.09 203.481 159.677C203.6 159.44 203.66 159.263 203.779 159.026L204.077 158.376L204.375 157.726C204.494 157.489 204.553 157.312 204.732 157.135L205.506 155.952C205.685 155.716 205.566 155.598 205.387 155.834L204.553 157.016C204.434 157.194 204.315 157.43 204.196 157.608L203.839 158.258L203.481 158.908C203.362 159.145 203.303 159.322 203.184 159.558C203.005 159.972 202.767 160.445 202.588 160.859C201.874 162.632 201.397 164.465 200.98 166.357C200.802 167.717 200.623 169.076 200.444 170.436Z" fill="#5148FF"/>
<path d="M110.405 183.442C117.372 182.141 122.374 187.284 122.672 187.639C122.97 186.575 126.007 176.821 135.833 173.333C142.026 171.145 147.504 172.682 149.41 173.333C148.159 170.022 148.814 166.298 151.137 163.637C153.578 160.8 157.628 159.617 161.32 160.681C165.548 154.238 173.23 150.927 180.793 152.228C188.296 153.587 194.251 159.204 196.037 166.534C198.3 163.164 202.35 161.509 206.22 162.337C209.674 163.046 212.413 165.647 213.426 169.076C218.13 164.229 225.217 162.396 231.648 164.465C237.365 166.239 241.771 170.85 243.379 176.525C247.965 172.919 254.217 171.559 259.934 173.333C268.569 176.052 273.988 185.097 272.142 194.319C262.673 194.319 253.264 194.319 243.796 194.319H232.005H99.8052C100.877 188.821 105.105 184.447 110.405 183.442Z" fill="#ECF9FF"/>
<path d="M123.506 82.5869H27.9883V194.556H123.506V82.5869Z" fill="#E6E7E8"/>
<path d="M127.317 95.9482H31.7993V190.773H127.317V95.9482Z" fill="#F9FBFC"/>
<path d="M127.317 78.7441H31.7993V95.9474H127.317V78.7441Z" fill="url(#paint4_linear)"/>
<path d="M45.4362 107.239H63.6584C64.9089 107.239 65.9213 108.244 65.9213 109.486V127.576C65.9213 128.817 64.9089 129.822 63.6584 129.822H45.4362C44.1857 129.822 43.1733 128.817 43.1733 127.576V109.486C43.1733 108.244 44.1857 107.239 45.4362 107.239Z" fill="#E1E4F9"/>
<path d="M88.669 130.117H70.4469C69.0177 130.117 67.8862 128.994 67.8862 127.575V109.485C67.8862 108.067 69.0177 106.943 70.4469 106.943H88.669C90.0982 106.943 91.2297 108.067 91.2297 109.485V127.575C91.2297 128.935 90.0982 130.117 88.669 130.117ZM70.4469 107.535C69.375 107.535 68.4817 108.421 68.4817 109.485V127.575C68.4817 128.64 69.375 129.526 70.4469 129.526H88.669C89.7409 129.526 90.6342 128.64 90.6342 127.575V109.485C90.6342 108.421 89.7409 107.535 88.669 107.535H70.4469Z" fill="#E1E4F9"/>
<path d="M95.4577 107.239H113.68C114.93 107.239 115.943 108.244 115.943 109.486V127.576C115.943 128.817 114.93 129.822 113.68 129.822H95.4577C94.2072 129.822 93.1948 128.817 93.1948 127.576V109.486C93.1948 108.244 94.2072 107.239 95.4577 107.239Z" fill="#E1E4F9"/>
<path d="M63.6583 154.888H45.4361C44.0069 154.888 42.8755 153.765 42.8755 152.346V134.256C42.8755 132.837 44.0069 131.714 45.4361 131.714H63.6583C65.0875 131.714 66.2189 132.837 66.2189 134.256V152.346C66.2189 153.765 65.0875 154.888 63.6583 154.888ZM45.4361 132.364C44.3642 132.364 43.471 133.251 43.471 134.315V152.405C43.471 153.469 44.3642 154.356 45.4361 154.356H63.6583C64.7302 154.356 65.6234 153.469 65.6234 152.405V134.315C65.6234 133.251 64.7302 132.364 63.6583 132.364H45.4361Z" fill="#E1E4F9"/>
<path d="M70.447 132.068H88.6691C89.9197 132.068 90.932 133.073 90.932 134.315V152.405C90.932 153.646 89.9197 154.651 88.6691 154.651H70.447C69.1964 154.651 68.1841 153.646 68.1841 152.405V134.315C68.1841 133.073 69.1964 132.068 70.447 132.068Z" fill="#E1E4F9"/>
<path d="M113.68 154.888H95.4581C94.0289 154.888 92.8975 153.765 92.8975 152.346V134.256C92.8975 132.837 94.0289 131.714 95.4581 131.714H113.68C115.109 131.714 116.241 132.837 116.241 134.256V152.346C116.241 153.765 115.05 154.888 113.68 154.888ZM95.4581 132.364C94.3862 132.364 93.493 133.251 93.493 134.315V152.405C93.493 153.469 94.3862 154.356 95.4581 154.356H113.68C114.752 154.356 115.645 153.469 115.645 152.405V134.315C115.645 133.251 114.752 132.364 113.68 132.364H95.4581Z" fill="#E1E4F9"/>
<path d="M63.6584 158.612C63.8966 158.612 64.1348 158.849 64.1348 159.085V177.175C64.1348 177.412 63.8966 177.648 63.6584 177.648H45.4362C45.198 177.648 44.9598 177.412 44.9598 177.175V159.085C44.9598 158.849 45.198 158.612 45.4362 158.612H63.6584ZM63.6584 156.839H45.4362C44.1857 156.839 43.1733 157.844 43.1733 159.085V177.175C43.1733 178.417 44.1857 179.422 45.4362 179.422H63.6584C64.9089 179.422 65.9213 178.417 65.9213 177.175V159.085C65.9213 157.903 64.9089 156.839 63.6584 156.839Z" fill="#E1E4F9"/>
<path d="M88.669 179.717H70.4469C69.0177 179.717 67.8862 178.594 67.8862 177.175V159.085C67.8862 157.666 69.0177 156.543 70.4469 156.543H88.669C90.0982 156.543 91.2297 157.666 91.2297 159.085V177.175C91.2297 178.594 90.0982 179.717 88.669 179.717ZM70.4469 157.134C69.375 157.134 68.4817 158.021 68.4817 159.085V177.175C68.4817 178.239 69.375 179.126 70.4469 179.126H88.669C89.7409 179.126 90.6342 178.239 90.6342 177.175V159.085C90.6342 158.021 89.7409 157.134 88.669 157.134H70.4469Z" fill="#E1E4F9"/>
<path d="M95.4577 156.839H113.68C114.93 156.839 115.943 157.844 115.943 159.085V177.175C115.943 178.417 114.93 179.422 113.68 179.422H95.4577C94.2072 179.422 93.1948 178.417 93.1948 177.175V159.085C93.1948 157.903 94.2072 156.839 95.4577 156.839Z" fill="#E1E4F9"/>
<path d="M116.36 91.2186C118.531 91.2186 120.29 89.4717 120.29 87.3168C120.29 85.1619 118.531 83.415 116.36 83.415C114.189 83.415 112.43 85.1619 112.43 87.3168C112.43 89.4717 114.189 91.2186 116.36 91.2186Z" fill="#3D348B"/>
<path d="M116.36 71.5322C115.229 71.5322 114.335 72.419 114.335 73.5422V87.3166C114.335 88.4399 115.229 89.3266 116.36 89.3266C117.492 89.3266 118.385 88.4399 118.385 87.3166V73.5422C118.444 72.419 117.492 71.5322 116.36 71.5322Z" fill="url(#paint5_linear)"/>
<path d="M42.7564 91.2186C44.9271 91.2186 46.6867 89.4717 46.6867 87.3168C46.6867 85.1619 44.9271 83.415 42.7564 83.415C40.5858 83.415 38.8262 85.1619 38.8262 87.3168C38.8262 89.4717 40.5858 91.2186 42.7564 91.2186Z" fill="#3D348B"/>
<path d="M42.7566 71.5322C41.6252 71.5322 40.7319 72.419 40.7319 73.5422V87.3166C40.7319 88.4399 41.6252 89.3266 42.7566 89.3266C43.8881 89.3266 44.7813 88.4399 44.7813 87.3166V73.5422C44.7813 72.419 43.8285 71.5322 42.7566 71.5322Z" fill="#FF697D"/>
<path d="M61.1573 91.2186C63.328 91.2186 65.0876 89.4717 65.0876 87.3168C65.0876 85.1619 63.328 83.415 61.1573 83.415C58.9867 83.415 57.2271 85.1619 57.2271 87.3168C57.2271 89.4717 58.9867 91.2186 61.1573 91.2186Z" fill="#3D348B"/>
<path d="M61.1575 71.5322C60.0261 71.5322 59.1328 72.419 59.1328 73.5422V87.3166C59.1328 88.4399 60.0261 89.3266 61.1575 89.3266C62.2889 89.3266 63.1822 88.4399 63.1822 87.3166V73.5422C63.1822 72.419 62.2889 71.5322 61.1575 71.5322Z" fill="#FF697D"/>
<path d="M79.5582 91.2186C81.7288 91.2186 83.4885 89.4717 83.4885 87.3168C83.4885 85.1619 81.7288 83.415 79.5582 83.415C77.3876 83.415 75.6279 85.1619 75.6279 87.3168C75.6279 89.4717 77.3876 91.2186 79.5582 91.2186Z" fill="#3D348B"/>
<path d="M79.5579 71.5322C78.4265 71.5322 77.5332 72.419 77.5332 73.5422V87.3166C77.5332 88.4399 78.4265 89.3266 79.5579 89.3266C80.6893 89.3266 81.5826 88.4399 81.5826 87.3166V73.5422C81.5826 72.419 80.6893 71.5322 79.5579 71.5322Z" fill="#FF697D"/>
<path d="M97.9591 91.2186C100.13 91.2186 101.889 89.4717 101.889 87.3168C101.889 85.1619 100.13 83.415 97.9591 83.415C95.7885 83.415 94.0288 85.1619 94.0288 87.3168C94.0288 89.4717 95.7885 91.2186 97.9591 91.2186Z" fill="#3D348B"/>
<path d="M97.9593 71.5322C96.8278 71.5322 95.9346 72.419 95.9346 73.5422V87.3166C95.9346 88.4399 96.8278 89.3266 97.9593 89.3266C99.0907 89.3266 99.9839 88.4399 99.9839 87.3166V73.5422C99.9839 72.419 99.0907 71.5322 97.9593 71.5322Z" fill="url(#paint6_linear)"/>
<path d="M62.1101 162.928L60.8596 161.687C60.5618 161.391 60.0855 161.391 59.7877 161.687L51.9272 169.49L49.307 166.889C49.1879 166.771 48.9497 166.652 48.771 166.652C48.5924 166.652 48.3542 166.712 48.2351 166.889L46.9845 168.13C46.6868 168.426 46.6868 168.899 46.9845 169.194L51.3912 173.569C51.5103 173.687 51.7485 173.806 51.9272 173.806C52.1058 173.806 52.344 173.747 52.4631 173.569L62.1101 163.992C62.2292 163.874 62.3483 163.637 62.3483 163.46C62.3483 163.283 62.2888 163.105 62.1101 162.928Z" fill="url(#paint7_linear)"/>
<path d="M258.624 198.694H170.49C169.299 198.694 168.347 197.748 168.347 196.566C168.347 195.383 169.299 194.438 170.49 194.438H258.624C259.815 194.438 260.768 195.383 260.768 196.566C260.827 197.689 259.815 198.694 258.624 198.694Z" fill="#D4EBF8"/>
<path d="M121.303 201H77.9504C76.7594 201 75.8066 200.054 75.8066 198.871C75.8066 197.689 76.7594 196.743 77.9504 196.743H121.303C122.494 196.743 123.446 197.689 123.446 198.871C123.446 199.995 122.494 201 121.303 201Z" fill="#D4EBF8"/>
<path opacity="0.5" d="M201.587 108.287C206.545 77.7635 185.64 49.0289 154.893 44.1066C124.146 39.1842 95.2018 59.9381 90.2435 90.4617C85.2851 120.985 106.191 149.72 136.937 154.642C167.684 159.565 196.628 138.811 201.587 108.287Z" fill="#E6E7E8"/>
<path d="M246.119 186.34C247.786 189.828 248.441 192.37 248.441 192.37C248.441 192.37 233.911 195.74 232.303 194.202C230.695 192.665 239.449 188.054 239.449 188.054C239.449 188.054 243.26 188.054 246.119 186.34Z" fill="#112B46"/>
<path d="M199.67 190.773C200.623 194.853 200.027 197.454 200.027 197.454C200.027 197.454 184.544 198.045 183.175 196.094C181.805 194.084 192.167 191.128 192.167 191.128C192.167 191.128 196.216 191.956 199.67 190.773Z" fill="#112B46"/>
<path d="M239.33 130.473C239.866 130.355 240.402 130.296 240.997 130.178C239.092 140.878 234.864 151.046 233.673 155.894C232.005 162.811 236.71 172.447 241.712 178.95C243.677 181.492 245.106 184.093 246.178 186.34C243.32 188.113 239.509 188.054 239.509 188.054C239.509 188.054 232.303 182.615 225.634 173.747C220.87 167.422 219.738 160.387 219.5 157.135C221.644 154.593 223.966 152.051 226.467 149.568C234.864 141.233 238.079 134.139 239.33 130.473Z" fill="#435DF1"/>
<path d="M239.33 130.474C238.139 134.198 234.864 141.233 226.467 149.509C223.966 151.992 221.584 154.534 219.5 157.076C208.186 170.496 202.767 184.448 199.968 191.838C195.561 191.719 191.929 191.01 191.929 191.01C195.74 163.579 212.712 137.272 217.892 129.823C221.704 130.651 230.04 132.011 239.33 130.474Z" fill="#435DF1"/>
<path d="M216.582 82.8838C215.272 84.4208 213.664 86.9629 212.235 91.1011C211.58 92.9929 210.865 94.8255 210.21 96.4808H203.6V87.7314C208.9 87.1403 213.902 84.5391 216.582 82.8838Z" fill="#D03F56"/>
<path d="M208.304 93.465C208.304 98.7856 207.59 103.87 206.161 108.776C205.387 111.555 204.374 114.215 203.183 116.816C194.251 136.089 174.599 149.508 151.911 149.508C120.826 149.508 95.458 124.384 95.458 93.465C95.458 62.5465 120.767 37.4806 151.911 37.4806C182.996 37.4215 208.304 62.5465 208.304 93.465Z" fill="#0744BD"/>
<path d="M188.037 129.378C208.014 109.546 208.014 77.3932 188.037 57.5617C168.061 37.7303 135.673 37.7303 115.697 57.5617C95.7204 77.3932 95.7204 109.546 115.697 129.378C135.673 149.209 168.061 149.209 188.037 129.378Z" fill="#878CF0"/>
<path d="M151.852 142.119C178.919 142.119 200.861 120.336 200.861 93.4653C200.861 66.5946 178.919 44.8115 151.852 44.8115C124.785 44.8115 102.842 66.5946 102.842 93.4653C102.842 120.336 124.785 142.119 151.852 142.119Z" fill="#F9FBFC"/>
<path d="M155.127 93.4658C155.127 95.2393 153.697 96.6581 151.911 96.6581C150.124 96.6581 148.695 95.2393 148.695 93.4658C148.695 91.6923 150.124 90.2734 151.911 90.2734C153.697 90.2734 155.127 91.6923 155.127 93.4658Z" fill="#3D348B"/>
<path d="M152.388 94.943C151.554 94.943 150.899 94.2927 150.899 93.4651V58.8813C150.899 58.0536 151.554 57.4033 152.388 57.4033C153.221 57.4033 153.876 58.0536 153.876 58.8813V93.4651C153.876 94.2336 153.221 94.943 152.388 94.943Z" fill="#3D348B"/>
<path d="M152.388 94.9432H125.531C124.697 94.9432 124.042 94.2929 124.042 93.4652C124.042 92.6376 124.697 91.9873 125.531 91.9873H152.388C153.221 91.9873 153.876 92.6376 153.876 93.4652C153.876 94.2929 153.221 94.9432 152.388 94.9432Z" fill="#3D348B"/>
<path d="M152.387 52.3785C152.03 52.3785 151.792 52.1421 151.792 51.7873V47.9447C151.792 47.59 152.03 47.3535 152.387 47.3535C152.745 47.3535 152.983 47.59 152.983 47.9447V51.7873C152.983 52.1421 152.745 52.3785 152.387 52.3785Z" fill="#7678ED"/>
<path d="M131.366 57.6988C131.188 57.6988 130.949 57.5806 130.83 57.4032L128.925 54.0926C128.746 53.797 128.865 53.4423 129.163 53.265C129.461 53.0876 129.818 53.2059 129.997 53.5014L131.902 56.812C132.081 57.1076 131.962 57.4623 131.664 57.6397C131.545 57.6988 131.485 57.6988 131.366 57.6988Z" fill="#7678ED"/>
<path d="M115.824 72.7147C115.705 72.7147 115.646 72.7147 115.526 72.6555L112.192 70.7638C111.894 70.5864 111.834 70.2317 111.954 69.9361C112.073 69.6406 112.489 69.5814 112.787 69.6997L116.122 71.5914C116.42 71.7688 116.479 72.1235 116.36 72.4191C116.241 72.6555 116.003 72.7147 115.824 72.7147Z" fill="#7678ED"/>
<path d="M109.929 93.4656H106.058C105.701 93.4656 105.462 93.2291 105.462 92.8744C105.462 92.5197 105.701 92.2832 106.058 92.2832H109.929C110.286 92.2832 110.524 92.5197 110.524 92.8744C110.524 93.2291 110.226 93.4656 109.929 93.4656Z" fill="#7678ED"/>
<path d="M111.894 116.285C111.715 116.285 111.477 116.167 111.358 115.989C111.179 115.694 111.298 115.339 111.596 115.162L114.931 113.27C115.229 113.093 115.586 113.211 115.765 113.506C115.943 113.802 115.824 114.157 115.526 114.334L112.192 116.226C112.132 116.285 112.013 116.285 111.894 116.285Z" fill="#7678ED"/>
<path d="M128.508 133.134C128.389 133.134 128.329 133.134 128.21 133.074C127.913 132.897 127.853 132.542 127.972 132.247L129.878 128.936C130.056 128.641 130.414 128.581 130.711 128.7C131.009 128.877 131.069 129.232 130.95 129.527L129.044 132.838C128.865 133.015 128.687 133.134 128.508 133.134Z" fill="#7678ED"/>
<path d="M151.316 139.518C150.958 139.518 150.72 139.282 150.72 138.927V135.084C150.72 134.73 150.958 134.493 151.316 134.493C151.673 134.493 151.911 134.73 151.911 135.084V138.927C151.911 139.223 151.673 139.518 151.316 139.518Z" fill="#7678ED"/>
<path d="M174.302 133.666C174.123 133.666 173.885 133.547 173.766 133.37L171.86 130.059C171.682 129.764 171.801 129.409 172.099 129.232C172.396 129.054 172.754 129.173 172.932 129.468L174.838 132.779C175.016 133.074 174.897 133.429 174.6 133.606C174.481 133.666 174.421 133.666 174.302 133.666Z" fill="#7678ED"/>
<path d="M191.273 117.23C191.154 117.23 191.095 117.23 190.976 117.171L187.641 115.279C187.343 115.102 187.284 114.747 187.403 114.452C187.581 114.156 187.939 114.097 188.236 114.215L191.571 116.107C191.869 116.284 191.928 116.639 191.809 116.935C191.69 117.112 191.452 117.23 191.273 117.23Z" fill="#7678ED"/>
<path d="M197.645 94.5886H193.774C193.417 94.5886 193.179 94.3521 193.179 93.9974C193.179 93.6427 193.417 93.4062 193.774 93.4062H197.645C198.002 93.4062 198.24 93.6427 198.24 93.9974C198.24 94.293 198.002 94.5886 197.645 94.5886Z" fill="#7678ED"/>
<path d="M188.474 73.6608C188.296 73.6608 188.058 73.5426 187.938 73.3652C187.76 73.0697 187.879 72.7149 188.177 72.5376L191.511 70.6458C191.809 70.4685 192.166 70.5867 192.345 70.8823C192.524 71.1779 192.405 71.5326 192.107 71.7099L188.772 73.6017C188.653 73.6608 188.593 73.6608 188.474 73.6608Z" fill="#7678ED"/>
<path d="M173.289 58.2312C173.17 58.2312 173.111 58.2312 172.992 58.172C172.694 57.9947 172.634 57.64 172.753 57.3444L174.659 54.0338C174.838 53.7382 175.195 53.6791 175.493 53.7973C175.79 53.9747 175.85 54.3294 175.731 54.625L173.825 57.9356C173.706 58.1129 173.527 58.2312 173.289 58.2312Z" fill="#7678ED"/>
<path d="M206.161 108.718C205.387 111.497 204.374 114.157 203.183 116.758C200.027 116.581 195.859 116.581 191.988 112.797C187.105 108.068 187.284 105.821 183.949 101.565C180.614 97.3085 178.887 96.4809 179.661 90.9238L181.865 92.0471L192.583 106.472L206.161 108.718Z" fill="#E6E7E8"/>
<path d="M241.474 133.192C240.938 133.31 239.389 133.783 238.853 133.901C229.564 135.438 221.227 134.138 217.416 133.31C215.986 133.015 215.153 132.778 215.153 132.778C216.582 126.748 217.237 117.821 217.058 113.447C216.88 110.432 216.522 107.949 216.225 106.293C215.034 108.126 213.724 109.959 212.354 111.555C210.091 114.215 206.935 115.516 203.779 115.693C201.992 115.811 200.146 115.516 198.36 114.984C197.705 114.747 196.99 114.511 196.335 114.156C195.263 113.624 194.191 112.915 193.298 112.146C191.928 110.964 190.678 109.604 189.546 108.185C190.38 106.944 192.226 104.402 194.608 102.983C196.275 104.165 197.943 104.993 199.432 105.584C200.146 105.88 200.861 106.116 201.516 106.293C201.695 106.353 201.933 106.412 202.111 106.471C204.017 106.944 205.923 105.17 207.769 102.037C208.602 100.559 209.496 98.7855 210.329 96.7755C211.044 95.1203 211.699 93.2876 212.354 91.3367C213.783 87.1985 215.391 84.6564 216.701 83.1194C218.249 81.2276 219.44 80.8138 219.44 80.8138C219.44 80.8138 220.691 80.4591 222.12 80.0452L222.775 79.8679C224.562 79.3358 226.527 78.7447 226.765 78.6855C228.79 80.8729 232.303 82.4691 235.459 86.4891C240.342 92.7555 240.223 101.978 241.831 116.757C242.129 120.896 242.248 128.64 241.474 133.192Z" fill="#FF697D"/>
<path d="M216.999 113.388C216.82 110.373 216.463 107.89 216.165 106.234C219.262 100.973 222.775 94.8838 222.775 94.8838C222.775 94.8838 226.05 107.89 216.999 113.388Z" fill="#E6E7E8"/>
<path d="M226.586 78.449C226.17 78.5672 219.321 80.5772 219.321 80.5772L218.547 78.9811L217.952 77.7396C216.701 78.449 215.153 78.5081 215.153 78.5081C211.58 75.2566 211.282 70.5272 211.342 68.399C211.342 68.3399 211.401 68.3399 211.461 68.2808C211.878 68.0443 213.545 67.8078 213.724 67.7487C214.855 67.5122 215.987 67.4531 217.178 67.4531C218.071 67.4531 219.143 67.5122 219.976 67.9261C220.691 68.2808 221.048 69.0493 221.465 69.6996C222.418 71.2367 223.311 72.7737 224.204 74.3699C224.621 75.0793 225.157 75.6705 225.455 76.3799C225.455 76.6755 226.229 78.449 226.586 78.449Z" fill="#FFC8AF"/>
<path d="M194.549 102.865C192.107 104.343 190.261 106.826 189.487 108.067C186.271 104.047 184.187 99.9092 184.187 99.9092C184.187 99.9092 181.686 97.781 180.376 95.7118C179.066 93.6427 179.423 88.736 181.09 88.4995C182.817 88.263 186.45 93.1698 186.45 93.1698C186.45 93.1698 186.271 90.0957 186.628 89.9774C186.986 89.8592 188.177 90.8051 188.951 92.5195C189.725 94.2339 188.415 96.5986 188.415 96.5986C190.261 99.318 192.405 101.328 194.549 102.865Z" fill="#FFC8AF"/>
<path d="M218.369 70.1144C217.952 70.1144 217.594 70.3509 217.535 70.8238C217.475 71.1785 217.952 72.2426 217.178 72.1244C216.642 72.0653 216.403 71.0011 216.106 70.6464C215.57 69.9961 214.915 69.8779 214.141 69.937C213.664 69.937 213.545 69.937 213.247 69.5232C213.009 69.2276 212.89 68.6956 212.533 68.4591C212.116 68.1635 211.52 68.4 211.104 68.4591C210.329 68.5182 209.555 68.2226 208.9 67.8679C206.995 66.8629 206.22 63.7297 208.245 62.4291C209.257 61.7788 210.508 61.9561 211.461 62.5473C212.056 62.9611 212.652 63.0794 213.366 62.7838C213.843 62.5473 214.2 62.2517 214.676 62.0153C215.332 61.7788 215.748 61.8379 216.284 62.2517C216.939 62.6656 217.356 63.1385 218.19 62.8429C219.381 62.4882 220.512 62.0153 221.346 63.1976C221.644 63.6114 221.882 64.0844 222.358 64.3209C222.775 64.5573 223.252 64.5573 223.668 64.7938C224.204 65.0303 224.74 65.5623 225.038 66.0944C225.514 67.0994 225.336 68.5773 225.276 69.7006C225.157 71.0603 225.038 72.42 224.919 73.7797C224.859 74.5482 224.919 75.2576 225.098 75.9079C223.847 75.8488 220.87 74.0753 219.857 72.3017C219.5 71.6514 219.5 70.4691 218.607 70.1735C218.607 70.1144 218.488 70.1144 218.369 70.1144Z" fill="#112B46"/>
<path d="M218.131 72.0061C218.428 71.7696 218.369 71.6514 218.131 71.4149C217.892 71.2376 217.833 70.8829 218.19 70.7055C218.607 70.5281 218.964 71.0011 219.083 71.3558C219.262 71.8287 219.202 72.1834 218.667 72.3608C218.428 72.4199 218.011 72.3608 218.131 72.0061Z" fill="#F4B69D"/>
<path d="M219.679 71.5332C219.798 72.2426 219.619 72.952 218.964 73.0703C218.309 73.1885 219.56 74.0161 220.274 73.6614C220.274 73.6614 220.036 73.1885 219.917 72.7156C219.798 72.2426 219.679 71.5332 219.679 71.5332Z" fill="#F4B69D"/>
<path d="M193.834 101.86L196.633 103.693L190.797 110.137L188.475 107.358L193.834 101.86Z" fill="url(#paint8_linear)"/>
<path d="M218.547 78.9816L217.952 77.7401C216.701 78.4495 215.153 78.5086 215.153 78.5086C215.153 78.5086 218.249 77.0898 218.785 76.6169C219.381 76.1439 219.56 75.6119 219.738 75.5527C219.917 75.4936 219.619 78.0948 218.547 78.9816Z" fill="#F4B69D"/>
<path d="M196.395 103.988L196.931 104.284L191.928 110.787L191.035 109.841L196.395 103.988Z" fill="#E6E7E8"/>
<path d="M217.892 81.2281L218.309 79.3954L225.991 77.0898L227.122 78.9816L217.892 81.2281Z" fill="url(#paint9_linear)"/>
<path opacity="0.5" d="M152.626 147.441H118.206V172.921H152.626V147.441Z" fill="#E6E7E8"/>
<path d="M155.127 144.958H120.707V170.438H155.127V144.958Z" fill="url(#paint10_linear)"/>
<path d="M131.842 151.757H151.434V149.983H131.842" fill="#F9FBFC"/>
<path d="M131.842 155.658H151.434V153.885H131.842" fill="#F9FBFC"/>
<path d="M122.97 152.762L125.292 155.304L129.222 150.693L127.853 149.569L125.233 152.643L124.28 151.579L122.97 152.762Z" fill="#F9FBFC"/>
<path d="M131.842 159.501H151.434V157.728H131.842" fill="#F9FBFC"/>
<path d="M131.842 163.402H143.514V161.629H131.842" fill="#F9FBFC"/>
<path d="M206.041 50.7228H212.175C213.128 50.7228 213.902 49.9543 213.902 49.0084V48.0625H204.314V49.0084C204.314 49.9543 205.089 50.7228 206.041 50.7228Z" fill="url(#paint11_linear)"/>
<path d="M215.748 35.5297C216.641 33.9335 217.892 32.5147 219.5 31.3324C223.966 28.0809 226.586 22.8194 226.586 17.3806C226.586 7.80353 218.725 0 209.078 0C208.423 0 207.768 0.0591177 207.113 0.118235C199.193 1.005 192.702 7.33059 191.75 15.1932C190.975 21.5188 193.715 27.7853 198.895 31.5097C200.384 32.5738 201.635 33.9926 202.528 35.5888" fill="#FBD15B"/>
<path d="M210.389 35.7069L213.962 23.5878C214.2 22.7601 213.307 22.1099 212.592 22.5237L209.138 24.5928L205.625 22.5237C204.91 22.1099 204.017 22.7601 204.255 23.5878L207.828 35.7069C207.947 36.0616 208.304 36.239 208.662 36.1799C209.019 36.0616 209.198 35.7069 209.138 35.3522L205.803 24.2381L209.079 26.189L212.354 24.2381L209.079 35.3522C208.96 35.7069 209.198 36.0616 209.555 36.1799C209.912 36.239 210.27 36.0616 210.389 35.7069Z" fill="#F79663"/>
<path d="M215.212 48.3578H202.945C201.575 48.3578 200.444 47.2346 200.444 45.8749V35.5293H217.713V45.8749C217.713 47.2346 216.582 48.3578 215.212 48.3578Z" fill="url(#paint12_linear)"/>
<path d="M200.146 43.5694H218.07V42.0915H200.146V43.5694ZM200.146 46.1706H218.07V44.6927H200.146V46.1706ZM200.146 40.9682H218.07V39.4903H200.146V40.9682ZM200.146 36.9482V38.4262H218.07V36.9482H200.146Z" fill="url(#paint13_linear)"/>
<path d="M101.056 143.183H98.1377V147.794H101.056V143.183Z" fill="#56548C"/>
<path d="M103.973 144.129H95.2792C94.3264 144.129 93.5522 143.36 93.5522 142.414V142.119C93.5522 141.173 94.3264 140.404 95.2792 140.404H103.914C104.867 140.404 105.641 141.173 105.641 142.119V142.414C105.641 143.36 104.867 144.129 103.973 144.129Z" fill="#56548C"/>
<path d="M101.949 145.016H97.3042V149.627H101.949V145.016Z" fill="#FBD15B"/>
<path d="M99.6265 198.695C114.229 198.695 126.067 186.943 126.067 172.446C126.067 157.95 114.229 146.198 99.6265 146.198C85.0241 146.198 73.1865 157.95 73.1865 172.446C73.1865 186.943 85.0241 198.695 99.6265 198.695Z" fill="#FBD15B"/>
<path d="M99.6266 194.497C111.894 194.497 121.839 184.625 121.839 172.446C121.839 160.268 111.894 150.396 99.6266 150.396C87.3592 150.396 77.4146 160.268 77.4146 172.446C77.4146 184.625 87.3592 194.497 99.6266 194.497Z" fill="#B1B2F3"/>
<path d="M99.6264 193.433C111.302 193.433 120.767 184.036 120.767 172.446C120.767 160.855 111.302 151.459 99.6264 151.459C87.9511 151.459 78.4863 160.855 78.4863 172.446C78.4863 184.036 87.9511 193.433 99.6264 193.433Z" fill="#F9FBFC"/>
<path d="M102.842 172.446C102.842 174.22 101.413 175.639 99.6263 175.639C97.8398 175.639 96.4106 174.22 96.4106 172.446C96.4106 170.673 97.8398 169.254 99.6263 169.254C101.413 169.254 102.842 170.673 102.842 172.446Z" fill="#56548C"/>
<path d="M99.6861 174.456H99.5075C98.912 174.456 98.4951 173.983 98.4951 173.451V157.608C98.4951 157.016 98.9715 156.603 99.5075 156.603H99.6861C100.282 156.603 100.698 157.075 100.698 157.608V173.451C100.758 173.983 100.282 174.456 99.6861 174.456Z" fill="#56548C"/>
<path d="M99.6265 155.006C100.284 155.006 100.818 154.477 100.818 153.824C100.818 153.171 100.284 152.642 99.6265 152.642C98.9688 152.642 98.4355 153.171 98.4355 153.824C98.4355 154.477 98.9688 155.006 99.6265 155.006Z" fill="#B1B2F3"/>
<path d="M99.6265 192.191C100.284 192.191 100.818 191.662 100.818 191.009C100.818 190.356 100.284 189.826 99.6265 189.826C98.9688 189.826 98.4355 190.356 98.4355 191.009C98.4355 191.662 98.9688 192.191 99.6265 192.191Z" fill="#B1B2F3"/>
<path d="M80.8682 171.264C81.5233 171.264 82.0592 171.796 82.0592 172.446C82.0592 173.096 81.5233 173.628 80.8682 173.628C80.2132 173.628 79.6772 173.096 79.6772 172.446C79.6772 171.796 80.2132 171.264 80.8682 171.264Z" fill="#B1B2F3"/>
<path d="M118.384 173.628C119.042 173.628 119.575 173.099 119.575 172.446C119.575 171.793 119.042 171.264 118.384 171.264C117.727 171.264 117.193 171.793 117.193 172.446C117.193 173.099 117.727 173.628 118.384 173.628Z" fill="#B1B2F3"/>
<defs>
<linearGradient id="paint0_linear" x1="228.225" y1="161.228" x2="228.225" y2="184.643" gradientUnits="userSpaceOnUse">
<stop stop-color="#435DF1"/>
<stop offset="0.327" stop-color="#4333F1"/>
<stop offset="1" stop-color="#4C008C"/>
</linearGradient>
<linearGradient id="paint1_linear" x1="235.867" y1="169.906" x2="235.867" y2="184.642" gradientUnits="userSpaceOnUse">
<stop stop-color="#435DF1"/>
<stop offset="0.327" stop-color="#4333F1"/>
<stop offset="1" stop-color="#4C008C"/>
</linearGradient>
<linearGradient id="paint2_linear" x1="38.7104" y1="166.183" x2="38.7104" y2="186.695" gradientUnits="userSpaceOnUse">
<stop stop-color="#435DF1"/>
<stop offset="0.327" stop-color="#4333F1"/>
<stop offset="1" stop-color="#4C008C"/>
</linearGradient>
<linearGradient id="paint3_linear" x1="185.703" y1="155.683" x2="185.703" y2="170.419" gradientUnits="userSpaceOnUse">
<stop stop-color="#435DF1"/>
<stop offset="0.327" stop-color="#4333F1"/>
<stop offset="1" stop-color="#4C008C"/>
</linearGradient>
<linearGradient id="paint4_linear" x1="63.8789" y1="60.3719" x2="94.906" y2="114.505" gradientUnits="userSpaceOnUse">
<stop stop-color="#3478FF"/>
<stop offset="1" stop-color="#482EBD"/>
</linearGradient>
<linearGradient id="paint5_linear" x1="114.36" y1="80.4473" x2="118.418" y2="80.4473" gradientUnits="userSpaceOnUse">
<stop stop-color="#FF697D"/>
<stop offset="1" stop-color="#DE2276"/>
</linearGradient>
<linearGradient id="paint6_linear" x1="95.9476" y1="80.4473" x2="100.005" y2="80.4473" gradientUnits="userSpaceOnUse">
<stop stop-color="#FF697D"/>
<stop offset="1" stop-color="#DE2276"/>
</linearGradient>
<linearGradient id="paint7_linear" x1="46.78" y1="167.667" x2="62.3516" y2="167.667" gradientUnits="userSpaceOnUse">
<stop stop-color="#FF697D"/>
<stop offset="1" stop-color="#DE2276"/>
</linearGradient>
<linearGradient id="paint8_linear" x1="192.55" y1="105.068" x2="192.55" y2="113.349" gradientUnits="userSpaceOnUse">
<stop stop-color="#FF697D"/>
<stop offset="1" stop-color="#DE2276"/>
</linearGradient>
<linearGradient id="paint9_linear" x1="222.506" y1="77.0933" x2="222.506" y2="81.2001" gradientUnits="userSpaceOnUse">
<stop stop-color="#FF697D"/>
<stop offset="1" stop-color="#DE2276"/>
</linearGradient>
<linearGradient id="paint10_linear" x1="128.089" y1="140.721" x2="147.59" y2="174.745" gradientUnits="userSpaceOnUse">
<stop stop-color="#878CF0"/>
<stop offset="1" stop-color="#685ED7"/>
</linearGradient>
<linearGradient id="paint11_linear" x1="204.306" y1="49.4137" x2="213.898" y2="49.4137" gradientUnits="userSpaceOnUse">
<stop stop-color="#3478FF"/>
<stop offset="1" stop-color="#482EBD"/>
</linearGradient>
<linearGradient id="paint12_linear" x1="200.482" y1="41.931" x2="217.722" y2="41.931" gradientUnits="userSpaceOnUse">
<stop stop-color="#3478FF"/>
<stop offset="1" stop-color="#482EBD"/>
</linearGradient>
<linearGradient id="paint13_linear" x1="200.148" y1="41.5452" x2="218.056" y2="41.5452" gradientUnits="userSpaceOnUse">
<stop stop-color="#435DF1"/>
<stop offset="0.327" stop-color="#4333F1"/>
<stop offset="1" stop-color="#4C008C"/>
</linearGradient>
</defs>
</svg>
