<svg width="175" height="181" viewBox="0 0 175 181" fill="none" xmlns="http://www.w3.org/2000/svg">
<path fill-rule="evenodd" clip-rule="evenodd" d="M137.036 127.719C136.505 127.226 135.022 127.645 132.093 126.806C129.157 125.974 126.14 126.548 125.638 127.262C125.137 127.977 128.884 130.731 130.308 130.981C131.739 131.232 132.573 133.154 134.491 133.154C136.416 133.154 137.39 131.622 137.39 131.622L137.036 127.719Z" fill="#3C3C6D"/>
<path fill-rule="evenodd" clip-rule="evenodd" d="M54.1099 155.057C54.1099 155.057 59.8198 156.353 61.6567 156.39C63.4936 156.426 65.0575 157.715 63.9141 158.96C62.7632 160.205 60.646 161.206 58.0714 161.368C55.4968 161.53 51.8526 161.803 50.3624 161.596C49.4181 159.903 49.3296 156.382 49.3296 156.382L54.1099 155.057Z" fill="#3C3C6D"/>
<path fill-rule="evenodd" clip-rule="evenodd" d="M121.632 134.73C121.632 134.73 115.922 136.027 114.085 136.063C112.241 136.1 110.684 137.389 111.828 138.634C112.979 139.878 115.096 140.88 117.671 141.042C120.245 141.204 123.889 141.476 125.38 141.27C126.324 139.576 126.412 136.056 126.412 136.056L121.632 134.73Z" fill="#3C3C6D"/>
<path fill-rule="evenodd" clip-rule="evenodd" d="M38.2787 150.808C38.8098 150.314 40.2926 150.734 43.2213 149.895C46.1574 149.062 49.1746 149.637 49.6762 150.351C50.1779 151.066 46.4303 153.82 45.0065 154.07C43.5754 154.321 42.7418 156.243 40.8237 156.243C38.8983 156.243 37.9246 154.711 37.9246 154.711L38.2787 150.808Z" fill="#3C3C6D"/>
<path fill-rule="evenodd" clip-rule="evenodd" d="M37.2089 161.538C37.2089 161.7 37.1425 161.862 37.0097 162.017C36.8252 162.223 36.5375 162.378 36.1982 162.473C35.7187 162.621 35.1433 162.635 34.6195 162.496L28.1572 160.787C27.0801 160.507 25.8408 160.868 25.6047 161.538L24.2105 165.522C24.0408 166.016 23.2809 166.362 22.4252 166.362C22.3293 166.362 22.2334 166.355 22.1375 166.347C21.5695 166.296 21.1047 166.097 20.8318 165.832C20.7064 165.706 20.6178 165.567 20.5883 165.412V165.39C20.5736 165.324 20.5809 165.257 20.5957 165.184L21.1342 162.363L21.3703 161.133C21.4957 160.455 20.5072 159.888 19.3342 159.962L12.2006 160.411C12.1342 160.419 12.0678 160.419 12.0014 160.419C11.6989 160.419 11.4112 160.374 11.153 160.301C10.6514 160.146 10.2752 159.866 10.1793 159.528C10.0244 158.968 10.6588 158.445 11.6178 158.327L18.5965 157.517C18.899 157.48 19.1719 157.407 19.3932 157.303C20.0055 157.009 20.249 156.501 19.8875 156.051L17.4162 152.936L16.9219 152.31C16.826 152.192 16.7744 152.075 16.7596 151.957C16.7522 151.927 16.7522 151.898 16.7522 151.868C16.7522 151.485 17.1137 151.117 17.7481 150.933C18.626 150.675 19.6957 150.867 20.1752 151.36L23.7088 154.947C24.2916 155.536 25.6711 155.668 26.5416 155.212L31.7867 152.443C32.1334 152.259 32.5761 152.163 33.0187 152.163C33.4908 152.163 33.9629 152.266 34.3244 152.472C34.708 152.693 34.8851 152.988 34.8629 153.275C34.8482 153.511 34.6859 153.746 34.3908 153.938L33.9703 154.196L29.5883 156.957C28.8064 157.451 29.0129 158.231 30.0088 158.578C30.0236 158.585 30.031 158.592 30.0457 158.592L36.2572 160.632C36.8769 160.809 37.2089 161.17 37.2089 161.538Z" fill="#3C3C6D"/>
<path fill-rule="evenodd" clip-rule="evenodd" d="M19.408 157.296L16.9367 154.181C16.8408 154.063 16.7892 153.938 16.7744 153.82V151.949C16.7892 152.067 16.8408 152.185 16.9367 152.303L17.431 152.929L19.9023 156.044C20.2638 156.493 20.0203 157.001 19.408 157.296Z" fill="#3C3C6D"/>
<path fill-rule="evenodd" clip-rule="evenodd" d="M31.6614 157.428C31.654 157.406 31.6541 157.377 31.6541 157.355C31.6541 157.325 31.6614 157.288 31.6614 157.259V157.428Z" fill="#3C3C6D"/>
<path fill-rule="evenodd" clip-rule="evenodd" d="M21.3775 161.126L21.1415 162.355C20.7874 162.009 20.1087 161.781 19.3415 161.833L12.2078 162.282C12.1415 162.289 12.0751 162.289 12.0087 162.289C11.116 162.289 10.3341 161.914 10.1865 161.391V159.513C10.2824 159.859 10.6587 160.139 11.1603 160.286C11.4185 160.36 11.7062 160.404 12.0087 160.404C12.0751 160.404 12.1415 160.396 12.2078 160.396L19.3415 159.947C20.5144 159.881 21.5029 160.448 21.3775 161.126Z" fill="#3C3C6D"/>
<path fill-rule="evenodd" clip-rule="evenodd" d="M25.0812 164.683V165.014C25.0517 164.904 25.0517 164.786 25.0812 164.683Z" fill="#3C3C6D"/>
<path fill-rule="evenodd" clip-rule="evenodd" d="M37.2092 161.538V163.43C37.2018 163.585 37.1428 163.74 37.01 163.894C36.5674 164.395 35.5124 164.609 34.6198 164.373L28.1575 162.664C27.0804 162.385 25.8411 162.745 25.605 163.416L24.2108 167.4C24.0411 167.893 23.2886 168.239 22.4329 168.239C22.3296 168.239 22.2337 168.232 22.1304 168.225C21.2821 168.151 20.655 167.746 20.5886 167.267C20.5886 167.267 20.5886 167.194 20.5886 167.076V165.404C20.6181 165.559 20.6993 165.699 20.8321 165.824C21.0976 166.089 21.5698 166.288 22.1378 166.339C22.2337 166.347 22.3296 166.354 22.4255 166.354C23.2812 166.354 24.0411 166.008 24.2108 165.515L25.605 161.53C25.8411 160.868 27.0804 160.499 28.1575 160.779L34.6198 162.488C35.1436 162.628 35.719 162.613 36.1985 162.466C36.5378 162.377 36.8256 162.215 37.01 162.009C37.1428 161.862 37.2092 161.7 37.2092 161.538Z" fill="#3C3C6D"/>
<path fill-rule="evenodd" clip-rule="evenodd" d="M34.8776 153.26V155.079C34.885 155.337 34.7227 155.594 34.4055 155.801L30.0235 158.562C29.035 158.224 28.8211 157.436 29.603 156.942L33.985 154.18L34.4055 153.923C34.7006 153.731 34.8629 153.495 34.8776 153.26Z" fill="#3C3C6D"/>
<path fill-rule="evenodd" clip-rule="evenodd" d="M37.0909 164.999C37.0319 165.89 36.2499 166.568 35.3499 166.502C34.4499 166.443 33.7712 165.669 33.8302 164.778C33.8893 163.887 34.6712 163.21 35.5712 163.276C36.4638 163.335 37.1499 164.101 37.0909 164.999Z" fill="#3C3C6D"/>
<path fill-rule="evenodd" clip-rule="evenodd" d="M24.0777 169.042C24.0187 169.933 23.2367 170.611 22.3367 170.545C21.4367 170.486 20.758 169.712 20.8171 168.821C20.8761 167.93 21.658 167.253 22.558 167.319C23.458 167.378 24.1367 168.151 24.0777 169.042Z" fill="#3C3C6D"/>
<path fill-rule="evenodd" clip-rule="evenodd" d="M13.4327 163.173C13.3737 164.064 12.5917 164.742 11.6917 164.675C10.7917 164.617 10.113 163.843 10.172 162.952C10.231 162.061 11.013 161.384 11.913 161.45C12.813 161.509 13.4917 162.282 13.4327 163.173Z" fill="#3C3C6D"/>
<path fill-rule="evenodd" clip-rule="evenodd" d="M19.4007 156.346C19.3417 157.237 18.5597 157.915 17.6597 157.848C16.7597 157.789 16.081 157.016 16.14 156.125C16.1991 155.234 16.981 154.556 17.881 154.623C18.7737 154.682 19.4597 155.455 19.4007 156.346Z" fill="#3C3C6D"/>
<path fill-rule="evenodd" clip-rule="evenodd" d="M35.4532 157.068C35.3942 157.959 34.6122 158.636 33.7122 158.57C32.8122 158.511 32.1335 157.738 32.1925 156.847C32.2516 155.956 33.0335 155.278 33.9335 155.344C34.8335 155.403 35.5122 156.177 35.4532 157.068Z" fill="#3C3C6D"/>
<path fill-rule="evenodd" clip-rule="evenodd" d="M26.35 159.52C26.35 161.663 21.7688 161.243 21.7688 159.52V144.555H26.35V159.52Z" fill="#56548C"/>
<path fill-rule="evenodd" clip-rule="evenodd" d="M20.7359 131.041C20.7359 131.041 33.8892 126.534 39.4442 127.204C45.0065 127.874 43.7671 151.897 43.7671 151.897C43.7671 151.897 40.8163 152.398 37.895 151.897C36.6482 145.225 34.6417 137.882 34.6417 137.882C34.6417 137.882 22.5433 141.373 20.7359 139.628C18.9285 137.882 20.7359 131.041 20.7359 131.041Z" fill="#3C3C6D"/>
<path fill-rule="evenodd" clip-rule="evenodd" d="M20.7359 131.041C20.7359 131.041 33.8892 126.534 39.4442 127.204C45.0065 127.874 43.7671 151.897 43.7671 151.897C43.3171 152.796 39.695 154.659 37.895 151.897C36.6482 145.225 34.6417 137.882 34.6417 137.882C34.6417 137.882 22.5433 141.373 20.7359 139.628C18.9285 137.882 20.7359 131.041 20.7359 131.041Z" fill="#3C3C6D"/>
<path fill-rule="evenodd" clip-rule="evenodd" d="M42.2327 144.466C41.0671 145.556 27.0802 153.282 24.476 154.718C24.1515 154.895 23.7531 154.909 23.4506 154.718C23.4506 154.718 23.4433 154.718 23.4433 154.711L23.4359 154.703C21.9752 153.775 21.2523 150.491 24.0629 148.414C24.8892 147.795 39.7908 137.794 42.1589 138.479H42.1663C42.1884 138.486 42.2179 138.501 42.24 138.508C42.3138 138.545 42.3876 138.589 42.454 138.648C43.59 139.591 43.4425 143.325 42.2327 144.466Z" fill="#56548C"/>
<path fill-rule="evenodd" clip-rule="evenodd" d="M42.1514 138.479C39.776 137.794 24.8817 147.795 24.0555 148.414C21.2448 150.498 21.9677 153.783 23.4284 154.703L6.88163 145.129L6.3136 144.798L6.29884 144.791C5.00047 143.686 4.49146 140.637 7.15458 138.663C7.99557 138.045 23.2366 127.808 25.3317 128.765L25.4719 128.846L42.1514 138.479Z" fill="#3C3C6D"/>
<path fill-rule="evenodd" clip-rule="evenodd" d="M78.8746 70.562C78.432 67.0344 76.7721 45.7432 73.6664 43.3129C73.6664 43.3129 71.5492 41.0667 70.5901 42.0094L55.0762 50.95L55.7991 60.583L62.5344 82.6105L77.5689 73.9497C78.5131 73.6846 79.1033 72.4179 78.8746 70.562Z" fill="#3C3C6D"/>
<path fill-rule="evenodd" clip-rule="evenodd" d="M57.9609 52.3866C61.0667 54.8169 62.7191 76.1154 63.1691 79.6357C63.6117 83.1634 61.0888 84.57 58.7871 80.9908C56.4929 77.4116 54.4199 57.1073 54.4199 52.8653C54.4199 48.6307 57.9609 52.3866 57.9609 52.3866Z" fill="#46467C"/>
<path fill-rule="evenodd" clip-rule="evenodd" d="M83.1089 40.692C78.7712 40.4784 71.4015 45.6042 68.067 49.802C64.7326 53.9999 66.7982 58.5586 67.9195 63.0584C69.0482 67.5581 67.2998 78.826 67.2998 79.9086C72.4195 83.3405 84.8056 83.834 86.222 78.7671C86.8269 73.2436 82.7843 67.4256 82.7327 64.1925C82.9392 57.2477 88.8409 42.7762 83.1089 40.692Z" fill="#F9FBFC"/>
<path fill-rule="evenodd" clip-rule="evenodd" d="M79.3248 41.701C81.5822 51.4959 80.874 62.0789 80.3724 66.2252C79.8707 70.3714 79.7748 84.1875 79.7748 84.1875C83.1166 82.501 84.7175 79.3784 84.7986 77.957C84.8798 76.5356 83.5814 64.5607 83.6773 63.5813C83.7732 62.6018 85.4699 53.3518 85.2929 48.3512C85.1158 43.3433 83.2273 42.5847 83.2273 42.5847L78.9338 40.6699L79.3248 41.701Z" fill="#FBD15B"/>
<path fill-rule="evenodd" clip-rule="evenodd" d="M79.7083 44.1533L80.2911 44.4111C80.2173 44.7057 80.173 45.0223 80.1435 45.3611C80.1361 45.3022 80.1214 45.2433 80.1066 45.1844L79.7083 44.1533Z" fill="#FBD15B"/>
<path fill-rule="evenodd" clip-rule="evenodd" d="M73.0394 42.7314C76.3812 49.8604 74.773 56.3928 74.6254 62.255C74.4779 68.1173 71.4312 84.5846 71.4312 84.5846C65.5812 83.1264 64.8803 79.2158 63.7516 77.2126C61.0516 63.4997 64.4598 52.357 66.9976 48.2475C68.9894 45.0218 73.0394 42.7314 73.0394 42.7314Z" fill="#FBD15B"/>
<path fill-rule="evenodd" clip-rule="evenodd" d="M69.3729 51.7897C63.9581 50.4346 66.695 63.1754 69.3508 68.2423C70.6934 70.8052 71.7557 72.2855 73.3713 73.1029C73.8951 69.6563 74.3746 66.1434 74.5516 63.6541C73.1869 59.066 72.1246 53.1448 69.3729 51.7897Z" fill="#EABD4E"/>
<path d="M47.0498 98.165L50.1039 96.0293H51.122L50.6867 96.6774L47.426 98.9162L47.0498 98.165Z" fill="#3C3C6D"/>
<path fill-rule="evenodd" clip-rule="evenodd" d="M42.2625 88.1782C41.8199 84.6506 40.1601 63.3595 37.0543 60.9291C37.0543 60.9291 34.9371 58.6829 33.9781 59.6256L18.4641 68.5662L19.1871 78.1992L25.9223 100.227L40.9568 91.566C41.9085 91.3008 42.4986 90.0341 42.2625 88.1782Z" fill="#3C3C6D"/>
<path fill-rule="evenodd" clip-rule="evenodd" d="M21.3557 70.01C24.4614 72.4403 26.1139 93.7388 26.5639 97.2591C27.0065 100.787 24.4836 102.193 22.1819 98.6142C19.8877 95.035 17.8147 74.7307 17.8147 70.4887C17.8147 66.2467 21.3557 70.01 21.3557 70.01Z" fill="#46467C"/>
<path fill-rule="evenodd" clip-rule="evenodd" d="M139.617 16.7344C136.017 18.5313 129.371 33.0986 130.499 36.5084C131.628 39.9256 134.697 38.0476 136.807 35.0428C139.713 30.9039 142.627 21.9043 142.266 19.6508C141.912 17.3972 139.617 16.7344 139.617 16.7344Z" fill="#3C3C6D"/>
<path fill-rule="evenodd" clip-rule="evenodd" d="M140.502 92.3252C140.502 92.3252 134.918 98.8429 133.428 99.2774C131.938 99.7119 133.28 101.244 134.424 101.362C135.567 101.479 139.204 101.325 140.259 100.286C141.321 99.2479 144.316 98.1359 144.316 98.1359C144.316 94.7555 143.505 92.6345 143.505 92.6345L140.502 92.3252Z" fill="#56548C"/>
<path fill-rule="evenodd" clip-rule="evenodd" d="M138.548 46.3111C138.548 46.3111 137.825 60.731 138.09 65.4517C138.356 70.1798 139.507 93.6435 139.507 93.6435C142.561 94.2989 144.508 93.6435 144.508 93.6435C145.511 75.6517 145.482 70.4744 145.77 67.7937C146.057 65.1129 146.411 57.3506 146.411 57.3506C148.566 52.895 146.316 47.1064 145.246 45.7072C144.191 44.3152 138.548 46.3111 138.548 46.3111Z" fill="#3C3C6D"/>
<path fill-rule="evenodd" clip-rule="evenodd" d="M149.635 98.5109C149.451 101.147 148.492 104.248 148.256 105.831C148.012 107.407 148.58 108.306 148.949 108.814C149.31 109.322 153.774 107.849 154.386 106.133C154.998 104.417 153.744 102.915 153.648 99.6966C152.202 97.1117 149.635 98.5109 149.635 98.5109Z" fill="#56548C"/>
<path fill-rule="evenodd" clip-rule="evenodd" d="M143.188 47.4302C143.188 47.4302 143.955 60.554 145.165 64.9212C146.375 69.2958 147.466 82.1102 147.983 84.3417C148.499 86.5806 149.126 100.389 149.126 100.389C151.915 101.089 154.084 100.389 154.084 100.389C154.025 87.457 154.342 76.9476 154.084 73.3979C153.825 69.8481 154.187 59.3388 154.187 59.3388C155.338 54.4487 155.404 53.8227 154.187 50.5676C152.97 47.3124 147.732 44.7422 143.188 47.4302Z" fill="#3C3C6D"/>
<path fill-rule="evenodd" clip-rule="evenodd" d="M140.658 16.2848C144.686 16.108 154.025 18.1996 157.101 22.1175C160.177 26.0355 155.714 32.9583 154.645 37.1266C153.575 41.295 155.139 51.7675 155.139 52.7691C150.366 55.9285 138.865 56.3262 137.574 51.6129C137.043 46.4871 138.216 40.3965 138.282 37.3918C138.12 30.9551 135.324 18.1922 140.658 16.2848Z" fill="#F9FBFC"/>
<path fill-rule="evenodd" clip-rule="evenodd" d="M144.117 17.2426C141.521 26.3379 140.916 36.5379 141.166 40.3969C141.417 44.256 141.528 56.7316 141.528 56.7316C138.511 55.1483 137.183 52.2392 137.183 50.9136C137.183 49.5953 138.319 38.298 138.282 37.3922C138.245 36.4863 136.755 26.1169 137.183 21.4698C137.603 16.8154 140.657 16.2852 140.657 16.2852H144.538L144.117 17.2426Z" fill="#3C3C6D"/>
<path fill-rule="evenodd" clip-rule="evenodd" d="M141.616 6.26953C139.846 6.82924 141.616 10.8577 141.616 10.8577V6.26953Z" fill="#3C3C6D"/>
<path fill-rule="evenodd" clip-rule="evenodd" d="M141.521 6.79909C141.521 6.79909 140.849 9.15577 141.1 10.9896C141.351 12.8234 141.521 16.4688 143.144 17.6398C144.774 18.8108 147.105 17.4483 148.647 16.1448C150.189 14.8339 151.826 12.4183 151.863 9.50191C151.9 6.57815 150.757 3.00631 146.537 3.19043C142.325 3.36718 141.521 6.79909 141.521 6.79909Z" fill="#FFC8AF"/>
<path fill-rule="evenodd" clip-rule="evenodd" d="M149.709 13.5527C149.709 13.5527 149.377 17.3161 150.366 18.7006C150.439 19.6285 147.784 23.5465 145.135 22.8616C143.593 22.4639 143.778 20.6743 143.778 20.6743C143.94 19.3045 143.778 16.0051 143.778 16.0051L149.709 13.5527Z" fill="#FFC8AF"/>
<path fill-rule="evenodd" clip-rule="evenodd" d="M140.488 3.64756C139.89 5.81276 140.569 6.59341 142.398 7.21203C144.228 7.83066 149.089 6.42402 149.089 6.42402C148.758 8.74387 149.495 9.94431 149.495 9.94431C150.299 7.66864 151.03 8.82489 151.103 10.6513C151.177 12.4704 150.152 12.4335 150.152 12.4335C150.226 13.9654 150.72 14.4883 150.72 14.4883C152.675 13.1406 155.338 4.11889 151.812 3.90532C151.76 0.753263 141.771 -0.984789 140.488 3.64756Z" fill="#3C3C6D"/>
<path fill-rule="evenodd" clip-rule="evenodd" d="M150.535 18.0967C147.4 24.6954 145.755 30.727 145.866 36.1695C145.969 41.6119 147.098 57.4753 147.098 57.4753C152.534 56.157 156.245 54.6178 157.3 52.7693C154.969 46.6346 154.121 42.5104 154.6 40.7723C155.08 39.0269 159.189 25.7264 157.049 21.779C155.021 19.5696 150.535 18.0967 150.535 18.0967Z" fill="#3C3C6D"/>
<path fill-rule="evenodd" clip-rule="evenodd" d="M149.834 17.2207C149.857 17.3312 150.535 18.1045 150.535 18.1045C150.535 18.1045 149.178 21.0724 148.684 22.3833C148.197 23.6942 146.906 24.7842 146.906 24.7842L145.143 22.862C147.57 21.5732 149.834 17.2207 149.834 17.2207Z" fill="#F9FBFC"/>
<path fill-rule="evenodd" clip-rule="evenodd" d="M144.007 18.1636C144.169 17.9647 144.552 21.868 145.143 22.8548C144.014 23.9154 143.343 24.2026 143.343 24.2026C143.343 24.2026 142.664 19.8354 144.007 18.1636Z" fill="#F9FBFC"/>
<path fill-rule="evenodd" clip-rule="evenodd" d="M145.29 22.7812L143.785 23.7018C144.132 24.917 144.154 25.6976 144.154 25.6976H145.563L146.611 24.2026L145.29 22.7812Z" fill="#EB5757"/>
<path fill-rule="evenodd" clip-rule="evenodd" d="M144.154 25.6977C142.059 36.5384 142.273 43.2476 142.273 43.2476L143.335 46.2302L145.63 42.8867C145.63 42.8867 143.97 30.1459 145.556 25.6977C144.693 25.1232 144.154 25.6977 144.154 25.6977Z" fill="#EB5757"/>
<path fill-rule="evenodd" clip-rule="evenodd" d="M46.5039 58.3077C42.1662 58.0941 32.6645 61.0694 29.3301 65.2746C25.9956 69.4724 30.1858 76.1742 31.3145 80.674C32.4432 85.1738 30.6948 96.4417 30.6948 97.5243C35.8145 100.956 48.2006 101.45 49.617 96.3828C50.2219 90.8593 46.1793 85.0412 46.1277 81.8082C46.3342 74.8633 52.2359 60.3992 46.5039 58.3077Z" fill="#F9FBFC"/>
<path fill-rule="evenodd" clip-rule="evenodd" d="M42.7197 59.3167C44.977 69.1117 44.2688 79.6946 43.7672 83.8409C43.2656 87.9872 43.1697 101.803 43.1697 101.803C46.5115 100.117 48.1123 96.9941 48.1934 95.5728C48.2746 94.1514 46.9762 82.1765 47.0721 81.197C47.168 80.2175 50.1262 68.9055 49.9418 63.8975C49.7648 58.8896 46.5041 58.3004 46.5041 58.3004L42.3213 58.2783L42.7197 59.3167Z" fill="#56548C"/>
<path fill-rule="evenodd" clip-rule="evenodd" d="M46.6367 48.1449C46.6367 48.1449 47.0203 50.6709 47.0645 52.6594C47.1309 55.8924 46.585 58.5584 44.8219 59.8104C43.0661 61.0624 39.8424 60.2376 38.1825 58.8236C36.5301 57.4022 35.4973 54.1397 35.4751 50.995C35.453 47.8503 36.7071 44.0059 41.244 44.2269C45.7883 44.4478 46.6367 48.1449 46.6367 48.1449Z" fill="#FFC8AF"/>
<path fill-rule="evenodd" clip-rule="evenodd" d="M36.7665 55.3105C36.7665 55.3105 37.0985 59.3611 36.0288 60.8487C35.9477 61.843 38.7878 66.085 41.6354 65.3632C43.2952 64.9435 43.1108 63.0139 43.1108 63.0139C42.9411 61.541 43.1403 57.9839 43.1403 57.9839L36.7665 55.3105Z" fill="#FFC8AF"/>
<path fill-rule="evenodd" clip-rule="evenodd" d="M46.2755 44.9339C43.7526 41.4283 34.3911 44.33 35.173 47.6293C31.5509 48.7856 33.8968 58.1239 38.1755 58.8309C38.1755 58.8309 40.1747 56.8351 39.9976 56.3343C39.5919 56.5184 39.0386 56.5184 38.7952 55.3769C38.382 53.4547 39.5919 52.2101 41.0378 54.3753C41.0378 54.3753 41.2591 52.6815 40.3001 50.3469C40.3001 50.3469 45.1468 49.8976 46.7181 48.5352C47.5591 47.8061 47.6919 46.9002 46.2755 44.9339Z" fill="#3C3C6D"/>
<path fill-rule="evenodd" clip-rule="evenodd" d="M35.8514 60.2002C39.1932 67.3291 38.1604 74.0089 38.0202 79.8711C37.8727 85.7333 34.8259 102.201 34.8259 102.201C28.9759 100.742 28.2751 96.8318 27.1464 94.8286C24.4464 81.1157 26.2169 68.6032 28.7546 64.4864C30.7464 61.2681 35.8514 60.2002 35.8514 60.2002Z" fill="#56548C"/>
<path fill-rule="evenodd" clip-rule="evenodd" d="M37.9318 81.4107C36.2203 76.5795 34.7744 69.8703 31.8974 68.4563C26.4826 67.1012 28.1056 80.6079 30.7539 85.6748C32.3621 88.7532 33.9851 90.4471 36.6851 91.213C37.231 87.678 37.74 84.0104 37.9318 81.4107Z" fill="#3C3C6D"/>
<path fill-rule="evenodd" clip-rule="evenodd" d="M36.6114 59.2578C36.5893 59.383 35.8516 60.2005 35.8516 60.2005C35.8516 60.2005 37.2975 63.4041 37.8212 64.8181C38.345 66.2321 39.7245 67.4178 39.7245 67.4178L41.6352 65.3631C39.0237 63.9638 36.6114 59.2578 36.6114 59.2578Z" fill="#F9FBFC"/>
<path fill-rule="evenodd" clip-rule="evenodd" d="M42.882 60.3106C42.7123 60.097 42.2697 64.2949 41.6353 65.3627C42.8451 66.5116 43.568 66.8209 43.568 66.8209C43.568 66.8209 44.3205 62.1223 42.882 60.3106Z" fill="#F9FBFC"/>
<path d="M35.5933 97.2075L83.7213 124.943L143.313 90.5941L95.1852 62.8516L35.5933 97.2075Z" fill="#83C9FF"/>
<path d="M39.1491 98.0541C38.3376 98.5181 37.0171 98.5181 36.2056 98.0468C35.3868 97.5754 35.3868 96.8169 36.1983 96.3529C37.0097 95.8889 38.3302 95.889 39.1417 96.3603C39.9606 96.8316 39.9606 97.5902 39.1491 98.0541Z" fill="#83C9FF"/>
<path d="M142.708 91.4409C141.897 91.9048 140.576 91.9048 139.765 91.4335C138.946 90.9622 138.946 90.2036 139.757 89.7396C140.569 89.2757 141.889 89.2757 142.701 89.747C143.52 90.2183 143.52 90.9769 142.708 91.4409Z" fill="#83C9FF"/>
<path d="M142.31 136.6C141.72 136.939 140.753 136.939 140.163 136.593C139.566 136.247 139.566 135.694 140.156 135.356C140.746 135.017 141.712 135.017 142.303 135.363C142.9 135.709 142.9 136.262 142.31 136.6Z" fill="#878CF0"/>
<path d="M139.152 90.5938L139.713 135.982H142.752L143.313 90.5938H139.152Z" fill="#6D6D6D"/>
<path d="M85.0417 124.486C84.2302 124.95 82.9097 124.95 82.0982 124.478C81.2794 124.007 81.2794 123.249 82.0908 122.785C82.9023 122.321 84.2228 122.321 85.0343 122.792C85.8458 123.256 85.8532 124.014 85.0417 124.486Z" fill="#83C9FF"/>
<path d="M84.6434 169.645C84.0533 169.984 83.0869 169.984 82.4967 169.638C81.8992 169.292 81.8991 168.739 82.4893 168.401C83.0795 168.062 84.0459 168.062 84.636 168.408C85.2336 168.747 85.2336 169.299 84.6434 169.645Z" fill="#4F4F4F"/>
<path d="M81.4858 123.632L82.0465 169.02H85.0859L85.6465 123.632H81.4858Z" fill="#828282"/>
<path d="M96.5798 64.9067C95.7683 65.3707 94.4478 65.3707 93.6363 64.8993C92.8175 64.428 92.8174 63.6694 93.6289 63.2055C94.4404 62.7415 95.7609 62.7415 96.5724 63.2128C97.3839 63.6768 97.3839 64.4353 96.5798 64.9067Z" fill="#83C9FF"/>
<path d="M96.1737 110.066C95.5835 110.405 94.6171 110.405 94.027 110.059C93.4294 109.713 93.4294 109.16 94.0196 108.822C94.6097 108.483 95.5761 108.483 96.1663 108.829C96.7639 109.168 96.7712 109.72 96.1737 110.066Z" fill="#83C9FF"/>
<path d="M93.0164 64.0527L93.577 109.441H96.6163L97.1844 64.0527H93.0164Z" fill="#83C9FF"/>
<path d="M158.849 80.1514C158.827 85.3509 155.677 90.3073 149.244 94.0117L89.645 128.36C75.3999 136.572 50.5244 135.541 34.0809 126.062C25.2727 120.988 20.6768 114.515 20.485 108.343L20.4702 108.328V111.053L20.485 111.046C20.662 117.232 25.2579 123.706 34.0809 128.787C50.5244 138.266 75.4073 139.297 89.645 131.085L149.244 96.7366C155.685 93.0248 158.835 88.0537 158.849 82.8543L158.857 82.8616V80.1367L158.849 80.1514Z" fill="#BDBDBD"/>
<path d="M34.1248 126.099C50.5683 135.577 75.4512 136.608 89.6889 128.397L149.288 94.0481C155.721 90.3437 158.871 85.38 158.893 80.1879C158.915 73.8764 154.319 67.2188 145.297 62.0267C128.854 52.5485 103.971 51.5174 89.7332 59.729L30.1338 94.0776C23.5166 97.8924 20.3666 103.026 20.5289 108.38C20.7207 114.559 25.3166 121.025 34.1248 126.099Z" fill="#E0E0E0"/>
<path fill-rule="evenodd" clip-rule="evenodd" d="M140.664 90.167L131.694 84.9971L116.534 93.7315L115.368 93.9009V94.2028C115.368 94.328 115.42 94.4238 115.53 94.4974L124.671 99.7631C124.951 99.9252 125.43 99.9031 125.755 99.719L140.922 90.9771C141.122 90.8667 141.203 90.7194 141.181 90.5795V90.0787L140.664 90.167Z" fill="#3C3C6D"/>
<path fill-rule="evenodd" clip-rule="evenodd" d="M131.694 84.496L115.369 93.908L111.547 81.8595C111.437 81.4986 111.569 81.0788 111.85 80.9168L127.275 72.0277C127.555 71.8657 127.865 72.0277 127.976 72.3886L131.694 84.496Z" fill="#56548C"/>
<path fill-rule="evenodd" clip-rule="evenodd" d="M130.83 83.9954L115.759 92.6857L112.307 82.0364L127.533 73.2578L130.83 83.9954Z" fill="#BEE1F4"/>
<path fill-rule="evenodd" clip-rule="evenodd" d="M140.922 90.4835L125.755 99.2253C125.438 99.4095 124.951 99.4315 124.671 99.2695L115.361 93.9081L131.686 84.4961L140.996 89.8575C141.276 90.0196 141.24 90.2994 140.922 90.4835Z" fill="#56548C"/>
<path fill-rule="evenodd" clip-rule="evenodd" d="M140.922 90.4835L125.755 99.2253C125.438 99.4095 124.951 99.4315 124.671 99.2695L115.361 93.9081L131.686 84.4961L140.996 89.8575C141.276 90.0196 141.24 90.2994 140.922 90.4835Z" fill="#56548C"/>
<path fill-rule="evenodd" clip-rule="evenodd" d="M136.186 87.9871L121.417 96.4932L117.013 93.9598L131.782 85.4463L136.186 87.9871Z" fill="#112B46"/>
<path fill-rule="evenodd" clip-rule="evenodd" d="M134.135 93.2819L130.617 95.3072C130.417 95.425 130.115 95.4324 129.945 95.3367L128.256 94.3645C128.086 94.2614 128.108 94.092 128.308 93.9742L131.826 91.9489C132.026 91.8311 132.328 91.8237 132.498 91.9195L134.187 92.8916C134.357 92.9947 134.335 93.1715 134.135 93.2819Z" fill="#3C3C6D"/>
<path d="M30.9973 116.547C31.3735 115.796 38.4113 102.731 38.4113 102.731L48.7834 106.112C48.7834 106.112 42.6752 122.24 41.849 121.894C41.0227 121.555 30.9973 116.547 30.9973 116.547Z" fill="#F9FBFC"/>
<path d="M52.9294 88.8261L61.4352 82.3379L76.9639 83.7151L68.0524 90.3801L52.9294 88.8261Z" fill="#F9FBFC"/>
<path d="M63.3309 113.933L63.2055 113.94C63.1834 113.926 63.1686 113.903 63.1391 113.889L56.0202 109.787C55.7399 109.625 55.2457 109.647 54.9211 109.831L45.2792 115.384C45.2276 115.413 45.1833 115.45 45.1465 115.487L45.0137 115.502V115.759H45.021C45.0284 115.862 45.0874 115.951 45.2055 116.024L52.3243 120.127C52.6047 120.289 53.0989 120.266 53.4235 120.082L63.0654 114.529C63.2424 114.426 63.3309 114.301 63.3309 114.176V113.933Z" fill="#A5B7C6"/>
<path d="M52.3244 119.898L45.2055 115.796C44.9252 115.634 44.9621 115.347 45.2867 115.163L54.9285 109.61C55.2531 109.418 55.7473 109.403 56.0277 109.565L63.1465 113.668C63.4269 113.83 63.39 114.117 63.0654 114.301L53.4236 119.847C53.099 120.038 52.6047 120.06 52.3244 119.898Z" fill="#56548C"/>
<path d="M53.0471 119.434L45.9946 115.376L55.5479 109.867L62.593 113.932L53.0471 119.434Z" fill="#FBD15B"/>
<path fill-rule="evenodd" clip-rule="evenodd" d="M47.758 58.8531C51.808 60.6648 50.8859 71.4687 53.9842 74.1788C55.74 75.7181 64.3711 77.6844 66.7687 77.7286C67.7056 79.6508 66.0457 81.8086 66.0457 81.8086C51.3211 80.6303 50.2809 80.2694 46.8801 74.3335C44.2317 69.6938 42.3432 57.6158 47.758 58.8531Z" fill="#56548C"/>
<path d="M66.2894 78.3246C66.2894 78.3246 70.273 77.8459 71.0181 78.1847C71.7632 78.5235 73.4746 79.5693 73.9468 80.048C74.4189 80.5267 75.9238 81.8081 74.6697 82.1248C74.2713 82.2279 72.1025 81.5651 71.4976 81.2926C70.8927 81.0201 69.7935 80.7034 69.7935 80.9759C69.7935 81.2484 72.5746 81.9849 72.191 82.5961C71.8369 83.1632 71.1361 82.7434 69.1738 82.0806C67.2189 81.4178 65.2787 81.0937 65.2787 81.0937C64.9394 79.6724 65.382 78.8254 66.2894 78.3246Z" fill="#FFC8AF"/>
<path d="M59.9525 80.6303L57.1123 84.2463C57.0311 84.3494 57.0459 84.504 57.1565 84.5851C57.2598 84.6661 57.4147 84.6513 57.4959 84.5409L60.3361 80.9248C60.4172 80.8217 60.4025 80.6671 60.2918 80.5861C60.1885 80.5124 60.0336 80.5271 59.9525 80.6303Z" fill="#3C3C6D"/>
<path fill-rule="evenodd" clip-rule="evenodd" d="M54.6411 82.457C55.91 83.0978 58.0272 82.7001 58.0272 82.9431C58.0272 83.1861 57.6215 83.9152 56.7288 83.9152C55.8288 83.9152 54.6411 82.457 54.6411 82.457Z" fill="#FFC8AF"/>
<path fill-rule="evenodd" clip-rule="evenodd" d="M51.1221 84.4012C51.8525 83.5911 53.7262 81.7278 55.2238 82.6999C56.7213 83.6721 57.6951 83.6721 58.182 83.8341C58.6689 83.105 59.3992 83.6721 59.8861 84.7252C60.373 85.7783 57.2082 87.0745 56.7213 87.4796C56.2344 87.8846 51.1147 87.0598 51.1147 87.0598V84.4012H51.1221Z" fill="#FFC8AF"/>
<path fill-rule="evenodd" clip-rule="evenodd" d="M31.8974 65.3704C35.9474 67.3588 37.172 79.8419 40.263 82.8098C42.0187 84.4889 49.0417 83.1486 51.4392 83.1928C52.3761 85.2991 51.1073 87.8472 51.1073 87.8472C37.5998 89.4453 34.1548 89.0845 30.7539 82.5962C28.1056 77.522 26.4826 64.0153 31.8974 65.3704Z" fill="#56548C"/>
<path fill-rule="evenodd" clip-rule="evenodd" d="M145.497 34.5423C145.091 33.2462 144.331 31.9942 143.203 31.2577C142.9 31.0589 142.576 30.8968 142.236 30.7716C142.081 30.7127 141.926 30.6612 141.764 30.6538C141.639 30.6464 141.381 30.5802 141.277 30.6685C141.211 30.7275 141.226 30.8379 141.263 30.9189C141.403 31.2356 141.727 31.4124 142.03 31.5891C142.539 31.8911 142.731 32.3182 142.908 32.819C142.413 32.3182 141.963 31.7659 141.373 31.3829C140.79 31.0073 140.134 30.7495 139.485 30.5065C139.197 30.4034 138.902 30.3003 138.599 30.3445C138.253 30.396 138.105 30.6759 138.341 30.9558C138.54 31.1988 138.894 31.2945 139.16 31.4492C139.522 31.6554 139.861 31.9058 140.163 32.1856C140.303 32.3182 140.466 32.4508 140.576 32.6054C140.658 32.7159 140.753 32.9663 140.886 33.0178C140.517 32.8558 140.156 32.6791 139.802 32.4876C139.492 32.3182 139.175 32.2298 138.858 32.0752C138.585 31.9426 138.326 31.7364 138.053 31.5891C137.906 31.5081 137.729 31.4345 137.581 31.5155C137.471 31.5744 137.419 31.7069 137.426 31.8248C137.434 31.95 137.485 32.0604 137.544 32.1636C137.707 32.4287 137.935 32.6423 138.208 32.7895C138.452 32.9221 138.636 33.0915 138.865 33.2462C139.153 33.445 139.433 33.6438 139.699 33.8648C139.831 33.9752 139.964 34.0857 140.09 34.2035C140.193 34.2993 140.311 34.4908 140.429 34.5497C139.868 34.2477 139.315 33.9237 138.784 33.5702C138.585 33.4376 138.371 33.3124 138.194 33.1504C137.98 32.9516 137.736 32.8116 137.449 32.7527C137.375 32.738 137.301 32.7306 137.242 32.7674C137.161 32.8116 137.131 32.9221 137.153 33.0105C137.176 33.0989 137.227 33.1799 137.286 33.2535C137.611 33.688 137.972 34.1004 138.378 34.4687C138.74 34.8001 139.234 35.2641 139.721 35.3893C139.042 35.2125 138.437 34.9547 137.928 34.4834C137.692 34.2625 137.426 34.0415 137.102 34.0047C137.006 33.99 136.888 34.0047 136.836 34.0857C136.785 34.1741 136.829 34.2846 136.888 34.3729C137.242 34.9768 137.773 35.6691 138.415 35.9858C138.769 36.1552 139.079 36.4277 139.418 36.6265C139.787 36.8401 140.163 37.0463 140.525 37.2672C141.373 37.7901 142.443 38.313 143.402 38.5781C143.675 38.6518 143.97 38.696 144.25 38.6886C144.553 38.6812 144.715 38.6223 144.944 38.4235C145.342 38.0847 145.6 37.5913 145.718 37.0831C145.858 36.4792 145.807 35.8459 145.681 35.242C145.63 35.0284 145.571 34.7854 145.497 34.5423Z" fill="#FFC8AF"/>
<path fill-rule="evenodd" clip-rule="evenodd" d="M136.527 35.0795C136.239 33.4519 135.855 31.5371 134.837 30.1968C134.793 30.1378 134.741 30.0789 134.675 30.0642C134.513 30.02 134.402 30.2262 134.38 30.3882C134.328 30.8669 134.542 31.3235 134.69 31.7728C134.845 32.2515 134.837 32.8407 134.771 33.4225C134.734 33.3709 134.704 33.3194 134.668 33.2752C133.849 32.1999 133.443 30.7196 132.897 29.475C132.831 29.3277 132.742 29.1657 132.58 29.1583C132.359 29.151 132.27 29.4382 132.27 29.6591C132.27 30.6607 132.477 31.5371 132.927 32.4356C132.484 31.7801 132.108 31.0731 131.82 30.3293C131.746 30.1526 131.643 29.939 131.451 29.9243C130.662 29.8653 131.658 32.9069 131.805 33.2825C131.392 32.7228 131.104 32.0747 130.964 31.3972C130.935 31.2646 130.913 31.1321 130.846 31.0142C130.765 30.8817 130.551 30.7565 130.426 30.889C130.322 31.0069 130.3 31.3162 130.286 31.4708C130.249 31.9201 130.359 32.3693 130.522 32.7817C130.758 33.3856 131.104 33.9453 131.304 34.5566C130.957 34.1295 130.61 33.7023 130.271 33.2752C130.197 33.1868 130.101 33.091 129.991 33.1058C129.843 33.1279 129.791 33.3341 129.843 33.474C130.168 34.4461 130.669 35.3594 131.355 36.1253C131.687 36.5009 132.108 36.7955 132.425 37.1711C132.742 37.554 133.192 37.856 133.65 38.0474C134.136 38.2536 134.668 38.3494 135.191 38.3052C135.597 38.2757 135.841 38.18 136.077 37.8633C136.283 37.5908 136.482 37.2594 136.534 36.9133C136.622 36.3168 136.63 35.6981 136.527 35.0795Z" fill="#FFC8AF"/>
<path fill-rule="evenodd" clip-rule="evenodd" d="M145.807 34.2331L152.505 36.5088C151.834 27.7449 153.383 18.436 157.057 21.7722C159.174 23.6944 159.299 40.0733 157.669 42.4889C156.039 44.9118 149.053 41.4284 144.162 38.9833C144.029 36.877 145.807 34.2331 145.807 34.2331Z" fill="#3C3C6D"/>
<path fill-rule="evenodd" clip-rule="evenodd" d="M26.6891 83.2885C28.3489 83.016 30.6137 82.9644 32.2219 83.4358C34.9219 84.2312 36.3973 85.9545 37.0465 88.51C37.703 91.0876 37.8948 95.3812 36.4194 97.7747C35.4973 99.2697 33.4391 98.9899 31.971 98.5995C30.1932 98.1282 27.8694 97.3623 26.4087 96.2649C24.38 94.7331 23.303 91.3822 23.1776 88.9592C23.0669 86.8751 24.1513 83.7009 26.6891 83.2885Z" fill="#FFC8AF"/>
<path fill-rule="evenodd" clip-rule="evenodd" d="M24.5868 83.7676C22.9712 84.8429 23.0892 87.2806 23.1778 88.9671C23.3032 91.39 24.3729 94.7409 26.4089 96.2728C27.5302 97.1197 27.5819 97.2154 29.0868 97.6794C29.227 97.6131 29.5663 97.3775 29.9573 97.0902C30.7983 96.479 31.1893 95.4037 30.8868 94.4095C30.5843 93.43 30.5548 92.2591 31.1081 91.9571C32.0155 91.4637 32.613 93.2165 32.613 93.2165C33.1368 93.025 33.9262 92.4211 33.4909 91.3827C33.0483 90.3442 33.4909 89.2469 33.4909 89.2469C35.0917 89.2764 35.8368 87.0965 36.3458 86.8166C37.4303 86.2127 37.7918 85.9697 37.6147 84.9386C37.504 84.2684 37.2237 83.5983 36.7221 83.1343C36.154 82.604 34.2508 81.8823 33.5057 81.6982C29.0425 80.5935 25.6122 81.3815 24.5868 83.7676Z" fill="#56548C"/>
<path fill-rule="evenodd" clip-rule="evenodd" d="M34.5165 99.8371C30.5181 98.3494 25.8853 95.7202 19.4156 100.898C12.9459 106.075 14.709 127.042 16.3099 131.836C17.9107 136.631 28.6591 137.021 31.8607 136.601C35.0624 136.181 31.905 130.651 32.9747 126.99C34.037 123.323 42.4616 102.79 34.5165 99.8371Z" fill="#56548C"/>
<path fill-rule="evenodd" clip-rule="evenodd" d="M36.6409 100.699C38.3302 101.722 42.6974 114.478 42.6974 114.478L44.2835 104.469C44.2835 104.469 47.8688 102.768 49.9417 105.029C48.5106 114.728 47.7433 124.692 44.2835 125.252C40.8237 125.812 35.1212 116.613 32.0376 112.121C28.9539 107.621 31.5138 97.5833 36.6409 100.699Z" fill="#56548C"/>
<path d="M47.1975 98.4527L50.4582 96.0297L51.2992 95.7793L50.9082 96.3464L47.4262 98.9166L47.1975 98.4527Z" fill="#3C3C6D"/>
<path fill-rule="evenodd" clip-rule="evenodd" d="M45.0214 105.051C45.0214 104.742 43.7673 101.678 44.2764 100.544C44.7854 99.4101 45.405 98.681 45.405 98.681C45.9509 96.9356 47.419 97.1197 48.5846 98.2612C49.7501 99.4028 51.3731 102.231 49.278 104.61C47.0354 106.517 45.0214 105.051 45.0214 105.051Z" fill="#FFC8AF"/>
<path fill-rule="evenodd" clip-rule="evenodd" d="M3.67282 108.033C3.67282 108.033 3.67282 108.092 3.66544 108.195C2.38921 108.085 0.943301 109.16 0.353136 110.67C-0.701785 113.38 0.707234 142.897 3.24495 142.271C4.04905 143.111 21.7024 152.913 21.7024 152.913L22.7204 118.992C22.7278 118.992 10.2605 108.217 3.67282 108.033Z" fill="#46467C"/>
<path fill-rule="evenodd" clip-rule="evenodd" d="M21.7098 152.914C19.1721 153.54 17.7631 124.022 18.818 121.312C19.8729 118.602 23.6869 117.284 24.3434 121.739C25 126.195 28.4229 151.257 21.7098 152.914Z" fill="#EC827D"/>
<path fill-rule="evenodd" clip-rule="evenodd" d="M91.2461 64.833C92.5149 65.4737 94.6322 65.076 94.6322 65.3191C94.6322 65.5621 94.2264 66.2912 93.3338 66.2912C92.4412 66.2912 91.2461 64.833 91.2461 64.833Z" fill="#FFC8AF"/>
<path fill-rule="evenodd" clip-rule="evenodd" d="M87.7271 66.7772C88.4574 65.967 90.3312 64.1038 91.8288 65.0759C93.3263 66.048 94.3001 66.0481 94.787 66.2101C95.2739 65.481 96.0042 66.048 96.4911 67.1012C96.978 68.1543 93.8132 69.4505 93.3263 69.8556C92.8394 70.2606 87.7197 69.4358 87.7197 69.4358V66.7772H87.7271Z" fill="#FFC8AF"/>
<path fill-rule="evenodd" clip-rule="evenodd" d="M153.988 108.689C153.988 108.689 140.835 104.182 135.28 104.852C129.717 105.522 130.957 129.546 130.957 129.546C130.957 129.546 133.907 130.047 136.829 129.546C138.075 122.873 140.082 115.531 140.082 115.531C140.082 115.531 152.18 119.022 153.988 117.276C155.788 115.531 153.988 108.689 153.988 108.689Z" fill="#3C3C6D"/>
<path fill-rule="evenodd" clip-rule="evenodd" d="M137.508 139.193C137.508 139.355 137.574 139.517 137.707 139.672C137.891 139.878 138.179 140.033 138.518 140.129C138.998 140.276 139.573 140.291 140.097 140.151L146.559 138.442C147.636 138.162 148.876 138.523 149.112 139.193L150.506 143.178C150.676 143.671 151.435 144.017 152.291 144.017C152.387 144.017 152.483 144.01 152.579 144.002C153.147 143.951 153.612 143.752 153.885 143.487C154.01 143.362 154.099 143.222 154.128 143.067V143.045C154.143 142.979 154.135 142.913 154.121 142.839L153.582 140.018L153.346 138.788C153.221 138.111 154.209 137.544 155.382 137.617L162.516 138.067C162.582 138.074 162.649 138.074 162.715 138.074C163.017 138.074 163.305 138.03 163.563 137.956C164.065 137.801 164.441 137.522 164.537 137.183C164.692 136.623 164.058 136.1 163.099 135.982L156.12 135.172C155.817 135.135 155.544 135.062 155.323 134.959C154.711 134.664 154.467 134.156 154.829 133.707L157.3 130.591L157.795 129.965C157.89 129.848 157.942 129.73 157.957 129.612C157.964 129.583 157.964 129.553 157.964 129.524C157.964 129.141 157.603 128.772 156.968 128.588C156.09 128.331 155.021 128.522 154.541 129.015L151.008 132.602C150.425 133.191 149.045 133.324 148.175 132.867L142.93 130.098C142.583 129.914 142.14 129.818 141.698 129.818C141.226 129.818 140.753 129.921 140.392 130.128C140.008 130.348 139.831 130.643 139.853 130.93C139.868 131.166 140.031 131.402 140.326 131.593L140.746 131.851L145.128 134.613C145.91 135.106 145.703 135.887 144.708 136.233C144.693 136.24 144.685 136.248 144.671 136.248L138.459 138.288C137.847 138.464 137.508 138.825 137.508 139.193Z" fill="#3C3C6D"/>
<path fill-rule="evenodd" clip-rule="evenodd" d="M155.309 134.951L157.78 131.836C157.876 131.718 157.928 131.593 157.942 131.475V129.604C157.928 129.722 157.876 129.84 157.78 129.958L157.286 130.584L154.814 133.699C154.453 134.148 154.696 134.657 155.309 134.951Z" fill="#3C3C6D"/>
<path fill-rule="evenodd" clip-rule="evenodd" d="M143.055 135.077C143.063 135.055 143.063 135.025 143.063 135.003C143.063 134.974 143.055 134.937 143.055 134.907V135.077Z" fill="#3C3C6D"/>
<path fill-rule="evenodd" clip-rule="evenodd" d="M153.339 138.781L153.575 140.011C153.929 139.665 154.608 139.437 155.375 139.488L162.508 139.938C162.575 139.945 162.641 139.945 162.708 139.945C163.6 139.945 164.382 139.569 164.53 139.046V137.161C164.434 137.507 164.058 137.787 163.556 137.934C163.298 138.008 163.01 138.052 162.708 138.052C162.641 138.052 162.575 138.045 162.508 138.045L155.375 137.61C154.202 137.537 153.213 138.104 153.339 138.781Z" fill="#3C3C6D"/>
<path fill-rule="evenodd" clip-rule="evenodd" d="M149.635 142.331V142.662C149.672 142.552 149.672 142.442 149.635 142.331Z" fill="#3C3C6D"/>
<path fill-rule="evenodd" clip-rule="evenodd" d="M137.508 139.193V141.086C137.515 141.24 137.574 141.395 137.707 141.55C138.149 142.05 139.204 142.264 140.097 142.028L146.559 140.32C147.636 140.04 148.876 140.401 149.112 141.071L150.506 145.055C150.676 145.549 151.428 145.895 152.284 145.895C152.387 145.895 152.483 145.887 152.586 145.88C153.435 145.806 154.062 145.401 154.128 144.923C154.128 144.923 154.128 144.849 154.128 144.731V143.059C154.099 143.214 154.017 143.354 153.885 143.479C153.619 143.744 153.147 143.943 152.579 143.995C152.483 144.002 152.387 144.009 152.291 144.009C151.435 144.009 150.676 143.663 150.506 143.17L149.112 139.186C148.876 138.523 147.636 138.155 146.559 138.434L140.097 140.143C139.573 140.283 138.998 140.268 138.518 140.121C138.179 140.025 137.891 139.87 137.707 139.664C137.574 139.517 137.508 139.355 137.508 139.193Z" fill="#3C3C6D"/>
<path fill-rule="evenodd" clip-rule="evenodd" d="M139.846 130.916V132.735C139.839 132.993 140.001 133.251 140.318 133.457L144.7 136.219C145.689 135.88 145.903 135.092 145.121 134.598L140.739 131.837L140.318 131.579C140.016 131.387 139.861 131.152 139.846 130.916Z" fill="#3C3C6D"/>
<path fill-rule="evenodd" clip-rule="evenodd" d="M137.633 142.648C137.692 143.539 138.474 144.216 139.374 144.15C140.274 144.091 140.953 143.318 140.894 142.427C140.835 141.536 140.053 140.858 139.153 140.924C138.253 140.983 137.574 141.757 137.633 142.648Z" fill="#3C3C6D"/>
<path fill-rule="evenodd" clip-rule="evenodd" d="M150.639 146.691C150.698 147.582 151.48 148.259 152.38 148.193C153.28 148.134 153.959 147.361 153.899 146.47C153.84 145.579 153.058 144.901 152.158 144.967C151.258 145.034 150.58 145.8 150.639 146.691Z" fill="#3C3C6D"/>
<path fill-rule="evenodd" clip-rule="evenodd" d="M161.284 140.821C161.343 141.712 162.125 142.389 163.025 142.323C163.925 142.264 164.604 141.491 164.545 140.6C164.486 139.709 163.704 139.031 162.804 139.097C161.904 139.164 161.225 139.929 161.284 140.821Z" fill="#3C3C6D"/>
<path fill-rule="evenodd" clip-rule="evenodd" d="M155.323 134.001C155.382 134.892 156.164 135.57 157.064 135.504C157.964 135.445 158.643 134.671 158.584 133.78C158.525 132.889 157.743 132.212 156.843 132.278C155.943 132.337 155.264 133.11 155.323 134.001Z" fill="#3C3C6D"/>
<path fill-rule="evenodd" clip-rule="evenodd" d="M139.264 134.723C139.323 135.614 140.105 136.292 141.005 136.225C141.905 136.166 142.583 135.393 142.524 134.502C142.465 133.611 141.683 132.933 140.783 133C139.883 133.059 139.205 133.832 139.264 134.723Z" fill="#3C3C6D"/>
<path fill-rule="evenodd" clip-rule="evenodd" d="M148.367 137.176C148.367 139.319 152.948 138.899 152.948 137.176V122.211H148.367V137.176Z" fill="#56548C"/>
<path fill-rule="evenodd" clip-rule="evenodd" d="M132.491 122.122C133.657 123.212 147.644 130.937 150.248 132.373C150.572 132.55 150.971 132.565 151.273 132.373C151.273 132.373 151.28 132.373 151.28 132.366L151.288 132.358C152.748 131.431 153.471 128.146 150.661 126.069C149.835 125.45 134.933 115.449 132.565 116.134H132.557C132.535 116.142 132.506 116.156 132.484 116.164C132.41 116.2 132.336 116.245 132.27 116.304C131.126 117.246 131.274 120.98 132.491 122.122Z" fill="#56548C"/>
<path fill-rule="evenodd" clip-rule="evenodd" d="M132.572 116.134C134.947 115.45 149.842 125.451 150.668 126.069C153.479 128.154 152.756 131.438 151.295 132.359L167.842 122.785L168.41 122.453L168.425 122.446C169.723 121.341 170.232 118.292 167.569 116.319C166.728 115.7 151.487 105.463 149.392 106.421L149.252 106.502L132.572 116.134Z" fill="#3C3C6D"/>
<path fill-rule="evenodd" clip-rule="evenodd" d="M124.295 93.2747C124.295 93.2747 123.941 92.1553 123.144 91.5588C122.348 90.9696 121.197 90.1374 120.658 90.4467C120.112 90.7634 121.89 92.1406 121.89 92.1406C119.972 91.3894 118.158 91.22 117.339 91.1832C116.527 91.139 114.1 92.0669 114.572 92.7886C115.052 93.5104 116.97 94.5267 117.796 94.998C118.622 95.4767 121.241 96.3458 123.144 96.088C125.048 95.8302 124.295 93.2747 124.295 93.2747Z" fill="#FFC8AF"/>
<path fill-rule="evenodd" clip-rule="evenodd" d="M153.988 110.442C154.549 119.287 144.56 123.477 130.197 119.471C130.197 119.471 129.208 123.551 126.427 135.821C122.458 136.424 119.928 135.821 119.928 135.821C119.928 135.821 119.508 111.819 126.427 110.766C133.347 109.713 147.186 109.588 147.164 109.249L153.988 110.442Z" fill="#56548C"/>
<path fill-rule="evenodd" clip-rule="evenodd" d="M148.035 60.9447C146.375 60.6722 144.11 60.6207 142.502 61.092C139.802 61.8874 138.327 63.6107 137.677 66.1663C137.021 68.7439 136.829 73.0374 138.304 75.4309C139.227 76.926 141.285 76.6461 142.753 76.2558C144.531 75.7844 146.854 75.0185 148.315 73.9212C150.344 72.3894 151.421 69.0385 151.546 66.6155C151.65 64.5313 150.565 61.3572 148.035 60.9447Z" fill="#FFC8AF"/>
<path fill-rule="evenodd" clip-rule="evenodd" d="M150.13 61.4157C151.745 62.4909 151.627 64.9286 151.539 66.6151C151.413 69.0381 150.344 72.389 148.308 73.9208C147.186 74.7677 147.135 74.8635 145.63 75.3274C145.49 75.2612 145.15 75.0255 144.759 74.7383C143.918 74.127 143.527 73.0518 143.83 72.0576C144.132 71.0781 144.162 69.9071 143.609 69.6051C142.701 69.1117 142.104 70.8645 142.104 70.8645C141.58 70.673 140.79 70.0691 141.226 69.0307C141.668 67.9923 141.226 66.895 141.226 66.895C139.625 66.9244 138.88 64.7445 138.371 64.4646C137.286 63.8607 136.925 63.6177 137.102 62.5867C137.213 61.9091 137.493 61.2463 137.995 60.7823C138.563 60.2521 140.466 59.5303 141.211 59.3462C145.674 58.2415 149.112 59.0369 150.13 61.4157Z" fill="#EB5757"/>
<path fill-rule="evenodd" clip-rule="evenodd" d="M139.529 77.4704C142.988 75.0474 147.533 71.8585 154.01 77.0358C160.48 82.2132 160.015 104.69 158.414 109.484C156.813 114.279 146.065 114.669 142.863 114.249C139.654 113.829 142.819 108.299 141.749 104.638C140.679 100.971 132.579 82.3384 139.529 77.4704Z" fill="#F9FBFC"/>
<path fill-rule="evenodd" clip-rule="evenodd" d="M138.068 82.3677C137.729 82.5739 137.272 83.3104 136.748 84.3635C136.689 88.7749 138.194 94.1732 139.588 98.3857C140.68 96.8097 141.72 95.1821 142.672 93.7902C145.755 89.2904 143.203 79.2451 138.068 82.3677Z" fill="#DCE6EA"/>
<path fill-rule="evenodd" clip-rule="evenodd" d="M171.051 85.6895C171.051 85.6895 171.051 85.7484 171.058 85.8515C172.335 85.741 173.781 86.8162 174.371 88.326C175.426 91.0362 174.017 120.554 171.479 119.928C170.675 120.767 153.021 130.569 153.021 130.569L152.003 96.648C151.989 96.648 164.456 85.8662 171.051 85.6895Z" fill="#46467C"/>
<path fill-rule="evenodd" clip-rule="evenodd" d="M153.007 130.57C155.544 131.196 156.953 101.678 155.898 98.9682C154.844 96.258 151.03 94.9398 150.373 99.3954C149.716 103.851 146.301 128.913 153.007 130.57Z" fill="#56548C"/>
<path fill-rule="evenodd" clip-rule="evenodd" d="M138.422 78.9136C136.733 79.9373 131.893 94.3351 131.893 94.3351L124.605 92.1994C123.661 92.2141 121.492 93.8711 121.942 95.9701C126.516 99.4093 129.009 100.698 132.476 101.258C135.936 101.818 139.942 94.8285 143.025 90.3361C146.109 85.8363 143.557 75.791 138.422 78.9136Z" fill="#F9FBFC"/>
<path fill-rule="evenodd" clip-rule="evenodd" d="M105.683 110.405L96.7122 105.235L81.5523 113.97L80.3867 114.139V114.441C80.3867 114.566 80.4384 114.662 80.549 114.736L89.6892 120.001C89.9695 120.163 90.4491 120.141 90.7736 119.957L105.941 111.215C106.14 111.105 106.221 110.958 106.199 110.818V110.317L105.683 110.405Z" fill="#3C3C6D"/>
<path fill-rule="evenodd" clip-rule="evenodd" d="M96.7123 104.734L80.3869 114.146L76.5655 102.098C76.4549 101.737 76.5877 101.317 76.868 101.155L92.2935 92.266C92.5738 92.104 92.8836 92.266 92.9943 92.6269L96.7123 104.734Z" fill="#56548C"/>
<path fill-rule="evenodd" clip-rule="evenodd" d="M95.8492 104.234L80.7778 112.924L77.3328 102.267L92.5517 93.4961L95.8492 104.234Z" fill="#EB5757"/>
<path fill-rule="evenodd" clip-rule="evenodd" d="M105.941 110.722L90.7734 119.464C90.4562 119.648 89.9693 119.67 89.689 119.508L80.3792 114.146L96.7046 104.734L106.014 110.096C106.302 110.258 106.265 110.538 105.941 110.722Z" fill="#56548C"/>
<path fill-rule="evenodd" clip-rule="evenodd" d="M105.941 110.722L90.7734 119.464C90.4562 119.648 89.9693 119.67 89.689 119.508L80.3792 114.146L96.7046 104.734L106.014 110.096C106.302 110.258 106.265 110.538 105.941 110.722Z" fill="#56548C"/>
<path fill-rule="evenodd" clip-rule="evenodd" d="M101.212 108.218L86.4432 116.732L82.0317 114.191L96.8006 105.685L101.212 108.218Z" fill="#112B46"/>
<path fill-rule="evenodd" clip-rule="evenodd" d="M99.154 113.52L95.6352 115.545C95.436 115.663 95.1335 115.671 94.9639 115.575L93.2745 114.603C93.1049 114.5 93.127 114.33 93.3262 114.212L96.845 112.187C97.0442 112.069 97.3467 112.062 97.5163 112.158L99.2057 113.13C99.3754 113.233 99.3532 113.402 99.154 113.52Z" fill="#3C3C6D"/>
<path fill-rule="evenodd" clip-rule="evenodd" d="M20.8687 133.368C20.308 142.213 30.2966 146.403 44.6597 142.397C44.6597 142.397 45.6482 146.477 48.4294 158.746C52.3983 159.35 54.7811 155.911 54.7811 155.911C54.7811 155.911 55.3491 134.745 48.4294 133.692C41.5097 132.639 27.6703 132.514 27.6924 132.175L20.8687 133.368Z" fill="#3C3C6D"/>
<path fill-rule="evenodd" clip-rule="evenodd" d="M26.6891 83.2885C28.3489 83.016 30.6137 82.9644 32.2219 83.4358C34.9219 84.2312 36.3973 85.9545 37.0465 88.51C37.703 91.0876 37.8948 95.3812 36.4194 97.7747C35.4973 99.2697 33.4391 98.9898 31.971 98.5995C30.1932 98.1282 27.8694 97.3623 26.4087 96.2649C24.38 94.7331 23.303 91.3822 23.1776 88.9592C23.0669 86.8751 24.1514 83.7009 26.6891 83.2885Z" fill="#FFC8AF"/>
<path fill-rule="evenodd" clip-rule="evenodd" d="M24.5867 83.7671C22.9711 84.8423 22.9268 87.3757 23.0153 89.0696C23.1408 91.4925 24.3727 94.7477 26.4014 96.2796C27.5227 97.1265 27.5744 97.2222 29.0793 97.6862C29.2195 97.6199 29.5588 97.3842 29.9498 97.097C30.7908 96.4858 31.1818 95.4105 30.8793 94.4163C30.5768 93.4368 30.5473 92.2658 31.1006 91.9639C32.008 91.4705 32.6055 93.2232 32.6055 93.2232C33.1293 93.0318 33.9187 92.4279 33.4834 91.3894C33.0408 90.351 33.4834 89.2537 33.4834 89.2537C35.0842 89.2832 35.8293 87.1032 36.3383 86.8234C37.4228 86.2195 37.7842 85.9765 37.6072 84.9454C37.4965 84.2752 37.2162 83.605 36.7146 83.1411C36.1465 82.6108 34.2432 81.8891 33.4982 81.705C29.0424 80.5929 25.6121 81.3809 24.5867 83.7671Z" fill="#3C3C6D"/>
<path fill-rule="evenodd" clip-rule="evenodd" d="M34.5165 99.8371C30.5181 98.3494 25.8853 95.7202 19.4156 100.898C12.9459 106.075 14.709 127.042 16.3099 131.836C17.9107 136.631 28.6591 137.021 31.8607 136.601C35.0624 136.181 31.905 130.651 32.9747 126.99C34.037 123.323 42.4616 102.79 34.5165 99.8371Z" fill="#EB5757"/>
<path fill-rule="evenodd" clip-rule="evenodd" d="M36.6409 100.699C38.3302 101.722 42.6974 114.478 42.6974 114.478L44.2835 104.469C44.2835 104.469 47.8688 102.768 49.9417 105.029C48.5106 114.728 47.7433 124.692 44.2835 125.252C40.8237 125.812 35.1212 116.613 32.0376 112.121C28.9539 107.621 31.5138 97.5833 36.6409 100.699Z" fill="#EC827D"/>
<path d="M47.1975 98.4527L50.4582 96.0297L51.2992 95.7793L50.9082 96.3464L47.4262 98.9166L47.1975 98.4527Z" fill="#3C3C6D"/>
<path fill-rule="evenodd" clip-rule="evenodd" d="M45.0214 105.051C45.0214 104.742 43.7673 101.678 44.2764 100.544C44.7854 99.4101 45.405 98.681 45.405 98.681C45.9509 96.9356 47.419 97.1197 48.5846 98.2612C49.7501 99.4028 51.3731 102.231 49.278 104.61C47.0354 106.517 45.0214 105.051 45.0214 105.051Z" fill="#FFC8AF"/>
<path fill-rule="evenodd" clip-rule="evenodd" d="M3.67282 108.033C3.67282 108.033 3.67282 108.092 3.66544 108.195C2.38921 108.085 0.943301 109.16 0.353136 110.67C-0.701785 113.38 0.707234 142.897 3.24495 142.271C4.04905 143.111 21.7024 152.913 21.7024 152.913L22.7204 118.992C22.7278 118.992 10.2605 108.217 3.67282 108.033Z" fill="#46467C"/>
<path fill-rule="evenodd" clip-rule="evenodd" d="M21.7098 152.914C19.1721 153.54 17.7631 124.022 18.818 121.312C19.8729 118.602 23.6869 117.284 24.3434 121.739C25 126.195 28.4229 151.257 21.7098 152.914Z" fill="#56548C"/>
<path fill-rule="evenodd" clip-rule="evenodd" d="M124.9 168.651L119.301 168.15C119.301 168.15 115.723 169.159 113.606 169.461C111.489 169.763 109.976 169.41 109.475 170.168C109.386 170.308 109.349 170.485 109.357 170.684C109.357 170.684 109.357 170.684 109.357 170.691C109.357 170.699 109.357 170.706 109.357 170.713C109.253 171.825 110.235 172.864 110.788 173.269C111.88 174.072 113.082 174.55 116.358 174.263C117.213 173.924 118.748 173.696 119.308 174.55C120.164 174.955 123.439 175.405 124.908 174.55V173.821C125.756 172.93 124.9 168.651 124.9 168.651Z" fill="#56548C"/>
<path fill-rule="evenodd" clip-rule="evenodd" d="M127.357 117.21C129.201 126.725 122.599 137.131 123.13 144.813C123.86 155.344 124.273 159.939 125.358 168.512C125.358 168.512 121.072 171.045 117.921 168.144C114.69 151.345 113.267 148.333 113.709 117.6L127.357 117.21Z" fill="#EB5757"/>
<path fill-rule="evenodd" clip-rule="evenodd" d="M101.301 73.4565C99.4049 75.6585 100.998 84.7096 103.654 86.9043C106.31 89.0989 108.508 88.3183 110.81 86.3667C113.112 84.4077 114.461 79.547 113.908 75.8721C113.163 70.8789 106.701 67.1745 101.301 73.4565Z" fill="#FFC8AF"/>
<path fill-rule="evenodd" clip-rule="evenodd" d="M100.652 74.3772C100.652 74.3772 100.253 75.3641 100.474 76.9695C100.696 78.575 101.264 79.4588 101.566 80.1952C101.869 80.9317 101.765 81.4693 102.083 81.7639C102.4 82.0511 102.348 79.6797 103.093 79.0832C103.838 78.4866 104.915 81.0643 103.418 82.6477C103.197 84.2163 105.225 86.8602 105.97 87.2947C106.715 87.7292 109.821 87.2579 111.739 85.3578C113.657 83.4651 114.07 80.4309 114.528 76.4982C114.985 72.5655 112.042 71.2693 112.042 71.2693C111.997 68.7506 103.61 69.4503 100.607 70.7685C98.7925 71.6817 100.652 74.3772 100.652 74.3772Z" fill="#56548C"/>
<path fill-rule="evenodd" clip-rule="evenodd" d="M89.1361 122.461C89.1361 122.461 88.6197 122.638 87.3951 123.153C86.1705 123.661 83.5443 123.838 81.8992 123.573C80.2615 123.315 77.9967 122.947 78.4319 122.35C78.8672 121.754 87.1295 119.692 87.4762 119.854C87.8303 120.016 89.1361 122.461 89.1361 122.461Z" fill="#FFC8AF"/>
<path fill-rule="evenodd" clip-rule="evenodd" d="M114.189 173.719L108.589 173.218C108.589 173.218 105.011 174.227 102.894 174.529C100.777 174.831 99.2647 174.477 98.7557 175.236C98.6672 175.376 98.6303 175.552 98.6377 175.751C98.6377 175.751 98.6377 175.751 98.6377 175.759C98.6377 175.766 98.6377 175.773 98.6377 175.781C98.5344 176.893 99.5155 177.939 100.069 178.336C101.161 179.139 102.363 179.618 105.639 179.33C106.494 178.992 108.029 178.763 108.589 179.618C109.445 180.023 112.72 180.472 114.189 179.618V178.889C115.044 177.997 114.189 173.719 114.189 173.719Z" fill="#56548C"/>
<path fill-rule="evenodd" clip-rule="evenodd" d="M123.115 119.618C123.727 129.317 115.767 139.93 115.31 147.766C114.676 158.503 114.661 166.089 114.639 174.838C114.639 174.838 107.483 178.218 107.166 172.99C106.111 155.867 104.99 151.367 109.423 120.023L123.115 119.618Z" fill="#EB5757"/>
<path fill-rule="evenodd" clip-rule="evenodd" d="M104.384 88.5027C108.383 86.5142 114.853 81.0644 120.142 88.1933C125.099 94.873 127.135 114.949 127.703 118.948C128.471 124.361 113.348 127.263 109.984 127.115C109.224 127.079 108.759 126.732 108.538 125.981C108.257 124.994 109.062 124.287 108.84 123.374C108.715 122.851 108.375 122.417 108.051 121.997C107.726 121.577 107.402 121.121 107.321 120.59C107.188 119.729 107.734 118.919 107.83 118.057C107.903 117.431 107.734 116.798 107.571 116.186C106.199 111.09 103.816 106.369 102.489 101.236C101.589 97.7673 100.305 92.2439 103.167 89.3717C103.484 89.0624 103.957 88.6131 104.384 88.5027Z" fill="#3C3C6D"/>
<path fill-rule="evenodd" clip-rule="evenodd" d="M101.935 91.1905C98.7337 101.317 98.4386 106.332 95.3034 110.331C95.0747 110.626 86.4214 119.876 86.4214 119.876C86.4214 119.876 87.587 121.967 90.6042 122.52C95.4362 120.458 100.895 112.872 102.363 111.244C103.212 110.309 107.977 101.575 108.693 97.1411C109.408 92.7076 103.278 87.1841 101.935 91.1905Z" fill="#3C3C6D"/>
<path fill-rule="evenodd" clip-rule="evenodd" d="M106.966 65.8487L97.9959 60.6787L82.836 69.4132L81.6704 69.5825V69.8845C81.6704 70.0097 81.7221 70.1054 81.8327 70.1791L90.9729 75.4448C91.2532 75.6068 91.7327 75.5847 92.0573 75.4006L107.225 66.6588C107.424 66.5483 107.505 66.401 107.483 66.2611V65.7603L106.966 65.8487Z" fill="#3C3C6D"/>
<path fill-rule="evenodd" clip-rule="evenodd" d="M107.225 66.173L92.0576 74.9148C91.7404 75.0989 91.2535 75.121 90.9732 74.959L81.6633 69.5975L97.9888 60.1855L107.299 65.547C107.579 65.709 107.549 65.9815 107.225 66.173Z" fill="#56548C"/>
<path fill-rule="evenodd" clip-rule="evenodd" d="M107.225 66.173L92.0576 74.9148C91.7404 75.0989 91.2535 75.121 90.9732 74.959L81.6633 69.5975L97.9888 60.1855L107.299 65.547C107.579 65.709 107.549 65.9815 107.225 66.173Z" fill="#56548C"/>
<path fill-rule="evenodd" clip-rule="evenodd" d="M106.391 66.0408L91.6224 74.5543L87.2183 72.0135L101.987 63.5L106.391 66.0408Z" fill="#3C3C6D"/>
<path fill-rule="evenodd" clip-rule="evenodd" d="M95.8569 65.7165L92.3381 67.7418C92.1389 67.8596 91.8364 67.867 91.6668 67.7712L89.9774 66.7991C89.8077 66.696 89.8299 66.5266 90.029 66.4088L93.5479 64.3835C93.7471 64.2657 94.0495 64.2583 94.2192 64.354L95.9086 65.3262C96.0782 65.4293 96.0561 65.606 95.8569 65.7165Z" fill="#3C3C6D"/>
<path fill-rule="evenodd" clip-rule="evenodd" d="M69.3508 48.3512C73.4008 50.3397 73.777 62.2262 76.8754 65.1941C78.6311 66.8733 85.6541 65.5329 88.0516 65.5771C88.9885 67.6834 87.7197 70.2315 87.7197 70.2315C74.3377 70.887 72.7295 71.2994 69.3286 64.8038C66.6655 59.7369 63.936 46.9962 69.3508 48.3512Z" fill="#FBD15B"/>
<path fill-rule="evenodd" clip-rule="evenodd" d="M96.2403 62.1962C92.6698 60.4139 91.8952 59.0073 90.1394 57.4754C87.0411 54.7653 85.8165 43.9393 83.2198 42.5842C81.5304 42.2012 80.6378 42.9966 80.2911 44.4106C80.2173 44.7052 80.173 45.0219 80.1435 45.3606C80.0107 47.1355 80.4607 49.4996 81.1984 51.731C81.8181 53.6311 82.6443 55.4354 83.4927 56.7095C84.1861 57.7627 84.8206 58.7053 85.5435 59.5744C87.2993 61.688 89.5861 63.4113 94.6321 65.3188C94.6321 65.3188 97.1772 64.1183 96.2403 62.1962Z" fill="#FBD15B"/>
<path fill-rule="evenodd" clip-rule="evenodd" d="M94.7796 64.9281C94.8533 65.149 95.5615 65.9223 96.1812 66.622C96.8009 67.3216 97.782 68.5294 98.0919 68.2274C98.3943 67.9329 97.8116 66.7324 97.8116 66.7324C97.8116 66.7324 99.6411 68.4631 99.9657 69.0523C100.29 69.6341 100.106 67.955 99.6411 67.1817C100.814 68.9639 101.094 69.3616 101.19 68.9124C101.286 68.4705 100.312 66.0549 100.445 66.2906C101.803 68.3306 102.312 68.6104 102.171 67.6751C102.031 66.7398 100.718 65.149 99.9214 64.6998C102.267 66.2243 102.43 66.0549 101.847 65.3773C101.264 64.6998 99.0878 63.0354 96.1886 62.6377C94.3296 64.3757 94.7796 64.9281 94.7796 64.9281Z" fill="#FFC8AF"/>
<path fill-rule="evenodd" clip-rule="evenodd" d="M96.336 68.6621C95.5762 67.4838 94.477 66.1434 93.0753 65.7605C92.1016 65.4953 91.054 65.7015 90.0876 66.0109C89.313 66.2613 88.2065 66.3717 87.454 66.7105C87.1073 67.6016 86.9081 68.4044 86.9155 69.1997C87.0704 69.2513 87.2401 69.2955 87.4319 69.3176C88.236 69.406 89.0843 69.7005 89.8958 69.6784C90.4417 69.6637 91.3122 69.8331 91.8139 69.6858C91.6073 69.7447 91.3712 69.8405 91.3344 70.054C91.3122 70.2308 91.4597 70.3928 91.6368 70.437C92.8319 70.7463 93.8868 69.2955 94.6245 68.6179C94.5508 68.6842 97.3245 70.1866 96.336 68.6621Z" fill="#FFC8AF"/>
<path fill-rule="evenodd" clip-rule="evenodd" d="M83.751 30.7122C83.7657 30.7343 83.7805 30.7638 83.8026 30.7859C84.3043 31.6033 84.3633 32.6123 84.3042 33.5697C84.1936 35.3077 83.0206 37.4435 83.8469 39.1226C84.201 39.837 84.9165 40.3525 85.1379 41.1184C85.4403 42.1716 84.6805 43.2542 83.7584 43.8507C82.6149 44.5945 81.1321 44.8523 79.8337 44.4104C78.5428 43.9685 77.4952 42.7976 77.3329 41.4425C77.1411 39.8002 78.1665 38.2904 79.0813 36.9132C79.6051 36.1326 80.3354 35.0794 80.3944 34.1073C80.4534 33.2015 79.9666 32.4134 80.151 31.4413C80.2838 30.749 80.6895 30.0715 81.3387 29.799C82.2018 29.4529 83.2346 29.9389 83.751 30.7122Z" fill="#606BF1"/>
<path fill-rule="evenodd" clip-rule="evenodd" d="M74.0205 38.3721C74.0205 38.3721 75.0902 42.0986 72.6336 43.6525C72.5599 44.5584 75.1345 48.41 77.7312 47.7546C79.2435 47.3716 80.0107 45.2212 80.0107 45.2212C79.8558 43.8808 79.0886 41.0454 79.0886 41.0454L74.0205 38.3721Z" fill="#FFC8AF"/>
<path fill-rule="evenodd" clip-rule="evenodd" d="M82.7473 30.8079C82.7473 30.8079 83.4186 33.1646 83.1678 34.9984C82.917 36.8321 82.7473 40.4776 81.1244 41.6486C79.5014 42.8196 77.1629 41.4571 75.6211 40.1536C74.0793 38.85 72.4416 36.4271 72.4047 33.5107C72.3678 30.5869 73.5112 27.0151 77.7309 27.1992C81.9432 27.376 82.7473 30.8079 82.7473 30.8079Z" fill="#FFC8AF"/>
<path fill-rule="evenodd" clip-rule="evenodd" d="M79.7966 29.0186C80.8884 30.3516 80.3721 31.9865 79.0221 32.9734C78.3803 33.4447 77.613 33.7393 76.9712 34.2107C76.3294 34.682 75.7909 35.4332 75.9089 36.2212C76.0122 36.9429 76.6392 37.5836 76.4696 38.2907C76.3294 38.8725 75.6876 39.2333 75.5696 39.8225C75.4515 40.419 75.9089 40.9419 76.1966 41.4795C76.6688 42.3559 76.6909 43.4606 76.2557 44.3591C75.2671 46.3844 72.7589 46.2518 70.9737 45.4049C69.0778 44.5064 67.8015 42.4001 68.3769 40.3086C68.6794 39.2112 69.4023 38.2833 69.7712 37.2081C70.2433 35.8382 70.1032 34.3506 70.1991 32.9071C70.3761 30.1675 72.4343 27.1038 75.3188 26.684C77.2073 26.4115 78.6532 27.6267 79.7966 29.0186Z" fill="#606BF1"/>
<path fill-rule="evenodd" clip-rule="evenodd" d="M81.2356 27.3907C81.2282 27.3833 81.2208 27.3759 81.2061 27.3759C80.3798 26.8236 77.038 25.7852 77.0233 27.4938C77.0085 29.195 79.5093 30.9036 80.8372 31.6548C81.4126 31.9862 82.0323 32.2513 82.5561 32.6637C83.2421 33.2013 83.3012 34.2177 83.9134 34.6816C84.843 33.7905 84.6069 31.5959 84.2307 30.5059C83.7364 29.0477 82.4528 28.2229 81.2356 27.3907Z" fill="#606BF1"/>
<path fill-rule="evenodd" clip-rule="evenodd" d="M107.225 66.1728L92.0574 74.9146L97.4279 63.6688C97.6049 63.3079 97.9738 62.8882 98.2541 62.7261L112.514 54.5072C112.794 54.3452 112.875 54.5072 112.698 54.8681L107.225 66.1728Z" fill="#56548C"/>
<path fill-rule="evenodd" clip-rule="evenodd" d="M32.1407 98.9163V98.0546C32.1407 98.0546 29.9423 96.6259 27.6481 96.5817C25.3538 96.5375 24.2694 97.0678 24.1882 97.3403C24.0997 97.6128 24.0186 98.4008 24.0186 98.4008L32.1407 98.9163Z" fill="#EB5757"/>
<path fill-rule="evenodd" clip-rule="evenodd" d="M79.3542 42.0762C79.3542 42.0762 79.1476 43.6006 79.2362 43.8584C79.3247 44.1162 79.8411 44.4181 79.8411 44.4181H80.8591L79.3542 42.0762Z" fill="#606BF1"/>
<path fill-rule="evenodd" clip-rule="evenodd" d="M86.0672 51.8347C85.9934 49.8021 85.6394 48.4764 85.2484 47.6074C85.2631 47.8431 85.2853 48.0935 85.2926 48.3513C85.3885 51.0467 84.9385 54.9794 84.4885 58.183C84.8279 58.6691 85.1746 59.1331 85.5435 59.5749C85.8828 56.8721 86.1484 53.9705 86.0672 51.8347Z" fill="#EABD4E"/>
<path fill-rule="evenodd" clip-rule="evenodd" d="M49.9418 64.3984C49.9344 67.521 48.9385 72.5953 48.1196 76.3659C48.4442 76.852 48.7688 77.2939 49.1082 77.6842C49.8606 74.0387 50.5983 69.8041 50.5024 67.2264C50.4582 66.0555 50.2442 65.1349 49.9418 64.3984Z" fill="#3C3C6D"/>
</svg>
