<svg width="292" height="177" viewBox="0 0 292 177" fill="none" xmlns="http://www.w3.org/2000/svg">
<path d="M288.615 57.4838L270.822 57.5101C270.057 57.5101 269.438 56.8926 269.438 56.1305C269.438 55.3685 270.057 54.751 270.822 54.751L288.615 54.7247C289.38 54.7247 290 55.3422 290 56.1043C290 56.8619 289.38 57.4794 288.615 57.4838Z" fill="#FFF8F3"/>
<path d="M236.248 5.47782L234.051 5.4822C233.475 5.4822 233.004 5.01798 233.004 4.44427L233 2.39031C233 1.81661 233.466 1.34801 234.042 1.34801L236.24 1.34363C236.815 1.34363 237.286 1.80785 237.286 2.38156L237.29 4.43552C237.294 5.0136 236.829 5.47782 236.248 5.47782Z" fill="#FF9C39"/>
<path d="M3.24391 75.9958L1.04614 76.0002C0.470323 76.0002 0 75.5359 0 74.9622V72.9083C0 72.3346 0.465927 71.8659 1.04174 71.8659L3.23951 71.8616C3.81533 71.8616 4.28565 72.3258 4.28565 72.8995L4.29004 74.9535C4.29004 75.5316 3.81972 75.9958 3.24391 75.9958Z" fill="#FFF8F3"/>
<path d="M255.825 35.5865H244.532C243.025 35.5865 241.803 34.369 241.803 32.8668C241.803 31.3647 243.025 30.1472 244.532 30.1472H255.825C257.332 30.1472 258.554 31.3647 258.554 32.8668C258.554 34.369 257.332 35.5865 255.825 35.5865Z" fill="#FF9C39"/>
<path d="M247.882 32.872C247.882 33.2574 247.57 33.5683 247.187 33.5683C246.801 33.5683 246.489 33.2574 246.489 32.8764C246.489 32.4954 246.801 32.1801 247.183 32.1801C247.57 32.1801 247.882 32.4866 247.882 32.872Z" fill="white"/>
<path d="M250.88 32.8625C250.88 33.2479 250.567 33.5589 250.185 33.5589C249.798 33.5589 249.486 33.2479 249.486 32.8669C249.486 32.4815 249.798 32.1706 250.181 32.1706C250.563 32.1662 250.875 32.4771 250.88 32.8625Z" fill="white"/>
<path d="M253.873 32.8537C253.873 33.2391 253.561 33.5501 253.178 33.5501C252.796 33.5501 252.48 33.2391 252.48 32.8581C252.48 32.4727 252.792 32.1618 253.174 32.1618C253.556 32.1574 253.873 32.4684 253.873 32.8537Z" fill="white"/>
<path d="M44.5311 42.1864H19.3403C17.9206 42.1864 16.7689 41.039 16.7689 39.6244V17.6352C16.7689 16.2207 17.9206 15.0732 19.3403 15.0732H44.5311C45.9509 15.0732 47.1025 16.2207 47.1025 17.6352V39.6244C47.1025 41.039 45.9509 42.1864 44.5311 42.1864Z" fill="#F2F2F2"/>
<path d="M31.9335 38.9368L39.7312 46.2637C40.118 46.6272 40.7597 46.3556 40.7597 45.8213V36.7252L31.9335 38.9368Z" fill="#F2F2F2"/>
<path d="M22.0519 20.0905C24.831 17.3216 24.831 12.8323 22.0519 10.0633C19.2728 7.29442 14.767 7.29442 11.9879 10.0633C9.20883 12.8323 9.20883 17.3216 11.9879 20.0905C14.767 22.8594 19.2728 22.8594 22.0519 20.0905Z" fill="#FF9C39"/>
<path d="M13.8547 15.4323L16.5184 17.3724L19.6876 13.3608" stroke="white" stroke-width="2.7928" stroke-miterlimit="10" stroke-linecap="round" stroke-linejoin="round"/>
<path d="M80.5135 154.14C80.5135 157.165 82.9647 159.624 85.991 159.624H194.516C197.542 159.624 199.993 157.17 199.993 154.14V56.0687H80.5135V154.14Z" fill="#191B4B"/>
<path d="M194.531 24.9982H86.0057C82.9795 24.9982 80.5283 27.4524 80.5283 30.4824V56.1029H200.003V30.4824C200.003 27.4524 197.552 24.9982 194.531 24.9982Z" fill="#191B4B"/>
<path d="M71.9222 154.14C71.9222 157.165 74.3734 159.624 77.3997 159.624H185.924C188.951 159.624 191.402 157.17 191.402 154.14V56.0687H71.9222V154.14Z" fill="white"/>
<path d="M185.92 24.9689H77.3948C74.3686 24.9689 71.9174 27.4231 71.9174 30.4531V56.0736H191.392V30.4482C191.397 27.4231 188.946 24.9689 185.92 24.9689Z" fill="#FF9C39"/>
<path d="M105.108 47.5692C108.58 47.5692 111.395 44.7512 111.395 41.2751C111.395 37.7989 108.58 34.981 105.108 34.981C101.637 34.981 98.822 37.7989 98.822 41.2751C98.822 44.7512 101.637 47.5692 105.108 47.5692Z" fill="#100C25"/>
<path d="M103.783 37.9036C101.975 37.9036 100.513 36.4398 100.513 34.6296V20.9435C100.513 19.3627 101.58 17.9038 103.13 17.6062C105.216 17.2012 107.053 18.7967 107.053 20.8167V24.9689H112.589V21.129C112.589 16.4401 109.06 12.3367 104.387 12.0244C99.2606 11.6829 94.9819 15.757 94.9819 20.8216V34.3466C94.9819 38.9428 98.3785 42.9828 102.954 43.4073C103.442 43.4512 103.924 43.4561 104.397 43.4268C107.881 43.1877 107.594 37.9084 104.1 37.9084H103.783V37.9036Z" fill="white"/>
<path d="M155.233 47.5692C158.705 47.5692 161.52 44.7512 161.52 41.2751C161.52 37.7989 158.705 34.981 155.233 34.981C151.762 34.981 148.947 37.7989 148.947 41.2751C148.947 44.7512 151.762 47.5692 155.233 47.5692Z" fill="#100C25"/>
<path d="M153.908 37.9036C152.1 37.9036 150.638 36.4398 150.638 34.6296V20.9435C150.638 19.3627 151.705 17.9038 153.255 17.6062C155.341 17.2012 157.178 18.7967 157.178 20.8167V24.9689H162.714V21.129C162.714 16.4401 159.186 12.3367 154.512 12.0244C149.386 11.6829 145.107 15.757 145.107 20.8216V34.3466C145.107 38.9428 148.504 42.9828 153.08 43.4073C153.567 43.4512 154.049 43.4561 154.522 43.4268C158.006 43.1877 157.719 37.9084 154.225 37.9084H153.908V37.9036Z" fill="white"/>
<path d="M103.74 70.9014H93.87C91.6609 70.9014 89.87 72.6922 89.87 74.9014V84.7933C89.87 87.0024 91.6609 88.7933 93.87 88.7933H103.74C105.949 88.7933 107.74 87.0024 107.74 84.7933V74.9014C107.74 72.6922 105.949 70.9014 103.74 70.9014Z" fill="#FFDEC2"/>
<path d="M103.74 97.244H93.87C91.6609 97.244 89.87 99.0349 89.87 101.244V111.136C89.87 113.345 91.6609 115.136 93.87 115.136H103.74C105.949 115.136 107.74 113.345 107.74 111.136V101.244C107.74 99.0349 105.949 97.244 103.74 97.244Z" fill="#FFDEC2"/>
<path d="M103.74 123.587H93.87C91.6609 123.587 89.87 125.378 89.87 127.587V137.479C89.87 139.688 91.6609 141.479 93.87 141.479H103.74C105.949 141.479 107.74 139.688 107.74 137.479V127.587C107.74 125.378 105.949 123.587 103.74 123.587Z" fill="#FFDEC2"/>
<path d="M134.06 70.9014H124.191C121.982 70.9014 120.191 72.6922 120.191 74.9014V84.7933C120.191 87.0024 121.982 88.7933 124.191 88.7933H134.06C136.27 88.7933 138.06 87.0024 138.06 84.7933V74.9014C138.06 72.6922 136.27 70.9014 134.06 70.9014Z" fill="#FF9C39"/>
<path d="M134.06 97.244H124.191C121.982 97.244 120.191 99.0349 120.191 101.244V111.136C120.191 113.345 121.982 115.136 124.191 115.136H134.06C136.27 115.136 138.06 113.345 138.06 111.136V101.244C138.06 99.0349 136.27 97.244 134.06 97.244Z" fill="#FFDEC2"/>
<path d="M134.06 123.587H124.191C121.982 123.587 120.191 125.378 120.191 127.587V137.479C120.191 139.688 121.982 141.479 124.191 141.479H134.06C136.27 141.479 138.06 139.688 138.06 137.479V127.587C138.06 125.378 136.27 123.587 134.06 123.587Z" fill="#FFDEC2"/>
<path d="M164.381 70.9014H154.511C152.302 70.9014 150.511 72.6922 150.511 74.9014V84.7933C150.511 87.0024 152.302 88.7933 154.511 88.7933H164.381C166.59 88.7933 168.381 87.0024 168.381 84.7933V74.9014C168.381 72.6922 166.59 70.9014 164.381 70.9014Z" fill="#FF9C39"/>
<path d="M164.381 97.244H154.511C152.302 97.244 150.511 99.0349 150.511 101.244V111.136C150.511 113.345 152.302 115.136 154.511 115.136H164.381C166.59 115.136 168.381 113.345 168.381 111.136V101.244C168.381 99.0349 166.59 97.244 164.381 97.244Z" fill="#FF9C39"/>
<path d="M164.381 123.587H154.511C152.302 123.587 150.511 125.378 150.511 127.587V137.479C150.511 139.688 152.302 141.479 154.511 141.479H164.381C166.59 141.479 168.381 139.688 168.381 137.479V127.587C168.381 125.378 166.59 123.587 164.381 123.587Z" fill="#FFDEC2"/>
<path d="M156.855 106.432L159.518 108.372L162.688 104.361" stroke="white" stroke-width="2.7928" stroke-miterlimit="10" stroke-linecap="round" stroke-linejoin="round"/>
<path d="M66.7956 74.0436H54.7346V81.9966H66.7956V74.0436Z" fill="#FF9C39"/>
<path d="M71.9075 71.2576H49.6227V76.1075H71.9075V71.2576Z" fill="#191B4B"/>
<path d="M89.03 147.837C104.721 132.127 104.721 106.656 89.03 90.9456C73.3393 75.2354 47.8996 75.2354 32.2088 90.9456C16.5181 106.656 16.5181 132.127 32.2088 147.837C47.8996 163.547 73.3393 163.547 89.03 147.837Z" fill="#191B4B"/>
<path d="M92.7662 126.882C96.8962 109.108 85.8534 91.3472 68.1013 87.2121C50.3493 83.077 32.6104 94.1335 28.4804 111.908C24.3505 129.682 35.3933 147.442 53.1453 151.577C70.8974 155.713 88.6362 144.656 92.7662 126.882Z" fill="white"/>
<path d="M41.9816 101.596C41.7672 101.596 41.5576 101.513 41.3968 101.352L40.0177 99.9714C39.6912 99.6493 39.6912 99.1224 40.0177 98.7955C40.3442 98.4686 40.8656 98.4686 41.1921 98.7955L42.5712 100.176C42.8977 100.498 42.8977 101.025 42.5712 101.352C42.4055 101.513 42.196 101.596 41.9816 101.596Z" fill="#FF9C39" fill-opacity="0.5"/>
<path d="M80.9716 140.63C80.7572 140.63 80.5476 140.547 80.3868 140.386L79.0077 139.005C78.6812 138.683 78.6812 138.156 79.0077 137.829C79.3342 137.502 79.8556 137.502 80.1821 137.829L81.5612 139.21C81.8877 139.532 81.8877 140.059 81.5612 140.386C81.3955 140.551 81.1811 140.63 80.9716 140.63Z" fill="#FF9C39" fill-opacity="0.5"/>
<path d="M40.6025 140.63C40.3881 140.63 40.1785 140.547 40.0177 140.386C39.6912 140.064 39.6912 139.537 40.0177 139.21L41.3968 137.829C41.7233 137.502 42.2447 137.502 42.5712 137.829C42.8977 138.151 42.8977 138.678 42.5712 139.005L41.1921 140.386C41.0264 140.551 40.8169 140.63 40.6025 140.63Z" fill="#FF9C39" fill-opacity="0.5"/>
<path d="M79.5925 101.596C79.3781 101.596 79.1685 101.513 79.0077 101.352C78.6812 101.03 78.6812 100.503 79.0077 100.176L80.3868 98.7955C80.7133 98.4686 81.2347 98.4686 81.5612 98.7955C81.8877 99.1175 81.8877 99.6445 81.5612 99.9714L80.1821 101.352C80.0164 101.513 79.802 101.596 79.5925 101.596Z" fill="#FF9C39" fill-opacity="0.5"/>
<path d="M60.7578 93.6334C61.8075 93.6334 62.6583 92.7815 62.6583 91.7305C62.6583 90.6796 61.8075 89.8276 60.7578 89.8276C59.7082 89.8276 58.8573 90.6796 58.8573 91.7305C58.8573 92.7815 59.7082 93.6334 60.7578 93.6334Z" fill="#100C25"/>
<path d="M60.7578 148.973C61.8075 148.973 62.6583 148.121 62.6583 147.07C62.6583 146.019 61.8075 145.167 60.7578 145.167C59.7082 145.167 58.8573 146.019 58.8573 147.07C58.8573 148.121 59.7082 148.973 60.7578 148.973Z" fill="#100C25"/>
<path d="M33.1222 117.497C34.1699 117.497 35.0227 118.351 35.0227 119.4C35.0227 120.449 34.1699 121.303 33.1222 121.303C32.0745 121.303 31.2217 120.449 31.2217 119.4C31.2217 118.351 32.0745 117.497 33.1222 117.497Z" fill="#100C25"/>
<path d="M88.3982 117.497C89.4459 117.497 90.2987 118.351 90.2987 119.4C90.2987 120.449 89.4459 121.303 88.3982 121.303C87.3505 121.303 86.4977 120.449 86.4977 119.4C86.4977 118.351 87.3456 117.497 88.3982 117.497Z" fill="#100C25"/>
<path d="M72.5654 102.255L59.0035 118.171C58.5892 118.595 58.3407 119.186 58.3943 119.83C58.4869 121.006 59.5151 121.889 60.6896 121.796C61.5814 121.728 62.2977 121.118 62.556 120.318L73.0381 102.596C73.2184 102.284 72.7945 101.982 72.5654 102.255Z" fill="#FF9C39"/>
<path d="M63.3424 135.54L62.0484 119.335C62.0427 118.874 61.8548 118.413 61.4713 118.089C60.7739 117.493 59.7232 117.573 59.1285 118.269C58.6758 118.797 58.6173 119.526 58.9152 120.108L62.8948 135.613C62.9673 135.883 63.3667 135.817 63.3424 135.54Z" fill="#EE8C2A"/>
<path d="M225.928 147.831L230.884 127.861L219.023 126.036L213.204 147.831H225.928Z" fill="#F8959D"/>
<path d="M225.928 147.831H213.204L211.328 150.827C211.328 150.827 204.593 151.222 204.857 159.288H225.392L225.928 147.831Z" fill="#191B4B"/>
<path d="M204.42 159.292H226.105V156.964H204.42V159.292Z" fill="#ACA9D6"/>
<path d="M211.328 150.832C211.328 150.832 215.261 150.237 216.567 152.242" stroke="white" stroke-width="0.7747" stroke-miterlimit="10" stroke-linecap="round" stroke-linejoin="round"/>
<path d="M245.513 91.0037L228.686 141.318L212.98 140.947L226.303 91.1305L245.513 91.0037Z" fill="#191B4B"/>
<path d="M231.639 136.102L229.939 142.342L211.27 142.415L212.873 136.102H231.639Z" fill="#262B60"/>
<path d="M273.397 106.266L252.438 108.608L258.539 120.323L277.968 118.19L273.397 106.266Z" fill="#F8959D"/>
<path d="M273.397 106.266L277.968 118.19L281.423 118.922C281.423 118.922 284.118 125.114 291.589 122.089L284.508 102.792L273.397 106.266Z" fill="#191B4B"/>
<path d="M291.726 122.495L284.251 102.114L282.069 102.916L289.544 123.297L291.726 122.495Z" fill="#ACA9D6"/>
<path d="M281.423 118.922C281.423 118.922 279.65 116.161 281.423 113.292" stroke="white" stroke-width="0.7747" stroke-miterlimit="10" stroke-linecap="round" stroke-linejoin="round"/>
<path d="M266.326 105.363L249.495 106.417L244.914 88.6519L227.565 89.4228L231.683 105.592L233.803 113.96C235.358 120.108 241.298 124.089 247.57 123.192L271.399 120.254L266.326 105.363Z" fill="#191B4B"/>
<path d="M260.547 104.851L266.979 104.299L273.358 121.347L266.892 122.02L260.547 104.851Z" fill="#262B60"/>
<path d="M223.35 49.2964C223.35 49.2964 220.86 51.9994 224.598 54.6586L223.35 49.2964Z" fill="#100C25"/>
<path d="M226.849 54.5317C227.137 55.8637 226.328 57.1762 225.041 57.4641C223.755 57.752 222.473 56.903 222.185 55.571C221.898 54.239 222.707 52.9265 223.993 52.6386C225.28 52.3507 226.562 53.1997 226.849 54.5317Z" fill="#E57885"/>
<path d="M228.969 60.1038L229.832 65.9392C230.129 67.9885 231.513 68.9009 233.462 68.5935C235.124 68.33 236.834 67.2469 236.493 65.4513L234.705 56.3322L228.969 60.1038Z" fill="#F8959D"/>
<path d="M229.617 64.5828C229.617 64.5828 233.779 62.3677 235.016 57.5812C235.46 55.8686 228.867 59.5085 228.867 59.5085L229.617 64.5828Z" fill="#100C25"/>
<path d="M230.967 61.5432C227.638 62.0457 224.49 59.7428 223.979 56.947L222.936 51.092C222.293 47.5888 224.451 44.2124 227.819 43.4658C231.264 42.6998 235.284 44.8369 236.059 48.3987L236.815 52.9705C237.502 57.0885 234.909 60.6698 230.967 61.5432Z" fill="#F8959D"/>
<path d="M229.9 49.9209C229.9 49.9209 228.048 49.9209 228.082 50.4527C228.082 50.4527 228.116 50.8138 229.222 50.7894C230.329 50.765 231.186 50.6577 231.259 50.3112C231.332 49.9648 230.494 49.8721 229.9 49.9209Z" fill="#100C25"/>
<path d="M224.71 50.7161C224.71 50.7161 223.145 51.0772 223.297 51.5895C223.297 51.5895 223.17 51.9847 224.242 51.7115C225.314 51.4383 225.831 51.2285 225.821 50.8723C225.821 50.521 225.28 50.5356 224.71 50.7161Z" fill="#100C25"/>
<path d="M229.641 56.3615C229.661 56.4542 229.188 57.2836 228.033 57.2348" stroke="#100C25" stroke-width="0.7747" stroke-miterlimit="10" stroke-linecap="round" stroke-linejoin="round"/>
<path d="M225.582 53.7461C225.636 54.0486 225.431 54.3365 225.134 54.3902C224.832 54.4438 224.544 54.2389 224.49 53.9413C224.437 53.6388 224.642 53.3509 224.939 53.2972C225.241 53.2387 225.528 53.4436 225.582 53.7461Z" fill="#100C25"/>
<path d="M230.718 53.0094C230.796 53.3071 230.621 53.6096 230.324 53.6876C230.026 53.7657 229.724 53.5901 229.646 53.2924C229.568 52.9948 229.744 52.6923 230.041 52.6142C230.333 52.5362 230.635 52.7118 230.718 53.0094Z" fill="#100C25"/>
<path d="M226.713 54.6683L226.615 55.7222C226.576 55.8247 226.615 55.9467 226.713 56.0003L227.229 56.1614" stroke="#100C25" stroke-width="0.7716" stroke-miterlimit="10" stroke-linecap="round" stroke-linejoin="round"/>
<path d="M235.684 52.4044C235.684 52.4044 232.502 50.3502 233.218 47.4325L223.569 49.189L223.993 43.1827L233.793 42.1923C235.362 41.8507 237.672 42.6216 237.706 45.1246L237.97 51.0333L235.684 52.4044Z" fill="#100C25"/>
<path d="M226.771 43.2462C227.809 45.2467 227.029 47.7107 225.031 48.7499C223.033 49.7892 220.573 49.0085 219.535 47.0081C218.497 45.0076 219.276 42.5436 221.274 41.5044C223.272 40.4651 225.733 41.2458 226.771 43.2462Z" fill="#100C25"/>
<path d="M230.197 42.9485C230.894 44.2903 230.372 45.9395 229.032 46.6372C227.692 47.3349 226.045 46.8128 225.348 45.4711C224.651 44.1293 225.173 42.4801 226.513 41.7824C227.853 41.0896 229.5 41.6116 230.197 42.9485Z" fill="#100C25"/>
<path d="M239.856 52.3996C240.143 53.717 239.339 55.0197 238.062 55.3027C236.785 55.5857 235.518 54.7465 235.236 53.4242C234.948 52.1068 235.752 50.8041 237.029 50.5211C238.306 50.2381 239.568 51.0822 239.856 52.3996Z" fill="#F8959D"/>
<path d="M236.883 53.6633C236.883 53.6633 236.508 51.9312 238.17 51.8483" stroke="#100C25" stroke-width="0.7716" stroke-miterlimit="10" stroke-linecap="round" stroke-linejoin="round"/>
<path d="M199.56 73.2824C199.033 72.7164 198.093 71.8577 197.381 72.0333C196.411 72.2724 196.022 73.2287 196.543 74.0875L196.972 74.795C196.017 75.1609 194.048 75.2536 190.442 71.604C189.833 70.9892 188.839 70.8477 188.215 71.282C187.728 71.6235 187.611 72.2139 187.874 72.7506C187.883 72.775 187.903 72.7994 187.918 72.8238C187.416 72.6579 186.87 72.7018 186.47 72.975C185.983 73.3166 185.866 73.907 186.129 74.4437C186.163 74.512 186.207 74.5852 186.256 74.6535C186.007 74.6779 185.773 74.751 185.579 74.8877C185.091 75.2292 184.974 75.8196 185.237 76.3563C185.31 76.5076 185.413 76.6539 185.544 76.7857C185.593 76.8345 185.637 76.8784 185.686 76.9223C185.666 76.9369 185.642 76.9418 185.617 76.9564C185.13 77.298 185.013 77.8884 185.276 78.4251C185.349 78.5763 185.452 78.7227 185.583 78.8544C186.577 79.8596 187.567 80.6988 188.532 81.3721H188.527C188.527 81.3721 188.546 81.3867 188.571 81.4014C189.029 81.7185 189.482 81.9918 189.93 82.2308C192.016 83.4409 196.475 82.426 200.31 83.0457L203.302 77.3907L199.56 73.2824Z" fill="#F8959D"/>
<path d="M193.774 79.9159L196.206 74.3551C197.533 71.3188 196.149 67.7791 193.114 66.4489L187.569 64.0189C184.534 62.6887 180.997 64.0718 179.67 67.1081L177.239 72.6689C175.911 75.7052 177.296 79.2449 180.331 80.5751L185.875 83.0051C188.91 84.3353 192.447 82.9522 193.774 79.9159Z" fill="#FFDEC2"/>
<path d="M199.56 73.2824L196.645 69.8817C196.173 69.3303 195.32 69.3303 194.847 69.8768C194.53 70.2427 194.467 70.7599 194.686 71.1893L196.153 74.0875C196.153 74.0875 194.896 78.0299 197.888 81.4502L199.56 73.2824Z" fill="#F8959D"/>
<path d="M222.171 80.5622L202.05 74.1997L198.546 84.5533L217.809 91.1792C221.157 92.7455 225.09 90.784 225.855 87.1637C226.45 84.3533 224.875 81.5282 222.171 80.5622Z" fill="#FF9C39"/>
<path d="M228.462 69.5547L215.207 81.4014C213.126 83.919 213.346 87.6174 215.709 89.8667C218.185 92.2283 222.273 92.1355 224.642 89.6667L238.73 78.7227C240.996 76.3612 241.288 72.7311 239.431 70.0378C236.844 66.271 231.376 66.0271 228.462 69.5547Z" fill="#FF9C39"/>
<path d="M239.427 63.5534C239.427 63.5534 247.784 72.8921 248.028 96.0829C248.028 96.0829 235.942 99.4544 223.769 95.7023L227.6 68.0081C227.6 68.0032 232.765 62.924 239.427 63.5534Z" fill="#FF9C39"/>
<path d="M227.127 70.7501L224.642 89.6667" stroke="#9C5916" stroke-width="0.7747" stroke-miterlimit="10" stroke-linecap="round" stroke-linejoin="round"/>
<path d="M234.573 100.938C234.573 100.938 231.854 100.42 233.126 97.4978C234.393 94.5752 237.648 91.4965 243.252 93.9263L234.573 100.938Z" fill="#F8959D"/>
<path d="M245.776 102.138C247.345 99.1714 246.21 95.4973 243.247 93.9263C240.284 92.3552 236.615 93.492 235.046 96.4537C233.476 99.4202 234.612 103.094 237.57 104.665C240.538 106.236 244.207 105.104 245.776 102.138Z" fill="#F8959D"/>
<path d="M250.44 75.4341L238.428 92.804L247.272 99.2104L259.285 82.7432C261.77 80.0011 261.058 75.6635 257.828 73.8582C255.323 72.4579 252.165 73.1312 250.44 75.4341Z" fill="#FF9C39"/>
<path d="M236.664 78.1274L253.135 84.7875C256.307 85.5389 259.523 83.7092 260.498 80.5914C261.517 77.3224 259.626 73.6923 256.366 72.6579L240.328 64.8512C237.214 63.8607 233.832 65.2025 232.239 68.0617C230.017 72.0529 232.219 77.0687 236.664 78.1274Z" fill="#FF9C39"/>
<path d="M238.428 92.8039L246.074 81.9283L234.856 77.415" stroke="#9C5916" stroke-width="0.7747" stroke-miterlimit="10" stroke-linecap="round" stroke-linejoin="round"/>
<rect x="22" y="22" width="20" height="2" rx="1" fill="#E0E0E0"/>
<rect x="22" y="27" width="20" height="2" rx="1" fill="#E0E0E0"/>
<rect x="22" y="32" width="20" height="2" rx="1" fill="#E0E0E0"/>
<path d="M267 159H13" stroke="#E0E7FF" stroke-width="1.5499" stroke-miterlimit="10" stroke-linecap="round" stroke-linejoin="round"/>
<circle cx="18" cy="14" r="14" fill="#FF9C39"/>
<path fill-rule="evenodd" clip-rule="evenodd" d="M17.868 22.5027C22.5355 22.5027 26.3193 18.7189 26.3193 14.0513C26.3193 9.38378 22.5355 5.59998 17.868 5.59998C13.2004 5.59998 9.41663 9.38378 9.41663 14.0513C9.41663 18.7189 13.2004 22.5027 17.868 22.5027ZM14.9699 10.4294C16.5702 8.82907 19.1648 8.82907 20.7651 10.4294C22.3654 12.0297 22.3654 14.6243 20.7651 16.2246L17.8675 19.1222L14.9699 16.2246C13.3696 14.6243 13.3696 12.0297 14.9699 10.4294ZM16.6601 11.9989C17.3269 11.3321 18.408 11.3321 19.0748 11.9989C19.7416 12.6656 19.7416 13.7467 19.0748 14.4135L17.8675 15.6209L16.6601 14.4135C15.9933 13.7467 15.9933 12.6656 16.6601 11.9989Z" fill="white"/>
</svg>
