<svg width="318" height="174" viewBox="0 0 318 174" fill="none" xmlns="http://www.w3.org/2000/svg">
<path d="M157.409 163.484C228.87 163.484 286.802 160.486 286.802 156.789C286.802 153.091 228.87 150.093 157.409 150.093C85.9469 150.093 28.0156 153.091 28.0156 156.789C28.0156 160.486 85.9469 163.484 157.409 163.484Z" fill="#E6E7E8"/>
<path d="M48.4185 145.935C74.7116 145.935 96.0264 143.563 96.0264 140.636C96.0264 137.71 74.7116 135.338 48.4185 135.338C22.1253 135.338 0.810547 137.71 0.810547 140.636C0.810547 143.563 22.1253 145.935 48.4185 145.935Z" fill="#E6E7E8"/>
<path d="M13.7573 136.988V48.7745C13.7573 45.6705 16.2653 43.1538 19.3585 43.1538H79.9414C83.0346 43.1538 85.5425 45.6705 85.5425 48.7745V137.154C85.5425 139.949 83.284 142.215 80.4985 142.215H18.9664C16.089 142.215 13.7573 139.876 13.7573 136.988Z" fill="white"/>
<path d="M49.0926 139.283C50.7833 139.283 52.1539 138.309 52.1539 137.109C52.1539 135.908 50.7833 134.935 49.0926 134.935C47.4018 134.935 46.0312 135.908 46.0312 137.109C46.0312 138.309 47.4018 139.283 49.0926 139.283Z" fill="#8190C7"/>
<path d="M22.1164 46.4009H77.1206C79.5385 46.4009 81.4988 48.3679 81.4988 50.7943V128.371C81.4988 130.797 79.5385 132.764 77.1206 132.764H22.1164C19.6985 132.764 17.7383 130.797 17.7383 128.371V50.7943C17.7383 48.3679 19.6985 46.4009 22.1164 46.4009Z" fill="#4EB3FE"/>
<path d="M59.8645 62.6775H26.991C26.9422 62.6775 26.9028 62.638 26.9028 62.589V59.7147C26.9028 59.6657 26.9422 59.6262 26.991 59.6262H59.8626C59.9114 59.6262 59.9508 59.6657 59.9508 59.7147V62.589C59.9526 62.638 59.9132 62.6775 59.8645 62.6775Z" fill="white"/>
<path d="M35.526 98.0142H27.1374C27.008 98.0142 26.9048 97.9088 26.9048 97.7808V90.1178C26.9048 89.9879 27.0098 89.8844 27.1374 89.8844H35.526C35.6554 89.8844 35.7586 89.9898 35.7586 90.1178V97.7808C35.7605 97.9088 35.6554 98.0142 35.526 98.0142Z" fill="white"/>
<path d="M53.5222 92.9321H41.0838C41.035 92.9321 40.9956 92.8926 40.9956 92.8436V89.9693C40.9956 89.9204 41.035 89.8809 41.0838 89.8809H53.5222C53.571 89.8809 53.6104 89.9204 53.6104 89.9693V92.8436C53.6104 92.8926 53.571 92.9321 53.5222 92.9321Z" fill="white"/>
<path d="M68.6881 97.6456H41.0838C41.035 97.6456 40.9956 97.6061 40.9956 97.5572V94.6828C40.9956 94.6339 41.035 94.5944 41.0838 94.5944H68.6881C68.7369 94.5944 68.7762 94.6339 68.7762 94.6828V97.5572C68.7762 97.6061 68.7369 97.6456 68.6881 97.6456Z" fill="white"/>
<path d="M68.6881 102.361H41.0838C41.035 102.361 40.9956 102.321 40.9956 102.272V99.398C40.9956 99.3491 41.035 99.3096 41.0838 99.3096H68.6881C68.7369 99.3096 68.7762 99.3491 68.7762 99.398V102.272C68.7762 102.321 68.7369 102.361 68.6881 102.361Z" fill="white"/>
<path d="M35.526 116.062H27.1374C27.008 116.062 26.9048 115.957 26.9048 115.829V108.166C26.9048 108.036 27.0098 107.932 27.1374 107.932H35.526C35.6554 107.932 35.7586 108.038 35.7586 108.166V115.829C35.7605 115.957 35.6554 116.062 35.526 116.062Z" fill="white"/>
<path d="M53.5222 110.98H41.0838C41.035 110.98 40.9956 110.941 40.9956 110.892V108.017C40.9956 107.968 41.035 107.929 41.0838 107.929H53.5222C53.571 107.929 53.6104 107.968 53.6104 108.017V110.892C53.6104 110.941 53.571 110.98 53.5222 110.98Z" fill="white"/>
<path d="M68.6881 115.693H41.0838C41.035 115.693 40.9956 115.654 40.9956 115.605V112.731C40.9956 112.682 41.035 112.642 41.0838 112.642H68.6881C68.7369 112.642 68.7762 112.682 68.7762 112.731V115.605C68.7762 115.654 68.7369 115.693 68.6881 115.693Z" fill="white"/>
<path d="M68.6881 120.407H41.0838C41.035 120.407 40.9956 120.367 40.9956 120.318V117.444C40.9956 117.395 41.035 117.356 41.0838 117.356H68.6881C68.7369 117.356 68.7762 117.395 68.7762 117.444V120.318C68.7762 120.367 68.7369 120.407 68.6881 120.407Z" fill="white"/>
<path d="M30.6607 97.3651C30.4337 97.3651 30.2161 97.2728 30.0585 97.1072L28.2484 95.2154C27.9295 94.8823 27.9389 94.3514 28.2728 94.0295C28.6048 93.7095 29.1338 93.719 29.4545 94.054L30.5781 95.2267L33.1442 91.7293C33.4181 91.3566 33.9415 91.2775 34.311 91.5505C34.6824 91.8253 34.7612 92.3486 34.4892 92.7213L31.336 97.0206C31.1896 97.2201 30.9646 97.3444 30.7188 97.3594C30.6963 97.3651 30.6794 97.3651 30.6607 97.3651Z" fill="#0780DB"/>
<path d="M35.526 79.9665H27.1374C27.008 79.9665 26.9048 79.8611 26.9048 79.7331V72.0701C26.9048 71.9402 27.0098 71.8367 27.1374 71.8367H35.526C35.6554 71.8367 35.7586 71.9421 35.7586 72.0701V79.7331C35.7605 79.8629 35.6554 79.9665 35.526 79.9665Z" fill="white"/>
<path d="M53.5222 74.8844H41.0838C41.035 74.8844 40.9956 74.8449 40.9956 74.7959V71.9216C40.9956 71.8727 41.035 71.8331 41.0838 71.8331H53.5222C53.571 71.8331 53.6104 71.8727 53.6104 71.9216V74.7959C53.6104 74.8467 53.571 74.8844 53.5222 74.8844Z" fill="white"/>
<path d="M68.6881 79.5997H41.0838C41.035 79.5997 40.9956 79.5602 40.9956 79.5113V76.6369C40.9956 76.588 41.035 76.5485 41.0838 76.5485H68.6881C68.7369 76.5485 68.7762 76.588 68.7762 76.6369V79.5113C68.7762 79.5602 68.7369 79.5997 68.6881 79.5997Z" fill="white"/>
<path d="M68.6881 84.3131H41.0838C41.035 84.3131 40.9956 84.2736 40.9956 84.2247V81.3503C40.9956 81.3014 41.035 81.2618 41.0838 81.2618H68.6881C68.7369 81.2618 68.7762 81.3014 68.7762 81.3503V84.2247C68.7762 84.2736 68.7369 84.3131 68.6881 84.3131Z" fill="white"/>
<path d="M30.6602 78.8882C30.4332 78.8882 30.2156 78.796 30.0581 78.6304L28.2479 76.7386C27.929 76.4054 27.9384 75.8746 28.2723 75.5527C28.6043 75.2327 29.1333 75.2421 29.454 75.5772L30.5777 76.7499L33.1438 73.2525C33.4176 72.8798 33.941 72.8007 34.3105 73.0737C34.6819 73.3485 34.7607 73.8718 34.4887 74.2445L31.3355 78.5438C31.1892 78.7433 30.9641 78.8675 30.7183 78.8826C30.6958 78.8882 30.6789 78.8882 30.6602 78.8882Z" fill="#0780DB"/>
<path d="M66.4805 142.216H91.318L75.807 21.8666L66.4805 30.2844V142.216Z" fill="#E6E7E8"/>
<path d="M246.904 152.915H68.731L75.2475 147.202C75.3957 147.066 75.5852 146.999 75.7877 146.999H239.849C240.052 146.999 240.241 147.066 240.39 147.202L246.904 152.915Z" fill="#98A4D2"/>
<path d="M252.274 152.915V157.924C252.315 158.37 251.978 158.831 251.451 158.831H64.1816C63.6545 158.831 63.3187 158.37 63.3581 157.924V152.915H252.274Z" fill="#B1DDFF"/>
<path d="M251.447 153.871H64.1853C63.4218 153.871 63.0673 152.922 63.6413 152.418L75.2432 142.24C75.3932 142.108 75.5864 142.035 75.7872 142.035H239.845C240.046 142.035 240.239 142.108 240.389 142.24L251.991 152.418C252.565 152.922 252.21 153.871 251.447 153.871Z" fill="#E4E5E9"/>
<path d="M195.159 151.437H124.952C124.665 151.437 124.532 151.081 124.747 150.891L129.097 147.076C129.154 147.027 129.227 146.999 129.302 146.999H190.809C190.884 146.999 190.958 147.027 191.014 147.076L195.364 150.891C195.58 151.08 195.445 151.437 195.159 151.437Z" fill="#B1DDFF"/>
<path d="M239.762 142.033H75.8696C75.6539 142.033 75.4775 141.858 75.4775 141.64V22.26C75.4775 22.0435 75.652 21.8666 75.8696 21.8666H239.764C239.98 21.8666 240.156 22.0416 240.156 22.26V141.641C240.154 141.858 239.98 142.033 239.762 142.033Z" fill="white"/>
<path d="M233.407 28.6372H82.2231V129.239H233.407V28.6372Z" fill="#4EB3FE"/>
<path d="M159.887 134.878C159.887 136.561 158.527 136.868 156.852 136.868C155.175 136.868 153.817 136.561 153.817 134.878C153.817 133.195 155.177 132.747 156.852 132.747C158.529 132.747 159.887 133.195 159.887 134.878Z" fill="#8190C7"/>
<path d="M240.155 63.3985V27.365L233.273 33.1099L224.357 34.7569C216.158 36.2722 210.735 44.1667 212.241 52.3944V52.3963V52.3982C212.241 52.4001 212.241 52.4019 212.241 52.4019C213.313 58.2353 217.578 62.6663 222.892 64.2136L223.935 69.9001L228.411 94.282C229.052 97.7775 232.397 100.091 235.882 99.4472C237.722 99.1065 239.234 98.0091 240.155 96.5333V87.1932L236.694 68.334L235.8 63.455L238.743 62.911L240.155 63.3985Z" fill="#E6E7E8"/>
<path d="M105.605 93.4518C106.245 93.4518 106.763 92.9323 106.763 92.2904C106.763 91.6485 106.245 91.129 105.605 91.129H98.8317C98.2484 91.129 97.7569 91.5657 97.6837 92.1454L97.0966 96.8381H94.3579L95.7479 86.4043L95.8961 86.41C96.5883 81.3766 96.3275 76.3301 95.9899 72.9946L101.925 65.9094C102.55 65.164 103.007 64.2906 103.264 63.3495L104.904 57.9095C105.243 57.5801 106.374 56.3867 105.693 55.7166C104.898 54.9335 104.099 56.1025 104.099 56.1025C104.099 56.1025 104.302 55.7411 103.844 55.6244C103.529 55.5453 103.472 56.654 103.467 57.3486L101.051 63.9857L95.4647 69.0925L92.1989 70.1842L92.1051 69.6685C92.4784 69.0115 93.058 67.4793 92.0507 65.3353L92.0263 65.5217C91.9944 65.3673 91.9625 65.213 91.925 65.0511C91.925 65.0511 91.3867 62.8902 91.3867 63.6111C91.3867 64.332 86.8904 63.9368 87.2561 66.9466C87.4569 68.6012 88.4679 69.4407 89.1863 69.9358C89.342 70.0431 89.4715 70.1391 89.5896 70.2181L90.0286 71.0369C88.0909 72.1324 86.0106 73.548 85.5754 73.8491C85.2847 74.0374 85.0502 74.3216 84.9339 74.6924L82.7261 81.7267L82.5704 91.1647C82.1333 91.289 81.7957 91.6654 81.7356 92.1379L75.5211 141.867C75.5793 141.961 75.6824 142.024 75.8006 142.024H75.78C75.6824 142.024 75.5849 142.042 75.4948 142.074L73.4033 158.822H75.735L76.4102 153.417H90.0211L89.3458 158.822H91.6774L99.8465 93.4424H105.605V93.4518ZM92.0657 69.0661C92.0582 69.1508 92.0507 69.2336 92.0413 69.3165L92.0188 69.1885C92.0357 69.1471 92.0526 69.1075 92.0657 69.0661ZM90.6776 93.0301C90.8427 92.8287 90.9421 92.5708 90.9421 92.2904C90.9421 92.2038 90.9327 92.121 90.914 92.04L91.1428 91.0857L91.0228 96.8381H89.7622L90.6776 93.0301ZM91.0415 113.704V114.929H86.5902C86.442 114.453 86.0219 113.932 84.9733 113.649H84.857L86.5021 108.206H91.0096L91.0415 113.704ZM89.2051 99.1609H90.974L90.9571 99.9477L90.9927 105.885H87.2017L89.0963 99.6145L89.2051 99.1609ZM85.0408 80.7592L86.7966 77.6947C87.6838 81.4312 88.1734 86.0805 88.1734 86.0805L88.2822 86.0843L87.3818 91.1309H84.1123L85.0408 80.7592ZM83.8722 93.7548C83.9322 93.657 83.9791 93.5515 84.0147 93.4518H86.9673L86.3633 96.84H83.4876L83.8722 93.7548ZM83.1969 99.1609H85.9224L84.8701 105.885H82.3565L83.1969 99.1609ZM82.0658 108.206H84.5062L83.6546 113.649H83.5927L83.24 114.929H81.2254L82.0658 108.206ZM90.3175 151.108H76.7066L77.547 144.384H91.1597L90.3175 151.108ZM91.4486 142.063H77.8358L78.6762 135.339H92.2889L91.4486 142.063ZM92.5778 133.018H78.9651L79.8054 126.295H93.4182L92.5778 133.018ZM93.707 123.974H80.0943L80.9347 117.25H94.5474L93.707 123.974ZM94.8381 114.929H94.0184C93.8552 114.468 93.4294 113.977 92.4202 113.704L93.0317 108.206H95.6785L94.8381 114.929ZM95.9674 105.885H93.2906L93.9903 99.5882L94.0466 99.1609H96.8077L95.9674 105.885Z" fill="#E6E7E8"/>
<path d="M277.785 28.5753L275.423 29.012L269.033 6.6969L237.39 33.1098L242.86 62.9128L281.803 76.2812L279.852 53.1473L282.214 52.7106L278.821 40.8707L277.785 28.5753Z" fill="#D9E0E9"/>
<path d="M294.518 37.953C295.786 44.8612 291.554 51.5171 284.97 53.3882L280.117 26.9433C286.932 26.339 293.25 31.0449 294.518 37.953Z" fill="#0780DB"/>
<path opacity="0.49" d="M294.518 37.953C295.786 44.8612 291.554 51.5171 284.97 53.3882L283.961 47.8917C289.643 46.271 293.576 41.0852 293.73 35.2688C294.075 36.1121 294.345 37.0118 294.518 37.953Z" fill="#226B8E"/>
<path d="M224.562 50.8884L232.527 94.2856C233.169 97.7811 236.513 100.095 239.999 99.4508C243.482 98.807 245.787 95.4508 245.146 91.9534L237.181 48.5562L224.562 50.8884Z" fill="#D9E0E9"/>
<path opacity="0.49" d="M240.81 68.3377C233.901 71.9913 228.051 69.9038 228.051 69.9038L226.081 59.1745L238.887 57.8644L240.81 68.3377Z" fill="#2D87C1"/>
<path d="M228.473 34.7588C220.272 36.2741 214.847 44.1742 216.359 52.4038C217.869 60.6334 225.742 66.0771 233.943 64.5599L242.859 62.9129L237.389 33.1099L228.473 34.7588Z" fill="#0780DB"/>
<path opacity="0.49" d="M281.401 52.8649L279.853 53.151L281.804 76.2868L242.858 62.9052L233.939 64.5542C225.732 66.0713 217.871 60.6351 216.359 52.3999C216.295 52.0517 216.252 51.7016 216.229 51.3458C222.81 62.5325 240.782 51.583 240.782 51.583C240.782 51.583 256.18 58.4987 280.157 50.0959C280.155 50.0941 280.615 51.1086 281.401 52.8649Z" fill="#006FC2"/>
<path d="M272.729 1.03104C270.199 1.49786 268.526 3.93737 268.991 6.47664L281.844 76.5033C282.309 79.0426 284.74 80.7216 287.27 80.2548C289.801 79.788 291.474 77.3485 291.009 74.8092L278.156 4.78254C277.689 2.24327 275.26 0.562343 272.729 1.03104Z" fill="#596584"/>
<path d="M291.151 27.2445C290.536 26.8153 290.384 25.9683 290.81 25.3509L303.368 7.19387C303.796 6.57646 304.64 6.42399 305.255 6.85128C305.871 7.28046 306.023 8.12751 305.597 8.74491L293.038 26.9019C292.612 27.5193 291.766 27.6718 291.151 27.2445Z" fill="#F7B97B"/>
<path d="M316.074 33.7027L294.399 37.6311C293.662 37.7648 292.957 37.2735 292.824 36.5337C292.69 35.794 293.18 35.0862 293.917 34.9526L315.592 31.0241C316.329 30.8905 317.035 31.3818 317.168 32.1215C317.301 32.8613 316.811 33.569 316.074 33.7027Z" fill="#F7B97B"/>
<path d="M312.898 60.1326L294.805 47.5304C294.189 47.1012 294.037 46.2541 294.463 45.6367C294.891 45.0193 295.735 44.8669 296.35 45.2942L314.444 57.8964C315.059 58.3256 315.211 59.1726 314.786 59.79C314.36 60.4074 313.514 60.5599 312.898 60.1326Z" fill="#F7B97B"/>
<path d="M210.304 131.635L217.173 132.956L204.17 148.369C200.516 146.586 196.862 144.815 193.326 143.129C178.003 135.821 161.267 131.979 144.302 131.868C95.7992 131.548 82.2222 130.869 82.2222 129.241C82.2222 127.375 107.215 125.192 166.245 125.192C225.275 125.192 259.144 125.792 259.144 127.658C259.146 129.024 247.36 131.102 210.304 131.635Z" fill="#E6E7E8"/>
<path d="M99.196 38.9337C95.7145 39.6509 97.0763 59.022 97.0763 59.022C97.0763 59.022 97.0763 81.9507 106.288 95.2739C116.532 110.088 130.124 67.9932 129.533 64.238C128.943 60.4827 110.622 43.6791 106.288 41.3073C101.955 38.9337 99.196 38.9337 99.196 38.9337Z" fill="#E6E7E8"/>
<path d="M97.0767 59.022C99.3933 102.321 111.607 124.38 137.808 120.345C164.009 116.309 160.278 128.904 160.278 128.904H203.771L198.738 85.8528L159.862 70.8487L120.802 74.9258L114.058 71.0482L97.0767 59.022Z" fill="#E6E7E8"/>
<path d="M143.775 104.443C143.775 104.443 187.055 103.887 192.572 92.8174C198.089 81.7474 196.117 69.4294 187.845 73.4143C179.571 77.3992 153.602 83.7897 152.501 85.0415C151.4 86.2932 137.808 99.5373 137.808 99.5373L143.775 104.443Z" fill="#BCBEC0"/>
<path d="M99.1958 38.9337C107.076 38.9337 105.016 52.3453 106.288 66.6096C108.922 96.1792 128.351 119.983 155.537 98.6338C182.724 77.2844 189.816 68.5861 189.816 68.5861C189.816 68.5861 193.361 42.096 183.905 38.9337C174.449 35.7714 109.833 38.9337 109.833 38.9337H99.1958Z" fill="white"/>
<path d="M131.134 47.0486H115.732V62.5044H131.134V47.0486Z" fill="white"/>
<path d="M129.864 48.3248H117.004V61.2301H129.864V48.3248Z" fill="#F7B97B"/>
<path opacity="0.47" d="M121.156 55.7862C121.156 55.7862 121.385 55.4794 122.242 55.5302C122.489 55.5453 122.004 56.4959 122.004 56.4959L121.7 56.6558L121.156 55.7862Z" fill="#707FAF"/>
<path opacity="0.47" d="M125.7 55.7862C125.7 55.7862 125.471 55.4794 124.614 55.5302C124.366 55.5453 124.852 56.4959 124.852 56.4959L125.156 56.6558L125.7 55.7862Z" fill="#707FAF"/>
<path d="M121.86 54.2296L121.896 56.6334L123.502 59.3646L124.86 56.6296V53.8927L121.86 54.2296Z" fill="#F0E3DD"/>
<path opacity="0.47" d="M121.86 55.6735C123.175 56.9836 123.774 56.9064 124.854 55.6848L124.918 54.6326L121.86 54.93V55.6735Z" fill="#8190C7"/>
<path d="M120.838 52.0085C120.838 52.0085 121.022 53.1944 121.35 54.3633C121.679 55.5323 122.789 56.112 123.339 56.112C124.005 56.112 124.958 55.3422 125.286 54.3426C125.614 53.3431 125.839 52.0104 125.839 52.0104H120.838V52.0085Z" fill="#F0E3DD"/>
<path d="M125.473 52.7578C126.148 52.3117 126.272 52.6731 126.109 53.1625C125.946 53.6519 125.591 54.3879 125.368 54.1582C125.145 53.9267 125.473 52.7578 125.473 52.7578Z" fill="#F0E3DD"/>
<path d="M121.059 52.7578C120.384 52.3117 120.26 52.6731 120.423 53.1625C120.587 53.6519 120.941 54.3879 121.164 54.1582C121.388 53.9267 121.059 52.7578 121.059 52.7578Z" fill="#F0E3DD"/>
<path d="M120.838 52.0086C123.451 53.0024 125.434 52.7464 125.434 52.7464C125.434 52.7464 124.359 52.7351 123.635 52.0086C123.635 52.0086 125.081 52.5657 125.526 52.5714V53.6876C125.526 53.6876 126.064 52.3173 126.064 51.7112C126.064 51.105 125.657 49.7987 124.147 49.4787C122.637 49.1606 121.332 49.6707 120.932 50.3709C120.932 50.3709 120.208 50.7286 120.578 52.5752C120.578 52.5752 120.996 52.9742 121.245 53.6876L120.838 52.0086Z" fill="#8F676F"/>
<path d="M129.313 61.0645C129.249 61.1191 129.188 61.1755 129.116 61.2301H123.215C123.2 61.04 123.183 60.8424 123.168 60.6447C123.161 60.5186 123.153 60.4 123.144 60.2814H123.136C123.104 59.8221 123.082 59.3798 123.072 59.024C123.065 58.9054 123.065 58.8019 123.065 58.7078C123.065 58.6927 123.072 58.6683 123.08 58.6438C123.087 58.6363 123.095 58.6287 123.095 58.6193C123.149 58.5478 123.238 58.4612 123.339 58.3671C123.615 58.1224 124.023 57.8457 124.023 57.8457V57.8382C124.031 57.8382 124.031 57.8306 124.038 57.8306L124.519 57.3092L124.526 57.3017L124.856 56.9384L125.684 56.4095C125.691 56.4019 125.691 56.4019 125.691 56.4019C125.699 56.3944 125.699 56.3944 125.699 56.3944L127.724 57.4617C128.379 57.8024 128.844 58.4349 128.97 59.1614L129.313 61.0645Z" fill="#B1DDFF"/>
<path d="M123.434 58.5648V61.2302H117.752C117.681 61.1756 117.61 61.1116 117.548 61.057L117.878 59.1596C118.011 58.433 118.469 57.7987 119.124 57.4599L121.157 56.3926C121.157 56.3926 121.157 56.3926 121.164 56.4001L121.992 56.9385L122.213 57.1756L122.22 57.1832L122.826 57.8401L122.834 57.8476C122.834 57.8476 123.173 58.1394 123.338 58.369C123.395 58.4462 123.434 58.5177 123.434 58.5648Z" fill="#B1DDFF"/>
<path d="M121.155 55.743C121.824 56.5223 122.83 57.0362 122.83 57.0362C122.83 57.0362 122.854 57.264 122.83 57.8419C121.629 57.3468 121.155 56.3906 121.155 56.3906C121.155 56.3906 121.05 55.8315 121.155 55.743Z" fill="white"/>
<path d="M119.148 61.23H118.983L119.124 60.2644L119.148 61.23Z" fill="#515B5C"/>
<path d="M125.7 55.743C125.031 56.5223 124.025 57.0362 124.025 57.0362C124.025 57.0362 124.005 57.2621 124.025 57.8419C125.226 57.3468 125.7 56.3906 125.7 56.3906C125.7 56.3906 125.805 55.8315 125.7 55.743Z" fill="white"/>
<path d="M127.871 61.23H127.706L127.728 60.2644L127.871 61.23Z" fill="#515B5C"/>
<path d="M123.061 59.0221C123.175 59.0221 123.267 58.9294 123.267 58.8151C123.267 58.7007 123.175 58.608 123.061 58.608C122.947 58.608 122.854 58.7007 122.854 58.8151C122.854 58.9294 122.947 59.0221 123.061 59.0221Z" fill="white"/>
<path d="M123.267 60.4734C123.267 60.5882 123.175 60.6805 123.061 60.6805C122.946 60.6805 122.854 60.5882 122.854 60.4734C122.854 60.3586 122.946 60.2664 123.061 60.2664C123.175 60.2664 123.267 60.3586 123.267 60.4734Z" fill="white"/>
<path d="M143.775 104.443C183.707 81.8998 169.965 69.0585 189.957 69.0585C252.208 69.0585 184.167 69.0585 246.417 69.0585C253.922 69.0585 261.453 71.2006 262.74 97.2709C264.395 130.805 278.264 148.365 278.264 148.365H204.168C204.168 148.365 191.585 137.295 189.158 96.8606C188.033 78.1069 183.341 75.4622 177.052 80.8739C170.764 86.2837 156.015 101.95 143.775 104.443Z" fill="white"/>
<path d="M242.263 126.506H219.091C219.076 126.506 219.064 126.495 219.064 126.479V124.934C219.064 124.919 219.076 124.908 219.091 124.908H242.263C242.278 124.908 242.289 124.919 242.289 124.934V126.479C242.289 126.495 242.278 126.506 242.263 126.506Z" fill="#BBC4DE"/>
<path d="M250.961 131.449H219.091C219.076 131.449 219.064 131.437 219.064 131.422V129.879C219.064 129.864 219.076 129.852 219.091 129.852H250.961C250.976 129.852 250.987 129.864 250.987 129.879V131.422C250.987 131.437 250.976 131.449 250.961 131.449Z" fill="#BBC4DE"/>
<path d="M215.23 132.949H205.771V123.456H215.23V132.949ZM206.979 131.737H214.024V124.667H206.979V131.737Z" fill="#BBC4DE"/>
<path d="M212.602 128.2L210.5 126.09L208.398 128.2L210.5 130.309L212.602 128.2Z" fill="#F7B97B"/>
<path d="M180.911 50.7097H134.695C134.673 50.7097 134.656 50.6927 134.656 50.6702V48.3624C134.656 48.3398 134.673 48.3229 134.695 48.3229H180.911C180.934 48.3229 180.951 48.3398 180.951 48.3624V50.6702C180.951 50.6927 180.934 50.7097 180.911 50.7097Z" fill="#BBC4DE"/>
<path d="M134.695 53.441H169.491C169.513 53.441 169.53 53.458 169.53 53.4806V55.7883C169.53 55.8109 169.513 55.8278 169.491 55.8278H134.695C134.672 55.8278 134.655 55.8109 134.655 55.7883V53.4806C134.655 53.458 134.672 53.441 134.695 53.441Z" fill="#BBC4DE"/>
<path d="M134.695 59.0729H178.356C178.378 59.0729 178.395 59.0898 178.395 59.1124V61.4202C178.395 61.4427 178.378 61.4597 178.356 61.4597H134.695C134.672 61.4597 134.655 61.4427 134.655 61.4202V59.1124C134.655 59.0898 134.672 59.0729 134.695 59.0729Z" fill="#BBC4DE"/>
<path opacity="0.47" d="M113.244 55.1125C113.244 58.7266 110.32 61.6612 106.711 61.6612C106.338 61.6612 105.972 61.6292 105.621 61.567V48.6486C105.972 48.5864 106.338 48.5544 106.711 48.5544C110.318 48.5563 113.244 51.4909 113.244 55.1125Z" fill="#53659A"/>
<path d="M113.161 54.063C113.739 50.4888 111.321 47.1211 107.759 46.5411C104.197 45.961 100.841 48.3882 100.263 51.9624C99.6849 55.5365 102.104 58.9042 105.665 59.4843C109.227 60.0643 112.583 57.6371 113.161 54.063Z" fill="#F7B97B"/>
<path d="M105.989 53.6179L106.524 53.7534C106.411 54.1939 106.211 54.5308 105.918 54.7623C105.627 54.9939 105.271 55.1087 104.849 55.1087C104.414 55.1087 104.059 55.0202 103.785 54.8414C103.511 54.6626 103.305 54.4066 103.163 54.0677C103.02 53.7308 102.949 53.3675 102.949 52.9798C102.949 52.5581 103.029 52.1892 103.191 51.8748C103.352 51.5605 103.581 51.3214 103.877 51.1577C104.174 50.9939 104.5 50.913 104.856 50.913C105.262 50.913 105.601 51.0165 105.877 51.2235C106.153 51.4306 106.344 51.7205 106.453 52.0951L105.926 52.2193C105.832 51.9238 105.697 51.7092 105.517 51.5755C105.338 51.44 105.113 51.3741 104.843 51.3741C104.532 51.3741 104.273 51.4494 104.065 51.5981C103.857 51.7468 103.71 51.9482 103.626 52.2005C103.541 52.4527 103.498 52.7125 103.498 52.9798C103.498 53.3242 103.549 53.6254 103.648 53.8833C103.748 54.1412 103.904 54.3332 104.115 54.4593C104.327 54.5873 104.556 54.6494 104.802 54.6494C105.102 54.6494 105.355 54.5628 105.564 54.3896C105.776 54.2165 105.916 53.9586 105.989 53.6179Z" fill="white"/>
<path d="M108.338 55.0409L106.772 50.9845H107.352L108.402 53.9304C108.486 54.1656 108.558 54.3878 108.614 54.5948C108.676 54.3727 108.749 54.1525 108.832 53.9304L109.923 50.9845H110.469L108.886 55.0409H108.338Z" fill="white"/>
<path d="M165.236 69.4896H119.02C118.997 69.4896 118.98 69.4726 118.98 69.4501V67.1423C118.98 67.1197 118.997 67.1028 119.02 67.1028H165.236C165.258 67.1028 165.275 67.1197 165.275 67.1423V69.4501C165.275 69.4726 165.258 69.4896 165.236 69.4896Z" fill="#BBC4DE"/>
<path d="M121.386 72.2208H156.182C156.204 72.2208 156.221 72.2378 156.221 72.2604V74.5681C156.221 74.5907 156.204 74.6076 156.182 74.6076H121.386C121.363 74.6076 121.346 74.5907 121.346 74.5681V72.2604C121.346 72.2378 121.363 72.2208 121.386 72.2208Z" fill="#BBC4DE"/>
<path d="M122.961 77.8528H166.622C166.645 77.8528 166.661 77.8697 166.661 77.8923V80.2001C166.661 80.2227 166.645 80.2396 166.622 80.2396H122.961C122.938 80.2396 122.921 80.2227 122.921 80.2001V77.8923C122.921 77.8697 122.938 77.8528 122.961 77.8528Z" fill="#BBC4DE"/>
<path d="M244.993 100.603H198.777C198.754 100.603 198.737 100.586 198.737 100.563V98.2555C198.737 98.2329 198.754 98.2159 198.777 98.2159H244.993C245.015 98.2159 245.032 98.2329 245.032 98.2555V100.563C245.032 100.586 245.015 100.603 244.993 100.603Z" fill="#BBC4DE"/>
<path d="M201.142 103.334H235.938C235.961 103.334 235.977 103.351 235.977 103.374V105.681C235.977 105.704 235.961 105.721 235.938 105.721H201.142C201.119 105.721 201.103 105.704 201.103 105.681V103.374C201.103 103.351 201.119 103.334 201.142 103.334Z" fill="#BBC4DE"/>
<path d="M202.717 108.966H246.378C246.401 108.966 246.418 108.983 246.418 109.005V111.313C246.418 111.336 246.401 111.353 246.378 111.353H202.717C202.695 111.353 202.678 111.336 202.678 111.313V109.005C202.678 108.983 202.695 108.966 202.717 108.966Z" fill="#BBC4DE"/>
<path d="M210.891 78.1616H195.488V93.6175H210.891V78.1616Z" fill="white"/>
<path d="M209.62 79.4379H196.76V92.3432H209.62V79.4379Z" fill="#B1DDFF"/>
<path opacity="0.47" d="M200.909 86.8994C200.909 86.8994 201.138 86.5926 201.995 86.6434C202.243 86.6584 201.757 87.609 201.757 87.609L201.453 87.769L200.909 86.8994Z" fill="#707FAF"/>
<path opacity="0.47" d="M205.455 86.8994C205.455 86.8994 205.226 86.5926 204.369 86.6434C204.122 86.6584 204.607 87.609 204.607 87.609L204.911 87.769L205.455 86.8994Z" fill="#707FAF"/>
<path d="M201.615 85.3427L201.651 87.7464L203.257 90.4777L204.615 87.7426V85.0057L201.615 85.3427Z" fill="#F0E3DD"/>
<path opacity="0.47" d="M201.615 86.7864C202.93 88.0965 203.529 88.0193 204.609 86.7977L204.673 85.7455L201.615 86.0429V86.7864Z" fill="#8190C7"/>
<path d="M200.594 83.1196C200.594 83.1196 200.778 84.3055 201.106 85.4744C201.434 86.6434 202.545 87.2231 203.094 87.2231C203.76 87.2231 204.713 86.4532 205.041 85.4537C205.37 84.4542 205.595 83.1215 205.595 83.1215H200.594V83.1196Z" fill="#F0E3DD"/>
<path d="M205.229 83.8708C205.904 83.4247 206.028 83.7861 205.865 84.2755C205.701 84.7649 205.347 85.5009 205.124 85.2712C204.9 85.0397 205.229 83.8708 205.229 83.8708Z" fill="#F0E3DD"/>
<path d="M200.816 83.8708C200.14 83.4247 200.017 83.7861 200.18 84.2755C200.343 84.7649 200.697 85.5009 200.921 85.2712C201.144 85.0397 200.816 83.8708 200.816 83.8708Z" fill="#F0E3DD"/>
<path d="M200.592 83.1196C203.205 84.1135 205.188 83.8575 205.188 83.8575C205.188 83.8575 204.113 83.8462 203.389 83.1196C203.389 83.1196 204.835 83.6768 205.28 83.6824V84.7986C205.28 84.7986 205.818 83.4283 205.818 82.8222C205.818 82.2161 205.411 80.9097 203.901 80.5897C202.391 80.2716 201.086 80.7799 200.686 81.482C200.686 81.482 199.962 81.8396 200.332 83.6862C200.332 83.6862 200.75 84.0852 200.999 84.7986L200.592 83.1196Z" fill="#8F676F"/>
<path d="M209.068 92.1774C209.004 92.232 208.942 92.2885 208.871 92.343H202.969C202.954 92.1529 202.937 91.9553 202.922 91.7576C202.915 91.6315 202.907 91.5129 202.898 91.3943H202.891C202.859 90.935 202.836 90.4927 202.827 90.1369C202.819 90.0184 202.819 89.9148 202.819 89.8207C202.819 89.8056 202.827 89.7812 202.834 89.7567C202.842 89.7492 202.849 89.7417 202.849 89.7322C202.904 89.6607 202.992 89.5741 203.093 89.48C203.369 89.2353 203.778 88.9586 203.778 88.9586V88.9511C203.785 88.9511 203.785 88.9435 203.793 88.9435L204.273 88.4221L204.281 88.4146L204.611 88.0513L205.438 87.5224C205.445 87.5149 205.445 87.5148 205.445 87.5148C205.453 87.5073 205.453 87.5073 205.453 87.5073L207.479 88.5746C208.133 88.9153 208.599 89.5478 208.724 90.2744L209.068 92.1774Z" fill="#F7B97B"/>
<path d="M203.189 89.6776V92.343H197.507C197.436 92.2884 197.365 92.2244 197.303 92.1698L197.633 90.2724C197.766 89.5458 198.224 88.9115 198.878 88.5727L200.912 87.5054C200.912 87.5054 200.912 87.5054 200.919 87.5129L201.746 88.0513L201.968 88.2884L201.975 88.296L202.581 88.9529L202.589 88.9604C202.589 88.9604 202.928 89.2522 203.093 89.4818C203.15 89.559 203.189 89.6305 203.189 89.6776Z" fill="#F7B97B"/>
<path d="M200.911 86.8561C201.581 87.6354 202.586 88.1492 202.586 88.1492C202.586 88.1492 202.61 88.377 202.586 88.9549C201.386 88.4598 200.911 87.5036 200.911 87.5036C200.911 87.5036 200.806 86.9445 200.911 86.8561Z" fill="white"/>
<path d="M198.903 92.3431H198.737L198.878 91.3774L198.903 92.3431Z" fill="#515B5C"/>
<path d="M205.455 86.8561C204.785 87.6354 203.78 88.1492 203.78 88.1492C203.78 88.1492 203.759 88.3751 203.78 88.9549C204.98 88.4598 205.455 87.5036 205.455 87.5036C205.455 87.5036 205.56 86.9445 205.455 86.8561Z" fill="white"/>
<path d="M207.625 92.3431H207.46L207.483 91.3774L207.625 92.3431Z" fill="#515B5C"/>
<path d="M203.021 89.928C203.021 90.0428 202.929 90.135 202.815 90.135C202.7 90.135 202.608 90.0428 202.608 89.928C202.608 89.8132 202.7 89.7209 202.815 89.7209C202.927 89.7209 203.021 89.8132 203.021 89.928Z" fill="white"/>
<path d="M203.021 91.5865C203.021 91.7013 202.929 91.7935 202.815 91.7935C202.7 91.7935 202.608 91.7013 202.608 91.5865C202.608 91.4716 202.7 91.3794 202.815 91.3794C202.927 91.3794 203.021 91.4716 203.021 91.5865Z" fill="white"/>
<path d="M252.195 81.8227H214.451C214.428 81.8227 214.411 81.8058 214.411 81.7832V79.4754C214.411 79.4529 214.428 79.4359 214.451 79.4359H252.195C252.218 79.4359 252.235 79.4529 252.235 79.4754V81.7832C252.235 81.8058 252.218 81.8227 252.195 81.8227Z" fill="#BBC4DE"/>
<path d="M214.451 84.5538H242.865C242.888 84.5538 242.905 84.5708 242.905 84.5934V86.9011C242.905 86.9237 242.888 86.9406 242.865 86.9406H214.451C214.428 86.9406 214.411 86.9237 214.411 86.9011V84.5934C214.411 84.5708 214.428 84.5538 214.451 84.5538Z" fill="#BBC4DE"/>
<path d="M214.451 90.1859H250.11C250.132 90.1859 250.149 90.2029 250.149 90.2254V92.5332C250.149 92.5558 250.132 92.5727 250.11 92.5727H214.451C214.428 92.5727 214.411 92.5558 214.411 92.5332V90.2254C214.411 90.2029 214.428 90.1859 214.451 90.1859Z" fill="#BBC4DE"/>
<path d="M267.322 137.596C267.575 137.393 267.742 137.193 267.791 137.007C266.769 133.318 263.505 123.946 261.475 123.52C261.087 123.396 260.603 123.415 260.079 123.539L260.134 123.499C259.843 123.381 259.59 123.196 259.363 122.969C259.528 122.923 259.618 122.869 259.59 122.811L259.61 122.758C259.691 122.724 259.777 122.686 259.867 122.643C261.079 122.056 262.18 119.212 260.712 118.05C259.168 116.83 255.712 114.532 255.981 116.667C256.052 117.228 256.17 118.092 256.382 118.835C255.971 120.211 256.253 122.679 256.453 122.918C256.553 123.036 256.919 123.099 257.367 123.119C257.643 123.571 257.84 124.025 257.92 124.482C257.838 124.533 257.757 124.584 257.676 124.636L256.32 125.088L254.48 124.032C254.463 124.045 254.439 124.07 254.411 124.098L251.906 122.204L250.49 121.139C250.438 120.838 250.378 120.557 250.265 120.401C250.184 120.339 250.096 120.379 250.003 120.537L249.946 120.763L249.564 120.222C249.464 120.098 249.042 120.1 248.856 120.324L243.004 115.355C242.974 115.328 242.927 115.332 242.901 115.364L242.524 115.812L240.717 114.278C244.182 108.842 243.193 101.544 238.147 97.2597C232.649 92.5915 224.428 93.2729 219.776 98.7976C215.124 104.307 215.81 112.565 221.308 117.233C226.386 121.544 233.781 121.276 238.547 116.874L240.342 118.398L239.965 118.846C239.939 118.876 239.943 118.924 239.974 118.95L246.148 124.192L246.904 125.387L248.658 128.158L250.357 130.94C250.888 131.076 252.45 131.044 254.09 130.933L254.411 131.204C254.521 131.298 254.686 131.283 254.78 131.174L255.045 130.859C255.491 130.822 255.928 130.778 256.339 130.733C257.23 133.474 258.172 135.816 258.612 138.005C257.613 141.647 256.643 145.229 256.776 146.543L257.084 148.365H260.689L260.682 146.786C261.135 145.807 261.567 144.832 261.972 143.861C261.923 145.382 261.989 146.583 262.278 147.16L262.736 148.367H266.51L266.148 146.588C266.757 143.384 267.181 140.36 267.322 137.596ZM237.452 113.807C233.844 118.093 227.455 118.628 223.184 115.001C218.913 111.373 218.378 104.962 221.995 100.684C225.61 96.3976 231.991 95.863 236.262 99.4903C240.533 103.11 241.066 109.521 237.452 113.807Z" fill="#E6E7E8"/>
<path d="M79.5471 173.907C88.6906 173.907 96.1029 173.102 96.1029 172.109C96.1029 171.116 88.6906 170.312 79.5471 170.312C70.4035 170.312 62.9912 171.116 62.9912 172.109C62.9912 173.102 70.4035 173.907 79.5471 173.907Z" fill="#E6E7E8"/>
<path d="M70.2257 171.631L80.1562 92.1474C80.2293 91.5677 80.7208 91.131 81.3042 91.131H88.2015C88.8393 91.131 89.3589 91.6505 89.3589 92.2924C89.3589 92.9324 88.8412 93.4538 88.2015 93.4538H82.3246L81.9007 96.842H95.5134L96.1005 92.1493C96.1737 91.5696 96.6651 91.1329 97.2485 91.1329H104.022C104.662 91.1329 105.179 91.6524 105.179 92.2943C105.179 92.9343 104.662 93.4557 104.022 93.4557H98.2689L88.4641 171.923C88.391 172.51 87.892 172.939 87.318 172.939C87.2692 172.939 87.2223 172.935 87.1736 172.93C86.5395 172.851 86.0893 172.271 86.17 171.635L87.3142 162.475H73.7015L72.5216 171.923C72.4485 172.51 71.9495 172.939 71.3755 172.939C71.3268 172.939 71.2799 172.935 71.2311 172.93C70.5952 172.847 70.145 172.267 70.2257 171.631ZM79.6403 114.929H93.253L94.0934 108.206H80.4807L79.6403 114.929ZM79.3514 117.25L78.5111 123.974H92.1238L92.9642 117.25H79.3514ZM78.2203 126.295L77.38 133.019H90.9927L91.8331 126.295H78.2203ZM77.0911 135.339L76.2507 142.063H89.8635L90.7038 135.339H77.0911ZM89.5727 144.384H75.96L75.1196 151.108H88.7324L89.5727 144.384ZM81.6099 99.161L80.7696 105.885H94.3823L95.2226 99.161H81.6099ZM87.6012 160.151L88.4416 153.427H74.8289L73.9885 160.151H87.6012Z" fill="#D19B3B"/>
<path d="M89.4551 113.704V115.513C89.4551 115.797 89.6858 116.029 89.969 116.029H92.4339C92.4339 116.029 93.096 114.312 90.8338 113.704H89.4551Z" fill="#4E3654"/>
<path d="M82.0081 113.649L81.511 115.451C81.4378 115.714 81.6348 115.974 81.9068 115.974H84.9869C84.9869 115.974 85.649 114.257 83.3868 113.649H82.0081Z" fill="#4E3654"/>
<path d="M89.4556 113.706H90.8362L92.4062 99.5902L94.4189 84.4769L91.6634 84.0609L89.6769 85.4708L89.373 99.9478L89.4556 113.706Z" fill="#29558B"/>
<path d="M82.062 113.706L83.2194 113.817L87.5094 99.6166L90.8614 85.6647L87.303 82.6755L84.4781 98.5041L84.4349 98.5361L82.062 113.706Z" fill="#29558B"/>
<path d="M90.4216 69.1134L90.6411 70.3313L88.6002 71.3289L87.6079 69.4729L90.4216 69.1134Z" fill="#FEAC84"/>
<path d="M89.4176 70.5929L93.882 69.1002C93.882 69.1002 95.4952 77.7778 94.3097 86.414L86.587 86.0827C86.587 86.0827 85.6078 76.782 83.9121 73.9171C83.9121 73.9171 86.4538 72.1553 88.6936 70.911C88.9243 70.7811 89.1681 70.6776 89.4176 70.5929Z" fill="#B1DDFF"/>
<path d="M103.226 58.0018C103.226 58.0018 104.905 56.5035 104.109 55.7223C103.314 54.9393 102.515 56.1082 102.515 56.1082C102.515 56.1082 102.717 55.7468 102.26 55.6301C101.802 55.5153 101.89 57.8983 101.89 57.8983L103.226 58.0018Z" fill="#FEAC84"/>
<path d="M93.4282 74.1637L100.339 65.9134C100.963 65.168 101.421 64.2946 101.678 63.3534L103.357 57.7854L101.909 57.2866L99.4664 63.9915L93.8803 69.0983L93.4282 74.1637Z" fill="#B1DDFF"/>
<path d="M80.9879 91.6994C80.9879 91.6994 80.2563 93.8302 81.333 94.122C82.4079 94.4119 82.5336 93.0001 82.5336 93.0001C82.5336 93.0001 82.5336 93.4161 82.9894 93.29C83.4452 93.1658 82.2034 91.131 82.2034 91.131L80.9879 91.6994Z" fill="#FEAC84"/>
<path d="M80.9824 91.754H82.4699L83.4566 80.7593L86.2065 75.9556C86.5704 75.3194 86.4485 74.5156 85.912 74.0187C85.0679 73.2375 83.7005 73.6027 83.3553 74.7001L81.1475 81.7344L80.9824 91.754Z" fill="#B1DDFF"/>
<path d="M90.3444 65.0587C91.0628 68.1551 90.6483 70.0544 89.0689 70.4139C88.3748 70.572 88.1703 70.333 87.6076 69.9433C86.8892 69.4483 85.8781 68.6087 85.6774 66.9542C85.3116 63.9443 89.8079 64.3377 89.8079 63.6187C89.8079 62.8996 90.3444 65.0587 90.3444 65.0587Z" fill="#4E3654"/>
<path d="M90.3238 66.4629C89.8886 65.4672 89.6616 66.6079 89.9936 67.3345C90.3238 68.061 90.5526 68.1232 90.5114 67.6657C90.5114 67.6657 90.5733 69.5142 90.2844 70.0318C90.2844 70.0318 91.8357 68.2474 90.4701 65.3411L90.3238 66.4629Z" fill="#FEAC84"/>
<path d="M265.587 163.473C270.784 163.473 274.998 162.757 274.998 161.875C274.998 160.992 270.784 160.276 265.587 160.276C260.389 160.276 256.176 160.992 256.176 161.875C256.176 162.757 260.389 163.473 265.587 163.473Z" fill="#E6E7E8"/>
<path d="M251.84 121.945L253.074 123.283L257.349 127.915C258.396 127.979 260.23 127.23 262.01 126.536L262.821 123.445L258.163 125.38L253.965 122.204L252.549 121.139L251.84 121.945Z" fill="#E8A39C"/>
<path d="M255.283 125.679L257.44 128.098C258.487 128.162 263.147 126.914 264.927 126.22L263.077 123.524L258.376 125.088L256.536 124.032C256.371 124.164 255.715 125.036 255.283 125.679Z" fill="#B1DDFF"/>
<path d="M252.548 121.137C252.496 120.836 252.436 120.556 252.323 120.399C252.243 120.337 252.155 120.377 252.061 120.535L252.004 120.761L251.622 120.22C251.519 120.092 251.074 120.096 250.896 120.339C250.836 120.636 250.851 121.09 250.986 121.365C251.147 121.694 251.605 121.82 251.839 121.943L252.548 121.137Z" fill="#E8A39C"/>
<path d="M269.357 160.036C269.451 160.273 269.353 160.721 269.228 161.199L271.447 160.57C271.156 160.299 270.942 160.028 270.867 159.761L269.357 160.036Z" fill="#051A2D"/>
<path d="M270.941 160.073L269.42 160.551L264.329 147.16C263.603 145.709 264.282 140.328 264.659 135.793L269.424 136.309C269.367 139.409 268.91 142.88 268.201 146.586L270.941 160.073Z" fill="#29558B"/>
<path d="M271.387 160.305C271.599 160.657 271.937 161.306 271.897 161.749C271.685 162.057 267.435 162.168 267.416 161.865C267.446 161.419 268.647 160.949 269.202 160.749C270.25 160.804 270.629 160.632 271.387 160.305Z" fill="#051A2D"/>
<path d="M262.191 123.5C261.542 123.234 261.079 122.656 260.681 121.962L259.301 122.922C259.775 123.641 260.068 124.367 260.012 125.103L262.191 123.5Z" fill="#E8A39C"/>
<path d="M261.647 122.809C261.79 123.11 258.822 123.289 258.511 122.916C258.259 122.617 257.884 118.844 258.886 118.061L260.111 118.044C261.72 118.024 262.913 119.573 262.367 120.973L261.647 122.809Z" fill="#E8A39C"/>
<path d="M261.171 160.314C261.248 160.672 261.037 161.078 260.786 161.493L263.225 161.349C263.08 160.992 262.799 160.689 262.795 160.376L261.171 160.314Z" fill="#051A2D"/>
<path d="M262.804 160.566L261.223 160.719L258.831 146.545C258.668 144.926 260.182 139.853 261.358 135.477L266.65 136.138C265.787 139.624 264.406 143.185 262.737 146.788L262.804 160.566Z" fill="#29558B"/>
<path d="M263.219 161.062C263.363 161.476 263.573 162.227 263.438 162.678C263.151 162.951 258.713 162.089 258.76 161.769C258.886 161.314 260.235 161.101 260.854 161.022C261.932 161.317 262.362 161.227 263.219 161.062Z" fill="#051A2D"/>
<path d="M269.85 137.007C269.484 138.396 262.782 140.418 260.904 139.767C260.688 136.177 258.608 132.333 257.34 127.063C258.083 125.34 261.771 122.957 263.532 123.522C265.563 123.946 268.827 133.316 269.85 137.007Z" fill="#B1DDFF"/>
<path d="M260.194 119.882C258.705 121.433 258.217 118.084 258.039 116.669C257.771 114.534 261.226 116.832 262.77 118.052C264.239 119.213 263.138 122.058 261.926 122.645C260.553 123.309 260.166 122.72 260.395 122.086C260.624 121.453 261.676 121.241 261.117 120.766C260.56 120.292 260.103 121.275 260.103 121.275L260.442 120.405C260.44 120.403 260.525 119.535 260.194 119.882Z" fill="#051A2D"/>
<path d="M223.364 117.231C228.862 121.9 237.082 121.203 241.736 115.694C246.388 110.176 245.701 101.926 240.203 97.2579C234.705 92.5897 226.483 93.2711 221.831 98.7958C217.179 104.307 217.866 112.565 223.364 117.231ZM224.054 100.684C227.669 96.3977 234.05 95.8631 238.322 99.4904C242.593 103.11 243.126 109.521 239.511 113.807C235.904 118.094 229.515 118.628 225.244 115.001C220.972 111.375 220.44 104.964 224.054 100.684Z" fill="#414042"/>
<path opacity="0.25" d="M224.043 111.225C223.731 108.862 224.382 106.376 226.041 104.416C229.16 100.708 234.667 100.247 238.355 103.385C239.327 104.209 240.073 105.199 240.593 106.284C240.313 104.204 239.299 102.208 237.569 100.748C233.881 97.6173 228.374 98.0785 225.255 101.779C222.964 104.499 222.598 108.207 224.043 111.225Z" fill="white"/>
<path d="M254.986 128.791L256.879 126.547C256.958 126.453 256.946 126.312 256.853 126.231L242.33 113.901L240.15 116.488L254.673 128.817C254.765 128.898 254.905 128.885 254.986 128.791Z" fill="#414042"/>
<path d="M256.866 131.138L259.495 128.019C259.606 127.887 259.589 127.691 259.46 127.58L245.071 115.364C245.033 115.332 244.979 115.338 244.949 115.373L242.032 118.835C242 118.873 242.005 118.927 242.041 118.957L256.43 131.174C256.56 131.285 256.755 131.268 256.866 131.138Z" fill="#F7B97B"/>
<path d="M247.981 123.838L248.961 125.386L252.354 130.743C253.373 131.003 255.308 130.609 257.18 130.259L258.465 126.765L253.599 128.401L250.026 124.491L248.82 123.178L247.981 123.838Z" fill="#E8A39C"/>
<path d="M250.715 128.158L252.412 130.94C253.431 131.2 258.231 130.846 260.105 130.496V126.246L253.862 128.156L252.238 126.773C252.05 126.871 251.251 127.607 250.715 128.158Z" fill="#B1DDFF"/>
<path d="M248.821 123.178C248.823 122.873 248.812 122.585 248.729 122.41C248.66 122.332 248.568 122.357 248.446 122.492L248.352 122.705L248.071 122.103C247.992 121.958 247.555 121.879 247.337 122.084C247.225 122.364 247.161 122.814 247.247 123.11C247.348 123.464 247.776 123.675 247.984 123.838L248.821 123.178Z" fill="#E8A39C"/>
</svg>
