<svg width="269" height="156" viewBox="0 0 269 156" fill="none" xmlns="http://www.w3.org/2000/svg">
<g clip-path="url(#clip0)">
<path opacity="0.1" d="M177.149 148.54H77.9617C74.5477 148.54 71.7787 145.775 71.7787 142.367V6.17254C71.7787 2.76428 74.5477 0 77.9617 0H177.149C180.564 0 183.332 2.76428 183.332 6.17254V142.367C183.332 145.775 180.564 148.54 177.149 148.54Z" fill="#376FFF"/>
<path d="M159.204 120.299C159.008 120.464 158.794 120.605 158.565 120.718C157.891 121.044 157.151 121.204 156.405 121.184C155.798 121.182 155.197 121.055 154.638 120.813C154.079 120.57 153.573 120.215 153.15 119.77C152.574 119.163 152.155 118.419 151.932 117.605C151.709 116.791 151.688 115.933 151.872 115.109L151.993 114.519L152.252 115.078C152.854 116.174 153.203 117.397 153.271 118.652C153.263 119.368 153.046 120.066 152.648 120.656C152.417 120.965 152.124 121.22 151.787 121.403C151.451 121.585 151.08 121.691 150.7 121.713C149.903 121.716 149.123 121.475 148.462 121.02C147.8 120.566 147.287 119.92 146.989 119.164C146.445 117.575 146.263 115.88 146.456 114.208V113.804L146.836 113.913C147.683 114.224 148.427 114.773 148.984 115.495C149.541 116.218 149.888 117.085 149.985 117.999C150.119 118.96 149.949 119.94 149.499 120.796C149.011 121.665 148.273 122.36 147.384 122.785C146.475 123.248 145.449 123.42 144.442 123.279C143.435 123.137 142.494 122.689 141.74 121.992C140.995 121.214 140.482 120.236 140.261 119.171C140.04 118.106 140.12 116.999 140.493 115.979C140.593 115.72 140.715 115.471 140.858 115.233C140.943 115.074 141.063 114.936 141.208 114.829C141.31 114.753 141.429 114.705 141.554 114.689C141.679 114.672 141.806 114.689 141.923 114.736C142.225 114.884 142.471 115.13 142.623 115.435C142.772 115.674 142.905 115.923 143.018 116.181C143.471 117.224 143.619 118.379 143.444 119.506C143.293 120.668 142.794 121.754 142.014 122.614C141.192 123.456 140.124 124.001 138.972 124.167C137.815 124.409 136.614 124.279 135.534 123.795C134.972 123.564 134.463 123.217 134.039 122.775C133.615 122.334 133.285 121.808 133.069 121.231C132.83 120.631 132.756 119.975 132.856 119.335C132.907 118.998 133.025 118.675 133.203 118.386C133.38 118.098 133.615 117.849 133.891 117.657C134.464 117.317 135.134 117.184 135.791 117.28C136.448 117.375 137.054 117.695 137.511 118.186C138.008 118.788 138.301 119.538 138.348 120.325C138.394 121.111 138.192 121.892 137.77 122.552C137.376 123.175 136.86 123.709 136.256 124.12C135.651 124.532 134.971 124.812 134.256 124.944C132.871 125.286 131.487 125.069 130.285 125.271C129.717 125.284 129.174 125.512 128.761 125.911C128.348 126.31 128.094 126.852 128.049 127.43C128.037 128.027 128.161 128.619 128.412 129.159C128.663 129.698 129.033 130.17 129.494 130.538C130.413 131.346 131.437 132.02 132.537 132.542C133.547 133.095 134.7 133.317 135.838 133.179C136.363 133.07 136.85 132.822 137.251 132.459C137.651 132.096 137.951 131.632 138.12 131.113C138.678 128.929 138.468 126.614 137.526 124.571C136.766 122.474 135.792 120.532 134.94 118.605C133.221 114.829 132.187 110.696 133.419 107.2L133.632 106.563L133.921 107.169C135.191 109.848 135.886 112.772 135.96 115.746C136.021 117.967 135.743 120.184 135.138 122.319C134.756 123.651 134.247 124.942 133.617 126.172C133.389 126.576 133.191 126.887 133.069 127.089C132.947 127.29 132.871 127.399 132.856 127.384C133.033 126.939 133.241 126.508 133.48 126.094C134.054 124.855 134.517 123.565 134.864 122.241C135.414 120.129 135.645 117.944 135.549 115.762C135.432 112.861 134.717 110.017 133.449 107.418H133.936C132.887 110.712 133.936 114.659 135.61 118.388C136.462 120.283 137.466 122.225 138.257 124.369C139.268 126.573 139.489 129.07 138.88 131.423C138.661 132.06 138.286 132.628 137.791 133.074C137.295 133.52 136.696 133.829 136.051 133.972C134.759 134.148 133.446 133.909 132.293 133.288C131.129 132.729 130.04 132.018 129.053 131.175C128.511 130.726 128.078 130.157 127.785 129.511C127.492 128.864 127.348 128.158 127.365 127.446C127.39 126.678 127.713 125.952 128.262 125.426C128.819 124.937 129.509 124.633 130.24 124.556C131.624 124.354 132.932 124.556 134.149 124.245C134.765 124.139 135.352 123.905 135.875 123.557C136.399 123.21 136.847 122.757 137.192 122.225C137.523 121.719 137.689 121.118 137.664 120.509C137.64 119.9 137.426 119.315 137.055 118.838C136.724 118.486 136.29 118.253 135.818 118.174C135.346 118.096 134.862 118.176 134.438 118.403C134.072 118.711 133.819 119.138 133.722 119.613C133.625 120.087 133.69 120.581 133.906 121.013C134.337 121.954 135.075 122.714 135.993 123.161C136.912 123.609 137.953 123.717 138.941 123.468C139.92 123.297 140.82 122.809 141.507 122.076C142.195 121.343 142.634 120.404 142.759 119.397C142.913 118.42 142.791 117.418 142.41 116.507C142.308 116.287 142.191 116.074 142.06 115.87C141.987 115.711 141.878 115.572 141.74 115.466C141.74 115.466 141.74 115.466 141.573 115.653C141.456 115.852 141.355 116.06 141.269 116.274C140.94 117.154 140.864 118.111 141.05 119.033C141.236 119.956 141.676 120.804 142.318 121.479C142.965 122.08 143.775 122.466 144.641 122.588C145.507 122.71 146.389 122.562 147.171 122.163C147.927 121.826 148.554 121.246 148.958 120.511C149.362 119.776 149.519 118.927 149.407 118.092C149.331 117.303 149.04 116.551 148.567 115.922C148.094 115.293 147.457 114.812 146.73 114.534L147.125 114.255C146.929 115.822 147.08 117.415 147.567 118.916C147.815 119.569 148.25 120.13 148.813 120.529C149.377 120.928 150.045 121.145 150.731 121.153C151.027 121.14 151.316 121.062 151.579 120.922C151.842 120.782 152.072 120.585 152.252 120.345C152.583 119.835 152.753 119.233 152.739 118.621C152.676 117.436 152.359 116.28 151.811 115.233H152.206C152.028 115.996 152.037 116.792 152.23 117.55C152.424 118.309 152.797 119.007 153.317 119.584C154.115 120.436 155.206 120.938 156.359 120.982C157.352 121.031 158.337 120.794 159.204 120.299Z" fill="#455A64"/>
<path d="M183.333 11.4133H71.7743V6.17254C71.7743 2.76428 74.5433 0 77.9573 0H177.145C180.559 0 183.328 2.76428 183.328 6.17254V11.4133H183.333Z" fill="#376FFF"/>
<path opacity="0.2" d="M117.564 21.4102H92C90.8954 21.4102 90 22.3056 90 23.4102V52.0909C90 53.1954 90.8954 54.0909 92 54.0909H117.564C118.668 54.0909 119.564 53.1954 119.564 52.0909V23.4102C119.564 22.3056 118.668 21.4102 117.564 21.4102Z" fill="#376FFF"/>
<path opacity="0.2" d="M154.5 63H94.5C92.0147 63 90 65.0147 90 67.5C90 69.9853 92.0147 72 94.5 72H154.5C156.985 72 159 69.9853 159 67.5C159 65.0147 156.985 63 154.5 63Z" fill="#376FFF"/>
<path opacity="0.2" d="M134.5 80H94.5C92.0147 80 90 82.0147 90 84.5C90 86.9853 92.0147 89 94.5 89H134.5C136.985 89 139 86.9853 139 84.5C139 82.0147 136.985 80 134.5 80Z" fill="#376FFF"/>
<path d="M260.083 141.754L261.075 142.582C261.075 142.582 261.11 142.586 261.167 142.669L261.18 142.691C261.439 142.937 262.093 143.576 262.378 144.168C262.457 144.325 262.501 144.479 262.51 144.623C262.576 145.425 266.437 141.714 266.437 141.714C266.437 141.714 266.091 141.649 265.665 141.43C265.353 141.281 264.594 140.532 263.515 139.401L260.083 141.754Z" fill="#EDB6A4"/>
<path d="M261.36 151.724L268.636 143.471C268.298 142.117 267.35 141.368 265.928 141.092C264.822 142.533 263.576 143.685 262.08 144.325C262.023 146.187 261.303 148.403 260.294 150.782C260.013 151.593 260.487 151.812 261.36 151.724Z" fill="#376FFF"/>
<path d="M268.66 143.457L261.375 151.723L261.731 152.035L269.016 143.77L268.66 143.457Z" fill="#A8CFEF"/>
<path d="M223.292 146.156L223.779 147.352C223.779 147.352 223.805 147.374 223.818 147.475L223.823 147.501C223.937 147.838 224.213 148.71 224.187 149.363C224.183 149.538 224.152 149.691 224.091 149.823C223.775 150.559 228.926 149.091 228.926 149.091C228.926 149.091 228.65 148.872 228.378 148.478C228.172 148.202 227.851 147.186 227.43 145.679L223.292 146.156Z" fill="#EDB6A4"/>
<path d="M219.737 155.557L230.037 151.672C230.375 150.318 229.887 149.21 228.76 148.303C227.11 149.061 225.468 149.494 223.84 149.359C222.915 150.975 221.238 152.6 219.228 154.23C218.61 154.813 218.926 155.229 219.737 155.557Z" fill="#376FFF"/>
<path d="M230.05 151.678L219.735 155.57L219.903 156.013L230.218 152.12L230.05 151.678Z" fill="#A8CFEF"/>
<path d="M222.103 59.2811L217.368 62.9742L208.315 42.9014L204.559 45.6394C208.332 54.195 211.843 64.9192 214.608 66.987C216.486 67.666 219.988 68.9934 223.731 69.265L222.103 59.2811Z" fill="#2861F3"/>
<path d="M264.634 139.598L264.103 140.019L260.934 142.468L260.43 142.857L243.509 122.548C242.135 121.317 238.686 113.029 235.799 106.677C233.92 110.667 230.318 116.069 224.876 121.067C226.25 125.128 227.022 136.562 228.172 147.116L227.865 147.186L223.981 147.996L223.573 148.079C221.19 138.507 216.955 126.075 216.49 120.743C216.407 118.505 222.84 104.074 227.426 93.0829C227.733 92.3426 228.044 91.5979 228.338 90.8838L245.303 93.1925L247.392 93.4728C247.476 93.7269 247.559 93.9766 247.629 94.2439C247.923 95.2076 248.178 96.3028 248.388 97.5207C249.301 102.616 249.749 109.726 250.42 117.423C253.501 120.406 259.056 130.749 264.634 139.598Z" fill="#E6E9F8"/>
<path d="M255.704 31.5377L235.386 48.3643L234.333 49.2317C234.166 49.3719 233.995 49.512 233.841 49.6391V49.6522C233.828 49.6522 233.815 49.6654 233.797 49.6785L233.319 50.0684C233.306 50.0684 233.306 50.0684 233.306 50.0684L233.293 50.0947C232.972 50.3619 232.661 50.6116 232.367 50.8526L229.001 53.6387V53.6519L222.651 58.9001C222.638 58.9132 222.625 58.9132 222.607 58.9264L222.103 59.3469V59.3601L213.818 66.2029L210.816 68.6955L206.331 72.4192L187.194 88.2645L186.716 88.6544L163.287 94.5466L173.424 72.6558L173.885 72.2659L204.589 46.8485L204.94 46.555L208.587 43.5323L209.513 42.7744L242.407 15.5215C245.562 17.0066 248.45 19.1882 250.819 22.0576C253.207 24.9183 254.835 28.1644 255.704 31.5377Z" fill="#CCE9F1"/>
<path d="M250.828 22.0577C253.207 24.9183 254.826 28.1601 255.708 31.5289L257.481 30.0614L260.368 27.6695C263.243 25.2863 263.629 21.0282 261.246 18.1588L256.581 12.547C254.194 9.67756 249.942 9.27891 247.063 11.6621L244.176 14.054L242.403 15.5215C245.562 17.011 248.454 19.2014 250.828 22.0577Z" fill="#376FFF"/>
<path d="M187.198 88.2692V88.2823L186.72 88.6591L163.291 94.5512L173.428 72.6604L173.889 72.2705C177.044 73.7556 179.932 75.9504 182.314 78.8067C184.688 81.6629 186.312 84.896 187.198 88.2692Z" fill="#376FFF"/>
<path d="M248.046 94.1345C247.919 94.1783 247.778 94.2177 247.625 94.2484C247.094 94.3885 246.462 94.4849 245.76 94.555C241.398 95.0325 234.236 94.371 227.421 93.0831C227.307 93.0568 227.184 93.0393 227.07 93.013C227.772 85.3553 226.873 79.8136 225.403 75.2927C224.815 73.4746 224.196 71.6391 223.634 69.567C223.608 69.4531 223.577 69.3567 223.551 69.2472C222.836 66.5311 222.287 63.4251 222.107 59.4079V59.2809C222.274 59.167 222.445 59.0574 222.612 58.9304C224.24 57.8527 225.837 56.889 227.395 56.0741C230.225 54.6066 232.946 53.6384 235.443 53.3318C237.097 53.1215 238.668 53.2047 240.112 53.6253C240.757 53.8487 241.332 54.1291 241.824 54.4664C243.869 55.7981 244.628 57.8659 245.189 60.5119C245.303 61.0157 245.4 61.5457 245.497 62.0933C245.637 62.7943 245.764 63.5346 245.918 64.3056C247.612 73.0278 248.538 85.4254 248.046 94.1345Z" fill="#376FFF"/>
<path d="M206.279 68.4768L205.792 72.3188H204.12C203.979 72.6429 202.206 72.8883 201.675 72.9277C201.368 72.9277 199.556 71.2411 199.17 70.7942C198.762 70.1021 198.292 68.9631 198.577 68.3322C200.104 68.3103 201.653 68.2928 202.408 68.0081C201.921 67.2765 201.566 66.9304 201.421 66.4003C201.706 66.1375 202.053 66.0542 202.439 66.1375C203.435 66.6062 204.137 67.1932 204.831 68.3541L206.279 68.4768Z" fill="#EDB6A4"/>
<path d="M245.497 62.0942C242.271 65.8442 238.796 69.9315 234.899 72.9279V72.9411C233.635 73.9224 232.319 74.7898 230.958 75.5038C229.765 75.6703 227.847 75.5608 225.407 75.2936C219.588 74.6496 214.3 73.4755 206.34 72.4241C206.086 72.3803 205.822 72.3409 205.555 72.3102C205.528 72.3102 205.484 72.2971 205.458 72.2971L205.936 68.4464L205.95 68.3763L210.829 68.6961L223.643 69.5635L228.65 69.7738C233.363 63.2245 238.449 57.0213 241.828 54.4629C243.873 55.7947 244.632 57.8624 245.194 60.5084C245.299 61.0166 245.396 61.551 245.497 62.0942Z" fill="#2861F3"/>
<path d="M229.01 51.7985C229.256 53.3012 229.067 54.7556 227.364 56.0567C229.137 57.4673 232.463 56.8671 235.531 53.4501C234.521 52.1052 233.372 50.8523 233.982 48.9072L229.01 51.7985Z" fill="#E0A494"/>
<path d="M222.414 41.7663C223.296 48.7449 227.193 52.9855 228.562 52.9855C230.164 52.8322 231.788 51.3559 234.894 48.7537L234.039 41.2144L228.031 36.2334L222.414 41.7663Z" fill="#EDB6A4"/>
<path d="M227.465 41.8015C226.219 43.97 224.753 45.4069 222.884 45.5603C221.392 45.385 220.33 44.6491 219.891 43.1158C219.904 40.3559 219.817 39.5717 222.612 37.2762C224.916 37.8588 228.216 36.089 230.366 35.4669C232.029 35.1208 234.416 37.5303 235.412 39.9047C236.382 41.2496 235.412 48.2326 235.412 48.2326C235.338 48.8327 234.89 49.9717 232.959 50.1207C231.946 49.7702 231.151 48.5918 231.002 46.6073C231.581 45.5646 232.038 44.522 232.069 43.4969C231.761 42.5244 231.178 42.152 230.34 42.336C229.554 42.9668 229.519 44.0708 229.598 45.2492L228.654 45.7486C228.457 44.1584 228.299 42.52 227.465 41.8015Z" fill="#100C25"/>
<path d="M207.933 42.9056C208.999 42.6822 209.671 42.6778 210.386 43.0239C210.706 43.3656 210.333 43.773 209.925 43.8168L209.039 43.7555C209.377 44.3469 209.697 44.6229 210.487 45.1486C210.614 46.0379 209.425 46.8483 207.938 47.4134C207.143 47.7069 205.528 47.3433 204.796 46.9972C204.317 46.7037 204.238 46.5373 204.304 46.0466C204.624 44.9208 206.779 43.129 207.933 42.9056Z" fill="#EDB6A4"/>
<path opacity="0.05" d="M248.384 97.5217C247.739 97.0748 247.107 96.5579 246.576 95.9972C246.282 95.6774 246.001 95.1867 245.764 94.5559C245.597 94.1485 245.444 93.6885 245.303 93.1978C244.268 89.6275 243.706 84.2698 243.188 83.4155C242.486 82.2677 242.727 78.3776 242.135 77.3262C241.547 76.2748 234.899 72.9454 234.899 72.9454V72.9323L236.878 70.2162C236.878 70.2162 240.494 65.7784 240.564 65.0249C240.634 64.2671 243.535 62.5191 243.886 62.4096C244.123 62.3264 244.781 61.2049 245.189 60.5215C245.303 61.0253 245.4 61.5554 245.496 62.103C245.637 62.8039 245.764 63.5442 245.918 64.3153C247.616 73.0374 248.538 85.4351 248.05 94.1441C247.923 94.1879 247.783 94.2273 247.629 94.258C247.923 95.213 248.173 96.3038 248.384 97.5217Z" fill="black"/>
<path d="M47.7705 145.955L47.6608 147.309C47.6608 147.309 47.6388 147.339 47.6608 147.44L47.6652 147.466C47.6564 147.843 47.6564 148.803 47.889 149.451C47.9504 149.626 48.0294 149.771 48.1347 149.885C48.6876 150.524 43.0531 150.682 43.0531 150.682C43.0531 150.682 43.2593 150.375 43.4085 149.893C43.527 149.552 43.527 148.43 43.4744 146.787L47.7705 145.955Z" fill="#EDB6A4"/>
<path d="M54.3222 154.265L42.7503 153.621C41.9824 152.368 42.1184 151.107 42.961 149.836C44.8567 150.073 46.6427 149.99 48.2313 149.337C49.6706 150.664 51.8735 151.764 54.4055 152.763C55.213 153.161 55.0331 153.678 54.3222 154.265Z" fill="#C7D7FF"/>
<path d="M42.7092 154.108L54.2987 154.752L54.3263 154.258L42.7368 153.613L42.7092 154.108Z" fill="#C7D7FF"/>
<path d="M20.1772 144.69L19.4707 145.855C19.4707 145.855 19.44 145.872 19.4093 145.973L19.4005 146C19.225 146.332 18.7949 147.191 18.7159 147.875C18.6896 148.058 18.6984 148.225 18.7422 148.37C18.9485 149.189 13.8362 146.814 13.8362 146.814C13.8362 146.814 14.1609 146.63 14.5076 146.267C14.7709 146.013 15.2668 145.009 15.9557 143.516L20.1772 144.69Z" fill="#EDB6A4"/>
<path d="M22.323 155.046L12.2563 149.312C12.129 147.849 12.818 146.78 14.1389 146.018C15.7318 147.073 17.3642 147.796 19.0757 147.923C19.769 149.754 21.2478 151.721 23.0646 153.741C23.6175 154.455 23.2182 154.84 22.323 155.046Z" fill="#C7D7FF"/>
<path d="M11.9881 149.742L22.0687 155.484L22.3145 155.054L12.2339 149.312L11.9881 149.742Z" fill="#A8CFEF"/>
<path d="M30.6783 54.4717L21.0154 72.3628L19.4927 93.9645L24.3022 92.4269L26.2989 77.2036L28.8002 70.0279L30.6783 54.4717Z" fill="#EDB6A4"/>
<path d="M43.1453 147.664L48.5121 147.668L49.6881 114.668L47.1342 89.5439L33.9211 91.086C34.3029 95.8917 38.3269 107.067 41.8068 117.283L43.1453 147.664Z" fill="#393768"/>
<path d="M15.1 144.352L19.6725 146.573L35.4088 114.825L39.5294 89.1584L26.3953 88.751C25.5747 94.135 26.1101 104.084 26.7025 114.217L15.1 144.352Z" fill="#393768"/>
<path d="M73.1654 46.0118C66.7586 53.135 58.1488 64.0125 55.7353 64.8361C54.7391 64.5294 52.9751 62.8647 51.0091 61.1124C50.0569 60.2713 49.0607 59.417 48.0778 58.6767L50.4606 51.663L56.5471 57.415L71.3794 43.8652L72.4019 45.0962L73.1654 46.0118Z" fill="#EDB6A4"/>
<path d="M75.14 44.9475C74.552 45.5477 73.9771 46.0383 73.1609 46.0121L72.4017 45.1008L71.3793 43.8698C71.4495 43.4931 71.4495 42.7352 71.8839 42.2183L71.998 41.2107C72.0551 40.6368 72.292 40.3433 72.8274 40.3565C73.1477 40.8033 72.8142 41.7014 74.0034 41.9116L74.7889 39.1123C75.4077 39.6424 75.5481 40.9041 75.6315 41.8415C75.8684 43.0463 75.7149 43.9399 75.14 44.9475Z" fill="#EDB6A4"/>
<path d="M24.4558 92.6103C25.4256 91.6597 24.8946 90.7003 24.2452 89.995C22.3889 89.5437 21.5025 89.6401 19.2864 90.9062C19.0714 92.2554 18.4746 93.4996 19.4927 93.964C21.09 94.1961 22.74 93.263 24.4558 92.6103Z" fill="#EDB6A4"/>
<path d="M51.8647 61.8836C51.6541 62.1508 51.4873 62.3041 51.3601 62.3173L50.1665 61.4893C50.1533 61.5726 50.1533 61.6733 50.1401 61.7565V61.7697C50.0699 62.694 49.9866 63.5614 49.8725 64.4157C49.5346 67.4691 49.1001 70.1545 48.7227 72.7567C48.6525 73.2167 48.5823 73.6942 48.5253 74.1586C48.047 77.5318 47.7266 80.8086 47.867 84.6418C47.9504 86.9811 48.2181 89.5264 48.7359 92.4221L46.8007 92.2688L27.409 90.7705L25.9784 90.6566C26.0355 89.119 26.075 87.6032 26.1188 86.1225C26.1452 85.001 26.1759 83.8971 26.2022 82.8194C26.3295 78.6883 26.4831 74.8551 26.7508 71.3417C26.8648 69.677 27.0184 68.0824 27.2115 66.5667C26.2461 66.0629 25.3597 65.3357 24.5479 64.4113C24.5479 64.4113 30.0025 55.0057 30.6739 54.2917C36.4663 50.8615 43.3471 49.4202 50.4693 51.6457V51.6588L54.8707 55.2686C55.1735 55.5183 51.8647 61.8836 51.8647 61.8836Z" fill="#376FFF"/>
<path d="M38.1119 47.6894C37.8442 49.8009 38.3664 49.9104 37.0763 51.5138C39.6303 51.746 43.4875 52.1096 44.6285 50.6114C43.549 49.3716 43.5183 47.9873 43.176 46.1035L38.1119 47.6894Z" fill="#E0A494"/>
<path d="M38.248 48.982C41.2101 48.9075 44.0975 48.8067 45.3394 47.6458C46.0591 46.2089 46.239 39.0332 44.9138 37.0574L36.9666 36.0674L34.5399 42.459L38.248 48.982Z" fill="#EDB6A4"/>
<path d="M41.1091 40.7024C43.0619 40.4877 44.7338 39.9577 45.8967 38.8625C46.7261 38.0739 46.8182 37.1058 46.5944 36.0588C44.883 33.9954 42.1228 33.7063 39.2441 33.623C37.4362 33.7063 35.852 34.2583 34.5399 35.3797C32.6398 36.8473 32.1878 39.0552 32.337 41.5742C32.8197 45.9287 37.423 49.1924 39.2397 49.4859C40.2315 48.1497 40.7668 46.8267 40.3192 45.53C39.3845 45.254 38.6034 44.6495 38.463 43.8741C38.5025 43.1469 38.6605 42.6562 39.2002 42.2444C39.8409 41.9334 40.6308 42.7658 41.3154 43.6113L41.9253 43.033C41.4865 42.2357 41.0389 41.434 41.1091 40.7024Z" fill="#100C25"/>
<path opacity="0.05" d="M27.2115 66.5798L28.7036 62.1289C28.7036 62.1289 27.997 68.7264 27.9575 70.6977C27.9181 72.6647 28.0497 75.1574 28.1813 76.0335C28.313 76.9097 28.9668 81.0145 28.7036 82.4383C28.4403 83.862 28.0058 86.5299 28.313 87.8442C28.6202 89.1584 27.9883 90.8275 27.9883 90.8275C27.9575 90.6347 25.0481 91.4452 25.0832 91.4715C25.3421 91.6555 24.1573 87.6383 24.5479 86.6044C24.9384 85.5705 25.0832 80.6246 24.9867 79.3586C24.8902 78.0881 25.2851 72.5026 25.6362 71.5126C25.9872 70.5181 27.2115 66.5798 27.2115 66.5798Z" fill="black"/>
<path opacity="0.05" d="M50.5746 64.2094C50.3508 65.4404 49.6355 67.8893 49.3986 69.2211C49.245 70.0753 49.0475 71.4597 48.8676 72.7213C48.7974 73.2689 48.7272 73.7727 48.6701 74.2064C48.5999 74.7672 48.5428 75.2009 48.5297 75.4111C48.4595 76.169 48.2927 80.4228 48.3454 82.1137C48.3585 82.5343 48.4419 83.3754 48.5823 84.4356L47.8671 84.6458C47.9504 86.9852 48.2181 89.5304 48.7359 92.4261L46.8007 92.2728C46.5769 91.826 46.2829 91.2784 45.945 90.9148C45.3965 90.2971 44.7382 87.2743 44.7119 85.5833C44.6987 85.3161 44.6987 85.0927 44.7251 84.9131C44.8918 83.5112 46.182 77.216 46.239 75.5207C46.2961 73.8253 47.2922 70.8595 47.753 69.4051C48.0206 68.5946 48.1874 66.6495 48.2839 64.8972C48.3673 63.4822 48.398 62.2118 48.398 61.7606C48.398 60.8231 47.8363 58.9744 47.7661 58.751C48.1567 59.4782 50.1358 61.7606 50.1358 61.7606V61.7737C50.0656 62.6981 49.9822 63.5655 49.8681 64.4197L50.5746 64.2094Z" fill="black"/>
<path opacity="0.05" d="M75.14 44.9468C74.5652 45.5339 73.9903 46.0245 73.2048 46.0114H73.1609C73.1478 46.0245 73.1346 46.0376 73.1171 46.0552C72.6826 46.5458 72.235 47.0627 71.7699 47.5797C65.5605 54.6328 57.9732 64.069 55.7308 64.84C54.8751 64.5728 53.4752 63.3286 51.8604 61.8873V61.8742C51.9744 61.7472 52.0842 61.5938 52.1982 61.4142C52.3957 61.4975 52.5888 61.5982 52.7599 61.7384C53.7254 62.5226 55.7308 62.3561 57.0517 61.7384C58.3681 61.1207 63.4453 55.0884 64.4985 54.3611C65.5517 53.6339 70.0233 48.1755 70.6245 46.8437C71.0151 45.9632 71.6777 45.4725 72.4062 45.1089C72.7835 44.9118 73.1653 44.7585 73.5559 44.592C74.7319 44.0882 75.6315 41.8496 75.6315 41.8496C75.8685 43.0456 75.7149 43.9392 75.14 44.9468Z" fill="black"/>
<path opacity="0.05" d="M75.1401 44.9473L71.7743 54.7734V47.5801C72.2351 47.0632 72.6871 46.5463 73.1215 46.0556L73.2049 46.0118C73.9904 46.0249 74.5652 45.5343 75.1401 44.9473Z" fill="black"/>
</g>
<defs>
<clipPath id="clip0">
<rect width="269" height="156" fill="white"/>
</clipPath>
</defs>
</svg>
