<svg width="226" height="232" viewBox="0 0 226 232" fill="none" xmlns="http://www.w3.org/2000/svg">
<path opacity="0.1" d="M79.9243 166.628L139.876 201.303C143.266 203.264 148.759 203.264 152.149 201.303L212.096 166.632C215.486 164.672 215.486 161.497 212.096 159.536L152.197 124.933C148.808 122.972 143.309 122.972 139.92 124.928L79.9292 159.536C76.5348 161.492 76.5348 164.672 79.9243 166.628Z" fill="#1C90E9"/>
<path opacity="0.1" d="M6.3788 164.416L38.9066 183.233C40.7458 184.298 43.7261 184.298 45.5653 183.233L78.0931 164.421C79.9323 163.356 79.9323 161.632 78.0931 160.572L45.5941 141.798C43.7549 140.734 40.7747 140.734 38.9307 141.798L6.38361 160.577C4.5396 161.632 4.5396 163.351 6.3788 164.416Z" fill="#1C90E9"/>
<path d="M70.2664 231.258L69.992 231.099L0.169922 190.378L32.534 171.421L32.9722 154.825C32.9818 154.527 33.2321 154.276 33.5306 154.295C33.8292 154.305 34.0699 154.556 34.0603 154.854L33.6077 172.057L33.3477 172.211L2.3317 190.378L70.2761 230.001L194.571 158.636V132.058L190.228 129.606C189.968 129.457 189.872 129.125 190.021 128.864C190.171 128.604 190.503 128.513 190.763 128.657L195.659 131.422V159.267L195.385 159.426L70.2664 231.258Z" fill="url(#paint0_linear)"/>
<path d="M70.2664 231.258L69.992 231.099L0.169922 190.378L32.534 171.421L32.9722 154.825C32.9818 154.527 33.2321 154.276 33.5306 154.295C33.8292 154.305 34.0699 154.556 34.0603 154.854L33.6077 172.057L33.3477 172.211L2.3317 190.378L70.2761 230.001L194.571 158.636V132.058L190.228 129.606C189.968 129.457 189.872 129.125 190.021 128.864C190.171 128.604 190.503 128.513 190.763 128.657L195.659 131.422V159.267L195.385 159.426L70.2664 231.258Z" fill="url(#paint1_linear)"/>
<path d="M222.91 45.3789V96.4577C222.91 97.1514 222.515 97.7006 221.981 97.9848V97.9896L221.904 98.0282L220.589 98.6689C220.782 98.5436 220.946 98.3799 221.071 98.1823C221.076 98.1823 221.076 98.1823 221.076 98.1823C221.254 97.9126 221.36 97.5898 221.36 97.2333V46.1497C221.36 44.7527 220.614 43.4616 219.4 42.7583L147.546 1.2516L147.089 0.986645C146.896 0.875845 146.699 0.813219 146.497 0.789132C146.227 0.75541 145.962 0.793949 145.717 0.895115L147.127 0.182141L147.176 0.158054C147.614 -0.0539116 148.153 -0.0683637 148.639 0.211045L220.955 41.9875C222.164 42.686 222.91 43.977 222.91 45.3789Z" fill="#1C90E9"/>
<path d="M221.36 46.1492V97.228C221.36 97.5893 221.254 97.9121 221.076 98.1819C220.951 98.3746 220.787 98.5384 220.594 98.6636L220.58 98.6732C220.069 99.0153 219.381 99.0779 218.774 98.7262L216.641 97.493L146.839 57.1666C145.543 56.4151 144.749 55.0325 144.749 53.5439V2.33987C144.749 2.12791 144.792 1.92558 144.865 1.74252C145.019 1.36676 145.312 1.08254 145.664 0.923562L145.722 0.894657C145.967 0.79831 146.232 0.754953 146.502 0.788675C146.699 0.812762 146.901 0.880205 147.094 0.986188L147.546 1.25114L219.405 42.7626C220.614 43.4611 221.36 44.7522 221.36 46.1492Z" fill="#F3F6FF"/>
<path d="M151.884 74.6641L130.984 98.804L179.742 126.986L200.637 102.827L151.884 74.6641Z" fill="#F3F6FF"/>
<path d="M130.984 98.8037V134.582L179.742 163.179V126.985L130.984 98.8037Z" fill="#1C90E9"/>
<path d="M200.637 102.826L200.642 151.111L179.742 163.178V126.985L200.637 102.826Z" fill="#56B5FD"/>
<path d="M148.634 99.6565C148.61 99.6565 148.581 99.6517 148.557 99.6373C148.466 99.5939 148.427 99.4879 148.47 99.3964C149.13 98.0042 150.223 96.5686 151.812 95.0174L152.12 94.7187C152.962 93.8998 153.839 93.0567 154.445 91.9873C155.307 90.4746 155.384 88.7355 154.633 87.5552C154.142 86.7796 153.372 86.3943 152.467 86.4713C152.375 86.4762 152.279 86.4039 152.269 86.3075C152.26 86.2064 152.337 86.1197 152.433 86.11C153.463 86.0233 154.373 86.481 154.932 87.3626C155.755 88.6536 155.683 90.5372 154.754 92.1703C154.118 93.2831 153.227 94.1454 152.365 94.9837L152.057 95.2823C150.497 96.8046 149.429 98.2017 148.788 99.5554C148.769 99.6228 148.702 99.6565 148.634 99.6565Z" fill="#F2994A"/>
<path d="M142.578 100.707C142.554 100.707 142.53 100.702 142.506 100.693C142.414 100.654 142.371 100.548 142.41 100.452C142.578 99.8498 144.201 94.3772 147.311 89.9741C149.304 87.1511 151.028 86.5104 151.1 86.4863C151.191 86.4526 151.297 86.5008 151.331 86.5971C151.365 86.6935 151.317 86.7946 151.22 86.8284C151.206 86.8332 149.526 87.4691 147.605 90.1861C144.528 94.5362 142.925 99.9557 142.751 100.563L142.742 100.601C142.718 100.664 142.65 100.707 142.578 100.707Z" fill="#F2994A"/>
<path d="M153.772 94.7764C153.719 94.7764 153.666 94.7523 153.627 94.7089C153.564 94.6318 153.579 94.5162 153.656 94.4536C154.499 93.7936 156.501 92.0015 156.867 89.6169C157.122 87.9549 156.655 86.0039 155.269 85.4788C155.177 85.4451 155.129 85.3391 155.163 85.2427C155.197 85.1512 155.303 85.103 155.399 85.1368C156.805 85.6667 157.556 87.531 157.224 89.6699C156.834 92.1846 154.754 94.0538 153.877 94.7378C153.853 94.7619 153.815 94.7764 153.772 94.7764Z" fill="#F2994A"/>
<path d="M143.94 100.909C143.925 100.909 143.911 100.909 143.892 100.904C143.796 100.88 143.738 100.779 143.762 100.682C143.767 100.653 144.508 97.8835 146.602 93.8465C148.336 90.4984 150.637 88.0801 152.192 87.9693C152.707 87.9308 153.141 88.1427 153.454 88.5715C154.32 89.7758 153.719 91.4764 152.871 92.6663C152.438 93.2733 151.961 93.702 151.451 94.1548C151.282 94.309 151.109 94.4583 150.94 94.6221C150.146 95.3736 149.477 96.1781 148.947 97.0019C148.355 97.9317 147.883 98.7892 147.503 99.637C147.459 99.7286 147.354 99.7671 147.262 99.7286C147.171 99.6852 147.132 99.5792 147.171 99.4877C147.561 98.6254 148.037 97.7486 148.639 96.8044C149.183 95.9517 149.872 95.1279 150.685 94.3572C150.859 94.1934 151.032 94.0344 151.205 93.8802C151.696 93.437 152.163 93.0227 152.573 92.4495C153.314 91.4089 153.911 89.824 153.16 88.7786C152.919 88.4462 152.611 88.2969 152.221 88.3258C150.81 88.427 148.581 90.8212 146.93 94.0103C144.86 98.0087 144.123 100.745 144.118 100.769C144.094 100.856 144.022 100.909 143.94 100.909Z" fill="#F2994A"/>
<path d="M144.773 100.953C144.749 100.953 144.725 100.948 144.705 100.939C144.614 100.9 144.566 100.794 144.604 100.703C145.013 99.7005 145.442 98.6744 145.885 97.6483C145.981 97.4219 146.077 97.1907 146.179 96.9595C146.732 95.6491 147.3 94.2954 148.119 93.12C148.798 92.1469 149.64 91.2364 150.7 90.3355C150.791 90.2585 151.61 89.5792 152.149 89.7671C152.279 89.8104 152.442 89.9261 152.495 90.2151C152.597 90.7306 152.178 91.4435 151.918 91.8193C151.518 92.407 151.013 92.8165 150.521 93.2163C150.377 93.332 150.233 93.4524 150.093 93.5728C149.255 94.2954 148.663 95.3456 148.095 96.3621L147.97 96.5837C147.353 97.6821 146.761 98.8671 146.155 100.216C146.116 100.308 146.005 100.351 145.914 100.308C145.822 100.269 145.779 100.158 145.822 100.067C146.429 98.7082 147.026 97.5086 147.652 96.4006L147.777 96.179C148.364 95.1337 148.971 94.0546 149.857 93.2934C150.001 93.1682 150.151 93.0477 150.295 92.9273C150.786 92.5275 151.248 92.1469 151.619 91.6073C152 91.0533 152.192 90.5571 152.139 90.2777C152.11 90.1332 152.048 90.1139 152.028 90.1043C151.807 90.0272 151.292 90.3018 150.935 90.6053C149.9 91.4869 149.077 92.3733 148.417 93.3175C147.618 94.4592 147.055 95.7985 146.511 97.0895C146.414 97.3208 146.318 97.552 146.217 97.7784C145.779 98.8045 145.346 99.8306 144.941 100.828C144.912 100.91 144.84 100.953 144.773 100.953Z" fill="#F2994A"/>
<path d="M156.675 93.071C156.632 93.071 156.584 93.0566 156.55 93.0228C156.478 92.9554 156.473 92.8398 156.54 92.7675C156.569 92.7386 159.453 89.6169 158.187 86.3026C157.229 83.7879 155.197 83.4121 155.178 83.4073C155.077 83.388 155.014 83.2965 155.028 83.1953C155.048 83.0942 155.139 83.0316 155.24 83.046C155.332 83.0605 157.494 83.4651 158.529 86.1677C159.877 89.6988 156.839 92.9795 156.805 93.0132C156.771 93.0517 156.723 93.071 156.675 93.071Z" fill="#F2994A"/>
<path d="M157.638 83.1235C157.59 83.1235 157.537 83.1042 157.503 83.0609C157.499 83.0561 156.849 82.3383 156.088 82.0107C155.327 81.6831 154.677 81.7168 154.672 81.7168C154.562 81.7265 154.485 81.6446 154.48 81.5482C154.475 81.447 154.552 81.3603 154.648 81.3555C154.677 81.3507 155.394 81.317 156.227 81.6783C157.06 82.0396 157.739 82.7911 157.768 82.82C157.836 82.8923 157.831 83.0079 157.754 83.0753C157.725 83.109 157.681 83.1235 157.638 83.1235Z" fill="#F2994A"/>
<path d="M158.457 92.387C158.423 92.387 158.389 92.3774 158.356 92.3581C158.274 92.3051 158.25 92.1895 158.303 92.1076C159.184 90.7684 159.718 89.1979 159.814 87.6805C159.901 86.2641 159.405 84.8815 158.447 83.8795C158.38 83.8073 158.38 83.6917 158.452 83.6242C158.524 83.5568 158.64 83.5568 158.707 83.629C159.733 84.7033 160.267 86.1871 160.175 87.7045C160.074 89.2798 159.516 90.9177 158.606 92.3051C158.577 92.3581 158.519 92.387 158.457 92.387Z" fill="#F2994A"/>
<path d="M155.875 95.0948C155.818 95.0948 155.76 95.0659 155.726 95.0178C155.668 94.9359 155.688 94.8202 155.77 94.7624C155.774 94.7576 156.314 94.377 156.713 93.982C157.118 93.5822 157.792 92.7536 157.796 92.744C157.859 92.6669 157.975 92.6524 158.052 92.7199C158.129 92.7825 158.138 92.8981 158.076 92.9752C158.047 93.0089 157.382 93.8279 156.964 94.2373C156.545 94.6565 155.996 95.0418 155.972 95.0563C155.948 95.0852 155.914 95.0948 155.875 95.0948Z" fill="#F2994A"/>
<path d="M150.825 100.109C150.791 100.109 150.762 100.1 150.729 100.085C150.642 100.032 150.618 99.9213 150.666 99.8346C151.143 99.0542 151.634 98.2449 152.221 97.5271C152.655 97.002 153.097 96.5732 153.545 96.2601C153.719 96.1348 153.897 96.0337 154.07 95.9277C154.359 95.7591 154.629 95.5953 154.889 95.3592C154.961 95.2918 155.076 95.2966 155.144 95.3689C155.211 95.4411 155.206 95.5567 155.134 95.6242C154.845 95.8843 154.547 96.0674 154.258 96.236C154.089 96.3372 153.921 96.4383 153.752 96.5539C153.333 96.8478 152.91 97.2525 152.5 97.7535C151.927 98.452 151.441 99.2517 150.974 100.022C150.945 100.08 150.883 100.109 150.825 100.109Z" fill="#F2994A"/>
<path d="M149.795 99.6187C149.766 99.6187 149.732 99.609 149.703 99.5946C149.617 99.5464 149.588 99.4308 149.636 99.3441C149.684 99.2622 150.83 97.2967 151.663 96.4295C152.193 95.8804 152.838 95.2589 152.843 95.2541C152.915 95.1867 153.03 95.1867 153.098 95.2589C153.165 95.3312 153.165 95.4468 153.093 95.5142C153.088 95.5191 152.448 96.1357 151.923 96.68C151.119 97.5183 149.959 99.5079 149.949 99.5271C149.92 99.5849 149.857 99.6187 149.795 99.6187Z" fill="#F2994A"/>
<path d="M149.251 84.7322C149.203 84.7322 149.155 84.713 149.121 84.6744C149.054 84.6022 149.054 84.4866 149.126 84.4191C149.189 84.3613 150.672 82.9546 152.02 82.6078C153.483 82.232 154.225 82.7138 154.259 82.733C154.34 82.7908 154.364 82.9016 154.307 82.9835C154.249 83.0654 154.138 83.0895 154.056 83.0317C154.042 83.0221 153.397 82.6222 152.111 82.9546C150.859 83.2774 149.396 84.66 149.381 84.6744C149.343 84.7178 149.295 84.7322 149.251 84.7322Z" fill="#F2994A"/>
<path d="M143.661 94.6902C143.637 94.6902 143.613 94.6854 143.589 94.6757C143.497 94.6372 143.454 94.5312 143.493 94.4349C143.512 94.3963 145.231 90.4316 147.917 87.204C150.57 84.0197 153.05 83.5524 154.234 84.4677C154.311 84.5303 154.33 84.6411 154.268 84.723C154.205 84.8049 154.094 84.8193 154.013 84.7567C152.963 83.9474 150.695 84.4436 148.196 87.44C145.544 90.6243 143.844 94.5408 143.825 94.5794C143.801 94.6516 143.733 94.6902 143.661 94.6902Z" fill="#F2994A"/>
<path d="M165.703 93.7215L176.362 99.8829C177.022 100.264 177.152 101.164 176.622 101.714L169.415 109.219C169.01 109.638 168.375 109.73 167.869 109.441L157.537 103.467C156.853 103.072 156.704 102.152 157.229 101.564L163.969 94.0057C164.412 93.5047 165.134 93.3891 165.703 93.7215Z" fill="#D4DFFC"/>
<path d="M183.628 103.905L181.972 105.779L187.817 109.185L189.458 107.273L183.628 103.905Z" fill="#1C90E9"/>
<path d="M180.377 107.967L178.721 109.841L184.571 113.247L186.213 111.339L180.377 107.967Z" fill="#1C90E9"/>
<path d="M177.393 111.999L175.736 113.873L181.581 117.284L183.228 115.371L177.393 111.999Z" fill="#1C90E9"/>
<path d="M151.399 35.2723C151.336 37.6232 151.803 39.9837 152.67 42.1564C154.427 46.5739 157.831 50.2159 161.813 51.4298C165.794 52.639 169.338 51.1119 171.298 47.8216C172.265 46.203 172.848 44.1652 172.91 41.8143C173.103 34.6942 168.443 27.4633 162.501 25.6568C156.555 23.8454 151.591 28.1522 151.399 35.2723Z" fill="#D4DFFC"/>
<path d="M152.669 42.1562C154.427 46.5737 157.831 50.2157 161.812 51.4297C165.794 52.6388 169.338 51.1117 171.297 47.8214C169.545 43.4039 166.141 39.7571 162.159 38.5431C158.168 37.3291 154.624 38.8659 152.669 42.1562Z" fill="#1C90E9"/>
<path d="M159.073 32.5024C159.015 34.622 160.406 36.7754 162.173 37.315C163.945 37.8545 165.423 36.5683 165.481 34.4486C165.539 32.329 164.147 30.1756 162.38 29.6361C160.608 29.1013 159.13 30.3827 159.073 32.5024Z" fill="#1C90E9"/>
<path d="M194.59 45.5381C194.499 45.5381 194.402 45.514 194.32 45.4658L180.392 37.4208C180.132 37.2714 180.04 36.939 180.194 36.6741C180.348 36.4091 180.676 36.3224 180.936 36.4766L194.864 44.5216C195.124 44.671 195.216 45.0034 195.062 45.2683C194.961 45.4417 194.778 45.5381 194.59 45.5381Z" fill="#D4DFFC"/>
<path d="M201.557 57.6103C201.465 57.6103 201.369 57.5862 201.287 57.5381L180.392 45.4705C180.132 45.3212 180.04 44.9888 180.194 44.7238C180.343 44.4637 180.676 44.3721 180.936 44.5263L201.831 56.5939C202.091 56.7432 202.183 57.0756 202.029 57.3406C201.928 57.5092 201.745 57.6103 201.557 57.6103Z" fill="#D4DFFC"/>
<path d="M201.557 65.6552C201.465 65.6552 201.369 65.6312 201.287 65.583L180.392 53.5154C180.132 53.3661 180.04 53.0337 180.194 52.7687C180.343 52.5086 180.676 52.4171 180.936 52.5712L201.831 64.6388C202.091 64.7881 202.183 65.1205 202.029 65.3855C201.928 65.5589 201.745 65.6552 201.557 65.6552Z" fill="#D4DFFC"/>
<path d="M194.595 69.6825C194.503 69.6825 194.407 69.6584 194.325 69.6103L180.392 61.5604C180.132 61.4111 180.04 61.0787 180.194 60.8185C180.343 60.5584 180.676 60.4669 180.936 60.621L194.869 68.6709C195.129 68.8202 195.221 69.1526 195.067 69.4128C194.966 69.5814 194.783 69.6825 194.595 69.6825Z" fill="#D4DFFC"/>
<path d="M201.557 78.0027V81.4423C201.557 81.9722 201.841 82.4636 202.299 82.7285L214.783 89.9305C215.192 90.1666 215.703 89.8679 215.703 89.3958L215.688 85.6912C215.688 85.2673 215.462 84.8771 215.096 84.6651L202.549 77.4246C202.106 77.1741 201.557 77.4969 201.557 78.0027Z" fill="#F2994A"/>
<path d="M156.39 106.275C156.453 106.719 156.029 107.383 155.447 107.769C154.864 108.149 154.344 108.101 154.286 107.658C154.224 107.215 154.648 106.55 155.23 106.165C155.808 105.779 156.328 105.832 156.39 106.275Z" fill="#1C90E9"/>
<path d="M161.11 108.915C161.172 109.358 160.749 110.023 160.166 110.408C159.583 110.789 159.063 110.741 159.006 110.298C158.943 109.854 159.367 109.19 159.949 108.804C160.532 108.424 161.047 108.472 161.11 108.915Z" fill="#1C90E9"/>
<path d="M166.097 111.551C166.16 111.994 165.736 112.659 165.154 113.044C164.571 113.425 164.051 113.377 163.993 112.933C163.931 112.49 164.355 111.825 164.937 111.44C165.515 111.059 166.035 111.108 166.097 111.551Z" fill="#1C90E9"/>
<path d="M165.043 137.3V147.946L174.181 153.226V142.628L165.043 137.3Z" fill="#D4DFFC"/>
<path d="M225.211 48.6542C225.028 50.3211 224.359 51.5832 223.343 52.2914C221.798 53.4909 219.482 53.4909 217.026 52.089C212.944 49.7526 209.978 44.4487 210.426 40.2383C210.83 36.1724 214.263 34.6067 218.168 36.5819C218.312 36.6445 218.471 36.7264 218.615 36.8035C222.693 39.1206 225.659 44.4294 225.211 48.6542Z" fill="#F2994A"/>
<path d="M216.608 48.5586L214.821 43.351C214.744 43.1198 214.807 42.8789 214.971 42.8163C215.134 42.7536 215.327 42.8885 215.409 43.1198L216.646 46.7328L219.362 41.0579C219.448 40.8749 219.65 40.8508 219.804 41.0049C219.963 41.1591 220.016 41.4337 219.93 41.6167L216.608 48.5586Z" fill="#F3F6FF"/>
<path d="M60.8873 136.114C60.8873 137.911 59.9292 139.578 58.3693 140.474L13.7134 166.276C12.2016 167.153 10.5116 167.133 9.11538 166.493L9.07686 166.478C8.85539 166.372 8.64836 166.257 8.44133 166.122C8.01764 165.847 7.64209 165.51 7.32433 165.125C6.70805 164.387 6.29399 163.448 6.19288 162.393C6.17844 162.239 6.17362 162.08 6.17362 161.911V157.455L6.15918 56.1166C6.15918 54.3149 7.1173 52.6529 8.67724 51.7568L49.8377 27.983L51.831 26.8317L53.0635 26.1139L53.3332 25.9597C53.7568 25.714 54.195 25.5358 54.6379 25.4298C55.4997 25.2082 56.3856 25.2371 57.1945 25.4683C57.3823 25.5165 57.5604 25.5743 57.7386 25.6514C59.5344 26.374 60.8873 28.1083 60.8873 30.3146V136.114Z" fill="#D4DFFC"/>
<path d="M40.8101 143.292C41.022 145.349 39.5824 147.941 37.5891 149.073C35.5958 150.205 33.8096 149.458 33.5929 147.401C33.3811 145.344 34.8207 142.752 36.8139 141.62C38.8072 140.483 40.5983 141.23 40.8101 143.292Z" fill="#1C90E9"/>
<path d="M56.9635 135.445C56.9683 136.255 56.535 137.011 55.8321 137.42L41.1763 145.889C41.6192 144.825 41.8262 143.717 41.7251 142.715C41.4507 140.109 39.1878 139.155 36.6697 140.59C34.1469 142.031 32.3173 145.302 32.5917 147.908C32.6976 148.948 33.1213 149.719 33.7521 150.177L13.4679 161.898C11.9561 162.77 10.064 161.681 10.064 159.932V57.5095C10.064 56.2426 10.7284 55.0719 11.8165 54.4264L51.0174 31.2114C53.3958 29.8047 56.4098 31.5052 56.4194 34.2752L56.9635 135.445Z" fill="#F3F6FF"/>
<path d="M37.8353 146.01L36.9061 146.54C36.6654 146.675 36.4535 146.588 36.4246 146.337L36.3235 145.374C36.2994 145.128 36.4728 144.815 36.7087 144.68L37.6379 144.15C37.8787 144.015 38.0905 144.102 38.1194 144.353L38.2205 145.316C38.2494 145.562 38.0761 145.87 37.8353 146.01Z" fill="#F3F6FF"/>
<path d="M21.7881 48.1873L24.075 49.6132C25.0717 50.2347 26.3331 50.2588 27.3538 49.6711L39.6504 42.5654C40.753 41.9295 41.6533 40.9998 42.2504 39.8773L45.2403 34.2939L21.7881 48.1873Z" fill="#D4DFFC"/>
<path d="M57.1993 25.4643L57.1945 25.4691C56.3857 25.233 55.4998 25.209 54.6379 25.4306C54.195 25.5365 53.752 25.71 53.3332 25.9605L53.0636 26.1146L51.831 26.8324L49.8377 27.9838L8.67726 51.7576C7.11731 52.6536 6.1592 54.3156 6.1592 56.1173L6.17364 157.456V161.912C6.17364 162.081 6.17845 162.24 6.1929 162.394C6.29401 163.454 6.70807 164.388 7.32434 165.125C7.64692 165.515 8.02247 165.848 8.44134 166.122C8.64837 166.257 8.8554 166.368 9.07688 166.479L4.83035 165.106L4.31518 164.937L4.30074 164.933C3.96371 164.807 3.64595 164.639 3.34262 164.441C2.00415 163.569 1.07492 162.061 1.07492 160.226V155.77L1.05566 54.4361C1.05566 52.6344 2.01378 50.9724 3.57373 50.0763L44.7342 26.3025L47.96 24.4334L48.2296 24.2792C49.5681 23.5036 51.0414 23.4217 52.3221 23.8553L57.1993 25.4643Z" fill="#1C90E9"/>
<path d="M3.09735 77.6606C3.38142 77.8244 3.65585 77.8389 3.84844 77.7281C3.85325 77.7281 3.86288 77.7232 3.8677 77.7232L3.9014 77.6992C3.98325 77.6414 4.05547 77.5546 4.09399 77.4438C4.12287 77.3764 4.14695 77.3041 4.15176 77.2222C4.20472 76.6827 3.82918 76.0034 3.30438 75.7048C3.14069 75.6084 2.9818 75.5651 2.84699 75.5651C2.7507 75.5602 2.65922 75.5843 2.57737 75.6277C2.40404 75.7096 2.28368 75.883 2.25479 76.1431C2.1922 76.6827 2.57256 77.3619 3.09735 77.6606Z" fill="#D4DFFC"/>
<path d="M2.57227 75.6177V75.6225C2.65411 75.5791 2.74078 75.5551 2.84189 75.5599C2.98151 75.5599 3.1404 75.6032 3.29928 75.6996C3.82408 75.9983 4.19962 76.6775 4.14666 77.2171C4.13703 77.2989 4.11777 77.3712 4.08888 77.4387C4.05036 77.5495 3.97814 77.6362 3.89629 77.694L4.38739 77.3664L4.44035 77.3327C4.57035 77.2363 4.65701 77.0774 4.68108 76.8654C4.73404 76.321 4.3585 75.6466 3.83371 75.3431C3.54964 75.1793 3.27521 75.1649 3.08262 75.2757L3.03447 75.3094L2.57227 75.6177Z" fill="#F3F6FF"/>
<path d="M3.09735 86.7895C3.38142 86.9533 3.65585 86.9678 3.84844 86.857C3.85325 86.857 3.86288 86.8522 3.8677 86.8522L3.9014 86.8281C3.98325 86.7703 4.05547 86.6836 4.09399 86.5728C4.12287 86.5053 4.14695 86.433 4.15176 86.3512C4.20472 85.8116 3.82918 85.1324 3.30438 84.8337C3.14069 84.7373 2.9818 84.694 2.84699 84.694C2.7507 84.6891 2.65922 84.7132 2.57737 84.7566C2.40404 84.8385 2.28368 85.0119 2.25479 85.2721C2.1922 85.8116 2.57256 86.4909 3.09735 86.7895Z" fill="#D4DFFC"/>
<path d="M2.57227 84.7466V84.7514C2.65411 84.708 2.74078 84.684 2.84189 84.6888C2.98151 84.6888 3.1404 84.7321 3.29928 84.8285C3.82408 85.1272 4.19962 85.8064 4.14666 86.346C4.13703 86.4279 4.11777 86.5001 4.08888 86.5676C4.05036 86.6784 3.97814 86.7651 3.89629 86.8229L4.38739 86.4953L4.44035 86.4616C4.57035 86.3652 4.65701 86.2063 4.68108 85.9943C4.73404 85.4499 4.3585 84.7755 3.83371 84.472C3.54964 84.3082 3.27521 84.2938 3.08262 84.4046L3.03447 84.4383L2.57227 84.7466Z" fill="#F3F6FF"/>
<path d="M3.80472 63.2945C3.48214 63.1067 3.08252 63.3427 3.08252 63.7136V67.3701C3.08252 67.6928 3.25585 67.9867 3.53028 68.1505C3.81435 68.3143 4.16582 68.1119 4.16582 67.7843V63.9256C4.16582 63.6655 4.03101 63.4246 3.80472 63.2945Z" fill="url(#paint2_linear)"/>
<path d="M19.6836 130.222V134.221C19.6836 135.319 20.8728 136.008 21.8261 135.459L46.0679 121.45C46.8623 120.988 47.3534 120.14 47.3534 119.22V114.686C47.3534 113.81 46.4097 113.265 45.649 113.704L20.9932 127.949C20.1843 128.416 19.6836 129.283 19.6836 130.222Z" fill="#F2994A"/>
<path d="M44.7875 96.7464C44.7682 96.7464 44.7441 96.7464 44.7201 96.7416C44.5227 96.703 44.3927 96.5151 44.4264 96.3176C44.4408 96.2309 45.9719 87.733 45.0763 79.4038C44.2338 71.5562 40.9743 68.1841 38.3021 68.3671C38.1047 68.3768 37.9314 68.2274 37.917 68.0299C37.9025 67.8276 38.0566 67.6541 38.254 67.6445C39.8236 67.5337 41.4798 68.4779 42.7894 70.2218C44.3445 72.2981 45.3845 75.4487 45.8034 79.3315C46.7085 87.7668 45.1582 96.3706 45.1438 96.4525C45.1149 96.6259 44.9608 96.7464 44.7875 96.7464Z" fill="#F2994A"/>
<path d="M30.8583 99.5208C30.839 99.5208 30.8246 99.5208 30.8053 99.516C30.6079 99.4871 30.4683 99.304 30.4972 99.1017C30.9353 96.1053 30.7042 92.5548 29.7894 88.2433C29.7316 87.9639 29.669 87.6796 29.6065 87.4002C29.0913 85.0301 28.5569 82.5732 28.7398 79.9911C28.9998 76.2094 30.9979 72.9577 33.8241 71.7148C35.7548 70.8621 37.7962 71.1175 39.4283 72.4133C39.5872 72.5386 39.6113 72.765 39.4861 72.924C39.3609 73.0829 39.1347 73.107 38.9758 72.9818C37.541 71.8449 35.8125 71.6281 34.1178 72.3796C31.5371 73.5213 29.7076 76.5274 29.4668 80.0441C29.2935 82.525 29.8183 84.9289 30.319 87.2509C30.3816 87.5351 30.4394 87.8145 30.502 88.0988C31.436 92.4922 31.6719 96.1293 31.2194 99.2125C31.1905 99.3907 31.0316 99.5208 30.8583 99.5208Z" fill="#F2994A"/>
<path d="M39.8718 108.081C39.8477 108.081 39.8285 108.081 39.8044 108.077C39.607 108.043 39.477 107.845 39.5107 107.648C39.5155 107.633 39.5251 107.585 39.5299 107.571C39.9151 106.362 43.295 95.4454 42.9965 84.6834C42.8087 77.9583 40.6999 75.0052 40.6806 74.9763C40.5603 74.8125 40.5988 74.5861 40.7577 74.4705C40.9166 74.3501 41.1477 74.3838 41.2632 74.5476C41.3547 74.6728 43.5309 77.6837 43.7235 84.6641C44.0268 95.5466 40.6132 106.574 40.2233 107.792C40.1944 107.966 40.0451 108.081 39.8718 108.081Z" fill="#F2994A"/>
<path d="M27.69 85.5408C27.5359 85.5408 27.3963 85.4444 27.3433 85.2903C26.6355 83.1514 25.2297 77.6788 27.3963 73.0156C29.2355 69.0509 32.5865 66.7578 35.5427 67.4467C35.7401 67.49 35.8604 67.6875 35.8123 67.8802C35.7689 68.0777 35.5715 68.1982 35.379 68.15C32.4613 67.4756 29.4858 70.2407 28.0559 73.3191C26 77.7462 27.3577 83.002 28.0366 85.059C28.0992 85.2517 27.9981 85.4541 27.8055 85.5167C27.767 85.536 27.7285 85.5408 27.69 85.5408Z" fill="#F2994A"/>
<path d="M37.3536 106.887C37.3151 106.887 37.2766 106.882 37.2381 106.867C37.0503 106.8 36.9492 106.597 37.0118 106.405C37.0311 106.352 38.8654 100.932 39.8573 91.8804C40.6517 84.6591 39.5876 78.1412 37.3248 76.3828C36.694 75.8963 36.0104 75.7999 35.2352 76.0889C32.7894 77.0043 32.019 80.3427 32.1009 82.9248C32.1442 84.346 32.462 85.5696 32.7942 86.8655C32.9097 87.3183 33.0253 87.7759 33.136 88.248C33.6415 90.464 33.8775 92.6222 33.8341 94.6648C33.7908 96.9242 33.6127 98.9378 33.2997 100.821C33.266 101.019 33.0831 101.154 32.8808 101.12C32.6834 101.086 32.5486 100.899 32.5823 100.701C32.8905 98.8511 33.059 96.8712 33.1071 94.6455C33.1456 92.6656 32.9194 90.5652 32.4234 88.407C32.3175 87.9397 32.202 87.4917 32.0864 87.0437C31.7446 85.7093 31.4172 84.4471 31.369 82.9441C31.2246 78.435 33.136 76.0938 34.9752 75.4049C35.9815 75.0291 36.9444 75.164 37.7677 75.8047C40.2521 77.7413 41.4076 84.3797 40.5747 91.9574C39.5684 101.096 37.7099 106.583 37.6907 106.636C37.6425 106.79 37.5029 106.887 37.3536 106.887Z" fill="#F2994A"/>
<path d="M35.9092 106.03C35.8851 106.03 35.861 106.03 35.8369 106.02C35.6395 105.982 35.5144 105.789 35.5529 105.592C35.9862 103.457 36.4147 101.251 36.8191 99.0303C36.9106 98.5389 37.0069 98.0427 37.0984 97.5417C37.628 94.7573 38.1769 91.8765 38.1191 89.0631C38.0709 86.7315 37.6809 84.3132 36.9202 81.6732C36.6602 80.7676 36.0969 79.7174 35.6395 79.6018C35.5914 79.5873 35.4614 79.5584 35.2544 79.7656C34.8499 80.175 34.6188 81.23 34.6381 82.5934C34.6573 83.9278 35.0088 85.084 35.3844 86.3076C35.4951 86.6737 35.6106 87.0398 35.7118 87.4108C36.3473 89.6894 36.1547 92.1848 35.9717 94.6031L35.9332 95.1089C35.7406 97.667 35.4036 100.355 34.9029 103.323C34.8692 103.52 34.6814 103.655 34.484 103.621C34.2866 103.588 34.1518 103.4 34.1855 103.202C34.6862 100.259 35.0184 97.5947 35.211 95.056L35.2495 94.5501C35.4277 92.1992 35.6155 89.7665 35.0184 87.6083C34.9173 87.2422 34.8066 86.8808 34.6959 86.5244C34.3203 85.3056 33.9351 84.0434 33.9159 82.6078C33.9014 81.6829 33.9929 80.0209 34.7392 79.2597C35.1533 78.8406 35.5577 78.831 35.8225 78.8984C36.9347 79.1827 37.5558 81.2397 37.6184 81.4757C38.3935 84.1783 38.7931 86.6544 38.8413 89.0535C38.9039 91.9487 38.3454 94.8633 37.8061 97.6863C37.7098 98.1824 37.6184 98.6786 37.5269 99.17C37.1176 101.396 36.6891 103.607 36.2558 105.746C36.2269 105.91 36.0777 106.03 35.9092 106.03Z" fill="#F2994A"/>
<path d="M24.7196 79.418C24.5462 79.418 24.3922 79.2928 24.3633 79.1145C24.3488 79.023 22.9141 70.0964 29.1346 65.674C33.9011 62.2874 37.9887 64.0361 38.1621 64.1132C38.345 64.1951 38.4269 64.407 38.345 64.5901C38.2632 64.7731 38.0513 64.855 37.8684 64.7731C37.8298 64.7587 33.9733 63.1256 29.5583 66.2617C23.7133 70.4191 25.0662 78.9026 25.0807 78.9893C25.1144 79.1868 24.9795 79.3747 24.7821 79.4084C24.7629 79.418 24.7436 79.418 24.7196 79.418Z" fill="#F2994A"/>
<path d="M40.8249 62.591C40.7478 62.591 40.6708 62.567 40.6082 62.5188C40.5986 62.5092 39.5297 61.7191 37.8928 61.4204C36.2461 61.1169 34.3492 61.5939 34.3347 61.5987C34.1421 61.6468 33.9447 61.5312 33.8918 61.3385C33.8436 61.1458 33.9592 60.9483 34.1518 60.8953C34.2336 60.8761 36.2173 60.375 38.0227 60.7026C39.8331 61.035 40.9934 61.8973 41.0415 61.9359C41.2004 62.0563 41.2341 62.2827 41.1138 62.4417C41.0464 62.5429 40.9356 62.591 40.8249 62.591Z" fill="#F2994A"/>
<path d="M22.4911 76.2678C22.4911 76.2678 22.4863 76.2678 22.4911 76.2678C22.2889 76.2678 22.1252 76.104 22.13 75.9017C22.1541 72.5392 23.0448 69.1622 24.6481 66.4018C26.1839 63.7474 28.7501 61.8494 31.6774 61.199C31.8748 61.1557 32.0674 61.2809 32.1108 61.4736C32.1541 61.6711 32.0289 61.8638 31.8363 61.9072C29.1064 62.5142 26.7135 64.287 25.2788 66.7679C23.7429 69.4223 22.8811 72.6692 22.8618 75.9065C22.8522 76.1089 22.6885 76.2678 22.4911 76.2678Z" fill="#F2994A"/>
<path d="M23.7905 83.7251C23.646 83.7251 23.5064 83.6384 23.4534 83.4939C23.4342 83.4409 22.9431 82.1787 22.7023 81.0033C22.4664 79.8423 22.2594 77.7227 22.2498 77.6311C22.2305 77.4336 22.3749 77.2554 22.5772 77.2361C22.7794 77.2168 22.9527 77.3613 22.972 77.5637C22.972 77.5829 23.1838 79.7363 23.4149 80.8588C23.6412 81.9716 24.1275 83.2145 24.1323 83.2289C24.2045 83.4168 24.113 83.6288 23.9253 83.701C23.8819 83.7155 23.8338 83.7251 23.7905 83.7251Z" fill="#F2994A"/>
<path d="M26.675 97.8259C26.6702 97.8259 26.6654 97.8259 26.6606 97.8259C26.4583 97.8163 26.3043 97.6477 26.3139 97.4502C26.3909 95.6244 26.468 93.736 26.2898 91.9246C26.1598 90.6191 25.9047 89.4677 25.5291 88.4946C25.3799 88.1141 25.2065 87.7479 25.038 87.3963C24.7443 86.7796 24.441 86.1437 24.2484 85.3826C24.2003 85.1899 24.3206 84.9924 24.5132 84.9442C24.7058 84.896 24.9032 85.0165 24.9513 85.2092C25.1247 85.9029 25.3991 86.4761 25.688 87.088C25.8613 87.4541 26.0443 87.8298 26.2032 88.2393C26.6028 89.2702 26.8772 90.489 27.012 91.862C27.195 93.7263 27.1179 95.6388 27.0409 97.4887C27.0265 97.6718 26.8676 97.8259 26.675 97.8259Z" fill="#F2994A"/>
<path d="M28.9565 98.1479C28.9469 98.1479 28.9421 98.1479 28.9324 98.1479C28.7302 98.1334 28.581 97.9648 28.5906 97.7625C28.5954 97.7143 28.8747 93.0655 28.4606 90.758C28.191 89.255 27.801 87.5015 27.7962 87.4822C27.7529 87.2847 27.878 87.092 28.0706 87.0486C28.2632 87.0053 28.4606 87.1305 28.5039 87.3232C28.5088 87.3425 28.8987 89.1057 29.1732 90.628C29.6017 93.0222 29.3224 97.6084 29.3128 97.8059C29.3032 97.9986 29.1443 98.1479 28.9565 98.1479Z" fill="#F2994A"/>
<path d="M46.5446 73.729C46.3809 73.729 46.2269 73.6133 46.1932 73.4447C46.1835 73.4062 45.2736 69.4367 43.5259 67.4856C41.7204 65.472 40.1797 65.4286 40.1604 65.4286C39.963 65.4238 39.7993 65.2648 39.7993 65.0625C39.7993 64.865 39.9582 64.7012 40.1604 64.7012C40.2471 64.7012 42.0285 64.7301 44.0603 66.9991C45.9332 69.0898 46.8576 73.1123 46.8961 73.2809C46.9394 73.4785 46.8191 73.6712 46.6217 73.7145C46.6024 73.729 46.5735 73.729 46.5446 73.729Z" fill="#F2994A"/>
<path d="M111.461 29.6982C111.191 29.5634 110.883 29.5104 110.575 29.5441C110.353 29.5634 110.132 29.6308 109.92 29.756L108.793 30.4064L74.5804 50.1722C73.4778 50.8081 72.7989 51.9883 72.7989 53.2601L72.7893 88.3114V89.3279C72.7893 89.8 72.9434 90.2143 73.1986 90.5467C73.3574 90.7587 73.5645 90.9369 73.7908 91.0718L72.539 90.4311L72.5293 90.4263C72.3801 90.3733 72.2356 90.2962 72.1056 90.2095L72.0864 90.1999V90.195C71.5568 89.8434 71.186 89.246 71.186 88.5186L71.1957 52.4556C71.1957 51.1838 71.8745 50.0035 72.9819 49.3677L108.057 29.1057L108.321 28.9515C108.692 28.7348 109.097 28.6818 109.467 28.754H109.477L109.775 28.8456L109.78 28.8504L110.007 28.966L111.461 29.6982Z" fill="#CAD8FC"/>
<path d="M112.409 31.197V67.9585C112.409 69.1773 111.759 70.3046 110.705 70.9164L75.8131 91.0771C75.2016 91.4288 74.5228 91.4192 73.9594 91.159L73.7861 91.0723C73.555 90.9374 73.3528 90.7592 73.1939 90.5472C72.9436 90.2148 72.7847 89.7957 72.7847 89.3284V88.312L72.7943 53.2606C72.7943 51.9888 73.4732 50.8086 74.5757 50.1727L108.789 30.4069L109.915 29.7566C110.127 29.6313 110.349 29.5639 110.57 29.5446C110.883 29.5109 111.186 29.5687 111.456 29.6988L111.466 29.7036C112.01 29.9637 112.409 30.5129 112.409 31.197Z" fill="#F3F6FF"/>
<path d="M76.3857 54.6617L76.3954 68.2949C76.3954 69.1187 77.2861 69.6293 77.9938 69.2198L89.732 62.437C90.3867 62.0564 90.796 61.3579 90.796 60.5967V47.1466C90.796 46.2698 89.8475 45.7206 89.0868 46.159L77.4016 52.9033C76.7709 53.2646 76.3857 53.9343 76.3857 54.6617Z" fill="#96D1FF"/>
<path d="M94.4074 49.4926C94.2822 49.4926 94.1618 49.43 94.0944 49.3096C93.9933 49.1362 94.0559 48.9146 94.2292 48.8134L101.432 44.6512C101.605 44.55 101.827 44.6078 101.928 44.7861C102.029 44.9595 101.966 45.1811 101.793 45.2822L94.5903 49.4445C94.5277 49.4782 94.4652 49.4926 94.4074 49.4926Z" fill="url(#paint3_linear)"/>
<path d="M94.4074 49.4926C94.2822 49.4926 94.1618 49.43 94.0944 49.3096C93.9933 49.1362 94.0559 48.9146 94.2292 48.8134L101.432 44.6512C101.605 44.55 101.827 44.6078 101.928 44.7861C102.029 44.9595 101.966 45.1811 101.793 45.2822L94.5903 49.4445C94.5277 49.4782 94.4652 49.4926 94.4074 49.4926Z" fill="#96D1FF"/>
<path d="M94.4074 53.646C94.2822 53.646 94.1618 53.5786 94.0944 53.463C93.9933 53.2895 94.0559 53.0679 94.2292 52.9668L105.033 46.7282C105.207 46.6271 105.428 46.6897 105.529 46.8631C105.63 47.0366 105.568 47.2582 105.394 47.3593L94.5903 53.5978C94.5277 53.6316 94.4652 53.646 94.4074 53.646Z" fill="url(#paint4_linear)"/>
<path d="M94.4074 53.646C94.2822 53.646 94.1618 53.5786 94.0944 53.463C93.9933 53.2895 94.0559 53.0679 94.2292 52.9668L105.033 46.7282C105.207 46.6271 105.428 46.6897 105.529 46.8631C105.63 47.0366 105.568 47.2582 105.394 47.3593L94.5903 53.5978C94.5277 53.6316 94.4652 53.646 94.4074 53.646Z" fill="#96D1FF"/>
<path d="M94.3971 57.8131C94.2719 57.8131 94.1516 57.7456 94.0842 57.63C93.9831 57.4566 94.0457 57.235 94.219 57.1338L108.634 48.8142C108.807 48.713 109.029 48.7756 109.13 48.9491C109.231 49.1225 109.168 49.3441 108.995 49.4453L94.5801 57.7649C94.5223 57.7938 94.4597 57.8131 94.3971 57.8131Z" fill="url(#paint5_linear)"/>
<path d="M94.3971 57.8131C94.2719 57.8131 94.1516 57.7456 94.0842 57.63C93.9831 57.4566 94.0457 57.235 94.219 57.1338L108.634 48.8142C108.807 48.713 109.029 48.7756 109.13 48.9491C109.231 49.1225 109.168 49.3441 108.995 49.4453L94.5801 57.7649C94.5223 57.7938 94.4597 57.8131 94.3971 57.8131Z" fill="#96D1FF"/>
<path d="M56.6554 135.117L56.2124 135.579L55.2832 134.072C55.2832 134.072 55.3795 132.689 55.6587 130.502C55.938 128.315 55.7936 125.92 55.7936 125.92L56.535 124.668C56.612 125.458 56.6506 126.311 56.5976 127.39C56.4676 130.039 56.3087 131.191 56.4387 133.31C56.4772 133.937 56.5591 134.558 56.6554 135.117Z" fill="url(#paint6_linear)"/>
<path d="M65.524 163.482C65.524 163.482 65.9813 164.6 65.8802 165.872C65.7791 167.143 64.7729 166.488 62.0574 165.891C60.2808 165.501 58.8268 165.082 59.0434 164.504C59.2649 163.925 63.0637 163.376 63.0637 163.376L64.2721 163.251L65.524 163.482Z" fill="#012860"/>
<path d="M62.1345 166.83C62.1345 166.83 62.5967 167.962 62.4956 169.253C62.3945 170.544 61.3738 169.879 58.615 169.272C56.8143 168.877 55.3362 168.448 55.5577 167.866C55.7792 167.283 59.6405 166.719 59.6405 166.719L60.8634 166.594L62.1345 166.83Z" fill="#012860"/>
<path d="M68.4126 132.916C68.4126 132.916 68.5474 135.806 67.5989 137.203C66.6504 138.605 65.6201 144.01 65.5238 149.348C65.4275 154.69 65.5238 163.482 65.5238 163.482C65.5238 163.482 64.893 163.867 64.1468 163.776C63.4005 163.684 63.0635 163.371 63.0635 163.371L60.9595 134.221L61.8261 131.74L68.4126 132.916Z" fill="url(#paint7_linear)"/>
<path d="M68.4126 132.916C68.4126 132.916 68.5474 135.806 67.5989 137.203C66.6504 138.605 65.6201 144.01 65.5238 149.348C65.4275 154.69 65.5238 163.482 65.5238 163.482C65.5238 163.482 64.893 163.867 64.1468 163.776C63.4005 163.684 63.0635 163.371 63.0635 163.371L60.9595 134.221L61.8261 131.74L68.4126 132.916Z" fill="url(#paint8_linear)"/>
<path d="M65.0668 135.816C65.0668 135.816 65.2016 138.75 64.2434 140.166C63.2805 141.587 62.2357 147.074 62.1346 152.489C62.0383 157.908 62.1346 166.83 62.1346 166.83C62.1346 166.83 61.4943 167.22 60.7384 167.129C59.9825 167.037 59.6406 166.715 59.6406 166.715L57.5029 137.136L58.3792 134.621L65.0668 135.816Z" fill="#F3F6FF"/>
<path d="M58.1431 112.558C57.5124 113.15 57.4258 114.017 57.4258 114.017C57.4258 114.017 57.0502 114.547 56.8384 114.518C56.6313 114.489 55.1677 113.839 55.1677 113.839C55.1677 113.839 55.601 113.126 55.2495 112.693C54.8933 112.259 55.0618 111.874 55.1821 111.609C55.2544 111.464 55.5577 111.141 55.8947 110.852C56.328 110.486 56.8095 110.173 56.901 110.361C57.0647 110.698 56.2702 111.599 56.4484 111.609H56.4532C56.458 111.609 56.458 111.609 56.458 111.609C56.9539 111.613 57.7869 111.58 58.6342 111.363C58.6342 111.358 58.7739 111.965 58.1431 112.558Z" fill="url(#paint9_linear)"/>
<path d="M55.3744 125.473C55.3744 125.473 54.5125 123.787 54.4788 119.128C54.4451 114.47 54.4788 114.022 54.4788 114.022C54.4788 114.022 55.2444 113.733 56.0581 113.766C56.8717 113.8 57.6661 114.104 57.6661 114.104L57.4928 117.351L55.3744 125.473Z" fill="#1881D1"/>
<path d="M58.9038 111.286C58.9038 111.286 59.0242 112.659 58.9038 113.507C58.7835 114.36 60.1797 115.048 60.2279 115.015C60.276 114.981 61.9756 113.232 61.9756 113.232L61.5663 110.655C61.5663 110.655 61.5182 110.226 61.393 110.178C61.2678 110.13 59.5442 109.841 59.5442 109.841L58.9038 111.286Z" fill="url(#paint10_linear)"/>
<path d="M61.128 109.725C60.5887 110.641 59.6017 111.117 58.634 111.358C57.7866 111.575 56.9585 111.609 56.4577 111.604C56.4529 111.604 56.4529 111.604 56.4529 111.604H56.4481C56.27 111.594 57.0644 110.694 56.9007 110.356C56.8092 110.168 56.3277 110.482 55.8944 110.848C55.8559 110.342 55.8463 109.639 55.9859 108.921C56.2459 107.557 56.5203 106.859 56.5203 106.859L58.6629 105.529C58.6677 105.524 62.4135 107.543 61.128 109.725Z" fill="url(#paint11_linear)"/>
<path d="M68.4274 133.113C68.4274 133.113 67.9556 134.823 65.216 136.196C62.4717 137.564 57.19 137.439 57.19 137.439C57.19 137.439 56.8819 136.447 56.6556 135.117C56.5593 134.558 56.4774 133.937 56.4389 133.306C56.3089 131.186 56.4678 130.03 56.5978 127.385C56.6508 126.306 56.6123 125.454 56.5352 124.663C56.4197 123.512 56.2174 122.505 56.0826 121.152C55.8612 118.873 57.0793 115.308 57.8496 114.374C58.62 113.439 60.9454 112.591 60.9454 112.591C60.9454 112.591 62.6017 112.211 63.9257 112.316C64.465 112.36 64.9079 112.702 65.2401 113.299C65.2401 113.299 65.2449 113.309 65.2546 113.328C65.2979 113.41 65.3412 113.492 65.3797 113.579C65.3846 113.588 65.3894 113.603 65.3942 113.612C65.7312 114.393 65.9142 115.51 65.9093 116.903C65.9093 117.1 65.9045 117.302 65.8949 117.514C65.8082 119.663 66.2945 121.715 66.8675 123.724C67.1419 124.673 67.4308 125.617 67.6908 126.552C68.5141 129.471 68.4274 133.113 68.4274 133.113Z" fill="#1C90E9"/>
<path d="M60.0211 115.992C59.6263 115.028 58.4178 114.696 57.6186 115.366C57.1419 115.761 56.6412 116.449 56.2223 117.63C55.0331 120.973 54.4987 125.236 55.7986 125.92C58.4948 127.332 59.5878 121.392 60.1655 118.69C60.4207 117.485 60.2666 116.604 60.0211 115.992Z" fill="#1881D1"/>
<path d="M66.8722 123.729C66.2945 121.72 65.813 119.668 65.8996 117.519C65.9671 115.843 65.7841 114.508 65.3989 113.617C65.9189 114.716 67.6185 118.391 67.9555 120.573C68.1481 121.797 67.5559 122.905 66.8722 123.729Z" fill="#1881D1"/>
<path d="M55.5387 103.385C55.5387 103.385 55.0476 105.635 56.5257 106.853C58.0038 108.072 58.0086 108.246 58.1434 108.78C58.2782 109.315 57.999 109.85 57.999 109.85C57.999 109.85 59.1112 108.67 59.4097 109.055C59.7082 109.44 58.9571 110.577 59.9971 110.813C61.037 111.049 62.7222 110.399 63.2566 109.243C63.791 108.087 63.584 106.998 63.584 106.998C63.584 106.998 63.7188 104.878 62.4959 104.002C61.6052 103.361 61.4126 103.896 60.6856 103.491C60.44 103.351 60.6567 102.542 59.7275 102.542C59.0197 102.542 58.7212 103.356 57.9075 102.971C57.2479 102.658 58.1242 101.757 57.2238 101.352C56.338 100.952 55.5387 103.385 55.5387 103.385Z" fill="#012860"/>
<path d="M152.515 100.822C152.515 100.822 152.679 99.136 153.131 99.1553C153.584 99.1746 155.11 96.4817 155.514 96.631C155.919 96.7803 154.388 98.9289 154.917 99.1938C155.447 99.4588 156.771 100.49 156.068 101.198C155.36 101.906 153.887 102.701 153.887 102.701L152.356 101.935L152.515 100.822Z" fill="url(#paint12_linear)"/>
<path d="M136.94 163.26C136.94 163.26 136.01 166.276 138.846 166.353C140.69 166.406 144.523 163.781 144.364 163.222C144.205 162.663 140.228 163.183 140.228 163.183L138.63 162.374L136.94 163.26Z" fill="#1C90E9"/>
<path d="M131.403 161.112C131.403 161.112 130.474 164.128 133.31 164.205C135.154 164.258 138.986 161.632 138.827 161.073C138.668 160.515 134.691 161.035 134.691 161.035L133.093 160.226L131.403 161.112Z" fill="#1C90E9"/>
<path d="M135.307 140.831L136.694 163.208C136.694 163.208 137.122 163.728 139.034 163.569C140.526 163.444 140.786 163.112 140.786 163.112L141.253 141.327L140.025 138.75L135.307 140.831Z" fill="url(#paint13_linear)"/>
<path d="M129.766 138.682L131.152 161.058C131.152 161.058 131.581 161.579 133.492 161.42C134.985 161.295 135.245 160.962 135.245 160.962L135.712 139.178L134.484 136.601L129.766 138.682Z" fill="url(#paint14_linear)"/>
<path d="M129.535 107.923C129.535 107.923 125.534 113.082 125.365 115.896C125.192 118.709 128.259 120.376 128.259 120.376C128.259 120.376 129.549 119.422 129.67 119.321C129.79 119.22 134.35 111.011 134.316 110.871C134.282 110.736 129.535 107.923 129.535 107.923Z" fill="url(#paint15_linear)"/>
<path d="M135.284 103.385L135.106 106.232L138.582 106.034C138.582 106.034 138.736 103.139 138.977 102.937C139.212 102.735 139.213 102.735 139.213 102.735L138.938 102.291L134.976 101.665L135.284 103.385Z" fill="url(#paint16_linear)"/>
<path d="M140.387 97.691C140.387 97.691 141.114 99.3722 141.09 101.164C141.066 102.956 140.387 104.002 140.387 104.002C140.387 104.002 137.869 104.546 136.848 103.592C135.828 102.638 136.121 101.593 136.121 101.593L136.598 100.027L137.912 96.9828L138.981 96.8672L140.387 97.691Z" fill="url(#paint17_linear)"/>
<path d="M155.091 102.778C155.091 102.778 148.192 114.224 147.147 115.356C146.632 115.92 145.52 115.64 144.542 115.221C144.518 115.212 144.499 115.197 144.475 115.192C144.451 115.183 144.427 115.173 144.407 115.163C143.473 114.744 142.684 114.224 142.684 114.224C142.645 115.072 142.602 115.939 142.592 116.787C142.587 116.941 142.587 117.09 142.587 117.24C142.573 121.19 142.973 125.212 143.464 129.659C143.95 134.11 143.464 141.423 143.464 141.423C143.464 141.423 142.799 141.991 139.222 142.492C135.64 142.989 132.616 141.153 132.616 141.153L131.528 138.051L131.018 140.421C131.018 140.421 130.454 140.541 129.179 140.185C127.903 139.824 127.272 139.318 127.272 139.318C127.272 139.318 127.59 123.989 128.259 119.817C128.524 118.184 128.62 116.845 128.683 115.563C128.779 113.583 128.774 111.748 129.13 109.185C129.198 108.718 129.337 108.299 129.535 107.928C130.142 106.791 131.287 106.078 132.477 105.639C135.081 104.671 138.009 104.883 140.411 106.285C140.642 106.42 140.869 106.569 141.09 106.728C141.09 106.728 141.119 106.747 141.177 106.786C141.624 107.085 143.695 108.472 144.894 109.305C145.101 109.445 145.284 109.575 145.423 109.676C145.717 109.888 146.352 109.291 147.123 108.313C147.128 108.308 147.128 108.308 147.128 108.308C149.155 105.726 152.096 100.504 152.096 100.504C152.096 100.504 153.343 100.48 154.162 101.005C154.98 101.53 155.091 102.778 155.091 102.778Z" fill="url(#paint18_linear)"/>
<path d="M144.407 115.164C143.473 114.745 142.684 114.224 142.684 114.224C142.645 115.072 142.602 115.939 142.592 116.787C142.592 116.787 140.974 112.88 141.928 113.131C142.852 113.372 143.699 114.817 144.407 115.164Z" fill="url(#paint19_linear)"/>
<path d="M144.407 115.164C143.473 114.745 142.684 114.224 142.684 114.224C142.645 115.072 142.602 115.939 142.592 116.787C142.592 116.787 140.974 112.88 141.928 113.131C142.852 113.372 143.699 114.817 144.407 115.164Z" fill="url(#paint20_linear)"/>
<path d="M147.122 108.318C147.084 108.448 146.463 110.467 145.769 110.501C145.052 110.534 144.893 109.311 144.893 109.311C145.1 109.45 145.283 109.581 145.423 109.682C145.716 109.894 146.352 109.296 147.122 108.318Z" fill="url(#paint21_linear)"/>
<path d="M147.122 108.318C147.084 108.448 146.463 110.467 145.769 110.501C145.052 110.534 144.893 109.311 144.893 109.311C145.1 109.45 145.283 109.581 145.423 109.682C145.716 109.894 146.352 109.296 147.122 108.318Z" fill="url(#paint22_linear)"/>
<path d="M140.647 127.497L140.521 127.222C141.35 126.846 141.768 126.384 141.773 126.379L142 126.581C141.98 126.605 141.533 127.097 140.647 127.497Z" fill="#1C90E9"/>
<path d="M140.7 123.989V127.501C140.503 127.593 140.281 127.675 140.036 127.752C139.357 127.954 138.423 127.949 137.677 127.891V124.731L140.7 123.989Z" fill="#1C90E9"/>
<path d="M137.715 127.877C137.027 127.829 136.511 127.737 136.487 127.732L136.54 127.434C136.545 127.434 137.065 127.525 137.734 127.573L137.715 127.877Z" fill="#1C90E9"/>
<path d="M140.113 94.1936C140.113 94.1936 141.268 96.6216 140.387 97.691C139.501 98.7605 138.317 99.1122 138.254 99.8492C138.192 100.586 138.707 100.442 138.88 100.933C139.049 101.429 138.76 101.954 138.76 101.954C138.76 101.954 137.773 100.914 137.311 101.579C136.853 102.243 136.834 102.889 137.311 103.13C137.787 103.366 138.211 103.13 138.245 103.472C138.279 103.814 137.479 104.835 135.948 104.392C134.417 103.949 133.733 103.25 133.531 102.21C133.329 101.169 133.94 99.8926 133.94 99.8926C133.94 99.8926 132.872 97.4646 134.167 96.5541C135.462 95.6436 136.3 96.0772 136.911 95.8508C137.523 95.6244 137.094 94.8054 137.662 94.6464C138.23 94.4875 138.572 95.8026 139.025 95.6918C139.477 95.5762 139.063 94.1503 139.41 93.5336C139.757 92.9218 140.113 94.1936 140.113 94.1936Z" fill="#012860"/>
<defs>
<linearGradient id="paint0_linear" x1="0.168863" y1="179.922" x2="195.662" y2="179.922" gradientUnits="userSpaceOnUse">
<stop stop-color="#666666"/>
<stop offset="0.056" stop-color="#737373"/>
<stop offset="0.2845" stop-color="#A5A5A5"/>
<stop offset="0.5004" stop-color="#CCCCCC"/>
<stop offset="0.6978" stop-color="#E8E8E8"/>
<stop offset="0.8702" stop-color="#F9F9F9"/>
<stop offset="0.9987" stop-color="white"/>
</linearGradient>
<linearGradient id="paint1_linear" x1="0.168863" y1="179.922" x2="195.662" y2="179.922" gradientUnits="userSpaceOnUse">
<stop stop-color="#E9F2FF"/>
<stop offset="0.2774" stop-color="#C7DBFF"/>
<stop offset="0.5621" stop-color="#ABC8FF"/>
<stop offset="0.8122" stop-color="#9ABDFF"/>
<stop offset="0.9987" stop-color="#94B9FF"/>
</linearGradient>
<linearGradient id="paint2_linear" x1="3.08358" y1="65.7189" x2="4.16779" y2="65.7189" gradientUnits="userSpaceOnUse">
<stop stop-color="#FF0007"/>
<stop offset="1" stop-color="#FFAAAC"/>
</linearGradient>
<linearGradient id="paint3_linear" x1="94.0424" y1="47.0472" x2="101.973" y2="47.0472" gradientUnits="userSpaceOnUse">
<stop stop-color="#666666"/>
<stop offset="0.056" stop-color="#737373"/>
<stop offset="0.2845" stop-color="#A5A5A5"/>
<stop offset="0.5004" stop-color="#CCCCCC"/>
<stop offset="0.6978" stop-color="#E8E8E8"/>
<stop offset="0.8702" stop-color="#F9F9F9"/>
<stop offset="0.9987" stop-color="white"/>
</linearGradient>
<linearGradient id="paint4_linear" x1="94.0425" y1="50.1664" x2="105.575" y2="50.1664" gradientUnits="userSpaceOnUse">
<stop stop-color="#666666"/>
<stop offset="0.056" stop-color="#737373"/>
<stop offset="0.2845" stop-color="#A5A5A5"/>
<stop offset="0.5004" stop-color="#CCCCCC"/>
<stop offset="0.6978" stop-color="#E8E8E8"/>
<stop offset="0.8702" stop-color="#F9F9F9"/>
<stop offset="0.9987" stop-color="white"/>
</linearGradient>
<linearGradient id="paint5_linear" x1="94.0333" y1="53.2887" x2="109.177" y2="53.2887" gradientUnits="userSpaceOnUse">
<stop stop-color="#666666"/>
<stop offset="0.056" stop-color="#737373"/>
<stop offset="0.2845" stop-color="#A5A5A5"/>
<stop offset="0.5004" stop-color="#CCCCCC"/>
<stop offset="0.6978" stop-color="#E8E8E8"/>
<stop offset="0.8702" stop-color="#F9F9F9"/>
<stop offset="0.9987" stop-color="white"/>
</linearGradient>
<linearGradient id="paint6_linear" x1="55.2837" y1="130.12" x2="56.6554" y2="130.12" gradientUnits="userSpaceOnUse">
<stop stop-color="#FF0007"/>
<stop offset="1" stop-color="#FFAAAC"/>
</linearGradient>
<linearGradient id="paint7_linear" x1="60.9605" y1="147.765" x2="68.4213" y2="147.765" gradientUnits="userSpaceOnUse">
<stop stop-color="#666666"/>
<stop offset="0.056" stop-color="#737373"/>
<stop offset="0.2845" stop-color="#A5A5A5"/>
<stop offset="0.5004" stop-color="#CCCCCC"/>
<stop offset="0.6978" stop-color="#E8E8E8"/>
<stop offset="0.8702" stop-color="#F9F9F9"/>
<stop offset="0.9987" stop-color="white"/>
</linearGradient>
<linearGradient id="paint8_linear" x1="60.9605" y1="147.765" x2="68.4213" y2="147.765" gradientUnits="userSpaceOnUse">
<stop stop-color="#E9F2FF"/>
<stop offset="0.5466" stop-color="#DAEAFF"/>
<stop offset="0.9987" stop-color="#D4E7FF"/>
</linearGradient>
<linearGradient id="paint9_linear" x1="55.0386" y1="112.408" x2="58.6489" y2="112.408" gradientUnits="userSpaceOnUse">
<stop stop-color="#FF7F83"/>
<stop offset="1" stop-color="#FFD4D5"/>
</linearGradient>
<linearGradient id="paint10_linear" x1="58.8984" y1="112.43" x2="61.9785" y2="112.43" gradientUnits="userSpaceOnUse">
<stop stop-color="#FFD4D5"/>
<stop offset="1" stop-color="#FF7F83"/>
</linearGradient>
<linearGradient id="paint11_linear" x1="55.8756" y1="108.566" x2="61.3956" y2="108.566" gradientUnits="userSpaceOnUse">
<stop stop-color="#FFD4D5"/>
<stop offset="1" stop-color="#FF7F83"/>
</linearGradient>
<linearGradient id="paint12_linear" x1="152.357" y1="99.6593" x2="156.272" y2="99.6593" gradientUnits="userSpaceOnUse">
<stop stop-color="#FF7F83"/>
<stop offset="1" stop-color="#FFD4D5"/>
</linearGradient>
<linearGradient id="paint13_linear" x1="135.307" y1="151.176" x2="141.25" y2="151.176" gradientUnits="userSpaceOnUse">
<stop stop-color="#002255"/>
<stop offset="1" stop-color="#003A7F"/>
</linearGradient>
<linearGradient id="paint14_linear" x1="129.767" y1="149.023" x2="135.71" y2="149.023" gradientUnits="userSpaceOnUse">
<stop stop-color="#002255"/>
<stop offset="1" stop-color="#003A7F"/>
</linearGradient>
<linearGradient id="paint15_linear" x1="125.355" y1="114.15" x2="134.315" y2="114.15" gradientUnits="userSpaceOnUse">
<stop stop-color="#E9EFFF"/>
<stop offset="0.1554" stop-color="#DAE6FF"/>
<stop offset="0.481" stop-color="#C0D6FF"/>
<stop offset="0.7728" stop-color="#B0CCFF"/>
<stop offset="1" stop-color="#AAC9FF"/>
</linearGradient>
<linearGradient id="paint16_linear" x1="134.98" y1="103.95" x2="139.217" y2="103.95" gradientUnits="userSpaceOnUse">
<stop stop-color="#FF7F83"/>
<stop offset="1" stop-color="#FFD4D5"/>
</linearGradient>
<linearGradient id="paint17_linear" x1="136.079" y1="100.517" x2="141.09" y2="100.517" gradientUnits="userSpaceOnUse">
<stop stop-color="#FF7F83"/>
<stop offset="1" stop-color="#FFD4D5"/>
</linearGradient>
<linearGradient id="paint18_linear" x1="127.268" y1="121.543" x2="155.093" y2="121.543" gradientUnits="userSpaceOnUse">
<stop stop-color="#E9EFFF"/>
<stop offset="1" stop-color="#D4E3FF"/>
</linearGradient>
<linearGradient id="paint19_linear" x1="141.627" y1="114.955" x2="144.409" y2="114.955" gradientUnits="userSpaceOnUse">
<stop stop-color="#666666"/>
<stop offset="0.056" stop-color="#737373"/>
<stop offset="0.2845" stop-color="#A5A5A5"/>
<stop offset="0.5004" stop-color="#CCCCCC"/>
<stop offset="0.6978" stop-color="#E8E8E8"/>
<stop offset="0.8702" stop-color="#F9F9F9"/>
<stop offset="0.9987" stop-color="white"/>
</linearGradient>
<linearGradient id="paint20_linear" x1="141.627" y1="114.955" x2="144.409" y2="114.955" gradientUnits="userSpaceOnUse">
<stop stop-color="#E9F2FF"/>
<stop offset="0.2774" stop-color="#C7DBFF"/>
<stop offset="0.5621" stop-color="#ABC8FF"/>
<stop offset="0.8122" stop-color="#9ABDFF"/>
<stop offset="0.9987" stop-color="#94B9FF"/>
</linearGradient>
<linearGradient id="paint21_linear" x1="144.893" y1="109.408" x2="147.124" y2="109.408" gradientUnits="userSpaceOnUse">
<stop stop-color="#666666"/>
<stop offset="0.056" stop-color="#737373"/>
<stop offset="0.2845" stop-color="#A5A5A5"/>
<stop offset="0.5004" stop-color="#CCCCCC"/>
<stop offset="0.6978" stop-color="#E8E8E8"/>
<stop offset="0.8702" stop-color="#F9F9F9"/>
<stop offset="0.9987" stop-color="white"/>
</linearGradient>
<linearGradient id="paint22_linear" x1="144.893" y1="109.408" x2="147.124" y2="109.408" gradientUnits="userSpaceOnUse">
<stop stop-color="#E9F2FF"/>
<stop offset="0.2774" stop-color="#C7DBFF"/>
<stop offset="0.5621" stop-color="#ABC8FF"/>
<stop offset="0.8122" stop-color="#9ABDFF"/>
<stop offset="0.9987" stop-color="#94B9FF"/>
</linearGradient>
</defs>
</svg>
