<svg width="162" height="210" viewBox="0 0 162 210" fill="none" xmlns="http://www.w3.org/2000/svg">
<path opacity="0.5" d="M113.218 27.9424H79.013C77.6303 27.9424 76.3044 28.4916 75.3267 29.4693C74.349 30.4469 73.7998 31.7729 73.7998 33.1555V46.1884C73.7998 47.5711 74.349 48.897 75.3267 49.8747C76.3044 50.8524 77.6303 51.4016 79.013 51.4016H104.173L110.474 57.703V51.4016H113.205C114.584 51.3914 115.904 50.8388 116.88 49.8634C117.855 48.8879 118.408 47.5679 118.418 46.1884V33.1555C118.409 31.7778 117.859 30.4587 116.886 29.4833C115.913 28.5078 114.596 27.9543 113.218 27.9424Z" fill="#AEADF6"/>
<path opacity="0.4" d="M112.97 35.7764H79.2737C78.8491 35.7747 78.4423 35.6052 78.1421 35.305C77.8418 35.0047 77.6724 34.598 77.6707 34.1734C77.6724 33.7487 77.8418 33.342 78.1421 33.0417C78.4423 32.7415 78.8491 32.572 79.2737 32.5703H112.97C113.395 32.572 113.802 32.7415 114.102 33.0417C114.402 33.342 114.572 33.7487 114.573 34.1734C114.572 34.598 114.402 35.0047 114.102 35.305C113.802 35.6052 113.395 35.7747 112.97 35.7764Z" fill="white"/>
<path opacity="0.4" d="M106.31 41.792H79.2737C78.8485 41.792 78.4408 41.6231 78.1402 41.3225C77.8395 41.0219 77.6707 40.6141 77.6707 40.189C77.6724 39.7644 77.8418 39.3576 78.1421 39.0574C78.4423 38.7571 78.8491 38.5877 79.2737 38.5859H106.31C106.735 38.5877 107.142 38.7571 107.442 39.0574C107.742 39.3576 107.912 39.7644 107.914 40.189C107.914 40.6141 107.745 41.0219 107.444 41.3225C107.143 41.6231 106.736 41.792 106.31 41.792Z" fill="white"/>
<path opacity="0.5" d="M49.689 0.586914H83.8808C85.2634 0.586914 86.5894 1.13616 87.5671 2.11381C88.5448 3.09147 89.094 4.41746 89.094 5.80007V18.833C89.094 20.2156 88.5448 21.5416 87.5671 22.5192C86.5894 23.4969 85.2634 24.0461 83.8808 24.0461H58.7339L52.4324 30.3475V24.0461H49.689C48.3096 24.0359 46.9895 23.4834 46.0141 22.5079C45.0386 21.5325 44.4861 20.2124 44.4759 18.833V5.80007C44.4861 4.42062 45.0386 3.10057 46.0141 2.12512C46.9895 1.14968 48.3096 0.597145 49.689 0.586914Z" fill="#AEADF6"/>
<path opacity="0.4" d="M49.9497 8.41996H83.6463C84.0714 8.41996 84.4792 8.25106 84.7798 7.95044C85.0804 7.64981 85.2493 7.24207 85.2493 6.81691C85.2476 6.39229 85.0782 5.98554 84.7779 5.68528C84.4777 5.38503 84.0709 5.21558 83.6463 5.21387H49.9497C49.5251 5.21558 49.1184 5.38503 48.8181 5.68528C48.5178 5.98554 48.3484 6.39229 48.3467 6.81691C48.3467 7.24207 48.5156 7.64981 48.8162 7.95044C49.1168 8.25106 49.5246 8.41996 49.9497 8.41996Z" fill="white"/>
<path opacity="0.4" d="M75.3963 14.4229H83.6462C84.0708 14.4212 84.4775 14.2517 84.7778 13.9515C85.0781 13.6512 85.2475 13.2445 85.2492 12.8198C85.2492 12.3947 85.0803 11.9869 84.7797 11.6863C84.4791 11.3857 84.0713 11.2168 83.6462 11.2168H75.3963C74.9723 11.2185 74.5662 11.3882 74.267 11.6886C73.9678 11.9891 73.7998 12.3958 73.7998 12.8198C73.7998 13.2439 73.9678 13.6506 74.267 13.9511C74.5662 14.2515 74.9723 14.4212 75.3963 14.4229Z" fill="white"/>
<path opacity="0.4" d="M56.0622 14.4229H69.5252C69.9498 14.4212 70.3566 14.2517 70.6568 13.9515C70.9571 13.6512 71.1265 13.2445 71.1282 12.8198C71.1282 12.3947 70.9593 11.9869 70.6587 11.6863C70.3581 11.3857 69.9503 11.2168 69.5252 11.2168H56.0622C55.6371 11.2168 55.2293 11.3857 54.9287 11.6863C54.6281 11.9869 54.4592 12.3947 54.4592 12.8198C54.4592 13.245 54.6281 13.6527 54.9287 13.9534C55.2293 14.254 55.6371 14.4229 56.0622 14.4229Z" fill="white"/>
<path d="M146.784 153.365H88.6899C91.1336 148.047 95.5778 144.789 100.38 144.789H142.874L146.784 153.365Z" fill="#4F4F4F"/>
<path d="M119.167 207.288H121.663L117.05 153.357H114.554L119.167 207.288Z" fill="#5856D6"/>
<path opacity="0.6" d="M119.167 207.288H121.663L117.05 153.357H114.554L119.167 207.288Z" fill="#828282"/>
<path d="M93.6359 207.288H91.1401L95.7537 153.357H98.2495L93.6359 207.288Z" fill="#5856D6"/>
<path opacity="0.6" d="M93.6359 207.288H91.1401L95.7537 153.357H98.2495L93.6359 207.288Z" fill="#828282"/>
<path d="M158.611 153.365H130.552C132.995 148.047 137.433 144.789 142.236 144.789H152.167C156.969 144.789 159.335 147.559 158.611 153.365Z" fill="#263238"/>
<path opacity="0.5" d="M158.611 153.365H130.552C132.995 148.047 137.433 144.789 142.236 144.789H152.167C156.969 144.789 159.335 147.559 158.611 153.365Z" fill="#4F4F4F"/>
<path d="M157.412 207.288H159.908L155.295 153.357H152.799L157.412 207.288Z" fill="#5856D6"/>
<path opacity="0.6" d="M157.412 207.288H159.908L155.295 153.357H152.799L157.412 207.288Z" fill="#828282"/>
<path d="M131.881 207.288H129.385L133.999 153.357H136.495L131.881 207.288Z" fill="#5856D6"/>
<path opacity="0.6" d="M131.881 207.288H129.385L133.999 153.357H136.495L131.881 207.288Z" fill="#828282"/>
<path d="M77.977 201.945L73.0049 200.088L75.5659 187.961L80.5315 189.818L77.977 201.945Z" fill="#FFC3BD"/>
<path d="M73.0701 198.568L78.6416 200.647C78.6892 200.662 78.7334 200.686 78.7716 200.718C78.8099 200.75 78.8414 200.789 78.8644 200.833C78.8874 200.878 78.9015 200.926 78.9057 200.976C78.91 201.025 78.9044 201.075 78.8892 201.123L77.5143 205.632C77.429 205.865 77.2551 206.055 77.0304 206.16C76.8057 206.265 76.5486 206.277 76.3152 206.193C74.3603 205.437 73.6109 205.026 71.2324 203.938C69.7662 203.286 65.5761 201.331 63.6864 200.165C61.7966 198.999 63.0347 197.154 63.9144 197.487C66.0583 198.262 70.2875 199.129 72.0991 198.555C72.4152 198.452 72.7568 198.456 73.0701 198.568Z" fill="#263238"/>
<path opacity="0.2" d="M80.5314 189.817L75.5594 187.967L74.2496 194.216L79.2151 196.073L80.5314 189.817Z" fill="black"/>
<path d="M118.561 125.702C118.561 125.702 79.4952 127.69 79.3714 142.88C79.189 164.716 72.4575 189.831 72.4575 189.831L81.6782 192.854C81.6782 192.854 93.9161 167.029 93.7988 149.982C104.512 146.959 132.337 148.927 135.615 140.051C137.215 135.45 137.639 130.522 136.846 125.715L118.561 125.702Z" fill="#5856D6"/>
<path opacity="0.3" d="M98.4712 139.646C98.4712 139.646 99.4487 144.032 100.133 148.841C97.9939 149.063 95.8745 149.444 93.7924 149.982C93.7974 151.638 93.7082 153.294 93.5252 154.941C87.1521 145.44 94.0009 139.646 98.4712 139.646Z" fill="black"/>
<path d="M81.9585 195.459L71.3627 191.51L71.9101 187.235L83.6984 191.465L81.9585 195.459Z" fill="#4441D7"/>
<path d="M131.249 85.4489C129.887 87.0389 128.518 88.466 127.111 89.9387C125.703 91.4114 124.263 92.806 122.771 94.1809C121.279 95.5559 119.76 96.9113 118.209 98.2146C116.659 99.5179 115.003 100.782 113.309 101.994L113.022 102.196L112.899 102.261C112.069 102.707 111.143 102.944 110.201 102.952C109.562 102.962 108.925 102.892 108.304 102.744C107.359 102.517 106.44 102.194 105.561 101.779C104.074 101.065 102.65 100.226 101.306 99.2703C100.003 98.3645 98.7839 97.4066 97.611 96.4096C96.438 95.4125 95.3041 94.3895 94.1964 93.2686L96.64 90.1277L100.485 92.1739C101.788 92.8255 103.046 93.4771 104.316 94.0701C105.517 94.6471 106.756 95.1414 108.024 95.5494C108.516 95.7174 109.025 95.8268 109.543 95.8752C109.725 95.8752 109.862 95.8752 109.855 95.8752C109.849 95.8752 109.66 95.8296 109.295 96.0121L108.891 96.2792C110.325 95.0802 111.732 93.8095 113.127 92.5192C114.521 91.229 115.89 89.8736 117.252 88.5116C118.613 87.1497 119.956 85.7617 121.285 84.3672C122.615 82.9726 123.957 81.539 125.228 80.1836L131.249 85.4489Z" fill="#FFC3BD"/>
<path d="M98.1909 91.3671L95.2781 86.5449L91.3943 91.7255C91.3943 91.7255 93.8249 94.697 96.6922 94.3321L98.1909 91.3671Z" fill="#FFC3BD"/>
<path d="M92.2918 85.7458C90.8156 85.3515 89.3311 86.3513 89.1416 87.8674C89.0516 88.5872 89.2763 89.311 89.7581 89.8533L91.4205 91.7242L95.2782 86.5436L92.2918 85.7458Z" fill="#FFC3BD"/>
<path d="M124.185 80.1513C117.584 82.5885 114.078 90.0107 114.078 90.0107L119.005 99.1794C123.729 97.1918 129.952 92.3827 131.751 89.333C134.514 84.6672 129.34 78.2811 124.185 80.1513Z" fill="#AEADF6"/>
<path opacity="0.3" d="M124.687 89.3007C125.534 88.8511 124.582 93.2106 123.722 96.6382C122.548 97.4079 121.327 98.1043 120.067 98.7235C120.373 95.4457 122.536 90.4411 124.687 89.3007Z" fill="black"/>
<path d="M123.866 199.521L118.672 200.589L113.83 189.062L119.018 187.993L123.866 199.521Z" fill="#FFC3BD"/>
<path d="M117.955 199.891L123.651 198.184C123.697 198.167 123.746 198.16 123.795 198.163C123.844 198.165 123.892 198.177 123.936 198.199C123.98 198.22 124.02 198.25 124.053 198.286C124.085 198.323 124.11 198.365 124.126 198.412L125.769 202.836C125.842 203.073 125.819 203.329 125.704 203.549C125.589 203.769 125.392 203.934 125.156 204.009C123.162 204.576 122.178 204.746 119.676 205.502C118.131 205.971 114.032 207.678 111.856 207.222C109.679 206.766 110.194 204.615 111.159 204.615C113.439 204.615 116.085 202.009 117.173 200.471C117.364 200.197 117.638 199.994 117.955 199.891Z" fill="#263238"/>
<path opacity="0.2" d="M119.018 187.993L113.83 189.062L116.444 195.272L121.52 193.936L119.018 187.993Z" fill="black"/>
<path d="M131.796 125.741C131.796 125.741 93.4796 132.368 94.8676 143.818C96.8681 160.337 113.55 194.092 113.55 194.092L123.019 191.942C123.019 191.942 114.606 163.986 112.475 147.076C122.321 147.076 142.75 148.927 146.028 140.051C147.625 135.532 147.947 130.66 146.96 125.969L131.796 125.741Z" fill="#5856D6"/>
<path d="M123.559 191.969L112.325 195.058L110.344 190.379L122.738 187.231L123.559 191.969Z" fill="#4441D7"/>
<path d="M118.594 125.97H146.927C147.129 123.442 150.062 115.212 150.498 104.727C150.763 96.9576 151.701 89.2262 153.301 81.6192L153.692 79.9119C153.692 79.9119 152.258 79.6186 150.199 79.3124C148.491 79.0647 146.347 78.8106 144.249 78.7063C140.238 78.4781 136.218 78.4781 132.207 78.7063C130.356 78.8823 128.545 79.1886 127.104 79.4688C125.26 79.8402 124.172 80.153 124.172 80.153C124.172 80.153 121.663 107.392 118.594 125.97Z" fill="#AEADF6"/>
<path opacity="0.3" d="M150.499 104.732C150.763 96.9605 151.7 89.2269 153.301 81.6178C151.411 81.4549 148.172 81.6178 147.631 84.7001C147.071 87.9844 147.025 95.6608 150.499 104.732Z" fill="black"/>
<path d="M155.653 83.8789C156.376 85.508 156.956 87.0394 157.51 88.6424C158.064 90.2455 158.579 91.8485 159.015 93.4972C159.452 95.1459 159.863 96.8141 160.156 98.5474C160.496 100.337 160.679 102.154 160.703 103.976V104.562V104.94C160.684 105.218 160.645 105.495 160.586 105.768C160.517 106.087 160.419 106.399 160.293 106.7C160.009 107.374 159.58 107.977 159.035 108.465C158.563 108.884 158.017 109.211 157.425 109.43C156.649 109.712 155.827 109.844 155.001 109.821C154.42 109.808 153.84 109.749 153.268 109.645C152.312 109.468 151.373 109.213 150.459 108.883C149.599 108.576 148.785 108.231 147.99 107.899C144.907 106.495 141.964 104.805 139.199 102.848L141.056 99.3294C144.047 100.339 147.097 101.402 150.036 102.171C151.378 102.561 152.755 102.819 154.148 102.94C154.364 102.96 154.583 102.96 154.799 102.94C154.943 102.94 155.027 102.848 154.76 102.94C154.548 103.009 154.353 103.123 154.187 103.272C153.942 103.486 153.747 103.751 153.613 104.047C153.561 104.16 153.521 104.278 153.496 104.399C153.472 104.471 153.457 104.545 153.45 104.621C153.448 104.645 153.448 104.669 153.45 104.692V104.621L153.418 104.367C153.247 102.952 152.984 101.55 152.629 100.17C152.271 98.7299 151.834 97.2572 151.372 95.7975C150.909 94.3378 150.394 92.8586 149.873 91.3924C149.351 89.9262 148.778 88.4339 148.257 87.0655L155.653 83.8789Z" fill="#FFC3BD"/>
<path d="M153.705 79.9101C148.55 78.281 145.233 82.3994 146.673 89.5545C148.113 96.7095 149.932 99.3683 149.932 99.3683L162 97.6609C161.016 90.6623 158.989 81.5783 153.705 79.9101Z" fill="#AEADF6"/>
<path d="M144.464 78.659L144.725 78.457L148.452 78.8545C148.452 78.8545 146.934 82.8165 141.532 84.7193C136.13 86.6221 129.581 85.0517 129.424 82.1128C129.268 79.1738 129.894 78.8545 129.894 78.8545L132.976 78.5678L133.171 78.9001L144.464 78.659Z" fill="#9796FF"/>
<path d="M144.002 65.2021L140.782 67.8739L136.39 71.5166C136.521 72.101 136.614 72.693 136.671 73.2891C136.905 75.6676 136.293 77.8506 132.761 78.6651C132.761 78.6651 129.313 81.8843 136.201 81.9755C143.089 82.0667 144.673 78.7173 144.673 78.7173C142.099 76.1498 143.109 69.0794 144.002 65.2021Z" fill="#FFC3BD"/>
<path opacity="0.2" d="M136.39 71.5187C136.521 72.103 136.614 72.695 136.671 73.2911C138.306 72.9653 140.496 71.2189 140.724 69.5442C140.802 68.9918 140.822 68.4326 140.782 67.876L136.39 71.5187Z" fill="black"/>
<path d="M133.23 60.7249C132.696 61.0833 131.438 59.6041 131.047 58.5159C130.956 57.2126 130.467 51.9082 133.868 51.7518C136.599 51.628 139.525 52.8596 139.427 54.1498C139.297 55.7138 137.596 57.8381 133.23 60.7249Z" fill="#263238"/>
<path d="M145.331 59.6184C144.21 64.7729 143.819 67.8357 140.769 70.1881C139.787 70.9573 138.614 71.4444 137.377 71.5969C136.139 71.7494 134.882 71.5615 133.743 71.0536C132.604 70.5456 131.625 69.7368 130.911 68.714C130.197 67.6912 129.775 66.4931 129.691 65.2486C129.294 60.4525 131.19 52.8348 136.612 51.3751C137.777 51.0295 139.013 50.9962 140.195 51.2786C141.377 51.561 142.464 52.1492 143.347 52.9841C144.23 53.8191 144.878 54.8715 145.226 56.0359C145.575 57.2003 145.611 58.4357 145.331 59.6184Z" fill="#FFC3BD"/>
<path d="M144.308 63.509C143.767 63.8543 140.998 63.0398 141.486 61.9906C142.353 60.9936 139.981 55.3439 143.298 54.5684C145.957 53.9168 149.899 54.9724 149.997 56.2627C150.14 58.2241 148.146 61.0523 144.308 63.509Z" fill="#263238"/>
<path d="M143.33 56.2102C140.352 56.2102 132.467 54.4899 131.777 50.997C131.125 47.6085 136.293 47.1719 136.293 47.1719C136.293 47.1719 134.735 48.1103 135.863 48.5338C139.772 50 149.99 48.6251 149.997 52.952C149.997 55.324 148.237 56.2102 143.33 56.2102Z" fill="#263238"/>
<path d="M148.224 55.4297C148.302 55.2407 149.612 53.9895 151.287 55.8533C150.28 55.6242 149.255 55.4825 148.224 55.4297Z" fill="#263238"/>
<path d="M148.511 54.9908C148.635 55.1472 150.257 55.9617 151.313 53.6875C150.418 54.2004 149.48 54.6364 148.511 54.9908Z" fill="#263238"/>
<path d="M146.914 63.5147C146.347 64.5123 145.433 65.2679 144.347 65.639C142.939 66.0952 142.177 64.5508 142.633 63.1693C143.05 61.9312 144.425 60.478 145.807 60.6279C147.188 60.7778 147.612 62.2765 146.914 63.5147Z" fill="#FFC3BD"/>
<path d="M142.47 100.012L138.117 97.7773L137.85 103.499C137.85 103.499 142.164 105.63 143.063 103.316L142.47 100.012Z" fill="#FFC3BD"/>
<path d="M136.149 97.8322C135.229 97.8546 134.403 98.4017 134.023 99.2401C133.464 100.476 134.04 101.929 135.294 102.445L137.85 103.499L138.117 97.7842L136.149 97.8322Z" fill="#FFC3BD"/>
<path d="M28 127L139 127V123L28 123V127Z" fill="#828282"/>
<path d="M153.138 208.683H120.334V126.511H121.637V207.38H151.834V126.511H153.138V208.683Z" fill="#828282"/>
<path d="M61.6206 208.683H28.8168V126.511H30.1201V207.38H60.3173V126.511H61.6206V208.683Z" fill="#828282"/>
<path d="M52.2889 121H107.711C108.053 121 108.381 121.211 108.622 121.586C108.864 121.961 109 122.47 109 123H51C51 122.737 51.0333 122.477 51.0981 122.235C51.1629 121.992 51.2578 121.772 51.3775 121.586C51.4972 121.4 51.6393 121.253 51.7957 121.152C51.952 121.052 52.1196 121 52.2889 121Z" fill="#828282"/>
<path d="M92.2871 121H108.693C109.04 121 109.372 121.211 109.617 121.586C109.862 121.961 110 122.47 110 123H91C91 122.475 91.135 121.971 91.3758 121.596C91.6166 121.222 91.944 121.008 92.2871 121Z" fill="#BDBDBD"/>
<path d="M49.1809 92.6761H87.5171C88.1483 92.6961 88.7531 92.9344 89.2283 93.3503C89.7036 93.7661 90.02 94.3339 90.1237 94.9568L93.5579 119.068C93.6057 119.35 93.5908 119.64 93.5142 119.916C93.4376 120.192 93.3011 120.448 93.1146 120.666C92.9281 120.884 92.696 121.058 92.4347 121.176C92.1735 121.293 91.8895 121.352 91.603 121.348H53.2602C52.6286 121.33 52.0232 121.092 51.5477 120.676C51.0722 120.26 50.7561 119.691 50.6536 119.068L47.2194 94.9568C47.1715 94.6737 47.1866 94.3834 47.2635 94.1068C47.3405 93.8301 47.4775 93.5738 47.6647 93.356C47.852 93.1383 48.0849 92.9645 48.347 92.847C48.609 92.7294 48.8937 92.6711 49.1809 92.6761Z" fill="#BDBDBD"/>
<path d="M47.8775 92.6761H86.2137C86.8449 92.6961 87.4497 92.9344 87.925 93.3503C88.4002 93.7661 88.7166 94.3339 88.8203 94.9568L92.2545 119.068C92.3023 119.35 92.2874 119.64 92.2108 119.916C92.1342 120.192 91.9978 120.448 91.8112 120.666C91.6247 120.884 91.3926 121.058 91.1314 121.176C90.8701 121.293 90.5862 121.352 90.2996 121.348H51.9568C51.3252 121.33 50.7198 121.092 50.2443 120.676C49.7688 120.26 49.4527 119.691 49.3502 119.068L45.916 94.9568C45.8681 94.6737 45.8832 94.3834 45.9602 94.1068C46.0371 93.8301 46.1741 93.5738 46.3614 93.356C46.5486 93.1383 46.7815 92.9645 47.0436 92.847C47.3056 92.7294 47.5903 92.6711 47.8775 92.6761Z" fill="#F2F2F2"/>
<g filter="url(#filter0_i)">
<path d="M68.6304 103.298C68.7794 103.216 68.9631 103.318 68.9718 103.488L69.322 110.384C69.3264 110.472 69.2813 110.554 69.2053 110.597L68.1935 111.168C68.0449 111.252 67.8598 111.151 67.8503 110.981L67.4654 104.091C67.4605 104.002 67.5066 103.919 67.5841 103.876L68.6304 103.298Z" fill="#5856D6"/>
<path d="M70.8255 109.563C70.6764 109.647 70.4908 109.545 70.4821 109.374L70.262 105.039C70.2555 104.912 70.3533 104.803 70.4803 104.797L71.5166 104.744C71.6436 104.738 71.7518 104.836 71.7582 104.963L71.9521 108.78C71.9565 108.867 71.9114 108.949 71.8354 108.992L70.8255 109.563Z" fill="#5856D6"/>
<path d="M66.1592 105.033C66.3082 104.948 66.4938 105.051 66.5025 105.222L66.7227 109.557C66.7291 109.684 66.6314 109.792 66.5043 109.799L65.4681 109.851C65.341 109.858 65.2328 109.76 65.2264 109.633L65.0325 105.816C65.0281 105.729 65.0733 105.646 65.1492 105.603L66.1592 105.033Z" fill="#5856D6"/>
</g>
<path d="M155 123H106V127H155V123Z" fill="#4F4F4F"/>
<path d="M10.3297 55.7586L8.94818 59.8835C8.479 61.2585 8.00981 62.64 7.57321 64.015C7.13661 65.3899 6.70001 66.7649 6.31554 68.1268C6.12656 68.8111 5.93759 69.4823 5.76816 70.1535L5.5466 71.1179C5.50617 71.3438 5.48439 71.5726 5.48144 71.8021C5.48742 73.1139 5.61173 74.4225 5.85287 75.712C6.07443 77.1 6.36767 78.5075 6.66743 79.9216C7.31907 82.7432 7.97071 85.604 8.69404 88.393L6.08746 89.3444C4.80316 86.63 3.66762 83.8477 2.68588 81.0099C2.18411 79.5828 1.741 78.1361 1.34349 76.6373C0.904717 75.0619 0.62528 73.4464 0.509389 71.8152C0.482853 71.3085 0.500297 70.8005 0.561522 70.2968L0.737469 69.0848C0.874314 68.3093 1.01768 67.5404 1.18711 66.7975C1.51944 65.2987 1.88436 63.8325 2.30141 62.3859C2.71846 60.9392 3.13552 59.4991 3.6047 58.0785C4.07388 56.6579 4.53655 55.2438 5.08393 53.8232L10.3297 55.7586Z" fill="#FF8B7B"/>
<path d="M8.43987 87.7754L11.6981 91.6201L6.84986 93.6272C6.84986 93.6272 4.96009 90.7013 5.80071 88.2837L8.43987 87.7754Z" fill="#FF8B7B"/>
<path d="M11.0596 96.0904L7.60583 96.5075L6.85645 93.6272L11.7047 91.6201L11.0596 96.0904Z" fill="#FF8B7B"/>
<path d="M18.0386 204.165C17.5507 204.153 17.0656 204.087 16.592 203.969C16.568 203.962 16.5463 203.949 16.5292 203.93C16.512 203.912 16.5 203.889 16.4942 203.865C16.4902 203.84 16.4937 203.814 16.5041 203.791C16.5145 203.768 16.5315 203.748 16.5529 203.735C16.7419 203.611 18.397 202.542 19.0357 202.829C19.1064 202.862 19.1672 202.913 19.2118 202.977C19.2564 203.041 19.2834 203.116 19.2898 203.194C19.3153 203.317 19.3088 203.444 19.2712 203.564C19.2336 203.684 19.166 203.792 19.0748 203.878C18.7749 204.095 18.4072 204.196 18.0386 204.165ZM16.9634 203.78C17.9083 203.976 18.6251 203.943 18.9184 203.689C18.9782 203.63 19.0221 203.556 19.046 203.475C19.07 203.394 19.0731 203.309 19.0552 203.226C19.0528 203.192 19.0413 203.159 19.0218 203.13C19.0024 203.101 18.9757 203.078 18.9444 203.064C18.5925 202.914 17.6346 203.396 16.9634 203.78Z" fill="#5856D6"/>
<path d="M16.6245 203.97H16.5593C16.5402 203.958 16.5243 203.942 16.5129 203.923C16.5016 203.903 16.4951 203.881 16.4942 203.859C16.4942 203.787 16.4942 202.217 17.0937 201.696C17.1654 201.626 17.252 201.574 17.3469 201.544C17.4418 201.513 17.5425 201.505 17.6411 201.52C17.7438 201.52 17.8432 201.556 17.9227 201.622C18.0021 201.687 18.0568 201.777 18.0777 201.878C18.2015 202.53 17.211 203.67 16.6897 203.97C16.6684 203.976 16.6458 203.976 16.6245 203.97ZM17.5498 201.761C17.446 201.762 17.3463 201.801 17.2696 201.872C16.9258 202.378 16.7482 202.98 16.7613 203.592C17.2827 203.175 17.9017 202.289 17.8235 201.917C17.8235 201.858 17.7779 201.78 17.6085 201.761H17.5498Z" fill="#5856D6"/>
<path d="M17.1067 34.666C17.7584 37.9242 19.0617 44.4407 16.8135 46.6237C16.8135 46.6237 17.6932 49.8819 23.7144 49.8819C30.3352 49.8819 26.8749 46.6237 26.8749 46.6237C23.2648 45.7635 23.356 43.0853 23.9881 40.5634L17.1067 34.666Z" fill="#FF8B7B"/>
<path d="M10.2775 203.846H15.7383L15.3082 191.204H9.84744L10.2775 203.846Z" fill="#FF8B7B"/>
<path d="M16.1684 203.214H10.0364C9.93073 203.211 9.82778 203.248 9.74724 203.316C9.6667 203.385 9.61423 203.481 9.59984 203.585L8.90259 208.434C8.88877 208.556 8.9011 208.68 8.93875 208.798C8.9764 208.915 9.03853 209.024 9.12103 209.115C9.20353 209.207 9.30454 209.28 9.4174 209.33C9.53026 209.38 9.65241 209.405 9.77579 209.405C11.9132 209.372 12.9428 209.242 15.6406 209.242C17.3023 209.242 19.7264 209.418 22.0137 209.418C24.3009 209.418 24.4248 207.15 23.4734 206.948C19.1986 206.023 18.5209 204.758 17.0807 203.546C16.8243 203.333 16.5018 203.216 16.1684 203.214Z" fill="#263238"/>
<g opacity="0.2">
<path opacity="0.2" d="M9.84744 191.204H15.3082L15.5233 197.721H10.0625L9.84744 191.204Z" fill="black"/>
</g>
<path d="M17.1524 27.908C16.8527 33.3167 16.605 35.5974 18.9966 38.6732C22.5871 43.2999 29.2925 42.4918 31.2084 37.2787C32.9287 32.5934 33.1633 24.5325 28.1261 21.7761C27.0254 21.164 25.7866 20.8434 24.5272 20.8447C23.2678 20.846 22.0296 21.1692 20.9302 21.7835C19.8308 22.3979 18.9066 23.283 18.2454 24.3549C17.5843 25.4268 17.208 26.6499 17.1524 27.908Z" fill="#FF8B7B"/>
<path d="M27.6438 80.9649C27.6438 80.9649 24.4703 118.428 21.186 139.541C18.5338 156.595 16.4355 196.462 16.4355 196.462H8.99376C8.99376 196.462 5.4488 157.963 6.79771 141.073C10.2058 98.3964 4.19114 90.8373 11.3266 80.9453L27.6438 80.9649Z" fill="#4645AB"/>
<path opacity="0.07" d="M19.3028 101.187C19.6156 112.395 21.7269 119.335 23.3951 123.076C24.2683 115.764 25.0699 108.133 25.741 101.402C23.4538 93.7777 19.0617 92.7481 19.3028 101.187Z" fill="black"/>
<path d="M17.9344 199.732L23.0238 201.707L25.0243 196.976L27.6439 190.785L27.9502 190.062L22.8674 188.081L22.5155 188.896L19.9806 194.891L17.9344 199.732Z" fill="#FF8B7B"/>
<path opacity="0.2" d="M19.9805 194.893L25.0243 196.978L27.6439 190.787L22.5154 188.897L19.9805 194.893Z" fill="black"/>
<path d="M33.4956 80.9648C33.4956 80.9648 41.6607 118.2 41.6607 137.365C41.6607 154.679 27.0899 195.113 27.0899 195.113L20.176 192.266C20.176 192.266 28.2694 144.872 27.1029 139.32C23.7209 123.211 18.0907 88.4913 18.1493 80.9648H33.4956Z" fill="#4645AB"/>
<path d="M23.2779 200.952L17.967 197.889C17.8752 197.835 17.767 197.817 17.6626 197.837C17.5582 197.858 17.4648 197.915 17.4 198L14.3764 201.851C14.2998 201.951 14.2457 202.067 14.2178 202.191C14.19 202.314 14.189 202.442 14.215 202.565C14.2409 202.689 14.2933 202.806 14.3683 202.907C14.4434 203.009 14.5395 203.093 14.6501 203.154C16.5203 204.19 17.4782 204.594 19.8111 205.943C21.2513 206.771 24.3727 208.941 26.6404 209.384C28.9081 209.827 29.449 207.631 28.5497 207.247C24.5356 205.507 24.5486 203.493 23.9035 201.721C23.793 201.398 23.5712 201.125 23.2779 200.952Z" fill="#263238"/>
<path d="M27.6244 196.488L18.7294 193.204L19.57 189.613L29.0906 193.126L27.6244 196.488Z" fill="#3635A6"/>
<path d="M17.4586 196.607H7.9772L7.47543 193.283L17.5108 192.944L17.4586 196.607Z" fill="#3635A6"/>
<path d="M2.70541 56.5221L8.18574 60.8882L11.4765 63.4947C11.4765 63.4947 11.8219 62.5759 12.239 61.2596C13.034 58.7182 14.0701 54.691 13.3533 52.8404C12.2259 49.908 10.0951 47.2623 7.39725 47.8488C5.12953 48.3636 2.70541 56.5221 2.70541 56.5221Z" fill="#5856D6"/>
<path opacity="0.2" d="M8.90259 61.4554L11.5092 63.5146C11.5092 63.5146 11.8545 62.5958 12.2716 61.2795L10.3167 51.6025L8.90259 61.4554Z" fill="black"/>
<path d="M36.1022 48.0245C36.1022 48.0245 38.7088 48.9368 33.4956 80.9651H11.3397C11.7111 71.9463 11.7242 66.3813 7.42984 47.8616C10.5344 47.221 13.6815 46.8072 16.8461 46.6234C20.1956 46.382 23.5581 46.382 26.9075 46.6234C31.2018 47.0014 36.1022 48.0245 36.1022 48.0245Z" fill="#5856D6"/>
<path d="M39.3083 54.2871C39.3995 55.4731 39.5103 56.7699 39.6472 58.0145C39.784 59.2592 39.9469 60.5168 40.1229 61.755C40.4564 64.1927 40.9638 66.6034 41.6412 68.9687C41.9596 70.0621 42.3716 71.1261 42.8728 72.1487C43.2209 72.8649 43.6757 73.524 44.2217 74.1036C44.339 74.2079 44.3195 74.2666 44.528 74.2991C44.8806 74.2675 45.2193 74.1464 45.512 73.9473C46.4256 73.3335 47.2464 72.5918 47.9491 71.7447L50.4058 73.0024C50.1633 73.7113 49.8558 74.3963 49.487 75.0485C49.1043 75.7391 48.6358 76.3785 48.0925 76.9513C47.4348 77.6599 46.617 78.2006 45.7075 78.5283C44.5666 78.9294 43.316 78.8828 42.2081 78.398C41.2808 77.9964 40.4532 77.3957 39.784 76.6385C39.2541 76.0328 38.7828 75.3782 38.3765 74.6836C37.6414 73.4087 37.0346 72.0641 36.5649 70.6695C35.6907 68.057 35.0368 65.3759 34.6099 62.6542C34.3797 61.3249 34.1972 59.989 34.0626 58.6466C33.9192 57.2977 33.8019 56.0009 33.7433 54.5869L39.3083 54.2871Z" fill="#FF8B7B"/>
<path d="M36.1022 48.0246C38.8196 48.6762 42.0843 58.5161 42.0843 58.5161L32.7462 65.1368C32.7462 65.1368 29.0254 54.9646 29.9181 52.1039C30.85 49.0802 32.8114 47.2231 36.1022 48.0246Z" fill="#5856D6"/>
<path d="M29.3316 30.4374C29.8204 28.1371 30.8174 27.9481 30.9803 25.4979C31.0976 23.7906 29.3838 21.6272 26.308 19.8482C23.2322 18.0692 14.0831 20.3825 15.5884 22.5395C12.7994 22.5395 10.8184 26.332 12.239 30.7828C13.6596 35.2335 4.21073 47.8363 13.0796 52.5412C21.9485 57.246 29.7031 52.3978 32.4139 50.5146C30.7978 50.0975 30.0419 48.1947 30.5372 45.4448C31.0324 42.6948 30.9151 38.2441 29.7813 35.7809C28.6474 33.3177 28.9732 32.1577 29.3316 30.4374Z" fill="#EB5757"/>
<path d="M22.535 20.4992C24.92 17.5472 31.254 18.5443 32.44 22.9429C33.626 27.3415 28.2369 27.3741 25.7932 25.96C23.3495 24.5459 20.7169 22.7539 22.535 20.4992Z" fill="#EB5757"/>
<path d="M27.2398 30.7117C27.2555 31.7354 27.6185 32.7234 28.2694 33.5137C29.1492 34.589 30.2244 34.0872 30.4524 32.9273C30.6805 31.8781 30.5046 30.06 29.3772 29.4019C28.2499 28.7437 27.2594 29.5191 27.2398 30.7117Z" fill="#FF8B7B"/>
<path d="M47.2649 72.6627L48.8223 70.2256L52.0415 73.6988C52.0415 73.6988 49.6304 75.732 47.4799 74.748L47.2649 72.6627Z" fill="#FF8B7B"/>
<path d="M50.9834 69.5396C51.3295 69.4295 51.6931 69.3849 52.0555 69.408L52.6235 69.4442C53.1758 69.4794 53.6802 69.7703 53.9872 70.2308C54.2885 70.6828 54.2433 71.2819 53.8776 71.6835L52.0414 73.7L48.8223 70.2267L50.9834 69.5396Z" fill="#FF8B7B"/>
<path d="M10.9944 79.6683L9.99736 81.6233C9.91916 81.7797 10.1016 81.9361 10.3558 81.9361H33.6064C33.8019 81.9361 33.9714 81.8383 33.9844 81.708L34.1799 79.753C34.1799 79.6162 34.0235 79.4989 33.8019 79.4989H11.3593C11.2889 79.4921 11.218 79.5043 11.1538 79.534C11.0897 79.5638 11.0346 79.6102 10.9944 79.6683Z" fill="#5856D6"/>
<path opacity="0.2" d="M10.9944 79.6683L9.99736 81.6233C9.91916 81.7797 10.1016 81.9361 10.3558 81.9361H33.6064C33.8019 81.9361 33.9714 81.8383 33.9844 81.708L34.1799 79.753C34.1799 79.6162 34.0235 79.4989 33.8019 79.4989H11.3593C11.2889 79.4921 11.218 79.5043 11.1538 79.534C11.0897 79.5638 11.0346 79.6102 10.9944 79.6683Z" fill="black"/>
<defs>
<filter id="filter0_i" x="65.0322" y="103.27" width="6.9202" height="8.92934" filterUnits="userSpaceOnUse" color-interpolation-filters="sRGB">
<feFlood flood-opacity="0" result="BackgroundImageFix"/>
<feBlend mode="normal" in="SourceGraphic" in2="BackgroundImageFix" result="shape"/>
<feColorMatrix in="SourceAlpha" type="matrix" values="0 0 0 0 0 0 0 0 0 0 0 0 0 0 0 0 0 0 127 0" result="hardAlpha"/>
<feOffset dy="1"/>
<feGaussianBlur stdDeviation="0.5"/>
<feComposite in2="hardAlpha" operator="arithmetic" k2="-1" k3="1"/>
<feColorMatrix type="matrix" values="0 0 0 0 0 0 0 0 0 0 0 0 0 0 0 0 0 0 0.1 0"/>
<feBlend mode="normal" in2="shape" result="effect1_innerShadow"/>
</filter>
</defs>
</svg>
