<svg width="278" height="207" viewBox="0 0 278 207" fill="none" xmlns="http://www.w3.org/2000/svg">
<path d="M139 207C215.768 207 278 198.695 278 188.451C278 178.207 215.768 169.902 139 169.902C62.2324 169.902 0 178.207 0 188.451C0 198.695 62.2324 207 139 207Z" fill="#FFFBCF"/>
<path d="M199.382 188.999H195.955C192.08 188.999 188.935 185.866 188.935 182.005V157.444H128.853V182.005C128.853 185.866 125.708 188.999 121.832 188.999H118.406H199.382Z" fill="#0396C8"/>
<path d="M209.996 188.837H107.792V190.896H209.996V188.837Z" fill="white"/>
<path d="M210.177 191.076H107.611V188.657H210.177V191.076ZM107.972 190.721H209.816V189.021H107.972V190.721Z" fill="#0396C8"/>
<path d="M266.388 136.187V157.935C266.388 160.897 263.973 163.303 261 163.303H56.784C53.8104 163.303 51.3955 160.897 51.3955 157.935V136.187H266.388Z" fill="white"/>
<path d="M261.004 163.636H56.7838C53.6299 163.636 51.061 161.081 51.061 157.935V135.854H266.722V157.935C266.722 161.077 264.158 163.636 261.004 163.636ZM51.7296 136.52V157.935C51.7296 160.713 53.995 162.97 56.7838 162.97H261.004C263.793 162.97 266.058 160.713 266.058 157.935V136.52H51.7296Z" fill="#0396C8"/>
<path d="M262.121 0.451443C261.761 0.372568 261.387 0.33313 261.004 0.33313H56.784C56.4013 0.33313 56.0274 0.372568 55.6667 0.451443C53.2254 0.964134 51.3955 3.12006 51.3955 5.70105V136.836H266.388V5.70105C266.388 3.11568 264.558 0.959752 262.121 0.451443ZM259.205 129.877H58.5786V7.41002H259.205V129.877Z" fill="#04BFFF"/>
<path d="M266.722 137.169H51.061V5.70095C51.061 3.01918 52.9701 0.674824 55.5961 0.122695C55.9744 0.0438197 56.3747 0 56.7838 0H261.004C261.408 0 261.809 0.0438197 262.191 0.122695C264.822 0.674824 266.727 3.01918 266.727 5.70095V137.169H266.722ZM51.7296 136.503H266.054V5.70095C266.054 3.33468 264.369 1.26201 262.046 0.775609C261.712 0.701116 261.36 0.66606 260.999 0.66606H56.7838C56.4231 0.66606 56.0712 0.701116 55.7369 0.775609C53.4144 1.26201 51.7296 3.33468 51.7296 5.70095V136.503ZM259.539 130.21H58.2442V7.07689H259.539V130.21ZM58.9128 129.549H258.87V7.74295H58.9128V129.549Z" fill="white"/>
<path d="M165.253 151.125C166.076 147.626 163.897 144.125 160.384 143.304C156.872 142.484 153.357 144.655 152.533 148.154C151.71 151.653 153.889 155.155 157.402 155.975C160.914 156.796 164.429 154.624 165.253 151.125Z" fill="#0396C8"/>
<path d="M58.5791 7.40668L58.5791 129.878H259.205V7.40668L58.5791 7.40668Z" fill="#B2EBF3"/>
<path d="M63.2988 15.2504L63.2988 122.039L254.49 122.039V15.2504L63.2988 15.2504Z" fill="white"/>
<path d="M80.2375 50.3793C78.8299 50.3793 71.8052 50.3135 71.8052 49.0252C72.3726 42.3515 76.4634 39.9808 80.1056 39.9808C86.2814 39.9808 88.1465 46.2865 88.6655 48.9989C88.6655 50.3135 81.6451 50.3793 80.2375 50.3793Z" fill="#0396C8"/>
<path d="M80.1057 40.1343C86.022 40.1343 87.9487 46.0631 88.5117 49.0253C88.5117 49.8272 84.3725 50.2259 80.2333 50.2259C76.0941 50.2259 71.9549 49.8272 71.9549 49.0253C72.5575 41.9922 76.9606 40.1343 80.1057 40.1343ZM80.1057 39.8275C76.3976 39.8275 72.2276 42.2376 71.6514 48.999V49.0121V49.0253C71.6514 49.4372 71.9901 49.9061 74.5061 50.2303C76.0193 50.4275 78.0559 50.5327 80.2377 50.5327C82.4195 50.5327 84.4517 50.4231 85.9692 50.2303C88.4853 49.9061 88.824 49.4372 88.824 49.0253V48.9946L88.8196 48.9683C88.2918 46.2208 86.3959 39.8275 80.1057 39.8275Z" fill="white"/>
<path d="M80.2196 41.9573C79.7842 41.9573 79.3267 41.8127 78.8604 41.5322C78.5305 41.335 78.3678 40.945 78.4558 40.5682C78.7769 39.201 78.5217 37.7287 78.5173 37.7112L78.4865 37.5315H81.7592L81.7284 37.7112C81.724 37.7243 81.4645 39.2361 81.8032 40.6164C81.8911 40.9713 81.7416 41.3482 81.4381 41.5585C81.051 41.8214 80.6419 41.9573 80.2196 41.9573Z" fill="#0396C8"/>
<path d="M81.5746 37.6804C81.5746 37.6804 81.2975 39.2228 81.6494 40.6514C81.7242 40.9493 81.5966 41.2561 81.3459 41.4314C80.9896 41.6768 80.6157 41.8038 80.2198 41.8038C79.8151 41.8038 79.3885 41.6724 78.9398 41.4007C78.6671 41.2342 78.5307 40.9099 78.6055 40.5988C78.9398 39.1834 78.6671 37.6804 78.6671 37.6804H81.5746ZM81.9397 37.3737H81.5702H78.6671H78.302L78.368 37.733C78.3724 37.7461 78.6231 39.1966 78.3064 40.5287C78.2008 40.9713 78.3944 41.427 78.7814 41.6592C79.2741 41.9572 79.758 42.1062 80.2198 42.1062C80.6729 42.1062 81.1128 41.9616 81.5219 41.6811C81.8781 41.4357 82.0497 40.9888 81.9485 40.5769C81.6142 39.2272 81.8737 37.7505 81.8781 37.733L81.9397 37.3737Z" fill="white"/>
<path d="M79.9783 39.8846C79.8463 39.8846 79.7187 39.8758 79.5912 39.8539C79.3405 39.8145 79.1029 39.74 78.8742 39.6261C78.6587 39.5209 78.4519 39.3807 78.2628 39.2098C78.0824 39.052 77.9109 38.8636 77.7525 38.6489C77.5062 38.3202 77.2819 37.9259 77.0839 37.4745C76.908 37.067 76.7496 36.6113 76.6132 36.1205C76.4945 35.6779 76.3933 35.2046 76.3141 34.7183C76.2437 34.2757 76.191 33.8156 76.1646 33.3905C76.1514 33.1539 76.1426 32.9348 76.1426 32.742C76.1426 32.5448 76.1558 32.3476 76.1866 32.1548C76.2481 31.7517 76.3757 31.3617 76.5605 31.0023C76.7408 30.6474 76.9783 30.3275 77.2643 30.0427C77.4622 29.8455 77.6821 29.6658 77.9197 29.5168C78.1616 29.3635 78.4167 29.2408 78.685 29.1444C78.9578 29.048 79.2437 28.9822 79.5296 28.9472C79.6748 28.9297 79.8243 28.9209 79.9739 28.9209C80.1234 28.9209 80.273 28.9297 80.4181 28.9472C80.7085 28.9822 80.99 29.048 81.2671 29.1444C81.5354 29.2408 81.7906 29.3635 82.0325 29.5168C82.27 29.6658 82.4899 29.8455 82.6879 30.0427C82.9694 30.3231 83.2069 30.6474 83.3873 30.998C83.572 31.3573 83.6996 31.7473 83.7656 32.146C83.7964 32.3432 83.8096 32.5404 83.8096 32.7376C83.8096 32.926 83.8008 33.1407 83.7832 33.3774C83.7524 33.7937 83.6952 34.2494 83.616 34.7007C83.5324 35.1827 83.4225 35.6516 83.2949 36.0986C83.1542 36.585 82.9914 37.0407 82.8111 37.4482C82.6087 37.8996 82.3844 38.2939 82.1425 38.6226C81.9797 38.8417 81.8125 39.0345 81.6322 39.1966C81.4431 39.3675 81.2451 39.5121 81.0384 39.6173C80.8184 39.7312 80.5897 39.8101 80.3566 39.8495C80.229 39.8758 80.1058 39.8846 79.9783 39.8846Z" fill="#0396C8"/>
<path d="M79.9784 29.0699C80.1236 29.0699 80.2643 29.0786 80.4051 29.0962C80.6866 29.1268 80.9593 29.1926 81.2189 29.2846C81.4784 29.3766 81.7247 29.4993 81.9534 29.6439C82.1822 29.7885 82.3933 29.9594 82.5869 30.1478C82.8552 30.4151 83.0839 30.7262 83.2599 31.068C83.4358 31.4098 83.559 31.7823 83.6206 32.1723C83.6514 32.3607 83.6646 32.5491 83.6646 32.742C83.6646 32.9304 83.6558 33.1407 83.6382 33.3686C83.6074 33.7586 83.5546 34.2055 83.471 34.6744C83.3918 35.1214 83.2863 35.5902 83.1499 36.0591C83.0179 36.5148 82.8596 36.9662 82.6704 37.3912C82.4813 37.8119 82.2658 38.2019 82.0194 38.5393C81.8699 38.7453 81.7071 38.9293 81.5312 39.0914C81.3552 39.2536 81.1661 39.3894 80.9681 39.4946C80.7658 39.5997 80.5546 39.6742 80.3259 39.7093C80.2115 39.7268 80.0972 39.74 79.974 39.74C79.8508 39.74 79.7277 39.7312 79.6089 39.7137C79.367 39.6786 79.1427 39.6041 78.9315 39.499C78.7248 39.3938 78.5312 39.2623 78.3509 39.1046C78.1749 38.9468 78.0122 38.7672 77.8626 38.5656C77.6119 38.2282 77.3964 37.8382 77.2116 37.4175C77.0269 36.9925 76.8729 36.5411 76.7497 36.081C76.6222 35.6121 76.5254 35.1433 76.455 34.6919C76.3802 34.2187 76.3319 33.7717 76.3099 33.3773C76.2967 33.1451 76.2879 32.9304 76.2879 32.7376C76.2879 32.5448 76.3011 32.3563 76.3319 32.1723C76.3934 31.7779 76.5166 31.4055 76.6926 31.0637C76.8685 30.7219 77.0972 30.4107 77.37 30.1391C77.5591 29.9506 77.7702 29.7797 77.999 29.6351C78.2277 29.4905 78.474 29.3678 78.7336 29.2758C78.9931 29.1838 79.2658 29.1181 79.5473 29.0874C79.6881 29.0786 79.8333 29.0699 79.9784 29.0699ZM79.9784 28.785C79.8245 28.785 79.6705 28.7938 79.5165 28.8113C79.2174 28.8464 78.9227 28.9165 78.6412 29.0173C78.3641 29.1181 78.0958 29.2451 77.8494 29.4029C77.6031 29.5563 77.3744 29.7403 77.1676 29.9463C76.8729 30.2398 76.631 30.5729 76.4418 30.941C76.2483 31.3178 76.1163 31.721 76.0503 32.1372C76.0195 32.3388 76.002 32.5404 76.002 32.7463C76.002 32.9479 76.0108 33.167 76.0239 33.4036C76.0503 33.8375 76.1031 34.2888 76.1735 34.7445C76.2527 35.2353 76.3539 35.7129 76.4726 36.1643C76.609 36.6638 76.7673 37.1283 76.9477 37.5402C77.15 38.0047 77.3788 38.4078 77.6339 38.7453C77.801 38.9644 77.977 39.1615 78.1617 39.3237C78.3641 39.5033 78.5796 39.6523 78.8084 39.7619C79.0503 39.8802 79.3054 39.9634 79.5693 40.0029C79.7013 40.0248 79.8377 40.0336 79.974 40.0336C80.1104 40.0336 80.2423 40.0204 80.3743 40.0029C80.625 39.9591 80.867 39.8802 81.1001 39.7575C81.3156 39.6436 81.5268 39.4946 81.7247 39.3149C81.9095 39.1484 82.0854 38.9468 82.2526 38.719C82.4989 38.3816 82.732 37.9784 82.9344 37.5183C83.1191 37.1064 83.2863 36.6463 83.427 36.1511C83.559 35.6998 83.6646 35.2265 83.7525 34.7401C83.8317 34.2844 83.8933 33.8243 83.9241 33.4036C83.9417 33.1714 83.9505 32.9523 83.9505 32.7551C83.9505 32.5491 83.9329 32.3432 83.9021 32.1372C83.8361 31.721 83.7041 31.3178 83.5106 30.9453C83.3215 30.5773 83.0751 30.2442 82.7848 29.955C82.5781 29.7491 82.3493 29.565 82.103 29.4117C81.8523 29.2539 81.5884 29.1224 81.3112 29.026C81.0297 28.9253 80.7306 28.8551 80.4315 28.8201C80.2863 28.7938 80.1324 28.785 79.9784 28.785Z" fill="white"/>
<path d="M111.126 50.3793C109.718 50.3793 102.693 50.3135 102.693 49.0252C103.261 42.3515 107.352 39.9808 110.994 39.9808C117.17 39.9808 119.035 46.2865 119.554 48.9989C119.554 50.3135 112.533 50.3793 111.126 50.3793Z" fill="#0396C8"/>
<path d="M110.994 40.1343C116.91 40.1343 118.837 46.0631 119.4 49.0253C119.4 49.8272 115.261 50.2259 111.121 50.2259C106.982 50.2259 102.843 49.8272 102.843 49.0253C103.446 41.9922 107.844 40.1343 110.994 40.1343ZM110.994 39.8275C107.286 39.8275 103.116 42.2376 102.54 48.999V49.0121V49.0253C102.54 49.4372 102.878 49.9061 105.394 50.2303C106.908 50.4275 108.944 50.5327 111.126 50.5327C113.308 50.5327 115.34 50.4231 116.857 50.2303C119.374 49.9061 119.712 49.4372 119.712 49.0253V48.9946L119.708 48.9683C119.18 46.2208 117.284 39.8275 110.994 39.8275Z" fill="white"/>
<path d="M111.108 41.9573C110.672 41.9573 110.215 41.8127 109.749 41.5322C109.419 41.335 109.256 40.945 109.344 40.5682C109.665 39.201 109.41 37.7287 109.406 37.7112L109.375 37.5315H112.647L112.617 37.7112C112.612 37.7243 112.353 39.2361 112.691 40.6164C112.779 40.9713 112.63 41.3482 112.326 41.5585C111.939 41.8214 111.53 41.9573 111.108 41.9573Z" fill="#0396C8"/>
<path d="M112.463 37.6804C112.463 37.6804 112.186 39.2228 112.538 40.6514C112.612 40.9493 112.485 41.2561 112.234 41.4314C111.878 41.6768 111.504 41.8038 111.108 41.8038C110.703 41.8038 110.277 41.6724 109.828 41.4007C109.555 41.2342 109.419 40.9099 109.494 40.5988C109.828 39.1834 109.555 37.6804 109.555 37.6804H112.463ZM112.828 37.3737H112.458H109.555H109.19L109.256 37.733C109.261 37.7461 109.511 39.1966 109.195 40.5287C109.089 40.9713 109.283 41.427 109.67 41.6592C110.162 41.9572 110.646 42.1062 111.108 42.1062C111.561 42.1062 112.001 41.9616 112.41 41.6811C112.766 41.4357 112.938 40.9888 112.837 40.5769C112.502 39.2272 112.762 37.7505 112.766 37.733L112.828 37.3737Z" fill="white"/>
<path d="M110.866 39.8846C110.735 39.8846 110.607 39.8758 110.479 39.8539C110.233 39.8145 109.991 39.74 109.762 39.6261C109.547 39.5209 109.34 39.3807 109.147 39.2098C108.966 39.052 108.795 38.8636 108.636 38.6489C108.39 38.3202 108.166 37.9259 107.968 37.4745C107.792 37.067 107.633 36.6113 107.497 36.1205C107.378 35.6735 107.277 35.2046 107.198 34.7183C107.128 34.2757 107.075 33.8156 107.048 33.3905C107.035 33.1539 107.026 32.9348 107.026 32.742C107.026 32.5448 107.04 32.3476 107.07 32.1548C107.132 31.7517 107.259 31.366 107.444 31.0023C107.625 30.6474 107.862 30.3275 108.144 30.0427C108.342 29.8455 108.562 29.6702 108.799 29.5168C109.041 29.3635 109.296 29.2408 109.564 29.1444C109.837 29.048 110.123 28.9822 110.409 28.9472C110.554 28.9297 110.704 28.9209 110.853 28.9209C111.003 28.9209 111.152 28.9297 111.298 28.9472C111.588 28.9822 111.869 29.048 112.147 29.1444C112.415 29.2408 112.67 29.3635 112.912 29.5168C113.149 29.6658 113.369 29.8455 113.567 30.0427C113.849 30.3231 114.086 30.6474 114.267 30.998C114.451 31.3573 114.579 31.7473 114.641 32.146C114.671 32.3388 114.685 32.5404 114.685 32.7376C114.685 32.926 114.676 33.1407 114.658 33.3774C114.627 33.7937 114.57 34.2494 114.491 34.7007C114.407 35.1827 114.297 35.6516 114.17 36.0986C114.029 36.5894 113.866 37.0407 113.686 37.4482C113.484 37.8996 113.259 38.2939 113.017 38.6226C112.859 38.8417 112.688 39.0345 112.507 39.1966C112.318 39.3675 112.12 39.5121 111.913 39.6173C111.693 39.7312 111.465 39.8101 111.232 39.8495C111.117 39.8758 110.99 39.8846 110.866 39.8846Z" fill="#0396C8"/>
<path d="M110.867 29.0699C111.012 29.0699 111.153 29.0786 111.293 29.0962C111.575 29.1268 111.848 29.1926 112.107 29.2846C112.367 29.3766 112.613 29.4993 112.842 29.6439C113.07 29.7885 113.282 29.9594 113.475 30.1478C113.743 30.4151 113.972 30.7262 114.148 31.068C114.324 31.4098 114.447 31.7823 114.509 32.1723C114.54 32.3607 114.553 32.5491 114.553 32.742C114.553 32.9304 114.544 33.1407 114.526 33.3686C114.496 33.7586 114.443 34.2055 114.359 34.6744C114.28 35.1214 114.174 35.5902 114.038 36.0591C113.906 36.5148 113.748 36.9662 113.559 37.3912C113.369 37.8119 113.154 38.2019 112.908 38.5393C112.758 38.7453 112.595 38.9293 112.419 39.0914C112.243 39.2536 112.054 39.3894 111.856 39.4946C111.654 39.5997 111.443 39.6742 111.214 39.7093C111.1 39.7268 110.985 39.74 110.862 39.74C110.739 39.74 110.616 39.7312 110.497 39.7137C110.255 39.6786 110.031 39.6041 109.82 39.499C109.613 39.3938 109.419 39.2623 109.239 39.1046C109.063 38.9468 108.9 38.7672 108.751 38.5656C108.5 38.2282 108.285 37.8382 108.1 37.4175C107.915 36.9925 107.761 36.5411 107.638 36.081C107.51 35.6121 107.414 35.1433 107.343 34.6919C107.268 34.2187 107.22 33.7717 107.198 33.3773C107.185 33.1451 107.176 32.9304 107.176 32.7376C107.176 32.5448 107.189 32.3563 107.22 32.1723C107.282 31.7779 107.405 31.4055 107.581 31.0637C107.757 30.7219 107.985 30.4107 108.258 30.1391C108.447 29.9506 108.658 29.7797 108.887 29.6351C109.116 29.4905 109.362 29.3678 109.622 29.2758C109.881 29.1838 110.154 29.1181 110.436 29.0874C110.576 29.0786 110.721 29.0699 110.867 29.0699ZM110.867 28.785C110.713 28.785 110.559 28.7938 110.405 28.8113C110.106 28.8464 109.811 28.9165 109.529 29.0173C109.252 29.1181 108.984 29.2451 108.738 29.4029C108.491 29.5563 108.263 29.7403 108.056 29.9463C107.761 30.2398 107.519 30.5729 107.33 30.941C107.136 31.3178 107.005 31.721 106.939 32.1372C106.908 32.3388 106.89 32.5404 106.89 32.7463C106.89 32.9479 106.899 33.1714 106.912 33.4036C106.939 33.8375 106.991 34.2888 107.062 34.7445C107.141 35.2353 107.242 35.7129 107.361 36.1643C107.497 36.6638 107.656 37.1283 107.836 37.5402C108.038 38.0047 108.267 38.4078 108.522 38.7453C108.689 38.9644 108.865 39.1615 109.05 39.3237C109.252 39.5033 109.468 39.6523 109.697 39.7619C109.938 39.8802 110.194 39.9634 110.458 40.0029C110.589 40.0248 110.726 40.0336 110.862 40.0336C110.999 40.0336 111.131 40.0204 111.262 40.0029C111.513 39.9591 111.755 39.8802 111.988 39.7575C112.204 39.6436 112.415 39.4946 112.613 39.3149C112.798 39.1484 112.974 38.9468 113.141 38.719C113.387 38.3816 113.62 37.9784 113.823 37.5183C114.007 37.1064 114.174 36.6463 114.315 36.1511C114.447 35.6998 114.553 35.2265 114.641 34.7401C114.72 34.2844 114.781 33.8243 114.812 33.4036C114.83 33.1714 114.839 32.9523 114.839 32.7551C114.839 32.5491 114.821 32.3432 114.79 32.1372C114.724 31.721 114.592 31.3178 114.399 30.9453C114.21 30.5773 113.963 30.2442 113.673 29.955C113.466 29.7491 113.238 29.565 112.991 29.4117C112.74 29.2539 112.477 29.1224 112.199 29.026C111.918 28.9253 111.619 28.8551 111.32 28.8201C111.175 28.7938 111.021 28.785 110.867 28.785Z" fill="white"/>
<path d="M80.2375 108.248C78.8299 108.248 71.8052 108.182 71.8052 106.894C72.3726 100.22 76.4634 97.8491 80.1056 97.8491C86.2814 97.8491 88.1465 104.155 88.6655 106.867C88.6655 108.182 81.6451 108.248 80.2375 108.248Z" fill="#0396C8"/>
<path d="M80.1057 98.0025C86.022 98.0025 87.9487 103.931 88.5117 106.894C88.5117 107.695 84.3725 108.094 80.2333 108.094C76.0941 108.094 71.9549 107.695 71.9549 106.894C72.5575 99.8605 76.9606 98.0025 80.1057 98.0025ZM80.1057 97.6958C76.3976 97.6958 72.2276 100.106 71.6514 106.867V106.88V106.894C71.6514 107.305 71.9901 107.774 74.5061 108.099C76.0193 108.296 78.0559 108.401 80.2377 108.401C82.4195 108.401 84.4517 108.291 85.9692 108.099C88.4853 107.774 88.824 107.305 88.824 106.894V106.863L88.8196 106.837C88.2918 104.089 86.3959 97.6958 80.1057 97.6958Z" fill="white"/>
<path d="M80.2196 99.8255C79.7842 99.8255 79.3267 99.6808 78.8604 99.4004C78.5305 99.1988 78.3678 98.8132 78.4558 98.432C78.7769 97.0648 78.5217 95.5925 78.5173 95.5749L78.4865 95.3953H81.7592L81.7284 95.5749C81.724 95.5881 81.4645 97.0999 81.8032 98.4802C81.8911 98.8351 81.7416 99.212 81.4381 99.4223C81.051 99.6896 80.6419 99.8255 80.2196 99.8255Z" fill="#0396C8"/>
<path d="M81.5746 95.5487C81.5746 95.5487 81.2975 97.0911 81.6494 98.5197C81.7242 98.8176 81.5966 99.1244 81.3459 99.2997C80.9896 99.545 80.6157 99.6721 80.2198 99.6721C79.8151 99.6721 79.3885 99.5407 78.9398 99.269C78.6671 99.1025 78.5307 98.7782 78.6055 98.4671C78.9398 97.0517 78.6671 95.5487 78.6671 95.5487H81.5746ZM81.9397 95.2419H81.5702H78.6671H78.302L78.368 95.6013C78.3724 95.6144 78.6231 97.0648 78.3064 98.397C78.2008 98.8395 78.3944 99.2953 78.7814 99.5275C79.2741 99.8255 79.758 99.9745 80.2198 99.9745C80.6729 99.9745 81.1128 99.8299 81.5219 99.5494C81.8781 99.304 82.0497 98.8571 81.9485 98.4452C81.6142 97.0955 81.8737 95.6188 81.8781 95.6013L81.9397 95.2419Z" fill="white"/>
<path d="M79.9783 97.7529C79.8463 97.7529 79.7187 97.7441 79.5912 97.7222C79.3405 97.6828 79.1029 97.6083 78.8742 97.4944C78.6587 97.3892 78.4519 97.249 78.2628 97.0781C78.0868 96.9203 77.9153 96.7319 77.7525 96.5172C77.5062 96.1885 77.2819 95.7941 77.0839 95.3428C76.908 94.9353 76.7496 94.4796 76.6132 93.9888C76.4945 93.5462 76.3933 93.0729 76.3141 92.5865C76.2437 92.144 76.191 91.6839 76.1646 91.2588C76.1514 91.0222 76.1426 90.8031 76.1426 90.6103C76.1426 90.4131 76.1558 90.2159 76.1866 90.0231C76.2481 89.6199 76.3757 89.2299 76.5605 88.8706C76.7408 88.5157 76.9783 88.1958 77.2643 87.911C77.4622 87.7138 77.6821 87.5385 77.9197 87.3851C78.1572 87.2318 78.4167 87.1091 78.685 87.0127C78.9578 86.9163 79.2437 86.8505 79.5296 86.8155C79.6748 86.7979 79.8243 86.7892 79.9739 86.7892C80.1234 86.7892 80.273 86.7979 80.4181 86.8155C80.7085 86.8505 80.9944 86.9163 81.2671 87.0127C81.5354 87.1091 81.7906 87.2318 82.0325 87.3851C82.27 87.5341 82.4899 87.7094 82.6879 87.911C82.9694 88.1914 83.2069 88.5157 83.3873 88.8662C83.572 89.2256 83.6996 89.6156 83.7656 90.0143C83.7964 90.2115 83.8096 90.4087 83.8096 90.6059C83.8096 90.7943 83.8008 91.009 83.7832 91.2457C83.7524 91.6619 83.6952 92.1177 83.616 92.569C83.5324 93.051 83.4225 93.5199 83.2949 93.9669C83.1542 94.4533 82.9914 94.909 82.8111 95.3165C82.6087 95.7679 82.3844 96.1622 82.1425 96.4909C81.9797 96.71 81.8125 96.9028 81.6322 97.0649C81.4431 97.2402 81.2451 97.3804 81.0384 97.4856C80.8184 97.5995 80.5897 97.6784 80.3566 97.7178C80.2334 97.7441 80.1058 97.7529 79.9783 97.7529Z" fill="#0396C8"/>
<path d="M79.9784 86.9381C80.1236 86.9381 80.2643 86.9469 80.4051 86.9644C80.6866 86.9951 80.9593 87.0608 81.2189 87.1529C81.4784 87.2449 81.7247 87.3676 81.9534 87.5122C82.1822 87.6568 82.3933 87.8277 82.5869 88.0161C82.8552 88.2834 83.0839 88.5945 83.2599 88.9363C83.4358 89.2781 83.559 89.6506 83.6206 90.0406C83.6514 90.229 83.6646 90.4174 83.6646 90.6102C83.6646 90.7987 83.6558 91.009 83.6382 91.2369C83.6074 91.6269 83.5546 92.0738 83.471 92.5427C83.3918 92.9896 83.2863 93.4585 83.1499 93.9274C83.0179 94.3831 82.8596 94.8345 82.6704 95.2595C82.4813 95.6802 82.2658 96.0702 82.0194 96.4076C81.8699 96.6135 81.7071 96.7976 81.5312 96.9597C81.3552 97.1218 81.1661 97.2577 80.9681 97.3629C80.7658 97.468 80.5546 97.5425 80.3259 97.5776C80.2115 97.5951 80.0972 97.6082 79.974 97.6082C79.8508 97.6082 79.7277 97.5995 79.6089 97.582C79.367 97.5469 79.1427 97.4724 78.9315 97.3672C78.7248 97.2621 78.5312 97.1306 78.3509 96.9729C78.1749 96.8151 78.0122 96.6354 77.8626 96.4339C77.6119 96.0965 77.3964 95.7065 77.2116 95.2858C77.0269 94.8607 76.8729 94.4094 76.7497 93.9493C76.6222 93.4804 76.5254 93.0116 76.455 92.5602C76.3802 92.087 76.3319 91.64 76.3099 91.2456C76.2967 91.0134 76.2879 90.7987 76.2879 90.6059C76.2879 90.4131 76.3011 90.2246 76.3319 90.0406C76.3934 89.6462 76.5166 89.2737 76.6926 88.9319C76.8685 88.5901 77.0972 88.279 77.37 88.0073C77.5591 87.8189 77.7702 87.648 77.999 87.5034C78.2277 87.3588 78.474 87.2361 78.7336 87.1441C78.9931 87.0521 79.2658 86.9864 79.5473 86.9557C79.6881 86.9469 79.8333 86.9381 79.9784 86.9381ZM79.9784 86.6533C79.8245 86.6533 79.6705 86.6621 79.5165 86.6796C79.2174 86.7147 78.9227 86.7848 78.6412 86.8856C78.3641 86.9863 78.0958 87.1134 77.8494 87.2712C77.6031 87.4245 77.3744 87.6086 77.1676 87.8145C76.8729 88.1081 76.631 88.4412 76.4418 88.8092C76.2483 89.1861 76.1163 89.5892 76.0503 90.0055C76.0195 90.2071 76.002 90.4087 76.002 90.6146C76.002 90.8162 76.0108 91.0353 76.0239 91.2719C76.0503 91.7057 76.1031 92.1571 76.1735 92.6128C76.2527 93.1036 76.3539 93.5812 76.4726 94.0326C76.609 94.5321 76.7673 94.9966 76.9477 95.4085C77.15 95.873 77.3788 96.2761 77.6339 96.6135C77.801 96.8326 77.977 97.0298 78.1617 97.192C78.3641 97.3716 78.5796 97.5206 78.8084 97.6302C79.0503 97.7485 79.3054 97.8317 79.5693 97.8712C79.7013 97.8931 79.8377 97.9018 79.974 97.9018C80.1104 97.9018 80.2423 97.8887 80.3743 97.8712C80.625 97.8273 80.867 97.7485 81.1001 97.6258C81.3156 97.5118 81.5268 97.3629 81.7247 97.1832C81.9095 97.0167 82.0854 96.8151 82.2526 96.5872C82.4989 96.2498 82.732 95.8467 82.9344 95.3866C83.1191 94.9747 83.2863 94.5146 83.427 94.0194C83.559 93.5681 83.6646 93.0948 83.7525 92.6084C83.8317 92.1527 83.8933 91.6926 83.9241 91.2719C83.9417 91.0397 83.9505 90.8206 83.9505 90.6234C83.9505 90.4174 83.9329 90.2115 83.9021 90.0055C83.8361 89.5892 83.7041 89.1861 83.5106 88.8136C83.3215 88.4455 83.0751 88.1125 82.7848 87.8233C82.5781 87.6174 82.3493 87.4333 82.103 87.2799C81.8523 87.1222 81.5884 86.9907 81.3112 86.8943C81.0297 86.7935 80.7306 86.7234 80.4315 86.6884C80.2863 86.6621 80.1324 86.6533 79.9784 86.6533Z" fill="white"/>
<path d="M111.126 108.248C109.718 108.248 102.693 108.182 102.693 106.894C103.261 100.22 107.352 97.8491 110.994 97.8491C117.17 97.8491 119.035 104.155 119.554 106.867C119.554 108.182 112.533 108.248 111.126 108.248Z" fill="#0396C8"/>
<path d="M110.994 98.0025C116.91 98.0025 118.837 103.931 119.4 106.894C119.4 107.695 115.261 108.094 111.121 108.094C106.982 108.094 102.843 107.695 102.843 106.894C103.446 99.8605 107.844 98.0025 110.994 98.0025ZM110.994 97.6958C107.286 97.6958 103.116 100.106 102.54 106.867V106.88V106.894C102.54 107.305 102.878 107.774 105.394 108.099C106.908 108.296 108.944 108.401 111.126 108.401C113.308 108.401 115.34 108.291 116.857 108.099C119.374 107.774 119.712 107.305 119.712 106.894V106.863L119.708 106.837C119.18 104.089 117.284 97.6958 110.994 97.6958Z" fill="white"/>
<path d="M111.108 99.8255C110.672 99.8255 110.215 99.6808 109.749 99.4004C109.419 99.1988 109.256 98.8132 109.344 98.432C109.665 97.0648 109.41 95.5925 109.406 95.5749L109.375 95.3953H112.647L112.617 95.5749C112.612 95.5881 112.353 97.0999 112.691 98.4802C112.779 98.8351 112.63 99.212 112.326 99.4223C111.939 99.6896 111.53 99.8255 111.108 99.8255Z" fill="#0396C8"/>
<path d="M112.463 95.5487C112.463 95.5487 112.186 97.0911 112.538 98.5197C112.612 98.8176 112.485 99.1244 112.234 99.2997C111.878 99.545 111.504 99.6721 111.108 99.6721C110.703 99.6721 110.277 99.5407 109.828 99.269C109.555 99.1025 109.419 98.7782 109.494 98.4671C109.828 97.0517 109.555 95.5487 109.555 95.5487H112.463ZM112.828 95.2419H112.458H109.555H109.19L109.256 95.6013C109.261 95.6144 109.511 97.0648 109.195 98.397C109.089 98.8395 109.283 99.2953 109.67 99.5275C110.162 99.8255 110.646 99.9745 111.108 99.9745C111.561 99.9745 112.001 99.8299 112.41 99.5494C112.766 99.304 112.938 98.8571 112.837 98.4452C112.502 97.0955 112.762 95.6188 112.766 95.6013L112.828 95.2419Z" fill="white"/>
<path d="M110.866 97.7529C110.735 97.7529 110.607 97.7441 110.479 97.7222C110.229 97.6828 109.991 97.6083 109.762 97.4943C109.547 97.3892 109.34 97.2489 109.147 97.078C108.966 96.9203 108.795 96.7319 108.636 96.5172C108.39 96.1885 108.166 95.7941 107.968 95.3428C107.792 94.9353 107.633 94.4795 107.497 93.9888C107.378 93.5418 107.277 93.0729 107.198 92.5865C107.128 92.144 107.075 91.6838 107.048 91.2588C107.035 91.0222 107.026 90.8031 107.026 90.6103C107.026 90.4131 107.04 90.2159 107.07 90.0231C107.132 89.6199 107.259 89.2343 107.444 88.8706C107.625 88.5157 107.862 88.1958 108.144 87.911C108.342 87.7138 108.562 87.5385 108.799 87.3895C109.041 87.2362 109.296 87.1135 109.564 87.0171C109.837 86.9207 110.123 86.8549 110.409 86.8199C110.554 86.8023 110.704 86.7936 110.853 86.7936C111.003 86.7936 111.152 86.8023 111.298 86.8199C111.588 86.8549 111.874 86.9207 112.147 87.0171C112.415 87.1135 112.67 87.2362 112.912 87.3895C113.149 87.5385 113.369 87.7138 113.567 87.9154C113.849 88.1958 114.086 88.5201 114.267 88.8706C114.451 89.2299 114.579 89.6199 114.641 90.0187C114.671 90.2115 114.685 90.4131 114.685 90.6103C114.685 90.7987 114.676 91.0134 114.658 91.25C114.627 91.6663 114.57 92.122 114.491 92.5734C114.407 93.0554 114.297 93.5243 114.17 93.9712C114.029 94.462 113.866 94.9134 113.686 95.3209C113.484 95.7722 113.259 96.1666 113.017 96.4953C112.859 96.7144 112.688 96.9072 112.507 97.0693C112.318 97.2446 112.12 97.3848 111.913 97.49C111.693 97.6039 111.465 97.6828 111.232 97.7222C111.117 97.7441 110.994 97.7529 110.866 97.7529Z" fill="#0396C8"/>
<path d="M110.867 86.9381C111.012 86.9381 111.153 86.9469 111.293 86.9644C111.575 86.9951 111.848 87.0608 112.107 87.1529C112.367 87.2449 112.613 87.3676 112.842 87.5122C113.07 87.6568 113.282 87.8277 113.475 88.0161C113.743 88.2834 113.972 88.5945 114.148 88.9363C114.324 89.2781 114.447 89.6506 114.509 90.0406C114.54 90.229 114.553 90.4174 114.553 90.6102C114.553 90.7987 114.544 91.009 114.526 91.2369C114.496 91.6269 114.443 92.0738 114.359 92.5427C114.28 92.9896 114.174 93.4585 114.038 93.9274C113.906 94.3831 113.748 94.8345 113.559 95.2595C113.369 95.6802 113.154 96.0702 112.908 96.4076C112.758 96.6135 112.595 96.7976 112.419 96.9597C112.243 97.1218 112.054 97.2577 111.856 97.3629C111.654 97.468 111.443 97.5425 111.214 97.5776C111.1 97.5951 110.985 97.6082 110.862 97.6082C110.739 97.6082 110.616 97.5995 110.497 97.582C110.255 97.5469 110.031 97.4724 109.82 97.3672C109.613 97.2621 109.419 97.1306 109.239 96.9729C109.063 96.8151 108.9 96.6354 108.751 96.4339C108.5 96.0965 108.285 95.7065 108.1 95.2858C107.915 94.8607 107.761 94.4094 107.638 93.9493C107.51 93.4804 107.414 93.0116 107.343 92.5602C107.268 92.087 107.22 91.64 107.198 91.2456C107.185 91.0134 107.176 90.7987 107.176 90.6059C107.176 90.4131 107.189 90.2246 107.22 90.0406C107.282 89.6462 107.405 89.2737 107.581 88.9319C107.757 88.5901 107.985 88.279 108.258 88.0073C108.447 87.8189 108.658 87.648 108.887 87.5034C109.116 87.3588 109.362 87.2361 109.622 87.1441C109.881 87.0521 110.154 86.9864 110.436 86.9557C110.576 86.9469 110.721 86.9381 110.867 86.9381ZM110.867 86.6533C110.713 86.6533 110.559 86.6621 110.405 86.6796C110.106 86.7147 109.811 86.7848 109.529 86.8856C109.252 86.9863 108.984 87.1134 108.738 87.2712C108.491 87.4245 108.263 87.6086 108.056 87.8145C107.761 88.1081 107.519 88.4412 107.33 88.8092C107.136 89.1861 107.005 89.5892 106.939 90.0055C106.908 90.2071 106.89 90.4087 106.89 90.6146C106.89 90.8162 106.899 91.0397 106.912 91.2719C106.939 91.7057 106.991 92.1571 107.062 92.6128C107.141 93.1036 107.242 93.5812 107.361 94.0326C107.497 94.5321 107.656 94.9966 107.836 95.4085C108.038 95.873 108.267 96.2761 108.522 96.6135C108.689 96.8326 108.865 97.0298 109.05 97.192C109.252 97.3716 109.468 97.5206 109.697 97.6302C109.938 97.7485 110.194 97.8317 110.458 97.8712C110.589 97.8931 110.726 97.9018 110.862 97.9018C110.999 97.9018 111.131 97.8887 111.262 97.8712C111.513 97.8273 111.755 97.7485 111.988 97.6258C112.204 97.5118 112.415 97.3629 112.613 97.1832C112.798 97.0167 112.974 96.8151 113.141 96.5872C113.387 96.2498 113.62 95.8467 113.823 95.3866C114.007 94.9747 114.174 94.5146 114.315 94.0194C114.447 93.5681 114.553 93.0948 114.641 92.6084C114.72 92.1527 114.781 91.6926 114.812 91.2719C114.83 91.0397 114.839 90.8206 114.839 90.6234C114.839 90.4174 114.821 90.2115 114.79 90.0055C114.724 89.5892 114.592 89.1861 114.399 88.8136C114.21 88.4455 113.963 88.1125 113.673 87.8233C113.466 87.6174 113.238 87.4333 112.991 87.2799C112.74 87.1222 112.477 86.9907 112.199 86.8943C111.918 86.7935 111.619 86.7234 111.32 86.6884C111.175 86.6621 111.021 86.6533 110.867 86.6533Z" fill="white"/>
<path d="M96.4426 78.7877C95.035 78.7877 88.0103 78.722 88.0103 77.4337C88.5777 70.7599 92.6685 68.3893 96.3107 68.3893C102.486 68.3893 104.352 74.6949 104.871 77.4074C104.875 78.722 97.8502 78.7877 96.4426 78.7877Z" fill="#0396C8"/>
<path d="M96.3108 68.5427C102.227 68.5427 104.154 74.4715 104.717 77.4337C104.717 78.2356 100.578 78.6344 96.4384 78.6344C92.2992 78.6344 88.16 78.2356 88.16 77.4337C88.7626 70.4007 93.1657 68.5427 96.3108 68.5427ZM96.3108 68.236C92.6027 68.236 88.4327 70.646 87.8564 77.4074V77.4206V77.4337C87.8564 77.8456 88.1952 78.3145 90.7112 78.6387C92.2244 78.8359 94.261 78.9411 96.4428 78.9411C98.6245 78.9411 100.657 78.8316 102.174 78.6387C104.69 78.3145 105.029 77.8456 105.029 77.4337V77.403L105.025 77.3767C104.501 74.6292 102.601 68.236 96.3108 68.236Z" fill="white"/>
<path d="M96.4296 70.3657C95.9941 70.3657 95.5367 70.2211 95.0704 69.9407C94.7405 69.7391 94.5777 69.3535 94.6657 68.9723C94.9868 67.6051 94.7317 66.1327 94.7273 66.1152L94.6965 65.9355H97.9692L97.9384 66.1152C97.934 66.1284 97.6744 67.6401 98.0132 69.0205C98.1011 69.3754 97.9516 69.7522 97.6481 69.9626C97.2566 70.2299 96.8519 70.3657 96.4296 70.3657Z" fill="#0396C8"/>
<path d="M97.7802 66.0932C97.7802 66.0932 97.5031 67.6357 97.855 69.0642C97.9298 69.3622 97.8022 69.6689 97.5515 69.8442C97.1952 70.0896 96.8213 70.2167 96.4254 70.2167C96.0207 70.2167 95.594 70.0852 95.1454 69.8135C94.8726 69.647 94.7363 69.3228 94.8111 69.0116C95.1454 67.5963 94.8726 66.0932 94.8726 66.0932H97.7802ZM98.1497 65.7865H97.7802H94.877H94.512L94.5779 66.1458C94.5823 66.159 94.8331 67.605 94.5163 68.9415C94.4108 69.3841 94.6043 69.8398 94.9914 70.0721C95.4841 70.3701 95.9679 70.519 96.4298 70.519C96.8829 70.519 97.3227 70.3744 97.7318 70.094C98.0881 69.8486 98.2597 69.4016 98.1585 68.9897C97.8242 67.6401 98.0837 66.1633 98.0881 66.1458L98.1497 65.7865Z" fill="white"/>
<path d="M96.1834 68.2929C96.0514 68.2929 95.9238 68.2841 95.7963 68.2622C95.5499 68.2228 95.308 68.1483 95.0793 68.0344C94.8637 67.9292 94.657 67.789 94.4635 67.6181C94.2831 67.4603 94.1116 67.2719 93.9532 67.0572C93.7069 66.7285 93.4825 66.3342 93.2846 65.8828C93.1086 65.4753 92.9503 65.0196 92.8139 64.5288C92.6952 64.0862 92.594 63.613 92.5148 63.1266C92.4444 62.684 92.3916 62.2239 92.3653 61.7988C92.3521 61.5622 92.3433 61.3431 92.3433 61.1503C92.3433 60.9531 92.3565 60.7559 92.3873 60.5631C92.4488 60.16 92.5764 59.77 92.7611 59.4107C92.9459 59.0557 93.179 58.7358 93.4649 58.451C93.6629 58.2538 93.8828 58.0785 94.1204 57.9252C94.3623 57.7718 94.6174 57.6491 94.8857 57.5527C95.1585 57.4563 95.4444 57.3906 95.7303 57.3555C95.8754 57.338 96.025 57.3292 96.1746 57.3292C96.3241 57.3292 96.4737 57.338 96.6188 57.3555C96.9091 57.3906 97.1951 57.4563 97.4678 57.5527C97.7361 57.6491 97.9912 57.7718 98.2332 57.9252C98.4707 58.0742 98.6906 58.2538 98.8886 58.451C99.1701 58.7315 99.4076 59.0557 99.588 59.4063C99.7727 59.7656 99.9003 60.1556 99.9619 60.5544C99.9927 60.7472 100.006 60.9487 100.006 61.1459C100.006 61.3343 99.997 61.5491 99.9795 61.7857C99.9487 62.202 99.8915 62.6577 99.8123 63.109C99.7287 63.5911 99.6188 64.0599 99.4912 64.5069C99.3504 64.9933 99.1877 65.449 99.0073 65.8565C98.805 66.3079 98.5807 66.7023 98.3387 67.0309C98.176 67.25 98.0088 67.4428 97.8285 67.6049C97.6393 67.7758 97.4414 67.9204 97.2347 68.0256C97.0147 68.1395 96.786 68.2184 96.5528 68.2579C96.4385 68.2842 96.3109 68.2929 96.1834 68.2929Z" fill="#0396C8"/>
<path d="M96.1835 57.4782C96.3286 57.4782 96.4694 57.4869 96.6102 57.5045C96.8917 57.5351 97.1644 57.6009 97.4239 57.6929C97.6835 57.7849 97.9298 57.9076 98.1585 58.0522C98.3872 58.1968 98.5984 58.3677 98.7919 58.5562C99.0603 58.8235 99.289 59.1346 99.4649 59.4764C99.6409 59.8182 99.7641 60.1906 99.8256 60.5806C99.8564 60.769 99.8696 60.9575 99.8696 61.1503C99.8696 61.3387 99.8608 61.549 99.8432 61.7769C99.8124 62.1669 99.7597 62.6139 99.6761 63.0827C99.5969 63.5297 99.4913 63.9986 99.355 64.4674C99.223 64.9232 99.0647 65.3745 98.8755 65.7996C98.6864 66.2202 98.4708 66.6102 98.2245 66.9476C98.0749 67.1536 97.9122 67.3376 97.7362 67.4998C97.5603 67.6619 97.3711 67.7977 97.1732 67.9029C96.9709 68.0081 96.7597 68.0826 96.531 68.1176C96.4166 68.1351 96.3023 68.1483 96.1791 68.1483C96.0559 68.1483 95.9328 68.1395 95.814 68.122C95.5721 68.0869 95.3477 68.0125 95.1366 67.9073C94.9298 67.8021 94.7363 67.6707 94.556 67.5129C94.38 67.3552 94.2173 67.1755 94.0677 66.9739C93.817 66.6365 93.6014 66.2465 93.4167 65.8258C93.2319 65.4008 93.078 64.9495 92.9548 64.4893C92.8273 64.0205 92.7305 63.5516 92.6601 63.1003C92.5853 62.627 92.5369 62.18 92.5149 61.7857C92.5018 61.5534 92.493 61.3387 92.493 61.1459C92.493 60.9531 92.5061 60.7647 92.5369 60.5806C92.5985 60.1862 92.7217 59.8138 92.8976 59.472C93.0736 59.1302 93.3023 58.8191 93.575 58.5474C93.7642 58.359 93.9753 58.1881 94.2041 58.0435C94.4328 57.8989 94.6791 57.7762 94.9386 57.6841C95.1982 57.5921 95.4709 57.5264 95.7524 57.4957C95.8976 57.487 96.0383 57.4782 96.1835 57.4782ZM96.1835 57.1934C96.0295 57.1934 95.8756 57.2021 95.7216 57.2197C95.4225 57.2547 95.1278 57.3248 94.8463 57.4256C94.5692 57.5264 94.3008 57.6535 94.0545 57.8112C93.8082 57.9646 93.5794 58.1486 93.3727 58.3546C93.078 58.6482 92.8361 58.9812 92.6425 59.3493C92.449 59.7261 92.317 60.1293 92.251 60.5456C92.2202 60.7471 92.2026 60.9531 92.2026 61.1547C92.2026 61.3562 92.2114 61.5753 92.2246 61.812C92.251 62.2458 92.3038 62.6971 92.3742 63.1528C92.4534 63.648 92.5545 64.1213 92.6733 64.5726C92.8097 65.0721 92.968 65.5366 93.1484 65.9485C93.3507 66.413 93.5794 66.8162 93.8346 67.1536C94.0017 67.3727 94.1777 67.5699 94.3624 67.732C94.5648 67.9117 94.7803 68.0607 95.009 68.1702C95.251 68.2885 95.5061 68.3718 95.77 68.4112C95.902 68.4331 96.0383 68.4419 96.1747 68.4419C96.311 68.4419 96.443 68.4287 96.575 68.4112C96.8257 68.3674 97.0676 68.2885 97.3008 68.1658C97.5163 68.0519 97.7274 67.9029 97.9254 67.7232C98.1101 67.5567 98.2861 67.3552 98.4532 67.1273C98.6996 66.7899 98.9327 66.3867 99.135 65.9266C99.3198 65.5147 99.4869 65.0546 99.6277 64.5595C99.7597 64.1081 99.8652 63.6349 99.9532 63.1485C100.032 62.6927 100.094 62.2326 100.125 61.812C100.142 61.5797 100.151 61.3606 100.151 61.1634C100.151 60.9575 100.134 60.7515 100.103 60.5456C100.037 60.1293 99.9048 59.7261 99.7113 59.3537C99.5221 58.9856 99.2758 58.6526 98.9855 58.3633C98.7787 58.1574 98.55 57.9733 98.3037 57.82C98.0529 57.6622 97.789 57.5308 97.5119 57.4344C97.2304 57.3336 96.9313 57.2635 96.6322 57.2284C96.4914 57.2021 96.3374 57.1934 96.1835 57.1934Z" fill="white"/>
<path d="M194.781 70.4707L187.246 66.137V74.8045L194.781 70.4707Z" fill="#F45E32"/>
<path d="M189.269 69.7784H177.828V71.1631H189.269V69.7784Z" fill="#F45E32"/>
<path d="M132.772 70.4707L125.237 66.137V74.8045L132.772 70.4707Z" fill="#F45E32"/>
<path d="M127.26 69.7784H115.819V71.1631H127.26V69.7784Z" fill="#F45E32"/>
<path d="M202.561 97.0562H196.755V108.094H202.561V97.0562Z" fill="#0396C8"/>
<path d="M213.646 91.2413H207.84V108.094H213.646V91.2413Z" fill="#0396C8"/>
<path d="M224.731 86.3555H218.925V108.099H224.731V86.3555Z" fill="#0396C8"/>
<path d="M235.816 77.4075H230.01V108.094H235.816V77.4075Z" fill="#0396C8"/>
<path d="M246.791 66.9432H240.984V108.094H246.791V66.9432Z" fill="#0396C8"/>
<path d="M236.384 52.5222L239.001 54.5861C227.208 69.6733 212.507 81.4827 195.748 89.4535C196.337 90.5884 197.125 91.6182 197.864 92.6699C202.399 90.4964 206.789 88.0469 211.016 85.3344C222.721 77.815 233.133 68.271 241.988 56.9436L244.424 58.8673L248.339 45.7126L236.384 52.5222Z" fill="#0396C8"/>
<path d="M153.318 71.3779V57.8376C153.318 52.9385 157.317 48.9553 162.235 48.9553C167.152 48.9553 171.151 52.9385 171.151 57.8376V71.3779H153.318ZM168.38 68.6172V57.8376C168.38 54.4635 165.622 51.716 162.235 51.716C158.848 51.716 156.09 54.4635 156.09 57.8376V68.6172H168.38Z" fill="#6ACEF0"/>
<path d="M162.235 49.0255C167.113 49.0255 171.081 52.978 171.081 57.8376V71.3078H153.384V57.8376C153.384 52.978 157.356 49.0255 162.235 49.0255ZM156.019 68.6874H168.45V57.8376C168.45 54.4241 165.661 51.6459 162.235 51.6459C158.808 51.6459 156.019 54.4241 156.019 57.8376V68.6874ZM162.235 48.8896C157.282 48.8896 153.248 52.9035 153.248 57.842V71.3122V71.448H153.384H171.076H171.212V71.3122V57.842C171.217 52.9035 167.188 48.8896 162.235 48.8896ZM156.156 68.5472V57.8376C156.156 54.4986 158.883 51.7861 162.23 51.7861C165.582 51.7861 168.305 54.503 168.305 57.8376V68.5472H156.156Z" fill="white"/>
<path d="M173.253 82.8937H151.207C150.983 82.8937 150.802 82.714 150.802 82.4905V63.705C150.802 63.4815 150.983 63.3019 151.207 63.3019H173.253C173.478 63.3019 173.658 63.4815 173.658 63.705V82.4905C173.658 82.714 173.478 82.8937 173.253 82.8937Z" fill="#0396C8"/>
<path d="M152.883 80.6283V65.5674C152.883 65.4579 152.971 65.3702 153.081 65.3702H171.388C171.498 65.3702 171.586 65.4579 171.586 65.5674V80.6283C171.586 80.7378 171.498 80.8255 171.388 80.8255H153.081C152.971 80.8211 152.883 80.7334 152.883 80.6283Z" fill="#6ACEF0"/>
<path d="M164.927 70.4052C164.927 68.924 163.721 67.7234 162.235 67.7234C160.748 67.7234 159.542 68.924 159.542 70.4052C159.542 71.4393 160.132 72.3376 160.994 72.7846V78.0911C160.994 78.2007 161.082 78.2883 161.192 78.2883H163.281C163.391 78.2883 163.479 78.2007 163.479 78.0911V72.7846C164.337 72.342 164.927 71.4437 164.927 70.4052Z" fill="#0071BC"/>
<path d="M160.593 77.9115C160.413 77.9115 160.263 77.7625 160.263 77.5828V73.5514L158.856 73.5689L158.873 75.3436C158.873 75.5233 158.724 75.6723 158.543 75.6723H157.065C156.885 75.6723 156.735 75.5233 156.735 75.3436V70.1466H162.511V77.5828C162.511 77.7625 162.361 77.9115 162.181 77.9115H160.593Z" fill="#ED850E"/>
<path d="M162.34 70.3219V77.5872C162.34 77.6748 162.269 77.7406 162.186 77.7406H160.593C160.505 77.7406 160.439 77.6705 160.439 77.5872V73.5558C160.439 73.4681 160.369 73.4024 160.285 73.4024H158.86C158.772 73.4024 158.706 73.4725 158.706 73.5558V75.348C158.706 75.4356 158.636 75.5014 158.552 75.5014H157.074C156.986 75.5014 156.92 75.4313 156.92 75.348V70.3219H162.34ZM162.687 69.9757H162.34H156.911H156.564V70.3219V75.348C156.564 75.6241 156.788 75.8475 157.065 75.8475H158.543C158.821 75.8475 159.045 75.6241 159.045 75.348V73.7442H160.087V77.5828C160.087 77.8589 160.312 78.0824 160.589 78.0824H162.181C162.458 78.0824 162.683 77.8589 162.683 77.5828V70.3175V69.9757H162.687Z" fill="white"/>
<path d="M161.904 77.3988H160.875C160.822 77.3988 160.783 77.355 160.783 77.3067V73.5558C160.783 73.2797 160.558 73.0562 160.286 73.0562C160.233 73.0562 160.193 73.0124 160.193 72.9642C160.193 72.9116 160.237 72.8722 160.286 72.8722C160.664 72.8722 160.972 73.1789 160.972 73.5558V77.2147H161.909C161.962 77.2147 162.001 77.2585 162.001 77.3067C161.997 77.355 161.957 77.3988 161.904 77.3988Z" fill="#F45E32"/>
<path d="M157.717 75.1595H157.352C157.299 75.1595 157.259 75.1156 157.259 75.0674V73.6477C157.259 73.5951 157.303 73.5557 157.352 73.5557C157.404 73.5557 157.444 73.5995 157.444 73.6477V74.9754H157.717C157.769 74.9754 157.809 75.0192 157.809 75.0674C157.809 75.1156 157.765 75.1595 157.717 75.1595Z" fill="#F45E32"/>
<path d="M157.347 72.8809C157.294 72.8809 157.255 72.8371 157.255 72.7889V71.5356C157.255 71.483 157.299 71.4436 157.347 71.4436C157.4 71.4436 157.44 71.4874 157.44 71.5356V72.7889C157.44 72.8371 157.4 72.8809 157.347 72.8809Z" fill="#F45E32"/>
<path d="M145.501 71.0799V68.4683H162.775C163.145 68.4683 163.448 68.7706 163.448 69.1387V70.4095C163.448 70.7776 163.145 71.0799 162.775 71.0799H145.501Z" fill="#FDA800"/>
<path d="M145.678 68.6435H162.78C163.057 68.6435 163.281 68.867 163.281 69.1431V70.4139C163.281 70.6899 163.057 70.9134 162.78 70.9134H145.678V68.6435ZM145.678 68.2974H145.33V68.6435V70.909V71.2552H145.678H162.78C163.246 71.2552 163.624 70.8783 163.624 70.4139V69.1431C163.624 68.6786 163.246 68.3017 162.78 68.3017H145.678V68.2974Z" fill="white"/>
<path d="M154.836 70.5672H150.706C150.653 70.5672 150.613 70.5234 150.613 70.4752C150.613 70.4226 150.657 70.3832 150.706 70.3832H154.836C154.889 70.3832 154.928 70.427 154.928 70.4752C154.933 70.5234 154.889 70.5672 154.836 70.5672Z" fill="#ED850E"/>
<path d="M149.553 70.5672H148.436C148.383 70.5672 148.343 70.5234 148.343 70.4752C148.343 70.4226 148.387 70.3832 148.436 70.3832H149.553C149.606 70.3832 149.645 70.427 149.645 70.4752C149.645 70.5234 149.601 70.5672 149.553 70.5672Z" fill="#ED850E"/>
<path d="M153.851 69.1694H150.925C150.873 69.1694 150.833 69.1256 150.833 69.0774C150.833 69.0292 150.877 68.9854 150.925 68.9854H153.851C153.903 68.9854 153.943 69.0292 153.943 69.0774C153.943 69.1256 153.899 69.1694 153.851 69.1694Z" fill="#FDD247"/>
<path d="M162.842 70.1729C162.789 70.1729 162.749 70.1291 162.749 70.0808V69.1694H154.933C154.88 69.1694 154.84 69.1256 154.84 69.0774C154.84 69.0292 154.884 68.9854 154.933 68.9854H162.78C162.868 68.9854 162.934 69.0555 162.934 69.1431V70.0852C162.934 70.1334 162.894 70.1729 162.842 70.1729Z" fill="#FDD247"/>
<path d="M137.126 67.4736V72.0746C137.126 74.8397 139.374 77.0789 142.15 77.0789C144.925 77.0789 147.173 74.8397 147.173 72.0746V67.4736C147.173 64.7085 144.925 62.4694 142.15 62.4694C140.764 62.4694 139.506 63.0303 138.596 63.9373C137.69 64.84 137.126 66.0933 137.126 67.4736ZM139.308 67.4736C139.308 65.9136 140.584 64.6428 142.15 64.6428C143.716 64.6428 144.991 65.9136 144.991 67.4736V72.0746C144.991 73.6346 143.716 74.9054 142.15 74.9054C140.584 74.9054 139.308 73.6346 139.308 72.0746V67.4736Z" fill="#FDA800"/>
<path d="M142.15 76.737C139.568 76.737 137.47 74.6468 137.47 72.0746C137.47 72.022 137.514 71.9825 137.562 71.9825C137.615 71.9825 137.654 72.0264 137.654 72.0746C137.654 74.5416 139.669 76.5529 142.15 76.5529C144.626 76.5529 146.645 74.546 146.645 72.0746C146.645 72.022 146.689 71.9825 146.738 71.9825C146.791 71.9825 146.83 72.0264 146.83 72.0746C146.83 74.6468 144.732 76.737 142.15 76.737Z" fill="#ED850E"/>
<path d="M137.562 71.2859C137.509 71.2859 137.47 71.2421 137.47 71.1939V68.6435C137.47 68.5909 137.514 68.5515 137.562 68.5515C137.615 68.5515 137.654 68.5953 137.654 68.6435V71.1939C137.654 71.2421 137.615 71.2859 137.562 71.2859Z" fill="#ED850E"/>
<path d="M145.427 67.5655C145.374 67.5655 145.335 67.5217 145.335 67.4735C145.335 65.7251 143.905 64.301 142.15 64.301C141.495 64.301 140.861 64.4982 140.325 64.875C140.281 64.9057 140.224 64.8925 140.193 64.8531C140.162 64.8093 140.175 64.7523 140.215 64.7216C140.782 64.3229 141.451 64.1125 142.146 64.1125C144.002 64.1125 145.515 65.6199 145.515 67.4691C145.52 67.5261 145.48 67.5655 145.427 67.5655Z" fill="#ED850E"/>
<path d="M143.368 63.1617C143.359 63.1617 143.35 63.1617 143.342 63.1573C142.954 63.0522 142.554 62.9996 142.15 62.9996C142.097 62.9996 142.057 62.9558 142.057 62.9076C142.057 62.8594 142.101 62.8156 142.15 62.8156C142.572 62.8156 142.99 62.8725 143.39 62.9821C143.438 62.9952 143.469 63.0478 143.456 63.096C143.447 63.131 143.408 63.1617 143.368 63.1617Z" fill="#FDD247"/>
<path d="M146.737 67.5656C146.685 67.5656 146.645 67.5218 146.645 67.4736C146.645 65.8041 145.721 64.2835 144.23 63.5036C144.186 63.4816 144.169 63.4247 144.191 63.3765C144.213 63.3327 144.27 63.3108 144.318 63.337C145.871 64.1477 146.834 65.7296 146.834 67.4692C146.83 67.5262 146.79 67.5656 146.737 67.5656Z" fill="#FDD247"/>
<path d="M138.873 72.1667C138.82 72.1667 138.78 72.1228 138.78 72.0746V70.484C138.78 70.4314 138.824 70.392 138.873 70.392C138.921 70.392 138.965 70.4358 138.965 70.484V72.0746C138.965 72.1272 138.925 72.1667 138.873 72.1667Z" fill="#FDD247"/>
<path d="M142.15 75.4313C140.724 75.4313 139.449 74.533 138.969 73.1921C138.952 73.1439 138.978 73.0913 139.027 73.0738C139.075 73.0563 139.128 73.0826 139.145 73.1308C139.594 74.3972 140.799 75.2473 142.145 75.2473C143.157 75.2473 144.085 74.7828 144.692 73.9765C144.723 73.9327 144.785 73.9283 144.824 73.959C144.864 73.9896 144.872 74.0466 144.842 74.0904C144.204 74.9405 143.219 75.4313 142.15 75.4313Z" fill="#FDD247"/>
<path d="M148.669 98.7871H151.273V103.91H151.326C151.585 103.463 151.858 103.051 152.118 102.639L154.757 98.7915H157.981L154.132 103.721L158.188 110.373H155.117L152.272 105.373L151.273 106.591V110.373H148.669V98.7871Z" fill="#F45E32"/>
<path d="M159.261 98.9405C160.07 98.8046 161.209 98.6995 162.815 98.6995C164.438 98.6995 165.59 99.0106 166.369 99.6284C167.112 100.211 167.609 101.175 167.609 102.31C167.609 103.445 167.231 104.405 166.541 105.058C165.643 105.899 164.315 106.276 162.762 106.276C162.419 106.276 162.107 106.258 161.865 106.223V110.364H159.261V98.9405ZM161.865 104.199C162.089 104.251 162.366 104.269 162.745 104.269C164.143 104.269 165.005 103.563 165.005 102.38C165.005 101.316 164.262 100.68 162.951 100.68C162.415 100.68 162.054 100.733 161.865 100.785V104.199Z" fill="#F45E32"/>
<path d="M171.921 98.7871V110.369H169.281V98.7871H171.921Z" fill="#F45E32"/>
<path d="M161.002 35.919L160.98 35.3318C160.91 34.1793 161.297 33.0006 162.318 31.7824C163.043 30.9235 163.633 30.2005 163.633 29.4293C163.633 28.6361 163.109 28.119 161.975 28.0708C161.227 28.0708 160.316 28.3425 159.727 28.75L158.957 26.2874C159.775 25.8141 161.134 25.3584 162.749 25.3584C165.744 25.3584 167.108 27.0104 167.108 28.8859C167.108 30.6036 166.043 31.7342 165.177 32.6851C164.337 33.614 163.998 34.4948 164.02 35.5114V35.919H161.002ZM160.409 39.0389C160.409 37.8426 161.249 36.9794 162.428 36.9794C163.655 36.9794 164.447 37.8383 164.469 39.0389C164.469 40.2133 163.65 41.0984 162.428 41.0984C161.227 41.0984 160.409 40.2177 160.409 39.0389Z" fill="#F45E32"/>
<path d="M200.543 28.7907L199.479 52.7623L210.517 53.2489L211.582 29.2772L200.543 28.7907Z" fill="#098F8E"/>
<path d="M210.787 29.9737L201.291 29.5552L200.292 52.0385L209.789 52.457L210.787 29.9737Z" fill="#03CCB7"/>
<path d="M200.556 28.7853L204.035 28.9386C203.952 30.7878 202.328 32.2207 200.406 32.1331L200.556 28.7853Z" fill="#098F8E"/>
<path d="M208.118 29.1184L211.597 29.2718L211.447 32.6196C209.525 32.5363 208.034 30.9676 208.118 29.1184Z" fill="#098F8E"/>
<path d="M199.637 49.4113C201.559 49.4945 203.046 51.0633 202.967 52.9124L199.487 52.7591L199.637 49.4113Z" fill="#098F8E"/>
<path d="M210.678 49.8976L210.528 53.2455L207.049 53.0921C207.132 51.2429 208.756 49.8144 210.678 49.8976Z" fill="#098F8E"/>
<path d="M205.716 37.1373C207.897 37.2337 209.586 39.0127 209.494 41.1117C209.402 43.2107 207.559 44.8364 205.377 44.74C203.195 44.6436 201.506 42.8645 201.598 40.7655C201.691 38.6622 203.534 37.0409 205.716 37.1373Z" fill="#098F8E"/>
<path d="M208.945 41.6157L208.148 41.5807C208.096 42.2467 207.915 42.8821 207.713 43.2546L206.745 42.9128C206.956 42.5053 207.159 41.9268 207.189 41.2783C207.216 40.713 207.049 40.3187 206.71 40.3011C206.393 40.288 206.178 40.5947 205.931 41.3221C205.584 42.3694 205.131 43.0793 204.317 43.0442C203.578 43.0136 203.028 42.3694 202.901 41.3002L202.104 41.2652L202.148 40.2924L202.887 40.323C202.94 39.657 203.081 39.2188 203.231 38.8945L204.167 39.2232C204.062 39.4773 203.851 39.9243 203.82 40.6429C203.789 41.2871 204.018 41.5062 204.251 41.5193C204.528 41.5325 204.717 41.1907 205.025 40.3581C205.43 39.1925 205.914 38.7368 206.666 38.7674C207.414 38.8025 208.021 39.4554 208.14 40.6035L208.997 40.6429L208.945 41.6157Z" fill="#03CCB7"/>
<path d="M204.881 46.6988L204.73 50.0826L205.539 50.1184L205.69 46.7345L204.881 46.6988Z" fill="#098F8E"/>
<path d="M205.54 31.9237L205.39 35.3076L206.198 35.3433L206.349 31.9595L205.54 31.9237Z" fill="#098F8E"/>
<path d="M210.39 27.0232L200.307 48.816L210.342 53.4238L220.425 31.6309L210.39 27.0232Z" fill="#098F8E"/>
<path d="M219.427 31.9917L210.794 28.0278L201.337 48.4676L209.97 52.4315L219.427 31.9917Z" fill="#03CCB7"/>
<path d="M210.396 27.0323L213.559 28.4828C212.78 30.1655 210.735 30.8753 208.988 30.0734L210.396 27.0323Z" fill="#098F8E"/>
<path d="M217.267 30.1874L220.43 31.6378L219.022 34.6833C217.276 33.8814 216.493 31.8701 217.267 30.1874Z" fill="#098F8E"/>
<path d="M201.718 45.7828C203.464 46.5847 204.247 48.5961 203.468 50.2787L200.306 48.8283L201.718 45.7828Z" fill="#098F8E"/>
<path d="M211.756 50.3884L210.348 53.4338L207.186 51.9834C207.964 50.3007 210.01 49.5865 211.756 50.3884Z" fill="#098F8E"/>
<path d="M212.002 36.7078C213.982 37.6193 214.875 39.9023 213.99 41.8085C213.106 43.7146 210.784 44.5253 208.804 43.6138C206.825 42.7024 205.932 40.4194 206.816 38.5132C207.7 36.6071 210.023 35.7964 212.002 36.7078Z" fill="#098F8E"/>
<path d="M213.295 42.0668L212.569 41.7338C212.266 42.3297 211.857 42.8512 211.531 43.1185L210.766 42.4393C211.118 42.1413 211.522 41.6812 211.795 41.094C212.033 40.5813 212.028 40.1519 211.725 40.0117C211.434 39.8802 211.118 40.0818 210.616 40.6646C209.895 41.5059 209.209 41.988 208.47 41.6505C207.797 41.3438 207.533 40.5419 207.819 39.5034L207.093 39.1703L207.502 38.2852L208.175 38.5919C208.478 37.996 208.773 37.641 209.033 37.4L209.772 38.0573C209.578 38.2545 209.213 38.5875 208.909 39.2405C208.637 39.8276 208.764 40.1168 208.975 40.2132C209.226 40.3272 209.534 40.0862 210.132 39.4289C210.95 38.4999 211.571 38.2589 212.257 38.5744C212.934 38.8855 213.251 39.7225 212.925 40.8311L213.704 41.1904L213.295 42.0668Z" fill="#03CCB7"/>
<path d="M207.61 45.2515L206.187 48.3275L206.922 48.6651L208.345 45.5891L207.61 45.2515Z" fill="#098F8E"/>
<path d="M213.829 31.8201L212.405 34.8961L213.14 35.2337L214.564 32.1577L213.829 31.8201Z" fill="#098F8E"/>
<path d="M215.376 51.0324L228.532 38.9689L221.046 30.871L203.323 47.1237L206.935 51.0324H215.376Z" fill="#098F8E"/>
<path d="M214.232 51.0324L227.455 38.9075L221.019 31.9402L204.396 47.1851L207.951 51.0324H214.232Z" fill="#03CCB7"/>
<path d="M221.046 30.871L223.404 33.4213C222.036 34.6745 219.871 34.5474 218.569 33.1408L221.046 30.871Z" fill="#098F8E"/>
<path d="M226.175 36.4186L228.533 38.9689L226.056 41.2388C224.754 39.8321 224.807 37.6718 226.175 36.4186Z" fill="#098F8E"/>
<path d="M205.8 44.8538C207.102 46.2648 207.049 48.4207 205.681 49.6739L203.323 47.1236L205.8 44.8538Z" fill="#098F8E"/>
<path d="M218.794 40.4149C220.272 42.0143 220.21 44.4639 218.662 45.888C217.109 47.3121 214.654 47.1675 213.177 45.5681C211.699 43.9687 211.76 41.5192 213.308 40.095C214.861 38.6753 217.316 38.8155 218.794 40.4149Z" fill="#098F8E"/>
<path d="M217.918 45.8617L217.377 45.2788C216.867 45.7127 216.286 46.0369 215.886 46.1596L215.442 45.2394C215.882 45.0992 216.432 44.8319 216.911 44.3937C217.329 44.0081 217.492 43.6137 217.263 43.3639C217.047 43.1317 216.673 43.1974 215.992 43.5436C215.002 44.0431 214.179 44.2272 213.63 43.6312C213.128 43.0879 213.194 42.2465 213.858 41.3964L213.317 40.8136L214.039 40.1519L214.54 40.6953C215.05 40.2615 215.459 40.0468 215.794 39.9241L216.225 40.8136C215.97 40.9232 215.503 41.0897 214.976 41.5761C214.496 42.0143 214.505 42.3254 214.663 42.5007C214.852 42.7022 215.226 42.5971 216.031 42.2202C217.144 41.6769 217.808 41.6944 218.323 42.2465C218.829 42.7943 218.798 43.6882 218.068 44.5821L218.649 45.2087L217.918 45.8617Z" fill="#03CCB7"/>
<path d="M211.435 46.6022L208.934 48.8964L209.482 49.4895L211.983 47.1954L211.435 46.6022Z" fill="#098F8E"/>
<path d="M222.355 36.5834L219.854 38.8776L220.402 39.4707L222.903 37.1765L222.355 36.5834Z" fill="#098F8E"/>
<path d="M210.163 43.4166H194.771V53.0789H210.163V43.4166Z" fill="#DF4223"/>
<path d="M194.511 44.0319H212.137V41.7971H194.511V44.0319Z" fill="#FDA800"/>
<path d="M210.528 41.7953H206.991V44.0301H210.528V41.7953Z" fill="#ED850E"/>
<path d="M198.792 41.7953H196.461V44.0301H198.792V41.7953Z" fill="#FED20F"/>
<path d="M193.382 46.4854H211.008V44.2505H193.382V46.4854Z" fill="#FDA800"/>
<path d="M209.403 44.2534H205.866V46.4882H209.403V44.2534Z" fill="#ED850E"/>
<path d="M197.667 44.2534H195.336V46.4882H197.667V44.2534Z" fill="#FED20F"/>
<path d="M194.511 48.9435H212.137V46.7087H194.511V48.9435Z" fill="#FDA800"/>
<path d="M210.528 46.7075H206.991V48.9423H210.528V46.7075Z" fill="#ED850E"/>
<path d="M198.792 46.7075H196.461V48.9423H198.792V46.7075Z" fill="#FED20F"/>
<path d="M193.209 51.3972H210.835V49.1624H193.209V51.3972Z" fill="#FDA800"/>
<path d="M209.231 49.1658H205.694V51.4006H209.231V49.1658Z" fill="#ED850E"/>
<path d="M197.495 49.1658H195.164V51.4006H197.495V49.1658Z" fill="#FED20F"/>
<path d="M194.511 53.855H212.137V51.6202H194.511V53.855Z" fill="#FDA800"/>
<path d="M210.528 51.6196H206.991V53.8544H210.528V51.6196Z" fill="#ED850E"/>
<path d="M198.792 51.6196H196.461V53.8544H198.792V51.6196Z" fill="#FED20F"/>
<path d="M224.005 47.5839H208.614V53.0832H224.005V47.5839Z" fill="#DF4223"/>
<path d="M208.348 48.9435H225.974V46.7087H208.348V48.9435Z" fill="#FDA800"/>
<path d="M224.371 46.7075H220.834V48.9423H224.371V46.7075Z" fill="#ED850E"/>
<path d="M212.635 46.7075H210.304V48.9423H212.635V46.7075Z" fill="#FED20F"/>
<path d="M207.051 51.3972H224.677V49.1624H207.051V51.3972Z" fill="#FDA800"/>
<path d="M223.069 49.1658H219.532V51.4006H223.069V49.1658Z" fill="#ED850E"/>
<path d="M211.333 49.1658H209.002V51.4006H211.333V49.1658Z" fill="#FED20F"/>
<path d="M208.348 53.855H225.974V51.6202H208.348V53.855Z" fill="#FDA800"/>
<path d="M224.371 51.6196H220.834V53.8544H224.371V51.6196Z" fill="#ED850E"/>
<path d="M212.635 51.6196H210.304V53.8544H212.635V51.6196Z" fill="#FED20F"/>
<path d="M31.649 196.615H37.1738V196.466C37.1738 196.159 36.9362 195.966 36.6547 195.852C35.4231 195.353 35.2031 194.652 34.5609 193.153C34.5301 193.083 34.4818 193.013 34.4422 192.943C34.1782 192.562 33.7384 192.312 33.2369 192.312C32.5067 192.312 31.9041 192.846 31.7985 193.543C31.7941 193.618 31.7897 193.701 31.7809 193.78C31.7106 194.753 31.6314 195.993 31.649 196.615Z" fill="#0A3C5F"/>
<path d="M31.7798 193.762V193.78C31.7886 194.573 32.4396 195.213 33.2358 195.213C34.0407 195.213 34.6961 194.564 34.6961 193.762C34.6961 193.547 34.6478 193.337 34.5598 193.153C34.5202 193.087 34.4806 193.013 34.441 192.943C34.1771 192.562 33.7372 192.312 33.2358 192.312C32.5056 192.312 31.903 192.846 31.7974 193.543C31.7886 193.618 31.7798 193.688 31.7798 193.762Z" fill="#0A3C5F"/>
<path d="M34.4422 168.583C32.3748 159.986 31.6314 145.319 32.9554 140.473C33.4085 136.516 36.9979 133.672 40.9699 134.124C44.942 134.575 47.7968 138.151 47.3437 142.107C47.3349 142.204 47.3129 142.292 47.2953 142.388H47.3041C47.2865 142.484 47.2645 142.576 47.2469 142.673C47.2337 142.752 47.2205 142.826 47.2029 142.905C45.3994 152.09 43.6883 159.381 41.0755 169.385H41.0711C41.0623 169.429 41.0535 169.468 41.0403 169.512C39.6679 175.41 37.4773 184.477 34.8645 193.206C34.0331 193.469 32.7795 193.71 31.5698 193.539C32.8587 182.649 30.844 173.71 34.4422 168.583Z" fill="#004275"/>
<path d="M48.3467 196.498L56.0885 196.489V196.34C56.0885 196.033 55.8686 195.775 55.5695 195.727C54.4346 195.556 52.4903 195.117 51.2543 193.036C51.2147 192.97 51.1751 192.896 51.1355 192.826C50.8716 192.444 50.4273 192.195 49.9303 192.195C49.2001 192.195 48.5975 192.729 48.4919 193.43C48.4875 193.505 48.4831 193.588 48.4743 193.667C48.4083 194.635 48.3291 195.876 48.3467 196.498Z" fill="#0A3C5F"/>
<path d="M48.4775 193.644V193.661C48.4907 194.455 49.1373 195.094 49.9379 195.09C50.7429 195.09 51.3983 194.441 51.3939 193.635C51.3939 193.42 51.3455 193.21 51.2575 193.026C51.218 192.96 51.1784 192.886 51.1388 192.816C50.8749 192.434 50.4306 192.185 49.9335 192.185C49.2033 192.185 48.6007 192.719 48.4951 193.42C48.4819 193.499 48.4775 193.569 48.4775 193.644Z" fill="#0A3C5F"/>
<path d="M50.1061 171.291C51.6196 171.291 52.8465 170.069 52.8465 168.561C52.8465 167.054 51.6196 165.831 50.1061 165.831C48.5926 165.831 47.3657 167.054 47.3657 168.561C47.3657 170.069 48.5926 171.291 50.1061 171.291Z" fill="#004E97"/>
<path d="M51.6458 193.192C50.5286 193.512 49.618 193.793 48.3996 193.872C47.3571 182.172 43.1607 173.75 46.8072 167.987L52.8379 168.741C52.7059 174.793 52.42 184.113 51.6458 193.192Z" fill="#004E97"/>
<path d="M38.9773 141.954C39.0257 142.471 39.1269 142.975 39.2764 143.453C39.4348 143.957 39.6459 144.439 39.9099 144.89C41.2735 147.256 43.9391 148.746 46.8511 148.475C50.5724 148.137 53.37 145.048 53.4184 141.411C53.4184 141.279 53.4184 141.144 53.414 141.008V140.964C53.414 140.946 53.414 140.929 53.4096 140.911C53.4096 140.815 53.4008 140.723 53.392 140.626C53.3832 140.526 53.37 140.416 53.3524 140.315C53.3392 140.201 53.3216 140.087 53.2996 139.978C53.1501 139.154 52.8597 138.387 52.4551 137.695C51.0914 135.329 48.4258 133.843 45.5138 134.11C42.9362 134.347 40.7984 135.903 39.7163 138.041C39.7119 138.041 39.7119 138.045 39.7119 138.05C39.1269 139.22 38.8498 140.561 38.9773 141.954Z" fill="#004E97"/>
<path d="M38.9861 143.475C39.3556 149.995 43.442 164.421 47.2117 171.186L52.8421 168.61C53.3567 158.273 53.5371 150.784 53.4183 141.415C53.4183 141.284 53.4183 141.148 53.4139 141.012V140.916H53.4095L51.0562 141.087L38.9773 141.959C38.9509 142.392 38.9553 142.901 38.9861 143.475Z" fill="#004E97"/>
<path d="M31.9304 101.719C31.8424 103.27 33.1621 104.515 34.882 104.497C36.6019 104.48 38.0667 103.209 38.1546 101.662C38.2426 100.111 36.923 98.8662 35.2031 98.8837C33.4876 98.8969 32.0228 100.168 31.9304 101.719Z" fill="#004275"/>
<path d="M31.759 120.956C31.6842 122.253 32.7883 123.291 34.2266 123.278C35.665 123.265 36.8879 122.205 36.9627 120.908C37.0374 119.61 35.9334 118.572 34.495 118.585C33.061 118.598 31.8337 119.663 31.759 120.956Z" fill="#004275"/>
<path d="M31.9306 101.346C32.4761 99.8872 33.4878 98.8969 35.2033 98.8793C37.2443 98.8618 38.2252 100.119 38.366 101.658C39.2545 111.258 36.6021 115.031 37.0771 121.048C37.1651 122.161 35.8631 123.265 33.9452 123.283C32.6916 123.296 31.8383 122.358 31.6403 121.262C29.5509 109.76 31.4072 102.753 31.9306 101.346Z" fill="#004275"/>
<path d="M53.7262 114.576C54.1352 114.453 54.3772 114.063 54.2672 113.704C54.1572 113.344 53.7393 113.147 53.3303 113.27C52.9212 113.392 52.6793 113.782 52.7892 114.142C52.8992 114.501 53.3215 114.698 53.7262 114.576Z" fill="#004E97"/>
<path d="M34.6094 123.252C36.0434 123.05 37.0903 121.845 36.9539 120.566C36.8176 119.286 35.5463 118.414 34.1123 118.616C32.6783 118.817 31.6314 120.022 31.7678 121.302C31.9042 122.581 33.1754 123.453 34.6094 123.252Z" fill="#004E97"/>
<path d="M53.911 114.698C45.6062 119.076 35.8806 122.945 35.0316 123.16C33.5097 123.545 32.2164 122.906 31.8425 121.679C31.473 120.456 31.627 119.391 33.3513 118.642C38.3395 116.477 45.4874 115.027 53.194 113.125L53.911 114.698Z" fill="#004E97"/>
<path d="M35.4407 118.353C35.014 118.348 34.6753 117.998 34.6797 117.573C34.6841 117.148 35.036 116.81 35.4627 116.815C35.8894 116.819 36.2281 117.17 36.2237 117.595C36.2193 118.024 35.8674 118.362 35.4407 118.353Z" fill="#004275"/>
<path d="M56.2024 121.928C54.7684 122.143 53.4312 121.162 53.2156 119.733C53.0001 118.305 53.9854 116.972 55.4194 116.758C56.8534 116.543 58.1906 117.525 58.4061 118.953C58.6261 120.382 57.6363 121.714 56.2024 121.928Z" fill="#004275"/>
<path d="M35.2998 118.541C44.4844 120.754 54.9006 121.986 55.7715 121.959C57.3419 121.911 58.4151 120.829 58.4371 119.383C58.4591 117.945 58.0237 116.841 56.1586 116.552C50.7701 115.724 43.4946 116.328 35.5593 116.618L35.2998 118.541Z" fill="#004275"/>
<path d="M38.5859 143.505C38.5991 143.965 38.6475 144.496 38.7311 145.087C38.8322 145.065 38.9378 145.052 39.039 145.035C39.0698 145.03 39.0962 145.026 39.1269 145.021C39.3821 144.978 39.6416 144.934 39.9099 144.886C43.4773 144.268 47.8056 143.277 51.3598 141.476C51.6633 141.323 51.9624 141.165 52.2528 140.994C52.6355 140.78 53.0005 140.552 53.3568 140.311C53.3436 140.197 53.3261 140.083 53.3041 139.973C53.1545 139.15 52.8642 138.383 52.4595 137.69C50.7748 135.425 47.854 134.18 44.8321 134.719C42.6503 135.105 40.8468 136.354 39.7208 138.037C39.7164 138.037 39.7164 138.041 39.7164 138.045C38.6783 139.61 38.2252 141.538 38.5859 143.505Z" fill="#004275"/>
<path d="M41.0498 101.535C41.1949 103.257 42.7125 104.536 44.4412 104.392C46.1699 104.247 47.4543 102.735 47.3092 101.013C47.164 99.2912 45.6464 98.0117 43.9177 98.1563C42.189 98.3009 40.9046 99.8127 41.0498 101.535Z" fill="#004E97"/>
<path d="M32.2521 141.367C33.906 141.739 35.5732 141.941 37.2975 141.976C37.9001 139.303 38.318 135.026 38.318 135.026C39.0701 139.759 39.2989 140.916 39.3737 141.937C43.5657 141.7 49.6315 141.086 53.7047 138.409C52.8646 127.765 51.0259 116.109 48.6462 103.603C47.6917 98.5726 43.3369 95.0714 38.6039 95.7199C33.8708 96.3728 30.5982 100.921 31.082 106.018C32.3533 119.317 32.7536 131.117 32.2521 141.367Z" fill="#004E97"/>
<path d="M31.8779 102.306C32.023 104.028 33.5406 105.308 35.2693 105.163C36.998 105.018 38.2824 103.507 38.1373 101.785C37.9921 100.062 36.4746 98.7829 34.7459 98.9275C33.0172 99.0721 31.7327 100.584 31.8779 102.306Z" fill="#004E97"/>
<path d="M50.7218 114.194C52.1426 114.974 52.7408 117.634 52.2393 118.423C51.8127 119.098 50.0444 119.383 49.7189 118.949C49.3406 118.445 50.8141 118.616 50.5546 118.221C50.2995 117.823 48.7204 118.966 48.3465 118.353C47.8758 117.586 49.9784 117.542 49.6353 116.942C49.4022 116.534 47.735 118.024 47.5151 117.218C47.2952 116.412 49.4813 116.144 49.169 115.566C48.9931 115.242 47.8538 116.311 47.5371 115.71C47.2072 115.084 50.0664 113.835 50.7218 114.194Z" fill="#F7B690"/>
<path d="M47.2045 102.015C47.5965 100.331 46.5446 98.6503 44.8549 98.2598C43.1653 97.8693 41.4778 98.9172 41.0858 100.6C40.6938 102.284 41.7457 103.965 43.4353 104.355C45.125 104.746 46.8125 103.698 47.2045 102.015Z" fill="#004275"/>
<path d="M53.5767 120.715C54.3377 121.946 55.9564 122.327 57.1881 121.569C58.4241 120.811 58.8068 119.199 58.0459 117.972C57.2849 116.74 55.6661 116.359 54.4345 117.117C53.1984 117.875 52.8158 119.488 53.5767 120.715Z" fill="#004275"/>
<path d="M41.2383 102.613C40.7808 100.987 41.0227 99.5541 42.5007 98.6471C44.2558 97.5691 45.9053 98.222 47.005 99.5541C53.889 107.915 53.9946 112.757 58.2394 118.037C59.0268 119.014 58.6045 120.706 56.955 121.718C55.8773 122.38 54.5444 121.959 53.6735 121.056C44.5373 111.574 41.6781 104.173 41.2383 102.613Z" fill="#004275"/>
<path d="M37.5524 91.3906C37.658 92.0259 38.2562 92.4554 38.894 92.3502C39.5318 92.245 39.9629 91.6491 39.8573 91.0137C39.7518 90.3783 39.1535 89.9489 38.5157 90.0541C37.8823 90.1548 37.4468 90.7552 37.5524 91.3906Z" fill="#0071BC"/>
<path d="M41.4144 81.5443C42.6901 84.1691 45.3733 90.8209 42.3558 92.6657C40.284 93.9321 35.3486 91.3117 34.2665 89.2478C33.1712 87.1532 30.3164 84.4101 35.1638 81.3077C39.0655 78.8099 40.7106 80.1026 41.4144 81.5443Z" fill="#F4A086"/>
<path d="M37.5437 91.2986C37.5965 91.9384 38.1639 92.416 38.8061 92.3591C39.4483 92.3065 39.9278 91.7412 39.8706 91.1014C39.8178 90.4617 39.2504 89.984 38.6082 90.041C37.966 90.0936 37.4865 90.6589 37.5437 91.2986Z" fill="#0071BC"/>
<path d="M36.8838 96.4254C37.4028 95.2949 37.3149 93.3011 37.1565 91.8419C37.0509 90.891 37.6976 90.0409 38.6037 89.962C39.5054 89.8875 40.2884 90.6193 40.3456 91.5746C40.4336 93.0425 40.6843 95.0188 41.3837 96.0486C41.4541 97.3675 37.0289 97.74 36.8838 96.4254Z" fill="#F4B09A"/>
<path d="M30.8618 83.9149C30.743 83.021 30.9893 81.7195 31.3368 81.0622C32.2342 79.4102 36.91 78.3629 38.454 78.1833C39.5976 78.0518 39.4877 77.4077 40.1255 77.6618C40.6841 77.8853 41.0932 78.6171 41.1152 78.7004C41.3879 79.6337 41.0712 80.5057 40.4378 80.5714C39.9495 80.6197 39.3513 80.773 38.7883 81.1586C37.539 82.0131 37.6974 83.5468 38.6739 84.8614C39.6504 86.176 39.9188 86.3951 40.0991 87.4643L39.7648 87.4774C39.6152 87.1838 39.3073 86.4258 38.6343 86.176C38.1153 85.9788 37.605 86.6755 38.1901 87.7666C38.8323 88.9673 39.0962 88.4984 39.624 89.2478C40.3322 90.2556 38.8323 92.1705 36.0303 92.4291C35.6916 90.3914 33.479 89.4274 32.4453 87.7141C31.4292 86.0401 30.9805 84.8088 30.8618 83.9149Z" fill="#0A3C5F"/>
<path d="M35.9775 97.017L36.4702 94.6026C36.4702 94.6026 39.5625 92.9374 42.7384 96.2108C42.7384 96.2108 38.9159 98.1739 35.9775 97.017Z" fill="#004275"/>
</svg>
