<svg width="274" height="183" viewBox="0 0 274 183" fill="none" xmlns="http://www.w3.org/2000/svg">
<g clip-path="url(#clip0)">
<path d="M142.579 52.6067C121.464 49.8845 101.031 49.8197 80.0572 52.6067V37.3108H142.579V52.6067Z" fill="url(#paint0_linear)"/>
<path d="M111.612 47.0368C111.417 47.0975 111.208 47.0972 111.014 47.0359L68.0548 33.5099C67.1391 33.2216 67.1163 31.934 68.0212 31.6134L110.999 16.3901C111.202 16.3179 111.424 16.3137 111.63 16.378L157.733 30.7498C158.67 31.0417 158.67 32.3672 157.733 32.6592L111.612 47.0368Z" fill="url(#paint1_linear)"/>
<path d="M152.028 32.9899H150.352V56.7439H152.028V32.9899Z" fill="#248BD1"/>
<path d="M153.887 58.5911C153.887 60.0818 152.687 61.2809 151.195 61.2809C149.703 61.2809 148.503 60.0818 148.503 58.5911C148.503 57.1004 149.703 55.9014 151.195 55.9014C152.687 55.9014 153.887 57.1004 153.887 58.5911Z" fill="#248BD1"/>
<path d="M205.857 18.4933L176.072 18.8282L202.7 36.0145L203.273 27.9453L208.289 25.2015L185.099 20.1677L205.262 22.4469L206.646 20.9562L208.981 18.4393L205.857 18.4933Z" fill="#3381EB"/>
<path fill-rule="evenodd" clip-rule="evenodd" d="M216.149 26.6922L215.911 27.5348C215.446 27.4052 214.971 27.2755 214.506 27.1567L214.722 26.3033C215.198 26.433 215.673 26.5626 216.149 26.6922Z" fill="white"/>
<path fill-rule="evenodd" clip-rule="evenodd" d="M212.149 25.6985L213.587 26.0334L213.381 26.8867L211.954 26.5519L212.149 25.6985Z" fill="white"/>
<path fill-rule="evenodd" clip-rule="evenodd" d="M209.565 25.1583L211.014 25.45L210.83 26.3034L209.403 26.0225L209.565 25.1583Z" fill="white"/>
<path fill-rule="evenodd" clip-rule="evenodd" d="M221.998 29.5116L222.311 28.6907L223.684 29.2416L223.349 30.0518L221.998 29.5116Z" fill="white"/>
<path fill-rule="evenodd" clip-rule="evenodd" d="M219.814 27.8048C220.279 27.9668 220.755 28.1181 221.209 28.2909L220.917 29.1119C220.463 28.939 219.998 28.7986 219.544 28.6366L219.814 27.8048Z" fill="white"/>
<path fill-rule="evenodd" clip-rule="evenodd" d="M218.701 27.4484L218.441 28.2802C217.976 28.129 217.511 27.9886 217.046 27.8589L217.295 27.0164C217.76 27.1568 218.236 27.2972 218.701 27.4484Z" fill="white"/>
<path fill-rule="evenodd" clip-rule="evenodd" d="M229.512 32.1582C229.923 32.4391 230.355 32.6875 230.766 32.9792L230.258 33.6921C229.869 33.4113 229.447 33.1628 229.047 32.8928L229.512 32.1582Z" fill="white"/>
<path fill-rule="evenodd" clip-rule="evenodd" d="M228.485 31.5533L228.052 32.3094C227.641 32.061 227.209 31.8449 226.776 31.6181L227.177 30.8403C227.62 31.078 228.063 31.294 228.485 31.5533Z" fill="white"/>
<path fill-rule="evenodd" clip-rule="evenodd" d="M224.43 30.5054L224.787 29.7061C225.241 29.8897 225.685 30.1165 226.139 30.3218L225.76 31.1103C225.317 30.9159 224.885 30.6999 224.43 30.5054Z" fill="white"/>
<path fill-rule="evenodd" clip-rule="evenodd" d="M234.625 38.1642L235.382 37.7213C235.631 38.175 235.858 38.6395 236.063 39.1148L235.242 39.4281C235.047 38.996 234.853 38.5747 234.625 38.1642Z" fill="white"/>
<path fill-rule="evenodd" clip-rule="evenodd" d="M233.09 36.1226L233.728 35.5284C234.074 35.8957 234.388 36.3062 234.712 36.6951L234.009 37.2136C233.696 36.8571 233.415 36.4682 233.09 36.1226Z" fill="white"/>
<path fill-rule="evenodd" clip-rule="evenodd" d="M231.188 34.3942L231.728 33.7029L232.885 34.6751L232.29 35.3232L231.188 34.3942Z" fill="white"/>
<path fill-rule="evenodd" clip-rule="evenodd" d="M235.955 45.8014C235.761 46.2659 235.534 46.7304 235.317 47.1948L234.539 46.7952C234.734 46.3631 234.939 45.931 235.134 45.4989L235.955 45.8014Z" fill="white"/>
<path fill-rule="evenodd" clip-rule="evenodd" d="M235.728 43.0144L236.604 43.1008L236.485 43.8678C236.442 44.127 236.42 44.3863 236.323 44.6239L235.48 44.4079C235.566 44.181 235.588 43.9434 235.62 43.7165L235.728 43.0144Z" fill="white"/>
<path fill-rule="evenodd" clip-rule="evenodd" d="M235.685 41.2104L235.577 40.519L236.431 40.3246L236.55 41.1023C236.593 41.3616 236.636 41.6208 236.626 41.8801L235.75 41.9125C235.771 41.6749 235.717 41.448 235.685 41.2104Z" fill="white"/>
<path fill-rule="evenodd" clip-rule="evenodd" d="M231.306 52.4014C230.95 52.7471 230.604 53.1036 230.214 53.4168L229.631 52.7579C230.009 52.4554 230.344 52.099 230.69 51.7749L231.306 52.4014Z" fill="white"/>
<path fill-rule="evenodd" clip-rule="evenodd" d="M233.144 50.4354L232.15 51.5589L231.512 50.9647L232.474 49.8845L233.144 50.4354Z" fill="white"/>
<path fill-rule="evenodd" clip-rule="evenodd" d="M233.966 47.7889L234.712 48.2426L234.312 48.8908L233.869 49.4957L233.155 48.9772L233.588 48.4047L233.966 47.7889Z" fill="white"/>
<path fill-rule="evenodd" clip-rule="evenodd" d="M224.993 57.284L223.728 58.0726L223.284 57.3164L224.517 56.5494L224.993 57.284Z" fill="white"/>
<path fill-rule="evenodd" clip-rule="evenodd" d="M227.198 55.815L225.976 56.6468L225.49 55.923L226.69 55.1021L227.198 55.815Z" fill="white"/>
<path fill-rule="evenodd" clip-rule="evenodd" d="M229.306 54.1946C228.939 54.5186 228.528 54.7995 228.139 55.1128L227.609 54.4106C227.987 54.1082 228.387 53.8381 228.755 53.514L229.306 54.1946Z" fill="white"/>
<path fill-rule="evenodd" clip-rule="evenodd" d="M217.641 60.3411L218.019 61.1296L216.69 61.7561L216.322 60.9568L217.641 60.3411Z" fill="white"/>
<path fill-rule="evenodd" clip-rule="evenodd" d="M220.387 59.9413C219.955 60.179 219.511 60.395 219.068 60.6111L218.679 59.8225C219.111 59.6065 219.555 59.3904 219.976 59.1636L220.387 59.9413Z" fill="white"/>
<path fill-rule="evenodd" clip-rule="evenodd" d="M222.701 58.6667C222.279 58.9151 221.847 59.1636 221.414 59.3904L220.992 58.6235C221.425 58.3966 221.847 58.159 222.268 57.9105L222.701 58.6667Z" fill="white"/>
<path fill-rule="evenodd" clip-rule="evenodd" d="M210.419 63.4629L210.743 64.2731L209.37 64.8132L209.057 63.9922L210.419 63.4629Z" fill="white"/>
<path fill-rule="evenodd" clip-rule="evenodd" d="M212.852 62.48L213.187 63.2901L211.825 63.8519L211.5 63.0309L212.852 62.48Z" fill="white"/>
<path fill-rule="evenodd" clip-rule="evenodd" d="M215.252 61.4429L215.608 62.2422L214.257 62.8363L213.911 62.0262L215.252 61.4429Z" fill="white"/>
<path fill-rule="evenodd" clip-rule="evenodd" d="M203.003 66.1202L203.273 66.952L201.878 67.3949L201.608 66.5631L203.003 66.1202Z" fill="white"/>
<path fill-rule="evenodd" clip-rule="evenodd" d="M205.489 65.2777L205.781 66.0987L204.386 66.574L204.105 65.7422L205.489 65.2777Z" fill="white"/>
<path fill-rule="evenodd" clip-rule="evenodd" d="M207.954 64.3918L208.257 65.2236L206.873 65.7205L206.581 64.8996L207.954 64.3918Z" fill="white"/>
<path fill-rule="evenodd" clip-rule="evenodd" d="M195.456 68.3887L195.694 69.2312L194.278 69.6201L194.051 68.7775L195.456 68.3887Z" fill="white"/>
<path fill-rule="evenodd" clip-rule="evenodd" d="M197.986 67.6649L198.235 68.5075L196.819 68.918L196.581 68.0754L197.986 67.6649Z" fill="white"/>
<path fill-rule="evenodd" clip-rule="evenodd" d="M200.484 66.9197L200.743 67.7514L199.338 68.1835L199.089 67.341L200.484 66.9197Z" fill="white"/>
<path fill-rule="evenodd" clip-rule="evenodd" d="M186.397 70.6355L187.824 70.3223L188.018 71.1756L186.58 71.4889L186.397 70.6355Z" fill="white"/>
<path fill-rule="evenodd" clip-rule="evenodd" d="M190.375 69.7174L190.58 70.5708L189.153 70.9165L188.959 70.0631L190.375 69.7174Z" fill="white"/>
<path fill-rule="evenodd" clip-rule="evenodd" d="M192.905 69.0692L193.132 69.9226L191.705 70.2899L191.489 69.4365L192.905 69.0692Z" fill="white"/>
<path d="M40.7259 22.9654L44.8018 25.1907L40.7259 27.4267L38.488 31.51L36.2501 27.4267L32.1743 25.1907L36.2501 22.9654L38.488 18.8822L40.7259 22.9654Z" fill="#F2F2F2"/>
<path d="M50.6182 30.2137L52.9859 31.51L50.6182 32.7954L49.3317 35.1611L48.0343 32.7954L45.6667 31.51L48.0343 30.2137L49.3317 27.848L50.6182 30.2137Z" fill="#F2F2F2"/>
<path d="M162.179 4.08323L158.093 6.30848L162.179 8.54454L164.406 12.6278L166.644 8.54454L170.731 6.30848L166.644 4.08323L164.406 0L162.179 4.08323Z" fill="white"/>
<path d="M152.276 11.3315L149.909 12.6278L152.276 13.9132L153.574 16.2789L154.86 13.9132L157.228 12.6278L154.86 11.3315L153.574 8.96582L152.276 11.3315Z" fill="white"/>
<path d="M188.418 98.4188C197.936 98.4188 205.651 90.7098 205.651 81.2001C205.651 71.6905 197.936 63.9814 188.418 63.9814C178.901 63.9814 171.185 71.6905 171.185 81.2001C171.185 90.7098 178.901 98.4188 188.418 98.4188Z" fill="#3381EB"/>
<path d="M188.418 95.1025C196.103 95.1025 202.332 88.8781 202.332 81.2C202.332 73.5219 196.103 67.2976 188.418 67.2976C180.734 67.2976 174.504 73.5219 174.504 81.2C174.504 88.8781 180.734 95.1025 188.418 95.1025Z" fill="white"/>
<path d="M188.418 91.7106C194.228 91.7106 198.938 87.0049 198.938 81.2001C198.938 75.3953 194.228 70.6896 188.418 70.6896C182.609 70.6896 177.899 75.3953 177.899 81.2001C177.899 87.0049 182.609 91.7106 188.418 91.7106Z" fill="#579BF7"/>
<path d="M188.418 87.703C192.013 87.703 194.927 84.7915 194.927 81.2001C194.927 77.6086 192.013 74.6971 188.418 74.6971C184.824 74.6971 181.91 77.6086 181.91 81.2001C181.91 84.7915 184.824 87.703 188.418 87.703Z" fill="white"/>
<path d="M191.056 81.2001C191.056 82.6584 189.878 83.8358 188.418 83.8358C186.959 83.8358 185.78 82.6584 185.78 81.2001C185.78 79.7418 186.959 78.5643 188.418 78.5643C189.878 78.5643 191.056 79.7418 191.056 81.2001Z" fill="#8888BA"/>
<path d="M210.722 59.6821L210.56 55.6637L206.451 59.7793L206.733 62.912L191.748 77.8838L190.267 76.4039L188.635 81.3513L193.835 79.9794L192.267 78.4023L207.143 63.5385L210.073 63.949L214.625 59.4013L210.722 59.6821Z" fill="#248BD1"/>
<path d="M23.5908 49.2904L13.2228 55.977L23.5908 63.0956L33.9588 55.977L23.5908 49.2904Z" fill="#1B7BFC"/>
<path d="M28.937 54H17.7365C17.1842 54 16.7365 54.4477 16.7365 55V66.1895C16.7365 66.7418 17.1842 67.1895 17.7365 67.1895H28.937C29.4893 67.1895 29.937 66.7418 29.937 66.1895V55C29.937 54.4477 29.4893 54 28.937 54Z" fill="white"/>
<path d="M23.5908 64.3919L12.2823 56.6251V69.901C12.2823 70.7868 13.0066 71.5105 13.8932 71.5105H33.2993C34.1859 71.5105 34.9102 70.7868 34.9102 69.901V56.6251L23.5908 64.3919Z" fill="#1B7BFC"/>
<path d="M73.1921 107.525C73.1921 111.003 70.3703 113.823 66.8891 113.823C63.4079 113.823 60.5862 111.003 60.5862 107.525C60.5862 104.047 63.4079 101.227 66.8891 101.227C70.3595 101.227 73.1921 104.047 73.1921 107.525Z" fill="#31374F"/>
<path d="M66.2837 109.48C66.2837 109.556 66.2837 109.61 66.2729 109.664C66.2729 109.718 66.2621 109.761 66.2513 109.793C66.2405 109.826 66.2297 109.858 66.2188 109.891C66.208 109.912 66.1864 109.945 66.154 109.977C66.1215 110.01 66.0567 110.053 65.9702 110.107C65.8837 110.161 65.7648 110.204 65.635 110.258C65.5053 110.301 65.3539 110.344 65.181 110.377C65.008 110.409 64.835 110.42 64.6296 110.42C64.2512 110.42 63.9052 110.366 63.5917 110.247C63.2782 110.128 63.0187 109.955 62.8025 109.718C62.5863 109.48 62.4241 109.189 62.3052 108.843C62.1863 108.486 62.1322 108.087 62.1322 107.611C62.1322 107.136 62.1971 106.715 62.3268 106.348C62.4565 105.98 62.6295 105.667 62.8566 105.419C63.0836 105.17 63.3539 104.976 63.6782 104.846C63.9917 104.716 64.3485 104.652 64.7269 104.652C64.8783 104.652 65.0296 104.662 65.181 104.695C65.3215 104.716 65.4621 104.76 65.581 104.792C65.6999 104.835 65.8188 104.878 65.9161 104.932C66.0134 104.986 66.0783 105.03 66.1215 105.073C66.1648 105.116 66.1864 105.149 66.1972 105.17C66.208 105.192 66.2188 105.224 66.2297 105.267C66.2405 105.311 66.2405 105.354 66.2513 105.408C66.2621 105.462 66.2621 105.527 66.2621 105.613C66.2621 105.699 66.2621 105.775 66.2513 105.829C66.2405 105.894 66.2405 105.937 66.2188 105.98C66.208 106.013 66.1864 106.045 66.1648 106.067C66.1432 106.088 66.1215 106.088 66.0999 106.088C66.0567 106.088 66.0026 106.067 65.9378 106.013C65.8729 105.959 65.7864 105.905 65.6783 105.84C65.5702 105.775 65.4512 105.721 65.2999 105.667C65.1593 105.613 64.9756 105.591 64.7809 105.591C64.5539 105.591 64.3593 105.635 64.1863 105.732C64.0134 105.818 63.862 105.948 63.7431 106.121C63.6241 106.294 63.5269 106.488 63.462 106.736C63.3971 106.974 63.3647 107.244 63.3647 107.547C63.3647 107.871 63.3971 108.162 63.462 108.4C63.5269 108.638 63.6242 108.843 63.7539 108.994C63.8836 109.145 64.035 109.264 64.208 109.34C64.3809 109.415 64.5863 109.459 64.8026 109.459C65.008 109.459 65.181 109.437 65.3215 109.383C65.4729 109.34 65.5918 109.286 65.6999 109.221C65.808 109.167 65.8945 109.113 65.9594 109.07C66.0242 109.027 66.0783 109.005 66.1215 109.005C66.154 109.005 66.1756 109.016 66.1864 109.027C66.208 109.037 66.2188 109.059 66.2297 109.091C66.2405 109.124 66.2513 109.178 66.2513 109.232C66.2837 109.297 66.2837 109.372 66.2837 109.48Z" fill="#CCE9F1"/>
<path d="M69.8838 110.128C69.873 110.182 69.8514 110.215 69.8298 110.247C69.8081 110.28 69.7649 110.301 69.7217 110.312C69.6676 110.323 69.6027 110.334 69.5054 110.344C69.4189 110.344 69.3 110.355 69.1595 110.355C69.0406 110.355 68.9433 110.355 68.8676 110.355C68.7811 110.355 68.7162 110.355 68.6622 110.344C68.6081 110.334 68.5541 110.334 68.5216 110.323C68.4892 110.312 68.4567 110.301 68.4351 110.28C68.4135 110.258 68.3919 110.236 68.3811 110.215C68.3703 110.193 68.3594 110.161 68.3486 110.118L66.6837 105.159C66.6513 105.051 66.6297 104.976 66.6188 104.911C66.608 104.846 66.6297 104.803 66.6621 104.77C66.6945 104.738 66.7594 104.716 66.8459 104.716C66.9324 104.706 67.0513 104.706 67.2135 104.706C67.3432 104.706 67.4513 104.706 67.527 104.716C67.6027 104.727 67.6567 104.727 67.7 104.749C67.7432 104.76 67.7648 104.781 67.7865 104.814C67.7973 104.846 67.8189 104.878 67.8297 104.922L69.1919 109.232L70.5325 104.943C70.5433 104.889 70.5541 104.857 70.5757 104.824C70.5974 104.792 70.619 104.77 70.6622 104.749C70.7055 104.727 70.7595 104.716 70.846 104.716C70.9217 104.706 71.0298 104.706 71.1704 104.706C71.3001 104.706 71.4082 104.706 71.4839 104.716C71.5596 104.727 71.6028 104.749 71.6353 104.781C71.6677 104.814 71.6677 104.857 71.6569 104.922C71.6461 104.986 71.6244 105.062 71.592 105.159L69.8838 110.128Z" fill="#CCE9F1"/>
<path d="M243.828 123C238.119 123 233.06 125.852 230 130.194L231.254 131.447C233.979 127.407 238.595 124.739 243.828 124.739C249.06 124.739 253.687 127.407 256.401 131.447L257.655 130.194C254.596 125.841 249.536 123 243.828 123Z" fill="#F2F2F2"/>
<path d="M243.828 126.003C238.941 126.003 234.638 128.542 232.162 132.355L233.384 133.575C235.525 130.043 239.406 127.677 243.828 127.677C248.249 127.677 252.131 130.043 254.271 133.575L255.493 132.355C253.017 128.531 248.714 126.003 243.828 126.003Z" fill="#F2F2F2"/>
<path d="M243.828 129.492C239.903 129.492 236.476 131.685 234.703 134.904L235.903 136.103C237.319 133.154 240.336 131.112 243.817 131.112C247.298 131.112 250.325 133.154 251.731 136.103L252.931 134.904C251.179 131.685 247.752 129.492 243.828 129.492Z" fill="#F2F2F2"/>
<path d="M243.828 133.24C240.919 133.24 238.433 135.12 237.546 137.734L239.2 139.387C239.449 137.054 241.427 135.228 243.828 135.228C246.228 135.228 248.217 137.054 248.455 139.387L250.109 137.734C249.212 135.12 246.736 133.24 243.828 133.24Z" fill="#F2F2F2"/>
<path d="M243.828 137.594C242.563 137.594 241.546 138.62 241.546 139.873C241.546 141.137 242.573 142.152 243.828 142.152C245.092 142.152 246.109 141.126 246.109 139.873C246.109 138.62 245.082 137.594 243.828 137.594Z" fill="#F2F2F2"/>
<path d="M146.265 103.28H66.0458C62.8781 103.28 60.3051 100.709 60.3051 97.5439V89.9608C60.3051 86.7957 62.8781 84.2356 66.0458 84.2356H146.265V103.28Z" fill="white"/>
<path d="M149.249 103.28H63.689C62.2079 103.28 60.997 101.962 60.997 100.342V87.8003C60.997 86.1799 62.2079 84.8621 63.689 84.8621H149.249V83.0581H63.689C61.2997 83.0581 59.3537 85.1861 59.3537 87.8003V100.342C59.3537 102.956 61.2997 105.084 63.689 105.084H149.249V103.28Z" fill="#1B7BFC"/>
<path d="M73.3326 102.059L69.3216 96.5825L65.3107 102.059V87.8867H73.3326V102.059Z" fill="#1B7BFC"/>
<path d="M161.217 81.2542H65.8404C62.8781 81.2542 60.478 78.8561 60.478 75.8963C60.478 72.9365 62.8781 70.5385 65.8404 70.5385H161.217V81.2542Z" fill="white"/>
<path d="M164.72 81.2542H64.435C62.6944 81.2542 61.2781 79.9363 61.2781 78.316V74.1031C61.2781 72.4828 62.6944 71.1649 64.435 71.1649H164.709V69.361H64.435C61.6349 69.361 59.3537 71.489 59.3537 74.1031V78.3052C59.3537 80.9193 61.6349 83.0473 64.435 83.0473H164.709V81.2542H164.72Z" fill="#FBB03B"/>
<path d="M140.687 68.0323H77.1382C73.9705 68.0323 71.3974 65.4614 71.3974 62.2963V59.7362C71.3974 56.5712 73.9705 54.0002 77.1382 54.0002H140.687V68.0323Z" fill="white"/>
<path fill-rule="evenodd" clip-rule="evenodd" d="M103.993 68.0323H143.098V69.3393H74.1218C73.2853 69.3393 72.5161 69.0433 71.9139 68.5507H71.8191V68.4704C71.0906 67.8303 70.6298 66.8926 70.6298 65.8502V56.6144C70.6298 54.6916 72.1974 53.1252 74.1218 53.1252H143.098V54.4539H103.993V68.0323Z" fill="url(#paint2_linear)"/>
<path d="M81.8951 67.1465L78.6626 63.1065L75.43 67.1465V56.7008H81.8951V67.1465Z" fill="#DEE3FC"/>
<path d="M76.403 87.541H63.7106V87.8759H76.403V87.541Z" fill="#1B7BFC"/>
<path d="M63.0187 157.507H155.314C158.482 157.507 161.044 154.936 161.044 151.771V143.388C161.044 140.223 158.471 137.652 155.314 137.652H63.0187V157.507Z" fill="white"/>
<path fill-rule="evenodd" clip-rule="evenodd" d="M114.943 157.507H59.6132V159.386H157.195C158.404 159.386 159.512 158.952 160.371 158.232H160.458V158.157C161.493 157.249 162.147 155.917 162.147 154.439V141.368C162.147 138.635 159.92 136.421 157.195 136.421H59.6132V138.301H114.943V157.507Z" fill="url(#paint3_linear)"/>
<path d="M146.2 156.243L150.773 150.518L155.357 156.243V141.466H146.2V156.243Z" fill="white"/>
<path d="M181.683 133.688H65.8188C62.6511 133.688 60.0781 131.117 60.0781 127.952V112.473C60.0781 109.307 62.6511 106.737 65.8188 106.737H181.694V133.688H181.683Z" fill="white"/>
<path d="M185.91 133.688H64.8566C62.7592 133.688 61.051 131.819 61.051 129.529V111.792C61.051 109.491 62.7592 107.633 64.8566 107.633H185.91V105.084H64.8566C61.4727 105.084 58.7158 108.098 58.7158 111.792V129.529C58.7158 133.224 61.4727 136.237 64.8566 136.237H185.91V133.688Z" fill="url(#paint4_linear)"/>
<path d="M78.5004 131.97L72.8245 124.214L67.1486 131.97V111.911H78.5004V131.97Z" fill="#1B7BFC"/>
<path d="M82.8357 111.425H64.8782V111.889H82.8357V111.425Z" fill="#1B7BFC"/>
<path d="M56.1103 175.849H192.905C196.073 175.849 198.646 173.278 198.646 170.113V166.419C198.646 163.254 196.073 160.693 192.905 160.693H56.1103V175.849Z" fill="#DEE3FC"/>
<path d="M51.1588 175.849H193.035C195.5 175.849 197.5 173.98 197.5 171.69V165.738C197.5 163.437 195.5 161.579 193.035 161.579H51.1588V159.03H193.035C197.002 159.03 200.224 162.044 200.224 165.738V171.69C200.224 175.384 197.002 178.398 193.035 178.398H51.1588V175.849Z" fill="#197AFC"/>
<path d="M177.78 113.618H84.5655V114.082H177.78V113.618Z" fill="white"/>
<path d="M177.78 115.54H84.5655V116.005H177.78V115.54Z" fill="white"/>
<path d="M177.78 117.463H84.5655V117.928H177.78V117.463Z" fill="white"/>
<path d="M177.78 119.386H84.5655V119.85H177.78V119.386Z" fill="white"/>
<path d="M177.78 121.309H84.5655V121.773H177.78V121.309Z" fill="white"/>
<path d="M177.78 123.232H84.5655V123.696H177.78V123.232Z" fill="white"/>
<path d="M177.78 125.154H84.5655V125.619H177.78V125.154Z" fill="white"/>
<path d="M177.78 127.066H84.5655V127.531H177.78V127.066Z" fill="white"/>
<path d="M177.78 111.695H84.5655V112.159H177.78V111.695Z" fill="white"/>
<path d="M177.78 128.989H84.5655V129.454H177.78V128.989Z" fill="white"/>
<path d="M195.737 163.913H57.6995V164.237H195.737V163.913Z" fill="white"/>
<path d="M195.737 165.252H57.6995V165.576H195.737V165.252Z" fill="white"/>
<path d="M195.737 166.602H57.6995V166.926H195.737V166.602Z" fill="white"/>
<path d="M195.737 167.953H57.6995V168.277H195.737V167.953Z" fill="white"/>
<path d="M195.737 169.303H57.6995V169.627H195.737V169.303Z" fill="white"/>
<path d="M195.737 170.653H57.6995V170.977H195.737V170.653Z" fill="white"/>
<path d="M195.737 172.003H57.6995V172.327H195.737V172.003Z" fill="white"/>
<path d="M195.737 173.354H57.6995V173.678H195.737V173.354Z" fill="white"/>
<path d="M195.737 162.562H57.6995V162.886H195.737V162.562Z" fill="white"/>
<path d="M195.737 174.704H57.6995V175.028H195.737V174.704Z" fill="white"/>
<path d="M145.476 89.0857H77.1814V89.4638H145.476V89.0857Z" fill="#DEE3FC"/>
<path d="M145.476 90.6628H77.1814V91.0409H145.476V90.6628Z" fill="#DEE3FC"/>
<path d="M145.476 92.2291H77.1814V92.6072H145.476V92.2291Z" fill="#DEE3FC"/>
<path d="M145.476 93.8063H77.1814V94.1844H145.476V93.8063Z" fill="#DEE3FC"/>
<path d="M145.476 95.3726H77.1814V95.7506H145.476V95.3726Z" fill="#DEE3FC"/>
<path d="M145.476 96.9497H77.1814V97.3278H145.476V96.9497Z" fill="#DEE3FC"/>
<path d="M145.476 98.5161H77.1814V98.8941H145.476V98.5161Z" fill="#DEE3FC"/>
<path d="M145.476 100.082H77.1814V100.46H145.476V100.082Z" fill="#DEE3FC"/>
<path d="M145.476 87.5194H77.1814V87.8975H145.476V87.5194Z" fill="#DEE3FC"/>
<path d="M145.476 101.659H77.1814V102.038H145.476V101.659Z" fill="#DEE3FC"/>
<path d="M160.32 72.7421H62.8781V72.9581H160.32V72.7421Z" fill="white"/>
<path d="M160.32 73.6278H62.8781V73.8438H160.32V73.6278Z" fill="white"/>
<path d="M160.32 74.5244H62.8781V74.7405H160.32V74.5244Z" fill="white"/>
<path d="M160.32 75.4102H62.8781V75.6262H160.32V75.4102Z" fill="white"/>
<path d="M160.32 76.3068H62.8781V76.5228H160.32V76.3068Z" fill="white"/>
<path d="M160.32 77.1925H62.8781V77.4086H160.32V77.1925Z" fill="white"/>
<path d="M160.32 78.0891H62.8781V78.3052H160.32V78.0891Z" fill="white"/>
<path d="M160.32 78.9749H62.8781V79.1909H160.32V78.9749Z" fill="white"/>
<path d="M160.32 71.8455H62.8781V72.0615H160.32V71.8455Z" fill="white"/>
<path d="M160.32 79.8715H62.8781V80.0875H160.32V79.8715Z" fill="white"/>
<path d="M114.718 140.612H64.8782V141.077H114.718V140.612Z" fill="#BDBDBD"/>
<path d="M114.718 142.535H64.8782V143H114.718V142.535Z" fill="#BDBDBD"/>
<path d="M114.718 144.458H64.8782V144.922H114.718V144.458Z" fill="#BDBDBD"/>
<path d="M114.718 146.381H64.8782V146.845H114.718V146.381Z" fill="#BDBDBD"/>
<path d="M114.718 148.303H64.8782V148.768H114.718V148.303Z" fill="#BDBDBD"/>
<path d="M114.718 150.226H64.8782V150.691H114.718V150.226Z" fill="#BDBDBD"/>
<path d="M114.718 152.149H64.8782V152.613H114.718V152.149Z" fill="#BDBDBD"/>
<path d="M114.718 154.072H64.8782V154.536H114.718V154.072Z" fill="#BDBDBD"/>
<path d="M114.718 138.689H64.8782V139.154H114.718V138.689Z" fill="#BDBDBD"/>
<path d="M114.718 155.995H64.8782V156.459H114.718V155.995Z" fill="#BDBDBD"/>
<path d="M140.687 56.1498H103.993V56.4847H140.687V56.1498Z" fill="#DEE3FC"/>
<path d="M140.687 57.5109H103.993V57.8457H140.687V57.5109Z" fill="#DEE3FC"/>
<path d="M140.687 58.8719H103.993V59.2068H140.687V58.8719Z" fill="#DEE3FC"/>
<path d="M140.687 60.233H103.993V60.5679H140.687V60.233Z" fill="#DEE3FC"/>
<path d="M140.687 61.5941H103.993V61.929H140.687V61.5941Z" fill="#DEE3FC"/>
<path d="M140.687 62.9552H103.993V63.2901H140.687V62.9552Z" fill="#DEE3FC"/>
<path d="M140.687 64.3163H103.993V64.6512H140.687V64.3163Z" fill="#DEE3FC"/>
<path d="M140.687 65.6774H103.993V66.0122H140.687V65.6774Z" fill="#DEE3FC"/>
<path d="M140.687 54.7996H103.993V55.1344H140.687V54.7996Z" fill="#DEE3FC"/>
<path d="M140.687 67.0385H103.993V67.3733H140.687V67.0385Z" fill="#DEE3FC"/>
<path d="M200.213 100.925C199.846 100.039 199.878 98.9805 200.343 98.1379C200.819 97.2953 201.738 96.712 202.7 96.7228C202.916 96.7228 203.154 96.7552 203.338 96.874C203.489 96.9713 203.608 97.1117 203.727 97.2413C204.278 97.8462 204.97 98.3431 205.727 98.6564C206.668 99.0561 207.695 99.1857 208.678 99.4666C209.241 99.6286 209.835 99.8554 210.181 100.331C210.625 100.936 210.57 101.757 210.408 102.491C210.246 103.226 210.246 103.96 210.116 104.695C210.019 105.267 210.041 105.278 209.943 105.959C209.846 106.585 209.651 107.017 209.349 107.568C209.176 107.881 209.1 109.026 208.754 109.059C208.516 109.081 208.581 108.184 208.441 107.989C208.3 107.795 208.224 107.557 208.17 107.331C207.889 106.175 207.835 104.889 207.068 103.982C206.635 103.485 206.008 103.172 205.349 103.107C204.646 103.042 204.008 103.507 203.327 103.42C202.051 103.247 200.689 102.091 200.213 100.925Z" fill="#59595C"/>
<path d="M208.419 106.348H204.516V111.489H208.419V106.348Z" fill="#F27677"/>
<path d="M202.44 103.193C202.44 103.193 202.224 108.303 203.759 109.102C205.295 109.901 207.36 108.616 208.073 108.065C208.787 107.525 209.208 106.358 209.208 106.358C209.208 106.358 209.749 105.537 209.727 104.922C209.706 104.306 209.673 103.517 209.111 103.906C208.214 104.522 208.635 104.057 208.635 104.057C208.635 104.057 208.97 103.431 208.289 102.675C207.608 101.94 202.462 100.417 202.44 103.193Z" fill="#F27677"/>
<path d="M211.662 178.107L211.695 179.781C211.857 179.77 213.933 179.738 213.933 179.738L213.9 178.063L211.662 178.107Z" fill="#F27677"/>
<path d="M211.122 179.187C211.122 179.187 206.322 181.704 206.224 181.747C206.181 181.768 205.943 181.833 205.684 181.887C205.284 181.985 205.013 182.319 205.013 182.708C205.013 182.849 205.024 182.957 205.046 182.978C205.1 183.043 214.376 182.805 214.376 182.805C214.376 182.805 214.538 179.824 214.041 179.716C213.554 179.608 211.889 180.04 211.122 179.187Z" fill="#393768"/>
<path d="M208.376 180.634L208.83 181.412L208.527 181.585L208.073 180.796L208.376 180.634Z" fill="white"/>
<path d="M207.835 180.915L208.278 181.661L207.976 181.833L207.533 181.077L207.835 180.915Z" fill="white"/>
<path d="M207.338 181.185L207.749 181.898L207.457 182.071L207.035 181.336L207.338 181.185Z" fill="white"/>
<path d="M200.246 178.063L200.084 179.738C200.246 179.727 202.321 179.716 202.321 179.716L202.419 178.042L200.246 178.063Z" fill="#F27677"/>
<path d="M199.521 179.154C199.521 179.154 194.7 181.617 194.602 181.66C194.559 181.682 194.321 181.736 194.062 181.801C193.662 181.898 193.381 182.233 193.391 182.611C193.391 182.751 193.402 182.86 193.413 182.881C193.467 182.946 202.743 182.805 202.743 182.805C202.743 182.805 202.938 179.824 202.44 179.716C201.954 179.597 200.278 180.008 199.521 179.154Z" fill="#393768"/>
<path d="M196.754 180.559L197.197 181.347L196.905 181.509L196.451 180.721L196.754 180.559Z" fill="white"/>
<path d="M196.213 180.84L196.646 181.585L196.343 181.758L195.91 180.991L196.213 180.84Z" fill="white"/>
<path d="M195.705 181.099L196.116 181.823L195.824 181.985L195.402 181.25L195.705 181.099Z" fill="white"/>
<path d="M200.17 137.382L199.359 178.301L202.527 178.193L208.397 137.425L200.17 137.382Z" fill="#393768"/>
<path d="M204.743 138.257L210.549 178.301H214.235L214.171 137.447L204.397 137.415L204.743 138.257Z" fill="#393768"/>
<path d="M188.526 112.429C188.526 112.429 188.029 111.803 187.91 111.198C187.791 110.593 187.478 108.951 187.175 109.361C186.872 109.783 187.315 110.647 186.818 110.301C186.321 109.955 185.434 108.011 185.164 108.378C184.883 108.746 184.396 109.599 185.088 110.841C185.78 112.084 186.234 112.224 186.624 112.537C187.002 112.85 187.694 113.65 187.694 113.65L188.526 112.429Z" fill="#F27677"/>
<path d="M199.77 112.278L194.97 116.178C194.883 116.383 194.613 116.404 194.483 116.221L188.267 111.976L186.97 113.574L195.013 121.103C195.078 121.179 195.208 121.179 195.262 121.082L200.224 117.301L199.77 112.278Z" fill="url(#paint5_linear)"/>
<path d="M199.77 112.278L202.224 111.349L204.516 110.463C205.77 111.381 207.078 111.176 208.419 110.226L210.57 111.079L215.079 112.85L214.181 137.436L210.538 137.425V137.458H202.159V137.393L200.17 137.371L199.77 112.278Z" fill="url(#paint6_linear)"/>
<path d="M206.354 113.92H198.602V127.304H206.354V113.92Z" fill="#F2F2F2"/>
<path d="M207.651 122.572C207.651 122.572 207.241 122.605 207.111 122.13C206.981 121.654 206.538 120.876 206.43 121.211C206.322 121.546 204.808 120.66 204.657 121.427C204.505 122.205 204.581 123.275 205.068 123.599C205.543 123.934 207.111 124.636 207.111 124.636L207.651 122.572Z" fill="#F27677"/>
<path d="M215.079 112.861C215.079 112.861 218.582 121.784 218.398 124.312C218.225 126.839 207.262 125.1 207.262 125.1C207.262 125.1 206.624 124.063 207.068 123.329C207.511 122.594 207.803 122.389 207.803 122.389L214.43 122.562C214.43 122.562 210.3 110.798 215.079 112.861Z" fill="url(#paint7_linear)"/>
<path d="M41.2773 147.266C41.2773 147.266 34.6608 157.334 35.623 159.667C36.5852 162.011 40.2394 165.565 40.2394 165.565L42.9747 164.528C42.9747 164.528 40.4989 160.423 40.6935 159.581C40.8989 158.727 43.3098 153.996 43.3098 153.996L41.2773 147.266Z" fill="url(#paint8_linear)"/>
<path d="M58.2185 147.223C58.2185 147.223 64.6621 157.258 63.7107 159.592C62.7485 161.914 59.2564 165.425 59.2564 165.425L56.5212 164.399C56.5212 164.399 58.7051 159.818 58.8348 159.386C59.0834 158.544 56.186 153.92 56.186 153.92L58.2185 147.223Z" fill="url(#paint9_linear)"/>
<path d="M58.3158 147.407C57.8293 146.413 51.5264 145.073 51.5264 145.073C51.5264 145.073 50.4885 146.305 50.3695 146.305C50.2831 146.305 49.9371 147.72 49.7425 148.541C49.5479 147.72 49.1911 146.305 49.1046 146.305C48.9857 146.305 47.937 145.236 47.937 145.236C47.937 145.236 41.6449 146.445 41.1692 147.439C40.6827 148.433 41.8935 169.292 42.5855 169.702C43.2666 170.113 46.337 170.891 47.31 171.42C48.1208 171.863 49.3965 171.56 49.7966 171.452C50.1966 171.56 51.0507 171.182 51.8615 170.739C52.8237 170.21 56.24 169.432 56.932 169.011C57.6023 168.601 58.8023 148.401 58.3158 147.407Z" fill="url(#paint10_linear)"/>
<path d="M38.4556 164.658C38.4556 164.658 35.0068 163.2 33.277 163.945C31.5472 164.69 30.2715 167.693 32.0553 169.508C33.8392 171.323 48.5533 176.821 49.829 177.21C51.1047 177.599 54.2941 177.566 54.2941 177.566L54.9752 174.855C54.986 174.866 43.818 167.013 38.4556 164.658Z" fill="#FBB03B"/>
<path d="M60.0997 164.658C60.0997 164.658 63.5485 163.2 65.2783 163.945C67.0081 164.69 68.2838 167.693 66.5 169.508C64.7161 171.323 50.002 176.821 48.7263 177.21C47.4506 177.599 44.2613 177.566 44.2613 177.566L43.5801 174.855C43.5693 174.866 54.7373 167.013 60.0997 164.658Z" fill="#FBB03B"/>
<path d="M38.6394 173.246C38.6394 173.246 38.0123 172.738 37.4826 172.738C36.9528 172.738 36.596 173.364 36.3258 174.272C36.0447 175.179 35.9041 177.955 36.2609 178.236C36.6068 178.517 37.8826 178.333 37.8826 178.333L38.6394 173.246Z" fill="black"/>
<path d="M44.1855 177.296C44.1855 177.296 40.6178 177.156 39.8286 177.48C39.0394 177.804 37.8069 178.733 37.5042 178.063C37.2015 177.394 37.4826 172.695 38.6394 173.246C39.2664 173.548 40.2178 173.937 41.0719 174.337C41.926 174.725 43.5693 174.866 43.5693 174.866L44.1855 177.296Z" fill="#393768"/>
<path d="M59.851 173.246C59.851 173.246 60.4781 172.738 61.0078 172.738C61.5376 172.738 61.8943 173.364 62.1646 174.272C62.4457 175.179 62.5863 177.955 62.2295 178.236C61.8835 178.517 60.6078 178.333 60.6078 178.333L59.851 173.246Z" fill="black"/>
<path d="M54.3049 177.296C54.3049 177.296 57.8726 177.156 58.6618 177.48C59.451 177.804 60.6835 178.733 60.9862 178.063C61.2889 177.394 61.0078 172.695 59.851 173.246C59.224 173.548 58.2726 173.937 57.4185 174.337C56.5644 174.725 54.9211 174.866 54.9211 174.866L54.3049 177.296Z" fill="#393768"/>
<path d="M59.2023 168.99H39.1475C38.7475 168.99 38.4123 168.676 38.3907 168.277L37.6772 157.399C37.6447 156.956 38.0015 156.589 38.4339 156.589H59.8834C60.3267 156.589 60.6727 156.956 60.6402 157.399L59.9591 168.277C59.9375 168.676 59.6024 168.99 59.2023 168.99Z" fill="#F2F2F2"/>
<path d="M54.1967 142.146C54.1751 142.027 54.1427 141.887 54.0346 141.833C53.9913 141.811 53.9481 141.811 53.9048 141.811C53.6994 141.822 53.494 141.984 53.3427 142.125C53.3427 141.898 53.3427 141.746 53.3427 141.746C53.4292 139.888 49.7641 139.996 49.7425 139.996C49.7101 139.986 46.0559 139.878 46.1424 141.746C46.1424 141.746 46.1424 141.887 46.1424 142.125C45.9802 141.984 45.7856 141.822 45.5802 141.811C45.5369 141.811 45.4937 141.811 45.4505 141.833C45.3423 141.887 45.2991 142.027 45.2883 142.146C45.2234 142.557 45.2126 142.967 45.2991 143.367C45.3856 143.766 45.5802 144.155 45.8829 144.425C45.991 144.523 46.1208 144.609 46.2505 144.652C46.2937 145.16 46.3478 145.603 46.4235 145.84C46.6938 146.629 48.3046 148.422 49.7317 148.476C51.1588 148.422 52.7805 146.629 53.0399 145.84C53.1156 145.614 53.1805 145.171 53.2129 144.652C53.3535 144.609 53.4724 144.523 53.5805 144.425C53.8832 144.144 54.0778 143.766 54.1643 143.367C54.2724 142.967 54.2616 142.557 54.1967 142.146Z" fill="#F27677"/>
<path d="M54.067 141.919C54.1211 141.584 54.1319 141.174 54.1751 140.839C54.2184 140.493 54.2616 140.148 54.1859 139.813C54.1427 139.575 54.0454 139.359 53.9481 139.143C53.721 138.635 53.4724 138.117 53.0616 137.739C52.4669 137.188 51.6237 136.993 50.8236 136.907C49.3965 136.745 47.9262 136.831 46.5316 136.486C46.1424 136.389 45.7964 136.086 45.4829 135.827C45.2883 135.665 45.0612 135.47 44.8126 135.546C44.5964 135.611 44.4991 135.87 44.4882 136.097C44.4666 136.637 44.7477 137.134 44.8558 137.663C44.9207 137.966 44.9207 138.279 44.9856 138.571C45.0504 138.873 45.2018 139.175 45.4613 139.327C45.2666 139.229 45.072 139.121 44.8774 139.024C44.9423 139.435 45.1153 139.834 45.3748 140.158C45.4504 140.245 45.5153 140.407 45.4072 140.45C45.3856 140.461 45.3531 140.461 45.3315 140.483C45.2991 140.515 45.3099 140.569 45.3315 140.612C45.5477 141.087 45.7856 141.552 46.0451 142.006C46.1315 142.146 46.0667 142.254 46.2288 142.254C46.3802 142.254 46.6721 142.157 46.7586 142.027C47.0721 141.541 47.4721 141.044 48.0451 140.947C48.3046 140.904 48.5641 140.958 48.8344 140.99C49.256 141.044 49.6993 141.033 50.1209 140.958C50.4452 140.904 50.7696 140.817 51.0939 140.861C51.4399 140.904 51.7534 141.087 52.0345 141.293C52.3804 141.53 52.7156 141.79 53.0399 142.07C53.094 142.114 53.148 142.168 53.2237 142.178C53.3859 142.211 53.5156 142.124 53.6345 142.006C53.7643 141.865 54.0238 141.768 54.067 141.919Z" fill="black"/>
</g>
<defs>
<linearGradient id="paint0_linear" x1="143" y1="45" x2="60.5" y2="45" gradientUnits="userSpaceOnUse">
<stop stop-color="#599CF7"/>
<stop offset="1" stop-color="#1779FC"/>
</linearGradient>
<linearGradient id="paint1_linear" x1="122.5" y1="9.5" x2="105.5" y2="47" gradientUnits="userSpaceOnUse">
<stop stop-color="#599CF7"/>
<stop offset="1" stop-color="#1779FC"/>
</linearGradient>
<linearGradient id="paint2_linear" x1="143" y1="55.5" x2="57" y2="63.5" gradientUnits="userSpaceOnUse">
<stop stop-color="#599CF7"/>
<stop offset="1" stop-color="#1779FC"/>
</linearGradient>
<linearGradient id="paint3_linear" x1="162" y1="142" x2="19" y2="140" gradientUnits="userSpaceOnUse">
<stop stop-color="#599CF7"/>
<stop offset="1" stop-color="#1779FC"/>
</linearGradient>
<linearGradient id="paint4_linear" x1="122.313" y1="105.084" x2="122.313" y2="136.237" gradientUnits="userSpaceOnUse">
<stop stop-color="#599CF7"/>
<stop offset="1" stop-color="#1779FC"/>
</linearGradient>
<linearGradient id="paint5_linear" x1="193.597" y1="111.976" x2="193.597" y2="121.158" gradientUnits="userSpaceOnUse">
<stop stop-color="#599CF7"/>
<stop offset="1" stop-color="#1779FC"/>
</linearGradient>
<linearGradient id="paint6_linear" x1="207.424" y1="110.226" x2="207.424" y2="137.458" gradientUnits="userSpaceOnUse">
<stop stop-color="#599CF7"/>
<stop offset="1" stop-color="#1779FC"/>
</linearGradient>
<linearGradient id="paint7_linear" x1="212.658" y1="112.618" x2="212.658" y2="125.683" gradientUnits="userSpaceOnUse">
<stop stop-color="#599CF7"/>
<stop offset="1" stop-color="#1779FC"/>
</linearGradient>
<linearGradient id="paint8_linear" x1="39.7753" y1="147.266" x2="39.7753" y2="165.565" gradientUnits="userSpaceOnUse">
<stop stop-color="#5469FA"/>
<stop offset="1" stop-color="#130B75"/>
</linearGradient>
<linearGradient id="paint9_linear" x1="60.3456" y1="147.223" x2="60.3456" y2="165.425" gradientUnits="userSpaceOnUse">
<stop stop-color="#5469FA"/>
<stop offset="1" stop-color="#130B75"/>
</linearGradient>
<linearGradient id="paint10_linear" x1="50.5391" y1="145.073" x2="50.5391" y2="171.654" gradientUnits="userSpaceOnUse">
<stop stop-color="#5469FA"/>
<stop offset="1" stop-color="#130B75"/>
</linearGradient>
<clipPath id="clip0">
<rect width="274" height="183" fill="white"/>
</clipPath>
</defs>
</svg>
