<svg width="170" height="117" viewBox="0 0 170 117" fill="none" xmlns="http://www.w3.org/2000/svg">
<path d="M1.99976 3L166 2.99999L166 112" stroke="#67AC2F" stroke-width="0.899243" stroke-miterlimit="10" stroke-linecap="round"/>
<path d="M2.32904 0.693848C1.04312 0.693848 4.55962e-08 1.73697 1.01805e-07 3.02288C1.58015e-07 4.3088 1.04312 5.35192 2.32904 5.35192C3.61495 5.35192 4.65807 4.3088 4.65807 3.02288C4.65807 1.73697 3.61495 0.693847 2.32904 0.693848Z" fill="#67AC2F"/>
<path d="M169.187 110.671L166.093 116.031L163 110.671L169.187 110.671Z" fill="#67AC2F"/>
<path d="M43.1289 33.3164C42.3932 33.6419 41.6803 33.8763 40.9902 34.0195C40.3001 34.1693 39.5547 34.2441 38.7539 34.2441C36.5729 34.2441 34.8542 33.6354 33.5977 32.418C32.3477 31.194 31.7227 29.446 31.7227 27.1738C31.7227 25.0449 32.4062 23.2773 33.7734 21.8711C35.1406 20.4648 36.944 19.7617 39.1836 19.7617C39.9323 19.7617 40.5996 19.8138 41.1855 19.918C41.778 20.0221 42.3932 20.1914 43.0312 20.4258L42.1035 22.9746C41.6217 22.7988 41.1595 22.6719 40.7168 22.5938C40.2741 22.5156 39.7956 22.4766 39.2812 22.4766C38.1354 22.4766 37.1426 22.8802 36.3027 23.6875C35.4629 24.4883 35.043 25.5755 35.043 26.9492C35.043 28.3685 35.4076 29.4785 36.1367 30.2793C36.8724 31.0801 37.8783 31.4805 39.1543 31.4805C39.4863 31.4805 39.9062 31.4284 40.4141 31.3242C40.9284 31.2135 41.459 31.0345 42.0059 30.7871L43.1289 33.3164ZM53.0996 34H50.1797V32.5645H50.1406C49.8086 33.1243 49.3919 33.5443 48.8906 33.8242C48.3958 34.1042 47.8327 34.2441 47.2012 34.2441C46.3353 34.2441 45.5898 33.9805 44.9648 33.4531C44.3464 32.9193 44.0371 32.1738 44.0371 31.2168C44.0371 30.2923 44.3431 29.5371 44.9551 28.9512C45.5736 28.3652 46.5371 27.9844 47.8457 27.8086L50.1992 27.4961V27.3008C50.1992 26.8255 50.0462 26.4674 49.7402 26.2266C49.4342 25.9792 49.0111 25.8555 48.4707 25.8555C48.0605 25.8555 47.6016 25.9238 47.0938 26.0605C46.5924 26.1973 46.0814 26.4154 45.5605 26.7148L44.5156 24.8887C45.1992 24.4915 45.8763 24.2051 46.5469 24.0293C47.224 23.847 47.9596 23.7559 48.7539 23.7559C50.2448 23.7559 51.3418 24.1107 52.0449 24.8203C52.748 25.5299 53.0996 26.5977 53.0996 28.0234V34ZM50.1992 29.9375V29.2637L48.3828 29.498C47.8815 29.5632 47.5039 29.7161 47.25 29.957C47.0026 30.1914 46.8789 30.4909 46.8789 30.8555C46.8789 31.207 46.9993 31.4967 47.2402 31.7246C47.4876 31.946 47.8197 32.0566 48.2363 32.0566C48.8158 32.0566 49.2878 31.8581 49.6523 31.4609C50.0169 31.0573 50.1992 30.5495 50.1992 29.9375ZM65.1992 34H62.123V28.4434C62.123 27.6686 61.9831 27.0892 61.7031 26.7051C61.4297 26.3145 61.0163 26.1191 60.4629 26.1191C59.929 26.1191 59.4896 26.3242 59.1445 26.7344C58.7995 27.1445 58.627 27.6654 58.627 28.2969V34H55.541V24H58.627V25.582H58.666C59.0371 24.9701 59.4896 24.5143 60.0234 24.2148C60.5573 23.9089 61.1758 23.7559 61.8789 23.7559C62.9857 23.7559 63.8158 24.1009 64.3691 24.791C64.9225 25.4746 65.1992 26.5033 65.1992 27.877V34ZM79.4277 33.8438C79.1152 33.974 78.7637 34.0716 78.373 34.1367C77.9889 34.2083 77.5983 34.2441 77.2012 34.2441C76.1074 34.2441 75.2839 33.9805 74.7305 33.4531C74.1771 32.9258 73.9004 32.138 73.9004 31.0898V26.2754H72.2793V24H73.9004V21.5781L76.9766 20.6992V24H79.2227V26.2754H76.9766V30.8945C76.9766 31.2786 77.0514 31.5586 77.2012 31.7344C77.3509 31.9036 77.5918 31.9883 77.9238 31.9883C78.0866 31.9883 78.2428 31.9688 78.3926 31.9297C78.5423 31.8841 78.6855 31.8288 78.8223 31.7637L79.4277 33.8438ZM90.5703 34H87.4941V28.3164C87.4941 27.5807 87.3607 27.0306 87.0938 26.666C86.8268 26.3014 86.4264 26.1191 85.8926 26.1191C85.3457 26.1191 84.903 26.3242 84.5645 26.7344C84.2259 27.1445 84.0566 27.6654 84.0566 28.2969V34H80.9707V19.1953H84.0566V25.4844H84.0957C84.4733 24.9049 84.9193 24.472 85.4336 24.1855C85.9479 23.8991 86.5273 23.7559 87.1719 23.7559C88.3047 23.7559 89.1543 24.0977 89.7207 24.7812C90.2871 25.4648 90.5703 26.4902 90.5703 27.8574V34ZM94.584 22.623C94.0501 22.623 93.6139 22.4603 93.2754 22.1348C92.9368 21.8092 92.7676 21.4056 92.7676 20.9238C92.7676 20.4225 92.9368 20.0156 93.2754 19.7031C93.6139 19.3841 94.0501 19.2246 94.584 19.2246C95.1243 19.2246 95.5605 19.3841 95.8926 19.7031C96.2311 20.0156 96.4004 20.4225 96.4004 20.9238C96.4004 21.4251 96.2311 21.8353 95.8926 22.1543C95.5605 22.4668 95.1243 22.623 94.584 22.623ZM96.1074 34H93.0215V24H96.1074V34ZM107.689 29.8789H101.166C101.218 30.6016 101.459 31.1387 101.889 31.4902C102.325 31.8418 102.924 32.0176 103.686 32.0176C103.972 32.0176 104.366 31.9329 104.867 31.7637C105.375 31.5879 105.867 31.3145 106.342 30.9434L107.709 32.6914C107.025 33.2318 106.322 33.6257 105.6 33.873C104.877 34.1204 104.079 34.2441 103.207 34.2441C101.592 34.2441 100.339 33.7982 99.4473 32.9062C98.5553 32.0078 98.1094 30.7578 98.1094 29.1562C98.1094 27.5612 98.5814 26.2624 99.5254 25.2598C100.469 24.2572 101.664 23.7559 103.109 23.7559C104.496 23.7559 105.606 24.1758 106.439 25.0156C107.273 25.849 107.689 27.0632 107.689 28.6582V29.8789ZM104.828 27.9844C104.828 27.2096 104.682 26.6595 104.389 26.334C104.102 26.002 103.669 25.8359 103.09 25.8359C102.595 25.8359 102.165 26.028 101.801 26.4121C101.443 26.7962 101.225 27.3203 101.146 27.9844H104.828ZM101.645 22.418H99.623L101.918 19.2441H104.34L106.645 22.418H104.623L103.08 20.582L101.645 22.418ZM103.041 37.8281C102.605 37.8281 102.243 37.6979 101.957 37.4375C101.677 37.1771 101.537 36.8613 101.537 36.4902C101.537 36.0996 101.68 35.7806 101.967 35.5332C102.253 35.2923 102.611 35.1719 103.041 35.1719C103.477 35.1719 103.832 35.2956 104.105 35.543C104.385 35.7904 104.525 36.1061 104.525 36.4902C104.525 36.8743 104.385 37.1934 104.105 37.4473C103.832 37.7012 103.477 37.8281 103.041 37.8281ZM112.65 32.8379H112.611V38.5996H109.525V24H112.611V25.5039H112.65C113.028 24.918 113.484 24.4818 114.018 24.1953C114.558 23.9023 115.173 23.7559 115.863 23.7559C117.152 23.7559 118.152 24.2018 118.861 25.0938C119.571 25.9792 119.926 27.1868 119.926 28.7168C119.926 30.3835 119.512 31.7214 118.686 32.7305C117.859 33.7396 116.765 34.2441 115.404 34.2441C114.799 34.2441 114.268 34.127 113.812 33.8926C113.357 33.6582 112.969 33.3066 112.65 32.8379ZM112.562 28.7363V29.5371C112.562 30.2272 112.745 30.7904 113.109 31.2266C113.474 31.6628 113.952 31.8809 114.545 31.8809C115.248 31.8809 115.792 31.6107 116.176 31.0703C116.566 30.5234 116.762 29.752 116.762 28.7559C116.762 27.877 116.589 27.2194 116.244 26.7832C115.906 26.3405 115.395 26.1191 114.711 26.1191C114.079 26.1191 113.562 26.36 113.158 26.8418C112.761 27.3171 112.562 27.9486 112.562 28.7363ZM44.0859 61L42.5137 59.5254C41.7389 60.1243 40.9707 60.5573 40.209 60.8242C39.4473 61.0911 38.5781 61.2246 37.6016 61.2246C36.0716 61.2246 34.8086 60.86 33.8125 60.1309C32.8164 59.4017 32.3184 58.3372 32.3184 56.9375C32.3184 55.9544 32.6016 55.1602 33.168 54.5547C33.7409 53.9427 34.5189 53.3991 35.502 52.9238C34.9746 52.377 34.5905 51.8789 34.3496 51.4297C34.1152 50.9805 33.998 50.4954 33.998 49.9746C33.998 48.9395 34.3952 48.1452 35.1895 47.5918C35.9837 47.0384 37.0026 46.7617 38.2461 46.7617C39.444 46.7617 40.4173 47.0449 41.166 47.6113C41.9212 48.1777 42.2988 48.9102 42.2988 49.8086C42.2988 50.4922 42.1068 51.0944 41.7227 51.6152C41.3385 52.1296 40.5638 52.6602 39.3984 53.207L42.6895 56.1953C43.1647 55.6029 43.4837 55.0072 43.6465 54.4082C43.8092 53.8027 43.8906 53.1354 43.8906 52.4062H46.625C46.625 53.3958 46.459 54.3171 46.127 55.1699C45.8014 56.0228 45.235 56.8887 44.4277 57.7676L47.9922 61H44.0859ZM37.9141 51.8594C38.4609 51.625 38.8711 51.3776 39.1445 51.1172C39.4245 50.8503 39.5645 50.4857 39.5645 50.0234C39.5645 49.6393 39.431 49.3431 39.1641 49.1348C38.8971 48.9264 38.5911 48.8223 38.2461 48.8223C37.8099 48.8223 37.4551 48.946 37.1816 49.1934C36.9082 49.4342 36.7715 49.7272 36.7715 50.0723C36.7715 50.3652 36.8626 50.6452 37.0449 50.9121C37.2272 51.1725 37.5169 51.4883 37.9141 51.8594ZM40.8047 57.9238L37.0449 54.3984C36.6087 54.6458 36.2311 54.9583 35.9121 55.3359C35.5996 55.707 35.4434 56.1986 35.4434 56.8105C35.4434 57.4421 35.6582 57.9466 36.0879 58.3242C36.5176 58.7018 37.0742 58.8906 37.7578 58.8906C38.3372 58.8906 38.8646 58.819 39.3398 58.6758C39.8151 58.5326 40.3034 58.2819 40.8047 57.9238ZM64.9453 49.5645H60.9512V61H57.7871V49.5645H53.8125V46.9961H64.9453V49.5645ZM71.2637 53.5586C71.14 53.5326 71.013 53.513 70.8828 53.5C70.7526 53.487 70.6094 53.4805 70.4531 53.4805C69.6393 53.4805 69.0339 53.7214 68.6367 54.2031C68.2396 54.6784 68.041 55.3522 68.041 56.2246V61H64.9551V51H68.041V52.8555H68.0801C68.321 52.1784 68.6595 51.6706 69.0957 51.332C69.5384 50.9935 70.0788 50.8242 70.7168 50.8242C70.86 50.8242 71 50.834 71.1367 50.8535C71.2799 50.873 71.4264 50.8991 71.5762 50.9316L71.2637 53.5586ZM74.4863 49.623C73.9525 49.623 73.5163 49.4603 73.1777 49.1348C72.8392 48.8092 72.6699 48.4056 72.6699 47.9238C72.6699 47.4225 72.8392 47.0156 73.1777 46.7031C73.5163 46.3841 73.9525 46.2246 74.4863 46.2246C75.0267 46.2246 75.4629 46.3841 75.7949 46.7031C76.1335 47.0156 76.3027 47.4225 76.3027 47.9238C76.3027 48.4251 76.1335 48.8353 75.7949 49.1543C75.4629 49.4668 75.0267 49.623 74.4863 49.623ZM76.0098 61H72.9238V51H76.0098V61ZM74.4668 64.8281C74.0306 64.8281 73.6693 64.6979 73.3828 64.4375C73.1029 64.1771 72.9629 63.8613 72.9629 63.4902C72.9629 63.0996 73.1061 62.7806 73.3926 62.5332C73.679 62.2923 74.0371 62.1719 74.4668 62.1719C74.903 62.1719 75.2578 62.2956 75.5312 62.543C75.8112 62.7904 75.9512 63.1061 75.9512 63.4902C75.9512 63.8743 75.8112 64.1934 75.5312 64.4473C75.2578 64.7012 74.903 64.8281 74.4668 64.8281ZM84.1348 61V46.1953H87.2207V61H84.1348ZM91.3809 49.623C90.847 49.623 90.4108 49.4603 90.0723 49.1348C89.7337 48.8092 89.5645 48.4056 89.5645 47.9238C89.5645 47.4225 89.7337 47.0156 90.0723 46.7031C90.4108 46.3841 90.847 46.2246 91.3809 46.2246C91.9212 46.2246 92.3574 46.3841 92.6895 46.7031C93.028 47.0156 93.1973 47.4225 93.1973 47.9238C93.1973 48.4251 93.028 48.8353 92.6895 49.1543C92.3574 49.4668 91.9212 49.623 91.3809 49.623ZM92.9043 61H89.8184V51H92.9043V61ZM104.486 56.8789H97.9629C98.015 57.6016 98.2559 58.1387 98.6855 58.4902C99.1217 58.8418 99.7207 59.0176 100.482 59.0176C100.769 59.0176 101.163 58.9329 101.664 58.7637C102.172 58.5879 102.663 58.3145 103.139 57.9434L104.506 59.6914C103.822 60.2318 103.119 60.6257 102.396 60.873C101.674 61.1204 100.876 61.2441 100.004 61.2441C98.3893 61.2441 97.1361 60.7982 96.2441 59.9062C95.3522 59.0078 94.9062 57.7578 94.9062 56.1562C94.9062 54.5612 95.3783 53.2624 96.3223 52.2598C97.2663 51.2572 98.4609 50.7559 99.9062 50.7559C101.293 50.7559 102.403 51.1758 103.236 52.0156C104.07 52.849 104.486 54.0632 104.486 55.6582V56.8789ZM101.625 54.9844C101.625 54.2096 101.479 53.6595 101.186 53.334C100.899 53.002 100.466 52.8359 99.8867 52.8359C99.3919 52.8359 98.9622 53.028 98.5977 53.4121C98.2396 53.7962 98.0215 54.3203 97.9434 54.9844H101.625ZM98.4414 49.418H96.4199L98.7148 46.2441H101.137L103.441 49.418H101.42L99.877 47.582L98.4414 49.418ZM99.8379 64.8281C99.4017 64.8281 99.0404 64.6979 98.7539 64.4375C98.474 64.1771 98.334 63.8613 98.334 63.4902C98.334 63.0996 98.4772 62.7806 98.7637 62.5332C99.0501 62.2923 99.4082 62.1719 99.8379 62.1719C100.274 62.1719 100.629 62.2956 100.902 62.543C101.182 62.7904 101.322 63.1061 101.322 63.4902C101.322 63.8743 101.182 64.1934 100.902 64.4473C100.629 64.7012 100.274 64.8281 99.8379 64.8281ZM115.824 61H112.748V59.4766H112.699C112.322 60.0625 111.876 60.5052 111.361 60.8047C110.854 61.0977 110.281 61.2441 109.643 61.2441C108.484 61.2441 107.615 60.8926 107.035 60.1895C106.456 59.4863 106.166 58.4349 106.166 57.0352V51H109.242V56.7617C109.242 57.4648 109.382 57.9954 109.662 58.3535C109.942 58.7051 110.362 58.8809 110.922 58.8809C111.475 58.8809 111.918 58.6888 112.25 58.3047C112.582 57.9141 112.748 57.3867 112.748 56.7227V51H115.824V61Z" fill="#67AC2F"/>
</svg>
