<svg width="170" height="117" viewBox="0 0 170 117" fill="none" xmlns="http://www.w3.org/2000/svg">
<path d="M2 3L166 2.99999L166 112" stroke="#01CC9B" stroke-width="0.899243" stroke-miterlimit="10" stroke-linecap="round"/>
<path d="M2.32904 0.897461C1.04312 0.897461 4.55962e-08 1.94058 1.01805e-07 3.2265C1.58015e-07 4.51241 1.04312 5.55555 2.32904 5.55555C3.61495 5.55555 4.65807 4.51241 4.65807 3.2265C4.65807 1.94058 3.61495 0.897461 2.32904 0.897461Z" fill="#01CC9B"/>
<path d="M169.187 110.875L166.093 116.235L163 110.875L169.187 110.875Z" fill="#01CC9B"/>
<path d="M32.6016 44V38.2773H31V35.6797H32.6016V29.9961H37.5625C40.0495 29.9961 41.9147 30.5658 43.1582 31.7051C44.4017 32.8379 45.0234 34.5436 45.0234 36.8223C45.0234 39.0033 44.3431 40.7448 42.9824 42.0469C41.6283 43.349 39.8216 44 37.5625 44H32.6016ZM35.7559 32.5645V35.6797H38.4023V38.2773H35.7559V41.4414H37.3184C38.6855 41.4414 39.7565 41.0312 40.5312 40.2109C41.3125 39.3906 41.7031 38.2741 41.7031 36.8613C41.7031 35.5267 41.3158 34.4785 40.541 33.7168C39.7728 32.9486 38.6921 32.5645 37.2988 32.5645H35.7559ZM55.3652 44H52.4453V42.5645H52.4062C52.0742 43.1243 51.6576 43.5443 51.1562 43.8242C50.6615 44.1042 50.0983 44.2441 49.4668 44.2441C48.6009 44.2441 47.8555 43.9805 47.2305 43.4531C46.612 42.9193 46.3027 42.1738 46.3027 41.2168C46.3027 40.2923 46.6087 39.5371 47.2207 38.9512C47.8392 38.3652 48.8027 37.9844 50.1113 37.8086L52.4648 37.4961V37.3008C52.4648 36.8255 52.3118 36.4674 52.0059 36.2266C51.6999 35.9792 51.2767 35.8555 50.7363 35.8555C50.3262 35.8555 49.8672 35.9238 49.3594 36.0605C48.8581 36.1973 48.347 36.4154 47.8262 36.7148L46.7812 34.8887C47.4648 34.4915 48.1419 34.2051 48.8125 34.0293C49.4896 33.847 50.2253 33.7559 51.0195 33.7559C52.5104 33.7559 53.6074 34.1107 54.3105 34.8203C55.0137 35.5299 55.3652 36.5977 55.3652 38.0234V44ZM52.4648 39.9375V39.2637L50.6484 39.498C50.1471 39.5632 49.7695 39.7161 49.5156 39.957C49.2682 40.1914 49.1445 40.4909 49.1445 40.8555C49.1445 41.207 49.265 41.4967 49.5059 41.7246C49.7533 41.946 50.0853 42.0566 50.502 42.0566C51.0814 42.0566 51.5534 41.8581 51.918 41.4609C52.2826 41.0573 52.4648 40.5495 52.4648 39.9375ZM51.1465 32.418H48.9199L51.459 29.2637H54.2031L51.1465 32.418ZM67.4648 44H64.3887V38.4434C64.3887 37.6686 64.2487 37.0892 63.9688 36.7051C63.6953 36.3145 63.2819 36.1191 62.7285 36.1191C62.1947 36.1191 61.7552 36.3242 61.4102 36.7344C61.0651 37.1445 60.8926 37.6654 60.8926 38.2969V44H57.8066V34H60.8926V35.582H60.9316C61.3027 34.9701 61.7552 34.5143 62.2891 34.2148C62.8229 33.9089 63.4414 33.7559 64.1445 33.7559C65.2513 33.7559 66.0814 34.1009 66.6348 34.791C67.1882 35.4746 67.4648 36.5033 67.4648 37.877V44ZM79.5156 44H76.4395V38.3164C76.4395 37.5807 76.306 37.0306 76.0391 36.666C75.7721 36.3014 75.3717 36.1191 74.8379 36.1191C74.291 36.1191 73.8483 36.3242 73.5098 36.7344C73.1712 37.1445 73.002 37.6654 73.002 38.2969V44H69.916V29.1953H73.002V35.4844H73.041C73.4186 34.9049 73.8646 34.472 74.3789 34.1855C74.8932 33.8991 75.4727 33.7559 76.1172 33.7559C77.25 33.7559 78.0996 34.0977 78.666 34.7812C79.2324 35.4648 79.5156 36.4902 79.5156 37.8574V44ZM97.2988 42.8574C97.2988 44.5046 96.778 45.888 95.7363 47.0078C94.7012 48.1341 93.181 48.6973 91.1758 48.6973C90.4727 48.6973 89.8184 48.6354 89.2129 48.5117C88.6139 48.388 87.9922 48.1895 87.3477 47.916L88.2363 45.8262C88.7311 46.0345 89.2096 46.1842 89.6719 46.2754C90.1341 46.373 90.6582 46.4219 91.2441 46.4219C92.2077 46.4219 92.9434 46.1387 93.4512 45.5723C93.959 45.0124 94.2129 44.2734 94.2129 43.3555V42.5645H94.1738C93.8223 43.1243 93.3861 43.5443 92.8652 43.8242C92.3444 44.1042 91.7422 44.2441 91.0586 44.2441C89.776 44.2441 88.7604 43.7949 88.0117 42.8965C87.2695 41.9915 86.8984 40.7904 86.8984 39.293C86.8984 37.5938 87.3151 36.2461 88.1484 35.25C88.9818 34.2539 90.0788 33.7559 91.4395 33.7559C92.0449 33.7559 92.5755 33.873 93.0312 34.1074C93.4935 34.3418 93.8743 34.6934 94.1738 35.1621H94.2129V34H97.2988V42.8574ZM94.252 39.1953V38.4043C94.252 37.7728 94.0632 37.2357 93.6855 36.793C93.3145 36.3438 92.8294 36.1191 92.2305 36.1191C91.5469 36.1191 91.0098 36.3861 90.6191 36.9199C90.2285 37.4538 90.0332 38.2057 90.0332 39.1758C90.0332 40.0091 90.2188 40.6699 90.5898 41.1582C90.9609 41.64 91.4688 41.8809 92.1133 41.8809C92.7578 41.8809 93.2754 41.6367 93.666 41.1484C94.0566 40.6536 94.252 40.0026 94.252 39.1953ZM101.439 32.623C100.906 32.623 100.469 32.4603 100.131 32.1348C99.7923 31.8092 99.623 31.4056 99.623 30.9238C99.623 30.4225 99.7923 30.0156 100.131 29.7031C100.469 29.3841 100.906 29.2246 101.439 29.2246C101.98 29.2246 102.416 29.3841 102.748 29.7031C103.087 30.0156 103.256 30.4225 103.256 30.9238C103.256 31.4251 103.087 31.8353 102.748 32.1543C102.416 32.4668 101.98 32.623 101.439 32.623ZM102.963 44H99.877V34H102.963V44ZM113.881 44H110.961V42.5645H110.922C110.59 43.1243 110.173 43.5443 109.672 43.8242C109.177 44.1042 108.614 44.2441 107.982 44.2441C107.117 44.2441 106.371 43.9805 105.746 43.4531C105.128 42.9193 104.818 42.1738 104.818 41.2168C104.818 40.2923 105.124 39.5371 105.736 38.9512C106.355 38.3652 107.318 37.9844 108.627 37.8086L110.98 37.4961V37.3008C110.98 36.8255 110.827 36.4674 110.521 36.2266C110.215 35.9792 109.792 35.8555 109.252 35.8555C108.842 35.8555 108.383 35.9238 107.875 36.0605C107.374 36.1973 106.863 36.4154 106.342 36.7148L105.297 34.8887C105.98 34.4915 106.658 34.2051 107.328 34.0293C108.005 33.847 108.741 33.7559 109.535 33.7559C111.026 33.7559 112.123 34.1107 112.826 34.8203C113.529 35.5299 113.881 36.5977 113.881 38.0234V44ZM110.98 39.9375V39.2637L109.164 39.498C108.663 39.5632 108.285 39.7161 108.031 39.957C107.784 40.1914 107.66 40.4909 107.66 40.8555C107.66 41.207 107.781 41.4967 108.021 41.7246C108.269 41.946 108.601 42.0566 109.018 42.0566C109.597 42.0566 110.069 41.8581 110.434 41.4609C110.798 41.0573 110.98 40.5495 110.98 39.9375ZM109.662 32.418H107.436L109.975 29.2637H112.719L109.662 32.418ZM40.3359 70.375C39.8086 70.6745 39.2845 70.8926 38.7637 71.0293C38.2493 71.1725 37.6862 71.2441 37.0742 71.2441C35.3815 71.2441 34.0632 70.7786 33.1191 69.8477C32.1751 68.9167 31.7031 67.7155 31.7031 66.2441C31.7031 64.5449 32.2044 63.207 33.207 62.2305C34.2161 61.2474 35.5508 60.7559 37.2109 60.7559C37.8424 60.7559 38.3926 60.8177 38.8613 60.9414C39.3301 61.0586 39.8053 61.2507 40.2871 61.5176L39.1445 63.5879C38.8451 63.4251 38.5521 63.3079 38.2656 63.2363C37.9857 63.1582 37.6764 63.1191 37.3379 63.1191C36.5566 63.1191 35.9447 63.373 35.502 63.8809C35.0592 64.3887 34.8379 65.1081 34.8379 66.0391C34.8379 66.931 35.0853 67.6276 35.5801 68.1289C36.0749 68.6302 36.6738 68.8809 37.377 68.8809C37.5658 68.8809 37.8229 68.8385 38.1484 68.7539C38.4805 68.6628 38.8158 68.5195 39.1543 68.3242L40.3359 70.375ZM51.5078 71H48.4316V65.3164C48.4316 64.5807 48.2982 64.0306 48.0312 63.666C47.7643 63.3014 47.3639 63.1191 46.8301 63.1191C46.2832 63.1191 45.8405 63.3242 45.502 63.7344C45.1634 64.1445 44.9941 64.6654 44.9941 65.2969V71H41.9082V56.1953H44.9941V62.4844H45.0332C45.4108 61.9049 45.8568 61.472 46.3711 61.1855C46.8854 60.8991 47.4648 60.7559 48.1094 60.7559C49.2422 60.7559 50.0918 61.0977 50.6582 61.7812C51.2246 62.4648 51.5078 63.4902 51.5078 64.8574V71ZM63.4609 71H60.3848V69.4766H60.3359C59.9583 70.0625 59.5124 70.5052 58.998 70.8047C58.4902 71.0977 57.9173 71.2441 57.2793 71.2441C56.1204 71.2441 55.2513 70.8926 54.6719 70.1895C54.0924 69.4863 53.8027 68.4349 53.8027 67.0352V61H56.8789V66.7617C56.8789 67.4648 57.0189 67.9954 57.2988 68.3535C57.5788 68.7051 57.9987 68.8809 58.5586 68.8809C59.112 68.8809 59.5547 68.6888 59.8867 68.3047C60.2188 67.9141 60.3848 67.3867 60.3848 66.7227V61H63.4609V71ZM75.5898 61L71.1172 72.8555C70.7786 73.7474 70.2676 74.444 69.584 74.9453C68.9004 75.4466 68.0768 75.6973 67.1133 75.6973C66.8008 75.6973 66.5013 75.681 66.2148 75.6484C65.9284 75.6159 65.6484 75.5671 65.375 75.502L65.8828 73.2363C66.0326 73.2884 66.179 73.3242 66.3223 73.3438C66.4655 73.3698 66.625 73.3828 66.8008 73.3828C67.1068 73.3828 67.3737 73.3079 67.6016 73.1582C67.8359 73.0085 68.0247 72.7708 68.168 72.4453L68.793 70.9805L64.7305 61H68.1484L70.0137 67.084C70.0723 67.2728 70.1243 67.4779 70.1699 67.6992C70.2155 67.9206 70.2546 68.1615 70.2871 68.4219H70.3262C70.3587 68.2266 70.401 68.0215 70.4531 67.8066C70.5052 67.5918 70.5703 67.3574 70.6484 67.1035L72.5332 61H75.5898ZM85.8145 66.8789H79.291C79.3431 67.6016 79.584 68.1387 80.0137 68.4902C80.4499 68.8418 81.0488 69.0176 81.8105 69.0176C82.097 69.0176 82.4909 68.9329 82.9922 68.7637C83.5 68.5879 83.9915 68.3145 84.4668 67.9434L85.834 69.6914C85.1504 70.2318 84.4473 70.6257 83.7246 70.873C83.002 71.1204 82.2044 71.2441 81.332 71.2441C79.7174 71.2441 78.4642 70.7982 77.5723 69.9062C76.6803 69.0078 76.2344 67.7578 76.2344 66.1562C76.2344 64.5612 76.7064 63.2624 77.6504 62.2598C78.5944 61.2572 79.7891 60.7559 81.2344 60.7559C82.6211 60.7559 83.7311 61.1758 84.5645 62.0156C85.3978 62.849 85.8145 64.0632 85.8145 65.6582V66.8789ZM82.9531 64.9844C82.9531 64.2096 82.8066 63.6595 82.5137 63.334C82.2272 63.002 81.7943 62.8359 81.2148 62.8359C80.7201 62.8359 80.2904 63.028 79.9258 63.4121C79.5677 63.7962 79.3496 64.3203 79.2715 64.9844H82.9531ZM79.7695 59.418H77.748L80.043 56.2441H82.4648L84.7695 59.418H82.748L81.2051 57.582L79.7695 59.418ZM97.3086 71H94.2324V65.4434C94.2324 64.6686 94.0924 64.0892 93.8125 63.7051C93.5391 63.3145 93.1257 63.1191 92.5723 63.1191C92.0384 63.1191 91.599 63.3242 91.2539 63.7344C90.9089 64.1445 90.7363 64.6654 90.7363 65.2969V71H87.6504V61H90.7363V62.582H90.7754C91.1465 61.9701 91.599 61.5143 92.1328 61.2148C92.6667 60.9089 93.2852 60.7559 93.9883 60.7559C95.0951 60.7559 95.9251 61.1009 96.4785 61.791C97.0319 62.4746 97.3086 63.5033 97.3086 64.877V71ZM104.281 70.1309L105.541 68.0801C105.88 68.3405 106.28 68.5651 106.742 68.7539C107.204 68.9427 107.719 69.0371 108.285 69.0371C108.682 69.0371 109.008 68.9655 109.262 68.8223C109.516 68.6725 109.643 68.4544 109.643 68.168C109.643 67.9401 109.548 67.7611 109.359 67.6309C109.177 67.4941 108.809 67.3672 108.256 67.25C107.012 66.9896 106.111 66.6217 105.551 66.1465C104.991 65.6712 104.711 64.9909 104.711 64.1055C104.711 63.0898 105.115 62.2793 105.922 61.6738C106.736 61.0618 107.729 60.7559 108.9 60.7559C109.512 60.7559 110.095 60.8372 110.648 61C111.202 61.1562 111.713 61.3906 112.182 61.7031L111.02 63.6855C110.622 63.4316 110.245 63.2461 109.887 63.1289C109.529 63.0052 109.161 62.9434 108.783 62.9434C108.386 62.9434 108.064 63.0182 107.816 63.168C107.576 63.3177 107.455 63.5098 107.455 63.7441C107.455 64.0176 107.576 64.2161 107.816 64.3398C108.057 64.457 108.507 64.5807 109.164 64.7109C110.323 64.9453 111.15 65.3132 111.645 65.8145C112.139 66.3092 112.387 66.9798 112.387 67.8262C112.387 68.8483 111.999 69.6751 111.225 70.3066C110.456 70.9316 109.434 71.2441 108.158 71.2441C107.462 71.2441 106.794 71.1562 106.156 70.9805C105.525 70.7982 104.9 70.515 104.281 70.1309ZM122.416 71H119.496V69.5645H119.457C119.125 70.1243 118.708 70.5443 118.207 70.8242C117.712 71.1042 117.149 71.2441 116.518 71.2441C115.652 71.2441 114.906 70.9805 114.281 70.4531C113.663 69.9193 113.354 69.1738 113.354 68.2168C113.354 67.2923 113.66 66.5371 114.271 65.9512C114.89 65.3652 115.854 64.9844 117.162 64.8086L119.516 64.4961V64.3008C119.516 63.8255 119.363 63.4674 119.057 63.2266C118.751 62.9792 118.327 62.8555 117.787 62.8555C117.377 62.8555 116.918 62.9238 116.41 63.0605C115.909 63.1973 115.398 63.4154 114.877 63.7148L113.832 61.8887C114.516 61.4915 115.193 61.2051 115.863 61.0293C116.54 60.847 117.276 60.7559 118.07 60.7559C119.561 60.7559 120.658 61.1107 121.361 61.8203C122.064 62.5299 122.416 63.5977 122.416 65.0234V71ZM119.516 66.9375V66.2637L117.699 66.498C117.198 66.5632 116.82 66.7161 116.566 66.957C116.319 67.1914 116.195 67.4909 116.195 67.8555C116.195 68.207 116.316 68.4967 116.557 68.7246C116.804 68.946 117.136 69.0566 117.553 69.0566C118.132 69.0566 118.604 68.8581 118.969 68.4609C119.333 68.0573 119.516 67.5495 119.516 66.9375ZM116.742 59.418H114.721L117.016 56.2441H119.438L121.742 59.418H119.721L118.178 57.582L116.742 59.418ZM134.359 71H131.283V69.4766H131.234C130.857 70.0625 130.411 70.5052 129.896 70.8047C129.389 71.0977 128.816 71.2441 128.178 71.2441C127.019 71.2441 126.15 70.8926 125.57 70.1895C124.991 69.4863 124.701 68.4349 124.701 67.0352V61H127.777V66.7617C127.777 67.4648 127.917 67.9954 128.197 68.3535C128.477 68.7051 128.897 68.8809 129.457 68.8809C130.01 68.8809 130.453 68.6888 130.785 68.3047C131.117 67.9141 131.283 67.3867 131.283 66.7227V61H134.359V71Z" fill="#01CC9B"/>
</svg>
