<svg width="170" height="116" viewBox="0 0 170 116" fill="none" xmlns="http://www.w3.org/2000/svg">
<path d="M1.99976 3L166 2.99999L166 112" stroke="#1D6495" stroke-width="0.899243" stroke-miterlimit="10" stroke-linecap="round"/>
<path d="M2.32904 0.671875C1.04312 0.671875 4.55962e-08 1.71499 1.01805e-07 3.00091C1.58015e-07 4.28683 1.04312 5.32995 2.32904 5.32995C3.61495 5.32995 4.65807 4.28683 4.65807 3.00091C4.65807 1.71499 3.61495 0.671875 2.32904 0.671875Z" fill="#1D6495"/>
<path d="M169.187 110.649L166.093 116L163 110.649L169.187 110.649Z" fill="#1D6495"/>
<path d="M40.7207 40H37.5566V34.2969H31.7559V40H28.6016V25.9961H31.7559V31.582H37.5566V25.9961H40.7207V40ZM48.3965 40.2441C46.7298 40.2441 45.418 39.7754 44.4609 38.8379C43.5039 37.9004 43.0286 36.6341 43.0352 35.0391C43.0417 33.3854 43.5365 32.0931 44.5195 31.1621C45.5091 30.2246 46.847 29.7559 48.5332 29.7559C50.1934 29.7559 51.4954 30.2214 52.4395 31.1523C53.3835 32.0833 53.8555 33.3203 53.8555 34.8633C53.8555 36.5169 53.3672 37.8288 52.3906 38.7988C51.4206 39.7624 50.0892 40.2441 48.3965 40.2441ZM48.4941 37.8809C49.2363 37.8809 49.7897 37.6335 50.1543 37.1387C50.5254 36.6439 50.7109 35.9049 50.7109 34.9219C50.7109 33.9909 50.5254 33.291 50.1543 32.8223C49.7832 32.3535 49.2233 32.1191 48.4746 32.1191C47.7454 32.1191 47.179 32.373 46.7754 32.8809C46.3717 33.3822 46.1699 34.0885 46.1699 35C46.1699 35.9635 46.362 36.6862 46.7461 37.168C47.1367 37.6432 47.7194 37.8809 48.4941 37.8809ZM46.4336 25.4004H45.0273C45.0273 24.6452 45.1999 24.082 45.5449 23.7109C45.8965 23.3333 46.4173 23.1445 47.1074 23.1445C47.3418 23.1445 47.5827 23.1738 47.8301 23.2324C48.0775 23.2845 48.3314 23.3691 48.5918 23.4863C48.8652 23.6035 49.0996 23.6914 49.2949 23.75C49.4967 23.8086 49.6628 23.8379 49.793 23.8379C50.0404 23.8379 50.2227 23.776 50.3398 23.6523C50.4635 23.5286 50.5254 23.3464 50.5254 23.1055H51.9316C51.9316 23.8477 51.7624 24.4076 51.4238 24.7852C51.0853 25.1562 50.5742 25.3418 49.8906 25.3418C49.7018 25.3418 49.4837 25.3125 49.2363 25.2539C48.9954 25.1953 48.7253 25.1107 48.4258 25C48.1133 24.8763 47.8529 24.7852 47.6445 24.7266C47.4362 24.668 47.2767 24.6387 47.166 24.6387C46.9251 24.6387 46.7428 24.7038 46.6191 24.834C46.4954 24.9577 46.4336 25.1465 46.4336 25.4004ZM47.0684 28.418H45.1055L47.332 25.9863H49.666L51.8926 28.418H49.9297L48.4453 27.0801L47.0684 28.418ZM67.6348 39.8438C67.3223 39.974 66.9707 40.0716 66.5801 40.1367C66.196 40.2083 65.8053 40.2441 65.4082 40.2441C64.3145 40.2441 63.4909 39.9805 62.9375 39.4531C62.3841 38.9258 62.1074 38.138 62.1074 37.0898V32.2754H60.4863V30H62.1074V27.5781L65.1836 26.6992V30H67.4297V32.2754H65.1836V36.8945C65.1836 37.2786 65.2585 37.5586 65.4082 37.7344C65.5579 37.9036 65.7988 37.9883 66.1309 37.9883C66.2936 37.9883 66.4499 37.9688 66.5996 37.9297C66.7493 37.8841 66.8926 37.8288 67.0293 37.7637L67.6348 39.8438ZM75.4863 32.5586C75.3626 32.5326 75.2357 32.513 75.1055 32.5C74.9753 32.487 74.832 32.4805 74.6758 32.4805C73.862 32.4805 73.2565 32.7214 72.8594 33.2031C72.4622 33.6784 72.2637 34.3522 72.2637 35.2246V40H69.1777V30H72.2637V31.8555H72.3027C72.5436 31.1784 72.8822 30.6706 73.3184 30.332C73.7611 29.9935 74.3014 29.8242 74.9395 29.8242C75.0827 29.8242 75.2227 29.834 75.3594 29.8535C75.5026 29.873 75.6491 29.8991 75.7988 29.9316L75.4863 32.5586ZM86.0332 31.2402C86.4824 31.7025 86.8177 32.2363 87.0391 32.8418C87.2604 33.4408 87.3711 34.1146 87.3711 34.8633C87.3711 36.5234 86.8828 37.8353 85.9062 38.7988C84.9362 39.7624 83.6048 40.2441 81.9121 40.2441C80.2454 40.2441 78.9336 39.7786 77.9766 38.8477C77.026 37.9102 76.5508 36.6406 76.5508 35.0391C76.5508 33.3854 77.0456 32.0931 78.0352 31.1621C79.0247 30.2246 80.3626 29.7559 82.0488 29.7559C82.2702 29.7559 82.5046 29.7689 82.752 29.7949C83.0059 29.8145 83.2695 29.8503 83.543 29.9023C83.7318 29.9349 83.9141 29.9609 84.0898 29.9805C84.2721 29.9935 84.4479 30 84.6172 30C85.1966 30 85.6296 29.8861 85.916 29.6582C86.2025 29.4238 86.3457 29.0788 86.3457 28.623C86.3457 28.4603 86.3294 28.2878 86.2969 28.1055C86.2708 27.9232 86.2285 27.7344 86.1699 27.5391H88.0449C88.123 27.7604 88.1784 27.9785 88.2109 28.1934C88.25 28.4082 88.2695 28.6165 88.2695 28.8184C88.2695 29.554 88.084 30.1237 87.7129 30.5273C87.3418 30.931 86.7819 31.1686 86.0332 31.2402ZM81.9902 32.1191C81.2611 32.1191 80.6947 32.3698 80.291 32.8711C79.8874 33.3724 79.6855 34.082 79.6855 35C79.6855 35.957 79.8776 36.6764 80.2617 37.1582C80.6523 37.64 81.235 37.8809 82.0098 37.8809C82.752 37.8809 83.3053 37.6335 83.6699 37.1387C84.041 36.6439 84.2266 35.9049 84.2266 34.9219C84.2266 33.9844 84.041 33.2845 83.6699 32.8223C83.2988 32.3535 82.7389 32.1191 81.9902 32.1191ZM81.9219 43.8281C81.4857 43.8281 81.1243 43.6979 80.8379 43.4375C80.5579 43.1771 80.418 42.8613 80.418 42.4902C80.418 42.0996 80.5612 41.7806 80.8477 41.5332C81.1341 41.2923 81.4922 41.1719 81.9219 41.1719C82.3581 41.1719 82.7129 41.2956 82.9863 41.543C83.2663 41.7904 83.4062 42.1061 83.4062 42.4902C83.4062 42.8743 83.2663 43.1934 82.9863 43.4473C82.7129 43.7012 82.3581 43.8281 81.9219 43.8281ZM40.0859 67L38.5137 65.5254C37.7389 66.1243 36.9707 66.5573 36.209 66.8242C35.4473 67.0911 34.5781 67.2246 33.6016 67.2246C32.0716 67.2246 30.8086 66.86 29.8125 66.1309C28.8164 65.4017 28.3184 64.3372 28.3184 62.9375C28.3184 61.9544 28.6016 61.1602 29.168 60.5547C29.7409 59.9427 30.5189 59.3991 31.502 58.9238C30.9746 58.377 30.5905 57.8789 30.3496 57.4297C30.1152 56.9805 29.998 56.4954 29.998 55.9746C29.998 54.9395 30.3952 54.1452 31.1895 53.5918C31.9837 53.0384 33.0026 52.7617 34.2461 52.7617C35.444 52.7617 36.4173 53.0449 37.166 53.6113C37.9212 54.1777 38.2988 54.9102 38.2988 55.8086C38.2988 56.4922 38.1068 57.0944 37.7227 57.6152C37.3385 58.1296 36.5638 58.6602 35.3984 59.207L38.6895 62.1953C39.1647 61.6029 39.4837 61.0072 39.6465 60.4082C39.8092 59.8027 39.8906 59.1354 39.8906 58.4062H42.625C42.625 59.3958 42.459 60.3171 42.127 61.1699C41.8014 62.0228 41.235 62.8887 40.4277 63.7676L43.9922 67H40.0859ZM33.9141 57.8594C34.4609 57.625 34.8711 57.3776 35.1445 57.1172C35.4245 56.8503 35.5645 56.4857 35.5645 56.0234C35.5645 55.6393 35.431 55.3431 35.1641 55.1348C34.8971 54.9264 34.5911 54.8223 34.2461 54.8223C33.8099 54.8223 33.4551 54.946 33.1816 55.1934C32.9082 55.4342 32.7715 55.7272 32.7715 56.0723C32.7715 56.3652 32.8626 56.6452 33.0449 56.9121C33.2272 57.1725 33.5169 57.4883 33.9141 57.8594ZM36.8047 63.9238L33.0449 60.3984C32.6087 60.6458 32.2311 60.9583 31.9121 61.3359C31.5996 61.707 31.4434 62.1986 31.4434 62.8105C31.4434 63.4421 31.6582 63.9466 32.0879 64.3242C32.5176 64.7018 33.0742 64.8906 33.7578 64.8906C34.3372 64.8906 34.8646 64.819 35.3398 64.6758C35.8151 64.5326 36.3034 64.2819 36.8047 63.9238ZM51.1211 67V61.2773H49.5195V58.6797H51.1211V52.9961H56.082C58.569 52.9961 60.4342 53.5658 61.6777 54.7051C62.9212 55.8379 63.543 57.5436 63.543 59.8223C63.543 62.0033 62.8626 63.7448 61.502 65.0469C60.1478 66.349 58.3411 67 56.082 67H51.1211ZM54.2754 55.5645V58.6797H56.9219V61.2773H54.2754V64.4414H55.8379C57.2051 64.4414 58.276 64.0312 59.0508 63.2109C59.832 62.3906 60.2227 61.2741 60.2227 59.8613C60.2227 58.5267 59.8353 57.4785 59.0605 56.7168C58.2923 55.9486 57.2116 55.5645 55.8184 55.5645H54.2754ZM70.3301 67.2441C68.6634 67.2441 67.3516 66.7754 66.3945 65.8379C65.4375 64.9004 64.9622 63.6341 64.9688 62.0391C64.9753 60.3854 65.4701 59.0931 66.4531 58.1621C67.4427 57.2246 68.7806 56.7559 70.4668 56.7559C72.127 56.7559 73.429 57.2214 74.373 58.1523C75.3171 59.0833 75.7891 60.3203 75.7891 61.8633C75.7891 63.5169 75.3008 64.8288 74.3242 65.7988C73.3542 66.7624 72.0228 67.2441 70.3301 67.2441ZM70.4277 64.8809C71.1699 64.8809 71.7233 64.6335 72.0879 64.1387C72.459 63.6439 72.6445 62.9049 72.6445 61.9219C72.6445 60.9909 72.459 60.291 72.0879 59.8223C71.7168 59.3535 71.1569 59.1191 70.4082 59.1191C69.679 59.1191 69.1126 59.373 68.709 59.8809C68.3053 60.3822 68.1035 61.0885 68.1035 62C68.1035 62.9635 68.2956 63.6862 68.6797 64.168C69.0703 64.6432 69.653 64.8809 70.4277 64.8809ZM66.9316 55.418L69.1582 52.9766H71.4922L73.7188 55.418H71.7559L70.3789 54.0703L68.8945 55.418H66.9316ZM65.916 53.9336L63.3379 51.5312H66.0723L67.8398 53.9336H65.916ZM87.4492 67H84.373V61.4434C84.373 60.6686 84.2331 60.0892 83.9531 59.7051C83.6797 59.3145 83.2663 59.1191 82.7129 59.1191C82.179 59.1191 81.7396 59.3242 81.3945 59.7344C81.0495 60.1445 80.877 60.6654 80.877 61.2969V67H77.791V57H80.877V58.582H80.916C81.2871 57.9701 81.7396 57.5143 82.2734 57.2148C82.8073 56.9089 83.4258 56.7559 84.1289 56.7559C85.2357 56.7559 86.0658 57.1009 86.6191 57.791C87.1725 58.4746 87.4492 59.5033 87.4492 60.877V67ZM99.7051 65.8574C99.7051 67.5046 99.1842 68.888 98.1426 70.0078C97.1074 71.1341 95.5872 71.6973 93.582 71.6973C92.8789 71.6973 92.2246 71.6354 91.6191 71.5117C91.0202 71.388 90.3984 71.1895 89.7539 70.916L90.6426 68.8262C91.1374 69.0345 91.6159 69.1842 92.0781 69.2754C92.5404 69.373 93.0645 69.4219 93.6504 69.4219C94.6139 69.4219 95.3496 69.1387 95.8574 68.5723C96.3652 68.0124 96.6191 67.2734 96.6191 66.3555V65.5645H96.5801C96.2285 66.1243 95.7923 66.5443 95.2715 66.8242C94.7507 67.1042 94.1484 67.2441 93.4648 67.2441C92.1823 67.2441 91.1667 66.7949 90.418 65.8965C89.6758 64.9915 89.3047 63.7904 89.3047 62.293C89.3047 60.5938 89.7214 59.2461 90.5547 58.25C91.388 57.2539 92.485 56.7559 93.8457 56.7559C94.4512 56.7559 94.9818 56.873 95.4375 57.1074C95.8997 57.3418 96.2806 57.6934 96.5801 58.1621H96.6191V57H99.7051V65.8574ZM96.6582 62.1953V61.4043C96.6582 60.7728 96.4694 60.2357 96.0918 59.793C95.7207 59.3438 95.2357 59.1191 94.6367 59.1191C93.9531 59.1191 93.416 59.3861 93.0254 59.9199C92.6348 60.4538 92.4395 61.2057 92.4395 62.1758C92.4395 63.0091 92.625 63.6699 92.9961 64.1582C93.3672 64.64 93.875 64.8809 94.5195 64.8809C95.1641 64.8809 95.6816 64.6367 96.0723 64.1484C96.4629 63.6536 96.6582 63.0026 96.6582 62.1953ZM117.41 67H114.334V61.3164C114.334 60.5807 114.201 60.0306 113.934 59.666C113.667 59.3014 113.266 59.1191 112.732 59.1191C112.186 59.1191 111.743 59.3242 111.404 59.7344C111.066 60.1445 110.896 60.6654 110.896 61.2969V67H107.811V52.1953H110.896V58.4844H110.936C111.313 57.9049 111.759 57.472 112.273 57.1855C112.788 56.8991 113.367 56.7559 114.012 56.7559C115.145 56.7559 115.994 57.0977 116.561 57.7812C117.127 58.4648 117.41 59.4902 117.41 60.8574V67ZM128.182 67H125.262V65.5645H125.223C124.891 66.1243 124.474 66.5443 123.973 66.8242C123.478 67.1042 122.915 67.2441 122.283 67.2441C121.417 67.2441 120.672 66.9805 120.047 66.4531C119.428 65.9193 119.119 65.1738 119.119 64.2168C119.119 63.2923 119.425 62.5371 120.037 61.9512C120.656 61.3652 121.619 60.9844 122.928 60.8086L125.281 60.4961V60.3008C125.281 59.8255 125.128 59.4674 124.822 59.2266C124.516 58.9792 124.093 58.8555 123.553 58.8555C123.143 58.8555 122.684 58.9238 122.176 59.0605C121.674 59.1973 121.163 59.4154 120.643 59.7148L119.598 57.8887C120.281 57.4915 120.958 57.2051 121.629 57.0293C122.306 56.847 123.042 56.7559 123.836 56.7559C125.327 56.7559 126.424 57.1107 127.127 57.8203C127.83 58.5299 128.182 59.5977 128.182 61.0234V67ZM125.281 62.9375V62.2637L123.465 62.498C122.964 62.5632 122.586 62.7161 122.332 62.957C122.085 63.1914 121.961 63.4909 121.961 63.8555C121.961 64.207 122.081 64.4967 122.322 64.7246C122.57 64.946 122.902 65.0566 123.318 65.0566C123.898 65.0566 124.37 64.8581 124.734 64.4609C125.099 64.0573 125.281 63.5495 125.281 62.9375ZM126.16 55.418H123.943L120.877 52.2637H123.621L126.16 55.418ZM140.281 67H137.205V61.4434C137.205 60.6686 137.065 60.0892 136.785 59.7051C136.512 59.3145 136.098 59.1191 135.545 59.1191C135.011 59.1191 134.572 59.3242 134.227 59.7344C133.882 60.1445 133.709 60.6654 133.709 61.2969V67H130.623V57H133.709V58.582H133.748C134.119 57.9701 134.572 57.5143 135.105 57.2148C135.639 56.9089 136.258 56.7559 136.961 56.7559C138.068 56.7559 138.898 57.1009 139.451 57.791C140.005 58.4746 140.281 59.5033 140.281 60.877V67ZM152.332 67H149.256V61.3164C149.256 60.5807 149.122 60.0306 148.855 59.666C148.589 59.3014 148.188 59.1191 147.654 59.1191C147.107 59.1191 146.665 59.3242 146.326 59.7344C145.988 60.1445 145.818 60.6654 145.818 61.2969V67H142.732V52.1953H145.818V58.4844H145.857C146.235 57.9049 146.681 57.472 147.195 57.1855C147.71 56.8991 148.289 56.7559 148.934 56.7559C150.066 56.7559 150.916 57.0977 151.482 57.7812C152.049 58.4648 152.332 59.4902 152.332 60.8574V67Z" fill="#1D6495"/>
</svg>
