<svg width="14" height="14" viewBox="0 0 14 14" fill="none" xmlns="http://www.w3.org/2000/svg">
    <path d="M11.0991 1.84424H9.42098C8.80312 1.84424 8.30225 2.34511 8.30225 2.96298V4.64108C8.30225 5.25894 8.80312 5.75982 9.42098 5.75982H11.0991C11.7169 5.75982 12.2178 5.25894 12.2178 4.64108V2.96298C12.2178 2.34511 11.7169 1.84424 11.0991 1.84424Z" stroke="black" stroke-width="0.839053" stroke-linecap="round" stroke-linejoin="round"/>
    <path d="M4.94626 1.84424H3.26815C2.65029 1.84424 2.14941 2.34511 2.14941 2.96298V4.64108C2.14941 5.25894 2.65029 5.75982 3.26815 5.75982H4.94626C5.56412 5.75982 6.06499 5.25894 6.06499 4.64108V2.96298C6.06499 2.34511 5.56412 1.84424 4.94626 1.84424Z" stroke="black" stroke-width="0.839053" stroke-linecap="round" stroke-linejoin="round"/>
    <path d="M11.0991 7.99707H9.42098C8.80312 7.99707 8.30225 8.49795 8.30225 9.11581V10.7939C8.30225 11.4118 8.80312 11.9126 9.42098 11.9126H11.0991C11.7169 11.9126 12.2178 11.4118 12.2178 10.7939V9.11581C12.2178 8.49795 11.7169 7.99707 11.0991 7.99707Z" stroke="black" stroke-width="0.839053" stroke-linecap="round" stroke-linejoin="round"/>
    <path d="M4.94626 7.99707H3.26815C2.65029 7.99707 2.14941 8.49795 2.14941 9.11581V10.7939C2.14941 11.4118 2.65029 11.9126 3.26815 11.9126H4.94626C5.56412 11.9126 6.06499 11.4118 6.06499 10.7939V9.11581C6.06499 8.49795 5.56412 7.99707 4.94626 7.99707Z" stroke="black" stroke-width="0.839053" stroke-linecap="round" stroke-linejoin="round"/>
</svg>