<svg viewBox="0 0 190 658" fill="none" xmlns="http://www.w3.org/2000/svg">
    <!--
    css sang loc va theo doi-->
    <style> 
    
    .motion__once:hover g path{
        fill: #fff;
    }

    .motion__once:hover path{
        fill:#E65925;
    }

    .motion__twice:hover g path{
        fill: #fff;
    }

    .motion__twice:hover path{
        fill: #01CC9B;
    }

    .motion__three:hover g path{
        fill: #fff;
    }

    .motion__three:hover path{
        fill: #67AC2F;
    }

    .motion__four:hover g path{
        fill: #fff;
    }

    .motion__four:hover path{
        fill:#1d6495;
    }

    </style>
    
    <a class="motion__once" href="/sang-loc-theo-doi/">
        <g filter="url(#filter1_d_590_1131)">
            <path d="M142.984 147.479L8 147.479L8 57.0493L142.984 57.0493L182 102.269L142.984 147.479Z" fill="white"/>
            <path d="M139.057 143.468H13L13 61.0601L139.057 61.0601L175.492 102.268L139.057 143.468Z" fill="#E65925"/>
        </g>
        <path d="M35.459 92.0718L36.7676 89.6206C37.4707 90.0373 38.0794 90.3205 38.5938 90.4702C39.1146 90.6134 39.6615 90.6851 40.2344 90.6851C40.9896 90.6851 41.5462 90.5418 41.9043 90.2554C42.2624 89.9624 42.4414 89.5653 42.4414 89.064C42.4414 88.5822 42.2982 88.2144 42.0117 87.9604C41.7253 87.7 41.1979 87.4819 40.4297 87.3062C38.8672 86.9481 37.7311 86.4403 37.0215 85.7827C36.3118 85.1252 35.957 84.2072 35.957 83.0288C35.957 81.8439 36.416 80.8381 37.334 80.0112C38.252 79.1779 39.5378 78.7612 41.1914 78.7612C41.8815 78.7612 42.5586 78.8394 43.2227 78.9956C43.8867 79.1519 44.5182 79.3797 45.1172 79.6792L43.9355 82.1694C43.3952 81.8634 42.8874 81.6453 42.4121 81.5151C41.9368 81.3849 41.4941 81.3198 41.084 81.3198C40.4525 81.3198 39.9609 81.4435 39.6094 81.6909C39.2578 81.9383 39.082 82.2931 39.082 82.7554C39.082 83.1785 39.2415 83.5041 39.5605 83.7319C39.8861 83.9598 40.4655 84.1681 41.2988 84.3569C42.8158 84.702 43.9128 85.2163 44.5898 85.8999C45.2669 86.5835 45.6055 87.547 45.6055 88.7905C45.6055 90.1187 45.1367 91.1929 44.1992 92.0132C43.2682 92.8335 41.9141 93.2437 40.1367 93.2437C39.362 93.2437 38.5514 93.1427 37.7051 92.9409C36.8587 92.7326 36.11 92.4429 35.459 92.0718ZM55.8301 92.9995H52.9102V91.564H52.8711C52.5391 92.1239 52.1224 92.5438 51.6211 92.8237C51.1263 93.1037 50.5632 93.2437 49.9316 93.2437C49.0658 93.2437 48.3203 92.98 47.6953 92.4526C47.0768 91.9188 46.7676 91.1733 46.7676 90.2163C46.7676 89.2918 47.0736 88.5366 47.6855 87.9507C48.304 87.3647 49.2676 86.9839 50.5762 86.8081L52.9297 86.4956V86.3003C52.9297 85.825 52.7767 85.467 52.4707 85.2261C52.1647 84.9787 51.7415 84.855 51.2012 84.855C50.791 84.855 50.332 84.9233 49.8242 85.0601C49.3229 85.1968 48.8118 85.4149 48.291 85.7144L47.2461 83.8882C47.9297 83.491 48.6068 83.2046 49.2773 83.0288C49.9544 82.8465 50.6901 82.7554 51.4844 82.7554C52.9753 82.7554 54.0723 83.1102 54.7754 83.8198C55.4785 84.5295 55.8301 85.5972 55.8301 87.0229V92.9995ZM52.9297 88.937V88.2632L51.1133 88.4976C50.612 88.5627 50.2344 88.7157 49.9805 88.9565C49.7331 89.1909 49.6094 89.4904 49.6094 89.855C49.6094 90.2065 49.7298 90.4963 49.9707 90.7241C50.2181 90.9455 50.5501 91.0562 50.9668 91.0562C51.5462 91.0562 52.0182 90.8576 52.3828 90.4604C52.7474 90.0568 52.9297 89.549 52.9297 88.937ZM53.8086 81.4175H51.5918L48.5254 78.2632H51.2695L53.8086 81.4175ZM67.9297 92.9995H64.8535V87.4429C64.8535 86.6681 64.7135 86.0887 64.4336 85.7046C64.1602 85.314 63.7467 85.1187 63.1934 85.1187C62.6595 85.1187 62.2201 85.3237 61.875 85.7339C61.5299 86.144 61.3574 86.6649 61.3574 87.2964V92.9995H58.2715V82.9995H61.3574V84.5815H61.3965C61.7676 83.9696 62.2201 83.5138 62.7539 83.2144C63.2878 82.9084 63.9062 82.7554 64.6094 82.7554C65.7161 82.7554 66.5462 83.1004 67.0996 83.7905C67.653 84.4741 67.9297 85.5028 67.9297 86.8765V92.9995ZM80.1855 91.8569C80.1855 93.5041 79.6647 94.8875 78.623 96.0073C77.5879 97.1336 76.0677 97.6968 74.0625 97.6968C73.3594 97.6968 72.7051 97.6349 72.0996 97.5112C71.5007 97.3875 70.8789 97.189 70.2344 96.9155L71.123 94.8257C71.6178 95.034 72.0964 95.1838 72.5586 95.2749C73.0208 95.3726 73.5449 95.4214 74.1309 95.4214C75.0944 95.4214 75.8301 95.1382 76.3379 94.5718C76.8457 94.0119 77.0996 93.2729 77.0996 92.355V91.564H77.0605C76.709 92.1239 76.2728 92.5438 75.752 92.8237C75.2311 93.1037 74.6289 93.2437 73.9453 93.2437C72.6628 93.2437 71.6471 92.7944 70.8984 91.896C70.1562 90.991 69.7852 89.7899 69.7852 88.2925C69.7852 86.5933 70.2018 85.2456 71.0352 84.2495C71.8685 83.2534 72.9655 82.7554 74.3262 82.7554C74.9316 82.7554 75.4622 82.8726 75.918 83.1069C76.3802 83.3413 76.7611 83.6929 77.0605 84.1616H77.0996V82.9995H80.1855V91.8569ZM77.1387 88.1948V87.4038C77.1387 86.7723 76.9499 86.2352 76.5723 85.7925C76.2012 85.3433 75.7161 85.1187 75.1172 85.1187C74.4336 85.1187 73.8965 85.3856 73.5059 85.9194C73.1152 86.4533 72.9199 87.2052 72.9199 88.1753C72.9199 89.0086 73.1055 89.6694 73.4766 90.1577C73.8477 90.6395 74.3555 90.8804 75 90.8804C75.6445 90.8804 76.1621 90.6362 76.5527 90.1479C76.9434 89.6532 77.1387 89.0021 77.1387 88.1948ZM88.291 92.9995V78.1948H91.377V92.9995H88.291ZM98.7402 93.2437C97.0736 93.2437 95.7617 92.7749 94.8047 91.8374C93.8477 90.8999 93.3724 89.6336 93.3789 88.0386C93.3854 86.3849 93.8802 85.0926 94.8633 84.1616C95.8529 83.2241 97.1908 82.7554 98.877 82.7554C100.537 82.7554 101.839 83.2209 102.783 84.1519C103.727 85.0828 104.199 86.3198 104.199 87.8628C104.199 89.5164 103.711 90.8283 102.734 91.7983C101.764 92.7619 100.433 93.2437 98.7402 93.2437ZM98.8379 90.8804C99.5801 90.8804 100.133 90.633 100.498 90.1382C100.869 89.6434 101.055 88.9045 101.055 87.9214C101.055 86.9904 100.869 86.2905 100.498 85.8218C100.127 85.353 99.5671 85.1187 98.8184 85.1187C98.0892 85.1187 97.5228 85.3726 97.1191 85.8804C96.7155 86.3817 96.5137 87.0881 96.5137 87.9995C96.5137 88.9631 96.7057 89.6857 97.0898 90.1675C97.4805 90.6427 98.0632 90.8804 98.8379 90.8804ZM98.7891 96.8276C98.3529 96.8276 97.9915 96.6974 97.7051 96.437C97.4251 96.1766 97.2852 95.8608 97.2852 95.4897C97.2852 95.0991 97.4284 94.7801 97.7148 94.5327C98.0013 94.2918 98.3594 94.1714 98.7891 94.1714C99.2253 94.1714 99.5801 94.2951 99.8535 94.5425C100.133 94.7899 100.273 95.1056 100.273 95.4897C100.273 95.8739 100.133 96.1929 99.8535 96.4468C99.5801 96.7007 99.2253 96.8276 98.7891 96.8276ZM114.238 92.3745C113.711 92.674 113.187 92.8921 112.666 93.0288C112.152 93.172 111.589 93.2437 110.977 93.2437C109.284 93.2437 107.965 92.7782 107.021 91.8472C106.077 90.9162 105.605 89.715 105.605 88.2437C105.605 86.5444 106.107 85.2065 107.109 84.23C108.118 83.2469 109.453 82.7554 111.113 82.7554C111.745 82.7554 112.295 82.8172 112.764 82.9409C113.232 83.0581 113.708 83.2502 114.189 83.5171L113.047 85.5874C112.747 85.4246 112.454 85.3075 112.168 85.2358C111.888 85.1577 111.579 85.1187 111.24 85.1187C110.459 85.1187 109.847 85.3726 109.404 85.8804C108.962 86.3882 108.74 87.1076 108.74 88.0386C108.74 88.9305 108.988 89.6271 109.482 90.1284C109.977 90.6297 110.576 90.8804 111.279 90.8804C111.468 90.8804 111.725 90.8381 112.051 90.7534C112.383 90.6623 112.718 90.519 113.057 90.3237L114.238 92.3745ZM48.0859 120L46.5137 118.525C45.7389 119.124 44.9707 119.557 44.209 119.824C43.4473 120.091 42.5781 120.224 41.6016 120.224C40.0716 120.224 38.8086 119.86 37.8125 119.13C36.8164 118.401 36.3184 117.337 36.3184 115.937C36.3184 114.954 36.6016 114.16 37.168 113.554C37.7409 112.942 38.5189 112.399 39.502 111.923C38.9746 111.376 38.5905 110.878 38.3496 110.429C38.1152 109.98 37.998 109.495 37.998 108.974C37.998 107.939 38.3952 107.145 39.1895 106.591C39.9837 106.038 41.0026 105.761 42.2461 105.761C43.444 105.761 44.4173 106.044 45.166 106.611C45.9212 107.177 46.2988 107.91 46.2988 108.808C46.2988 109.492 46.1068 110.094 45.7227 110.615C45.3385 111.129 44.5638 111.66 43.3984 112.207L46.6895 115.195C47.1647 114.602 47.4837 114.007 47.6465 113.408C47.8092 112.802 47.8906 112.135 47.8906 111.406H50.625C50.625 112.395 50.459 113.317 50.127 114.169C49.8014 115.022 49.235 115.888 48.4277 116.767L51.9922 120H48.0859ZM41.9141 110.859C42.4609 110.625 42.8711 110.377 43.1445 110.117C43.4245 109.85 43.5645 109.485 43.5645 109.023C43.5645 108.639 43.431 108.343 43.1641 108.134C42.8971 107.926 42.5911 107.822 42.2461 107.822C41.8099 107.822 41.4551 107.945 41.1816 108.193C40.9082 108.434 40.7715 108.727 40.7715 109.072C40.7715 109.365 40.8626 109.645 41.0449 109.912C41.2272 110.172 41.5169 110.488 41.9141 110.859ZM44.8047 116.923L41.0449 113.398C40.6087 113.645 40.2311 113.958 39.9121 114.335C39.5996 114.707 39.4434 115.198 39.4434 115.81C39.4434 116.442 39.6582 116.946 40.0879 117.324C40.5176 117.701 41.0742 117.89 41.7578 117.89C42.3372 117.89 42.8646 117.819 43.3398 117.675C43.8151 117.532 44.3034 117.281 44.8047 116.923ZM65.0684 119.843C64.7559 119.973 64.4043 120.071 64.0137 120.136C63.6296 120.208 63.2389 120.244 62.8418 120.244C61.748 120.244 60.9245 119.98 60.3711 119.453C59.8177 118.925 59.541 118.138 59.541 117.089V112.275H57.9199V110H59.541V107.578L62.6172 106.699V110H64.8633V112.275H62.6172V116.894C62.6172 117.278 62.6921 117.558 62.8418 117.734C62.9915 117.903 63.2324 117.988 63.5645 117.988C63.7272 117.988 63.8835 117.968 64.0332 117.929C64.1829 117.884 64.3262 117.828 64.4629 117.763L65.0684 119.843ZM76.2109 120H73.1348V114.316C73.1348 113.58 73.0013 113.03 72.7344 112.666C72.4674 112.301 72.0671 112.119 71.5332 112.119C70.9863 112.119 70.5436 112.324 70.2051 112.734C69.8665 113.144 69.6973 113.665 69.6973 114.296V120H66.6113V105.195H69.6973V111.484H69.7363C70.1139 110.904 70.5599 110.472 71.0742 110.185C71.5885 109.899 72.168 109.755 72.8125 109.755C73.9453 109.755 74.7949 110.097 75.3613 110.781C75.9277 111.464 76.2109 112.49 76.2109 113.857V120ZM87.6465 115.878H81.123C81.1751 116.601 81.416 117.138 81.8457 117.49C82.2819 117.841 82.8809 118.017 83.6426 118.017C83.929 118.017 84.3229 117.932 84.8242 117.763C85.332 117.587 85.8236 117.314 86.2988 116.943L87.666 118.691C86.9824 119.231 86.2793 119.625 85.5566 119.873C84.834 120.12 84.0365 120.244 83.1641 120.244C81.5495 120.244 80.2962 119.798 79.4043 118.906C78.5124 118.007 78.0664 116.757 78.0664 115.156C78.0664 113.561 78.5384 112.262 79.4824 111.259C80.4264 110.257 81.6211 109.755 83.0664 109.755C84.4531 109.755 85.5632 110.175 86.3965 111.015C87.2298 111.848 87.6465 113.063 87.6465 114.658V115.878ZM84.7852 113.984C84.7852 113.209 84.6387 112.659 84.3457 112.333C84.0592 112.001 83.6263 111.835 83.0469 111.835C82.5521 111.835 82.1224 112.028 81.7578 112.412C81.3997 112.796 81.1816 113.32 81.1035 113.984H84.7852ZM94.248 120.244C92.5814 120.244 91.2695 119.775 90.3125 118.837C89.3555 117.9 88.8802 116.634 88.8867 115.039C88.8932 113.385 89.388 112.093 90.3711 111.162C91.3607 110.224 92.6986 109.755 94.3848 109.755C96.0449 109.755 97.347 110.221 98.291 111.152C99.235 112.083 99.707 113.32 99.707 114.863C99.707 116.516 99.2188 117.828 98.2422 118.798C97.2721 119.762 95.9408 120.244 94.248 120.244ZM94.3457 117.88C95.0879 117.88 95.6413 117.633 96.0059 117.138C96.377 116.643 96.5625 115.904 96.5625 114.921C96.5625 113.99 96.377 113.291 96.0059 112.822C95.6348 112.353 95.0749 112.119 94.3262 112.119C93.597 112.119 93.0306 112.373 92.627 112.88C92.2233 113.382 92.0215 114.088 92.0215 115C92.0215 115.963 92.2135 116.686 92.5977 117.167C92.9883 117.643 93.571 117.88 94.3457 117.88ZM113.896 118.623C113.545 119.163 113.112 119.57 112.598 119.843C112.083 120.11 111.484 120.244 110.801 120.244C109.557 120.244 108.551 119.804 107.783 118.925C107.021 118.04 106.641 116.806 106.641 115.224C106.641 113.57 107.061 112.246 107.9 111.25C108.747 110.253 109.847 109.755 111.201 109.755C111.846 109.755 112.393 109.873 112.842 110.107C113.291 110.335 113.643 110.68 113.896 111.142H113.936V105.195H117.021V120H113.936V118.623H113.896ZM109.775 115.136C109.775 116.015 109.961 116.692 110.332 117.167C110.703 117.643 111.217 117.88 111.875 117.88C112.5 117.88 113.008 117.63 113.398 117.128C113.796 116.627 113.994 115.963 113.994 115.136V114.384C113.994 113.733 113.805 113.193 113.428 112.763C113.05 112.333 112.559 112.119 111.953 112.119C111.27 112.119 110.736 112.389 110.352 112.929C109.967 113.463 109.775 114.199 109.775 115.136ZM124.385 120.244C122.718 120.244 121.406 119.775 120.449 118.837C119.492 117.9 119.017 116.634 119.023 115.039C119.03 113.385 119.525 112.093 120.508 111.162C121.497 110.224 122.835 109.755 124.521 109.755C126.182 109.755 127.484 110.221 128.428 111.152C129.372 112.083 129.844 113.32 129.844 114.863C129.844 116.516 129.355 117.828 128.379 118.798C127.409 119.762 126.077 120.244 124.385 120.244ZM124.482 117.88C125.225 117.88 125.778 117.633 126.143 117.138C126.514 116.643 126.699 115.904 126.699 114.921C126.699 113.99 126.514 113.291 126.143 112.822C125.771 112.353 125.212 112.119 124.463 112.119C123.734 112.119 123.167 112.373 122.764 112.88C122.36 113.382 122.158 114.088 122.158 115C122.158 115.963 122.35 116.686 122.734 117.167C123.125 117.643 123.708 117.88 124.482 117.88ZM127.969 105.39C127.969 106.302 127.786 107.008 127.422 107.509C127.064 108.004 126.572 108.251 125.947 108.251C125.667 108.251 125.391 108.216 125.117 108.144C124.844 108.072 124.574 107.968 124.307 107.832C124.02 107.675 123.776 107.561 123.574 107.49C123.372 107.412 123.216 107.373 123.105 107.373C122.845 107.373 122.65 107.46 122.52 107.636C122.389 107.812 122.324 108.076 122.324 108.427H120.947C120.947 107.522 121.126 106.819 121.484 106.318C121.842 105.817 122.344 105.566 122.988 105.566C123.255 105.566 123.525 105.605 123.799 105.683C124.072 105.761 124.349 105.882 124.629 106.044C124.889 106.188 125.117 106.295 125.312 106.367C125.508 106.438 125.671 106.474 125.801 106.474C126.055 106.474 126.243 106.383 126.367 106.201C126.497 106.018 126.562 105.748 126.562 105.39H127.969ZM133.408 108.623C132.874 108.623 132.438 108.46 132.1 108.134C131.761 107.809 131.592 107.405 131.592 106.923C131.592 106.422 131.761 106.015 132.1 105.703C132.438 105.384 132.874 105.224 133.408 105.224C133.949 105.224 134.385 105.384 134.717 105.703C135.055 106.015 135.225 106.422 135.225 106.923C135.225 107.425 135.055 107.835 134.717 108.154C134.385 108.466 133.949 108.623 133.408 108.623ZM134.932 120H131.846V110H134.932V120Z" fill="white"/>
    </a>
    <a class="motion__twice" href="danh-gia-chuyen-sau">
        <g filter="url(#filter2_d_590_1131)">
            <path d="M142.984 313.429H8L8 223L142.984 223L182 268.219L142.984 313.429Z" fill="white"/>
            <path d="M139.057 309.407H13L13 227L139.057 227L175.492 268.208L139.057 309.407Z" fill="#01CC9B"/>
        </g>
        <path d="M36.6016 259V253.277H35V250.679H36.6016V244.996H41.5625C44.0495 244.996 45.9147 245.565 47.1582 246.705C48.4017 247.837 49.0234 249.543 49.0234 251.822C49.0234 254.003 48.3431 255.744 46.9824 257.046C45.6283 258.348 43.8216 259 41.5625 259H36.6016ZM39.7559 247.564V250.679H42.4023V253.277H39.7559V256.441H41.3184C42.6855 256.441 43.7565 256.031 44.5312 255.21C45.3125 254.39 45.7031 253.274 45.7031 251.861C45.7031 250.526 45.3158 249.478 44.541 248.716C43.7728 247.948 42.6921 247.564 41.2988 247.564H39.7559ZM59.3652 259H56.4453V257.564H56.4062C56.0742 258.124 55.6576 258.544 55.1562 258.824C54.6615 259.104 54.0983 259.244 53.4668 259.244C52.6009 259.244 51.8555 258.98 51.2305 258.453C50.612 257.919 50.3027 257.173 50.3027 256.216C50.3027 255.292 50.6087 254.537 51.2207 253.951C51.8392 253.365 52.8027 252.984 54.1113 252.808L56.4648 252.496V252.3C56.4648 251.825 56.3118 251.467 56.0059 251.226C55.6999 250.979 55.2767 250.855 54.7363 250.855C54.3262 250.855 53.8672 250.923 53.3594 251.06C52.8581 251.197 52.347 251.415 51.8262 251.714L50.7812 249.888C51.4648 249.491 52.1419 249.205 52.8125 249.029C53.4896 248.847 54.2253 248.755 55.0195 248.755C56.5104 248.755 57.6074 249.11 58.3105 249.82C59.0137 250.529 59.3652 251.597 59.3652 253.023V259ZM56.4648 254.937V254.263L54.6484 254.498C54.1471 254.563 53.7695 254.716 53.5156 254.957C53.2682 255.191 53.1445 255.49 53.1445 255.855C53.1445 256.207 53.265 256.496 53.5059 256.724C53.7533 256.945 54.0853 257.056 54.502 257.056C55.0814 257.056 55.5534 256.858 55.918 256.46C56.2826 256.057 56.4648 255.549 56.4648 254.937ZM55.1465 247.417H52.9199L55.459 244.263H58.2031L55.1465 247.417ZM71.4648 259H68.3887V253.443C68.3887 252.668 68.2487 252.089 67.9688 251.705C67.6953 251.314 67.2819 251.119 66.7285 251.119C66.1947 251.119 65.7552 251.324 65.4102 251.734C65.0651 252.144 64.8926 252.665 64.8926 253.296V259H61.8066V249H64.8926V250.582H64.9316C65.3027 249.97 65.7552 249.514 66.2891 249.214C66.8229 248.908 67.4414 248.755 68.1445 248.755C69.2513 248.755 70.0814 249.1 70.6348 249.791C71.1882 250.474 71.4648 251.503 71.4648 252.876V259ZM83.5156 259H80.4395V253.316C80.4395 252.58 80.306 252.03 80.0391 251.666C79.7721 251.301 79.3717 251.119 78.8379 251.119C78.291 251.119 77.8483 251.324 77.5098 251.734C77.1712 252.144 77.002 252.665 77.002 253.296V259H73.916V244.195H77.002V250.484H77.041C77.4186 249.904 77.8646 249.472 78.3789 249.185C78.8932 248.899 79.4727 248.755 80.1172 248.755C81.25 248.755 82.0996 249.097 82.666 249.781C83.2324 250.464 83.5156 251.49 83.5156 252.857V259ZM101.299 257.857C101.299 259.504 100.778 260.888 99.7363 262.007C98.7012 263.134 97.181 263.697 95.1758 263.697C94.4727 263.697 93.8184 263.635 93.2129 263.511C92.6139 263.388 91.9922 263.189 91.3477 262.916L92.2363 260.826C92.7311 261.034 93.2096 261.184 93.6719 261.275C94.1341 261.373 94.6582 261.421 95.2441 261.421C96.2077 261.421 96.9434 261.138 97.4512 260.572C97.959 260.012 98.2129 259.273 98.2129 258.355V257.564H98.1738C97.8223 258.124 97.3861 258.544 96.8652 258.824C96.3444 259.104 95.7422 259.244 95.0586 259.244C93.776 259.244 92.7604 258.794 92.0117 257.896C91.2695 256.991 90.8984 255.79 90.8984 254.292C90.8984 252.593 91.3151 251.246 92.1484 250.25C92.9818 249.253 94.0788 248.755 95.4395 248.755C96.0449 248.755 96.5755 248.873 97.0312 249.107C97.4935 249.341 97.8743 249.693 98.1738 250.162H98.2129V249H101.299V257.857ZM98.252 254.195V253.404C98.252 252.772 98.0632 252.235 97.6855 251.792C97.3145 251.343 96.8294 251.119 96.2305 251.119C95.5469 251.119 95.0098 251.386 94.6191 251.919C94.2285 252.453 94.0332 253.205 94.0332 254.175C94.0332 255.009 94.2188 255.669 94.5898 256.158C94.9609 256.639 95.4688 256.88 96.1133 256.88C96.7578 256.88 97.2754 256.636 97.666 256.148C98.0566 255.653 98.252 255.002 98.252 254.195ZM105.439 247.623C104.906 247.623 104.469 247.46 104.131 247.134C103.792 246.809 103.623 246.405 103.623 245.923C103.623 245.422 103.792 245.015 104.131 244.703C104.469 244.384 104.906 244.224 105.439 244.224C105.98 244.224 106.416 244.384 106.748 244.703C107.087 245.015 107.256 245.422 107.256 245.923C107.256 246.425 107.087 246.835 106.748 247.154C106.416 247.466 105.98 247.623 105.439 247.623ZM106.963 259H103.877V249H106.963V259ZM117.881 259H114.961V257.564H114.922C114.59 258.124 114.173 258.544 113.672 258.824C113.177 259.104 112.614 259.244 111.982 259.244C111.117 259.244 110.371 258.98 109.746 258.453C109.128 257.919 108.818 257.173 108.818 256.216C108.818 255.292 109.124 254.537 109.736 253.951C110.355 253.365 111.318 252.984 112.627 252.808L114.98 252.496V252.3C114.98 251.825 114.827 251.467 114.521 251.226C114.215 250.979 113.792 250.855 113.252 250.855C112.842 250.855 112.383 250.923 111.875 251.06C111.374 251.197 110.863 251.415 110.342 251.714L109.297 249.888C109.98 249.491 110.658 249.205 111.328 249.029C112.005 248.847 112.741 248.755 113.535 248.755C115.026 248.755 116.123 249.11 116.826 249.82C117.529 250.529 117.881 251.597 117.881 253.023V259ZM114.98 254.937V254.263L113.164 254.498C112.663 254.563 112.285 254.716 112.031 254.957C111.784 255.191 111.66 255.49 111.66 255.855C111.66 256.207 111.781 256.496 112.021 256.724C112.269 256.945 112.601 257.056 113.018 257.056C113.597 257.056 114.069 256.858 114.434 256.46C114.798 256.057 114.98 255.549 114.98 254.937ZM113.662 247.417H111.436L113.975 244.263H116.719L113.662 247.417ZM44.3359 285.375C43.8086 285.674 43.2845 285.892 42.7637 286.029C42.2493 286.172 41.6862 286.244 41.0742 286.244C39.3815 286.244 38.0632 285.778 37.1191 284.847C36.1751 283.916 35.7031 282.715 35.7031 281.244C35.7031 279.544 36.2044 278.207 37.207 277.23C38.2161 276.247 39.5508 275.755 41.2109 275.755C41.8424 275.755 42.3926 275.817 42.8613 275.941C43.3301 276.058 43.8053 276.25 44.2871 276.517L43.1445 278.587C42.8451 278.425 42.5521 278.307 42.2656 278.236C41.9857 278.158 41.6764 278.119 41.3379 278.119C40.5566 278.119 39.9447 278.373 39.502 278.88C39.0592 279.388 38.8379 280.108 38.8379 281.039C38.8379 281.931 39.0853 282.627 39.5801 283.128C40.0749 283.63 40.6738 283.88 41.377 283.88C41.5658 283.88 41.8229 283.838 42.1484 283.753C42.4805 283.662 42.8158 283.519 43.1543 283.324L44.3359 285.375ZM55.5078 286H52.4316V280.316C52.4316 279.58 52.2982 279.03 52.0312 278.666C51.7643 278.301 51.3639 278.119 50.8301 278.119C50.2832 278.119 49.8405 278.324 49.502 278.734C49.1634 279.144 48.9941 279.665 48.9941 280.296V286H45.9082V271.195H48.9941V277.484H49.0332C49.4108 276.904 49.8568 276.472 50.3711 276.185C50.8854 275.899 51.4648 275.755 52.1094 275.755C53.2422 275.755 54.0918 276.097 54.6582 276.781C55.2246 277.464 55.5078 278.49 55.5078 279.857V286ZM67.4609 286H64.3848V284.476H64.3359C63.9583 285.062 63.5124 285.505 62.998 285.804C62.4902 286.097 61.9173 286.244 61.2793 286.244C60.1204 286.244 59.2513 285.892 58.6719 285.189C58.0924 284.486 57.8027 283.434 57.8027 282.035V276H60.8789V281.761C60.8789 282.464 61.0189 282.995 61.2988 283.353C61.5788 283.705 61.9987 283.88 62.5586 283.88C63.112 283.88 63.5547 283.688 63.8867 283.304C64.2188 282.914 64.3848 282.386 64.3848 281.722V276H67.4609V286ZM79.5898 276L75.1172 287.855C74.7786 288.747 74.2676 289.444 73.584 289.945C72.9004 290.446 72.0768 290.697 71.1133 290.697C70.8008 290.697 70.5013 290.681 70.2148 290.648C69.9284 290.615 69.6484 290.567 69.375 290.501L69.8828 288.236C70.0326 288.288 70.179 288.324 70.3223 288.343C70.4655 288.369 70.625 288.382 70.8008 288.382C71.1068 288.382 71.3737 288.307 71.6016 288.158C71.8359 288.008 72.0247 287.77 72.168 287.445L72.793 285.98L68.7305 276H72.1484L74.0137 282.083C74.0723 282.272 74.1243 282.477 74.1699 282.699C74.2155 282.92 74.2546 283.161 74.2871 283.421H74.3262C74.3587 283.226 74.401 283.021 74.4531 282.806C74.5052 282.591 74.5703 282.357 74.6484 282.103L76.5332 276H79.5898ZM89.8145 281.878H83.291C83.3431 282.601 83.584 283.138 84.0137 283.49C84.4499 283.841 85.0488 284.017 85.8105 284.017C86.097 284.017 86.4909 283.932 86.9922 283.763C87.5 283.587 87.9915 283.314 88.4668 282.943L89.834 284.691C89.1504 285.231 88.4473 285.625 87.7246 285.873C87.002 286.12 86.2044 286.244 85.332 286.244C83.7174 286.244 82.4642 285.798 81.5723 284.906C80.6803 284.007 80.2344 282.757 80.2344 281.156C80.2344 279.561 80.7064 278.262 81.6504 277.259C82.5944 276.257 83.7891 275.755 85.2344 275.755C86.6211 275.755 87.7311 276.175 88.5645 277.015C89.3978 277.848 89.8145 279.063 89.8145 280.658V281.878ZM86.9531 279.984C86.9531 279.209 86.8066 278.659 86.5137 278.333C86.2272 278.001 85.7943 277.835 85.2148 277.835C84.7201 277.835 84.2904 278.028 83.9258 278.412C83.5677 278.796 83.3496 279.32 83.2715 279.984H86.9531ZM83.7695 274.417H81.748L84.043 271.244H86.4648L88.7695 274.417H86.748L85.2051 272.582L83.7695 274.417ZM101.309 286H98.2324V280.443C98.2324 279.668 98.0924 279.089 97.8125 278.705C97.5391 278.314 97.1257 278.119 96.5723 278.119C96.0384 278.119 95.599 278.324 95.2539 278.734C94.9089 279.144 94.7363 279.665 94.7363 280.296V286H91.6504V276H94.7363V277.582H94.7754C95.1465 276.97 95.599 276.514 96.1328 276.214C96.6667 275.908 97.2852 275.755 97.9883 275.755C99.0951 275.755 99.9251 276.1 100.479 276.791C101.032 277.474 101.309 278.503 101.309 279.876V286ZM108.281 285.13L109.541 283.08C109.88 283.34 110.28 283.565 110.742 283.753C111.204 283.942 111.719 284.037 112.285 284.037C112.682 284.037 113.008 283.965 113.262 283.822C113.516 283.672 113.643 283.454 113.643 283.167C113.643 282.94 113.548 282.761 113.359 282.63C113.177 282.494 112.809 282.367 112.256 282.25C111.012 281.989 110.111 281.621 109.551 281.146C108.991 280.671 108.711 279.99 108.711 279.105C108.711 278.089 109.115 277.279 109.922 276.673C110.736 276.061 111.729 275.755 112.9 275.755C113.512 275.755 114.095 275.837 114.648 276C115.202 276.156 115.713 276.39 116.182 276.703L115.02 278.685C114.622 278.431 114.245 278.246 113.887 278.128C113.529 278.005 113.161 277.943 112.783 277.943C112.386 277.943 112.064 278.018 111.816 278.167C111.576 278.317 111.455 278.509 111.455 278.744C111.455 279.017 111.576 279.216 111.816 279.339C112.057 279.457 112.507 279.58 113.164 279.71C114.323 279.945 115.15 280.313 115.645 280.814C116.139 281.309 116.387 281.979 116.387 282.826C116.387 283.848 115.999 284.675 115.225 285.306C114.456 285.931 113.434 286.244 112.158 286.244C111.462 286.244 110.794 286.156 110.156 285.98C109.525 285.798 108.9 285.514 108.281 285.13ZM126.416 286H123.496V284.564H123.457C123.125 285.124 122.708 285.544 122.207 285.824C121.712 286.104 121.149 286.244 120.518 286.244C119.652 286.244 118.906 285.98 118.281 285.453C117.663 284.919 117.354 284.173 117.354 283.216C117.354 282.292 117.66 281.537 118.271 280.951C118.89 280.365 119.854 279.984 121.162 279.808L123.516 279.496V279.3C123.516 278.825 123.363 278.467 123.057 278.226C122.751 277.979 122.327 277.855 121.787 277.855C121.377 277.855 120.918 277.923 120.41 278.06C119.909 278.197 119.398 278.415 118.877 278.714L117.832 276.888C118.516 276.491 119.193 276.205 119.863 276.029C120.54 275.847 121.276 275.755 122.07 275.755C123.561 275.755 124.658 276.11 125.361 276.82C126.064 277.529 126.416 278.597 126.416 280.023V286ZM123.516 281.937V281.263L121.699 281.498C121.198 281.563 120.82 281.716 120.566 281.957C120.319 282.191 120.195 282.49 120.195 282.855C120.195 283.207 120.316 283.496 120.557 283.724C120.804 283.945 121.136 284.056 121.553 284.056C122.132 284.056 122.604 283.858 122.969 283.46C123.333 283.057 123.516 282.549 123.516 281.937ZM120.742 274.417H118.721L121.016 271.244H123.438L125.742 274.417H123.721L122.178 272.582L120.742 274.417ZM138.359 286H135.283V284.476H135.234C134.857 285.062 134.411 285.505 133.896 285.804C133.389 286.097 132.816 286.244 132.178 286.244C131.019 286.244 130.15 285.892 129.57 285.189C128.991 284.486 128.701 283.434 128.701 282.035V276H131.777V281.761C131.777 282.464 131.917 282.995 132.197 283.353C132.477 283.705 132.897 283.88 133.457 283.88C134.01 283.88 134.453 283.688 134.785 283.304C135.117 282.914 135.283 282.386 135.283 281.722V276H138.359V286Z" fill="white"/>
    </a>
    <a class="motion__three" href="can-thiep-tri-lieu">
        <g filter="url(#filter3_d_590_1131)">
            <path d="M142.984 479.429H8L8 389H142.984L182 434.219L142.984 479.429Z" fill="white"/>
            <path d="M139.057 475.468H13L13 393.06H139.057L175.501 434.268L139.057 475.468Z" fill="#67AC2F"/>
        </g>
        <path d="M54.1289 425.316C53.3932 425.641 52.6803 425.876 51.9902 426.019C51.3001 426.169 50.5547 426.244 49.7539 426.244C47.5729 426.244 45.8542 425.635 44.5977 424.417C43.3477 423.194 42.7227 421.445 42.7227 419.173C42.7227 417.044 43.4062 415.277 44.7734 413.871C46.1406 412.464 47.944 411.761 50.1836 411.761C50.9323 411.761 51.5996 411.813 52.1855 411.917C52.778 412.022 53.3932 412.191 54.0312 412.425L53.1035 414.974C52.6217 414.798 52.1595 414.671 51.7168 414.593C51.2741 414.515 50.7956 414.476 50.2812 414.476C49.1354 414.476 48.1426 414.88 47.3027 415.687C46.4629 416.488 46.043 417.575 46.043 418.949C46.043 420.368 46.4076 421.478 47.1367 422.279C47.8724 423.08 48.8783 423.48 50.1543 423.48C50.4863 423.48 50.9062 423.428 51.4141 423.324C51.9284 423.213 52.459 423.034 53.0059 422.787L54.1289 425.316ZM64.0996 426H61.1797V424.564H61.1406C60.8086 425.124 60.3919 425.544 59.8906 425.824C59.3958 426.104 58.8327 426.244 58.2012 426.244C57.3353 426.244 56.5898 425.98 55.9648 425.453C55.3464 424.919 55.0371 424.173 55.0371 423.216C55.0371 422.292 55.3431 421.537 55.9551 420.951C56.5736 420.365 57.5371 419.984 58.8457 419.808L61.1992 419.496V419.3C61.1992 418.825 61.0462 418.467 60.7402 418.226C60.4342 417.979 60.0111 417.855 59.4707 417.855C59.0605 417.855 58.6016 417.923 58.0938 418.06C57.5924 418.197 57.0814 418.415 56.5605 418.714L55.5156 416.888C56.1992 416.491 56.8763 416.205 57.5469 416.029C58.224 415.847 58.9596 415.755 59.7539 415.755C61.2448 415.755 62.3418 416.11 63.0449 416.82C63.748 417.529 64.0996 418.597 64.0996 420.023V426ZM61.1992 421.937V421.263L59.3828 421.498C58.8815 421.563 58.5039 421.716 58.25 421.957C58.0026 422.191 57.8789 422.49 57.8789 422.855C57.8789 423.207 57.9993 423.496 58.2402 423.724C58.4876 423.945 58.8197 424.056 59.2363 424.056C59.8158 424.056 60.2878 423.858 60.6523 423.46C61.0169 423.057 61.1992 422.549 61.1992 421.937ZM76.1992 426H73.123V420.443C73.123 419.668 72.9831 419.089 72.7031 418.705C72.4297 418.314 72.0163 418.119 71.4629 418.119C70.929 418.119 70.4896 418.324 70.1445 418.734C69.7995 419.144 69.627 419.665 69.627 420.296V426H66.541V416H69.627V417.582H69.666C70.0371 416.97 70.4896 416.514 71.0234 416.214C71.5573 415.908 72.1758 415.755 72.8789 415.755C73.9857 415.755 74.8158 416.1 75.3691 416.791C75.9225 417.474 76.1992 418.503 76.1992 419.876V426ZM90.4277 425.843C90.1152 425.973 89.7637 426.071 89.373 426.136C88.9889 426.208 88.5983 426.244 88.2012 426.244C87.1074 426.244 86.2839 425.98 85.7305 425.453C85.1771 424.925 84.9004 424.138 84.9004 423.089V418.275H83.2793V416H84.9004V413.578L87.9766 412.699V416H90.2227V418.275H87.9766V422.894C87.9766 423.278 88.0514 423.558 88.2012 423.734C88.3509 423.903 88.5918 423.988 88.9238 423.988C89.0866 423.988 89.2428 423.968 89.3926 423.929C89.5423 423.884 89.6855 423.828 89.8223 423.763L90.4277 425.843ZM101.57 426H98.4941V420.316C98.4941 419.58 98.3607 419.03 98.0938 418.666C97.8268 418.301 97.4264 418.119 96.8926 418.119C96.3457 418.119 95.903 418.324 95.5645 418.734C95.2259 419.144 95.0566 419.665 95.0566 420.296V426H91.9707V411.195H95.0566V417.484H95.0957C95.4733 416.904 95.9193 416.472 96.4336 416.185C96.9479 415.899 97.5273 415.755 98.1719 415.755C99.3047 415.755 100.154 416.097 100.721 416.781C101.287 417.464 101.57 418.49 101.57 419.857V426ZM105.584 414.623C105.05 414.623 104.614 414.46 104.275 414.134C103.937 413.809 103.768 413.405 103.768 412.923C103.768 412.422 103.937 412.015 104.275 411.703C104.614 411.384 105.05 411.224 105.584 411.224C106.124 411.224 106.561 411.384 106.893 411.703C107.231 412.015 107.4 412.422 107.4 412.923C107.4 413.425 107.231 413.835 106.893 414.154C106.561 414.466 106.124 414.623 105.584 414.623ZM107.107 426H104.021V416H107.107V426ZM118.689 421.878H112.166C112.218 422.601 112.459 423.138 112.889 423.49C113.325 423.841 113.924 424.017 114.686 424.017C114.972 424.017 115.366 423.932 115.867 423.763C116.375 423.587 116.867 423.314 117.342 422.943L118.709 424.691C118.025 425.231 117.322 425.625 116.6 425.873C115.877 426.12 115.079 426.244 114.207 426.244C112.592 426.244 111.339 425.798 110.447 424.906C109.555 424.007 109.109 422.757 109.109 421.156C109.109 419.561 109.581 418.262 110.525 417.259C111.469 416.257 112.664 415.755 114.109 415.755C115.496 415.755 116.606 416.175 117.439 417.015C118.273 417.848 118.689 419.063 118.689 420.658V421.878ZM115.828 419.984C115.828 419.209 115.682 418.659 115.389 418.333C115.102 418.001 114.669 417.835 114.09 417.835C113.595 417.835 113.165 418.028 112.801 418.412C112.443 418.796 112.225 419.32 112.146 419.984H115.828ZM112.645 414.417H110.623L112.918 411.244H115.34L117.645 414.417H115.623L114.08 412.582L112.645 414.417ZM114.041 429.828C113.605 429.828 113.243 429.697 112.957 429.437C112.677 429.177 112.537 428.861 112.537 428.49C112.537 428.099 112.68 427.78 112.967 427.533C113.253 427.292 113.611 427.171 114.041 427.171C114.477 427.171 114.832 427.295 115.105 427.542C115.385 427.79 115.525 428.106 115.525 428.49C115.525 428.874 115.385 429.193 115.105 429.447C114.832 429.701 114.477 429.828 114.041 429.828ZM123.65 424.837H123.611V430.599H120.525V416H123.611V417.503H123.65C124.028 416.917 124.484 416.481 125.018 416.195C125.558 415.902 126.173 415.755 126.863 415.755C128.152 415.755 129.152 416.201 129.861 417.093C130.571 417.979 130.926 419.186 130.926 420.716C130.926 422.383 130.512 423.721 129.686 424.73C128.859 425.739 127.765 426.244 126.404 426.244C125.799 426.244 125.268 426.126 124.812 425.892C124.357 425.658 123.969 425.306 123.65 424.837ZM123.562 420.736V421.537C123.562 422.227 123.745 422.79 124.109 423.226C124.474 423.662 124.952 423.88 125.545 423.88C126.248 423.88 126.792 423.61 127.176 423.07C127.566 422.523 127.762 421.751 127.762 420.755C127.762 419.876 127.589 419.219 127.244 418.783C126.906 418.34 126.395 418.119 125.711 418.119C125.079 418.119 124.562 418.36 124.158 418.841C123.761 419.317 123.562 419.948 123.562 420.736ZM55.0859 453L53.5137 451.525C52.7389 452.124 51.9707 452.557 51.209 452.824C50.4473 453.091 49.5781 453.224 48.6016 453.224C47.0716 453.224 45.8086 452.86 44.8125 452.13C43.8164 451.401 43.3184 450.337 43.3184 448.937C43.3184 447.954 43.6016 447.16 44.168 446.554C44.7409 445.942 45.5189 445.399 46.502 444.923C45.9746 444.376 45.5905 443.878 45.3496 443.429C45.1152 442.98 44.998 442.495 44.998 441.974C44.998 440.939 45.3952 440.145 46.1895 439.591C46.9837 439.038 48.0026 438.761 49.2461 438.761C50.444 438.761 51.4173 439.044 52.166 439.611C52.9212 440.177 53.2988 440.91 53.2988 441.808C53.2988 442.492 53.1068 443.094 52.7227 443.615C52.3385 444.129 51.5638 444.66 50.3984 445.207L53.6895 448.195C54.1647 447.602 54.4837 447.007 54.6465 446.408C54.8092 445.802 54.8906 445.135 54.8906 444.406H57.625C57.625 445.395 57.459 446.317 57.127 447.169C56.8014 448.022 56.235 448.888 55.4277 449.767L58.9922 453H55.0859ZM48.9141 443.859C49.4609 443.625 49.8711 443.377 50.1445 443.117C50.4245 442.85 50.5645 442.485 50.5645 442.023C50.5645 441.639 50.431 441.343 50.1641 441.134C49.8971 440.926 49.5911 440.822 49.2461 440.822C48.8099 440.822 48.4551 440.945 48.1816 441.193C47.9082 441.434 47.7715 441.727 47.7715 442.072C47.7715 442.365 47.8626 442.645 48.0449 442.912C48.2272 443.172 48.5169 443.488 48.9141 443.859ZM51.8047 449.923L48.0449 446.398C47.6087 446.645 47.2311 446.958 46.9121 447.335C46.5996 447.707 46.4434 448.198 46.4434 448.81C46.4434 449.442 46.6582 449.946 47.0879 450.324C47.5176 450.701 48.0742 450.89 48.7578 450.89C49.3372 450.89 49.8646 450.819 50.3398 450.675C50.8151 450.532 51.3034 450.281 51.8047 449.923ZM75.9453 441.564H71.9512V453H68.7871V441.564H64.8125V438.996H75.9453V441.564ZM82.2637 445.558C82.14 445.532 82.013 445.513 81.8828 445.5C81.7526 445.486 81.6094 445.48 81.4531 445.48C80.6393 445.48 80.0339 445.721 79.6367 446.203C79.2396 446.678 79.041 447.352 79.041 448.224V453H75.9551V443H79.041V444.855H79.0801C79.321 444.178 79.6595 443.67 80.0957 443.332C80.5384 442.993 81.0788 442.824 81.7168 442.824C81.86 442.824 82 442.833 82.1367 442.853C82.2799 442.873 82.4264 442.899 82.5762 442.931L82.2637 445.558ZM85.4863 441.623C84.9525 441.623 84.5163 441.46 84.1777 441.134C83.8392 440.809 83.6699 440.405 83.6699 439.923C83.6699 439.422 83.8392 439.015 84.1777 438.703C84.5163 438.384 84.9525 438.224 85.4863 438.224C86.0267 438.224 86.4629 438.384 86.7949 438.703C87.1335 439.015 87.3027 439.422 87.3027 439.923C87.3027 440.425 87.1335 440.835 86.7949 441.154C86.4629 441.466 86.0267 441.623 85.4863 441.623ZM87.0098 453H83.9238V443H87.0098V453ZM85.4668 456.828C85.0306 456.828 84.6693 456.697 84.3828 456.437C84.1029 456.177 83.9629 455.861 83.9629 455.49C83.9629 455.099 84.1061 454.78 84.3926 454.533C84.679 454.292 85.0371 454.171 85.4668 454.171C85.903 454.171 86.2578 454.295 86.5312 454.542C86.8112 454.79 86.9512 455.106 86.9512 455.49C86.9512 455.874 86.8112 456.193 86.5312 456.447C86.2578 456.701 85.903 456.828 85.4668 456.828ZM95.1348 453V438.195H98.2207V453H95.1348ZM102.381 441.623C101.847 441.623 101.411 441.46 101.072 441.134C100.734 440.809 100.564 440.405 100.564 439.923C100.564 439.422 100.734 439.015 101.072 438.703C101.411 438.384 101.847 438.224 102.381 438.224C102.921 438.224 103.357 438.384 103.689 438.703C104.028 439.015 104.197 439.422 104.197 439.923C104.197 440.425 104.028 440.835 103.689 441.154C103.357 441.466 102.921 441.623 102.381 441.623ZM103.904 453H100.818V443H103.904V453ZM115.486 448.878H108.963C109.015 449.601 109.256 450.138 109.686 450.49C110.122 450.841 110.721 451.017 111.482 451.017C111.769 451.017 112.163 450.932 112.664 450.763C113.172 450.587 113.663 450.314 114.139 449.943L115.506 451.691C114.822 452.231 114.119 452.625 113.396 452.873C112.674 453.12 111.876 453.244 111.004 453.244C109.389 453.244 108.136 452.798 107.244 451.906C106.352 451.007 105.906 449.757 105.906 448.156C105.906 446.561 106.378 445.262 107.322 444.259C108.266 443.257 109.461 442.755 110.906 442.755C112.293 442.755 113.403 443.175 114.236 444.015C115.07 444.848 115.486 446.063 115.486 447.658V448.878ZM112.625 446.984C112.625 446.209 112.479 445.659 112.186 445.333C111.899 445.001 111.466 444.835 110.887 444.835C110.392 444.835 109.962 445.028 109.598 445.412C109.24 445.796 109.021 446.32 108.943 446.984H112.625ZM109.441 441.417H107.42L109.715 438.244H112.137L114.441 441.417H112.42L110.877 439.582L109.441 441.417ZM110.838 456.828C110.402 456.828 110.04 456.697 109.754 456.437C109.474 456.177 109.334 455.861 109.334 455.49C109.334 455.099 109.477 454.78 109.764 454.533C110.05 454.292 110.408 454.171 110.838 454.171C111.274 454.171 111.629 454.295 111.902 454.542C112.182 454.79 112.322 455.106 112.322 455.49C112.322 455.874 112.182 456.193 111.902 456.447C111.629 456.701 111.274 456.828 110.838 456.828ZM126.824 453H123.748V451.476H123.699C123.322 452.062 122.876 452.505 122.361 452.804C121.854 453.097 121.281 453.244 120.643 453.244C119.484 453.244 118.615 452.892 118.035 452.189C117.456 451.486 117.166 450.434 117.166 449.035V443H120.242V448.761C120.242 449.464 120.382 449.995 120.662 450.353C120.942 450.705 121.362 450.88 121.922 450.88C122.475 450.88 122.918 450.688 123.25 450.304C123.582 449.914 123.748 449.386 123.748 448.722V443H126.824V453Z" fill="white"/>
    </a>
    <a class="motion__four" href="ho-tro-dong-hanh">
        <g filter="url(#filter0_d_590_1131)">
            <path d="M142.984 645.429H8L8 555H142.984L182 600.219L142.984 645.429Z" fill="white"/>
            <path d="M139.057 641.468H13L13 559.06H139.057L175.501 600.268L139.057 641.468Z" fill="#1D6495"/>
        </g>
        <path d="M50.7207 591H47.5566V585.296H41.7559V591H38.6016V576.996H41.7559V582.582H47.5566V576.996H50.7207V591ZM58.3965 591.244C56.7298 591.244 55.418 590.775 54.4609 589.837C53.5039 588.9 53.0286 587.634 53.0352 586.039C53.0417 584.385 53.5365 583.093 54.5195 582.162C55.5091 581.224 56.847 580.755 58.5332 580.755C60.1934 580.755 61.4954 581.221 62.4395 582.152C63.3835 583.083 63.8555 584.32 63.8555 585.863C63.8555 587.516 63.3672 588.828 62.3906 589.798C61.4206 590.762 60.0892 591.244 58.3965 591.244ZM58.4941 588.88C59.2363 588.88 59.7897 588.633 60.1543 588.138C60.5254 587.643 60.7109 586.904 60.7109 585.921C60.7109 584.99 60.5254 584.291 60.1543 583.822C59.7832 583.353 59.2233 583.119 58.4746 583.119C57.7454 583.119 57.179 583.373 56.7754 583.88C56.3717 584.382 56.1699 585.088 56.1699 586C56.1699 586.963 56.362 587.686 56.7461 588.167C57.1367 588.643 57.7194 588.88 58.4941 588.88ZM56.4336 576.4H55.0273C55.0273 575.645 55.1999 575.082 55.5449 574.71C55.8965 574.333 56.4173 574.144 57.1074 574.144C57.3418 574.144 57.5827 574.173 57.8301 574.232C58.0775 574.284 58.3314 574.369 58.5918 574.486C58.8652 574.603 59.0996 574.691 59.2949 574.75C59.4967 574.808 59.6628 574.837 59.793 574.837C60.0404 574.837 60.2227 574.776 60.3398 574.652C60.4635 574.528 60.5254 574.346 60.5254 574.105H61.9316C61.9316 574.847 61.7624 575.407 61.4238 575.785C61.0853 576.156 60.5742 576.341 59.8906 576.341C59.7018 576.341 59.4837 576.312 59.2363 576.253C58.9954 576.195 58.7253 576.11 58.4258 576C58.1133 575.876 57.8529 575.785 57.6445 575.726C57.4362 575.667 57.2767 575.638 57.166 575.638C56.9251 575.638 56.7428 575.703 56.6191 575.833C56.4954 575.957 56.4336 576.146 56.4336 576.4ZM57.0684 579.417H55.1055L57.332 576.986H59.666L61.8926 579.417H59.9297L58.4453 578.08L57.0684 579.417ZM77.6348 590.843C77.3223 590.973 76.9707 591.071 76.5801 591.136C76.196 591.208 75.8053 591.244 75.4082 591.244C74.3145 591.244 73.4909 590.98 72.9375 590.453C72.3841 589.925 72.1074 589.138 72.1074 588.089V583.275H70.4863V581H72.1074V578.578L75.1836 577.699V581H77.4297V583.275H75.1836V587.894C75.1836 588.278 75.2585 588.558 75.4082 588.734C75.5579 588.903 75.7988 588.988 76.1309 588.988C76.2936 588.988 76.4499 588.968 76.5996 588.929C76.7493 588.884 76.8926 588.828 77.0293 588.763L77.6348 590.843ZM85.4863 583.558C85.3626 583.532 85.2357 583.513 85.1055 583.5C84.9753 583.486 84.832 583.48 84.6758 583.48C83.862 583.48 83.2565 583.721 82.8594 584.203C82.4622 584.678 82.2637 585.352 82.2637 586.224V591H79.1777V581H82.2637V582.855H82.3027C82.5436 582.178 82.8822 581.67 83.3184 581.332C83.7611 580.993 84.3014 580.824 84.9395 580.824C85.0827 580.824 85.2227 580.833 85.3594 580.853C85.5026 580.873 85.6491 580.899 85.7988 580.931L85.4863 583.558ZM96.0332 582.24C96.4824 582.702 96.8177 583.236 97.0391 583.841C97.2604 584.44 97.3711 585.114 97.3711 585.863C97.3711 587.523 96.8828 588.835 95.9062 589.798C94.9362 590.762 93.6048 591.244 91.9121 591.244C90.2454 591.244 88.9336 590.778 87.9766 589.847C87.026 588.91 86.5508 587.64 86.5508 586.039C86.5508 584.385 87.0456 583.093 88.0352 582.162C89.0247 581.224 90.3626 580.755 92.0488 580.755C92.2702 580.755 92.5046 580.768 92.752 580.794C93.0059 580.814 93.2695 580.85 93.543 580.902C93.7318 580.934 93.9141 580.96 94.0898 580.98C94.2721 580.993 94.4479 581 94.6172 581C95.1966 581 95.6296 580.886 95.916 580.658C96.2025 580.423 96.3457 580.078 96.3457 579.623C96.3457 579.46 96.3294 579.287 96.2969 579.105C96.2708 578.923 96.2285 578.734 96.1699 578.539H98.0449C98.123 578.76 98.1784 578.978 98.2109 579.193C98.25 579.408 98.2695 579.616 98.2695 579.818C98.2695 580.554 98.084 581.123 97.7129 581.527C97.3418 581.931 96.7819 582.168 96.0332 582.24ZM91.9902 583.119C91.2611 583.119 90.6947 583.369 90.291 583.871C89.8874 584.372 89.6855 585.082 89.6855 586C89.6855 586.957 89.8776 587.676 90.2617 588.158C90.6523 588.639 91.235 588.88 92.0098 588.88C92.752 588.88 93.3053 588.633 93.6699 588.138C94.041 587.643 94.2266 586.904 94.2266 585.921C94.2266 584.984 94.041 584.284 93.6699 583.822C93.2988 583.353 92.7389 583.119 91.9902 583.119ZM91.9219 594.828C91.4857 594.828 91.1243 594.697 90.8379 594.437C90.5579 594.177 90.418 593.861 90.418 593.49C90.418 593.099 90.5612 592.78 90.8477 592.533C91.1341 592.292 91.4922 592.171 91.9219 592.171C92.3581 592.171 92.7129 592.295 92.9863 592.542C93.2663 592.79 93.4062 593.106 93.4062 593.49C93.4062 593.874 93.2663 594.193 92.9863 594.447C92.7129 594.701 92.3581 594.828 91.9219 594.828ZM117.059 591L115.486 589.525C114.712 590.124 113.943 590.557 113.182 590.824C112.42 591.091 111.551 591.224 110.574 591.224C109.044 591.224 107.781 590.86 106.785 590.13C105.789 589.401 105.291 588.337 105.291 586.937C105.291 585.954 105.574 585.16 106.141 584.554C106.714 583.942 107.492 583.399 108.475 582.923C107.947 582.376 107.563 581.878 107.322 581.429C107.088 580.98 106.971 580.495 106.971 579.974C106.971 578.939 107.368 578.145 108.162 577.591C108.956 577.038 109.975 576.761 111.219 576.761C112.417 576.761 113.39 577.044 114.139 577.611C114.894 578.177 115.271 578.91 115.271 579.808C115.271 580.492 115.079 581.094 114.695 581.615C114.311 582.129 113.536 582.66 112.371 583.207L115.662 586.195C116.137 585.602 116.456 585.007 116.619 584.408C116.782 583.802 116.863 583.135 116.863 582.406H119.598C119.598 583.395 119.432 584.317 119.1 585.169C118.774 586.022 118.208 586.888 117.4 587.767L120.965 591H117.059ZM110.887 581.859C111.434 581.625 111.844 581.377 112.117 581.117C112.397 580.85 112.537 580.485 112.537 580.023C112.537 579.639 112.404 579.343 112.137 579.134C111.87 578.926 111.564 578.822 111.219 578.822C110.783 578.822 110.428 578.945 110.154 579.193C109.881 579.434 109.744 579.727 109.744 580.072C109.744 580.365 109.835 580.645 110.018 580.912C110.2 581.172 110.49 581.488 110.887 581.859ZM113.777 587.923L110.018 584.398C109.581 584.645 109.204 584.958 108.885 585.335C108.572 585.707 108.416 586.198 108.416 586.81C108.416 587.442 108.631 587.946 109.061 588.324C109.49 588.701 110.047 588.89 110.73 588.89C111.31 588.89 111.837 588.819 112.312 588.675C112.788 588.532 113.276 588.281 113.777 587.923ZM38.6016 618V612.277H37V609.679H38.6016V603.996H43.5625C46.0495 603.996 47.9147 604.565 49.1582 605.705C50.4017 606.837 51.0234 608.543 51.0234 610.822C51.0234 613.003 50.3431 614.744 48.9824 616.046C47.6283 617.348 45.8216 618 43.5625 618H38.6016ZM41.7559 606.564V609.679H44.4023V612.277H41.7559V615.441H43.3184C44.6855 615.441 45.7565 615.031 46.5312 614.21C47.3125 613.39 47.7031 612.274 47.7031 610.861C47.7031 609.526 47.3158 608.478 46.541 607.716C45.7728 606.948 44.6921 606.564 43.2988 606.564H41.7559ZM57.8105 618.244C56.1439 618.244 54.832 617.775 53.875 616.837C52.918 615.9 52.4427 614.634 52.4492 613.039C52.4557 611.385 52.9505 610.093 53.9336 609.162C54.9232 608.224 56.2611 607.755 57.9473 607.755C59.6074 607.755 60.9095 608.221 61.8535 609.152C62.7975 610.083 63.2695 611.32 63.2695 612.863C63.2695 614.516 62.7812 615.828 61.8047 616.798C60.8346 617.762 59.5033 618.244 57.8105 618.244ZM57.9082 615.88C58.6504 615.88 59.2038 615.633 59.5684 615.138C59.9395 614.643 60.125 613.904 60.125 612.921C60.125 611.99 59.9395 611.291 59.5684 610.822C59.1973 610.353 58.6374 610.119 57.8887 610.119C57.1595 610.119 56.5931 610.373 56.1895 610.88C55.7858 611.382 55.584 612.088 55.584 613C55.584 613.963 55.776 614.686 56.1602 615.167C56.5508 615.643 57.1335 615.88 57.9082 615.88ZM54.4121 606.417L56.6387 603.976H58.9727L61.1992 606.417H59.2363L57.8594 605.07L56.375 606.417H54.4121ZM53.3965 604.933L50.8184 602.531H53.5527L55.3203 604.933H53.3965ZM74.9297 618H71.8535V612.443C71.8535 611.668 71.7135 611.089 71.4336 610.705C71.1602 610.314 70.7467 610.119 70.1934 610.119C69.6595 610.119 69.2201 610.324 68.875 610.734C68.5299 611.144 68.3574 611.665 68.3574 612.296V618H65.2715V608H68.3574V609.582H68.3965C68.7676 608.97 69.2201 608.514 69.7539 608.214C70.2878 607.908 70.9062 607.755 71.6094 607.755C72.7161 607.755 73.5462 608.1 74.0996 608.791C74.653 609.474 74.9297 610.503 74.9297 611.876V618ZM87.1855 616.857C87.1855 618.504 86.6647 619.888 85.623 621.007C84.5879 622.134 83.0677 622.697 81.0625 622.697C80.3594 622.697 79.7051 622.635 79.0996 622.511C78.5007 622.388 77.8789 622.189 77.2344 621.916L78.123 619.826C78.6178 620.034 79.0964 620.184 79.5586 620.275C80.0208 620.373 80.5449 620.421 81.1309 620.421C82.0944 620.421 82.8301 620.138 83.3379 619.572C83.8457 619.012 84.0996 618.273 84.0996 617.355V616.564H84.0605C83.709 617.124 83.2728 617.544 82.752 617.824C82.2311 618.104 81.6289 618.244 80.9453 618.244C79.6628 618.244 78.6471 617.794 77.8984 616.896C77.1562 615.991 76.7852 614.79 76.7852 613.292C76.7852 611.593 77.2018 610.246 78.0352 609.25C78.8685 608.253 79.9655 607.755 81.3262 607.755C81.9316 607.755 82.4622 607.873 82.918 608.107C83.3802 608.341 83.7611 608.693 84.0605 609.162H84.0996V608H87.1855V616.857ZM84.1387 613.195V612.404C84.1387 611.772 83.9499 611.235 83.5723 610.792C83.2012 610.343 82.7161 610.119 82.1172 610.119C81.4336 610.119 80.8965 610.386 80.5059 610.919C80.1152 611.453 79.9199 612.205 79.9199 613.175C79.9199 614.009 80.1055 614.669 80.4766 615.158C80.8477 615.639 81.3555 615.88 82 615.88C82.6445 615.88 83.1621 615.636 83.5527 615.148C83.9434 614.653 84.1387 614.002 84.1387 613.195ZM104.891 618H101.814V612.316C101.814 611.58 101.681 611.03 101.414 610.666C101.147 610.301 100.747 610.119 100.213 610.119C99.666 610.119 99.2233 610.324 98.8848 610.734C98.5462 611.144 98.377 611.665 98.377 612.296V618H95.291V603.195H98.377V609.484H98.416C98.7936 608.904 99.2396 608.472 99.7539 608.185C100.268 607.899 100.848 607.755 101.492 607.755C102.625 607.755 103.475 608.097 104.041 608.781C104.607 609.464 104.891 610.49 104.891 611.857V618ZM115.662 618H112.742V616.564H112.703C112.371 617.124 111.954 617.544 111.453 617.824C110.958 618.104 110.395 618.244 109.764 618.244C108.898 618.244 108.152 617.98 107.527 617.453C106.909 616.919 106.6 616.173 106.6 615.216C106.6 614.292 106.906 613.537 107.518 612.951C108.136 612.365 109.1 611.984 110.408 611.808L112.762 611.496V611.3C112.762 610.825 112.609 610.467 112.303 610.226C111.997 609.979 111.574 609.855 111.033 609.855C110.623 609.855 110.164 609.923 109.656 610.06C109.155 610.197 108.644 610.415 108.123 610.714L107.078 608.888C107.762 608.491 108.439 608.205 109.109 608.029C109.786 607.847 110.522 607.755 111.316 607.755C112.807 607.755 113.904 608.11 114.607 608.82C115.311 609.529 115.662 610.597 115.662 612.023V618ZM112.762 613.937V613.263L110.945 613.498C110.444 613.563 110.066 613.716 109.812 613.957C109.565 614.191 109.441 614.49 109.441 614.855C109.441 615.207 109.562 615.496 109.803 615.724C110.05 615.945 110.382 616.056 110.799 616.056C111.378 616.056 111.85 615.858 112.215 615.46C112.579 615.057 112.762 614.549 112.762 613.937ZM113.641 606.417H111.424L108.357 603.263H111.102L113.641 606.417ZM127.762 618H124.686V612.443C124.686 611.668 124.546 611.089 124.266 610.705C123.992 610.314 123.579 610.119 123.025 610.119C122.492 610.119 122.052 610.324 121.707 610.734C121.362 611.144 121.189 611.665 121.189 612.296V618H118.104V608H121.189V609.582H121.229C121.6 608.97 122.052 608.514 122.586 608.214C123.12 607.908 123.738 607.755 124.441 607.755C125.548 607.755 126.378 608.1 126.932 608.791C127.485 609.474 127.762 610.503 127.762 611.876V618ZM139.812 618H136.736V612.316C136.736 611.58 136.603 611.03 136.336 610.666C136.069 610.301 135.669 610.119 135.135 610.119C134.588 610.119 134.145 610.324 133.807 610.734C133.468 611.144 133.299 611.665 133.299 612.296V618H130.213V603.195H133.299V609.484H133.338C133.715 608.904 134.161 608.472 134.676 608.185C135.19 607.899 135.77 607.755 136.414 607.755C137.547 607.755 138.396 608.097 138.963 608.781C139.529 609.464 139.812 610.49 139.812 611.857V618Z" fill="white"/>
    </a>
    <path d="M81 0.332845C75.109 0.332844 70.3333 5.10847 70.3333 10.9995C70.3333 16.8905 75.109 21.6662 81 21.6662C86.891 21.6662 91.6667 16.8905 91.6667 10.9995C91.6667 5.10847 86.891 0.332845 81 0.332845ZM79.5858 47.4137C80.3668 48.1948 81.6332 48.1948 82.4142 47.4137L95.1421 34.6858C95.9232 33.9048 95.9232 32.6384 95.1421 31.8574C94.3611 31.0763 93.0948 31.0763 92.3137 31.8574L81 43.1711L69.6863 31.8574C68.9052 31.0763 67.6389 31.0763 66.8579 31.8574C66.0768 32.6384 66.0768 33.9048 66.8579 34.6858L79.5858 47.4137ZM79 10.9995L79 45.9995L83 45.9995L83 10.9995L79 10.9995Z" fill="#E65925"/>
    <path d="M81 162.333C75.109 162.333 70.3333 167.108 70.3333 173C70.3333 178.891 75.109 183.666 81 183.666C86.891 183.666 91.6667 178.891 91.6667 173C91.6667 167.108 86.891 162.333 81 162.333ZM79.5858 209.414C80.3668 210.195 81.6332 210.195 82.4142 209.414L95.1421 196.686C95.9232 195.905 95.9232 194.638 95.1421 193.857C94.3611 193.076 93.0948 193.076 92.3137 193.857L81 205.171L69.6863 193.857C68.9052 193.076 67.6389 193.076 66.8579 193.857C66.0768 194.638 66.0768 195.905 66.8579 196.686L79.5858 209.414ZM79 173L79 208L83 208L83 173L79 173Z" fill="#01CC9B"/>
    <path d="M81 328.333C75.109 328.333 70.3333 333.108 70.3333 339C70.3333 344.891 75.109 349.666 81 349.666C86.891 349.666 91.6667 344.891 91.6667 339C91.6667 333.108 86.891 328.333 81 328.333ZM79.5858 375.414C80.3668 376.195 81.6332 376.195 82.4142 375.414L95.1421 362.686C95.9232 361.905 95.9232 360.638 95.1421 359.857C94.3611 359.076 93.0948 359.076 92.3137 359.857L81 371.171L69.6863 359.857C68.9052 359.076 67.6389 359.076 66.8579 359.857C66.0768 360.638 66.0768 361.905 66.8579 362.686L79.5858 375.414ZM79 339L79 374L83 374L83 339L79 339Z" fill="#67AC2F"/>
    <path d="M81 494.333C75.109 494.333 70.3333 499.108 70.3333 505C70.3333 510.891 75.109 515.666 81 515.666C86.891 515.666 91.6667 510.891 91.6667 505C91.6667 499.108 86.891 494.333 81 494.333ZM79.5858 541.414C80.3668 542.195 81.6332 542.195 82.4142 541.414L95.1421 528.686C95.9232 527.905 95.9232 526.638 95.1421 525.857C94.3611 525.076 93.0948 525.076 92.3137 525.857L81 537.171L69.6863 525.857C68.9052 525.076 67.6389 525.076 66.8579 525.857C66.0768 526.638 66.0768 527.905 66.8579 528.686L79.5858 541.414ZM79 505L79 540L83 540L83 505L79 505Z" fill="#1D6495"/>
    <defs>
        <filter id="filter0_d_590_1131" x="0" y="551" width="190" height="106.429" filterUnits="userSpaceOnUse" color-interpolation-filters="sRGB">
            <feFlood flood-opacity="0" result="BackgroundImageFix"/>
            <feColorMatrix in="SourceAlpha" type="matrix" values="0 0 0 0 0 0 0 0 0 0 0 0 0 0 0 0 0 0 127 0" result="hardAlpha"/>
            <feOffset dy="4"/>
            <feGaussianBlur stdDeviation="4"/>
            <feComposite in2="hardAlpha" operator="out"/>
            <feColorMatrix type="matrix" values="0 0 0 0 0 0 0 0 0 0 0 0 0 0 0 0 0 0 0.25 0"/>
            <feBlend mode="normal" in2="BackgroundImageFix" result="effect1_dropShadow_590_1131"/>
            <feBlend mode="normal" in="SourceGraphic" in2="effect1_dropShadow_590_1131" result="shape"/>
        </filter>
        <filter id="filter1_d_590_1131" x="0" y="53.0493" width="190" height="106.429" filterUnits="userSpaceOnUse" color-interpolation-filters="sRGB">
            <feFlood flood-opacity="0" result="BackgroundImageFix"/>
            <feColorMatrix in="SourceAlpha" type="matrix" values="0 0 0 0 0 0 0 0 0 0 0 0 0 0 0 0 0 0 127 0" result="hardAlpha"/>
            <feOffset dy="4"/>
            <feGaussianBlur stdDeviation="4"/>
            <feComposite in2="hardAlpha" operator="out"/>
            <feColorMatrix type="matrix" values="0 0 0 0 0 0 0 0 0 0 0 0 0 0 0 0 0 0 0.25 0"/>
            <feBlend mode="normal" in2="BackgroundImageFix" result="effect1_dropShadow_590_1131"/>
            <feBlend mode="normal" in="SourceGraphic" in2="effect1_dropShadow_590_1131" result="shape"/>
        </filter>
        <filter id="filter2_d_590_1131" x="0" y="219" width="190" height="106.429" filterUnits="userSpaceOnUse" color-interpolation-filters="sRGB">
            <feFlood flood-opacity="0" result="BackgroundImageFix"/>
            <feColorMatrix in="SourceAlpha" type="matrix" values="0 0 0 0 0 0 0 0 0 0 0 0 0 0 0 0 0 0 127 0" result="hardAlpha"/>
            <feOffset dy="4"/>
            <feGaussianBlur stdDeviation="4"/>
            <feComposite in2="hardAlpha" operator="out"/>
            <feColorMatrix type="matrix" values="0 0 0 0 0 0 0 0 0 0 0 0 0 0 0 0 0 0 0.25 0"/>
            <feBlend mode="normal" in2="BackgroundImageFix" result="effect1_dropShadow_590_1131"/>
            <feBlend mode="normal" in="SourceGraphic" in2="effect1_dropShadow_590_1131" result="shape"/>
        </filter>
        <filter id="filter3_d_590_1131" x="0" y="385" width="190" height="106.429" filterUnits="userSpaceOnUse" color-interpolation-filters="sRGB">
            <feFlood flood-opacity="0" result="BackgroundImageFix"/>
            <feColorMatrix in="SourceAlpha" type="matrix" values="0 0 0 0 0 0 0 0 0 0 0 0 0 0 0 0 0 0 127 0" result="hardAlpha"/>
            <feOffset dy="4"/>
            <feGaussianBlur stdDeviation="4"/>
            <feComposite in2="hardAlpha" operator="out"/>
            <feColorMatrix type="matrix" values="0 0 0 0 0 0 0 0 0 0 0 0 0 0 0 0 0 0 0.25 0"/>
            <feBlend mode="normal" in2="BackgroundImageFix" result="effect1_dropShadow_590_1131"/>
            <feBlend mode="normal" in="SourceGraphic" in2="effect1_dropShadow_590_1131" result="shape"/>
        </filter>
    </defs>
</svg>