<svg viewBox="0 0 253 658" fill="none" xmlns="http://www.w3.org/2000/svg">
    <style> 
    
    .motion__once:hover g path{
        fill: #fff;
    }

    .motion__once:hover path{
        fill:#E65925;
    }

    .motion__twice:hover g path{
        fill: #fff;
    }

    .motion__twice:hover path{
        fill: #01CC9B;
    }

    .motion__three:hover g path{
        fill: #fff;
    }

    .motion__three:hover path{
        fill: #67AC2F;
    }

    .motion__four:hover g path{
        fill: #fff;
    }

    .motion__four:hover path{
        fill:#1d6495;
    }

    </style>
    <a class="motion__once" href="/sang-loc-theo-doi/">
        <g filter="url(#filter0_d_613_591)">
            <path d="M191.858 147.479L7.99988 147.479L7.99988 57.0498L191.858 57.0498L245 102.269L191.858 147.479Z" fill="white"/>
            <path d="M186.508 143.468H14.8104L14.8104 61.0605L186.508 61.0605L236.136 102.269L186.508 143.468Z" fill="#E65925"/>
        </g>
        <path d="M62.3787 125H51.6121V87.6079C50.3588 88.451 48.9688 89.1688 47.4421 89.7612C45.9382 90.3537 44.2862 90.9347 42.4861 91.5044L39.5466 82.8911C42.6684 81.9797 45.6192 80.8403 48.3992 79.4731C51.1791 78.106 53.6628 76.5793 55.8503 74.8931H62.3787V125Z" fill="white"/>
        <path d="M82.459 92.0723L83.7676 89.6211C84.4707 90.0378 85.0794 90.321 85.5938 90.4707C86.1146 90.6139 86.6615 90.6855 87.2344 90.6855C87.9896 90.6855 88.5462 90.5423 88.9043 90.2559C89.2624 89.9629 89.4414 89.5658 89.4414 89.0645C89.4414 88.5827 89.2982 88.2148 89.0117 87.9609C88.7253 87.7005 88.1979 87.4824 87.4297 87.3066C85.8672 86.9486 84.7311 86.4408 84.0215 85.7832C83.3118 85.1257 82.957 84.2077 82.957 83.0293C82.957 81.8444 83.416 80.8385 84.334 80.0117C85.252 79.1784 86.5378 78.7617 88.1914 78.7617C88.8815 78.7617 89.5586 78.8398 90.2227 78.9961C90.8867 79.1523 91.5182 79.3802 92.1172 79.6797L90.9355 82.1699C90.3952 81.8639 89.8874 81.6458 89.4121 81.5156C88.9368 81.3854 88.4941 81.3203 88.084 81.3203C87.4525 81.3203 86.9609 81.444 86.6094 81.6914C86.2578 81.9388 86.082 82.2936 86.082 82.7559C86.082 83.179 86.2415 83.5046 86.5605 83.7324C86.8861 83.9603 87.4655 84.1686 88.2988 84.3574C89.8158 84.7025 90.9128 85.2168 91.5898 85.9004C92.2669 86.584 92.6055 87.5475 92.6055 88.791C92.6055 90.1191 92.1367 91.1934 91.1992 92.0137C90.2682 92.834 88.9141 93.2441 87.1367 93.2441C86.362 93.2441 85.5514 93.1432 84.7051 92.9414C83.8587 92.7331 83.11 92.4434 82.459 92.0723ZM102.83 93H99.9102V91.5645H99.8711C99.5391 92.1243 99.1224 92.5443 98.6211 92.8242C98.1263 93.1042 97.5632 93.2441 96.9316 93.2441C96.0658 93.2441 95.3203 92.9805 94.6953 92.4531C94.0768 91.9193 93.7676 91.1738 93.7676 90.2168C93.7676 89.2923 94.0736 88.5371 94.6855 87.9512C95.304 87.3652 96.2676 86.9844 97.5762 86.8086L99.9297 86.4961V86.3008C99.9297 85.8255 99.7767 85.4674 99.4707 85.2266C99.1647 84.9792 98.7415 84.8555 98.2012 84.8555C97.791 84.8555 97.332 84.9238 96.8242 85.0605C96.3229 85.1973 95.8118 85.4154 95.291 85.7148L94.2461 83.8887C94.9297 83.4915 95.6068 83.2051 96.2773 83.0293C96.9544 82.847 97.6901 82.7559 98.4844 82.7559C99.9753 82.7559 101.072 83.1107 101.775 83.8203C102.479 84.5299 102.83 85.5977 102.83 87.0234V93ZM99.9297 88.9375V88.2637L98.1133 88.498C97.612 88.5632 97.2344 88.7161 96.9805 88.957C96.7331 89.1914 96.6094 89.4909 96.6094 89.8555C96.6094 90.207 96.7298 90.4967 96.9707 90.7246C97.2181 90.946 97.5501 91.0566 97.9668 91.0566C98.5462 91.0566 99.0182 90.8581 99.3828 90.4609C99.7474 90.0573 99.9297 89.5495 99.9297 88.9375ZM100.809 81.418H98.5918L95.5254 78.2637H98.2695L100.809 81.418ZM114.93 93H111.854V87.4434C111.854 86.6686 111.714 86.0892 111.434 85.7051C111.16 85.3145 110.747 85.1191 110.193 85.1191C109.66 85.1191 109.22 85.3242 108.875 85.7344C108.53 86.1445 108.357 86.6654 108.357 87.2969V93H105.271V83H108.357V84.582H108.396C108.768 83.9701 109.22 83.5143 109.754 83.2148C110.288 82.9089 110.906 82.7559 111.609 82.7559C112.716 82.7559 113.546 83.1009 114.1 83.791C114.653 84.4746 114.93 85.5033 114.93 86.877V93ZM127.186 91.8574C127.186 93.5046 126.665 94.888 125.623 96.0078C124.588 97.1341 123.068 97.6973 121.062 97.6973C120.359 97.6973 119.705 97.6354 119.1 97.5117C118.501 97.388 117.879 97.1895 117.234 96.916L118.123 94.8262C118.618 95.0345 119.096 95.1842 119.559 95.2754C120.021 95.373 120.545 95.4219 121.131 95.4219C122.094 95.4219 122.83 95.1387 123.338 94.5723C123.846 94.0124 124.1 93.2734 124.1 92.3555V91.5645H124.061C123.709 92.1243 123.273 92.5443 122.752 92.8242C122.231 93.1042 121.629 93.2441 120.945 93.2441C119.663 93.2441 118.647 92.7949 117.898 91.8965C117.156 90.9915 116.785 89.7904 116.785 88.293C116.785 86.5938 117.202 85.2461 118.035 84.25C118.868 83.2539 119.965 82.7559 121.326 82.7559C121.932 82.7559 122.462 82.873 122.918 83.1074C123.38 83.3418 123.761 83.6934 124.061 84.1621H124.1V83H127.186V91.8574ZM124.139 88.1953V87.4043C124.139 86.7728 123.95 86.2357 123.572 85.793C123.201 85.3438 122.716 85.1191 122.117 85.1191C121.434 85.1191 120.896 85.3861 120.506 85.9199C120.115 86.4538 119.92 87.2057 119.92 88.1758C119.92 89.0091 120.105 89.6699 120.477 90.1582C120.848 90.64 121.355 90.8809 122 90.8809C122.645 90.8809 123.162 90.6367 123.553 90.1484C123.943 89.6536 124.139 89.0026 124.139 88.1953ZM135.291 93V78.1953H138.377V93H135.291ZM145.74 93.2441C144.074 93.2441 142.762 92.7754 141.805 91.8379C140.848 90.9004 140.372 89.6341 140.379 88.0391C140.385 86.3854 140.88 85.0931 141.863 84.1621C142.853 83.2246 144.191 82.7559 145.877 82.7559C147.537 82.7559 148.839 83.2214 149.783 84.1523C150.727 85.0833 151.199 86.3203 151.199 87.8633C151.199 89.5169 150.711 90.8288 149.734 91.7988C148.764 92.7624 147.433 93.2441 145.74 93.2441ZM145.838 90.8809C146.58 90.8809 147.133 90.6335 147.498 90.1387C147.869 89.6439 148.055 88.9049 148.055 87.9219C148.055 86.9909 147.869 86.291 147.498 85.8223C147.127 85.3535 146.567 85.1191 145.818 85.1191C145.089 85.1191 144.523 85.373 144.119 85.8809C143.715 86.3822 143.514 87.0885 143.514 88C143.514 88.9635 143.706 89.6862 144.09 90.168C144.48 90.6432 145.063 90.8809 145.838 90.8809ZM145.789 96.8281C145.353 96.8281 144.992 96.6979 144.705 96.4375C144.425 96.1771 144.285 95.8613 144.285 95.4902C144.285 95.0996 144.428 94.7806 144.715 94.5332C145.001 94.2923 145.359 94.1719 145.789 94.1719C146.225 94.1719 146.58 94.2956 146.854 94.543C147.133 94.7904 147.273 95.1061 147.273 95.4902C147.273 95.8743 147.133 96.1934 146.854 96.4473C146.58 96.7012 146.225 96.8281 145.789 96.8281ZM161.238 92.375C160.711 92.6745 160.187 92.8926 159.666 93.0293C159.152 93.1725 158.589 93.2441 157.977 93.2441C156.284 93.2441 154.965 92.7786 154.021 91.8477C153.077 90.9167 152.605 89.7155 152.605 88.2441C152.605 86.5449 153.107 85.207 154.109 84.2305C155.118 83.2474 156.453 82.7559 158.113 82.7559C158.745 82.7559 159.295 82.8177 159.764 82.9414C160.232 83.0586 160.708 83.2507 161.189 83.5176L160.047 85.5879C159.747 85.4251 159.454 85.3079 159.168 85.2363C158.888 85.1582 158.579 85.1191 158.24 85.1191C157.459 85.1191 156.847 85.373 156.404 85.8809C155.962 86.3887 155.74 87.1081 155.74 88.0391C155.74 88.931 155.988 89.6276 156.482 90.1289C156.977 90.6302 157.576 90.8809 158.279 90.8809C158.468 90.8809 158.725 90.8385 159.051 90.7539C159.383 90.6628 159.718 90.5195 160.057 90.3242L161.238 92.375ZM95.0859 120L93.5137 118.525C92.7389 119.124 91.9707 119.557 91.209 119.824C90.4473 120.091 89.5781 120.225 88.6016 120.225C87.0716 120.225 85.8086 119.86 84.8125 119.131C83.8164 118.402 83.3184 117.337 83.3184 115.938C83.3184 114.954 83.6016 114.16 84.168 113.555C84.7409 112.943 85.5189 112.399 86.502 111.924C85.9746 111.377 85.5905 110.879 85.3496 110.43C85.1152 109.98 84.998 109.495 84.998 108.975C84.998 107.939 85.3952 107.145 86.1895 106.592C86.9837 106.038 88.0026 105.762 89.2461 105.762C90.444 105.762 91.4173 106.045 92.166 106.611C92.9212 107.178 93.2988 107.91 93.2988 108.809C93.2988 109.492 93.1068 110.094 92.7227 110.615C92.3385 111.13 91.5638 111.66 90.3984 112.207L93.6895 115.195C94.1647 114.603 94.4837 114.007 94.6465 113.408C94.8092 112.803 94.8906 112.135 94.8906 111.406H97.625C97.625 112.396 97.459 113.317 97.127 114.17C96.8014 115.023 96.235 115.889 95.4277 116.768L98.9922 120H95.0859ZM88.9141 110.859C89.4609 110.625 89.8711 110.378 90.1445 110.117C90.4245 109.85 90.5645 109.486 90.5645 109.023C90.5645 108.639 90.431 108.343 90.1641 108.135C89.8971 107.926 89.5911 107.822 89.2461 107.822C88.8099 107.822 88.4551 107.946 88.1816 108.193C87.9082 108.434 87.7715 108.727 87.7715 109.072C87.7715 109.365 87.8626 109.645 88.0449 109.912C88.2272 110.173 88.5169 110.488 88.9141 110.859ZM91.8047 116.924L88.0449 113.398C87.6087 113.646 87.2311 113.958 86.9121 114.336C86.5996 114.707 86.4434 115.199 86.4434 115.811C86.4434 116.442 86.6582 116.947 87.0879 117.324C87.5176 117.702 88.0742 117.891 88.7578 117.891C89.3372 117.891 89.8646 117.819 90.3398 117.676C90.8151 117.533 91.3034 117.282 91.8047 116.924ZM112.068 119.844C111.756 119.974 111.404 120.072 111.014 120.137C110.63 120.208 110.239 120.244 109.842 120.244C108.748 120.244 107.924 119.98 107.371 119.453C106.818 118.926 106.541 118.138 106.541 117.09V112.275H104.92V110H106.541V107.578L109.617 106.699V110H111.863V112.275H109.617V116.895C109.617 117.279 109.692 117.559 109.842 117.734C109.992 117.904 110.232 117.988 110.564 117.988C110.727 117.988 110.883 117.969 111.033 117.93C111.183 117.884 111.326 117.829 111.463 117.764L112.068 119.844ZM123.211 120H120.135V114.316C120.135 113.581 120.001 113.031 119.734 112.666C119.467 112.301 119.067 112.119 118.533 112.119C117.986 112.119 117.544 112.324 117.205 112.734C116.867 113.145 116.697 113.665 116.697 114.297V120H113.611V105.195H116.697V111.484H116.736C117.114 110.905 117.56 110.472 118.074 110.186C118.589 109.899 119.168 109.756 119.812 109.756C120.945 109.756 121.795 110.098 122.361 110.781C122.928 111.465 123.211 112.49 123.211 113.857V120ZM134.646 115.879H128.123C128.175 116.602 128.416 117.139 128.846 117.49C129.282 117.842 129.881 118.018 130.643 118.018C130.929 118.018 131.323 117.933 131.824 117.764C132.332 117.588 132.824 117.314 133.299 116.943L134.666 118.691C133.982 119.232 133.279 119.626 132.557 119.873C131.834 120.12 131.036 120.244 130.164 120.244C128.549 120.244 127.296 119.798 126.404 118.906C125.512 118.008 125.066 116.758 125.066 115.156C125.066 113.561 125.538 112.262 126.482 111.26C127.426 110.257 128.621 109.756 130.066 109.756C131.453 109.756 132.563 110.176 133.396 111.016C134.23 111.849 134.646 113.063 134.646 114.658V115.879ZM131.785 113.984C131.785 113.21 131.639 112.66 131.346 112.334C131.059 112.002 130.626 111.836 130.047 111.836C129.552 111.836 129.122 112.028 128.758 112.412C128.4 112.796 128.182 113.32 128.104 113.984H131.785ZM141.248 120.244C139.581 120.244 138.27 119.775 137.312 118.838C136.355 117.9 135.88 116.634 135.887 115.039C135.893 113.385 136.388 112.093 137.371 111.162C138.361 110.225 139.699 109.756 141.385 109.756C143.045 109.756 144.347 110.221 145.291 111.152C146.235 112.083 146.707 113.32 146.707 114.863C146.707 116.517 146.219 117.829 145.242 118.799C144.272 119.762 142.941 120.244 141.248 120.244ZM141.346 117.881C142.088 117.881 142.641 117.633 143.006 117.139C143.377 116.644 143.562 115.905 143.562 114.922C143.562 113.991 143.377 113.291 143.006 112.822C142.635 112.354 142.075 112.119 141.326 112.119C140.597 112.119 140.031 112.373 139.627 112.881C139.223 113.382 139.021 114.089 139.021 115C139.021 115.964 139.214 116.686 139.598 117.168C139.988 117.643 140.571 117.881 141.346 117.881ZM160.896 118.623C160.545 119.163 160.112 119.57 159.598 119.844C159.083 120.111 158.484 120.244 157.801 120.244C156.557 120.244 155.551 119.805 154.783 118.926C154.021 118.04 153.641 116.807 153.641 115.225C153.641 113.571 154.061 112.246 154.9 111.25C155.747 110.254 156.847 109.756 158.201 109.756C158.846 109.756 159.393 109.873 159.842 110.107C160.291 110.335 160.643 110.68 160.896 111.143H160.936V105.195H164.021V120H160.936V118.623H160.896ZM156.775 115.137C156.775 116.016 156.961 116.693 157.332 117.168C157.703 117.643 158.217 117.881 158.875 117.881C159.5 117.881 160.008 117.63 160.398 117.129C160.796 116.628 160.994 115.964 160.994 115.137V114.385C160.994 113.734 160.805 113.193 160.428 112.764C160.05 112.334 159.559 112.119 158.953 112.119C158.27 112.119 157.736 112.389 157.352 112.93C156.967 113.464 156.775 114.199 156.775 115.137ZM171.385 120.244C169.718 120.244 168.406 119.775 167.449 118.838C166.492 117.9 166.017 116.634 166.023 115.039C166.03 113.385 166.525 112.093 167.508 111.162C168.497 110.225 169.835 109.756 171.521 109.756C173.182 109.756 174.484 110.221 175.428 111.152C176.372 112.083 176.844 113.32 176.844 114.863C176.844 116.517 176.355 117.829 175.379 118.799C174.409 119.762 173.077 120.244 171.385 120.244ZM171.482 117.881C172.225 117.881 172.778 117.633 173.143 117.139C173.514 116.644 173.699 115.905 173.699 114.922C173.699 113.991 173.514 113.291 173.143 112.822C172.771 112.354 172.212 112.119 171.463 112.119C170.734 112.119 170.167 112.373 169.764 112.881C169.36 113.382 169.158 114.089 169.158 115C169.158 115.964 169.35 116.686 169.734 117.168C170.125 117.643 170.708 117.881 171.482 117.881ZM174.969 105.391C174.969 106.302 174.786 107.008 174.422 107.51C174.064 108.005 173.572 108.252 172.947 108.252C172.667 108.252 172.391 108.216 172.117 108.145C171.844 108.073 171.574 107.969 171.307 107.832C171.02 107.676 170.776 107.562 170.574 107.49C170.372 107.412 170.216 107.373 170.105 107.373C169.845 107.373 169.65 107.461 169.52 107.637C169.389 107.812 169.324 108.076 169.324 108.428H167.947C167.947 107.523 168.126 106.82 168.484 106.318C168.842 105.817 169.344 105.566 169.988 105.566C170.255 105.566 170.525 105.605 170.799 105.684C171.072 105.762 171.349 105.882 171.629 106.045C171.889 106.188 172.117 106.296 172.312 106.367C172.508 106.439 172.671 106.475 172.801 106.475C173.055 106.475 173.243 106.383 173.367 106.201C173.497 106.019 173.562 105.749 173.562 105.391H174.969ZM180.408 108.623C179.874 108.623 179.438 108.46 179.1 108.135C178.761 107.809 178.592 107.406 178.592 106.924C178.592 106.423 178.761 106.016 179.1 105.703C179.438 105.384 179.874 105.225 180.408 105.225C180.949 105.225 181.385 105.384 181.717 105.703C182.055 106.016 182.225 106.423 182.225 106.924C182.225 107.425 182.055 107.835 181.717 108.154C181.385 108.467 180.949 108.623 180.408 108.623ZM181.932 120H178.846V110H181.932V120Z" fill="white"/>
    </a>
    <a class="motion__twice" href="danh-gia-chuyen-sau">
        <g filter="url(#filter1_d_613_591)">
            <path d="M191.858 313.43H7.99988L7.99988 223L191.858 223L245 268.22L191.858 313.43Z" fill="white"/>
            <path d="M186.508 309.419H14.8104L14.8104 227.011L186.508 227.011L236.136 268.219L186.508 309.419Z" fill="#01CC9B"/>
        </g>
        <path d="M40.2725 291V287.309C40.2725 284.803 40.694 282.558 41.5371 280.576C42.3802 278.57 43.4398 276.77 44.7158 275.175C45.9919 273.603 47.3818 272.213 48.8857 271.005C50.4124 269.775 51.8594 268.67 53.2266 267.69C54.6621 266.665 55.9154 265.685 56.9863 264.75C58.0801 263.816 58.9915 262.882 59.7207 261.948C60.4727 261.036 61.0537 260.079 61.4639 259.077C61.8968 258.074 62.1133 256.901 62.1133 255.556C62.1133 253.802 61.5436 252.423 60.4043 251.42C59.2878 250.418 57.7839 249.917 55.8926 249.917C54.1608 249.917 52.6341 250.486 51.3125 251.625C50.0137 252.765 48.8971 254.326 47.9629 256.308L39.2812 252.753C40.9219 249.176 43.2347 246.35 46.2197 244.277C49.2275 242.203 52.8962 241.167 57.2256 241.167C62.0335 241.167 65.8503 242.431 68.6758 244.96C71.5241 247.467 72.9482 250.839 72.9482 255.078C72.9482 257.333 72.5951 259.339 71.8887 261.093C71.2051 262.848 70.2822 264.443 69.1201 265.878C67.9808 267.314 66.6706 268.658 65.1895 269.912C63.7311 271.142 62.193 272.316 60.5752 273.432C59.5498 274.207 58.5358 274.959 57.5332 275.688C56.5534 276.394 55.6989 277.112 54.9697 277.841C54.195 278.593 53.6139 279.322 53.2266 280.029C52.862 280.735 52.6797 281.407 52.6797 282.045H72.8799V291H40.2725Z" fill="white"/>
        <path d="M89.6016 259V253.277H88V250.68H89.6016V244.996H94.5625C97.0495 244.996 98.9147 245.566 100.158 246.705C101.402 247.838 102.023 249.544 102.023 251.822C102.023 254.003 101.343 255.745 99.9824 257.047C98.6283 258.349 96.8216 259 94.5625 259H89.6016ZM92.7559 247.564V250.68H95.4023V253.277H92.7559V256.441H94.3184C95.6855 256.441 96.7565 256.031 97.5312 255.211C98.3125 254.391 98.7031 253.274 98.7031 251.861C98.7031 250.527 98.3158 249.479 97.541 248.717C96.7728 247.949 95.6921 247.564 94.2988 247.564H92.7559ZM112.365 259H109.445V257.564H109.406C109.074 258.124 108.658 258.544 108.156 258.824C107.661 259.104 107.098 259.244 106.467 259.244C105.601 259.244 104.855 258.98 104.23 258.453C103.612 257.919 103.303 257.174 103.303 256.217C103.303 255.292 103.609 254.537 104.221 253.951C104.839 253.365 105.803 252.984 107.111 252.809L109.465 252.496V252.301C109.465 251.826 109.312 251.467 109.006 251.227C108.7 250.979 108.277 250.855 107.736 250.855C107.326 250.855 106.867 250.924 106.359 251.061C105.858 251.197 105.347 251.415 104.826 251.715L103.781 249.889C104.465 249.492 105.142 249.205 105.812 249.029C106.49 248.847 107.225 248.756 108.02 248.756C109.51 248.756 110.607 249.111 111.311 249.82C112.014 250.53 112.365 251.598 112.365 253.023V259ZM109.465 254.938V254.264L107.648 254.498C107.147 254.563 106.77 254.716 106.516 254.957C106.268 255.191 106.145 255.491 106.145 255.855C106.145 256.207 106.265 256.497 106.506 256.725C106.753 256.946 107.085 257.057 107.502 257.057C108.081 257.057 108.553 256.858 108.918 256.461C109.283 256.057 109.465 255.549 109.465 254.938ZM108.146 247.418H105.92L108.459 244.264H111.203L108.146 247.418ZM124.465 259H121.389V253.443C121.389 252.669 121.249 252.089 120.969 251.705C120.695 251.314 120.282 251.119 119.729 251.119C119.195 251.119 118.755 251.324 118.41 251.734C118.065 252.145 117.893 252.665 117.893 253.297V259H114.807V249H117.893V250.582H117.932C118.303 249.97 118.755 249.514 119.289 249.215C119.823 248.909 120.441 248.756 121.145 248.756C122.251 248.756 123.081 249.101 123.635 249.791C124.188 250.475 124.465 251.503 124.465 252.877V259ZM136.516 259H133.439V253.316C133.439 252.581 133.306 252.031 133.039 251.666C132.772 251.301 132.372 251.119 131.838 251.119C131.291 251.119 130.848 251.324 130.51 251.734C130.171 252.145 130.002 252.665 130.002 253.297V259H126.916V244.195H130.002V250.484H130.041C130.419 249.905 130.865 249.472 131.379 249.186C131.893 248.899 132.473 248.756 133.117 248.756C134.25 248.756 135.1 249.098 135.666 249.781C136.232 250.465 136.516 251.49 136.516 252.857V259ZM154.299 257.857C154.299 259.505 153.778 260.888 152.736 262.008C151.701 263.134 150.181 263.697 148.176 263.697C147.473 263.697 146.818 263.635 146.213 263.512C145.614 263.388 144.992 263.189 144.348 262.916L145.236 260.826C145.731 261.035 146.21 261.184 146.672 261.275C147.134 261.373 147.658 261.422 148.244 261.422C149.208 261.422 149.943 261.139 150.451 260.572C150.959 260.012 151.213 259.273 151.213 258.355V257.564H151.174C150.822 258.124 150.386 258.544 149.865 258.824C149.344 259.104 148.742 259.244 148.059 259.244C146.776 259.244 145.76 258.795 145.012 257.896C144.27 256.992 143.898 255.79 143.898 254.293C143.898 252.594 144.315 251.246 145.148 250.25C145.982 249.254 147.079 248.756 148.439 248.756C149.045 248.756 149.576 248.873 150.031 249.107C150.493 249.342 150.874 249.693 151.174 250.162H151.213V249H154.299V257.857ZM151.252 254.195V253.404C151.252 252.773 151.063 252.236 150.686 251.793C150.314 251.344 149.829 251.119 149.23 251.119C148.547 251.119 148.01 251.386 147.619 251.92C147.229 252.454 147.033 253.206 147.033 254.176C147.033 255.009 147.219 255.67 147.59 256.158C147.961 256.64 148.469 256.881 149.113 256.881C149.758 256.881 150.275 256.637 150.666 256.148C151.057 255.654 151.252 255.003 151.252 254.195ZM158.439 247.623C157.906 247.623 157.469 247.46 157.131 247.135C156.792 246.809 156.623 246.406 156.623 245.924C156.623 245.423 156.792 245.016 157.131 244.703C157.469 244.384 157.906 244.225 158.439 244.225C158.98 244.225 159.416 244.384 159.748 244.703C160.087 245.016 160.256 245.423 160.256 245.924C160.256 246.425 160.087 246.835 159.748 247.154C159.416 247.467 158.98 247.623 158.439 247.623ZM159.963 259H156.877V249H159.963V259ZM170.881 259H167.961V257.564H167.922C167.59 258.124 167.173 258.544 166.672 258.824C166.177 259.104 165.614 259.244 164.982 259.244C164.117 259.244 163.371 258.98 162.746 258.453C162.128 257.919 161.818 257.174 161.818 256.217C161.818 255.292 162.124 254.537 162.736 253.951C163.355 253.365 164.318 252.984 165.627 252.809L167.98 252.496V252.301C167.98 251.826 167.827 251.467 167.521 251.227C167.215 250.979 166.792 250.855 166.252 250.855C165.842 250.855 165.383 250.924 164.875 251.061C164.374 251.197 163.863 251.415 163.342 251.715L162.297 249.889C162.98 249.492 163.658 249.205 164.328 249.029C165.005 248.847 165.741 248.756 166.535 248.756C168.026 248.756 169.123 249.111 169.826 249.82C170.529 250.53 170.881 251.598 170.881 253.023V259ZM167.98 254.938V254.264L166.164 254.498C165.663 254.563 165.285 254.716 165.031 254.957C164.784 255.191 164.66 255.491 164.66 255.855C164.66 256.207 164.781 256.497 165.021 256.725C165.269 256.946 165.601 257.057 166.018 257.057C166.597 257.057 167.069 256.858 167.434 256.461C167.798 256.057 167.98 255.549 167.98 254.938ZM166.662 247.418H164.436L166.975 244.264H169.719L166.662 247.418ZM97.3359 285.375C96.8086 285.674 96.2845 285.893 95.7637 286.029C95.2493 286.173 94.6862 286.244 94.0742 286.244C92.3815 286.244 91.0632 285.779 90.1191 284.848C89.1751 283.917 88.7031 282.715 88.7031 281.244C88.7031 279.545 89.2044 278.207 90.207 277.23C91.2161 276.247 92.5508 275.756 94.2109 275.756C94.8424 275.756 95.3926 275.818 95.8613 275.941C96.3301 276.059 96.8053 276.251 97.2871 276.518L96.1445 278.588C95.8451 278.425 95.5521 278.308 95.2656 278.236C94.9857 278.158 94.6764 278.119 94.3379 278.119C93.5566 278.119 92.9447 278.373 92.502 278.881C92.0592 279.389 91.8379 280.108 91.8379 281.039C91.8379 281.931 92.0853 282.628 92.5801 283.129C93.0749 283.63 93.6738 283.881 94.377 283.881C94.5658 283.881 94.8229 283.839 95.1484 283.754C95.4805 283.663 95.8158 283.52 96.1543 283.324L97.3359 285.375ZM108.508 286H105.432V280.316C105.432 279.581 105.298 279.031 105.031 278.666C104.764 278.301 104.364 278.119 103.83 278.119C103.283 278.119 102.84 278.324 102.502 278.734C102.163 279.145 101.994 279.665 101.994 280.297V286H98.9082V271.195H101.994V277.484H102.033C102.411 276.905 102.857 276.472 103.371 276.186C103.885 275.899 104.465 275.756 105.109 275.756C106.242 275.756 107.092 276.098 107.658 276.781C108.225 277.465 108.508 278.49 108.508 279.857V286ZM120.461 286H117.385V284.477H117.336C116.958 285.062 116.512 285.505 115.998 285.805C115.49 286.098 114.917 286.244 114.279 286.244C113.12 286.244 112.251 285.893 111.672 285.189C111.092 284.486 110.803 283.435 110.803 282.035V276H113.879V281.762C113.879 282.465 114.019 282.995 114.299 283.354C114.579 283.705 114.999 283.881 115.559 283.881C116.112 283.881 116.555 283.689 116.887 283.305C117.219 282.914 117.385 282.387 117.385 281.723V276H120.461V286ZM132.59 276L128.117 287.855C127.779 288.747 127.268 289.444 126.584 289.945C125.9 290.447 125.077 290.697 124.113 290.697C123.801 290.697 123.501 290.681 123.215 290.648C122.928 290.616 122.648 290.567 122.375 290.502L122.883 288.236C123.033 288.288 123.179 288.324 123.322 288.344C123.465 288.37 123.625 288.383 123.801 288.383C124.107 288.383 124.374 288.308 124.602 288.158C124.836 288.008 125.025 287.771 125.168 287.445L125.793 285.98L121.73 276H125.148L127.014 282.084C127.072 282.273 127.124 282.478 127.17 282.699C127.215 282.921 127.255 283.161 127.287 283.422H127.326C127.359 283.227 127.401 283.021 127.453 282.807C127.505 282.592 127.57 282.357 127.648 282.104L129.533 276H132.59ZM142.814 281.879H136.291C136.343 282.602 136.584 283.139 137.014 283.49C137.45 283.842 138.049 284.018 138.811 284.018C139.097 284.018 139.491 283.933 139.992 283.764C140.5 283.588 140.992 283.314 141.467 282.943L142.834 284.691C142.15 285.232 141.447 285.626 140.725 285.873C140.002 286.12 139.204 286.244 138.332 286.244C136.717 286.244 135.464 285.798 134.572 284.906C133.68 284.008 133.234 282.758 133.234 281.156C133.234 279.561 133.706 278.262 134.65 277.26C135.594 276.257 136.789 275.756 138.234 275.756C139.621 275.756 140.731 276.176 141.564 277.016C142.398 277.849 142.814 279.063 142.814 280.658V281.879ZM139.953 279.984C139.953 279.21 139.807 278.66 139.514 278.334C139.227 278.002 138.794 277.836 138.215 277.836C137.72 277.836 137.29 278.028 136.926 278.412C136.568 278.796 136.35 279.32 136.271 279.984H139.953ZM136.77 274.418H134.748L137.043 271.244H139.465L141.77 274.418H139.748L138.205 272.582L136.77 274.418ZM154.309 286H151.232V280.443C151.232 279.669 151.092 279.089 150.812 278.705C150.539 278.314 150.126 278.119 149.572 278.119C149.038 278.119 148.599 278.324 148.254 278.734C147.909 279.145 147.736 279.665 147.736 280.297V286H144.65V276H147.736V277.582H147.775C148.146 276.97 148.599 276.514 149.133 276.215C149.667 275.909 150.285 275.756 150.988 275.756C152.095 275.756 152.925 276.101 153.479 276.791C154.032 277.475 154.309 278.503 154.309 279.877V286ZM161.281 285.131L162.541 283.08C162.88 283.34 163.28 283.565 163.742 283.754C164.204 283.943 164.719 284.037 165.285 284.037C165.682 284.037 166.008 283.965 166.262 283.822C166.516 283.673 166.643 283.454 166.643 283.168C166.643 282.94 166.548 282.761 166.359 282.631C166.177 282.494 165.809 282.367 165.256 282.25C164.012 281.99 163.111 281.622 162.551 281.146C161.991 280.671 161.711 279.991 161.711 279.105C161.711 278.09 162.115 277.279 162.922 276.674C163.736 276.062 164.729 275.756 165.9 275.756C166.512 275.756 167.095 275.837 167.648 276C168.202 276.156 168.713 276.391 169.182 276.703L168.02 278.686C167.622 278.432 167.245 278.246 166.887 278.129C166.529 278.005 166.161 277.943 165.783 277.943C165.386 277.943 165.064 278.018 164.816 278.168C164.576 278.318 164.455 278.51 164.455 278.744C164.455 279.018 164.576 279.216 164.816 279.34C165.057 279.457 165.507 279.581 166.164 279.711C167.323 279.945 168.15 280.313 168.645 280.814C169.139 281.309 169.387 281.98 169.387 282.826C169.387 283.848 168.999 284.675 168.225 285.307C167.456 285.932 166.434 286.244 165.158 286.244C164.462 286.244 163.794 286.156 163.156 285.98C162.525 285.798 161.9 285.515 161.281 285.131ZM179.416 286H176.496V284.564H176.457C176.125 285.124 175.708 285.544 175.207 285.824C174.712 286.104 174.149 286.244 173.518 286.244C172.652 286.244 171.906 285.98 171.281 285.453C170.663 284.919 170.354 284.174 170.354 283.217C170.354 282.292 170.66 281.537 171.271 280.951C171.89 280.365 172.854 279.984 174.162 279.809L176.516 279.496V279.301C176.516 278.826 176.363 278.467 176.057 278.227C175.751 277.979 175.327 277.855 174.787 277.855C174.377 277.855 173.918 277.924 173.41 278.061C172.909 278.197 172.398 278.415 171.877 278.715L170.832 276.889C171.516 276.492 172.193 276.205 172.863 276.029C173.54 275.847 174.276 275.756 175.07 275.756C176.561 275.756 177.658 276.111 178.361 276.82C179.064 277.53 179.416 278.598 179.416 280.023V286ZM176.516 281.938V281.264L174.699 281.498C174.198 281.563 173.82 281.716 173.566 281.957C173.319 282.191 173.195 282.491 173.195 282.855C173.195 283.207 173.316 283.497 173.557 283.725C173.804 283.946 174.136 284.057 174.553 284.057C175.132 284.057 175.604 283.858 175.969 283.461C176.333 283.057 176.516 282.549 176.516 281.938ZM173.742 274.418H171.721L174.016 271.244H176.438L178.742 274.418H176.721L175.178 272.582L173.742 274.418ZM191.359 286H188.283V284.477H188.234C187.857 285.062 187.411 285.505 186.896 285.805C186.389 286.098 185.816 286.244 185.178 286.244C184.019 286.244 183.15 285.893 182.57 285.189C181.991 284.486 181.701 283.435 181.701 282.035V276H184.777V281.762C184.777 282.465 184.917 282.995 185.197 283.354C185.477 283.705 185.897 283.881 186.457 283.881C187.01 283.881 187.453 283.689 187.785 283.305C188.117 282.914 188.283 282.387 188.283 281.723V276H191.359V286Z" fill="white"/>
    </a>
    <a class="motion__three" href="can-thiep-tri-lieu">
        <g filter="url(#filter2_d_613_591)">
            <path d="M191.858 479.43H7.99988L7.99988 389H191.858L245 434.22L191.858 479.43Z" fill="white"/>
            <path d="M186.508 475.419H14.8104L14.8104 393.011H186.508L236.136 434.219L186.508 475.419Z" fill="#67AC2F"/>
        </g>
        <path d="M38.5977 450.037L46.8691 445.183C47.6211 446.733 48.6921 447.997 50.082 448.977C51.4948 449.934 53.2266 450.413 55.2773 450.413C57.3737 450.413 59.1283 449.866 60.541 448.772C61.9766 447.655 62.6943 446.038 62.6943 443.918C62.6943 441.731 61.7373 440.068 59.8232 438.928C57.932 437.766 55.3229 437.174 51.9961 437.151H47.9971V428.743H51.6543C54.8444 428.743 57.237 428.207 58.832 427.136C60.4271 426.065 61.2246 424.368 61.2246 422.043C61.2246 420.289 60.6549 418.944 59.5156 418.01C58.3991 417.053 57.0205 416.575 55.3799 416.575C53.8304 416.575 52.3835 416.973 51.0391 417.771C49.7174 418.546 48.6123 419.776 47.7236 421.462L39.6914 417.6C41.0814 414.934 43.2347 412.712 46.1514 410.935C49.0908 409.135 52.5658 408.235 56.5762 408.235C61.5892 408.235 65.4515 409.374 68.1631 411.653C70.8747 413.909 72.2305 417.03 72.2305 421.018C72.2305 423.684 71.5127 426.02 70.0771 428.025C68.6416 430.03 66.4769 431.5 63.583 432.434V432.605C66.7048 433.152 69.1657 434.473 70.9658 436.57C72.7887 438.643 73.7002 441.139 73.7002 444.055C73.7002 448.635 72.0596 452.258 68.7783 454.924C65.5199 457.59 61.236 458.923 55.9268 458.923C51.6657 458.923 48.111 458.16 45.2627 456.633C42.4144 455.107 40.1927 452.908 38.5977 450.037Z" fill="white"/>
        <path d="M100.129 425.316C99.3932 425.642 98.6803 425.876 97.9902 426.02C97.3001 426.169 96.5547 426.244 95.7539 426.244C93.5729 426.244 91.8542 425.635 90.5977 424.418C89.3477 423.194 88.7227 421.446 88.7227 419.174C88.7227 417.045 89.4062 415.277 90.7734 413.871C92.1406 412.465 93.944 411.762 96.1836 411.762C96.9323 411.762 97.5996 411.814 98.1855 411.918C98.778 412.022 99.3932 412.191 100.031 412.426L99.1035 414.975C98.6217 414.799 98.1595 414.672 97.7168 414.594C97.2741 414.516 96.7956 414.477 96.2812 414.477C95.1354 414.477 94.1426 414.88 93.3027 415.688C92.4629 416.488 92.043 417.576 92.043 418.949C92.043 420.368 92.4076 421.479 93.1367 422.279C93.8724 423.08 94.8783 423.48 96.1543 423.48C96.4863 423.48 96.9062 423.428 97.4141 423.324C97.9284 423.214 98.459 423.035 99.0059 422.787L100.129 425.316ZM110.1 426H107.18V424.564H107.141C106.809 425.124 106.392 425.544 105.891 425.824C105.396 426.104 104.833 426.244 104.201 426.244C103.335 426.244 102.59 425.98 101.965 425.453C101.346 424.919 101.037 424.174 101.037 423.217C101.037 422.292 101.343 421.537 101.955 420.951C102.574 420.365 103.537 419.984 104.846 419.809L107.199 419.496V419.301C107.199 418.826 107.046 418.467 106.74 418.227C106.434 417.979 106.011 417.855 105.471 417.855C105.061 417.855 104.602 417.924 104.094 418.061C103.592 418.197 103.081 418.415 102.561 418.715L101.516 416.889C102.199 416.492 102.876 416.205 103.547 416.029C104.224 415.847 104.96 415.756 105.754 415.756C107.245 415.756 108.342 416.111 109.045 416.82C109.748 417.53 110.1 418.598 110.1 420.023V426ZM107.199 421.938V421.264L105.383 421.498C104.882 421.563 104.504 421.716 104.25 421.957C104.003 422.191 103.879 422.491 103.879 422.855C103.879 423.207 103.999 423.497 104.24 423.725C104.488 423.946 104.82 424.057 105.236 424.057C105.816 424.057 106.288 423.858 106.652 423.461C107.017 423.057 107.199 422.549 107.199 421.938ZM122.199 426H119.123V420.443C119.123 419.669 118.983 419.089 118.703 418.705C118.43 418.314 118.016 418.119 117.463 418.119C116.929 418.119 116.49 418.324 116.145 418.734C115.799 419.145 115.627 419.665 115.627 420.297V426H112.541V416H115.627V417.582H115.666C116.037 416.97 116.49 416.514 117.023 416.215C117.557 415.909 118.176 415.756 118.879 415.756C119.986 415.756 120.816 416.101 121.369 416.791C121.923 417.475 122.199 418.503 122.199 419.877V426ZM136.428 425.844C136.115 425.974 135.764 426.072 135.373 426.137C134.989 426.208 134.598 426.244 134.201 426.244C133.107 426.244 132.284 425.98 131.73 425.453C131.177 424.926 130.9 424.138 130.9 423.09V418.275H129.279V416H130.9V413.578L133.977 412.699V416H136.223V418.275H133.977V422.895C133.977 423.279 134.051 423.559 134.201 423.734C134.351 423.904 134.592 423.988 134.924 423.988C135.087 423.988 135.243 423.969 135.393 423.93C135.542 423.884 135.686 423.829 135.822 423.764L136.428 425.844ZM147.57 426H144.494V420.316C144.494 419.581 144.361 419.031 144.094 418.666C143.827 418.301 143.426 418.119 142.893 418.119C142.346 418.119 141.903 418.324 141.564 418.734C141.226 419.145 141.057 419.665 141.057 420.297V426H137.971V411.195H141.057V417.484H141.096C141.473 416.905 141.919 416.472 142.434 416.186C142.948 415.899 143.527 415.756 144.172 415.756C145.305 415.756 146.154 416.098 146.721 416.781C147.287 417.465 147.57 418.49 147.57 419.857V426ZM151.584 414.623C151.05 414.623 150.614 414.46 150.275 414.135C149.937 413.809 149.768 413.406 149.768 412.924C149.768 412.423 149.937 412.016 150.275 411.703C150.614 411.384 151.05 411.225 151.584 411.225C152.124 411.225 152.561 411.384 152.893 411.703C153.231 412.016 153.4 412.423 153.4 412.924C153.4 413.425 153.231 413.835 152.893 414.154C152.561 414.467 152.124 414.623 151.584 414.623ZM153.107 426H150.021V416H153.107V426ZM164.689 421.879H158.166C158.218 422.602 158.459 423.139 158.889 423.49C159.325 423.842 159.924 424.018 160.686 424.018C160.972 424.018 161.366 423.933 161.867 423.764C162.375 423.588 162.867 423.314 163.342 422.943L164.709 424.691C164.025 425.232 163.322 425.626 162.6 425.873C161.877 426.12 161.079 426.244 160.207 426.244C158.592 426.244 157.339 425.798 156.447 424.906C155.555 424.008 155.109 422.758 155.109 421.156C155.109 419.561 155.581 418.262 156.525 417.26C157.469 416.257 158.664 415.756 160.109 415.756C161.496 415.756 162.606 416.176 163.439 417.016C164.273 417.849 164.689 419.063 164.689 420.658V421.879ZM161.828 419.984C161.828 419.21 161.682 418.66 161.389 418.334C161.102 418.002 160.669 417.836 160.09 417.836C159.595 417.836 159.165 418.028 158.801 418.412C158.443 418.796 158.225 419.32 158.146 419.984H161.828ZM158.645 414.418H156.623L158.918 411.244H161.34L163.645 414.418H161.623L160.08 412.582L158.645 414.418ZM160.041 429.828C159.605 429.828 159.243 429.698 158.957 429.438C158.677 429.177 158.537 428.861 158.537 428.49C158.537 428.1 158.68 427.781 158.967 427.533C159.253 427.292 159.611 427.172 160.041 427.172C160.477 427.172 160.832 427.296 161.105 427.543C161.385 427.79 161.525 428.106 161.525 428.49C161.525 428.874 161.385 429.193 161.105 429.447C160.832 429.701 160.477 429.828 160.041 429.828ZM169.65 424.838H169.611V430.6H166.525V416H169.611V417.504H169.65C170.028 416.918 170.484 416.482 171.018 416.195C171.558 415.902 172.173 415.756 172.863 415.756C174.152 415.756 175.152 416.202 175.861 417.094C176.571 417.979 176.926 419.187 176.926 420.717C176.926 422.383 176.512 423.721 175.686 424.73C174.859 425.74 173.765 426.244 172.404 426.244C171.799 426.244 171.268 426.127 170.812 425.893C170.357 425.658 169.969 425.307 169.65 424.838ZM169.562 420.736V421.537C169.562 422.227 169.745 422.79 170.109 423.227C170.474 423.663 170.952 423.881 171.545 423.881C172.248 423.881 172.792 423.611 173.176 423.07C173.566 422.523 173.762 421.752 173.762 420.756C173.762 419.877 173.589 419.219 173.244 418.783C172.906 418.34 172.395 418.119 171.711 418.119C171.079 418.119 170.562 418.36 170.158 418.842C169.761 419.317 169.562 419.949 169.562 420.736ZM101.086 453L99.5137 451.525C98.7389 452.124 97.9707 452.557 97.209 452.824C96.4473 453.091 95.5781 453.225 94.6016 453.225C93.0716 453.225 91.8086 452.86 90.8125 452.131C89.8164 451.402 89.3184 450.337 89.3184 448.938C89.3184 447.954 89.6016 447.16 90.168 446.555C90.7409 445.943 91.5189 445.399 92.502 444.924C91.9746 444.377 91.5905 443.879 91.3496 443.43C91.1152 442.98 90.998 442.495 90.998 441.975C90.998 440.939 91.3952 440.145 92.1895 439.592C92.9837 439.038 94.0026 438.762 95.2461 438.762C96.444 438.762 97.4173 439.045 98.166 439.611C98.9212 440.178 99.2988 440.91 99.2988 441.809C99.2988 442.492 99.1068 443.094 98.7227 443.615C98.3385 444.13 97.5638 444.66 96.3984 445.207L99.6895 448.195C100.165 447.603 100.484 447.007 100.646 446.408C100.809 445.803 100.891 445.135 100.891 444.406H103.625C103.625 445.396 103.459 446.317 103.127 447.17C102.801 448.023 102.235 448.889 101.428 449.768L104.992 453H101.086ZM94.9141 443.859C95.4609 443.625 95.8711 443.378 96.1445 443.117C96.4245 442.85 96.5645 442.486 96.5645 442.023C96.5645 441.639 96.431 441.343 96.1641 441.135C95.8971 440.926 95.5911 440.822 95.2461 440.822C94.8099 440.822 94.4551 440.946 94.1816 441.193C93.9082 441.434 93.7715 441.727 93.7715 442.072C93.7715 442.365 93.8626 442.645 94.0449 442.912C94.2272 443.173 94.5169 443.488 94.9141 443.859ZM97.8047 449.924L94.0449 446.398C93.6087 446.646 93.2311 446.958 92.9121 447.336C92.5996 447.707 92.4434 448.199 92.4434 448.811C92.4434 449.442 92.6582 449.947 93.0879 450.324C93.5176 450.702 94.0742 450.891 94.7578 450.891C95.3372 450.891 95.8646 450.819 96.3398 450.676C96.8151 450.533 97.3034 450.282 97.8047 449.924ZM121.945 441.564H117.951V453H114.787V441.564H110.812V438.996H121.945V441.564ZM128.264 445.559C128.14 445.533 128.013 445.513 127.883 445.5C127.753 445.487 127.609 445.48 127.453 445.48C126.639 445.48 126.034 445.721 125.637 446.203C125.24 446.678 125.041 447.352 125.041 448.225V453H121.955V443H125.041V444.855H125.08C125.321 444.178 125.66 443.671 126.096 443.332C126.538 442.993 127.079 442.824 127.717 442.824C127.86 442.824 128 442.834 128.137 442.854C128.28 442.873 128.426 442.899 128.576 442.932L128.264 445.559ZM131.486 441.623C130.952 441.623 130.516 441.46 130.178 441.135C129.839 440.809 129.67 440.406 129.67 439.924C129.67 439.423 129.839 439.016 130.178 438.703C130.516 438.384 130.952 438.225 131.486 438.225C132.027 438.225 132.463 438.384 132.795 438.703C133.133 439.016 133.303 439.423 133.303 439.924C133.303 440.425 133.133 440.835 132.795 441.154C132.463 441.467 132.027 441.623 131.486 441.623ZM133.01 453H129.924V443H133.01V453ZM131.467 456.828C131.031 456.828 130.669 456.698 130.383 456.438C130.103 456.177 129.963 455.861 129.963 455.49C129.963 455.1 130.106 454.781 130.393 454.533C130.679 454.292 131.037 454.172 131.467 454.172C131.903 454.172 132.258 454.296 132.531 454.543C132.811 454.79 132.951 455.106 132.951 455.49C132.951 455.874 132.811 456.193 132.531 456.447C132.258 456.701 131.903 456.828 131.467 456.828ZM141.135 453V438.195H144.221V453H141.135ZM148.381 441.623C147.847 441.623 147.411 441.46 147.072 441.135C146.734 440.809 146.564 440.406 146.564 439.924C146.564 439.423 146.734 439.016 147.072 438.703C147.411 438.384 147.847 438.225 148.381 438.225C148.921 438.225 149.357 438.384 149.689 438.703C150.028 439.016 150.197 439.423 150.197 439.924C150.197 440.425 150.028 440.835 149.689 441.154C149.357 441.467 148.921 441.623 148.381 441.623ZM149.904 453H146.818V443H149.904V453ZM161.486 448.879H154.963C155.015 449.602 155.256 450.139 155.686 450.49C156.122 450.842 156.721 451.018 157.482 451.018C157.769 451.018 158.163 450.933 158.664 450.764C159.172 450.588 159.663 450.314 160.139 449.943L161.506 451.691C160.822 452.232 160.119 452.626 159.396 452.873C158.674 453.12 157.876 453.244 157.004 453.244C155.389 453.244 154.136 452.798 153.244 451.906C152.352 451.008 151.906 449.758 151.906 448.156C151.906 446.561 152.378 445.262 153.322 444.26C154.266 443.257 155.461 442.756 156.906 442.756C158.293 442.756 159.403 443.176 160.236 444.016C161.07 444.849 161.486 446.063 161.486 447.658V448.879ZM158.625 446.984C158.625 446.21 158.479 445.66 158.186 445.334C157.899 445.002 157.466 444.836 156.887 444.836C156.392 444.836 155.962 445.028 155.598 445.412C155.24 445.796 155.021 446.32 154.943 446.984H158.625ZM155.441 441.418H153.42L155.715 438.244H158.137L160.441 441.418H158.42L156.877 439.582L155.441 441.418ZM156.838 456.828C156.402 456.828 156.04 456.698 155.754 456.438C155.474 456.177 155.334 455.861 155.334 455.49C155.334 455.1 155.477 454.781 155.764 454.533C156.05 454.292 156.408 454.172 156.838 454.172C157.274 454.172 157.629 454.296 157.902 454.543C158.182 454.79 158.322 455.106 158.322 455.49C158.322 455.874 158.182 456.193 157.902 456.447C157.629 456.701 157.274 456.828 156.838 456.828ZM172.824 453H169.748V451.477H169.699C169.322 452.062 168.876 452.505 168.361 452.805C167.854 453.098 167.281 453.244 166.643 453.244C165.484 453.244 164.615 452.893 164.035 452.189C163.456 451.486 163.166 450.435 163.166 449.035V443H166.242V448.762C166.242 449.465 166.382 449.995 166.662 450.354C166.942 450.705 167.362 450.881 167.922 450.881C168.475 450.881 168.918 450.689 169.25 450.305C169.582 449.914 169.748 449.387 169.748 448.723V443H172.824V453Z" fill="white"/>
    </a>
    <a class="motion__four" href="ho-tro-dong-hanh">
        <g filter="url(#filter3_d_613_591)">
            <path d="M191.858 645.43H7.99988L7.99988 555H191.858L245 600.22L191.858 645.43Z" fill="white"/>
            <path d="M186.508 641.419H14.8104L14.8104 559.011H186.508L236.136 600.219L186.508 641.419Z" fill="#1D6495"/>
        </g>
        <path d="M102.721 595H99.5566V589.297H93.7559V595H90.6016V580.996H93.7559V586.582H99.5566V580.996H102.721V595ZM110.396 595.244C108.73 595.244 107.418 594.775 106.461 593.838C105.504 592.9 105.029 591.634 105.035 590.039C105.042 588.385 105.536 587.093 106.52 586.162C107.509 585.225 108.847 584.756 110.533 584.756C112.193 584.756 113.495 585.221 114.439 586.152C115.383 587.083 115.855 588.32 115.855 589.863C115.855 591.517 115.367 592.829 114.391 593.799C113.421 594.762 112.089 595.244 110.396 595.244ZM110.494 592.881C111.236 592.881 111.79 592.633 112.154 592.139C112.525 591.644 112.711 590.905 112.711 589.922C112.711 588.991 112.525 588.291 112.154 587.822C111.783 587.354 111.223 587.119 110.475 587.119C109.745 587.119 109.179 587.373 108.775 587.881C108.372 588.382 108.17 589.089 108.17 590C108.17 590.964 108.362 591.686 108.746 592.168C109.137 592.643 109.719 592.881 110.494 592.881ZM108.434 580.4H107.027C107.027 579.645 107.2 579.082 107.545 578.711C107.896 578.333 108.417 578.145 109.107 578.145C109.342 578.145 109.583 578.174 109.83 578.232C110.077 578.285 110.331 578.369 110.592 578.486C110.865 578.604 111.1 578.691 111.295 578.75C111.497 578.809 111.663 578.838 111.793 578.838C112.04 578.838 112.223 578.776 112.34 578.652C112.464 578.529 112.525 578.346 112.525 578.105H113.932C113.932 578.848 113.762 579.408 113.424 579.785C113.085 580.156 112.574 580.342 111.891 580.342C111.702 580.342 111.484 580.312 111.236 580.254C110.995 580.195 110.725 580.111 110.426 580C110.113 579.876 109.853 579.785 109.645 579.727C109.436 579.668 109.277 579.639 109.166 579.639C108.925 579.639 108.743 579.704 108.619 579.834C108.495 579.958 108.434 580.146 108.434 580.4ZM109.068 583.418H107.105L109.332 580.986H111.666L113.893 583.418H111.93L110.445 582.08L109.068 583.418ZM129.635 594.844C129.322 594.974 128.971 595.072 128.58 595.137C128.196 595.208 127.805 595.244 127.408 595.244C126.314 595.244 125.491 594.98 124.938 594.453C124.384 593.926 124.107 593.138 124.107 592.09V587.275H122.486V585H124.107V582.578L127.184 581.699V585H129.43V587.275H127.184V591.895C127.184 592.279 127.258 592.559 127.408 592.734C127.558 592.904 127.799 592.988 128.131 592.988C128.294 592.988 128.45 592.969 128.6 592.93C128.749 592.884 128.893 592.829 129.029 592.764L129.635 594.844ZM137.486 587.559C137.363 587.533 137.236 587.513 137.105 587.5C136.975 587.487 136.832 587.48 136.676 587.48C135.862 587.48 135.257 587.721 134.859 588.203C134.462 588.678 134.264 589.352 134.264 590.225V595H131.178V585H134.264V586.855H134.303C134.544 586.178 134.882 585.671 135.318 585.332C135.761 584.993 136.301 584.824 136.939 584.824C137.083 584.824 137.223 584.834 137.359 584.854C137.503 584.873 137.649 584.899 137.799 584.932L137.486 587.559ZM148.033 586.24C148.482 586.702 148.818 587.236 149.039 587.842C149.26 588.441 149.371 589.115 149.371 589.863C149.371 591.523 148.883 592.835 147.906 593.799C146.936 594.762 145.605 595.244 143.912 595.244C142.245 595.244 140.934 594.779 139.977 593.848C139.026 592.91 138.551 591.641 138.551 590.039C138.551 588.385 139.046 587.093 140.035 586.162C141.025 585.225 142.363 584.756 144.049 584.756C144.27 584.756 144.505 584.769 144.752 584.795C145.006 584.814 145.27 584.85 145.543 584.902C145.732 584.935 145.914 584.961 146.09 584.98C146.272 584.993 146.448 585 146.617 585C147.197 585 147.63 584.886 147.916 584.658C148.202 584.424 148.346 584.079 148.346 583.623C148.346 583.46 148.329 583.288 148.297 583.105C148.271 582.923 148.229 582.734 148.17 582.539H150.045C150.123 582.76 150.178 582.979 150.211 583.193C150.25 583.408 150.27 583.617 150.27 583.818C150.27 584.554 150.084 585.124 149.713 585.527C149.342 585.931 148.782 586.169 148.033 586.24ZM143.99 587.119C143.261 587.119 142.695 587.37 142.291 587.871C141.887 588.372 141.686 589.082 141.686 590C141.686 590.957 141.878 591.676 142.262 592.158C142.652 592.64 143.235 592.881 144.01 592.881C144.752 592.881 145.305 592.633 145.67 592.139C146.041 591.644 146.227 590.905 146.227 589.922C146.227 588.984 146.041 588.285 145.67 587.822C145.299 587.354 144.739 587.119 143.99 587.119ZM143.922 598.828C143.486 598.828 143.124 598.698 142.838 598.438C142.558 598.177 142.418 597.861 142.418 597.49C142.418 597.1 142.561 596.781 142.848 596.533C143.134 596.292 143.492 596.172 143.922 596.172C144.358 596.172 144.713 596.296 144.986 596.543C145.266 596.79 145.406 597.106 145.406 597.49C145.406 597.874 145.266 598.193 144.986 598.447C144.713 598.701 144.358 598.828 143.922 598.828ZM169.059 595L167.486 593.525C166.712 594.124 165.943 594.557 165.182 594.824C164.42 595.091 163.551 595.225 162.574 595.225C161.044 595.225 159.781 594.86 158.785 594.131C157.789 593.402 157.291 592.337 157.291 590.938C157.291 589.954 157.574 589.16 158.141 588.555C158.714 587.943 159.492 587.399 160.475 586.924C159.947 586.377 159.563 585.879 159.322 585.43C159.088 584.98 158.971 584.495 158.971 583.975C158.971 582.939 159.368 582.145 160.162 581.592C160.956 581.038 161.975 580.762 163.219 580.762C164.417 580.762 165.39 581.045 166.139 581.611C166.894 582.178 167.271 582.91 167.271 583.809C167.271 584.492 167.079 585.094 166.695 585.615C166.311 586.13 165.536 586.66 164.371 587.207L167.662 590.195C168.137 589.603 168.456 589.007 168.619 588.408C168.782 587.803 168.863 587.135 168.863 586.406H171.598C171.598 587.396 171.432 588.317 171.1 589.17C170.774 590.023 170.208 590.889 169.4 591.768L172.965 595H169.059ZM162.887 585.859C163.434 585.625 163.844 585.378 164.117 585.117C164.397 584.85 164.537 584.486 164.537 584.023C164.537 583.639 164.404 583.343 164.137 583.135C163.87 582.926 163.564 582.822 163.219 582.822C162.783 582.822 162.428 582.946 162.154 583.193C161.881 583.434 161.744 583.727 161.744 584.072C161.744 584.365 161.835 584.645 162.018 584.912C162.2 585.173 162.49 585.488 162.887 585.859ZM165.777 591.924L162.018 588.398C161.581 588.646 161.204 588.958 160.885 589.336C160.572 589.707 160.416 590.199 160.416 590.811C160.416 591.442 160.631 591.947 161.061 592.324C161.49 592.702 162.047 592.891 162.73 592.891C163.31 592.891 163.837 592.819 164.312 592.676C164.788 592.533 165.276 592.282 165.777 591.924ZM90.6016 622V616.277H89V613.68H90.6016V607.996H95.5625C98.0495 607.996 99.9147 608.566 101.158 609.705C102.402 610.838 103.023 612.544 103.023 614.822C103.023 617.003 102.343 618.745 100.982 620.047C99.6283 621.349 97.8216 622 95.5625 622H90.6016ZM93.7559 610.564V613.68H96.4023V616.277H93.7559V619.441H95.3184C96.6855 619.441 97.7565 619.031 98.5312 618.211C99.3125 617.391 99.7031 616.274 99.7031 614.861C99.7031 613.527 99.3158 612.479 98.541 611.717C97.7728 610.949 96.6921 610.564 95.2988 610.564H93.7559ZM109.811 622.244C108.144 622.244 106.832 621.775 105.875 620.838C104.918 619.9 104.443 618.634 104.449 617.039C104.456 615.385 104.951 614.093 105.934 613.162C106.923 612.225 108.261 611.756 109.947 611.756C111.607 611.756 112.91 612.221 113.854 613.152C114.798 614.083 115.27 615.32 115.27 616.863C115.27 618.517 114.781 619.829 113.805 620.799C112.835 621.762 111.503 622.244 109.811 622.244ZM109.908 619.881C110.65 619.881 111.204 619.633 111.568 619.139C111.939 618.644 112.125 617.905 112.125 616.922C112.125 615.991 111.939 615.291 111.568 614.822C111.197 614.354 110.637 614.119 109.889 614.119C109.16 614.119 108.593 614.373 108.189 614.881C107.786 615.382 107.584 616.089 107.584 617C107.584 617.964 107.776 618.686 108.16 619.168C108.551 619.643 109.133 619.881 109.908 619.881ZM106.412 610.418L108.639 607.977H110.973L113.199 610.418H111.236L109.859 609.07L108.375 610.418H106.412ZM105.396 608.934L102.818 606.531H105.553L107.32 608.934H105.396ZM126.93 622H123.854V616.443C123.854 615.669 123.714 615.089 123.434 614.705C123.16 614.314 122.747 614.119 122.193 614.119C121.66 614.119 121.22 614.324 120.875 614.734C120.53 615.145 120.357 615.665 120.357 616.297V622H117.271V612H120.357V613.582H120.396C120.768 612.97 121.22 612.514 121.754 612.215C122.288 611.909 122.906 611.756 123.609 611.756C124.716 611.756 125.546 612.101 126.1 612.791C126.653 613.475 126.93 614.503 126.93 615.877V622ZM139.186 620.857C139.186 622.505 138.665 623.888 137.623 625.008C136.588 626.134 135.068 626.697 133.062 626.697C132.359 626.697 131.705 626.635 131.1 626.512C130.501 626.388 129.879 626.189 129.234 625.916L130.123 623.826C130.618 624.035 131.096 624.184 131.559 624.275C132.021 624.373 132.545 624.422 133.131 624.422C134.094 624.422 134.83 624.139 135.338 623.572C135.846 623.012 136.1 622.273 136.1 621.355V620.564H136.061C135.709 621.124 135.273 621.544 134.752 621.824C134.231 622.104 133.629 622.244 132.945 622.244C131.663 622.244 130.647 621.795 129.898 620.896C129.156 619.992 128.785 618.79 128.785 617.293C128.785 615.594 129.202 614.246 130.035 613.25C130.868 612.254 131.965 611.756 133.326 611.756C133.932 611.756 134.462 611.873 134.918 612.107C135.38 612.342 135.761 612.693 136.061 613.162H136.1V612H139.186V620.857ZM136.139 617.195V616.404C136.139 615.773 135.95 615.236 135.572 614.793C135.201 614.344 134.716 614.119 134.117 614.119C133.434 614.119 132.896 614.386 132.506 614.92C132.115 615.454 131.92 616.206 131.92 617.176C131.92 618.009 132.105 618.67 132.477 619.158C132.848 619.64 133.355 619.881 134 619.881C134.645 619.881 135.162 619.637 135.553 619.148C135.943 618.654 136.139 618.003 136.139 617.195ZM156.891 622H153.814V616.316C153.814 615.581 153.681 615.031 153.414 614.666C153.147 614.301 152.747 614.119 152.213 614.119C151.666 614.119 151.223 614.324 150.885 614.734C150.546 615.145 150.377 615.665 150.377 616.297V622H147.291V607.195H150.377V613.484H150.416C150.794 612.905 151.24 612.472 151.754 612.186C152.268 611.899 152.848 611.756 153.492 611.756C154.625 611.756 155.475 612.098 156.041 612.781C156.607 613.465 156.891 614.49 156.891 615.857V622ZM167.662 622H164.742V620.564H164.703C164.371 621.124 163.954 621.544 163.453 621.824C162.958 622.104 162.395 622.244 161.764 622.244C160.898 622.244 160.152 621.98 159.527 621.453C158.909 620.919 158.6 620.174 158.6 619.217C158.6 618.292 158.906 617.537 159.518 616.951C160.136 616.365 161.1 615.984 162.408 615.809L164.762 615.496V615.301C164.762 614.826 164.609 614.467 164.303 614.227C163.997 613.979 163.574 613.855 163.033 613.855C162.623 613.855 162.164 613.924 161.656 614.061C161.155 614.197 160.644 614.415 160.123 614.715L159.078 612.889C159.762 612.492 160.439 612.205 161.109 612.029C161.786 611.847 162.522 611.756 163.316 611.756C164.807 611.756 165.904 612.111 166.607 612.82C167.311 613.53 167.662 614.598 167.662 616.023V622ZM164.762 617.938V617.264L162.945 617.498C162.444 617.563 162.066 617.716 161.812 617.957C161.565 618.191 161.441 618.491 161.441 618.855C161.441 619.207 161.562 619.497 161.803 619.725C162.05 619.946 162.382 620.057 162.799 620.057C163.378 620.057 163.85 619.858 164.215 619.461C164.579 619.057 164.762 618.549 164.762 617.938ZM165.641 610.418H163.424L160.357 607.264H163.102L165.641 610.418ZM179.762 622H176.686V616.443C176.686 615.669 176.546 615.089 176.266 614.705C175.992 614.314 175.579 614.119 175.025 614.119C174.492 614.119 174.052 614.324 173.707 614.734C173.362 615.145 173.189 615.665 173.189 616.297V622H170.104V612H173.189V613.582H173.229C173.6 612.97 174.052 612.514 174.586 612.215C175.12 611.909 175.738 611.756 176.441 611.756C177.548 611.756 178.378 612.101 178.932 612.791C179.485 613.475 179.762 614.503 179.762 615.877V622ZM191.812 622H188.736V616.316C188.736 615.581 188.603 615.031 188.336 614.666C188.069 614.301 187.669 614.119 187.135 614.119C186.588 614.119 186.145 614.324 185.807 614.734C185.468 615.145 185.299 615.665 185.299 616.297V622H182.213V607.195H185.299V613.484H185.338C185.715 612.905 186.161 612.472 186.676 612.186C187.19 611.899 187.77 611.756 188.414 611.756C189.547 611.756 190.396 612.098 190.963 612.781C191.529 613.465 191.812 614.49 191.812 615.857V622Z" fill="white"/>
        <path d="M68.7783 573.987V604.885H73.3926V612.952H68.7783V623H58.5244V612.952H38.3242V604.509C40.1016 602.39 41.9473 600.077 43.8613 597.571C45.7982 595.042 47.6553 592.444 49.4326 589.778C51.2327 587.112 52.8962 584.434 54.4229 581.746C55.9723 579.034 57.2826 576.448 58.3535 573.987H68.7783ZM47.7236 604.885H58.5244V588.035C57.7725 589.516 56.9408 591.02 56.0293 592.546C55.1406 594.05 54.2406 595.531 53.3291 596.99C52.3949 598.425 51.4492 599.815 50.4922 601.16C49.5352 602.481 48.6123 603.723 47.7236 604.885Z" fill="white"/>
    </a>
    <path d="M106 0.333333C100.109 0.333333 95.3332 5.10896 95.3332 11C95.3332 16.891 100.109 21.6667 106 21.6667C111.891 21.6667 116.667 16.891 116.667 11C116.667 5.10896 111.891 0.333333 106 0.333333ZM104.586 47.4142C105.367 48.1953 106.633 48.1953 107.414 47.4142L120.142 34.6863C120.923 33.9052 120.923 32.6389 120.142 31.8579C119.361 31.0768 118.095 31.0768 117.314 31.8579L106 43.1716L94.6862 31.8579C93.9051 31.0768 92.6388 31.0768 91.8577 31.8579C91.0767 32.6389 91.0767 33.9052 91.8577 34.6863L104.586 47.4142ZM104 11L104 46L108 46L108 11L104 11Z" fill="#E65925"/>
    <path d="M106 162.333C100.109 162.333 95.3332 167.109 95.3332 173C95.3332 178.891 100.109 183.667 106 183.667C111.891 183.667 116.667 178.891 116.667 173C116.667 167.109 111.891 162.333 106 162.333ZM104.586 209.414C105.367 210.195 106.633 210.195 107.414 209.414L120.142 196.686C120.923 195.905 120.923 194.639 120.142 193.858C119.361 193.077 118.095 193.077 117.314 193.858L106 205.172L94.6862 193.858C93.9051 193.077 92.6388 193.077 91.8577 193.858C91.0767 194.639 91.0767 195.905 91.8577 196.686L104.586 209.414ZM104 173L104 208L108 208L108 173L104 173Z" fill="#01CC9B"/>
    <path d="M106 328.333C100.109 328.333 95.3332 333.109 95.3332 339C95.3332 344.891 100.109 349.667 106 349.667C111.891 349.667 116.667 344.891 116.667 339C116.667 333.109 111.891 328.333 106 328.333ZM104.586 375.414C105.367 376.195 106.633 376.195 107.414 375.414L120.142 362.686C120.923 361.905 120.923 360.639 120.142 359.858C119.361 359.077 118.095 359.077 117.314 359.858L106 371.172L94.6862 359.858C93.9051 359.077 92.6388 359.077 91.8577 359.858C91.0767 360.639 91.0767 361.905 91.8577 362.686L104.586 375.414ZM104 339L104 374L108 374L108 339L104 339Z" fill="#67AC2F"/>
    <path d="M106 494.333C100.109 494.333 95.3332 499.109 95.3332 505C95.3332 510.891 100.109 515.667 106 515.667C111.891 515.667 116.667 510.891 116.667 505C116.667 499.109 111.891 494.333 106 494.333ZM104.586 541.414C105.367 542.195 106.633 542.195 107.414 541.414L120.142 528.686C120.923 527.905 120.923 526.639 120.142 525.858C119.361 525.077 118.095 525.077 117.314 525.858L106 537.172L94.6862 525.858C93.9051 525.077 92.6388 525.077 91.8577 525.858C91.0767 526.639 91.0767 527.905 91.8577 528.686L104.586 541.414ZM104 505L104 540L108 540L108 505L104 505Z" fill="#1D6495"/>
    <defs>
        <filter id="filter0_d_613_591" x="-0.00012207" y="53.0498" width="253" height="106.429" filterUnits="userSpaceOnUse" color-interpolation-filters="sRGB">
            <feFlood flood-opacity="0" result="BackgroundImageFix"/>
            <feColorMatrix in="SourceAlpha" type="matrix" values="0 0 0 0 0 0 0 0 0 0 0 0 0 0 0 0 0 0 127 0" result="hardAlpha"/>
            <feOffset dy="4"/>
            <feGaussianBlur stdDeviation="4"/>
            <feComposite in2="hardAlpha" operator="out"/>
            <feColorMatrix type="matrix" values="0 0 0 0 0 0 0 0 0 0 0 0 0 0 0 0 0 0 0.25 0"/>
            <feBlend mode="normal" in2="BackgroundImageFix" result="effect1_dropShadow_613_591"/>
            <feBlend mode="normal" in="SourceGraphic" in2="effect1_dropShadow_613_591" result="shape"/>
        </filter>
        <filter id="filter1_d_613_591" x="-0.00012207" y="219" width="253" height="106.429" filterUnits="userSpaceOnUse" color-interpolation-filters="sRGB">
            <feFlood flood-opacity="0" result="BackgroundImageFix"/>
            <feColorMatrix in="SourceAlpha" type="matrix" values="0 0 0 0 0 0 0 0 0 0 0 0 0 0 0 0 0 0 127 0" result="hardAlpha"/>
            <feOffset dy="4"/>
            <feGaussianBlur stdDeviation="4"/>
            <feComposite in2="hardAlpha" operator="out"/>
            <feColorMatrix type="matrix" values="0 0 0 0 0 0 0 0 0 0 0 0 0 0 0 0 0 0 0.25 0"/>
            <feBlend mode="normal" in2="BackgroundImageFix" result="effect1_dropShadow_613_591"/>
            <feBlend mode="normal" in="SourceGraphic" in2="effect1_dropShadow_613_591" result="shape"/>
        </filter>
        <filter id="filter2_d_613_591" x="-0.00012207" y="385" width="253" height="106.429" filterUnits="userSpaceOnUse" color-interpolation-filters="sRGB">
            <feFlood flood-opacity="0" result="BackgroundImageFix"/>
            <feColorMatrix in="SourceAlpha" type="matrix" values="0 0 0 0 0 0 0 0 0 0 0 0 0 0 0 0 0 0 127 0" result="hardAlpha"/>
            <feOffset dy="4"/>
            <feGaussianBlur stdDeviation="4"/>
            <feComposite in2="hardAlpha" operator="out"/>
            <feColorMatrix type="matrix" values="0 0 0 0 0 0 0 0 0 0 0 0 0 0 0 0 0 0 0.25 0"/>
            <feBlend mode="normal" in2="BackgroundImageFix" result="effect1_dropShadow_613_591"/>
            <feBlend mode="normal" in="SourceGraphic" in2="effect1_dropShadow_613_591" result="shape"/>
        </filter>
        <filter id="filter3_d_613_591" x="-0.00012207" y="551" width="253" height="106.429" filterUnits="userSpaceOnUse" color-interpolation-filters="sRGB">
            <feFlood flood-opacity="0" result="BackgroundImageFix"/>
            <feColorMatrix in="SourceAlpha" type="matrix" values="0 0 0 0 0 0 0 0 0 0 0 0 0 0 0 0 0 0 127 0" result="hardAlpha"/>
            <feOffset dy="4"/>
            <feGaussianBlur stdDeviation="4"/>
            <feComposite in2="hardAlpha" operator="out"/>
            <feColorMatrix type="matrix" values="0 0 0 0 0 0 0 0 0 0 0 0 0 0 0 0 0 0 0.25 0"/>
            <feBlend mode="normal" in2="BackgroundImageFix" result="effect1_dropShadow_613_591"/>
            <feBlend mode="normal" in="SourceGraphic" in2="effect1_dropShadow_613_591" result="shape"/>
        </filter>
    </defs>
</svg>