<svg width="170" height="116" viewBox="0 0 170 116" fill="none" xmlns="http://www.w3.org/2000/svg">
<path d="M2 2L166 1.99999L166 111" stroke="#E65925" stroke-width="0.899243" stroke-miterlimit="10" stroke-linecap="round"/>
<path d="M2.32904 -1.01805e-07C1.04312 -4.55962e-08 4.55963e-08 1.04312 1.01806e-07 2.32904C1.58015e-07 3.61496 1.04312 4.65808 2.32904 4.65808C3.61495 4.65808 4.65807 3.61496 4.65807 2.32904C4.65807 1.04312 3.61495 -1.58015e-07 2.32904 -1.01805e-07Z" fill="#E65925"/>
<path d="M169.187 109.978L166.093 115.337L163 109.978L169.187 109.978Z" fill="#E65925"/>
<path d="M31.459 46.0723L32.7676 43.6211C33.4707 44.0378 34.0794 44.321 34.5938 44.4707C35.1146 44.6139 35.6615 44.6855 36.2344 44.6855C36.9896 44.6855 37.5462 44.5423 37.9043 44.2559C38.2624 43.9629 38.4414 43.5658 38.4414 43.0645C38.4414 42.5827 38.2982 42.2148 38.0117 41.9609C37.7253 41.7005 37.1979 41.4824 36.4297 41.3066C34.8672 40.9486 33.7311 40.4408 33.0215 39.7832C32.3118 39.1257 31.957 38.2077 31.957 37.0293C31.957 35.8444 32.416 34.8385 33.334 34.0117C34.252 33.1784 35.5378 32.7617 37.1914 32.7617C37.8815 32.7617 38.5586 32.8398 39.2227 32.9961C39.8867 33.1523 40.5182 33.3802 41.1172 33.6797L39.9355 36.1699C39.3952 35.8639 38.8874 35.6458 38.4121 35.5156C37.9368 35.3854 37.4941 35.3203 37.084 35.3203C36.4525 35.3203 35.9609 35.444 35.6094 35.6914C35.2578 35.9388 35.082 36.2936 35.082 36.7559C35.082 37.179 35.2415 37.5046 35.5605 37.7324C35.8861 37.9603 36.4655 38.1686 37.2988 38.3574C38.8158 38.7025 39.9128 39.2168 40.5898 39.9004C41.2669 40.584 41.6055 41.5475 41.6055 42.791C41.6055 44.1191 41.1367 45.1934 40.1992 46.0137C39.2682 46.834 37.9141 47.2441 36.1367 47.2441C35.362 47.2441 34.5514 47.1432 33.7051 46.9414C32.8587 46.7331 32.11 46.4434 31.459 46.0723ZM51.8301 47H48.9102V45.5645H48.8711C48.5391 46.1243 48.1224 46.5443 47.6211 46.8242C47.1263 47.1042 46.5632 47.2441 45.9316 47.2441C45.0658 47.2441 44.3203 46.9805 43.6953 46.4531C43.0768 45.9193 42.7676 45.1738 42.7676 44.2168C42.7676 43.2923 43.0736 42.5371 43.6855 41.9512C44.304 41.3652 45.2676 40.9844 46.5762 40.8086L48.9297 40.4961V40.3008C48.9297 39.8255 48.7767 39.4674 48.4707 39.2266C48.1647 38.9792 47.7415 38.8555 47.2012 38.8555C46.791 38.8555 46.332 38.9238 45.8242 39.0605C45.3229 39.1973 44.8118 39.4154 44.291 39.7148L43.2461 37.8887C43.9297 37.4915 44.6068 37.2051 45.2773 37.0293C45.9544 36.847 46.6901 36.7559 47.4844 36.7559C48.9753 36.7559 50.0723 37.1107 50.7754 37.8203C51.4785 38.5299 51.8301 39.5977 51.8301 41.0234V47ZM48.9297 42.9375V42.2637L47.1133 42.498C46.612 42.5632 46.2344 42.7161 45.9805 42.957C45.7331 43.1914 45.6094 43.4909 45.6094 43.8555C45.6094 44.207 45.7298 44.4967 45.9707 44.7246C46.2181 44.946 46.5501 45.0566 46.9668 45.0566C47.5462 45.0566 48.0182 44.8581 48.3828 44.4609C48.7474 44.0573 48.9297 43.5495 48.9297 42.9375ZM49.8086 35.418H47.5918L44.5254 32.2637H47.2695L49.8086 35.418ZM63.9297 47H60.8535V41.4434C60.8535 40.6686 60.7135 40.0892 60.4336 39.7051C60.1602 39.3145 59.7467 39.1191 59.1934 39.1191C58.6595 39.1191 58.2201 39.3242 57.875 39.7344C57.5299 40.1445 57.3574 40.6654 57.3574 41.2969V47H54.2715V37H57.3574V38.582H57.3965C57.7676 37.9701 58.2201 37.5143 58.7539 37.2148C59.2878 36.9089 59.9062 36.7559 60.6094 36.7559C61.7161 36.7559 62.5462 37.1009 63.0996 37.791C63.653 38.4746 63.9297 39.5033 63.9297 40.877V47ZM76.1855 45.8574C76.1855 47.5046 75.6647 48.888 74.623 50.0078C73.5879 51.1341 72.0677 51.6973 70.0625 51.6973C69.3594 51.6973 68.7051 51.6354 68.0996 51.5117C67.5007 51.388 66.8789 51.1895 66.2344 50.916L67.123 48.8262C67.6178 49.0345 68.0964 49.1842 68.5586 49.2754C69.0208 49.373 69.5449 49.4219 70.1309 49.4219C71.0944 49.4219 71.8301 49.1387 72.3379 48.5723C72.8457 48.0124 73.0996 47.2734 73.0996 46.3555V45.5645H73.0605C72.709 46.1243 72.2728 46.5443 71.752 46.8242C71.2311 47.1042 70.6289 47.2441 69.9453 47.2441C68.6628 47.2441 67.6471 46.7949 66.8984 45.8965C66.1562 44.9915 65.7852 43.7904 65.7852 42.293C65.7852 40.5938 66.2018 39.2461 67.0352 38.25C67.8685 37.2539 68.9655 36.7559 70.3262 36.7559C70.9316 36.7559 71.4622 36.873 71.918 37.1074C72.3802 37.3418 72.7611 37.6934 73.0605 38.1621H73.0996V37H76.1855V45.8574ZM73.1387 42.1953V41.4043C73.1387 40.7728 72.9499 40.2357 72.5723 39.793C72.2012 39.3438 71.7161 39.1191 71.1172 39.1191C70.4336 39.1191 69.8965 39.3861 69.5059 39.9199C69.1152 40.4538 68.9199 41.2057 68.9199 42.1758C68.9199 43.0091 69.1055 43.6699 69.4766 44.1582C69.8477 44.64 70.3555 44.8809 71 44.8809C71.6445 44.8809 72.1621 44.6367 72.5527 44.1484C72.9434 43.6536 73.1387 43.0026 73.1387 42.1953ZM84.291 47V32.1953H87.377V47H84.291ZM94.7402 47.2441C93.0736 47.2441 91.7617 46.7754 90.8047 45.8379C89.8477 44.9004 89.3724 43.6341 89.3789 42.0391C89.3854 40.3854 89.8802 39.0931 90.8633 38.1621C91.8529 37.2246 93.1908 36.7559 94.877 36.7559C96.5371 36.7559 97.8392 37.2214 98.7832 38.1523C99.7272 39.0833 100.199 40.3203 100.199 41.8633C100.199 43.5169 99.7109 44.8288 98.7344 45.7988C97.7643 46.7624 96.4329 47.2441 94.7402 47.2441ZM94.8379 44.8809C95.5801 44.8809 96.1335 44.6335 96.498 44.1387C96.8691 43.6439 97.0547 42.9049 97.0547 41.9219C97.0547 40.9909 96.8691 40.291 96.498 39.8223C96.127 39.3535 95.5671 39.1191 94.8184 39.1191C94.0892 39.1191 93.5228 39.373 93.1191 39.8809C92.7155 40.3822 92.5137 41.0885 92.5137 42C92.5137 42.9635 92.7057 43.6862 93.0898 44.168C93.4805 44.6432 94.0632 44.8809 94.8379 44.8809ZM94.7891 50.8281C94.3529 50.8281 93.9915 50.6979 93.7051 50.4375C93.4251 50.1771 93.2852 49.8613 93.2852 49.4902C93.2852 49.0996 93.4284 48.7806 93.7148 48.5332C94.0013 48.2923 94.3594 48.1719 94.7891 48.1719C95.2253 48.1719 95.5801 48.2956 95.8535 48.543C96.1335 48.7904 96.2734 49.1061 96.2734 49.4902C96.2734 49.8743 96.1335 50.1934 95.8535 50.4473C95.5801 50.7012 95.2253 50.8281 94.7891 50.8281ZM110.238 46.375C109.711 46.6745 109.187 46.8926 108.666 47.0293C108.152 47.1725 107.589 47.2441 106.977 47.2441C105.284 47.2441 103.965 46.7786 103.021 45.8477C102.077 44.9167 101.605 43.7155 101.605 42.2441C101.605 40.5449 102.107 39.207 103.109 38.2305C104.118 37.2474 105.453 36.7559 107.113 36.7559C107.745 36.7559 108.295 36.8177 108.764 36.9414C109.232 37.0586 109.708 37.2507 110.189 37.5176L109.047 39.5879C108.747 39.4251 108.454 39.3079 108.168 39.2363C107.888 39.1582 107.579 39.1191 107.24 39.1191C106.459 39.1191 105.847 39.373 105.404 39.8809C104.962 40.3887 104.74 41.1081 104.74 42.0391C104.74 42.931 104.988 43.6276 105.482 44.1289C105.977 44.6302 106.576 44.8809 107.279 44.8809C107.468 44.8809 107.725 44.8385 108.051 44.7539C108.383 44.6628 108.718 44.5195 109.057 44.3242L110.238 46.375ZM44.0859 74L42.5137 72.5254C41.7389 73.1243 40.9707 73.5573 40.209 73.8242C39.4473 74.0911 38.5781 74.2246 37.6016 74.2246C36.0716 74.2246 34.8086 73.86 33.8125 73.1309C32.8164 72.4017 32.3184 71.3372 32.3184 69.9375C32.3184 68.9544 32.6016 68.1602 33.168 67.5547C33.7409 66.9427 34.5189 66.3991 35.502 65.9238C34.9746 65.377 34.5905 64.8789 34.3496 64.4297C34.1152 63.9805 33.998 63.4954 33.998 62.9746C33.998 61.9395 34.3952 61.1452 35.1895 60.5918C35.9837 60.0384 37.0026 59.7617 38.2461 59.7617C39.444 59.7617 40.4173 60.0449 41.166 60.6113C41.9212 61.1777 42.2988 61.9102 42.2988 62.8086C42.2988 63.4922 42.1068 64.0944 41.7227 64.6152C41.3385 65.1296 40.5638 65.6602 39.3984 66.207L42.6895 69.1953C43.1647 68.6029 43.4837 68.0072 43.6465 67.4082C43.8092 66.8027 43.8906 66.1354 43.8906 65.4062H46.625C46.625 66.3958 46.459 67.3171 46.127 68.1699C45.8014 69.0228 45.235 69.8887 44.4277 70.7676L47.9922 74H44.0859ZM37.9141 64.8594C38.4609 64.625 38.8711 64.3776 39.1445 64.1172C39.4245 63.8503 39.5645 63.4857 39.5645 63.0234C39.5645 62.6393 39.431 62.3431 39.1641 62.1348C38.8971 61.9264 38.5911 61.8223 38.2461 61.8223C37.8099 61.8223 37.4551 61.946 37.1816 62.1934C36.9082 62.4342 36.7715 62.7272 36.7715 63.0723C36.7715 63.3652 36.8626 63.6452 37.0449 63.9121C37.2272 64.1725 37.5169 64.4883 37.9141 64.8594ZM40.8047 70.9238L37.0449 67.3984C36.6087 67.6458 36.2311 67.9583 35.9121 68.3359C35.5996 68.707 35.4434 69.1986 35.4434 69.8105C35.4434 70.4421 35.6582 70.9466 36.0879 71.3242C36.5176 71.7018 37.0742 71.8906 37.7578 71.8906C38.3372 71.8906 38.8646 71.819 39.3398 71.6758C39.8151 71.5326 40.3034 71.2819 40.8047 70.9238ZM61.0684 73.8438C60.7559 73.974 60.4043 74.0716 60.0137 74.1367C59.6296 74.2083 59.2389 74.2441 58.8418 74.2441C57.748 74.2441 56.9245 73.9805 56.3711 73.4531C55.8177 72.9258 55.541 72.138 55.541 71.0898V66.2754H53.9199V64H55.541V61.5781L58.6172 60.6992V64H60.8633V66.2754H58.6172V70.8945C58.6172 71.2786 58.6921 71.5586 58.8418 71.7344C58.9915 71.9036 59.2324 71.9883 59.5645 71.9883C59.7272 71.9883 59.8835 71.9688 60.0332 71.9297C60.1829 71.8841 60.3262 71.8288 60.4629 71.7637L61.0684 73.8438ZM72.2109 74H69.1348V68.3164C69.1348 67.5807 69.0013 67.0306 68.7344 66.666C68.4674 66.3014 68.0671 66.1191 67.5332 66.1191C66.9863 66.1191 66.5436 66.3242 66.2051 66.7344C65.8665 67.1445 65.6973 67.6654 65.6973 68.2969V74H62.6113V59.1953H65.6973V65.4844H65.7363C66.1139 64.9049 66.5599 64.472 67.0742 64.1855C67.5885 63.8991 68.168 63.7559 68.8125 63.7559C69.9453 63.7559 70.7949 64.0977 71.3613 64.7812C71.9277 65.4648 72.2109 66.4902 72.2109 67.8574V74ZM83.6465 69.8789H77.123C77.1751 70.6016 77.416 71.1387 77.8457 71.4902C78.2819 71.8418 78.8809 72.0176 79.6426 72.0176C79.929 72.0176 80.3229 71.9329 80.8242 71.7637C81.332 71.5879 81.8236 71.3145 82.2988 70.9434L83.666 72.6914C82.9824 73.2318 82.2793 73.6257 81.5566 73.873C80.834 74.1204 80.0365 74.2441 79.1641 74.2441C77.5495 74.2441 76.2962 73.7982 75.4043 72.9062C74.5124 72.0078 74.0664 70.7578 74.0664 69.1562C74.0664 67.5612 74.5384 66.2624 75.4824 65.2598C76.4264 64.2572 77.6211 63.7559 79.0664 63.7559C80.4531 63.7559 81.5632 64.1758 82.3965 65.0156C83.2298 65.849 83.6465 67.0632 83.6465 68.6582V69.8789ZM80.7852 67.9844C80.7852 67.2096 80.6387 66.6595 80.3457 66.334C80.0592 66.002 79.6263 65.8359 79.0469 65.8359C78.5521 65.8359 78.1224 66.028 77.7578 66.4121C77.3997 66.7962 77.1816 67.3203 77.1035 67.9844H80.7852ZM90.248 74.2441C88.5814 74.2441 87.2695 73.7754 86.3125 72.8379C85.3555 71.9004 84.8802 70.6341 84.8867 69.0391C84.8932 67.3854 85.388 66.0931 86.3711 65.1621C87.3607 64.2246 88.6986 63.7559 90.3848 63.7559C92.0449 63.7559 93.347 64.2214 94.291 65.1523C95.235 66.0833 95.707 67.3203 95.707 68.8633C95.707 70.5169 95.2188 71.8288 94.2422 72.7988C93.2721 73.7624 91.9408 74.2441 90.248 74.2441ZM90.3457 71.8809C91.0879 71.8809 91.6413 71.6335 92.0059 71.1387C92.377 70.6439 92.5625 69.9049 92.5625 68.9219C92.5625 67.9909 92.377 67.291 92.0059 66.8223C91.6348 66.3535 91.0749 66.1191 90.3262 66.1191C89.597 66.1191 89.0306 66.373 88.627 66.8809C88.2233 67.3822 88.0215 68.0885 88.0215 69C88.0215 69.9635 88.2135 70.6862 88.5977 71.168C88.9883 71.6432 89.571 71.8809 90.3457 71.8809ZM109.896 72.623C109.545 73.1634 109.112 73.5703 108.598 73.8438C108.083 74.1107 107.484 74.2441 106.801 74.2441C105.557 74.2441 104.551 73.8047 103.783 72.9258C103.021 72.0404 102.641 70.8066 102.641 69.2246C102.641 67.571 103.061 66.2461 103.9 65.25C104.747 64.2539 105.847 63.7559 107.201 63.7559C107.846 63.7559 108.393 63.873 108.842 64.1074C109.291 64.3353 109.643 64.6803 109.896 65.1426H109.936V59.1953H113.021V74H109.936V72.623H109.896ZM105.775 69.1367C105.775 70.0156 105.961 70.6927 106.332 71.168C106.703 71.6432 107.217 71.8809 107.875 71.8809C108.5 71.8809 109.008 71.6302 109.398 71.1289C109.796 70.6276 109.994 69.9635 109.994 69.1367V68.3848C109.994 67.7337 109.805 67.1934 109.428 66.7637C109.05 66.334 108.559 66.1191 107.953 66.1191C107.27 66.1191 106.736 66.3893 106.352 66.9297C105.967 67.4635 105.775 68.1992 105.775 69.1367ZM120.385 74.2441C118.718 74.2441 117.406 73.7754 116.449 72.8379C115.492 71.9004 115.017 70.6341 115.023 69.0391C115.03 67.3854 115.525 66.0931 116.508 65.1621C117.497 64.2246 118.835 63.7559 120.521 63.7559C122.182 63.7559 123.484 64.2214 124.428 65.1523C125.372 66.0833 125.844 67.3203 125.844 68.8633C125.844 70.5169 125.355 71.8288 124.379 72.7988C123.409 73.7624 122.077 74.2441 120.385 74.2441ZM120.482 71.8809C121.225 71.8809 121.778 71.6335 122.143 71.1387C122.514 70.6439 122.699 69.9049 122.699 68.9219C122.699 67.9909 122.514 67.291 122.143 66.8223C121.771 66.3535 121.212 66.1191 120.463 66.1191C119.734 66.1191 119.167 66.373 118.764 66.8809C118.36 67.3822 118.158 68.0885 118.158 69C118.158 69.9635 118.35 70.6862 118.734 71.168C119.125 71.6432 119.708 71.8809 120.482 71.8809ZM123.969 59.3906C123.969 60.3021 123.786 61.0085 123.422 61.5098C123.064 62.0046 122.572 62.252 121.947 62.252C121.667 62.252 121.391 62.2161 121.117 62.1445C120.844 62.0729 120.574 61.9688 120.307 61.832C120.02 61.6758 119.776 61.5618 119.574 61.4902C119.372 61.4121 119.216 61.373 119.105 61.373C118.845 61.373 118.65 61.4609 118.52 61.6367C118.389 61.8125 118.324 62.0762 118.324 62.4277H116.947C116.947 61.5228 117.126 60.8197 117.484 60.3184C117.842 59.8171 118.344 59.5664 118.988 59.5664C119.255 59.5664 119.525 59.6055 119.799 59.6836C120.072 59.7617 120.349 59.8822 120.629 60.0449C120.889 60.1882 121.117 60.2956 121.312 60.3672C121.508 60.4388 121.671 60.4746 121.801 60.4746C122.055 60.4746 122.243 60.3835 122.367 60.2012C122.497 60.0189 122.562 59.7487 122.562 59.3906H123.969ZM129.408 62.623C128.874 62.623 128.438 62.4603 128.1 62.1348C127.761 61.8092 127.592 61.4056 127.592 60.9238C127.592 60.4225 127.761 60.0156 128.1 59.7031C128.438 59.3841 128.874 59.2246 129.408 59.2246C129.949 59.2246 130.385 59.3841 130.717 59.7031C131.055 60.0156 131.225 60.4225 131.225 60.9238C131.225 61.4251 131.055 61.8353 130.717 62.1543C130.385 62.4668 129.949 62.623 129.408 62.623ZM130.932 74H127.846V64H130.932V74Z" fill="#E65925"/>
</svg>
